<svg width="553" height="310" viewBox="0 0 553 310" fill="none" xmlns="http://www.w3.org/2000/svg">
<rect width="553" height="310" fill="white"/>
<path fill-rule="evenodd" clip-rule="evenodd" d="M421 237C421 234.239 418.761 232 416 232C413.239 232 411 234.239 411 237V285H421V237Z" fill="#E0E0E0"/>
<path fill-rule="evenodd" clip-rule="evenodd" d="M347 282V258H337V282V283.282H337.166C337.732 285.422 339.682 287 342 287C344.318 287 346.268 285.422 346.834 283.282H347V282Z" fill="#E0E0E0"/>
<rect x="338" y="278.971" width="180" height="10" transform="rotate(-32.9758 338 278.971)" fill="#E0E0E0"/>
<path fill-rule="evenodd" clip-rule="evenodd" d="M321.586 258.5H361.758C367.264 257.128 371.344 252.15 371.344 246.219V242H312V246.219C312 252.15 316.08 257.128 321.586 258.5Z" fill="#D55E00"/>
<path fill-rule="evenodd" clip-rule="evenodd" d="M495 186V161H485V186V186.282H485.008C485.154 188.912 487.333 191 490 191C492.667 191 494.846 188.912 494.992 186.282H495V186Z" fill="#E0E0E0"/>
<path fill-rule="evenodd" clip-rule="evenodd" d="M469.586 161.5H509.758C515.264 160.128 519.344 155.15 519.344 149.219V145H460V149.219C460 155.15 464.08 160.128 469.586 161.5Z" fill="#D55E00"/>
<path d="M399.827 128.548C404.453 122.373 407 114.733 407 107.035C407 87.1652 390.73 71 370.73 71H311.27C291.271 71 275 87.1652 275 107.035C275 114.733 277.547 122.373 282.173 128.548L293.656 143.879C283.005 155.545 277.189 170.477 277.189 186.387C277.189 197.724 280.238 208.85 286.008 218.563C291.605 227.987 299.605 235.859 309.142 241.329L310.312 242H371.687L372.857 241.329C382.394 235.859 390.395 227.987 395.992 218.563C401.761 208.85 404.811 197.724 404.811 186.387C404.811 170.477 398.994 155.545 388.343 143.879L399.827 128.548ZM311.27 102.729H370.731L374.208 109.606L358.977 130.787C353.311 128.98 347.271 128 341.001 128C334.73 128 328.691 128.98 323.024 130.787L307.793 109.606L311.27 102.729Z" fill="url(#paint0_radial)"/>
<path d="M298.513 184V172.264H301.231L303.697 178.096L304.705 180.688H304.777C304.717 180.064 304.639 179.374 304.543 178.618C304.447 177.85 304.399 177.118 304.399 176.422V172.264H306.937V184H304.219L301.753 178.15L300.745 175.594H300.673C300.733 176.242 300.811 176.938 300.907 177.682C301.003 178.426 301.051 179.146 301.051 179.842V184H298.513ZM315.354 184.216C313.914 184.216 312.84 183.814 312.132 183.01C311.424 182.194 311.07 181.018 311.07 179.482V172.264H313.716V179.752C313.716 180.46 313.848 181 314.112 181.372C314.376 181.744 314.79 181.93 315.354 181.93C315.918 181.93 316.332 181.744 316.596 181.372C316.872 181 317.01 180.46 317.01 179.752V172.264H319.566V179.482C319.566 181.018 319.218 182.194 318.522 183.01C317.838 183.814 316.782 184.216 315.354 184.216ZM323.555 184V172.264H326.327L327.479 176.422L327.875 178.042H327.947L328.343 176.422L329.495 172.264H332.267V184H330.035V180.364C330.035 180.04 330.047 179.632 330.071 179.14C330.095 178.648 330.125 178.144 330.161 177.628C330.197 177.112 330.233 176.614 330.269 176.134C330.317 175.642 330.353 175.24 330.377 174.928H330.323L329.423 178.06L328.523 180.886H327.227L326.309 178.06L325.463 174.928H325.409C325.445 175.24 325.481 175.642 325.517 176.134C325.553 176.614 325.589 177.112 325.625 177.628C325.661 178.144 325.691 178.648 325.715 179.14C325.739 179.632 325.751 180.04 325.751 180.364V184H323.555ZM336.76 184V172.264H344.536V174.496H339.424V176.854H343.762V179.068H339.424V181.768H344.716V184H336.76ZM348.956 184V172.264H353.114C353.738 172.264 354.32 172.324 354.86 172.444C355.412 172.564 355.892 172.768 356.3 173.056C356.72 173.332 357.05 173.704 357.29 174.172C357.53 174.64 357.65 175.222 357.65 175.918C357.65 176.782 357.458 177.496 357.074 178.06C356.69 178.612 356.186 179.026 355.562 179.302L358.208 184H355.238L352.988 179.77H351.602V184H348.956ZM351.602 177.664H352.898C354.326 177.664 355.04 177.082 355.04 175.918C355.04 175.342 354.86 174.94 354.5 174.712C354.14 174.484 353.606 174.37 352.898 174.37H351.602V177.664ZM361.621 184V181.768H364.357V174.496H361.621V172.264H369.757V174.496H367.021V181.768H369.757V184H361.621ZM379.29 184.216C378.558 184.216 377.862 184.09 377.202 183.838C376.554 183.574 375.978 183.19 375.474 182.686C374.982 182.182 374.586 181.558 374.286 180.814C373.998 180.058 373.854 179.188 373.854 178.204C373.854 177.232 373.998 176.368 374.286 175.612C374.574 174.844 374.97 174.196 375.474 173.668C375.978 173.14 376.572 172.738 377.256 172.462C377.94 172.186 378.672 172.048 379.452 172.048C380.196 172.048 380.868 172.204 381.468 172.516C382.068 172.816 382.566 173.158 382.962 173.542L381.504 175.18C381.228 174.928 380.922 174.724 380.586 174.568C380.262 174.412 379.884 174.334 379.452 174.334C379.032 174.334 378.648 174.424 378.3 174.604C377.952 174.772 377.646 175.018 377.382 175.342C377.13 175.666 376.932 176.062 376.788 176.53C376.644 176.998 376.572 177.526 376.572 178.114C376.572 179.326 376.848 180.268 377.4 180.94C377.952 181.6 378.672 181.93 379.56 181.93C379.98 181.93 380.364 181.834 380.712 181.642C381.072 181.45 381.396 181.198 381.684 180.886L383.142 182.488C382.17 183.64 380.886 184.216 379.29 184.216Z" fill="#6FCF97"/>
<path d="M327.708 207V200.48H329.508C329.981 200.48 330.411 200.543 330.798 200.67C331.184 200.797 331.514 200.993 331.788 201.26C332.061 201.52 332.271 201.853 332.418 202.26C332.571 202.667 332.648 203.15 332.648 203.71C332.648 204.27 332.574 204.757 332.428 205.17C332.281 205.583 332.071 205.927 331.798 206.2C331.531 206.467 331.211 206.667 330.838 206.8C330.464 206.933 330.051 207 329.598 207H327.708ZM329.188 205.81H329.428C329.681 205.81 329.911 205.773 330.118 205.7C330.331 205.627 330.511 205.51 330.658 205.35C330.811 205.183 330.928 204.967 331.008 204.7C331.094 204.433 331.138 204.103 331.138 203.71C331.138 203.323 331.094 203 331.008 202.74C330.928 202.473 330.811 202.263 330.658 202.11C330.511 201.95 330.331 201.837 330.118 201.77C329.911 201.703 329.681 201.67 329.428 201.67H329.188V205.81ZM336.444 203.7L336.294 204.3H337.664L337.514 203.7C337.427 203.373 337.337 203.03 337.244 202.67C337.151 202.303 337.067 201.947 336.994 201.6H336.954C336.874 201.947 336.791 202.303 336.704 202.67C336.617 203.03 336.531 203.373 336.444 203.7ZM334.094 207L336.124 200.48H337.884L339.914 207H338.354L337.964 205.45H335.994L335.594 207H334.094ZM343.26 207V201.72H341.31V200.48H346.69V201.72H344.74V207H343.26ZM350.436 203.7L350.286 204.3H351.656L351.506 203.7C351.419 203.373 351.329 203.03 351.236 202.67C351.143 202.303 351.059 201.947 350.986 201.6H350.946C350.866 201.947 350.783 202.303 350.696 202.67C350.609 203.03 350.523 203.373 350.436 203.7ZM348.086 207L350.116 200.48H351.876L353.906 207H352.346L351.956 205.45H349.986L349.586 207H348.086ZM329.268 220V214.72H327.318V213.48H332.698V214.72H330.748V220H329.268ZM336.264 220V217.8L334.164 213.48H335.744L336.404 215.05C336.497 215.303 336.594 215.55 336.694 215.79C336.794 216.03 336.894 216.28 336.994 216.54H337.034C337.141 216.28 337.244 216.03 337.344 215.79C337.444 215.55 337.544 215.303 337.644 215.05L338.304 213.48H339.844L337.744 217.8V220H336.264ZM341.75 220V213.48H344.06C344.413 213.48 344.743 213.517 345.05 213.59C345.363 213.657 345.633 213.773 345.86 213.94C346.093 214.1 346.277 214.317 346.41 214.59C346.543 214.857 346.61 215.187 346.61 215.58C346.61 215.96 346.54 216.29 346.4 216.57C346.267 216.85 346.083 217.08 345.85 217.26C345.617 217.44 345.347 217.573 345.04 217.66C344.733 217.747 344.407 217.79 344.06 217.79H343.22V220H341.75ZM343.22 216.62H343.97C344.77 216.62 345.17 216.273 345.17 215.58C345.17 215.24 345.067 215 344.86 214.86C344.66 214.72 344.363 214.65 343.97 214.65H343.22V216.62ZM348.916 220V213.48H353.236V214.72H350.396V216.03H352.806V217.26H350.396V218.76H353.336V220H348.916Z" fill="white"/>
<path d="M537.24 54.1059C540.954 49.1584 543 43.0373 543 36.8701C543 20.9511 529.935 8 513.874 8H466.126C450.066 8 437 20.9511 437 36.8701C437 43.0373 439.046 49.1584 442.76 54.1059L451.982 66.3883C443.428 75.7349 438.758 87.6983 438.758 100.445C438.758 109.527 441.207 118.441 445.839 126.223C450.334 133.773 456.758 140.08 464.417 144.462L465.357 145H514.643L515.582 144.462C523.241 140.08 529.665 133.773 534.16 126.223C538.793 118.441 541.242 109.527 541.242 100.445C541.242 87.6983 536.571 75.7349 528.018 66.3883L537.24 54.1059ZM466.126 33.42H513.875L516.667 38.9302L504.436 55.8993C499.886 54.4517 495.036 53.6668 490.001 53.6668C484.965 53.6668 480.115 54.4517 475.565 55.8993L463.334 38.93L466.126 33.42Z" fill="url(#paint1_radial)"/>
<path d="M452.306 99V97.016H454.738V90.552H452.306V88.568H459.538V90.552H457.106V97.016H459.538V99H452.306ZM463.372 99V88.568H465.788L467.98 93.752L468.876 96.056H468.94C468.886 95.5013 468.817 94.888 468.732 94.216C468.646 93.5333 468.604 92.8827 468.604 92.264V88.568H470.86V99H468.444L466.252 93.8L465.356 91.528H465.292C465.345 92.104 465.414 92.7227 465.5 93.384C465.585 94.0453 465.628 94.6853 465.628 95.304V99H463.372ZM477.125 99V90.552H474.005V88.568H482.613V90.552H479.493V99H477.125ZM486.175 99V88.568H493.087V90.552H488.543V92.648H492.399V94.616H488.543V97.016H493.247V99H486.175ZM501.385 99.192C500.713 99.192 500.084 99.08 499.497 98.856C498.921 98.6213 498.414 98.28 497.977 97.832C497.55 97.384 497.214 96.8293 496.969 96.168C496.724 95.496 496.601 94.7227 496.601 93.848C496.601 92.9733 496.724 92.2 496.969 91.528C497.225 90.8453 497.566 90.2747 497.993 89.816C498.43 89.3467 498.942 88.9893 499.529 88.744C500.116 88.4987 500.745 88.376 501.417 88.376C502.121 88.376 502.718 88.5147 503.209 88.792C503.71 89.0587 504.132 89.3627 504.473 89.704L503.177 91.16C502.953 90.936 502.708 90.7547 502.441 90.616C502.174 90.4773 501.833 90.408 501.417 90.408C501.076 90.408 500.761 90.488 500.473 90.648C500.185 90.7973 499.934 91.016 499.721 91.304C499.508 91.592 499.337 91.944 499.209 92.36C499.092 92.776 499.033 93.2453 499.033 93.768C499.033 94.8453 499.236 95.6827 499.641 96.28C500.057 96.8667 500.681 97.16 501.513 97.16C501.716 97.16 501.908 97.1333 502.089 97.08C502.27 97.0267 502.42 96.9467 502.537 96.84V95.048H501.017V93.128H504.649V97.928C504.297 98.2587 503.833 98.552 503.257 98.808C502.681 99.064 502.057 99.192 501.385 99.192ZM508.563 99V88.568H515.475V90.552H510.931V92.648H514.787V94.616H510.931V97.016H515.635V99H508.563ZM519.404 99V88.568H523.1C523.655 88.568 524.172 88.6213 524.652 88.728C525.143 88.8347 525.57 89.016 525.932 89.272C526.306 89.5173 526.599 89.848 526.812 90.264C527.026 90.68 527.132 91.1973 527.132 91.816C527.132 92.584 526.962 93.2187 526.62 93.72C526.279 94.2107 525.831 94.5787 525.276 94.824L527.628 99H524.988L522.988 95.24H521.756V99H519.404ZM521.756 93.368H522.908C524.178 93.368 524.812 92.8507 524.812 91.816C524.812 91.304 524.652 90.9467 524.332 90.744C524.012 90.5413 523.538 90.44 522.908 90.44H521.756V93.368Z" fill="#56CCF2"/>
<path d="M476.708 118V111.48H478.508C478.981 111.48 479.411 111.543 479.798 111.67C480.184 111.797 480.514 111.993 480.788 112.26C481.061 112.52 481.271 112.853 481.418 113.26C481.571 113.667 481.648 114.15 481.648 114.71C481.648 115.27 481.574 115.757 481.428 116.17C481.281 116.583 481.071 116.927 480.798 117.2C480.531 117.467 480.211 117.667 479.838 117.8C479.464 117.933 479.051 118 478.598 118H476.708ZM478.188 116.81H478.428C478.681 116.81 478.911 116.773 479.118 116.7C479.331 116.627 479.511 116.51 479.658 116.35C479.811 116.183 479.928 115.967 480.008 115.7C480.094 115.433 480.138 115.103 480.138 114.71C480.138 114.323 480.094 114 480.008 113.74C479.928 113.473 479.811 113.263 479.658 113.11C479.511 112.95 479.331 112.837 479.118 112.77C478.911 112.703 478.681 112.67 478.428 112.67H478.188V116.81ZM485.444 114.7L485.294 115.3H486.664L486.514 114.7C486.427 114.373 486.337 114.03 486.244 113.67C486.151 113.303 486.067 112.947 485.994 112.6H485.954C485.874 112.947 485.791 113.303 485.704 113.67C485.617 114.03 485.531 114.373 485.444 114.7ZM483.094 118L485.124 111.48H486.884L488.914 118H487.354L486.964 116.45H484.994L484.594 118H483.094ZM492.26 118V112.72H490.31V111.48H495.69V112.72H493.74V118H492.26ZM499.436 114.7L499.286 115.3H500.656L500.506 114.7C500.419 114.373 500.329 114.03 500.236 113.67C500.143 113.303 500.059 112.947 499.986 112.6H499.946C499.866 112.947 499.783 113.303 499.696 113.67C499.609 114.03 499.523 114.373 499.436 114.7ZM497.086 118L499.116 111.48H500.876L502.906 118H501.346L500.956 116.45H498.986L498.586 118H497.086ZM478.268 131V125.72H476.318V124.48H481.698V125.72H479.748V131H478.268ZM485.264 131V128.8L483.164 124.48H484.744L485.404 126.05C485.497 126.303 485.594 126.55 485.694 126.79C485.794 127.03 485.894 127.28 485.994 127.54H486.034C486.141 127.28 486.244 127.03 486.344 126.79C486.444 126.55 486.544 126.303 486.644 126.05L487.304 124.48H488.844L486.744 128.8V131H485.264ZM490.75 131V124.48H493.06C493.413 124.48 493.743 124.517 494.05 124.59C494.363 124.657 494.633 124.773 494.86 124.94C495.093 125.1 495.277 125.317 495.41 125.59C495.543 125.857 495.61 126.187 495.61 126.58C495.61 126.96 495.54 127.29 495.4 127.57C495.267 127.85 495.083 128.08 494.85 128.26C494.617 128.44 494.347 128.573 494.04 128.66C493.733 128.747 493.407 128.79 493.06 128.79H492.22V131H490.75ZM492.22 127.62H492.97C493.77 127.62 494.17 127.273 494.17 126.58C494.17 126.24 494.067 126 493.86 125.86C493.66 125.72 493.363 125.65 492.97 125.65H492.22V127.62ZM497.916 131V124.48H502.236V125.72H499.396V127.03H501.806V128.26H499.396V129.76H502.336V131H497.916Z" fill="white"/>
<path fill-rule="evenodd" clip-rule="evenodd" d="M411.625 284V284.125H377.875V292.562H361V301H470.688V292.562H453.812V284.125H420.062V284H411.625Z" fill="#D55E00"/>
<rect x="10" y="196" width="235" height="50" rx="4" fill="#F1F4F8"/>
<path d="M104.924 225V223.496H107.756V216.808H105.5V215.656C105.82 215.613 106.108 215.565 106.364 215.512C106.62 215.448 106.854 215.384 107.068 215.32C107.292 215.256 107.5 215.181 107.692 215.096C107.884 215.011 108.07 214.92 108.252 214.824H109.596V223.496H112.092V225H104.924ZM118.773 225V222.376H113.701V221.128L118.373 214.808H120.501V220.952H121.941V222.376H120.501V225H118.773ZM115.573 220.952H118.773V218.52C118.784 218.211 118.795 217.875 118.805 217.512C118.827 217.149 118.848 216.813 118.869 216.504H118.789C118.619 216.771 118.443 217.037 118.261 217.304C118.08 217.571 117.899 217.843 117.717 218.12L115.573 220.952ZM127.247 225.192C126.351 225.192 125.604 225.053 125.007 224.776C124.42 224.488 123.924 224.157 123.519 223.784L124.367 222.6C124.708 222.888 125.087 223.144 125.503 223.368C125.93 223.581 126.436 223.688 127.023 223.688C127.663 223.688 128.196 223.517 128.623 223.176C129.06 222.835 129.279 222.355 129.279 221.736C129.279 221.128 129.076 220.659 128.671 220.328C128.276 219.997 127.754 219.832 127.103 219.832C126.73 219.832 126.41 219.88 126.143 219.976C125.876 220.061 125.567 220.205 125.215 220.408L124.335 219.848L124.655 214.824H130.655V216.376H126.255L126.031 218.84C126.298 218.733 126.554 218.653 126.799 218.6C127.044 218.536 127.322 218.504 127.631 218.504C128.111 218.504 128.564 218.568 128.991 218.696C129.418 218.824 129.786 219.021 130.095 219.288C130.415 219.544 130.666 219.875 130.847 220.28C131.039 220.675 131.135 221.144 131.135 221.688C131.135 222.243 131.028 222.739 130.815 223.176C130.602 223.613 130.314 223.981 129.951 224.28C129.588 224.579 129.172 224.808 128.703 224.968C128.244 225.117 127.759 225.192 127.247 225.192ZM137.097 225.192C136.638 225.192 136.26 225.043 135.961 224.744C135.662 224.435 135.513 224.045 135.513 223.576C135.513 223.107 135.662 222.723 135.961 222.424C136.26 222.115 136.638 221.96 137.097 221.96C137.556 221.96 137.934 222.115 138.233 222.424C138.532 222.723 138.681 223.107 138.681 223.576C138.681 224.045 138.532 224.435 138.233 224.744C137.934 225.043 137.556 225.192 137.097 225.192ZM142.931 225V223.928C143.731 223.245 144.445 222.621 145.075 222.056C145.704 221.48 146.237 220.947 146.675 220.456C147.123 219.965 147.464 219.507 147.699 219.08C147.933 218.653 148.051 218.243 148.051 217.848C148.051 217.304 147.885 216.877 147.555 216.568C147.224 216.248 146.739 216.088 146.099 216.088C145.651 216.088 145.24 216.2 144.867 216.424C144.504 216.648 144.168 216.915 143.859 217.224L142.851 216.2C143.341 215.699 143.859 215.315 144.403 215.048C144.947 214.771 145.592 214.632 146.339 214.632C146.861 214.632 147.336 214.707 147.763 214.856C148.189 215.005 148.552 215.219 148.851 215.496C149.16 215.763 149.395 216.088 149.555 216.472C149.725 216.856 149.811 217.283 149.811 217.752C149.811 218.2 149.699 218.659 149.475 219.128C149.261 219.587 148.968 220.056 148.595 220.536C148.221 221.005 147.773 221.491 147.251 221.992C146.739 222.493 146.189 223.011 145.603 223.544C145.901 223.523 146.216 223.501 146.547 223.48C146.877 223.448 147.181 223.432 147.459 223.432H150.339V225H142.931Z" fill="#27AE60"/>
<path d="M101.903 158L102.655 154.336L100.463 147.488H101.743L102.719 150.72C102.847 151.157 102.975 151.611 103.103 152.08C103.241 152.539 103.353 152.955 103.439 153.328H103.503C103.609 153.157 103.727 152.965 103.855 152.752C103.993 152.539 104.132 152.32 104.271 152.096C104.42 151.861 104.569 151.627 104.719 151.392C104.879 151.157 105.033 150.933 105.183 150.72L107.423 147.488H108.735L103.855 154.464L103.135 158H101.903ZM113.865 158.192C113.246 158.192 112.739 158.027 112.345 157.696C111.961 157.365 111.769 156.88 111.769 156.24C111.769 155.995 111.811 155.712 111.897 155.392L112.825 151.216H109.977L110.185 150.224H114.249L113.081 155.504C113.059 155.6 113.043 155.691 113.033 155.776C113.022 155.851 113.016 155.931 113.016 156.016C113.016 156.421 113.129 156.715 113.353 156.896C113.577 157.077 113.865 157.168 114.217 157.168C114.462 157.168 114.702 157.131 114.937 157.056C115.171 156.981 115.427 156.88 115.705 156.752L115.993 157.68C115.662 157.829 115.331 157.952 115.001 158.048C114.67 158.144 114.291 158.192 113.865 158.192ZM113.801 148.576C113.545 148.576 113.326 148.507 113.145 148.368C112.974 148.219 112.889 148.005 112.889 147.728C112.889 147.419 112.995 147.157 113.209 146.944C113.433 146.731 113.694 146.624 113.993 146.624C114.27 146.624 114.494 146.699 114.665 146.848C114.835 146.987 114.921 147.195 114.921 147.472C114.921 147.781 114.809 148.043 114.585 148.256C114.371 148.469 114.11 148.576 113.801 148.576ZM122.226 158.192C121.213 158.192 120.408 157.909 119.81 157.344C119.213 156.768 118.914 155.931 118.914 154.832C118.914 154.128 119.032 153.483 119.266 152.896C119.512 152.309 119.837 151.808 120.242 151.392C120.658 150.965 121.133 150.635 121.666 150.4C122.2 150.155 122.76 150.032 123.346 150.032C123.826 150.032 124.248 150.107 124.61 150.256C124.984 150.405 125.293 150.613 125.538 150.88C125.794 151.147 125.986 151.467 126.114 151.84C126.242 152.203 126.306 152.597 126.306 153.024C126.306 153.301 126.28 153.579 126.226 153.856C126.184 154.123 126.141 154.309 126.098 154.416H120.146C120.136 154.469 120.13 154.528 120.13 154.592C120.13 154.645 120.13 154.704 120.13 154.768C120.13 155.557 120.344 156.165 120.77 156.592C121.197 157.008 121.762 157.216 122.466 157.216C122.978 157.216 123.458 157.12 123.906 156.928C124.354 156.736 124.76 156.496 125.122 156.208L125.586 157.04C125.192 157.349 124.701 157.621 124.114 157.856C123.538 158.08 122.909 158.192 122.226 158.192ZM123.282 151.008C122.984 151.008 122.685 151.067 122.386 151.184C122.088 151.291 121.805 151.451 121.538 151.664C121.282 151.877 121.048 152.139 120.834 152.448C120.621 152.747 120.456 153.083 120.338 153.456H125.106C125.138 153.296 125.154 153.136 125.154 152.976C125.154 152.368 124.984 151.888 124.642 151.536C124.312 151.184 123.858 151.008 123.282 151.008ZM132.7 158.192C132.092 158.192 131.591 158.021 131.196 157.68C130.812 157.328 130.62 156.811 130.62 156.128C130.62 155.861 130.657 155.573 130.732 155.264L132.348 147.6H129.756L129.964 146.608H133.756L131.932 155.312C131.879 155.579 131.852 155.813 131.852 156.016C131.852 156.421 131.959 156.715 132.172 156.896C132.385 157.077 132.673 157.168 133.036 157.168C133.292 157.168 133.537 157.136 133.772 157.072C134.017 156.997 134.279 156.885 134.556 156.736L134.86 157.68C134.519 157.851 134.167 157.979 133.804 158.064C133.452 158.149 133.084 158.192 132.7 158.192ZM140.582 158.192C139.782 158.192 139.136 157.941 138.646 157.44C138.166 156.928 137.926 156.187 137.926 155.216C137.926 154.523 138.038 153.861 138.262 153.232C138.486 152.603 138.79 152.053 139.174 151.584C139.558 151.104 140.006 150.725 140.518 150.448C141.04 150.171 141.6 150.032 142.198 150.032C142.752 150.032 143.227 150.139 143.622 150.352C144.016 150.555 144.326 150.827 144.55 151.168H144.598L144.854 149.648L145.462 146.608H146.694L144.39 158H143.382L143.51 156.816H143.446C143.04 157.232 142.587 157.568 142.086 157.824C141.595 158.069 141.094 158.192 140.582 158.192ZM140.966 157.168C141.392 157.168 141.835 157.04 142.294 156.784C142.763 156.528 143.211 156.155 143.638 155.664L144.342 152.208C144.075 151.803 143.771 151.509 143.43 151.328C143.088 151.147 142.731 151.056 142.358 151.056C141.91 151.056 141.494 151.168 141.11 151.392C140.726 151.605 140.39 151.899 140.102 152.272C139.824 152.635 139.6 153.056 139.43 153.536C139.27 154.005 139.19 154.501 139.19 155.024C139.19 155.76 139.35 156.304 139.67 156.656C139.99 156.997 140.422 157.168 140.966 157.168ZM151.008 158.192C150.336 158.192 149.685 158.064 149.056 157.808C148.437 157.552 147.941 157.205 147.568 156.768L148.272 155.984C148.656 156.421 149.104 156.741 149.616 156.944C150.128 157.136 150.666 157.232 151.232 157.232C151.776 157.232 152.224 157.136 152.576 156.944C152.938 156.752 153.12 156.437 153.12 156C153.12 155.627 152.938 155.339 152.576 155.136C152.224 154.933 151.722 154.725 151.072 154.512C150.261 154.235 149.669 153.925 149.296 153.584C148.922 153.232 148.736 152.784 148.736 152.24C148.736 151.867 148.81 151.541 148.96 151.264C149.12 150.987 149.333 150.757 149.6 150.576C149.866 150.395 150.176 150.261 150.528 150.176C150.88 150.08 151.253 150.032 151.648 150.032C152.394 150.032 153.04 150.16 153.584 150.416C154.128 150.672 154.565 150.965 154.896 151.296L154.208 152.048C153.888 151.771 153.504 151.525 153.056 151.312C152.608 151.099 152.096 150.992 151.52 150.992C151.008 150.992 150.608 151.093 150.32 151.296C150.042 151.488 149.904 151.755 149.904 152.096C149.904 152.459 150.064 152.741 150.384 152.944C150.714 153.147 151.194 153.355 151.824 153.568C152.186 153.696 152.517 153.829 152.816 153.968C153.125 154.096 153.386 154.245 153.6 154.416C153.813 154.587 153.978 154.789 154.096 155.024C154.224 155.248 154.288 155.52 154.288 155.84C154.288 156.256 154.202 156.613 154.032 156.912C153.861 157.211 153.626 157.456 153.328 157.648C153.029 157.84 152.682 157.979 152.288 158.064C151.893 158.149 151.466 158.192 151.008 158.192Z" fill="#505A68"/>
<rect x="10" y="64" width="235" height="50" rx="4" fill="#F1F4F8"/>
<path d="M76.1424 93V91.496H78.9744V84.808H76.7184V83.656C77.0384 83.6133 77.3264 83.5653 77.5824 83.512C77.8384 83.448 78.073 83.384 78.2864 83.32C78.5104 83.256 78.7184 83.1813 78.9104 83.096C79.1024 83.0107 79.289 82.92 79.4704 82.824H80.8144V91.496H83.3104V93H76.1424ZM85.3681 93V91.928C86.1681 91.2453 86.8828 90.6213 87.5121 90.056C88.1415 89.48 88.6748 88.9467 89.1121 88.456C89.5601 87.9653 89.9015 87.5067 90.1361 87.08C90.3708 86.6533 90.4881 86.2427 90.4881 85.848C90.4881 85.304 90.3228 84.8773 89.9921 84.568C89.6615 84.248 89.1761 84.088 88.5361 84.088C88.0881 84.088 87.6775 84.2 87.3041 84.424C86.9415 84.648 86.6055 84.9147 86.2961 85.224L85.2881 84.2C85.7788 83.6987 86.2961 83.3147 86.8401 83.048C87.3841 82.7707 88.0295 82.632 88.7761 82.632C89.2988 82.632 89.7735 82.7067 90.2001 82.856C90.6268 83.0053 90.9895 83.2187 91.2881 83.496C91.5975 83.7627 91.8321 84.088 91.9921 84.472C92.1628 84.856 92.2481 85.2827 92.2481 85.752C92.2481 86.2 92.1361 86.6587 91.9121 87.128C91.6988 87.5867 91.4055 88.056 91.0321 88.536C90.6588 89.0053 90.2108 89.4907 89.6881 89.992C89.1761 90.4933 88.6268 91.0107 88.0401 91.544C88.3388 91.5227 88.6535 91.5013 88.9841 91.48C89.3148 91.448 89.6188 91.432 89.8961 91.432H92.7761V93H85.3681ZM98.7219 93.192C98.2632 93.192 97.8845 93.0427 97.5859 92.744C97.2872 92.4347 97.1379 92.0453 97.1379 91.576C97.1379 91.1067 97.2872 90.7227 97.5859 90.424C97.8845 90.1147 98.2632 89.96 98.7219 89.96C99.1805 89.96 99.5592 90.1147 99.8579 90.424C100.157 90.7227 100.306 91.1067 100.306 91.576C100.306 92.0453 100.157 92.4347 99.8579 92.744C99.5592 93.0427 99.1805 93.192 98.7219 93.192ZM104.924 93V91.496H107.756V84.808H105.5V83.656C105.82 83.6133 106.108 83.5653 106.364 83.512C106.62 83.448 106.854 83.384 107.068 83.32C107.292 83.256 107.5 83.1813 107.692 83.096C107.884 83.0107 108.07 82.92 108.252 82.824H109.596V91.496H112.092V93H104.924ZM117.909 93.192C116.747 93.192 115.824 92.7333 115.141 91.816C114.469 90.8987 114.133 89.5813 114.133 87.864C114.133 86.136 114.469 84.8347 115.141 83.96C115.824 83.0747 116.747 82.632 117.909 82.632C119.072 82.632 119.989 83.0747 120.661 83.96C121.344 84.8347 121.685 86.136 121.685 87.864C121.685 89.5813 121.344 90.8987 120.661 91.816C119.989 92.7333 119.072 93.192 117.909 93.192ZM117.909 91.752C118.208 91.752 118.485 91.6827 118.741 91.544C119.008 91.3947 119.232 91.1653 119.413 90.856C119.605 90.5467 119.755 90.1467 119.861 89.656C119.968 89.1547 120.021 88.5573 120.021 87.864C120.021 87.1707 119.968 86.584 119.861 86.104C119.755 85.6133 119.605 85.2187 119.413 84.92C119.232 84.6213 119.008 84.408 118.741 84.28C118.485 84.1413 118.208 84.072 117.909 84.072C117.6 84.072 117.317 84.1413 117.061 84.28C116.805 84.408 116.581 84.6213 116.389 84.92C116.208 85.2187 116.064 85.6133 115.957 86.104C115.851 86.584 115.797 87.1707 115.797 87.864C115.797 88.5573 115.851 89.1547 115.957 89.656C116.064 90.1467 116.208 90.5467 116.389 90.856C116.581 91.1653 116.805 91.3947 117.061 91.544C117.317 91.6827 117.6 91.752 117.909 91.752ZM117.909 88.936C117.6 88.936 117.339 88.8347 117.125 88.632C116.912 88.4293 116.805 88.152 116.805 87.8C116.805 87.448 116.912 87.1707 117.125 86.968C117.339 86.7653 117.6 86.664 117.909 86.664C118.219 86.664 118.48 86.7653 118.693 86.968C118.907 87.1707 119.013 87.448 119.013 87.8C119.013 88.152 118.907 88.4293 118.693 88.632C118.48 88.8347 118.219 88.936 117.909 88.936Z" fill="#27AE60"/>
<path d="M135.209 91.384L134.361 90.792L136.009 88.216L133.481 87.112L133.785 86.168L136.425 86.952L136.585 84.024H137.609L137.769 86.952L140.409 86.168L140.713 87.112L138.185 88.216L139.833 90.792L138.985 91.384L137.097 88.984L135.209 91.384Z" fill="black"/>
<path d="M152.892 93V91.496H155.724V84.808H153.468V83.656C153.788 83.6133 154.076 83.5653 154.332 83.512C154.588 83.448 154.823 83.384 155.036 83.32C155.26 83.256 155.468 83.1813 155.66 83.096C155.852 83.0107 156.039 82.92 156.22 82.824H157.564V91.496H160.06V93H152.892ZM162.118 93V91.928C162.918 91.2453 163.633 90.6213 164.262 90.056C164.891 89.48 165.425 88.9467 165.862 88.456C166.31 87.9653 166.651 87.5067 166.886 87.08C167.121 86.6533 167.238 86.2427 167.238 85.848C167.238 85.304 167.073 84.8773 166.742 84.568C166.411 84.248 165.926 84.088 165.286 84.088C164.838 84.088 164.427 84.2 164.054 84.424C163.691 84.648 163.355 84.9147 163.046 85.224L162.038 84.2C162.529 83.6987 163.046 83.3147 163.59 83.048C164.134 82.7707 164.779 82.632 165.526 82.632C166.049 82.632 166.523 82.7067 166.95 82.856C167.377 83.0053 167.739 83.2187 168.038 83.496C168.347 83.7627 168.582 84.088 168.742 84.472C168.913 84.856 168.998 85.2827 168.998 85.752C168.998 86.2 168.886 86.6587 168.662 87.128C168.449 87.5867 168.155 88.056 167.782 88.536C167.409 89.0053 166.961 89.4907 166.438 89.992C165.926 90.4933 165.377 91.0107 164.79 91.544C165.089 91.5227 165.403 91.5013 165.734 91.48C166.065 91.448 166.369 91.432 166.646 91.432H169.526V93H162.118ZM172.592 93V82.536H174.432V91.432H179.344V93H172.592Z" fill="#2D9CDB"/>
<path d="M126.293 135.707C126.683 136.098 127.317 136.098 127.707 135.707L134.071 129.343C134.462 128.953 134.462 128.319 134.071 127.929C133.681 127.538 133.047 127.538 132.657 127.929L127 133.586L121.343 127.929C120.953 127.538 120.319 127.538 119.929 127.929C119.538 128.319 119.538 128.953 119.929 129.343L126.293 135.707ZM126 121L126 135L128 135L128 121L126 121Z" fill="#505A68"/>
<path d="M126.293 185.707C126.683 186.098 127.317 186.098 127.707 185.707L134.071 179.343C134.462 178.953 134.462 178.319 134.071 177.929C133.681 177.538 133.047 177.538 132.657 177.929L127 183.586L121.343 177.929C120.953 177.538 120.319 177.538 119.929 177.929C119.538 178.319 119.538 178.953 119.929 179.343L126.293 185.707ZM126 171L126 185L128 185L128 171L126 171Z" fill="#505A68"/>
<defs>
<radialGradient id="paint0_radial" cx="0" cy="0" r="1" gradientUnits="userSpaceOnUse" gradientTransform="translate(341 156.5) rotate(90) scale(85.5 66)">
<stop stop-color="#505A68"/>
<stop offset="1" stop-color="#2F3742"/>
</radialGradient>
<radialGradient id="paint1_radial" cx="0" cy="0" r="1" gradientUnits="userSpaceOnUse" gradientTransform="translate(490 76.5) rotate(90) scale(68.5 53)">
<stop stop-color="#505A68"/>
<stop offset="1" stop-color="#2F3742"/>
</radialGradient>
</defs>
</svg>
