<svg width="271" height="124" viewBox="0 0 271 124" fill="none" xmlns="http://www.w3.org/2000/svg">
<g clip-path="url(#clip0)">
<rect width="271" height="124" fill="white"/>
<rect x="10" y="24" width="178" height="89" stroke="black" stroke-width="2"/>
<rect x="33" y="73" width="37" height="24" fill="#56CCF2" stroke="black" stroke-width="2"/>
<rect x="125" y="73" width="37" height="24" fill="#56CCF2" stroke="black" stroke-width="2"/>
<rect x="79" y="73" width="37" height="24" fill="#56CCF2" stroke="black" stroke-width="2"/>
<rect x="10" y="25" width="88" height="18" fill="black"/>
<path d="M18.2383 29.6602L18.291 30.3691C18.7402 29.8184 19.3477 29.543 20.1133 29.543C20.9297 29.543 21.4902 29.8652 21.7949 30.5098C22.2402 29.8652 22.875 29.543 23.6992 29.543C24.3867 29.543 24.8984 29.7441 25.2344 30.1465C25.5703 30.5449 25.7383 31.1465 25.7383 31.9512V36H24.0391V31.957C24.0391 31.5977 23.9688 31.3359 23.8281 31.1719C23.6875 31.0039 23.4395 30.9199 23.084 30.9199C22.5762 30.9199 22.2246 31.1621 22.0293 31.6465L22.0352 36H20.3418V31.9629C20.3418 31.5957 20.2695 31.3301 20.125 31.166C19.9805 31.002 19.7344 30.9199 19.3867 30.9199C18.9062 30.9199 18.5586 31.1191 18.3438 31.5176V36H16.6504V29.6602H18.2383ZM30.7188 36C30.6406 35.8477 30.584 35.6582 30.5488 35.4316C30.1387 35.8887 29.6055 36.1172 28.9492 36.1172C28.3281 36.1172 27.8125 35.9375 27.4023 35.5781C26.9961 35.2188 26.793 34.7656 26.793 34.2188C26.793 33.5469 27.041 33.0312 27.5371 32.6719C28.0371 32.3125 28.7578 32.1309 29.6992 32.127H30.4785V31.7637C30.4785 31.4707 30.4023 31.2363 30.25 31.0605C30.1016 30.8848 29.8652 30.7969 29.541 30.7969C29.2559 30.7969 29.0312 30.8652 28.8672 31.002C28.707 31.1387 28.627 31.3262 28.627 31.5645H26.9336C26.9336 31.1973 27.0469 30.8574 27.2734 30.5449C27.5 30.2324 27.8203 29.9883 28.2344 29.8125C28.6484 29.6328 29.1133 29.543 29.6289 29.543C30.4102 29.543 31.0293 29.7402 31.4863 30.1348C31.9473 30.5254 32.1777 31.0762 32.1777 31.7871V34.5352C32.1816 35.1367 32.2656 35.5918 32.4297 35.9004V36H30.7188ZM29.3184 34.8223C29.5684 34.8223 29.7988 34.7676 30.0098 34.6582C30.2207 34.5449 30.377 34.3945 30.4785 34.207V33.1172H29.8457C28.998 33.1172 28.5469 33.4102 28.4922 33.9961L28.4863 34.0957C28.4863 34.3066 28.5605 34.4805 28.709 34.6172C28.8574 34.7539 29.0605 34.8223 29.3184 34.8223ZM35.5059 28.1016V29.6602H36.5898V30.9023H35.5059V34.0664C35.5059 34.3008 35.5508 34.4688 35.6406 34.5703C35.7305 34.6719 35.9023 34.7227 36.1562 34.7227C36.3438 34.7227 36.5098 34.709 36.6543 34.6816V35.9648C36.3223 36.0664 35.9805 36.1172 35.6289 36.1172C34.4414 36.1172 33.8359 35.5176 33.8125 34.3184V30.9023H32.8867V29.6602H33.8125V28.1016H35.5059ZM39.1855 30.3516C39.6348 29.8125 40.1992 29.543 40.8789 29.543C42.2539 29.543 42.9512 30.3418 42.9707 31.9395V36H41.2773V31.9863C41.2773 31.623 41.1992 31.3555 41.043 31.1836C40.8867 31.0078 40.627 30.9199 40.2637 30.9199C39.7676 30.9199 39.4082 31.1113 39.1855 31.4941V36H37.4922V27H39.1855V30.3516ZM48.9414 37.3242H43.6035V36H48.9414V37.3242ZM49.3574 32.7832C49.3574 31.8105 49.5879 31.0273 50.0488 30.4336C50.5137 29.8398 51.1387 29.543 51.9238 29.543C52.6191 29.543 53.1602 29.7812 53.5469 30.2578L53.6172 29.6602H55.1523V35.7891C55.1523 36.3438 55.0254 36.8262 54.7715 37.2363C54.5215 37.6465 54.168 37.959 53.7109 38.1738C53.2539 38.3887 52.7188 38.4961 52.1055 38.4961C51.6406 38.4961 51.1875 38.4023 50.7461 38.2148C50.3047 38.0312 49.9707 37.793 49.7441 37.5L50.4941 36.4688C50.916 36.9414 51.4277 37.1777 52.0293 37.1777C52.4785 37.1777 52.8281 37.0566 53.0781 36.8145C53.3281 36.5762 53.4531 36.2363 53.4531 35.7949V35.4551C53.0625 35.8965 52.5488 36.1172 51.9121 36.1172C51.1504 36.1172 50.5332 35.8203 50.0605 35.2266C49.5918 34.6289 49.3574 33.8379 49.3574 32.8535V32.7832ZM51.0508 32.9062C51.0508 33.4805 51.166 33.9316 51.3965 34.2598C51.627 34.584 51.9434 34.7461 52.3457 34.7461C52.8613 34.7461 53.2305 34.5527 53.4531 34.166V31.5C53.2266 31.1133 52.8613 30.9199 52.3574 30.9199C51.9512 30.9199 51.6309 31.0859 51.3965 31.418C51.166 31.75 51.0508 32.2461 51.0508 32.9062ZM60.0215 31.248C59.791 31.2168 59.5879 31.2012 59.4121 31.2012C58.7715 31.2012 58.3516 31.418 58.1523 31.8516V36H56.459V29.6602H58.0586L58.1055 30.416C58.4453 29.834 58.916 29.543 59.5176 29.543C59.7051 29.543 59.8809 29.5684 60.0449 29.6191L60.0215 31.248ZM64.3398 36C64.2617 35.8477 64.2051 35.6582 64.1699 35.4316C63.7598 35.8887 63.2266 36.1172 62.5703 36.1172C61.9492 36.1172 61.4336 35.9375 61.0234 35.5781C60.6172 35.2188 60.4141 34.7656 60.4141 34.2188C60.4141 33.5469 60.6621 33.0312 61.1582 32.6719C61.6582 32.3125 62.3789 32.1309 63.3203 32.127H64.0996V31.7637C64.0996 31.4707 64.0234 31.2363 63.8711 31.0605C63.7227 30.8848 63.4863 30.7969 63.1621 30.7969C62.877 30.7969 62.6523 30.8652 62.4883 31.002C62.3281 31.1387 62.248 31.3262 62.248 31.5645H60.5547C60.5547 31.1973 60.668 30.8574 60.8945 30.5449C61.1211 30.2324 61.4414 29.9883 61.8555 29.8125C62.2695 29.6328 62.7344 29.543 63.25 29.543C64.0312 29.543 64.6504 29.7402 65.1074 30.1348C65.5684 30.5254 65.7988 31.0762 65.7988 31.7871V34.5352C65.8027 35.1367 65.8867 35.5918 66.0508 35.9004V36H64.3398ZM62.9395 34.8223C63.1895 34.8223 63.4199 34.7676 63.6309 34.6582C63.8418 34.5449 63.998 34.3945 64.0996 34.207V33.1172H63.4668C62.6191 33.1172 62.168 33.4102 62.1133 33.9961L62.1074 34.0957C62.1074 34.3066 62.1816 34.4805 62.3301 34.6172C62.4785 34.7539 62.6816 34.8223 62.9395 34.8223ZM66.8359 32.7832C66.8359 31.7949 67.0566 31.0078 67.498 30.4219C67.9434 29.8359 68.5508 29.543 69.3203 29.543C69.9375 29.543 70.4473 29.7734 70.8496 30.2344V27H72.5488V36H71.0195L70.9375 35.3262C70.5156 35.8535 69.9727 36.1172 69.3086 36.1172C68.5625 36.1172 67.9629 35.8242 67.5098 35.2383C67.0605 34.6484 66.8359 33.8301 66.8359 32.7832ZM68.5293 32.9062C68.5293 33.5 68.6328 33.9551 68.8398 34.2715C69.0469 34.5879 69.3477 34.7461 69.7422 34.7461C70.2656 34.7461 70.6348 34.5254 70.8496 34.084V31.582C70.6387 31.1406 70.2734 30.9199 69.7539 30.9199C68.9375 30.9199 68.5293 31.582 68.5293 32.9062ZM76.7793 36.1172C75.8496 36.1172 75.0918 35.832 74.5059 35.2617C73.9238 34.6914 73.6328 33.9316 73.6328 32.9824V32.8184C73.6328 32.1816 73.7559 31.6133 74.002 31.1133C74.248 30.6094 74.5957 30.2227 75.0449 29.9531C75.498 29.6797 76.0137 29.543 76.5918 29.543C77.459 29.543 78.1406 29.8164 78.6367 30.3633C79.1367 30.9102 79.3867 31.6855 79.3867 32.6895V33.3809H75.3496C75.4043 33.7949 75.5684 34.127 75.8418 34.377C76.1191 34.627 76.4688 34.752 76.8906 34.752C77.543 34.752 78.0527 34.5156 78.4199 34.043L79.252 34.9746C78.998 35.334 78.6543 35.6152 78.2207 35.8184C77.7871 36.0176 77.3066 36.1172 76.7793 36.1172ZM76.5859 30.9141C76.25 30.9141 75.9766 31.0273 75.7656 31.2539C75.5586 31.4805 75.4258 31.8047 75.3672 32.2266H77.7227V32.0918C77.7148 31.7168 77.6133 31.4277 77.418 31.2246C77.2227 31.0176 76.9453 30.9141 76.5859 30.9141ZM83.7871 34.248C83.7871 34.041 83.6836 33.8789 83.4766 33.7617C83.2734 33.6406 82.9453 33.5332 82.4922 33.4395C80.9844 33.123 80.2305 32.4824 80.2305 31.5176C80.2305 30.9551 80.4629 30.4863 80.9277 30.1113C81.3965 29.7324 82.0078 29.543 82.7617 29.543C83.5664 29.543 84.209 29.7324 84.6895 30.1113C85.1738 30.4902 85.416 30.9824 85.416 31.5879H83.7227C83.7227 31.3457 83.6445 31.1465 83.4883 30.9902C83.332 30.8301 83.0879 30.75 82.7559 30.75C82.4707 30.75 82.25 30.8145 82.0938 30.9434C81.9375 31.0723 81.8594 31.2363 81.8594 31.4355C81.8594 31.623 81.9473 31.7754 82.123 31.8926C82.3027 32.0059 82.6035 32.1055 83.0254 32.1914C83.4473 32.2734 83.8027 32.3672 84.0918 32.4727C84.9863 32.8008 85.4336 33.3691 85.4336 34.1777C85.4336 34.7559 85.1855 35.2246 84.6895 35.584C84.1934 35.9395 83.5527 36.1172 82.7676 36.1172C82.2363 36.1172 81.7637 36.0234 81.3496 35.8359C80.9395 35.6445 80.6172 35.3848 80.3828 35.0566C80.1484 34.7246 80.0312 34.3672 80.0312 33.9844H81.6367C81.6523 34.2852 81.7637 34.5156 81.9707 34.6758C82.1777 34.8359 82.4551 34.916 82.8027 34.916C83.127 34.916 83.3711 34.8555 83.5352 34.7344C83.7031 34.6094 83.7871 34.4473 83.7871 34.248Z" fill="white"/>
<path d="M12.4375 18H10.7383V11.6602H12.4375V18ZM10.6387 10.0195C10.6387 9.76562 10.7227 9.55664 10.8906 9.39258C11.0625 9.22852 11.2949 9.14648 11.5879 9.14648C11.877 9.14648 12.1074 9.22852 12.2793 9.39258C12.4512 9.55664 12.5371 9.76562 12.5371 10.0195C12.5371 10.2773 12.4492 10.4883 12.2734 10.6523C12.1016 10.8164 11.873 10.8984 11.5879 10.8984C11.3027 10.8984 11.0723 10.8164 10.8965 10.6523C10.7246 10.4883 10.6387 10.2773 10.6387 10.0195ZM15.3965 11.6602L15.4492 12.3926C15.9023 11.8262 16.5098 11.543 17.2715 11.543C17.9434 11.543 18.4434 11.7402 18.7715 12.1348C19.0996 12.5293 19.2676 13.1191 19.2754 13.9043V18H17.582V13.9453C17.582 13.5859 17.5039 13.3262 17.3477 13.166C17.1914 13.002 16.9316 12.9199 16.5684 12.9199C16.0918 12.9199 15.7344 13.123 15.4961 13.5293V18H13.8027V11.6602H15.3965ZM22.5918 10.1016V11.6602H23.6758V12.9023H22.5918V16.0664C22.5918 16.3008 22.6367 16.4688 22.7266 16.5703C22.8164 16.6719 22.9883 16.7227 23.2422 16.7227C23.4297 16.7227 23.5957 16.709 23.7402 16.6816V17.9648C23.4082 18.0664 23.0664 18.1172 22.7148 18.1172C21.5273 18.1172 20.9219 17.5176 20.8984 16.3184V12.9023H19.9727V11.6602H20.8984V10.1016H22.5918ZM27.5371 18.1172C26.6074 18.1172 25.8496 17.832 25.2637 17.2617C24.6816 16.6914 24.3906 15.9316 24.3906 14.9824V14.8184C24.3906 14.1816 24.5137 13.6133 24.7598 13.1133C25.0059 12.6094 25.3535 12.2227 25.8027 11.9531C26.2559 11.6797 26.7715 11.543 27.3496 11.543C28.2168 11.543 28.8984 11.8164 29.3945 12.3633C29.8945 12.9102 30.1445 13.6855 30.1445 14.6895V15.3809H26.1074C26.1621 15.7949 26.3262 16.127 26.5996 16.377C26.877 16.627 27.2266 16.752 27.6484 16.752C28.3008 16.752 28.8105 16.5156 29.1777 16.043L30.0098 16.9746C29.7559 17.334 29.4121 17.6152 28.9785 17.8184C28.5449 18.0176 28.0645 18.1172 27.5371 18.1172ZM27.3438 12.9141C27.0078 12.9141 26.7344 13.0273 26.5234 13.2539C26.3164 13.4805 26.1836 13.8047 26.125 14.2266H28.4805V14.0918C28.4727 13.7168 28.3711 13.4277 28.1758 13.2246C27.9805 13.0176 27.7031 12.9141 27.3438 12.9141ZM30.8652 14.7832C30.8652 13.8105 31.0957 13.0273 31.5566 12.4336C32.0215 11.8398 32.6465 11.543 33.4316 11.543C34.127 11.543 34.668 11.7812 35.0547 12.2578L35.125 11.6602H36.6602V17.7891C36.6602 18.3438 36.5332 18.8262 36.2793 19.2363C36.0293 19.6465 35.6758 19.959 35.2188 20.1738C34.7617 20.3887 34.2266 20.4961 33.6133 20.4961C33.1484 20.4961 32.6953 20.4023 32.2539 20.2148C31.8125 20.0312 31.4785 19.793 31.252 19.5L32.002 18.4688C32.4238 18.9414 32.9355 19.1777 33.5371 19.1777C33.9863 19.1777 34.3359 19.0566 34.5859 18.8145C34.8359 18.5762 34.9609 18.2363 34.9609 17.7949V17.4551C34.5703 17.8965 34.0566 18.1172 33.4199 18.1172C32.6582 18.1172 32.041 17.8203 31.5684 17.2266C31.0996 16.6289 30.8652 15.8379 30.8652 14.8535V14.7832ZM32.5586 14.9062C32.5586 15.4805 32.6738 15.9316 32.9043 16.2598C33.1348 16.584 33.4512 16.7461 33.8535 16.7461C34.3691 16.7461 34.7383 16.5527 34.9609 16.166V13.5C34.7344 13.1133 34.3691 12.9199 33.8652 12.9199C33.459 12.9199 33.1387 13.0859 32.9043 13.418C32.6738 13.75 32.5586 14.2461 32.5586 14.9062ZM40.8848 18.1172C39.9551 18.1172 39.1973 17.832 38.6113 17.2617C38.0293 16.6914 37.7383 15.9316 37.7383 14.9824V14.8184C37.7383 14.1816 37.8613 13.6133 38.1074 13.1133C38.3535 12.6094 38.7012 12.2227 39.1504 11.9531C39.6035 11.6797 40.1191 11.543 40.6973 11.543C41.5645 11.543 42.2461 11.8164 42.7422 12.3633C43.2422 12.9102 43.4922 13.6855 43.4922 14.6895V15.3809H39.4551C39.5098 15.7949 39.6738 16.127 39.9473 16.377C40.2246 16.627 40.5742 16.752 40.9961 16.752C41.6484 16.752 42.1582 16.5156 42.5254 16.043L43.3574 16.9746C43.1035 17.334 42.7598 17.6152 42.3262 17.8184C41.8926 18.0176 41.4121 18.1172 40.8848 18.1172ZM40.6914 12.9141C40.3555 12.9141 40.082 13.0273 39.8711 13.2539C39.6641 13.4805 39.5312 13.8047 39.4727 14.2266H41.8281V14.0918C41.8203 13.7168 41.7188 13.4277 41.5234 13.2246C41.3281 13.0176 41.0508 12.9141 40.6914 12.9141ZM48.0215 13.248C47.791 13.2168 47.5879 13.2012 47.4121 13.2012C46.7715 13.2012 46.3516 13.418 46.1523 13.8516V18H44.459V11.6602H46.0586L46.1055 12.416C46.4453 11.834 46.916 11.543 47.5176 11.543C47.7051 11.543 47.8809 11.5684 48.0449 11.6191L48.0215 13.248ZM54.2031 15.9316L55.3809 11.6602H57.1504L55.0117 18H53.3945L51.2559 11.6602H53.0254L54.2031 15.9316ZM60.7363 18.1172C59.8066 18.1172 59.0488 17.832 58.4629 17.2617C57.8809 16.6914 57.5898 15.9316 57.5898 14.9824V14.8184C57.5898 14.1816 57.7129 13.6133 57.959 13.1133C58.2051 12.6094 58.5527 12.2227 59.002 11.9531C59.4551 11.6797 59.9707 11.543 60.5488 11.543C61.416 11.543 62.0977 11.8164 62.5938 12.3633C63.0938 12.9102 63.3438 13.6855 63.3438 14.6895V15.3809H59.3066C59.3613 15.7949 59.5254 16.127 59.7988 16.377C60.0762 16.627 60.4258 16.752 60.8477 16.752C61.5 16.752 62.0098 16.5156 62.377 16.043L63.209 16.9746C62.9551 17.334 62.6113 17.6152 62.1777 17.8184C61.7441 18.0176 61.2637 18.1172 60.7363 18.1172ZM60.543 12.9141C60.207 12.9141 59.9336 13.0273 59.7227 13.2539C59.5156 13.4805 59.3828 13.8047 59.3242 14.2266H61.6797V14.0918C61.6719 13.7168 61.5703 13.4277 61.375 13.2246C61.1797 13.0176 60.9023 12.9141 60.543 12.9141ZM66.9473 16.752C67.2598 16.752 67.5137 16.666 67.709 16.4941C67.9043 16.3223 68.0059 16.0938 68.0137 15.8086H69.6016C69.5977 16.2383 69.4805 16.6328 69.25 16.9922C69.0195 17.3477 68.7031 17.625 68.3008 17.8242C67.9023 18.0195 67.4609 18.1172 66.9766 18.1172C66.0703 18.1172 65.3555 17.8301 64.832 17.2559C64.3086 16.6777 64.0469 15.8809 64.0469 14.8652V14.7539C64.0469 13.7773 64.3066 12.998 64.8262 12.416C65.3457 11.834 66.0586 11.543 66.9648 11.543C67.7578 11.543 68.3926 11.7695 68.8691 12.2227C69.3496 12.6719 69.5938 13.2715 69.6016 14.0215H68.0137C68.0059 13.6934 67.9043 13.4277 67.709 13.2246C67.5137 13.0176 67.2559 12.9141 66.9355 12.9141C66.541 12.9141 66.2422 13.0586 66.0391 13.3477C65.8398 13.6328 65.7402 14.0977 65.7402 14.7422V14.918C65.7402 15.5703 65.8398 16.0391 66.0391 16.3242C66.2383 16.6094 66.541 16.752 66.9473 16.752ZM72.5957 10.1016V11.6602H73.6797V12.9023H72.5957V16.0664C72.5957 16.3008 72.6406 16.4688 72.7305 16.5703C72.8203 16.6719 72.9922 16.7227 73.2461 16.7227C73.4336 16.7227 73.5996 16.709 73.7441 16.6816V17.9648C73.4121 18.0664 73.0703 18.1172 72.7188 18.1172C71.5312 18.1172 70.9258 17.5176 70.9023 16.3184V12.9023H69.9766V11.6602H70.9023V10.1016H72.5957ZM74.1836 14.7715C74.1836 14.1426 74.3047 13.582 74.5469 13.0898C74.7891 12.5977 75.1367 12.2168 75.5898 11.9473C76.0469 11.6777 76.5762 11.543 77.1777 11.543C78.0332 11.543 78.7305 11.8047 79.2695 12.3281C79.8125 12.8516 80.1152 13.5625 80.1777 14.4609L80.1895 14.8945C80.1895 15.8672 79.918 16.6484 79.375 17.2383C78.832 17.8242 78.1035 18.1172 77.1895 18.1172C76.2754 18.1172 75.5449 17.8242 74.998 17.2383C74.4551 16.6523 74.1836 15.8555 74.1836 14.8477V14.7715ZM75.877 14.8945C75.877 15.4961 75.9902 15.957 76.2168 16.2773C76.4434 16.5938 76.7676 16.752 77.1895 16.752C77.5996 16.752 77.9199 16.5957 78.1504 16.2832C78.3809 15.9668 78.4961 15.4629 78.4961 14.7715C78.4961 14.1816 78.3809 13.7246 78.1504 13.4004C77.9199 13.0762 77.5957 12.9141 77.1777 12.9141C76.7637 12.9141 76.4434 13.0762 76.2168 13.4004C75.9902 13.7207 75.877 14.2188 75.877 14.8945ZM84.7949 13.248C84.5645 13.2168 84.3613 13.2012 84.1855 13.2012C83.5449 13.2012 83.125 13.418 82.9258 13.8516V18H81.2324V11.6602H82.832L82.8789 12.416C83.2188 11.834 83.6895 11.543 84.291 11.543C84.4785 11.543 84.6543 11.5684 84.8184 11.6191L84.7949 13.248Z" fill="black"/>
<path d="M47.7764 85.8848C47.1143 86.5352 46.3408 86.8604 45.4561 86.8604C44.3252 86.8604 43.4199 86.4736 42.7402 85.7002C42.0605 84.9209 41.7207 83.8721 41.7207 82.5537C41.7207 81.7158 41.9023 80.9482 42.2656 80.251C42.6348 79.5479 43.1475 79.0029 43.8037 78.6162C44.46 78.2236 45.1982 78.0273 46.0186 78.0273C46.8623 78.0273 47.6123 78.2383 48.2686 78.6602C48.9248 79.082 49.4346 79.6885 49.7979 80.4795C50.1611 81.2705 50.3457 82.1758 50.3516 83.1953V84.1357C50.3516 86.2686 49.8213 87.9443 48.7607 89.1631C47.7002 90.3818 46.1973 91.0322 44.252 91.1143L43.6279 91.123V89.0049L44.1904 88.9961C46.3994 88.8965 47.5947 87.8594 47.7764 85.8848ZM46.0801 84.918C46.4902 84.918 46.8418 84.8125 47.1348 84.6016C47.4336 84.3906 47.6592 84.1357 47.8115 83.8369V82.791C47.8115 81.9297 47.6475 81.2617 47.3193 80.7871C46.9912 80.3125 46.5518 80.0752 46.001 80.0752C45.4912 80.0752 45.0723 80.3096 44.7441 80.7783C44.416 81.2412 44.252 81.8242 44.252 82.5273C44.252 83.2246 44.4102 83.7988 44.7266 84.25C45.0488 84.6953 45.5 84.918 46.0801 84.918ZM60.9424 91H52.1709V89.2598L56.3105 84.8477C56.8789 84.2266 57.2979 83.6846 57.5674 83.2217C57.8428 82.7588 57.9805 82.3193 57.9805 81.9033C57.9805 81.335 57.8369 80.8896 57.5498 80.5674C57.2627 80.2393 56.8525 80.0752 56.3193 80.0752C55.7451 80.0752 55.291 80.2744 54.957 80.6729C54.6289 81.0654 54.4648 81.584 54.4648 82.2285H51.916C51.916 81.4492 52.1006 80.7373 52.4697 80.0928C52.8447 79.4482 53.3721 78.9443 54.0518 78.5811C54.7314 78.2119 55.502 78.0273 56.3633 78.0273C57.6816 78.0273 58.7041 78.3438 59.4307 78.9766C60.1631 79.6094 60.5293 80.5029 60.5293 81.6572C60.5293 82.29 60.3652 82.9346 60.0371 83.5908C59.709 84.2471 59.1465 85.0117 58.3496 85.8848L55.4404 88.9521H60.9424V91ZM97.7422 81.6045C97.7422 82.2256 97.5869 82.7764 97.2764 83.2568C96.9658 83.7373 96.5381 84.1211 95.9932 84.4082C96.6143 84.707 97.1064 85.1201 97.4697 85.6475C97.833 86.1689 98.0146 86.7842 98.0146 87.4932C98.0146 88.6299 97.6279 89.5293 96.8545 90.1914C96.0811 90.8477 95.0293 91.1758 93.6992 91.1758C92.3691 91.1758 91.3145 90.8447 90.5352 90.1826C89.7559 89.5205 89.3662 88.624 89.3662 87.4932C89.3662 86.7842 89.5479 86.166 89.9111 85.6387C90.2744 85.1113 90.7637 84.7012 91.3789 84.4082C90.834 84.1211 90.4062 83.7373 90.0957 83.2568C89.791 82.7764 89.6387 82.2256 89.6387 81.6045C89.6387 80.5146 90.002 79.6475 90.7285 79.0029C91.4551 78.3525 92.4424 78.0273 93.6904 78.0273C94.9326 78.0273 95.917 78.3496 96.6436 78.9941C97.376 79.6328 97.7422 80.5029 97.7422 81.6045ZM95.4658 87.3086C95.4658 86.752 95.3047 86.3066 94.9824 85.9727C94.6602 85.6387 94.2266 85.4717 93.6816 85.4717C93.1426 85.4717 92.7119 85.6387 92.3896 85.9727C92.0674 86.3008 91.9062 86.7461 91.9062 87.3086C91.9062 87.8535 92.0645 88.293 92.3809 88.627C92.6973 88.9609 93.1367 89.1279 93.6992 89.1279C94.25 89.1279 94.6807 88.9668 94.9912 88.6445C95.3076 88.3223 95.4658 87.877 95.4658 87.3086ZM95.2021 81.7275C95.2021 81.2295 95.0703 80.8311 94.8066 80.5322C94.543 80.2275 94.1709 80.0752 93.6904 80.0752C93.2158 80.0752 92.8467 80.2217 92.583 80.5146C92.3193 80.8076 92.1875 81.2119 92.1875 81.7275C92.1875 82.2373 92.3193 82.6475 92.583 82.958C92.8467 83.2686 93.2188 83.4238 93.6992 83.4238C94.1797 83.4238 94.5488 83.2686 94.8066 82.958C95.0703 82.6475 95.2021 82.2373 95.2021 81.7275ZM108.438 79.627L103.49 91H100.81L105.767 80.2598H99.4033V78.2031H108.438V79.627ZM140.826 81.6045C140.826 82.2256 140.671 82.7764 140.36 83.2568C140.05 83.7373 139.622 84.1211 139.077 84.4082C139.698 84.707 140.19 85.1201 140.554 85.6475C140.917 86.1689 141.099 86.7842 141.099 87.4932C141.099 88.6299 140.712 89.5293 139.938 90.1914C139.165 90.8477 138.113 91.1758 136.783 91.1758C135.453 91.1758 134.398 90.8447 133.619 90.1826C132.84 89.5205 132.45 88.624 132.45 87.4932C132.45 86.7842 132.632 86.166 132.995 85.6387C133.358 85.1113 133.848 84.7012 134.463 84.4082C133.918 84.1211 133.49 83.7373 133.18 83.2568C132.875 82.7764 132.723 82.2256 132.723 81.6045C132.723 80.5146 133.086 79.6475 133.812 79.0029C134.539 78.3525 135.526 78.0273 136.774 78.0273C138.017 78.0273 139.001 78.3496 139.728 78.9941C140.46 79.6328 140.826 80.5029 140.826 81.6045ZM138.55 87.3086C138.55 86.752 138.389 86.3066 138.066 85.9727C137.744 85.6387 137.311 85.4717 136.766 85.4717C136.227 85.4717 135.796 85.6387 135.474 85.9727C135.151 86.3008 134.99 86.7461 134.99 87.3086C134.99 87.8535 135.148 88.293 135.465 88.627C135.781 88.9609 136.221 89.1279 136.783 89.1279C137.334 89.1279 137.765 88.9668 138.075 88.6445C138.392 88.3223 138.55 87.877 138.55 87.3086ZM138.286 81.7275C138.286 81.2295 138.154 80.8311 137.891 80.5322C137.627 80.2275 137.255 80.0752 136.774 80.0752C136.3 80.0752 135.931 80.2217 135.667 80.5146C135.403 80.8076 135.271 81.2119 135.271 81.7275C135.271 82.2373 135.403 82.6475 135.667 82.958C135.931 83.2686 136.303 83.4238 136.783 83.4238C137.264 83.4238 137.633 83.2686 137.891 82.958C138.154 82.6475 138.286 82.2373 138.286 81.7275ZM143.199 84.707L143.938 78.2031H151.109V80.3213H146.021L145.704 83.0723C146.308 82.75 146.949 82.5889 147.629 82.5889C148.848 82.5889 149.803 82.9668 150.494 83.7227C151.186 84.4785 151.531 85.5361 151.531 86.8955C151.531 87.7217 151.355 88.4629 151.004 89.1191C150.658 89.7695 150.16 90.2764 149.51 90.6396C148.859 90.9971 148.092 91.1758 147.207 91.1758C146.434 91.1758 145.716 91.0205 145.054 90.71C144.392 90.3936 143.867 89.9512 143.48 89.3828C143.1 88.8145 142.897 88.167 142.874 87.4404H145.388C145.44 87.9736 145.625 88.3896 145.941 88.6885C146.264 88.9814 146.683 89.1279 147.198 89.1279C147.772 89.1279 148.215 88.9229 148.525 88.5127C148.836 88.0967 148.991 87.5107 148.991 86.7549C148.991 86.0283 148.812 85.4717 148.455 85.085C148.098 84.6982 147.591 84.5049 146.935 84.5049C146.331 84.5049 145.842 84.6631 145.467 84.9795L145.221 85.208L143.199 84.707Z" fill="black"/>
<path d="M51.6699 71H49.9766V64.4727L47.9551 65.0996V63.7227L51.4883 62.457H51.6699V71ZM99.1426 71H93.2949V69.8398L96.0547 66.8984C96.4336 66.4844 96.7129 66.123 96.8926 65.8145C97.0762 65.5059 97.168 65.2129 97.168 64.9355C97.168 64.5566 97.0723 64.2598 96.8809 64.0449C96.6895 63.8262 96.416 63.7168 96.0605 63.7168C95.6777 63.7168 95.375 63.8496 95.1523 64.1152C94.9336 64.377 94.8242 64.7227 94.8242 65.1523H93.125C93.125 64.6328 93.248 64.1582 93.4941 63.7285C93.7441 63.2988 94.0957 62.9629 94.5488 62.7207C95.002 62.4746 95.5156 62.3516 96.0898 62.3516C96.9688 62.3516 97.6504 62.5625 98.1348 62.9844C98.623 63.4062 98.8672 64.002 98.8672 64.7715C98.8672 65.1934 98.7578 65.623 98.5391 66.0605C98.3203 66.498 97.9453 67.0078 97.4141 67.5898L95.4746 69.6348H99.1426V71ZM140.756 65.9844H141.658C142.088 65.9844 142.406 65.877 142.613 65.6621C142.82 65.4473 142.924 65.1621 142.924 64.8066C142.924 64.4629 142.82 64.1953 142.613 64.0039C142.41 63.8125 142.129 63.7168 141.77 63.7168C141.445 63.7168 141.174 63.8066 140.955 63.9863C140.736 64.1621 140.627 64.3926 140.627 64.6777H138.934C138.934 64.2324 139.053 63.834 139.291 63.4824C139.533 63.127 139.869 62.8496 140.299 62.6504C140.732 62.4512 141.209 62.3516 141.729 62.3516C142.631 62.3516 143.338 62.5684 143.85 63.002C144.361 63.4316 144.617 64.0254 144.617 64.7832C144.617 65.1738 144.498 65.5332 144.26 65.8613C144.021 66.1895 143.709 66.4414 143.322 66.6172C143.803 66.7891 144.16 67.0469 144.395 67.3906C144.633 67.7344 144.752 68.1406 144.752 68.6094C144.752 69.3672 144.475 69.9746 143.92 70.4316C143.369 70.8887 142.639 71.1172 141.729 71.1172C140.877 71.1172 140.18 70.8926 139.637 70.4434C139.098 69.9941 138.828 69.4004 138.828 68.6621H140.521C140.521 68.9824 140.641 69.2441 140.879 69.4473C141.121 69.6504 141.418 69.752 141.77 69.752C142.172 69.752 142.486 69.6465 142.713 69.4355C142.943 69.2207 143.059 68.9375 143.059 68.5859C143.059 67.7344 142.59 67.3086 141.652 67.3086H140.756V65.9844Z" fill="#BB6BD9"/>
<g filter="url(#filter0_d)">
<path d="M48.6464 60.3536C48.8417 60.5488 49.1583 60.5488 49.3536 60.3536L52.5355 57.1716C52.7308 56.9763 52.7308 56.6597 52.5355 56.4645C52.3403 56.2692 52.0237 56.2692 51.8284 56.4645L49 59.2929L46.1716 56.4645C45.9763 56.2692 45.6597 56.2692 45.4645 56.4645C45.2692 56.6597 45.2692 56.9763 45.4645 57.1716L48.6464 60.3536ZM48.5 53V60H49.5V53H48.5Z" fill="#BB6BD9"/>
</g>
<g filter="url(#filter1_d)">
<path d="M95.6464 60.3536C95.8417 60.5488 96.1583 60.5488 96.3536 60.3536L99.5355 57.1716C99.7308 56.9763 99.7308 56.6597 99.5355 56.4645C99.3403 56.2692 99.0237 56.2692 98.8284 56.4645L96 59.2929L93.1716 56.4645C92.9763 56.2692 92.6597 56.2692 92.4645 56.4645C92.2692 56.6597 92.2692 56.9763 92.4645 57.1716L95.6464 60.3536ZM95.5 53V60H96.5V53H95.5Z" fill="#BB6BD9"/>
</g>
<g filter="url(#filter2_d)">
<path d="M140.646 60.3536C140.842 60.5488 141.158 60.5488 141.354 60.3536L144.536 57.1716C144.731 56.9763 144.731 56.6597 144.536 56.4645C144.34 56.2692 144.024 56.2692 143.828 56.4645L141 59.2929L138.172 56.4645C137.976 56.2692 137.66 56.2692 137.464 56.4645C137.269 56.6597 137.269 56.9763 137.464 57.1716L140.646 60.3536ZM140.5 53V60H141.5V53H140.5Z" fill="#BB6BD9"/>
</g>
<g filter="url(#filter3_d)">
<line x1="48.997" y1="53.5" x2="216.997" y2="52.494" stroke="#BB6BD9"/>
</g>
<g filter="url(#filter4_d)">
<path d="M51.3536 99.6464C51.1583 99.4512 50.8417 99.4512 50.6464 99.6464L47.4645 102.828C47.2692 103.024 47.2692 103.34 47.4645 103.536C47.6597 103.731 47.9763 103.731 48.1716 103.536L51 100.707L53.8284 103.536C54.0237 103.731 54.3403 103.731 54.5355 103.536C54.7308 103.34 54.7308 103.024 54.5355 102.828L51.3536 99.6464ZM51.5 106V100H50.5V106H51.5Z" fill="#56CCF2"/>
</g>
<g filter="url(#filter5_d)">
<path d="M99.3536 99.6464C99.1583 99.4512 98.8417 99.4512 98.6464 99.6464L95.4645 102.828C95.2692 103.024 95.2692 103.34 95.4645 103.536C95.6597 103.731 95.9763 103.731 96.1716 103.536L99 100.707L101.828 103.536C102.024 103.731 102.34 103.731 102.536 103.536C102.731 103.34 102.731 103.024 102.536 102.828L99.3536 99.6464ZM99.5 106V100H98.5V106H99.5Z" fill="#56CCF2"/>
</g>
<g filter="url(#filter6_d)">
<path d="M145.354 99.6464C145.158 99.4512 144.842 99.4512 144.646 99.6464L141.464 102.828C141.269 103.024 141.269 103.34 141.464 103.536C141.66 103.731 141.976 103.731 142.172 103.536L145 100.707L147.828 103.536C148.024 103.731 148.34 103.731 148.536 103.536C148.731 103.34 148.731 103.024 148.536 102.828L145.354 99.6464ZM145.5 106V100H144.5V106H145.5Z" fill="#56CCF2"/>
</g>
<g filter="url(#filter7_d)">
<line x1="51" y1="105.5" x2="217" y2="105.5" stroke="#56CCF2"/>
</g>
<path d="M223.438 58H221.738V51.6602H223.438V58ZM221.639 50.0195C221.639 49.7656 221.723 49.5566 221.891 49.3926C222.062 49.2285 222.295 49.1465 222.588 49.1465C222.877 49.1465 223.107 49.2285 223.279 49.3926C223.451 49.5566 223.537 49.7656 223.537 50.0195C223.537 50.2773 223.449 50.4883 223.273 50.6523C223.102 50.8164 222.873 50.8984 222.588 50.8984C222.303 50.8984 222.072 50.8164 221.896 50.6523C221.725 50.4883 221.639 50.2773 221.639 50.0195ZM226.396 51.6602L226.449 52.3926C226.902 51.8262 227.51 51.543 228.271 51.543C228.943 51.543 229.443 51.7402 229.771 52.1348C230.1 52.5293 230.268 53.1191 230.275 53.9043V58H228.582V53.9453C228.582 53.5859 228.504 53.3262 228.348 53.166C228.191 53.002 227.932 52.9199 227.568 52.9199C227.092 52.9199 226.734 53.123 226.496 53.5293V58H224.803V51.6602H226.396ZM231.301 54.7832C231.301 53.7949 231.521 53.0078 231.963 52.4219C232.408 51.8359 233.016 51.543 233.785 51.543C234.402 51.543 234.912 51.7734 235.314 52.2344V49H237.014V58H235.484L235.402 57.3262C234.98 57.8535 234.438 58.1172 233.773 58.1172C233.027 58.1172 232.428 57.8242 231.975 57.2383C231.525 56.6484 231.301 55.8301 231.301 54.7832ZM232.994 54.9062C232.994 55.5 233.098 55.9551 233.305 56.2715C233.512 56.5879 233.812 56.7461 234.207 56.7461C234.73 56.7461 235.1 56.5254 235.314 56.084V53.582C235.104 53.1406 234.738 52.9199 234.219 52.9199C233.402 52.9199 232.994 53.582 232.994 54.9062ZM240.113 58H238.414V51.6602H240.113V58ZM238.314 50.0195C238.314 49.7656 238.398 49.5566 238.566 49.3926C238.738 49.2285 238.971 49.1465 239.264 49.1465C239.553 49.1465 239.783 49.2285 239.955 49.3926C240.127 49.5566 240.213 49.7656 240.213 50.0195C240.213 50.2773 240.125 50.4883 239.949 50.6523C239.777 50.8164 239.549 50.8984 239.264 50.8984C238.979 50.8984 238.748 50.8164 238.572 50.6523C238.4 50.4883 238.314 50.2773 238.314 50.0195ZM244.15 56.752C244.463 56.752 244.717 56.666 244.912 56.4941C245.107 56.3223 245.209 56.0938 245.217 55.8086H246.805C246.801 56.2383 246.684 56.6328 246.453 56.9922C246.223 57.3477 245.906 57.625 245.504 57.8242C245.105 58.0195 244.664 58.1172 244.18 58.1172C243.273 58.1172 242.559 57.8301 242.035 57.2559C241.512 56.6777 241.25 55.8809 241.25 54.8652V54.7539C241.25 53.7773 241.51 52.998 242.029 52.416C242.549 51.834 243.262 51.543 244.168 51.543C244.961 51.543 245.596 51.7695 246.072 52.2227C246.553 52.6719 246.797 53.2715 246.805 54.0215H245.217C245.209 53.6934 245.107 53.4277 244.912 53.2246C244.717 53.0176 244.459 52.9141 244.139 52.9141C243.744 52.9141 243.445 53.0586 243.242 53.3477C243.043 53.6328 242.943 54.0977 242.943 54.7422V54.918C242.943 55.5703 243.043 56.0391 243.242 56.3242C243.441 56.6094 243.744 56.752 244.15 56.752ZM250.689 58.1172C249.76 58.1172 249.002 57.832 248.416 57.2617C247.834 56.6914 247.543 55.9316 247.543 54.9824V54.8184C247.543 54.1816 247.666 53.6133 247.912 53.1133C248.158 52.6094 248.506 52.2227 248.955 51.9531C249.408 51.6797 249.924 51.543 250.502 51.543C251.369 51.543 252.051 51.8164 252.547 52.3633C253.047 52.9102 253.297 53.6855 253.297 54.6895V55.3809H249.26C249.314 55.7949 249.479 56.127 249.752 56.377C250.029 56.627 250.379 56.752 250.801 56.752C251.453 56.752 251.963 56.5156 252.33 56.043L253.162 56.9746C252.908 57.334 252.564 57.6152 252.131 57.8184C251.697 58.0176 251.217 58.1172 250.689 58.1172ZM250.496 52.9141C250.16 52.9141 249.887 53.0273 249.676 53.2539C249.469 53.4805 249.336 53.8047 249.277 54.2266H251.633V54.0918C251.625 53.7168 251.523 53.4277 251.328 53.2246C251.133 53.0176 250.855 52.9141 250.496 52.9141ZM257.697 56.248C257.697 56.041 257.594 55.8789 257.387 55.7617C257.184 55.6406 256.855 55.5332 256.402 55.4395C254.895 55.123 254.141 54.4824 254.141 53.5176C254.141 52.9551 254.373 52.4863 254.838 52.1113C255.307 51.7324 255.918 51.543 256.672 51.543C257.477 51.543 258.119 51.7324 258.6 52.1113C259.084 52.4902 259.326 52.9824 259.326 53.5879H257.633C257.633 53.3457 257.555 53.1465 257.398 52.9902C257.242 52.8301 256.998 52.75 256.666 52.75C256.381 52.75 256.16 52.8145 256.004 52.9434C255.848 53.0723 255.77 53.2363 255.77 53.4355C255.77 53.623 255.857 53.7754 256.033 53.8926C256.213 54.0059 256.514 54.1055 256.936 54.1914C257.357 54.2734 257.713 54.3672 258.002 54.4727C258.896 54.8008 259.344 55.3691 259.344 56.1777C259.344 56.7559 259.096 57.2246 258.6 57.584C258.104 57.9395 257.463 58.1172 256.678 58.1172C256.146 58.1172 255.674 58.0234 255.26 57.8359C254.85 57.6445 254.527 57.3848 254.293 57.0566C254.059 56.7246 253.941 56.3672 253.941 55.9844H255.547C255.562 56.2852 255.674 56.5156 255.881 56.6758C256.088 56.8359 256.365 56.916 256.713 56.916C257.037 56.916 257.281 56.8555 257.445 56.7344C257.613 56.6094 257.697 56.4473 257.697 56.248Z" fill="#BB6BD9"/>
<path d="M223.023 105.932L224.201 101.66H225.971L223.832 108H222.215L220.076 101.66H221.846L223.023 105.932ZM230.301 108C230.223 107.848 230.166 107.658 230.131 107.432C229.721 107.889 229.188 108.117 228.531 108.117C227.91 108.117 227.395 107.938 226.984 107.578C226.578 107.219 226.375 106.766 226.375 106.219C226.375 105.547 226.623 105.031 227.119 104.672C227.619 104.312 228.34 104.131 229.281 104.127H230.061V103.764C230.061 103.471 229.984 103.236 229.832 103.061C229.684 102.885 229.447 102.797 229.123 102.797C228.838 102.797 228.613 102.865 228.449 103.002C228.289 103.139 228.209 103.326 228.209 103.564H226.516C226.516 103.197 226.629 102.857 226.855 102.545C227.082 102.232 227.402 101.988 227.816 101.812C228.23 101.633 228.695 101.543 229.211 101.543C229.992 101.543 230.611 101.74 231.068 102.135C231.529 102.525 231.76 103.076 231.76 103.787V106.535C231.764 107.137 231.848 107.592 232.012 107.9V108H230.301ZM228.9 106.822C229.15 106.822 229.381 106.768 229.592 106.658C229.803 106.545 229.959 106.395 230.061 106.207V105.117H229.428C228.58 105.117 228.129 105.41 228.074 105.996L228.068 106.096C228.068 106.307 228.143 106.48 228.291 106.617C228.439 106.754 228.643 106.822 228.9 106.822ZM234.848 108H233.148V99H234.848V108ZM240.045 107.355C239.627 107.863 239.049 108.117 238.311 108.117C237.631 108.117 237.111 107.922 236.752 107.531C236.396 107.141 236.215 106.568 236.207 105.814V101.66H237.9V105.756C237.9 106.416 238.201 106.746 238.803 106.746C239.377 106.746 239.771 106.547 239.986 106.148V101.66H241.686V108H240.092L240.045 107.355ZM245.881 108.117C244.951 108.117 244.193 107.832 243.607 107.262C243.025 106.691 242.734 105.932 242.734 104.982V104.818C242.734 104.182 242.857 103.613 243.104 103.113C243.35 102.609 243.697 102.223 244.146 101.953C244.6 101.68 245.115 101.543 245.693 101.543C246.561 101.543 247.242 101.816 247.738 102.363C248.238 102.91 248.488 103.686 248.488 104.689V105.381H244.451C244.506 105.795 244.67 106.127 244.943 106.377C245.221 106.627 245.57 106.752 245.992 106.752C246.645 106.752 247.154 106.516 247.521 106.043L248.354 106.975C248.1 107.334 247.756 107.615 247.322 107.818C246.889 108.018 246.408 108.117 245.881 108.117ZM245.688 102.914C245.352 102.914 245.078 103.027 244.867 103.254C244.66 103.48 244.527 103.805 244.469 104.227H246.824V104.092C246.816 103.717 246.715 103.428 246.52 103.225C246.324 103.018 246.047 102.914 245.688 102.914ZM252.889 106.248C252.889 106.041 252.785 105.879 252.578 105.762C252.375 105.641 252.047 105.533 251.594 105.439C250.086 105.123 249.332 104.482 249.332 103.518C249.332 102.955 249.564 102.486 250.029 102.111C250.498 101.732 251.109 101.543 251.863 101.543C252.668 101.543 253.311 101.732 253.791 102.111C254.275 102.49 254.518 102.982 254.518 103.588H252.824C252.824 103.346 252.746 103.146 252.59 102.99C252.434 102.83 252.189 102.75 251.857 102.75C251.572 102.75 251.352 102.814 251.195 102.943C251.039 103.072 250.961 103.236 250.961 103.436C250.961 103.623 251.049 103.775 251.225 103.893C251.404 104.006 251.705 104.105 252.127 104.191C252.549 104.273 252.904 104.367 253.193 104.473C254.088 104.801 254.535 105.369 254.535 106.178C254.535 106.756 254.287 107.225 253.791 107.584C253.295 107.939 252.654 108.117 251.869 108.117C251.338 108.117 250.865 108.023 250.451 107.836C250.041 107.645 249.719 107.385 249.484 107.057C249.25 106.725 249.133 106.367 249.133 105.984H250.738C250.754 106.285 250.865 106.516 251.072 106.676C251.279 106.836 251.557 106.916 251.904 106.916C252.229 106.916 252.473 106.855 252.637 106.734C252.805 106.609 252.889 106.447 252.889 106.248Z" fill="#56CCF2"/>
</g>
<defs>
<filter id="filter0_d" x="41.318" y="53" width="15.364" height="15.5" filterUnits="userSpaceOnUse" color-interpolation-filters="sRGB">
<feFlood flood-opacity="0" result="BackgroundImageFix"/>
<feColorMatrix in="SourceAlpha" type="matrix" values="0 0 0 0 0 0 0 0 0 0 0 0 0 0 0 0 0 0 127 0"/>
<feOffset dy="4"/>
<feGaussianBlur stdDeviation="2"/>
<feColorMatrix type="matrix" values="0 0 0 0 0 0 0 0 0 0 0 0 0 0 0 0 0 0 0.25 0"/>
<feBlend mode="normal" in2="BackgroundImageFix" result="effect1_dropShadow"/>
<feBlend mode="normal" in="SourceGraphic" in2="effect1_dropShadow" result="shape"/>
</filter>
<filter id="filter1_d" x="88.318" y="53" width="15.364" height="15.5" filterUnits="userSpaceOnUse" color-interpolation-filters="sRGB">
<feFlood flood-opacity="0" result="BackgroundImageFix"/>
<feColorMatrix in="SourceAlpha" type="matrix" values="0 0 0 0 0 0 0 0 0 0 0 0 0 0 0 0 0 0 127 0"/>
<feOffset dy="4"/>
<feGaussianBlur stdDeviation="2"/>
<feColorMatrix type="matrix" values="0 0 0 0 0 0 0 0 0 0 0 0 0 0 0 0 0 0 0.25 0"/>
<feBlend mode="normal" in2="BackgroundImageFix" result="effect1_dropShadow"/>
<feBlend mode="normal" in="SourceGraphic" in2="effect1_dropShadow" result="shape"/>
</filter>
<filter id="filter2_d" x="133.318" y="53" width="15.364" height="15.5" filterUnits="userSpaceOnUse" color-interpolation-filters="sRGB">
<feFlood flood-opacity="0" result="BackgroundImageFix"/>
<feColorMatrix in="SourceAlpha" type="matrix" values="0 0 0 0 0 0 0 0 0 0 0 0 0 0 0 0 0 0 127 0"/>
<feOffset dy="4"/>
<feGaussianBlur stdDeviation="2"/>
<feColorMatrix type="matrix" values="0 0 0 0 0 0 0 0 0 0 0 0 0 0 0 0 0 0 0.25 0"/>
<feBlend mode="normal" in2="BackgroundImageFix" result="effect1_dropShadow"/>
<feBlend mode="normal" in="SourceGraphic" in2="effect1_dropShadow" result="shape"/>
</filter>
<filter id="filter3_d" x="44.994" y="51.994" width="176.006" height="10.006" filterUnits="userSpaceOnUse" color-interpolation-filters="sRGB">
<feFlood flood-opacity="0" result="BackgroundImageFix"/>
<feColorMatrix in="SourceAlpha" type="matrix" values="0 0 0 0 0 0 0 0 0 0 0 0 0 0 0 0 0 0 127 0"/>
<feOffset dy="4"/>
<feGaussianBlur stdDeviation="2"/>
<feColorMatrix type="matrix" values="0 0 0 0 0 0 0 0 0 0 0 0 0 0 0 0 0 0 0.25 0"/>
<feBlend mode="normal" in2="BackgroundImageFix" result="effect1_dropShadow"/>
<feBlend mode="normal" in="SourceGraphic" in2="effect1_dropShadow" result="shape"/>
</filter>
<filter id="filter4_d" x="43.318" y="99.5" width="15.364" height="14.5" filterUnits="userSpaceOnUse" color-interpolation-filters="sRGB">
<feFlood flood-opacity="0" result="BackgroundImageFix"/>
<feColorMatrix in="SourceAlpha" type="matrix" values="0 0 0 0 0 0 0 0 0 0 0 0 0 0 0 0 0 0 127 0"/>
<feOffset dy="4"/>
<feGaussianBlur stdDeviation="2"/>
<feColorMatrix type="matrix" values="0 0 0 0 0 0 0 0 0 0 0 0 0 0 0 0 0 0 0.25 0"/>
<feBlend mode="normal" in2="BackgroundImageFix" result="effect1_dropShadow"/>
<feBlend mode="normal" in="SourceGraphic" in2="effect1_dropShadow" result="shape"/>
</filter>
<filter id="filter5_d" x="91.318" y="99.5" width="15.364" height="14.5" filterUnits="userSpaceOnUse" color-interpolation-filters="sRGB">
<feFlood flood-opacity="0" result="BackgroundImageFix"/>
<feColorMatrix in="SourceAlpha" type="matrix" values="0 0 0 0 0 0 0 0 0 0 0 0 0 0 0 0 0 0 127 0"/>
<feOffset dy="4"/>
<feGaussianBlur stdDeviation="2"/>
<feColorMatrix type="matrix" values="0 0 0 0 0 0 0 0 0 0 0 0 0 0 0 0 0 0 0.25 0"/>
<feBlend mode="normal" in2="BackgroundImageFix" result="effect1_dropShadow"/>
<feBlend mode="normal" in="SourceGraphic" in2="effect1_dropShadow" result="shape"/>
</filter>
<filter id="filter6_d" x="137.318" y="99.5" width="15.364" height="14.5" filterUnits="userSpaceOnUse" color-interpolation-filters="sRGB">
<feFlood flood-opacity="0" result="BackgroundImageFix"/>
<feColorMatrix in="SourceAlpha" type="matrix" values="0 0 0 0 0 0 0 0 0 0 0 0 0 0 0 0 0 0 127 0"/>
<feOffset dy="4"/>
<feGaussianBlur stdDeviation="2"/>
<feColorMatrix type="matrix" values="0 0 0 0 0 0 0 0 0 0 0 0 0 0 0 0 0 0 0.25 0"/>
<feBlend mode="normal" in2="BackgroundImageFix" result="effect1_dropShadow"/>
<feBlend mode="normal" in="SourceGraphic" in2="effect1_dropShadow" result="shape"/>
</filter>
<filter id="filter7_d" x="47" y="105" width="174" height="9.00001" filterUnits="userSpaceOnUse" color-interpolation-filters="sRGB">
<feFlood flood-opacity="0" result="BackgroundImageFix"/>
<feColorMatrix in="SourceAlpha" type="matrix" values="0 0 0 0 0 0 0 0 0 0 0 0 0 0 0 0 0 0 127 0"/>
<feOffset dy="4"/>
<feGaussianBlur stdDeviation="2"/>
<feColorMatrix type="matrix" values="0 0 0 0 0 0 0 0 0 0 0 0 0 0 0 0 0 0 0.25 0"/>
<feBlend mode="normal" in2="BackgroundImageFix" result="effect1_dropShadow"/>
<feBlend mode="normal" in="SourceGraphic" in2="effect1_dropShadow" result="shape"/>
</filter>
<clipPath id="clip0">
<rect width="271" height="124" fill="white"/>
</clipPath>
</defs>
</svg>
