<svg width="625" height="400" viewBox="0 0 625 400" fill="none" xmlns="http://www.w3.org/2000/svg">
<g clip-path="url(#clip0)">
<rect width="625" height="400" fill="white"/>
<rect opacity="0.4" x="418" y="312" width="90" height="33" fill="#BB6BD9"/>
<rect opacity="0.3" x="418" y="345" width="90" height="33" fill="#EB5757"/>
<rect opacity="0.4" x="418" y="279" width="90" height="33" fill="#F2994A"/>
<rect opacity="0.4" x="411" y="106" width="44" height="98" fill="#828282"/>
<rect opacity="0.4" x="457" y="106" width="44" height="98" fill="#27AE60"/>
<rect x="16" y="206" width="37" height="24" fill="#56CCF2" stroke="black" stroke-width="2"/>
<rect x="154" y="206" width="37" height="24" fill="#56CCF2" stroke="black" stroke-width="2"/>
<rect x="108" y="206" width="37" height="24" fill="#56CCF2" stroke="black" stroke-width="2"/>
<rect x="246" y="206" width="37" height="24" fill="#56CCF2" stroke="black" stroke-width="2"/>
<rect x="62" y="206" width="37" height="24" fill="#56CCF2" stroke="black" stroke-width="2"/>
<rect x="200" y="206" width="37" height="24" fill="#56CCF2" stroke="black" stroke-width="2"/>
<path d="M34.6699 199H32.9766V192.473L30.9551 193.1V191.723L34.4883 190.457H34.6699V199ZM82.1426 199H76.2949V197.84L79.0547 194.898C79.4336 194.484 79.7129 194.123 79.8926 193.814C80.0762 193.506 80.168 193.213 80.168 192.936C80.168 192.557 80.0723 192.26 79.8809 192.045C79.6895 191.826 79.416 191.717 79.0605 191.717C78.6777 191.717 78.375 191.85 78.1523 192.115C77.9336 192.377 77.8242 192.723 77.8242 193.152H76.125C76.125 192.633 76.248 192.158 76.4941 191.729C76.7441 191.299 77.0957 190.963 77.5488 190.721C78.002 190.475 78.5156 190.352 79.0898 190.352C79.9688 190.352 80.6504 190.562 81.1348 190.984C81.623 191.406 81.8672 192.002 81.8672 192.771C81.8672 193.193 81.7578 193.623 81.5391 194.061C81.3203 194.498 80.9453 195.008 80.4141 195.59L78.4746 197.635H82.1426V199ZM123.756 193.984H124.658C125.088 193.984 125.406 193.877 125.613 193.662C125.82 193.447 125.924 193.162 125.924 192.807C125.924 192.463 125.82 192.195 125.613 192.004C125.41 191.812 125.129 191.717 124.77 191.717C124.445 191.717 124.174 191.807 123.955 191.986C123.736 192.162 123.627 192.393 123.627 192.678H121.934C121.934 192.232 122.053 191.834 122.291 191.482C122.533 191.127 122.869 190.85 123.299 190.65C123.732 190.451 124.209 190.352 124.729 190.352C125.631 190.352 126.338 190.568 126.85 191.002C127.361 191.432 127.617 192.025 127.617 192.783C127.617 193.174 127.498 193.533 127.26 193.861C127.021 194.189 126.709 194.441 126.322 194.617C126.803 194.789 127.16 195.047 127.395 195.391C127.633 195.734 127.752 196.141 127.752 196.609C127.752 197.367 127.475 197.975 126.92 198.432C126.369 198.889 125.639 199.117 124.729 199.117C123.877 199.117 123.18 198.893 122.637 198.443C122.098 197.994 121.828 197.4 121.828 196.662H123.521C123.521 196.982 123.641 197.244 123.879 197.447C124.121 197.65 124.418 197.752 124.77 197.752C125.172 197.752 125.486 197.646 125.713 197.436C125.943 197.221 126.059 196.938 126.059 196.586C126.059 195.734 125.59 195.309 124.652 195.309H123.756V193.984ZM172.781 195.789H173.748V197.154H172.781V199H171.088V197.154H167.59L167.514 196.088L171.07 190.469H172.781V195.789ZM169.201 195.789H171.088V192.777L170.977 192.971L169.201 195.789ZM216.75 194.805L217.242 190.469H222.023V191.881H218.631L218.42 193.715C218.822 193.5 219.25 193.393 219.703 193.393C220.516 193.393 221.152 193.645 221.613 194.148C222.074 194.652 222.305 195.357 222.305 196.264C222.305 196.814 222.188 197.309 221.953 197.746C221.723 198.18 221.391 198.518 220.957 198.76C220.523 198.998 220.012 199.117 219.422 199.117C218.906 199.117 218.428 199.014 217.986 198.807C217.545 198.596 217.195 198.301 216.938 197.922C216.684 197.543 216.549 197.111 216.533 196.627H218.209C218.244 196.982 218.367 197.26 218.578 197.459C218.793 197.654 219.072 197.752 219.416 197.752C219.799 197.752 220.094 197.615 220.301 197.342C220.508 197.064 220.611 196.674 220.611 196.17C220.611 195.686 220.492 195.314 220.254 195.057C220.016 194.799 219.678 194.67 219.24 194.67C218.838 194.67 218.512 194.775 218.262 194.986L218.098 195.139L216.75 194.805ZM263.842 190.381V191.775H263.678C262.912 191.787 262.295 191.986 261.826 192.373C261.361 192.76 261.082 193.297 260.988 193.984C261.441 193.523 262.014 193.293 262.705 193.293C263.447 193.293 264.037 193.559 264.475 194.09C264.912 194.621 265.131 195.32 265.131 196.188C265.131 196.742 265.01 197.244 264.768 197.693C264.529 198.143 264.189 198.492 263.748 198.742C263.311 198.992 262.814 199.117 262.26 199.117C261.361 199.117 260.635 198.805 260.08 198.18C259.529 197.555 259.254 196.721 259.254 195.678V195.068C259.254 194.143 259.428 193.326 259.775 192.619C260.127 191.908 260.629 191.359 261.281 190.973C261.938 190.582 262.697 190.385 263.561 190.381H263.842ZM262.189 194.652C261.916 194.652 261.668 194.725 261.445 194.869C261.223 195.01 261.059 195.197 260.953 195.432V195.947C260.953 196.514 261.064 196.957 261.287 197.277C261.51 197.594 261.822 197.752 262.225 197.752C262.588 197.752 262.881 197.609 263.104 197.324C263.33 197.035 263.443 196.662 263.443 196.205C263.443 195.74 263.33 195.365 263.104 195.08C262.877 194.795 262.572 194.652 262.189 194.652Z" fill="#BB6BD9"/>
<path d="M37.0049 225H34.4648V215.209L31.4326 216.149V214.084L36.7324 212.186H37.0049V225ZM85.8018 225H77.0303V223.26L81.1699 218.848C81.7383 218.227 82.1572 217.685 82.4268 217.222C82.7021 216.759 82.8398 216.319 82.8398 215.903C82.8398 215.335 82.6963 214.89 82.4092 214.567C82.1221 214.239 81.7119 214.075 81.1787 214.075C80.6045 214.075 80.1504 214.274 79.8164 214.673C79.4883 215.065 79.3242 215.584 79.3242 216.229H76.7754C76.7754 215.449 76.96 214.737 77.3291 214.093C77.7041 213.448 78.2314 212.944 78.9111 212.581C79.5908 212.212 80.3613 212.027 81.2227 212.027C82.541 212.027 83.5635 212.344 84.29 212.977C85.0225 213.609 85.3887 214.503 85.3887 215.657C85.3887 216.29 85.2246 216.935 84.8965 217.591C84.5684 218.247 84.0059 219.012 83.209 219.885L80.2998 222.952H85.8018V225ZM125.81 217.477H127.163C127.808 217.477 128.285 217.315 128.596 216.993C128.906 216.671 129.062 216.243 129.062 215.71C129.062 215.194 128.906 214.793 128.596 214.506C128.291 214.219 127.869 214.075 127.33 214.075C126.844 214.075 126.437 214.21 126.108 214.479C125.78 214.743 125.616 215.089 125.616 215.517H123.076C123.076 214.849 123.255 214.251 123.612 213.724C123.976 213.19 124.479 212.774 125.124 212.476C125.774 212.177 126.489 212.027 127.269 212.027C128.622 212.027 129.683 212.353 130.45 213.003C131.218 213.647 131.602 214.538 131.602 215.675C131.602 216.261 131.423 216.8 131.065 217.292C130.708 217.784 130.239 218.162 129.659 218.426C130.38 218.684 130.916 219.07 131.268 219.586C131.625 220.102 131.804 220.711 131.804 221.414C131.804 222.551 131.388 223.462 130.556 224.147C129.729 224.833 128.634 225.176 127.269 225.176C125.991 225.176 124.945 224.839 124.131 224.165C123.322 223.491 122.918 222.601 122.918 221.493H125.458C125.458 221.974 125.637 222.366 125.994 222.671C126.357 222.976 126.803 223.128 127.33 223.128C127.934 223.128 128.405 222.97 128.745 222.653C129.091 222.331 129.264 221.906 129.264 221.379C129.264 220.102 128.561 219.463 127.154 219.463H125.81V217.477ZM176.936 220.184H178.386V222.231H176.936V225H174.396V222.231H169.148L169.034 220.632L174.369 212.203H176.936V220.184ZM171.565 220.184H174.396V215.666L174.229 215.956L171.565 220.184ZM215.994 218.707L216.732 212.203H223.904V214.321H218.815L218.499 217.072C219.103 216.75 219.744 216.589 220.424 216.589C221.643 216.589 222.598 216.967 223.289 217.723C223.98 218.479 224.326 219.536 224.326 220.896C224.326 221.722 224.15 222.463 223.799 223.119C223.453 223.77 222.955 224.276 222.305 224.64C221.654 224.997 220.887 225.176 220.002 225.176C219.229 225.176 218.511 225.021 217.849 224.71C217.187 224.394 216.662 223.951 216.275 223.383C215.895 222.814 215.692 222.167 215.669 221.44H218.183C218.235 221.974 218.42 222.39 218.736 222.688C219.059 222.981 219.478 223.128 219.993 223.128C220.567 223.128 221.01 222.923 221.32 222.513C221.631 222.097 221.786 221.511 221.786 220.755C221.786 220.028 221.607 219.472 221.25 219.085C220.893 218.698 220.386 218.505 219.729 218.505C219.126 218.505 218.637 218.663 218.262 218.979L218.016 219.208L215.994 218.707ZM268.702 212.071V214.163H268.456C267.308 214.181 266.382 214.479 265.679 215.06C264.981 215.64 264.562 216.445 264.422 217.477C265.102 216.785 265.96 216.439 266.997 216.439C268.11 216.439 268.995 216.838 269.651 217.635C270.308 218.432 270.636 219.48 270.636 220.781C270.636 221.613 270.454 222.366 270.091 223.04C269.733 223.714 269.224 224.238 268.562 224.613C267.905 224.988 267.161 225.176 266.329 225.176C264.981 225.176 263.892 224.707 263.06 223.77C262.233 222.832 261.82 221.581 261.82 220.017V219.103C261.82 217.714 262.081 216.489 262.603 215.429C263.13 214.362 263.883 213.539 264.861 212.959C265.846 212.373 266.985 212.077 268.28 212.071H268.702ZM266.224 218.479C265.813 218.479 265.441 218.587 265.107 218.804C264.773 219.015 264.527 219.296 264.369 219.647V220.421C264.369 221.271 264.536 221.936 264.87 222.416C265.204 222.891 265.673 223.128 266.276 223.128C266.821 223.128 267.261 222.914 267.595 222.486C267.935 222.053 268.104 221.493 268.104 220.808C268.104 220.11 267.935 219.548 267.595 219.12C267.255 218.692 266.798 218.479 266.224 218.479Z" fill="black"/>
<path d="M22.8281 24.7695L26.6953 11.9375H30.6094L24.668 29H21L15.082 11.9375H18.9844L22.8281 24.7695ZM37.3242 29.2344C35.4648 29.2344 33.9492 28.6641 32.7773 27.5234C31.6133 26.3828 31.0312 24.8633 31.0312 22.9648V22.6367C31.0312 21.3633 31.2773 20.2266 31.7695 19.2266C32.2617 18.2188 32.957 17.4453 33.8555 16.9062C34.7617 16.3594 35.793 16.0859 36.9492 16.0859C38.6836 16.0859 40.0469 16.6328 41.0391 17.7266C42.0391 18.8203 42.5391 20.3711 42.5391 22.3789V23.7617H34.4648C34.5742 24.5898 34.9023 25.2539 35.4492 25.7539C36.0039 26.2539 36.7031 26.5039 37.5469 26.5039C38.8516 26.5039 39.8711 26.0312 40.6055 25.0859L42.2695 26.9492C41.7617 27.668 41.0742 28.2305 40.207 28.6367C39.3398 29.0352 38.3789 29.2344 37.3242 29.2344ZM36.9375 18.8281C36.2656 18.8281 35.7188 19.0547 35.2969 19.5078C34.8828 19.9609 34.6172 20.6094 34.5 21.4531H39.2109V21.1836C39.1953 20.4336 38.9922 19.8555 38.6016 19.4492C38.2109 19.0352 37.6562 18.8281 36.9375 18.8281ZM49.7461 26.5039C50.3711 26.5039 50.8789 26.332 51.2695 25.9883C51.6602 25.6445 51.8633 25.1875 51.8789 24.6172H55.0547C55.0469 25.4766 54.8125 26.2656 54.3516 26.9844C53.8906 27.6953 53.2578 28.25 52.4531 28.6484C51.6562 29.0391 50.7734 29.2344 49.8047 29.2344C47.9922 29.2344 46.5625 28.6602 45.5156 27.5117C44.4688 26.3555 43.9453 24.7617 43.9453 22.7305V22.5078C43.9453 20.5547 44.4648 18.9961 45.5039 17.832C46.543 16.668 47.9688 16.0859 49.7812 16.0859C51.3672 16.0859 52.6367 16.5391 53.5898 17.4453C54.5508 18.3438 55.0391 19.543 55.0547 21.043H51.8789C51.8633 20.3867 51.6602 19.8555 51.2695 19.4492C50.8789 19.0352 50.3633 18.8281 49.7227 18.8281C48.9336 18.8281 48.3359 19.1172 47.9297 19.6953C47.5312 20.2656 47.332 21.1953 47.332 22.4844V22.8359C47.332 24.1406 47.5312 25.0781 47.9297 25.6484C48.3281 26.2188 48.9336 26.5039 49.7461 26.5039ZM61.043 13.2031V16.3203H63.2109V18.8047H61.043V25.1328C61.043 25.6016 61.1328 25.9375 61.3125 26.1406C61.4922 26.3438 61.8359 26.4453 62.3438 26.4453C62.7188 26.4453 63.0508 26.418 63.3398 26.3633V28.9297C62.6758 29.1328 61.9922 29.2344 61.2891 29.2344C58.9141 29.2344 57.7031 28.0352 57.6562 25.6367V18.8047H55.8047V16.3203H57.6562V13.2031H61.043ZM64.2188 22.543C64.2188 21.2852 64.4609 20.1641 64.9453 19.1797C65.4297 18.1953 66.125 17.4336 67.0312 16.8945C67.9453 16.3555 69.0039 16.0859 70.207 16.0859C71.918 16.0859 73.3125 16.6094 74.3906 17.6562C75.4766 18.7031 76.082 20.125 76.207 21.9219L76.2305 22.7891C76.2305 24.7344 75.6875 26.2969 74.6016 27.4766C73.5156 28.6484 72.0586 29.2344 70.2305 29.2344C68.4023 29.2344 66.9414 28.6484 65.8477 27.4766C64.7617 26.3047 64.2188 24.7109 64.2188 22.6953V22.543ZM67.6055 22.7891C67.6055 23.9922 67.832 24.9141 68.2852 25.5547C68.7383 26.1875 69.3867 26.5039 70.2305 26.5039C71.0508 26.5039 71.6914 26.1914 72.1523 25.5664C72.6133 24.9336 72.8438 23.9258 72.8438 22.543C72.8438 21.3633 72.6133 20.4492 72.1523 19.8008C71.6914 19.1523 71.043 18.8281 70.207 18.8281C69.3789 18.8281 68.7383 19.1523 68.2852 19.8008C67.832 20.4414 67.6055 21.4375 67.6055 22.7891ZM85.4414 19.4961C84.9805 19.4336 84.5742 19.4023 84.2227 19.4023C82.9414 19.4023 82.1016 19.8359 81.7031 20.7031V29H78.3164V16.3203H81.5156L81.6094 17.832C82.2891 16.668 83.2305 16.0859 84.4336 16.0859C84.8086 16.0859 85.1602 16.1367 85.4883 16.2383L85.4414 19.4961Z" fill="black"/>
<path d="M28.4497 41.0581L24.7617 39.7695V38.0049L30.2905 40.3218V41.8135L24.7617 44.1367V42.3657L28.4497 41.0581ZM39.0376 45H37.2031V37.9287L35.0132 38.6079V37.1162L38.8408 35.7451H39.0376V45ZM45.4805 45V35.7578H48.3242C49.1367 35.7578 49.8625 35.9419 50.5015 36.3101C51.1447 36.674 51.6462 37.1945 52.0059 37.8716C52.3656 38.5444 52.5454 39.3104 52.5454 40.1694V40.5947C52.5454 41.4538 52.3677 42.2176 52.0122 42.8862C51.661 43.5549 51.1637 44.0732 50.5205 44.4414C49.8773 44.8096 49.1515 44.9958 48.3433 45H45.4805ZM47.3848 37.3003V43.4702H48.3052C49.05 43.4702 49.6191 43.2269 50.0127 42.7402C50.4062 42.2536 50.6073 41.5575 50.6157 40.6519V40.1631C50.6157 39.2236 50.4211 38.5127 50.0317 38.0303C49.6424 37.5436 49.0732 37.3003 48.3242 37.3003H47.3848ZM55.751 45H53.9102V38.1318H55.751V45ZM53.8022 36.3545C53.8022 36.0794 53.8932 35.853 54.0752 35.6753C54.2614 35.4976 54.5132 35.4087 54.8306 35.4087C55.1437 35.4087 55.3934 35.4976 55.5796 35.6753C55.7658 35.853 55.8589 36.0794 55.8589 36.3545C55.8589 36.6338 55.7637 36.8623 55.5732 37.04C55.387 37.2178 55.1395 37.3066 54.8306 37.3066C54.5216 37.3066 54.272 37.2178 54.0815 37.04C53.8953 36.8623 53.8022 36.6338 53.8022 36.3545ZM58.9883 38.1318L59.0454 38.8999C59.5321 38.3032 60.1901 38.0049 61.0195 38.0049C61.904 38.0049 62.5112 38.354 62.8413 39.0522C63.3237 38.354 64.0114 38.0049 64.9043 38.0049C65.6491 38.0049 66.2035 38.2228 66.5674 38.6587C66.9313 39.0903 67.1133 39.742 67.1133 40.6138V45H65.2725V40.6201C65.2725 40.2308 65.1963 39.9473 65.0439 39.7695C64.8916 39.5876 64.6229 39.4966 64.2378 39.4966C63.6877 39.4966 63.3068 39.759 63.0952 40.2837L63.1016 45H61.2671V40.6265C61.2671 40.2287 61.1888 39.9409 61.0322 39.7632C60.8757 39.5854 60.609 39.4966 60.2324 39.4966C59.7119 39.4966 59.3353 39.7124 59.1025 40.144V45H57.2681V38.1318H58.9883ZM71.6899 45.127C70.6828 45.127 69.8618 44.818 69.2271 44.2002C68.5965 43.5824 68.2812 42.7593 68.2812 41.731V41.5532C68.2812 40.8634 68.4146 40.2477 68.6812 39.7061C68.9478 39.1602 69.3244 38.7412 69.811 38.4492C70.3019 38.153 70.8605 38.0049 71.4868 38.0049C72.4263 38.0049 73.1647 38.3011 73.7021 38.8936C74.2438 39.486 74.5146 40.326 74.5146 41.4136V42.1626H70.1411C70.2004 42.6112 70.3781 42.9709 70.6743 43.2417C70.9748 43.5125 71.3535 43.6479 71.8105 43.6479C72.5173 43.6479 73.0695 43.3919 73.4673 42.8799L74.3687 43.8892C74.0936 44.2785 73.7212 44.5832 73.2515 44.8032C72.7817 45.019 72.2612 45.127 71.6899 45.127ZM71.4805 39.4902C71.1165 39.4902 70.8203 39.613 70.5918 39.8584C70.3675 40.1038 70.2236 40.4551 70.1602 40.9121H72.7119V40.7661C72.7035 40.3599 72.5934 40.0467 72.3818 39.8267C72.1702 39.6024 71.8698 39.4902 71.4805 39.4902ZM77.2505 38.1318L77.3076 38.9253C77.7985 38.3117 78.4565 38.0049 79.2817 38.0049C80.0096 38.0049 80.5513 38.2186 80.9067 38.646C81.2622 39.0734 81.4442 39.7124 81.4526 40.563V45H79.6182V40.6074C79.6182 40.2181 79.5335 39.9367 79.3643 39.7632C79.195 39.5854 78.9136 39.4966 78.52 39.4966C78.0037 39.4966 77.6165 39.7166 77.3584 40.1567V45H75.5239V38.1318H77.2505ZM86.5688 43.1021C86.5688 42.8778 86.4567 42.7021 86.2324 42.5752C86.0124 42.444 85.6569 42.3276 85.166 42.2261C83.5326 41.8833 82.7158 41.1893 82.7158 40.144C82.7158 39.5347 82.9676 39.0269 83.4712 38.6206C83.979 38.2101 84.6413 38.0049 85.458 38.0049C86.3298 38.0049 87.0259 38.2101 87.5464 38.6206C88.0711 39.0311 88.3335 39.5643 88.3335 40.2202H86.499C86.499 39.9578 86.4144 39.742 86.2451 39.5728C86.0758 39.3993 85.8114 39.3125 85.4517 39.3125C85.1427 39.3125 84.9036 39.3823 84.7344 39.522C84.5651 39.6616 84.4805 39.8394 84.4805 40.0552C84.4805 40.2583 84.5757 40.4233 84.7661 40.5503C84.9608 40.673 85.2866 40.7809 85.7437 40.874C86.2007 40.9629 86.5858 41.0645 86.8989 41.1787C87.868 41.5342 88.3525 42.1499 88.3525 43.0259C88.3525 43.6522 88.0838 44.16 87.5464 44.5493C87.009 44.9344 86.3149 45.127 85.4644 45.127C84.8888 45.127 84.3768 45.0254 83.9282 44.8223C83.4839 44.6149 83.1348 44.3335 82.8809 43.978C82.627 43.6183 82.5 43.2311 82.5 42.8164H84.2393C84.2562 43.1423 84.3768 43.3919 84.6011 43.5654C84.8254 43.7389 85.1258 43.8257 85.5024 43.8257C85.8537 43.8257 86.1182 43.7601 86.2959 43.6289C86.4779 43.4935 86.5688 43.3179 86.5688 43.1021ZM91.4756 45H89.6348V38.1318H91.4756V45ZM89.5269 36.3545C89.5269 36.0794 89.6178 35.853 89.7998 35.6753C89.986 35.4976 90.2378 35.4087 90.5552 35.4087C90.8683 35.4087 91.118 35.4976 91.3042 35.6753C91.4904 35.853 91.5835 36.0794 91.5835 36.3545C91.5835 36.6338 91.4883 36.8623 91.2979 37.04C91.1117 37.2178 90.8641 37.3066 90.5552 37.3066C90.2463 37.3066 89.9966 37.2178 89.8062 37.04C89.62 36.8623 89.5269 36.6338 89.5269 36.3545ZM92.707 41.5024C92.707 40.8211 92.8382 40.2139 93.1006 39.6807C93.363 39.1475 93.7396 38.7349 94.2305 38.4429C94.7256 38.1509 95.299 38.0049 95.9507 38.0049C96.8774 38.0049 97.6328 38.2884 98.2168 38.8555C98.805 39.4225 99.133 40.1927 99.2007 41.166L99.2134 41.6357C99.2134 42.6895 98.9193 43.5358 98.3311 44.1748C97.7428 44.8096 96.9536 45.127 95.9634 45.127C94.9731 45.127 94.1818 44.8096 93.5894 44.1748C93.0011 43.54 92.707 42.6768 92.707 41.585V41.5024ZM94.5415 41.6357C94.5415 42.2874 94.6642 42.7868 94.9097 43.1338C95.1551 43.4766 95.5063 43.6479 95.9634 43.6479C96.4077 43.6479 96.7547 43.4787 97.0044 43.1401C97.2541 42.7974 97.3789 42.2515 97.3789 41.5024C97.3789 40.8634 97.2541 40.3683 97.0044 40.0171C96.7547 39.6659 96.4035 39.4902 95.9507 39.4902C95.5021 39.4902 95.1551 39.6659 94.9097 40.0171C94.6642 40.3641 94.5415 40.9036 94.5415 41.6357ZM102.032 38.1318L102.089 38.9253C102.58 38.3117 103.238 38.0049 104.063 38.0049C104.791 38.0049 105.333 38.2186 105.688 38.646C106.043 39.0734 106.225 39.7124 106.234 40.563V45H104.399V40.6074C104.399 40.2181 104.315 39.9367 104.146 39.7632C103.976 39.5854 103.695 39.4966 103.301 39.4966C102.785 39.4966 102.398 39.7166 102.14 40.1567V45H100.305V38.1318H102.032ZM28.4497 56.0581L24.7617 54.7695V53.0049L30.2905 55.3218V56.8135L24.7617 59.1367V57.3657L28.4497 56.0581ZM39.5708 57.5752C39.5708 57.2155 39.4438 56.9404 39.1899 56.75C38.936 56.5553 38.479 56.3522 37.8188 56.1406C37.1587 55.9248 36.6361 55.7132 36.251 55.5059C35.2015 54.9388 34.6768 54.175 34.6768 53.2144C34.6768 52.715 34.8164 52.2707 35.0957 51.8813C35.3792 51.4878 35.7834 51.181 36.3081 50.9609C36.8371 50.7409 37.4295 50.6309 38.0854 50.6309C38.7456 50.6309 39.3338 50.7515 39.8501 50.9927C40.3664 51.2297 40.7663 51.5661 41.0498 52.002C41.3376 52.4378 41.4814 52.9329 41.4814 53.4873H39.5771C39.5771 53.0641 39.4438 52.7362 39.1772 52.5034C38.9106 52.2664 38.5361 52.1479 38.0537 52.1479C37.5882 52.1479 37.2264 52.2474 36.9683 52.4463C36.7101 52.641 36.5811 52.8991 36.5811 53.2207C36.5811 53.5212 36.7313 53.7729 37.0317 53.9761C37.3364 54.1792 37.7829 54.3696 38.3711 54.5474C39.4544 54.8732 40.2437 55.2773 40.7388 55.7598C41.2339 56.2422 41.4814 56.8431 41.4814 57.5625C41.4814 58.3623 41.1789 58.9907 40.5737 59.4478C39.9686 59.9006 39.154 60.127 38.1299 60.127C37.4189 60.127 36.7715 59.9979 36.1875 59.7397C35.6035 59.4774 35.1571 59.1198 34.8481 58.667C34.5435 58.2142 34.3911 57.6895 34.3911 57.0928H36.3018C36.3018 58.1126 36.9111 58.6226 38.1299 58.6226C38.5827 58.6226 38.936 58.5316 39.1899 58.3496C39.4438 58.1634 39.5708 57.9053 39.5708 57.5752ZM46.6357 60C46.5511 59.835 46.4897 59.6297 46.4517 59.3843C46.0073 59.8794 45.4297 60.127 44.7188 60.127C44.0459 60.127 43.4873 59.9323 43.043 59.543C42.6029 59.1536 42.3828 58.6628 42.3828 58.0703C42.3828 57.3424 42.6515 56.7839 43.189 56.3945C43.7306 56.0052 44.5114 55.8084 45.5312 55.8042H46.3755V55.4106C46.3755 55.0933 46.293 54.8394 46.1279 54.6489C45.9671 54.4585 45.7111 54.3633 45.3599 54.3633C45.0509 54.3633 44.8076 54.4373 44.6299 54.5854C44.4564 54.7336 44.3696 54.9367 44.3696 55.1948H42.5352C42.5352 54.797 42.6579 54.4289 42.9033 54.0903C43.1488 53.7518 43.4958 53.4873 43.9443 53.2969C44.3929 53.1022 44.8965 53.0049 45.4551 53.0049C46.3014 53.0049 46.9722 53.2186 47.4673 53.646C47.9666 54.0692 48.2163 54.6659 48.2163 55.436V58.4131C48.2205 59.0648 48.3115 59.5578 48.4893 59.8921V60H46.6357ZM45.1187 58.7241C45.3895 58.7241 45.6392 58.6649 45.8677 58.5464C46.0962 58.4237 46.2655 58.2607 46.3755 58.0576V56.877H45.6899C44.7716 56.877 44.2829 57.1943 44.2236 57.8291L44.2173 57.937C44.2173 58.1655 44.2977 58.3538 44.4585 58.502C44.6193 58.6501 44.8394 58.7241 45.1187 58.7241ZM51.3457 53.1318L51.4028 53.8999C51.8895 53.3032 52.5475 53.0049 53.377 53.0049C54.2614 53.0049 54.8687 53.354 55.1987 54.0522C55.6812 53.354 56.3688 53.0049 57.2617 53.0049C58.0065 53.0049 58.5609 53.2228 58.9248 53.6587C59.2887 54.0903 59.4707 54.742 59.4707 55.6138V60H57.6299V55.6201C57.6299 55.2308 57.5537 54.9473 57.4014 54.7695C57.249 54.5876 56.9803 54.4966 56.5952 54.4966C56.0451 54.4966 55.6642 54.759 55.4526 55.2837L55.459 60H53.6245V55.6265C53.6245 55.2287 53.5462 54.9409 53.3896 54.7632C53.2331 54.5854 52.9665 54.4966 52.5898 54.4966C52.0693 54.4966 51.6927 54.7124 51.46 55.144V60H49.6255V53.1318H51.3457ZM64.0474 60.127C63.0402 60.127 62.2192 59.818 61.5845 59.2002C60.9539 58.5824 60.6387 57.7593 60.6387 56.731V56.5532C60.6387 55.8634 60.772 55.2477 61.0386 54.7061C61.3052 54.1602 61.6818 53.7412 62.1685 53.4492C62.6593 53.153 63.2179 53.0049 63.8442 53.0049C64.7837 53.0049 65.5221 53.3011 66.0596 53.8936C66.6012 54.486 66.8721 55.326 66.8721 56.4136V57.1626H62.4985C62.5578 57.6112 62.7355 57.9709 63.0317 58.2417C63.3322 58.5125 63.7109 58.6479 64.168 58.6479C64.8747 58.6479 65.4269 58.3919 65.8247 57.8799L66.7261 58.8892C66.451 59.2785 66.0786 59.5832 65.6089 59.8032C65.1392 60.019 64.6187 60.127 64.0474 60.127ZM63.8379 54.4902C63.474 54.4902 63.1777 54.613 62.9492 54.8584C62.7249 55.1038 62.5811 55.4551 62.5176 55.9121H65.0693V55.7661C65.0609 55.3599 64.9508 55.0467 64.7393 54.8267C64.5277 54.6024 64.2272 54.4902 63.8379 54.4902ZM77.8535 52.3003H75.0225V60H73.1182V52.3003H70.3252V50.7578H77.8535V52.3003ZM80.8687 57.4038L82.1382 53.1318H84.106L81.3447 61.0664L81.1924 61.4282C80.7819 62.3254 80.1048 62.7739 79.1611 62.7739C78.8945 62.7739 78.6237 62.7337 78.3486 62.6533V61.2632L78.6279 61.2695C78.9749 61.2695 79.2331 61.2166 79.4023 61.1108C79.5758 61.005 79.7113 60.8294 79.8086 60.584L80.0244 60.019L77.6187 53.1318H79.5928L80.8687 57.4038ZM91.0122 56.6294C91.0122 57.6873 90.771 58.5358 90.2886 59.1748C89.8104 59.8096 89.1629 60.127 88.3462 60.127C87.6522 60.127 87.0915 59.8857 86.6641 59.4033V62.6406H84.8296V53.1318H86.5308L86.5942 53.8047C87.0386 53.2715 87.6183 53.0049 88.3335 53.0049C89.1799 53.0049 89.8379 53.318 90.3076 53.9443C90.7773 54.5706 91.0122 55.4339 91.0122 56.5342V56.6294ZM89.1777 56.4961C89.1777 55.8571 89.0635 55.3641 88.835 55.0171C88.6107 54.6701 88.2827 54.4966 87.8511 54.4966C87.2756 54.4966 86.8799 54.7166 86.6641 55.1567V57.9688C86.8883 58.4215 87.2882 58.6479 87.8638 58.6479C88.7397 58.6479 89.1777 57.9307 89.1777 56.4961ZM95.3159 60.127C94.3088 60.127 93.4878 59.818 92.853 59.2002C92.2225 58.5824 91.9072 57.7593 91.9072 56.731V56.5532C91.9072 55.8634 92.0405 55.2477 92.3071 54.7061C92.5737 54.1602 92.9504 53.7412 93.437 53.4492C93.9279 53.153 94.4865 53.0049 95.1128 53.0049C96.0522 53.0049 96.7907 53.3011 97.3281 53.8936C97.8698 54.486 98.1406 55.326 98.1406 56.4136V57.1626H93.7671C93.8263 57.6112 94.0041 57.9709 94.3003 58.2417C94.6007 58.5125 94.9795 58.6479 95.4365 58.6479C96.1432 58.6479 96.6955 58.3919 97.0933 57.8799L97.9946 58.8892C97.7196 59.2785 97.3472 59.5832 96.8774 59.8032C96.4077 60.019 95.8872 60.127 95.3159 60.127ZM95.1064 54.4902C94.7425 54.4902 94.4463 54.613 94.2178 54.8584C93.9935 55.1038 93.8496 55.4551 93.7861 55.9121H96.3379V55.7661C96.3294 55.3599 96.2194 55.0467 96.0078 54.8267C95.7962 54.6024 95.4958 54.4902 95.1064 54.4902Z" fill="#9B51E0"/>
<line x1="16.5" y1="36" x2="16.5" y2="63" stroke="#9B51E0" stroke-width="3"/>
<rect x="422" y="283" width="37" height="24" fill="#56CCF2" stroke="black" stroke-width="2"/>
<rect x="422" y="348" width="37" height="24" fill="#56CCF2" stroke="black" stroke-width="2"/>
<rect x="422" y="317" width="37" height="24" fill="#56CCF2" stroke="black" stroke-width="2"/>
<rect x="468" y="283" width="37" height="24" fill="#56CCF2" stroke="black" stroke-width="2"/>
<rect x="468" y="348" width="37" height="24" fill="#56CCF2" stroke="black" stroke-width="2"/>
<rect x="468" y="317" width="37" height="24" fill="#56CCF2" stroke="black" stroke-width="2"/>
<path d="M505.354 262.354C505.549 262.158 505.549 261.842 505.354 261.646L502.172 258.464C501.976 258.269 501.66 258.269 501.464 258.464C501.269 258.66 501.269 258.976 501.464 259.172L504.293 262L501.464 264.828C501.269 265.024 501.269 265.34 501.464 265.536C501.66 265.731 501.976 265.731 502.172 265.536L505.354 262.354ZM419 262.5H505V261.5H419V262.5Z" fill="#BDBDBD"/>
<path d="M516.646 376.354C516.842 376.549 517.158 376.549 517.354 376.354L520.536 373.172C520.731 372.976 520.731 372.66 520.536 372.464C520.34 372.269 520.024 372.269 519.828 372.464L517 375.293L514.172 372.464C513.976 372.269 513.66 372.269 513.464 372.464C513.269 372.66 513.269 372.976 513.464 373.172L516.646 376.354ZM516.5 281L516.5 376L517.5 376L517.5 281L516.5 281Z" fill="#BDBDBD"/>
<path d="M438.287 256.752C438.6 256.752 438.854 256.666 439.049 256.494C439.244 256.322 439.346 256.094 439.354 255.809H440.941C440.938 256.238 440.82 256.633 440.59 256.992C440.359 257.348 440.043 257.625 439.641 257.824C439.242 258.02 438.801 258.117 438.316 258.117C437.41 258.117 436.695 257.83 436.172 257.256C435.648 256.678 435.387 255.881 435.387 254.865V254.754C435.387 253.777 435.646 252.998 436.166 252.416C436.686 251.834 437.398 251.543 438.305 251.543C439.098 251.543 439.732 251.77 440.209 252.223C440.689 252.672 440.934 253.271 440.941 254.021H439.354C439.346 253.693 439.244 253.428 439.049 253.225C438.854 253.018 438.596 252.914 438.275 252.914C437.881 252.914 437.582 253.059 437.379 253.348C437.18 253.633 437.08 254.098 437.08 254.742V254.918C437.08 255.57 437.18 256.039 437.379 256.324C437.578 256.609 437.881 256.752 438.287 256.752ZM441.645 254.771C441.645 254.143 441.766 253.582 442.008 253.09C442.25 252.598 442.598 252.217 443.051 251.947C443.508 251.678 444.037 251.543 444.639 251.543C445.494 251.543 446.191 251.805 446.73 252.328C447.273 252.852 447.576 253.562 447.639 254.461L447.65 254.895C447.65 255.867 447.379 256.648 446.836 257.238C446.293 257.824 445.564 258.117 444.65 258.117C443.736 258.117 443.006 257.824 442.459 257.238C441.916 256.652 441.645 255.855 441.645 254.848V254.771ZM443.338 254.895C443.338 255.496 443.451 255.957 443.678 256.277C443.904 256.594 444.229 256.752 444.65 256.752C445.061 256.752 445.381 256.596 445.611 256.283C445.842 255.967 445.957 255.463 445.957 254.771C445.957 254.182 445.842 253.725 445.611 253.4C445.381 253.076 445.057 252.914 444.639 252.914C444.225 252.914 443.904 253.076 443.678 253.4C443.451 253.721 443.338 254.219 443.338 254.895ZM450.48 258H448.781V249H450.48V258ZM455.678 257.355C455.26 257.863 454.682 258.117 453.943 258.117C453.264 258.117 452.744 257.922 452.385 257.531C452.029 257.141 451.848 256.568 451.84 255.814V251.66H453.533V255.756C453.533 256.416 453.834 256.746 454.436 256.746C455.01 256.746 455.404 256.547 455.619 256.148V251.66H457.318V258H455.725L455.678 257.355ZM460.184 251.66L460.236 252.369C460.686 251.818 461.293 251.543 462.059 251.543C462.875 251.543 463.436 251.865 463.74 252.51C464.186 251.865 464.82 251.543 465.645 251.543C466.332 251.543 466.844 251.744 467.18 252.146C467.516 252.545 467.684 253.146 467.684 253.951V258H465.984V253.957C465.984 253.598 465.914 253.336 465.773 253.172C465.633 253.004 465.385 252.92 465.029 252.92C464.521 252.92 464.17 253.162 463.975 253.646L463.98 258H462.287V253.963C462.287 253.596 462.215 253.33 462.07 253.166C461.926 253.002 461.68 252.92 461.332 252.92C460.852 252.92 460.504 253.119 460.289 253.518V258H458.596V251.66H460.184ZM470.549 251.66L470.602 252.393C471.055 251.826 471.662 251.543 472.424 251.543C473.096 251.543 473.596 251.74 473.924 252.135C474.252 252.529 474.42 253.119 474.428 253.904V258H472.734V253.945C472.734 253.586 472.656 253.326 472.5 253.166C472.344 253.002 472.084 252.92 471.721 252.92C471.244 252.92 470.887 253.123 470.648 253.529V258H468.955V251.66H470.549ZM479.15 256.248C479.15 256.041 479.047 255.879 478.84 255.762C478.637 255.641 478.309 255.533 477.855 255.439C476.348 255.123 475.594 254.482 475.594 253.518C475.594 252.955 475.826 252.486 476.291 252.111C476.76 251.732 477.371 251.543 478.125 251.543C478.93 251.543 479.572 251.732 480.053 252.111C480.537 252.49 480.779 252.982 480.779 253.588H479.086C479.086 253.346 479.008 253.146 478.852 252.99C478.695 252.83 478.451 252.75 478.119 252.75C477.834 252.75 477.613 252.814 477.457 252.943C477.301 253.072 477.223 253.236 477.223 253.436C477.223 253.623 477.311 253.775 477.486 253.893C477.666 254.006 477.967 254.105 478.389 254.191C478.811 254.273 479.166 254.367 479.455 254.473C480.35 254.801 480.797 255.369 480.797 256.178C480.797 256.756 480.549 257.225 480.053 257.584C479.557 257.939 478.916 258.117 478.131 258.117C477.6 258.117 477.127 258.023 476.713 257.836C476.303 257.645 475.98 257.385 475.746 257.057C475.512 256.725 475.395 256.367 475.395 255.984H477C477.016 256.285 477.127 256.516 477.334 256.676C477.541 256.836 477.818 256.916 478.166 256.916C478.49 256.916 478.734 256.855 478.898 256.734C479.066 256.609 479.15 256.447 479.15 256.248Z" fill="#BDBDBD"/>
<path d="M523.248 337.787C523.217 338.018 523.201 338.221 523.201 338.396C523.201 339.037 523.418 339.457 523.852 339.656L528 339.656L528 341.35L521.66 341.35L521.66 339.75L522.416 339.703C521.834 339.363 521.543 338.893 521.543 338.291C521.543 338.104 521.568 337.928 521.619 337.764L523.248 337.787ZM524.771 337.441C524.143 337.441 523.582 337.32 523.09 337.078C522.598 336.836 522.217 336.488 521.947 336.035C521.678 335.578 521.543 335.049 521.543 334.447C521.543 333.592 521.805 332.895 522.328 332.355C522.852 331.812 523.562 331.51 524.461 331.447L524.895 331.436C525.867 331.436 526.648 331.707 527.238 332.25C527.824 332.793 528.117 333.521 528.117 334.436C528.117 335.35 527.824 336.08 527.238 336.627C526.652 337.17 525.855 337.441 524.848 337.441L524.771 337.441ZM524.895 335.748C525.496 335.748 525.957 335.635 526.277 335.408C526.594 335.182 526.752 334.857 526.752 334.436C526.752 334.025 526.596 333.705 526.283 333.475C525.967 333.244 525.463 333.129 524.771 333.129C524.182 333.129 523.725 333.244 523.4 333.475C523.076 333.705 522.914 334.029 522.914 334.447C522.914 334.861 523.076 335.182 523.4 335.408C523.721 335.635 524.219 335.748 524.895 335.748ZM525.697 324.879L521.66 324.047L521.66 322.412L528 324.029L528 325.447L524.01 326.648L528 327.85L528 329.262L521.66 330.879L521.66 329.244L525.691 328.418L521.66 327.258L521.66 326.033L525.697 324.879ZM526.248 318.135C526.041 318.135 525.879 318.238 525.762 318.445C525.641 318.648 525.533 318.977 525.439 319.43C525.123 320.937 524.482 321.691 523.518 321.691C522.955 321.691 522.486 321.459 522.111 320.994C521.732 320.525 521.543 319.914 521.543 319.16C521.543 318.355 521.732 317.713 522.111 317.232C522.49 316.748 522.982 316.506 523.588 316.506L523.588 318.199C523.346 318.199 523.146 318.277 522.99 318.434C522.83 318.59 522.75 318.834 522.75 319.166C522.75 319.451 522.814 319.672 522.943 319.828C523.072 319.984 523.236 320.062 523.436 320.062C523.623 320.062 523.775 319.975 523.893 319.799C524.006 319.619 524.105 319.318 524.191 318.896C524.273 318.475 524.367 318.119 524.473 317.83C524.801 316.936 525.369 316.488 526.178 316.488C526.756 316.488 527.225 316.736 527.584 317.232C527.939 317.729 528.117 318.369 528.117 319.154C528.117 319.686 528.023 320.158 527.836 320.572C527.645 320.982 527.385 321.305 527.057 321.539C526.725 321.773 526.367 321.891 525.984 321.891L525.984 320.285C526.285 320.27 526.516 320.158 526.676 319.951C526.836 319.744 526.916 319.467 526.916 319.119C526.916 318.795 526.855 318.551 526.734 318.387C526.609 318.219 526.447 318.135 526.248 318.135Z" fill="#BDBDBD"/>
<path d="M442.005 302H439.465V292.209L436.433 293.149V291.084L441.732 289.186H442.005V302ZM490.802 302H482.03V300.26L486.17 295.848C486.738 295.227 487.157 294.685 487.427 294.222C487.702 293.759 487.84 293.319 487.84 292.903C487.84 292.335 487.696 291.89 487.409 291.567C487.122 291.239 486.712 291.075 486.179 291.075C485.604 291.075 485.15 291.274 484.816 291.673C484.488 292.065 484.324 292.584 484.324 293.229H481.775C481.775 292.449 481.96 291.737 482.329 291.093C482.704 290.448 483.231 289.944 483.911 289.581C484.591 289.212 485.361 289.027 486.223 289.027C487.541 289.027 488.563 289.344 489.29 289.977C490.022 290.609 490.389 291.503 490.389 292.657C490.389 293.29 490.225 293.935 489.896 294.591C489.568 295.247 489.006 296.012 488.209 296.885L485.3 299.952H490.802V302Z" fill="black"/>
<path d="M438.419 327.477H439.772C440.417 327.477 440.895 327.315 441.205 326.993C441.516 326.671 441.671 326.243 441.671 325.71C441.671 325.194 441.516 324.793 441.205 324.506C440.9 324.219 440.479 324.075 439.939 324.075C439.453 324.075 439.046 324.21 438.718 324.479C438.39 324.743 438.226 325.089 438.226 325.517H435.686C435.686 324.849 435.864 324.251 436.222 323.724C436.585 323.19 437.089 322.774 437.733 322.476C438.384 322.177 439.099 322.027 439.878 322.027C441.231 322.027 442.292 322.353 443.06 323.003C443.827 323.647 444.211 324.538 444.211 325.675C444.211 326.261 444.032 326.8 443.675 327.292C443.317 327.784 442.849 328.162 442.269 328.426C442.989 328.684 443.525 329.07 443.877 329.586C444.234 330.102 444.413 330.711 444.413 331.414C444.413 332.551 443.997 333.462 443.165 334.147C442.339 334.833 441.243 335.176 439.878 335.176C438.601 335.176 437.555 334.839 436.74 334.165C435.932 333.491 435.527 332.601 435.527 331.493H438.067C438.067 331.974 438.246 332.366 438.604 332.671C438.967 332.976 439.412 333.128 439.939 333.128C440.543 333.128 441.015 332.97 441.354 332.653C441.7 332.331 441.873 331.906 441.873 331.379C441.873 330.102 441.17 329.463 439.764 329.463H438.419V327.477ZM489.545 330.184H490.995V332.231H489.545V335H487.005V332.231H481.758L481.644 330.632L486.979 322.203H489.545V330.184ZM484.175 330.184H487.005V325.666L486.838 325.956L484.175 330.184Z" fill="black"/>
<path d="M436.213 360.707L436.951 354.203H444.123V356.321H439.034L438.718 359.072C439.321 358.75 439.963 358.589 440.643 358.589C441.861 358.589 442.816 358.967 443.508 359.723C444.199 360.479 444.545 361.536 444.545 362.896C444.545 363.722 444.369 364.463 444.018 365.119C443.672 365.77 443.174 366.276 442.523 366.64C441.873 366.997 441.105 367.176 440.221 367.176C439.447 367.176 438.729 367.021 438.067 366.71C437.405 366.394 436.881 365.951 436.494 365.383C436.113 364.814 435.911 364.167 435.888 363.44H438.401C438.454 363.974 438.639 364.39 438.955 364.688C439.277 364.981 439.696 365.128 440.212 365.128C440.786 365.128 441.229 364.923 441.539 364.513C441.85 364.097 442.005 363.511 442.005 362.755C442.005 362.028 441.826 361.472 441.469 361.085C441.111 360.698 440.604 360.505 439.948 360.505C439.345 360.505 438.855 360.663 438.48 360.979L438.234 361.208L436.213 360.707ZM488.921 354.071V356.163H488.675C487.526 356.181 486.601 356.479 485.897 357.06C485.2 357.64 484.781 358.445 484.641 359.477C485.32 358.785 486.179 358.439 487.216 358.439C488.329 358.439 489.214 358.838 489.87 359.635C490.526 360.432 490.854 361.48 490.854 362.781C490.854 363.613 490.673 364.366 490.31 365.04C489.952 365.714 489.442 366.238 488.78 366.613C488.124 366.988 487.38 367.176 486.548 367.176C485.2 367.176 484.11 366.707 483.278 365.77C482.452 364.832 482.039 363.581 482.039 362.017V361.103C482.039 359.714 482.3 358.489 482.821 357.429C483.349 356.362 484.102 355.539 485.08 354.959C486.064 354.373 487.204 354.077 488.499 354.071H488.921ZM486.442 360.479C486.032 360.479 485.66 360.587 485.326 360.804C484.992 361.015 484.746 361.296 484.588 361.647V362.421C484.588 363.271 484.755 363.936 485.089 364.416C485.423 364.891 485.892 365.128 486.495 365.128C487.04 365.128 487.479 364.914 487.813 364.486C488.153 364.053 488.323 363.493 488.323 362.808C488.323 362.11 488.153 361.548 487.813 361.12C487.474 360.692 487.017 360.479 486.442 360.479Z" fill="black"/>
<path d="M441.67 276H439.977V269.473L437.955 270.1V268.723L441.488 267.457H441.67V276ZM489.143 276H483.295V274.84L486.055 271.898C486.434 271.484 486.713 271.123 486.893 270.814C487.076 270.506 487.168 270.213 487.168 269.936C487.168 269.557 487.072 269.26 486.881 269.045C486.689 268.826 486.416 268.717 486.061 268.717C485.678 268.717 485.375 268.85 485.152 269.115C484.934 269.377 484.824 269.723 484.824 270.152H483.125C483.125 269.633 483.248 269.158 483.494 268.729C483.744 268.299 484.096 267.963 484.549 267.721C485.002 267.475 485.516 267.352 486.09 267.352C486.969 267.352 487.65 267.562 488.135 267.984C488.623 268.406 488.867 269.002 488.867 269.771C488.867 270.193 488.758 270.623 488.539 271.061C488.32 271.498 487.945 272.008 487.414 272.59L485.475 274.635H489.143V276Z" fill="#BB6BD9"/>
<path d="M411.693 299H410V292.473L407.979 293.1V291.723L411.512 290.457H411.693V299Z" fill="#BB6BD9"/>
<path d="M413.428 332H407.58V330.84L410.34 327.898C410.719 327.484 410.998 327.123 411.178 326.814C411.361 326.506 411.453 326.213 411.453 325.936C411.453 325.557 411.357 325.26 411.166 325.045C410.975 324.826 410.701 324.717 410.346 324.717C409.963 324.717 409.66 324.85 409.438 325.115C409.219 325.377 409.109 325.723 409.109 326.152H407.41C407.41 325.633 407.533 325.158 407.779 324.729C408.029 324.299 408.381 323.963 408.834 323.721C409.287 323.475 409.801 323.352 410.375 323.352C411.254 323.352 411.936 323.562 412.42 323.984C412.908 324.406 413.152 325.002 413.152 325.771C413.152 326.193 413.043 326.623 412.824 327.061C412.605 327.498 412.23 328.008 411.699 328.59L409.76 330.635H413.428V332Z" fill="#BB6BD9"/>
<path d="M409.303 358.984H410.205C410.635 358.984 410.953 358.877 411.16 358.662C411.367 358.447 411.471 358.162 411.471 357.807C411.471 357.463 411.367 357.195 411.16 357.004C410.957 356.812 410.676 356.717 410.316 356.717C409.992 356.717 409.721 356.807 409.502 356.986C409.283 357.162 409.174 357.393 409.174 357.678H407.48C407.48 357.232 407.6 356.834 407.838 356.482C408.08 356.127 408.416 355.85 408.846 355.65C409.279 355.451 409.756 355.352 410.275 355.352C411.178 355.352 411.885 355.568 412.396 356.002C412.908 356.432 413.164 357.025 413.164 357.783C413.164 358.174 413.045 358.533 412.807 358.861C412.568 359.189 412.256 359.441 411.869 359.617C412.35 359.789 412.707 360.047 412.941 360.391C413.18 360.734 413.299 361.141 413.299 361.609C413.299 362.367 413.021 362.975 412.467 363.432C411.916 363.889 411.186 364.117 410.275 364.117C409.424 364.117 408.727 363.893 408.184 363.443C407.645 362.994 407.375 362.4 407.375 361.662H409.068C409.068 361.982 409.188 362.244 409.426 362.447C409.668 362.65 409.965 362.752 410.316 362.752C410.719 362.752 411.033 362.646 411.26 362.436C411.49 362.221 411.605 361.938 411.605 361.586C411.605 360.734 411.137 360.309 410.199 360.309H409.303V358.984Z" fill="#BB6BD9"/>
<rect x="415" y="111" width="37" height="24" fill="#56CCF2" stroke="black" stroke-width="2"/>
<rect x="415" y="176" width="37" height="24" fill="#56CCF2" stroke="black" stroke-width="2"/>
<rect x="415" y="145" width="37" height="24" fill="#56CCF2" stroke="black" stroke-width="2"/>
<rect x="461" y="111" width="37" height="24" fill="#56CCF2" stroke="black" stroke-width="2"/>
<rect x="461" y="176" width="37" height="24" fill="#56CCF2" stroke="black" stroke-width="2"/>
<rect x="461" y="145" width="37" height="24" fill="#56CCF2" stroke="black" stroke-width="2"/>
<path d="M500.354 212.354C500.549 212.158 500.549 211.842 500.354 211.646L497.172 208.464C496.976 208.269 496.66 208.269 496.464 208.464C496.269 208.66 496.269 208.976 496.464 209.172L499.293 212L496.464 214.828C496.269 215.024 496.269 215.34 496.464 215.536C496.66 215.731 496.976 215.731 497.172 215.536L500.354 212.354ZM414 212.5H500V211.5H414V212.5Z" fill="#BDBDBD"/>
<path d="M395.646 204.354C395.842 204.549 396.158 204.549 396.354 204.354L399.536 201.172C399.731 200.976 399.731 200.66 399.536 200.464C399.34 200.269 399.024 200.269 398.828 200.464L396 203.293L393.172 200.464C392.976 200.269 392.66 200.269 392.464 200.464C392.269 200.66 392.269 200.976 392.464 201.172L395.646 204.354ZM395.5 109L395.5 204L396.5 204L396.5 109L395.5 109Z" fill="#BDBDBD"/>
<path d="M434.287 221.752C434.6 221.752 434.854 221.666 435.049 221.494C435.244 221.322 435.346 221.094 435.354 220.809H436.941C436.938 221.238 436.82 221.633 436.59 221.992C436.359 222.348 436.043 222.625 435.641 222.824C435.242 223.02 434.801 223.117 434.316 223.117C433.41 223.117 432.695 222.83 432.172 222.256C431.648 221.678 431.387 220.881 431.387 219.865V219.754C431.387 218.777 431.646 217.998 432.166 217.416C432.686 216.834 433.398 216.543 434.305 216.543C435.098 216.543 435.732 216.77 436.209 217.223C436.689 217.672 436.934 218.271 436.941 219.021H435.354C435.346 218.693 435.244 218.428 435.049 218.225C434.854 218.018 434.596 217.914 434.275 217.914C433.881 217.914 433.582 218.059 433.379 218.348C433.18 218.633 433.08 219.098 433.08 219.742V219.918C433.08 220.57 433.18 221.039 433.379 221.324C433.578 221.609 433.881 221.752 434.287 221.752ZM437.645 219.771C437.645 219.143 437.766 218.582 438.008 218.09C438.25 217.598 438.598 217.217 439.051 216.947C439.508 216.678 440.037 216.543 440.639 216.543C441.494 216.543 442.191 216.805 442.73 217.328C443.273 217.852 443.576 218.562 443.639 219.461L443.65 219.895C443.65 220.867 443.379 221.648 442.836 222.238C442.293 222.824 441.564 223.117 440.65 223.117C439.736 223.117 439.006 222.824 438.459 222.238C437.916 221.652 437.645 220.855 437.645 219.848V219.771ZM439.338 219.895C439.338 220.496 439.451 220.957 439.678 221.277C439.904 221.594 440.229 221.752 440.65 221.752C441.061 221.752 441.381 221.596 441.611 221.283C441.842 220.967 441.957 220.463 441.957 219.771C441.957 219.182 441.842 218.725 441.611 218.4C441.381 218.076 441.057 217.914 440.639 217.914C440.225 217.914 439.904 218.076 439.678 218.4C439.451 218.721 439.338 219.219 439.338 219.895ZM446.48 223H444.781V214H446.48V223ZM451.678 222.355C451.26 222.863 450.682 223.117 449.943 223.117C449.264 223.117 448.744 222.922 448.385 222.531C448.029 222.141 447.848 221.568 447.84 220.814V216.66H449.533V220.756C449.533 221.416 449.834 221.746 450.436 221.746C451.01 221.746 451.404 221.547 451.619 221.148V216.66H453.318V223H451.725L451.678 222.355ZM456.184 216.66L456.236 217.369C456.686 216.818 457.293 216.543 458.059 216.543C458.875 216.543 459.436 216.865 459.74 217.51C460.186 216.865 460.82 216.543 461.645 216.543C462.332 216.543 462.844 216.744 463.18 217.146C463.516 217.545 463.684 218.146 463.684 218.951V223H461.984V218.957C461.984 218.598 461.914 218.336 461.773 218.172C461.633 218.004 461.385 217.92 461.029 217.92C460.521 217.92 460.17 218.162 459.975 218.646L459.98 223H458.287V218.963C458.287 218.596 458.215 218.33 458.07 218.166C457.926 218.002 457.68 217.92 457.332 217.92C456.852 217.92 456.504 218.119 456.289 218.518V223H454.596V216.66H456.184ZM466.549 216.66L466.602 217.393C467.055 216.826 467.662 216.543 468.424 216.543C469.096 216.543 469.596 216.74 469.924 217.135C470.252 217.529 470.42 218.119 470.428 218.904V223H468.734V218.945C468.734 218.586 468.656 218.326 468.5 218.166C468.344 218.002 468.084 217.92 467.721 217.92C467.244 217.92 466.887 218.123 466.648 218.529V223H464.955V216.66H466.549ZM475.15 221.248C475.15 221.041 475.047 220.879 474.84 220.762C474.637 220.641 474.309 220.533 473.855 220.439C472.348 220.123 471.594 219.482 471.594 218.518C471.594 217.955 471.826 217.486 472.291 217.111C472.76 216.732 473.371 216.543 474.125 216.543C474.93 216.543 475.572 216.732 476.053 217.111C476.537 217.49 476.779 217.982 476.779 218.588H475.086C475.086 218.346 475.008 218.146 474.852 217.99C474.695 217.83 474.451 217.75 474.119 217.75C473.834 217.75 473.613 217.814 473.457 217.943C473.301 218.072 473.223 218.236 473.223 218.436C473.223 218.623 473.311 218.775 473.486 218.893C473.666 219.006 473.967 219.105 474.389 219.191C474.811 219.273 475.166 219.367 475.455 219.473C476.35 219.801 476.797 220.369 476.797 221.178C476.797 221.756 476.549 222.225 476.053 222.584C475.557 222.939 474.916 223.117 474.131 223.117C473.6 223.117 473.127 223.023 472.713 222.836C472.303 222.645 471.98 222.385 471.746 222.057C471.512 221.725 471.395 221.367 471.395 220.984H473C473.016 221.285 473.127 221.516 473.334 221.676C473.541 221.836 473.818 221.916 474.166 221.916C474.49 221.916 474.734 221.855 474.898 221.734C475.066 221.609 475.15 221.447 475.15 221.248Z" fill="#BDBDBD"/>
<path d="M385.248 165.787C385.217 166.018 385.201 166.221 385.201 166.396C385.201 167.037 385.418 167.457 385.852 167.656L390 167.656L390 169.35L383.66 169.35L383.66 167.75L384.416 167.703C383.834 167.363 383.543 166.893 383.543 166.291C383.543 166.104 383.568 165.928 383.619 165.764L385.248 165.787ZM386.771 165.441C386.143 165.441 385.582 165.32 385.09 165.078C384.598 164.836 384.217 164.488 383.947 164.035C383.678 163.578 383.543 163.049 383.543 162.447C383.543 161.592 383.805 160.895 384.328 160.355C384.852 159.812 385.562 159.51 386.461 159.447L386.895 159.436C387.867 159.436 388.648 159.707 389.238 160.25C389.824 160.793 390.117 161.521 390.117 162.436C390.117 163.35 389.824 164.08 389.238 164.627C388.652 165.17 387.855 165.441 386.848 165.441L386.771 165.441ZM386.895 163.748C387.496 163.748 387.957 163.635 388.277 163.408C388.594 163.182 388.752 162.857 388.752 162.436C388.752 162.025 388.596 161.705 388.283 161.475C387.967 161.244 387.463 161.129 386.771 161.129C386.182 161.129 385.725 161.244 385.4 161.475C385.076 161.705 384.914 162.029 384.914 162.447C384.914 162.861 385.076 163.182 385.4 163.408C385.721 163.635 386.219 163.748 386.895 163.748ZM387.697 152.879L383.66 152.047L383.66 150.412L390 152.029L390 153.447L386.01 154.648L390 155.85L390 157.262L383.66 158.879L383.66 157.244L387.691 156.418L383.66 155.258L383.66 154.033L387.697 152.879ZM388.248 146.135C388.041 146.135 387.879 146.238 387.762 146.445C387.641 146.648 387.533 146.977 387.439 147.43C387.123 148.937 386.482 149.691 385.518 149.691C384.955 149.691 384.486 149.459 384.111 148.994C383.732 148.525 383.543 147.914 383.543 147.16C383.543 146.355 383.732 145.713 384.111 145.232C384.49 144.748 384.982 144.506 385.588 144.506L385.588 146.199C385.346 146.199 385.146 146.277 384.99 146.434C384.83 146.59 384.75 146.834 384.75 147.166C384.75 147.451 384.814 147.672 384.943 147.828C385.072 147.984 385.236 148.062 385.436 148.062C385.623 148.062 385.775 147.975 385.893 147.799C386.006 147.619 386.105 147.318 386.191 146.896C386.273 146.475 386.367 146.119 386.473 145.83C386.801 144.936 387.369 144.488 388.178 144.488C388.756 144.488 389.225 144.736 389.584 145.232C389.939 145.729 390.117 146.369 390.117 147.154C390.117 147.686 390.023 148.158 389.836 148.572C389.645 148.982 389.385 149.305 389.057 149.539C388.725 149.773 388.367 149.891 387.984 149.891L387.984 148.285C388.285 148.27 388.516 148.158 388.676 147.951C388.836 147.744 388.916 147.467 388.916 147.119C388.916 146.795 388.855 146.551 388.734 146.387C388.609 146.219 388.447 146.135 388.248 146.135Z" fill="#BDBDBD"/>
<path d="M435.005 130H432.465V120.209L429.433 121.149V119.084L434.732 117.186H435.005V130ZM483.802 130H475.03V128.26L479.17 123.848C479.738 123.227 480.157 122.685 480.427 122.222C480.702 121.759 480.84 121.319 480.84 120.903C480.84 120.335 480.696 119.89 480.409 119.567C480.122 119.239 479.712 119.075 479.179 119.075C478.604 119.075 478.15 119.274 477.816 119.673C477.488 120.065 477.324 120.584 477.324 121.229H474.775C474.775 120.449 474.96 119.737 475.329 119.093C475.704 118.448 476.231 117.944 476.911 117.581C477.591 117.212 478.361 117.027 479.223 117.027C480.541 117.027 481.563 117.344 482.29 117.977C483.022 118.609 483.389 119.503 483.389 120.657C483.389 121.29 483.225 121.935 482.896 122.591C482.568 123.247 482.006 124.012 481.209 124.885L478.3 127.952H483.802V130Z" fill="black"/>
<path d="M431.419 155.477H432.772C433.417 155.477 433.895 155.315 434.205 154.993C434.516 154.671 434.671 154.243 434.671 153.71C434.671 153.194 434.516 152.793 434.205 152.506C433.9 152.219 433.479 152.075 432.939 152.075C432.453 152.075 432.046 152.21 431.718 152.479C431.39 152.743 431.226 153.089 431.226 153.517H428.686C428.686 152.849 428.864 152.251 429.222 151.724C429.585 151.19 430.089 150.774 430.733 150.476C431.384 150.177 432.099 150.027 432.878 150.027C434.231 150.027 435.292 150.353 436.06 151.003C436.827 151.647 437.211 152.538 437.211 153.675C437.211 154.261 437.032 154.8 436.675 155.292C436.317 155.784 435.849 156.162 435.269 156.426C435.989 156.684 436.525 157.07 436.877 157.586C437.234 158.102 437.413 158.711 437.413 159.414C437.413 160.551 436.997 161.462 436.165 162.147C435.339 162.833 434.243 163.176 432.878 163.176C431.601 163.176 430.555 162.839 429.74 162.165C428.932 161.491 428.527 160.601 428.527 159.493H431.067C431.067 159.974 431.246 160.366 431.604 160.671C431.967 160.976 432.412 161.128 432.939 161.128C433.543 161.128 434.015 160.97 434.354 160.653C434.7 160.331 434.873 159.906 434.873 159.379C434.873 158.102 434.17 157.463 432.764 157.463H431.419V155.477ZM482.545 158.184H483.995V160.231H482.545V163H480.005V160.231H474.758L474.644 158.632L479.979 150.203H482.545V158.184ZM477.175 158.184H480.005V153.666L479.838 153.956L477.175 158.184Z" fill="black"/>
<path d="M429.213 188.707L429.951 182.203H437.123V184.321H432.034L431.718 187.072C432.321 186.75 432.963 186.589 433.643 186.589C434.861 186.589 435.816 186.967 436.508 187.723C437.199 188.479 437.545 189.536 437.545 190.896C437.545 191.722 437.369 192.463 437.018 193.119C436.672 193.77 436.174 194.276 435.523 194.64C434.873 194.997 434.105 195.176 433.221 195.176C432.447 195.176 431.729 195.021 431.067 194.71C430.405 194.394 429.881 193.951 429.494 193.383C429.113 192.814 428.911 192.167 428.888 191.44H431.401C431.454 191.974 431.639 192.39 431.955 192.688C432.277 192.981 432.696 193.128 433.212 193.128C433.786 193.128 434.229 192.923 434.539 192.513C434.85 192.097 435.005 191.511 435.005 190.755C435.005 190.028 434.826 189.472 434.469 189.085C434.111 188.698 433.604 188.505 432.948 188.505C432.345 188.505 431.855 188.663 431.48 188.979L431.234 189.208L429.213 188.707ZM481.921 182.071V184.163H481.675C480.526 184.181 479.601 184.479 478.897 185.06C478.2 185.64 477.781 186.445 477.641 187.477C478.32 186.785 479.179 186.439 480.216 186.439C481.329 186.439 482.214 186.838 482.87 187.635C483.526 188.432 483.854 189.48 483.854 190.781C483.854 191.613 483.673 192.366 483.31 193.04C482.952 193.714 482.442 194.238 481.78 194.613C481.124 194.988 480.38 195.176 479.548 195.176C478.2 195.176 477.11 194.707 476.278 193.77C475.452 192.832 475.039 191.581 475.039 190.017V189.103C475.039 187.714 475.3 186.489 475.821 185.429C476.349 184.362 477.102 183.539 478.08 182.959C479.064 182.373 480.204 182.077 481.499 182.071H481.921ZM479.442 188.479C479.032 188.479 478.66 188.587 478.326 188.804C477.992 189.015 477.746 189.296 477.588 189.647V190.421C477.588 191.271 477.755 191.936 478.089 192.416C478.423 192.891 478.892 193.128 479.495 193.128C480.04 193.128 480.479 192.914 480.813 192.486C481.153 192.053 481.323 191.493 481.323 190.808C481.323 190.11 481.153 189.548 480.813 189.12C480.474 188.692 480.017 188.479 479.442 188.479Z" fill="black"/>
<path d="M434.67 104H432.977V97.4727L430.955 98.0996V96.7227L434.488 95.457H434.67V104ZM482.143 104H476.295V102.84L479.055 99.8984C479.434 99.4844 479.713 99.123 479.893 98.8145C480.076 98.5059 480.168 98.2129 480.168 97.9355C480.168 97.5566 480.072 97.2598 479.881 97.0449C479.689 96.8262 479.416 96.7168 479.061 96.7168C478.678 96.7168 478.375 96.8496 478.152 97.1152C477.934 97.377 477.824 97.7227 477.824 98.1523H476.125C476.125 97.6328 476.248 97.1582 476.494 96.7285C476.744 96.2988 477.096 95.9629 477.549 95.7207C478.002 95.4746 478.516 95.3516 479.09 95.3516C479.969 95.3516 480.65 95.5625 481.135 95.9844C481.623 96.4062 481.867 97.002 481.867 97.7715C481.867 98.1934 481.758 98.623 481.539 99.0605C481.32 99.498 480.945 100.008 480.414 100.59L478.475 102.635H482.143V104Z" fill="#BB6BD9"/>
<path d="M404.693 124H403V117.473L400.979 118.1V116.723L404.512 115.457H404.693V124Z" fill="#BB6BD9"/>
<path d="M406.428 158H400.58V156.84L403.34 153.898C403.719 153.484 403.998 153.123 404.178 152.814C404.361 152.506 404.453 152.213 404.453 151.936C404.453 151.557 404.357 151.26 404.166 151.045C403.975 150.826 403.701 150.717 403.346 150.717C402.963 150.717 402.66 150.85 402.438 151.115C402.219 151.377 402.109 151.723 402.109 152.152H400.41C400.41 151.633 400.533 151.158 400.779 150.729C401.029 150.299 401.381 149.963 401.834 149.721C402.287 149.475 402.801 149.352 403.375 149.352C404.254 149.352 404.936 149.562 405.42 149.984C405.908 150.406 406.152 151.002 406.152 151.771C406.152 152.193 406.043 152.623 405.824 153.061C405.605 153.498 405.23 154.008 404.699 154.59L402.76 156.635H406.428V158Z" fill="#BB6BD9"/>
<path d="M402.303 184.984H403.205C403.635 184.984 403.953 184.877 404.16 184.662C404.367 184.447 404.471 184.162 404.471 183.807C404.471 183.463 404.367 183.195 404.16 183.004C403.957 182.812 403.676 182.717 403.316 182.717C402.992 182.717 402.721 182.807 402.502 182.986C402.283 183.162 402.174 183.393 402.174 183.678H400.48C400.48 183.232 400.6 182.834 400.838 182.482C401.08 182.127 401.416 181.85 401.846 181.65C402.279 181.451 402.756 181.352 403.275 181.352C404.178 181.352 404.885 181.568 405.396 182.002C405.908 182.432 406.164 183.025 406.164 183.783C406.164 184.174 406.045 184.533 405.807 184.861C405.568 185.189 405.256 185.441 404.869 185.617C405.35 185.789 405.707 186.047 405.941 186.391C406.18 186.734 406.299 187.141 406.299 187.609C406.299 188.367 406.021 188.975 405.467 189.432C404.916 189.889 404.186 190.117 403.275 190.117C402.424 190.117 401.727 189.893 401.184 189.443C400.645 188.994 400.375 188.4 400.375 187.662H402.068C402.068 187.982 402.188 188.244 402.426 188.447C402.668 188.65 402.965 188.752 403.316 188.752C403.719 188.752 404.033 188.646 404.26 188.436C404.49 188.221 404.605 187.938 404.605 187.586C404.605 186.734 404.137 186.309 403.199 186.309H402.303V184.984Z" fill="#BB6BD9"/>
<path d="M406.45 38.0581L402.762 36.7695V35.0049L408.291 37.3218V38.8135L402.762 41.1367V39.3657L406.45 38.0581ZM418.917 42H412.582V40.7432L415.571 37.5566C415.982 37.1081 416.284 36.7166 416.479 36.3823C416.678 36.048 416.777 35.7306 416.777 35.4302C416.777 35.0197 416.674 34.6981 416.466 34.4653C416.259 34.2284 415.963 34.1099 415.578 34.1099C415.163 34.1099 414.835 34.2537 414.594 34.5415C414.357 34.825 414.238 35.1995 414.238 35.665H412.397C412.397 35.1022 412.531 34.5881 412.797 34.1226C413.068 33.6571 413.449 33.2931 413.94 33.0308C414.431 32.7642 414.987 32.6309 415.609 32.6309C416.562 32.6309 417.3 32.8594 417.825 33.3164C418.354 33.7734 418.618 34.4188 418.618 35.2524C418.618 35.7095 418.5 36.175 418.263 36.6489C418.026 37.1229 417.619 37.6751 417.044 38.3057L414.943 40.521H418.917V42ZM423.48 42V32.7578H426.324C427.137 32.7578 427.862 32.9419 428.501 33.3101C429.145 33.674 429.646 34.1945 430.006 34.8716C430.366 35.5444 430.545 36.3104 430.545 37.1694V37.5947C430.545 38.4538 430.368 39.2176 430.012 39.8862C429.661 40.5549 429.164 41.0732 428.521 41.4414C427.877 41.8096 427.152 41.9958 426.343 42H423.48ZM425.385 34.3003V40.4702H426.305C427.05 40.4702 427.619 40.2269 428.013 39.7402C428.406 39.2536 428.607 38.5575 428.616 37.6519V37.1631C428.616 36.2236 428.421 35.5127 428.032 35.0303C427.642 34.5436 427.073 34.3003 426.324 34.3003H425.385ZM433.751 42H431.91V35.1318H433.751V42ZM431.802 33.3545C431.802 33.0794 431.893 32.853 432.075 32.6753C432.261 32.4976 432.513 32.4087 432.831 32.4087C433.144 32.4087 433.393 32.4976 433.58 32.6753C433.766 32.853 433.859 33.0794 433.859 33.3545C433.859 33.6338 433.764 33.8623 433.573 34.04C433.387 34.2178 433.139 34.3066 432.831 34.3066C432.522 34.3066 432.272 34.2178 432.082 34.04C431.895 33.8623 431.802 33.6338 431.802 33.3545ZM436.988 35.1318L437.045 35.8999C437.532 35.3032 438.19 35.0049 439.02 35.0049C439.904 35.0049 440.511 35.354 440.841 36.0522C441.324 35.354 442.011 35.0049 442.904 35.0049C443.649 35.0049 444.203 35.2228 444.567 35.6587C444.931 36.0903 445.113 36.742 445.113 37.6138V42H443.272V37.6201C443.272 37.2308 443.196 36.9473 443.044 36.7695C442.892 36.5876 442.623 36.4966 442.238 36.4966C441.688 36.4966 441.307 36.759 441.095 37.2837L441.102 42H439.267V37.6265C439.267 37.2287 439.189 36.9409 439.032 36.7632C438.876 36.5854 438.609 36.4966 438.232 36.4966C437.712 36.4966 437.335 36.7124 437.103 37.144V42H435.268V35.1318H436.988ZM449.69 42.127C448.683 42.127 447.862 41.818 447.227 41.2002C446.597 40.5824 446.281 39.7593 446.281 38.731V38.5532C446.281 37.8634 446.415 37.2477 446.681 36.7061C446.948 36.1602 447.324 35.7412 447.811 35.4492C448.302 35.153 448.861 35.0049 449.487 35.0049C450.426 35.0049 451.165 35.3011 451.702 35.8936C452.244 36.486 452.515 37.326 452.515 38.4136V39.1626H448.141C448.2 39.6112 448.378 39.9709 448.674 40.2417C448.975 40.5125 449.354 40.6479 449.811 40.6479C450.517 40.6479 451.069 40.3919 451.467 39.8799L452.369 40.8892C452.094 41.2785 451.721 41.5832 451.251 41.8032C450.782 42.019 450.261 42.127 449.69 42.127ZM449.48 36.4902C449.117 36.4902 448.82 36.613 448.592 36.8584C448.368 37.1038 448.224 37.4551 448.16 37.9121H450.712V37.7661C450.703 37.3599 450.593 37.0467 450.382 36.8267C450.17 36.6024 449.87 36.4902 449.48 36.4902ZM455.25 35.1318L455.308 35.9253C455.799 35.3117 456.457 35.0049 457.282 35.0049C458.01 35.0049 458.551 35.2186 458.907 35.646C459.262 36.0734 459.444 36.7124 459.453 37.563V42H457.618V37.6074C457.618 37.2181 457.534 36.9367 457.364 36.7632C457.195 36.5854 456.914 36.4966 456.52 36.4966C456.004 36.4966 455.617 36.7166 455.358 37.1567V42H453.524V35.1318H455.25ZM464.569 40.1021C464.569 39.8778 464.457 39.7021 464.232 39.5752C464.012 39.444 463.657 39.3276 463.166 39.2261C461.533 38.8833 460.716 38.1893 460.716 37.144C460.716 36.5347 460.968 36.0269 461.471 35.6206C461.979 35.2101 462.641 35.0049 463.458 35.0049C464.33 35.0049 465.026 35.2101 465.546 35.6206C466.071 36.0311 466.333 36.5643 466.333 37.2202H464.499C464.499 36.9578 464.414 36.742 464.245 36.5728C464.076 36.3993 463.811 36.3125 463.452 36.3125C463.143 36.3125 462.904 36.3823 462.734 36.522C462.565 36.6616 462.48 36.8394 462.48 37.0552C462.48 37.2583 462.576 37.4233 462.766 37.5503C462.961 37.673 463.287 37.7809 463.744 37.874C464.201 37.9629 464.586 38.0645 464.899 38.1787C465.868 38.5342 466.353 39.1499 466.353 40.0259C466.353 40.6522 466.084 41.16 465.546 41.5493C465.009 41.9344 464.315 42.127 463.464 42.127C462.889 42.127 462.377 42.0254 461.928 41.8223C461.484 41.6149 461.135 41.3335 460.881 40.978C460.627 40.6183 460.5 40.2311 460.5 39.8164H462.239C462.256 40.1423 462.377 40.3919 462.601 40.5654C462.825 40.7389 463.126 40.8257 463.502 40.8257C463.854 40.8257 464.118 40.7601 464.296 40.6289C464.478 40.4935 464.569 40.3179 464.569 40.1021ZM469.476 42H467.635V35.1318H469.476V42ZM467.527 33.3545C467.527 33.0794 467.618 32.853 467.8 32.6753C467.986 32.4976 468.238 32.4087 468.555 32.4087C468.868 32.4087 469.118 32.4976 469.304 32.6753C469.49 32.853 469.583 33.0794 469.583 33.3545C469.583 33.6338 469.488 33.8623 469.298 34.04C469.112 34.2178 468.864 34.3066 468.555 34.3066C468.246 34.3066 467.997 34.2178 467.806 34.04C467.62 33.8623 467.527 33.6338 467.527 33.3545ZM470.707 38.5024C470.707 37.8211 470.838 37.2139 471.101 36.6807C471.363 36.1475 471.74 35.7349 472.23 35.4429C472.726 35.1509 473.299 35.0049 473.951 35.0049C474.877 35.0049 475.633 35.2884 476.217 35.8555C476.805 36.4225 477.133 37.1927 477.201 38.166L477.213 38.6357C477.213 39.6895 476.919 40.5358 476.331 41.1748C475.743 41.8096 474.954 42.127 473.963 42.127C472.973 42.127 472.182 41.8096 471.589 41.1748C471.001 40.54 470.707 39.6768 470.707 38.585V38.5024ZM472.542 38.6357C472.542 39.2874 472.664 39.7868 472.91 40.1338C473.155 40.4766 473.506 40.6479 473.963 40.6479C474.408 40.6479 474.755 40.4787 475.004 40.1401C475.254 39.7974 475.379 39.2515 475.379 38.5024C475.379 37.8634 475.254 37.3683 475.004 37.0171C474.755 36.6659 474.403 36.4902 473.951 36.4902C473.502 36.4902 473.155 36.6659 472.91 37.0171C472.664 37.3641 472.542 37.9036 472.542 38.6357ZM480.032 35.1318L480.089 35.9253C480.58 35.3117 481.238 35.0049 482.063 35.0049C482.791 35.0049 483.333 35.2186 483.688 35.646C484.043 36.0734 484.225 36.7124 484.234 37.563V42H482.399V37.6074C482.399 37.2181 482.315 36.9367 482.146 36.7632C481.976 36.5854 481.695 36.4966 481.301 36.4966C480.785 36.4966 480.398 36.7166 480.14 37.1567V42H478.305V35.1318H480.032ZM489.35 40.1021C489.35 39.8778 489.238 39.7021 489.014 39.5752C488.794 39.444 488.438 39.3276 487.947 39.2261C486.314 38.8833 485.497 38.1893 485.497 37.144C485.497 36.5347 485.749 36.0269 486.252 35.6206C486.76 35.2101 487.423 35.0049 488.239 35.0049C489.111 35.0049 489.807 35.2101 490.328 35.6206C490.852 36.0311 491.115 36.5643 491.115 37.2202H489.28C489.28 36.9578 489.196 36.742 489.026 36.5728C488.857 36.3993 488.593 36.3125 488.233 36.3125C487.924 36.3125 487.685 36.3823 487.516 36.522C487.346 36.6616 487.262 36.8394 487.262 37.0552C487.262 37.2583 487.357 37.4233 487.547 37.5503C487.742 37.673 488.068 37.7809 488.525 37.874C488.982 37.9629 489.367 38.0645 489.68 38.1787C490.649 38.5342 491.134 39.1499 491.134 40.0259C491.134 40.6522 490.865 41.16 490.328 41.5493C489.79 41.9344 489.096 42.127 488.246 42.127C487.67 42.127 487.158 42.0254 486.709 41.8223C486.265 41.6149 485.916 41.3335 485.662 40.978C485.408 40.6183 485.281 40.2311 485.281 39.8164H487.021C487.037 40.1423 487.158 40.3919 487.382 40.5654C487.607 40.7389 487.907 40.8257 488.284 40.8257C488.635 40.8257 488.899 40.7601 489.077 40.6289C489.259 40.4935 489.35 40.3179 489.35 40.1021ZM406.45 53.0581L402.762 51.7695V50.0049L408.291 52.3218V53.8135L402.762 56.1367V54.3657L406.45 53.0581ZM417.571 54.5752C417.571 54.2155 417.444 53.9404 417.19 53.75C416.936 53.5553 416.479 53.3522 415.819 53.1406C415.159 52.9248 414.636 52.7132 414.251 52.5059C413.201 51.9388 412.677 51.175 412.677 50.2144C412.677 49.715 412.816 49.2707 413.096 48.8813C413.379 48.4878 413.783 48.181 414.308 47.9609C414.837 47.7409 415.43 47.6309 416.085 47.6309C416.746 47.6309 417.334 47.7515 417.85 47.9927C418.366 48.2297 418.766 48.5661 419.05 49.002C419.338 49.4378 419.481 49.9329 419.481 50.4873H417.577C417.577 50.0641 417.444 49.7362 417.177 49.5034C416.911 49.2664 416.536 49.1479 416.054 49.1479C415.588 49.1479 415.226 49.2474 414.968 49.4463C414.71 49.641 414.581 49.8991 414.581 50.2207C414.581 50.5212 414.731 50.7729 415.032 50.9761C415.336 51.1792 415.783 51.3696 416.371 51.5474C417.454 51.8732 418.244 52.2773 418.739 52.7598C419.234 53.2422 419.481 53.8431 419.481 54.5625C419.481 55.3623 419.179 55.9907 418.574 56.4478C417.969 56.9006 417.154 57.127 416.13 57.127C415.419 57.127 414.771 56.9979 414.188 56.7397C413.604 56.4774 413.157 56.1198 412.848 55.667C412.543 55.2142 412.391 54.6895 412.391 54.0928H414.302C414.302 55.1126 414.911 55.6226 416.13 55.6226C416.583 55.6226 416.936 55.5316 417.19 55.3496C417.444 55.1634 417.571 54.9053 417.571 54.5752ZM424.636 57C424.551 56.835 424.49 56.6297 424.452 56.3843C424.007 56.8794 423.43 57.127 422.719 57.127C422.046 57.127 421.487 56.9323 421.043 56.543C420.603 56.1536 420.383 55.6628 420.383 55.0703C420.383 54.3424 420.652 53.7839 421.189 53.3945C421.731 53.0052 422.511 52.8084 423.531 52.8042H424.375V52.4106C424.375 52.0933 424.293 51.8394 424.128 51.6489C423.967 51.4585 423.711 51.3633 423.36 51.3633C423.051 51.3633 422.808 51.4373 422.63 51.5854C422.456 51.7336 422.37 51.9367 422.37 52.1948H420.535C420.535 51.797 420.658 51.4289 420.903 51.0903C421.149 50.7518 421.496 50.4873 421.944 50.2969C422.393 50.1022 422.896 50.0049 423.455 50.0049C424.301 50.0049 424.972 50.2186 425.467 50.646C425.967 51.0692 426.216 51.6659 426.216 52.436V55.4131C426.221 56.0648 426.312 56.5578 426.489 56.8921V57H424.636ZM423.119 55.7241C423.389 55.7241 423.639 55.6649 423.868 55.5464C424.096 55.4237 424.265 55.2607 424.375 55.0576V53.877H423.69C422.772 53.877 422.283 54.1943 422.224 54.8291L422.217 54.937C422.217 55.1655 422.298 55.3538 422.458 55.502C422.619 55.6501 422.839 55.7241 423.119 55.7241ZM429.346 50.1318L429.403 50.8999C429.889 50.3032 430.548 50.0049 431.377 50.0049C432.261 50.0049 432.869 50.354 433.199 51.0522C433.681 50.354 434.369 50.0049 435.262 50.0049C436.007 50.0049 436.561 50.2228 436.925 50.6587C437.289 51.0903 437.471 51.742 437.471 52.6138V57H435.63V52.6201C435.63 52.2308 435.554 51.9473 435.401 51.7695C435.249 51.5876 434.98 51.4966 434.595 51.4966C434.045 51.4966 433.664 51.759 433.453 52.2837L433.459 57H431.625V52.6265C431.625 52.2287 431.546 51.9409 431.39 51.7632C431.233 51.5854 430.966 51.4966 430.59 51.4966C430.069 51.4966 429.693 51.7124 429.46 52.144V57H427.625V50.1318H429.346ZM442.047 57.127C441.04 57.127 440.219 56.818 439.584 56.2002C438.954 55.5824 438.639 54.7593 438.639 53.731V53.5532C438.639 52.8634 438.772 52.2477 439.039 51.7061C439.305 51.1602 439.682 50.7412 440.168 50.4492C440.659 50.153 441.218 50.0049 441.844 50.0049C442.784 50.0049 443.522 50.3011 444.06 50.8936C444.601 51.486 444.872 52.326 444.872 53.4136V54.1626H440.499C440.558 54.6112 440.736 54.9709 441.032 55.2417C441.332 55.5125 441.711 55.6479 442.168 55.6479C442.875 55.6479 443.427 55.3919 443.825 54.8799L444.726 55.8892C444.451 56.2785 444.079 56.5832 443.609 56.8032C443.139 57.019 442.619 57.127 442.047 57.127ZM441.838 51.4902C441.474 51.4902 441.178 51.613 440.949 51.8584C440.725 52.1038 440.581 52.4551 440.518 52.9121H443.069V52.7661C443.061 52.3599 442.951 52.0467 442.739 51.8267C442.528 51.6024 442.227 51.4902 441.838 51.4902ZM455.854 49.3003H453.022V57H451.118V49.3003H448.325V47.7578H455.854V49.3003ZM458.869 54.4038L460.138 50.1318H462.106L459.345 58.0664L459.192 58.4282C458.782 59.3254 458.105 59.7739 457.161 59.7739C456.895 59.7739 456.624 59.7337 456.349 59.6533V58.2632L456.628 58.2695C456.975 58.2695 457.233 58.2166 457.402 58.1108C457.576 58.005 457.711 57.8294 457.809 57.584L458.024 57.019L455.619 50.1318H457.593L458.869 54.4038ZM469.012 53.6294C469.012 54.6873 468.771 55.5358 468.289 56.1748C467.81 56.8096 467.163 57.127 466.346 57.127C465.652 57.127 465.091 56.8857 464.664 56.4033V59.6406H462.83V50.1318H464.531L464.594 50.8047C465.039 50.2715 465.618 50.0049 466.333 50.0049C467.18 50.0049 467.838 50.318 468.308 50.9443C468.777 51.5706 469.012 52.4339 469.012 53.5342V53.6294ZM467.178 53.4961C467.178 52.8571 467.063 52.3641 466.835 52.0171C466.611 51.6701 466.283 51.4966 465.851 51.4966C465.276 51.4966 464.88 51.7166 464.664 52.1567V54.9688C464.888 55.4215 465.288 55.6479 465.864 55.6479C466.74 55.6479 467.178 54.9307 467.178 53.4961ZM473.316 57.127C472.309 57.127 471.488 56.818 470.853 56.2002C470.222 55.5824 469.907 54.7593 469.907 53.731V53.5532C469.907 52.8634 470.041 52.2477 470.307 51.7061C470.574 51.1602 470.95 50.7412 471.437 50.4492C471.928 50.153 472.486 50.0049 473.113 50.0049C474.052 50.0049 474.791 50.3011 475.328 50.8936C475.87 51.486 476.141 52.326 476.141 53.4136V54.1626H471.767C471.826 54.6112 472.004 54.9709 472.3 55.2417C472.601 55.5125 472.979 55.6479 473.437 55.6479C474.143 55.6479 474.695 55.3919 475.093 54.8799L475.995 55.8892C475.72 56.2785 475.347 56.5832 474.877 56.8032C474.408 57.019 473.887 57.127 473.316 57.127ZM473.106 51.4902C472.743 51.4902 472.446 51.613 472.218 51.8584C471.993 52.1038 471.85 52.4551 471.786 52.9121H474.338V52.7661C474.329 52.3599 474.219 52.0467 474.008 51.8267C473.796 51.6024 473.496 51.4902 473.106 51.4902Z" fill="#9B51E0"/>
<line x1="397.5" y1="33" x2="397.5" y2="60" stroke="#9B51E0" stroke-width="3"/>
<path d="M402.117 8.9375L406.5 21.3125L410.859 8.9375H415.477V26H411.949V21.3359L412.301 13.2852L407.695 26H405.281L400.688 13.2969L401.039 21.3359V26H397.523V8.9375H402.117ZM425.672 26C425.516 25.6953 425.402 25.3164 425.332 24.8633C424.512 25.7773 423.445 26.2344 422.133 26.2344C420.891 26.2344 419.859 25.875 419.039 25.1562C418.227 24.4375 417.82 23.5312 417.82 22.4375C417.82 21.0938 418.316 20.0625 419.309 19.3438C420.309 18.625 421.75 18.2617 423.633 18.2539H425.191V17.5273C425.191 16.9414 425.039 16.4727 424.734 16.1211C424.438 15.7695 423.965 15.5938 423.316 15.5938C422.746 15.5938 422.297 15.7305 421.969 16.0039C421.648 16.2773 421.488 16.6523 421.488 17.1289H418.102C418.102 16.3945 418.328 15.7148 418.781 15.0898C419.234 14.4648 419.875 13.9766 420.703 13.625C421.531 13.2656 422.461 13.0859 423.492 13.0859C425.055 13.0859 426.293 13.4805 427.207 14.2695C428.129 15.0508 428.59 16.1523 428.59 17.5742V23.0703C428.598 24.2734 428.766 25.1836 429.094 25.8008V26H425.672ZM422.871 23.6445C423.371 23.6445 423.832 23.5352 424.254 23.3164C424.676 23.0898 424.988 22.7891 425.191 22.4141V20.2344H423.926C422.23 20.2344 421.328 20.8203 421.219 21.9922L421.207 22.1914C421.207 22.6133 421.355 22.9609 421.652 23.2344C421.949 23.5078 422.355 23.6445 422.871 23.6445ZM435.246 10.2031V13.3203H437.414V15.8047H435.246V22.1328C435.246 22.6016 435.336 22.9375 435.516 23.1406C435.695 23.3438 436.039 23.4453 436.547 23.4453C436.922 23.4453 437.254 23.418 437.543 23.3633V25.9297C436.879 26.1328 436.195 26.2344 435.492 26.2344C433.117 26.2344 431.906 25.0352 431.859 22.6367V15.8047H430.008V13.3203H431.859V10.2031H435.246ZM446.426 16.4961C445.965 16.4336 445.559 16.4023 445.207 16.4023C443.926 16.4023 443.086 16.8359 442.688 17.7031V26H439.301V13.3203H442.5L442.594 14.832C443.273 13.668 444.215 13.0859 445.418 13.0859C445.793 13.0859 446.145 13.1367 446.473 13.2383L446.426 16.4961ZM451.641 26H448.242V13.3203H451.641V26ZM448.043 10.0391C448.043 9.53125 448.211 9.11328 448.547 8.78516C448.891 8.45703 449.355 8.29297 449.941 8.29297C450.52 8.29297 450.98 8.45703 451.324 8.78516C451.668 9.11328 451.84 9.53125 451.84 10.0391C451.84 10.5547 451.664 10.9766 451.312 11.3047C450.969 11.6328 450.512 11.7969 449.941 11.7969C449.371 11.7969 448.91 11.6328 448.559 11.3047C448.215 10.9766 448.043 10.5547 448.043 10.0391ZM459.27 17.1055L461.402 13.3203H465.023L461.414 19.5312L465.176 26H461.543L459.281 22.0156L457.031 26H453.387L457.148 19.5312L453.551 13.3203H457.184L459.27 17.1055Z" fill="black"/>
<g opacity="0.4">
<path d="M240.5 247.5L240.5 359L402 359" stroke="#EB5757" stroke-width="2" stroke-dasharray="2 2"/>
<path d="M399 353.985L405.205 359L399 364.015V353.985Z" fill="#EB5757" stroke="#EB5757"/>
<path d="M151 247.5L151 329L397.5 329" stroke="#9B51E0" stroke-width="2" stroke-dasharray="2 2"/>
<path d="M399 323.985L405.205 329L399 334.015V323.985Z" fill="#9B51E0" stroke="#9B51E0"/>
<path d="M58 247.5L58 295L404.5 295" stroke="#F2994A" stroke-width="2" stroke-dasharray="2 2"/>
<path d="M399 289.985L405.205 295L399 300.015V289.985Z" fill="#F2994A" stroke="#F2994A"/>
<path d="M218 178V68.5H286H358.5H479V88.4957" stroke="#219653" stroke-width="2" stroke-dasharray="2 2"/>
<path d="M483.982 85.1869L479 91.0556L474.018 85.1869H483.982Z" fill="#219653" stroke="#219653"/>
<path d="M81.0001 178.5L81.0001 161.5L81 80.5L433.5 80.5L433.5 90.5" stroke="black" stroke-width="2" stroke-dasharray="2 2"/>
<path d="M439.015 86L434 92.2046L428.985 86H439.015Z" fill="black" stroke="black"/>
</g>
<path d="M371.49 168.101C371.546 167.831 371.372 167.566 371.101 167.51L366.694 166.6C366.424 166.544 366.159 166.718 366.103 166.988C366.048 167.259 366.221 167.523 366.492 167.579L370.409 168.388L369.6 172.306C369.544 172.576 369.718 172.841 369.988 172.897C370.259 172.952 370.523 172.779 370.579 172.508L371.49 168.101ZM298.275 216.418L371.275 168.418L370.725 167.582L297.725 215.582L298.275 216.418Z" fill="black"/>
<path d="M371.049 276.498C371.323 276.471 371.524 276.226 371.498 275.951L371.06 271.473C371.033 271.198 370.788 270.997 370.514 271.024C370.239 271.051 370.038 271.295 370.065 271.57L370.454 275.551L366.473 275.94C366.198 275.967 365.997 276.212 366.024 276.486C366.051 276.761 366.295 276.962 366.57 276.935L371.049 276.498ZM297.683 216.386L370.683 276.386L371.317 275.614L298.317 215.614L297.683 216.386Z" fill="black"/>
<path d="M308.484 198.658C309.009 199.472 309.245 200.247 309.191 200.984C309.134 201.718 308.791 202.289 308.161 202.695C307.488 203.13 306.815 203.228 306.14 202.989L306.493 203.633L305.656 204.174L300.774 196.613L301.685 196.025L303.506 198.845C303.579 198.152 303.939 197.596 304.585 197.179C305.232 196.761 305.896 196.679 306.58 196.93C307.266 197.18 307.884 197.729 308.433 198.579L308.484 198.658ZM307.506 199.143C307.106 198.523 306.677 198.121 306.219 197.937C305.761 197.754 305.307 197.808 304.858 198.098C304.257 198.486 304.006 199.043 304.103 199.771L305.591 202.074C306.23 202.452 306.845 202.45 307.436 202.069C307.872 201.787 308.103 201.399 308.127 200.904C308.152 200.409 307.945 199.822 307.506 199.143ZM312.139 198.097L310.802 193.304L311.776 192.675L313.605 200.206C313.846 201.306 313.605 202.089 312.883 202.555L312.701 202.651L312.32 202.807L311.844 202.068L312.102 201.929C312.411 201.73 312.61 201.513 312.7 201.278C312.794 201.041 312.789 200.721 312.687 200.317L312.539 199.646L307.238 195.605L308.232 194.963L312.139 198.097ZM320.253 193.834C320.578 193.625 320.798 193.343 320.914 192.989C321.03 192.635 321.005 192.302 320.841 191.99L321.702 191.434C321.883 191.75 321.965 192.108 321.95 192.509C321.934 192.909 321.817 193.297 321.598 193.67C321.382 194.042 321.094 194.345 320.733 194.578C320.008 195.046 319.274 195.178 318.533 194.973C317.793 194.763 317.151 194.238 316.609 193.397L316.51 193.245C316.176 192.726 315.973 192.204 315.903 191.677C315.833 191.151 315.903 190.662 316.113 190.21C316.326 189.755 316.676 189.372 317.162 189.058C317.759 188.672 318.37 188.531 318.995 188.635C319.623 188.736 320.134 189.064 320.529 189.618L319.668 190.174C319.419 189.846 319.106 189.649 318.727 189.581C318.35 189.509 317.989 189.584 317.645 189.806C317.182 190.105 316.931 190.504 316.891 191.004C316.852 191.499 317.037 192.061 317.443 192.691L317.555 192.864C317.951 193.477 318.382 193.868 318.849 194.036C319.316 194.205 319.784 194.137 320.253 193.834ZM321.817 189.895C321.48 189.373 321.279 188.838 321.213 188.29C321.151 187.74 321.229 187.234 321.447 186.772C321.668 186.308 322.014 185.925 322.483 185.622C323.208 185.154 323.956 185.027 324.726 185.24C325.5 185.452 326.156 185.975 326.694 186.808L326.736 186.872C327.071 187.391 327.271 187.921 327.338 188.464C327.406 189.002 327.329 189.505 327.106 189.974C326.887 190.441 326.538 190.829 326.059 191.139C325.337 191.605 324.589 191.732 323.815 191.52C323.045 191.306 322.393 190.786 321.859 189.959L321.817 189.895ZM322.803 189.412C323.184 190.003 323.627 190.389 324.13 190.571C324.637 190.75 325.12 190.692 325.579 190.395C326.042 190.097 326.293 189.679 326.332 189.142C326.369 188.602 326.177 188.005 325.755 187.352C325.378 186.768 324.933 186.385 324.421 186.205C323.911 186.018 323.425 186.074 322.966 186.37C322.516 186.661 322.269 187.074 322.225 187.609C322.18 188.145 322.373 188.746 322.803 189.412ZM330.549 188.1L329.638 188.688L324.756 181.127L325.666 180.539L330.549 188.1ZM334.959 184.506C334.873 185.152 334.488 185.696 333.802 186.139C333.234 186.505 332.695 186.621 332.184 186.486C331.675 186.345 331.21 185.952 330.789 185.308L328.552 181.843L329.462 181.255L331.684 184.695C332.205 185.503 332.794 185.694 333.45 185.271C334.146 184.821 334.441 184.263 334.336 183.597L331.835 179.723L332.746 179.135L336.185 184.461L335.318 185.02L334.959 184.506ZM334.99 177.685L335.396 178.26C335.49 177.549 335.868 176.979 336.531 176.551C337.276 176.07 337.968 176.028 338.605 176.425C338.617 176.055 338.713 175.7 338.894 175.36C339.078 175.018 339.363 174.722 339.751 174.472C340.919 173.718 341.912 173.953 342.731 175.177L345.035 178.746L344.124 179.334L341.855 175.819C341.609 175.439 341.339 175.211 341.044 175.136C340.747 175.058 340.394 175.152 339.984 175.416C339.646 175.635 339.431 175.918 339.339 176.265C339.245 176.609 339.29 176.964 339.475 177.328L341.757 180.863L340.841 181.454L338.588 177.964C338.088 177.189 337.459 177.047 336.701 177.536C336.103 177.922 335.859 178.44 335.968 179.091L338.478 182.98L337.568 183.568L334.129 178.242L334.99 177.685ZM343.836 171.974L344.297 172.624C344.374 171.849 344.74 171.25 345.396 170.826C346.522 170.099 347.5 170.368 348.33 171.632L350.602 175.151L349.692 175.739L347.416 172.215C347.165 171.833 346.893 171.606 346.6 171.535C346.311 171.461 345.984 171.542 345.62 171.777C345.324 171.968 345.116 172.214 344.995 172.516C344.873 172.817 344.833 173.136 344.873 173.473L347.324 177.268L346.413 177.856L342.974 172.53L343.836 171.974Z" fill="black"/>
<path d="M316.492 241.272C315.886 242.028 315.225 242.496 314.508 242.678C313.794 242.857 313.145 242.711 312.559 242.242C311.935 241.741 311.629 241.133 311.642 240.418L311.142 240.956L310.365 240.333L315.995 233.311L316.84 233.989L314.74 236.608C315.421 236.458 316.062 236.624 316.662 237.105C317.263 237.587 317.552 238.191 317.529 238.919C317.509 239.649 317.183 240.409 316.55 241.199L316.492 241.272ZM315.723 240.498C316.185 239.922 316.43 239.387 316.459 238.895C316.488 238.403 316.294 237.989 315.877 237.655C315.319 237.208 314.71 237.145 314.051 237.468L312.336 239.608C312.18 240.333 312.376 240.916 312.925 241.356C313.33 241.681 313.771 241.777 314.248 241.644C314.726 241.511 315.217 241.129 315.723 240.498ZM318.179 244.562L322.304 241.778L323.209 242.504L316.643 246.62C315.675 247.196 314.856 247.215 314.186 246.677L314.037 246.535L313.769 246.223L314.319 245.537L314.532 245.739C314.819 245.969 315.088 246.089 315.339 246.1C315.594 246.114 315.896 246.008 316.246 245.784L316.837 245.431L318.994 239.125L319.917 239.865L318.179 244.562ZM328.073 247.65C327.962 247.526 327.832 247.404 327.682 247.284C327.128 246.839 326.562 246.774 325.985 247.087L323.171 250.599L322.325 249.921L326.29 244.974L327.113 245.634L326.669 246.216C327.3 245.996 327.871 246.091 328.38 246.499C328.544 246.631 328.652 246.752 328.703 246.863L328.073 247.65ZM327.201 249.692C327.59 249.207 328.034 248.847 328.533 248.612C329.035 248.379 329.54 248.293 330.047 248.353C330.557 248.417 331.03 248.623 331.466 248.973C332.139 249.513 332.496 250.182 332.537 250.98C332.581 251.781 332.292 252.569 331.672 253.343L331.624 253.403C331.238 253.884 330.798 254.242 330.304 254.477C329.816 254.712 329.314 254.798 328.799 254.735C328.286 254.675 327.808 254.466 327.363 254.109C326.692 253.572 326.335 252.903 326.291 252.101C326.251 251.303 326.538 250.52 327.154 249.752L327.201 249.692ZM327.971 250.474C327.531 251.023 327.305 251.565 327.291 252.1C327.281 252.637 327.489 253.077 327.916 253.419C328.346 253.764 328.821 253.87 329.343 253.737C329.867 253.602 330.373 253.231 330.859 252.624C331.294 252.082 331.516 251.539 331.526 250.996C331.541 250.452 331.335 250.01 330.908 249.667C330.491 249.333 330.021 249.229 329.499 249.356C328.976 249.483 328.467 249.856 327.971 250.474ZM336.06 259.017L340.042 255.998L340.888 256.676L335.482 260.468L334.796 259.918L336.599 255.206L332.424 258.016L331.738 257.467L334.268 251.369L335.109 252.044L333.114 256.527L337.235 253.748L337.916 254.294L336.06 259.017Z" fill="black"/>
<path d="M15 186V178H146V186" stroke="#828282"/>
<path d="M100 240V248H15V240" stroke="#F2994A"/>
<path d="M192 240V248H107V240" stroke="#9B51E0"/>
<path d="M284 240V248H199V240" stroke="#EB5757"/>
<path d="M153 186V178H284V186" stroke="#219653"/>
</g>
<defs>
<clipPath id="clip0">
<rect width="625" height="400" fill="white"/>
</clipPath>
</defs>
</svg>
