<svg width="517" height="313" viewBox="0 0 517 313" fill="none" xmlns="http://www.w3.org/2000/svg">
<g clip-path="url(#clip0)">
<rect width="517" height="313" fill="white"/>
<rect opacity="0.4" x="193" y="28" width="39" height="242" fill="#F2994A"/>
<rect opacity="0.4" x="147" y="28.3785" width="39" height="242.621" fill="#F2994A"/>
<rect opacity="0.4" x="101" y="28.3785" width="39" height="242.621" fill="#F2994A"/>
<rect x="102" y="46" width="37" height="24" fill="#56CCF2" stroke="black" stroke-width="2"/>
<rect x="102" y="125" width="37" height="24" fill="#56CCF2" stroke="black" stroke-width="2"/>
<rect x="102" y="203" width="37" height="24" fill="#56CCF2" stroke="black" stroke-width="2"/>
<rect x="102" y="246" width="37" height="24" fill="#F2994A" stroke="black" stroke-width="2"/>
<rect x="102" y="87" width="37" height="24" fill="#56CCF2" stroke="black" stroke-width="2"/>
<rect x="102" y="164" width="37" height="24" fill="#56CCF2" stroke="black" stroke-width="2"/>
<rect x="148" y="46" width="37" height="24" fill="#56CCF2" stroke="black" stroke-width="2"/>
<rect x="194" y="46" width="37" height="24" fill="#56CCF2" stroke="black" stroke-width="2"/>
<rect x="148" y="125" width="37" height="24" fill="#56CCF2" stroke="black" stroke-width="2"/>
<rect x="148" y="203" width="37" height="24" fill="#56CCF2" stroke="black" stroke-width="2"/>
<rect x="148" y="246" width="37" height="24" fill="#F2994A" stroke="black" stroke-width="2"/>
<rect x="194" y="125" width="37" height="24" fill="#56CCF2" stroke="black" stroke-width="2"/>
<rect x="194" y="203" width="37" height="24" fill="#56CCF2" stroke="black" stroke-width="2"/>
<rect x="194" y="246" width="37" height="24" fill="#F2994A" stroke="black" stroke-width="2"/>
<rect x="148" y="87" width="37" height="24" fill="#56CCF2" stroke="black" stroke-width="2"/>
<rect x="148" y="164" width="37" height="24" fill="#56CCF2" stroke="black" stroke-width="2"/>
<rect x="194" y="87" width="37" height="24" fill="#56CCF2" stroke="black" stroke-width="2"/>
<rect x="194" y="164" width="37" height="24" fill="#56CCF2" stroke="black" stroke-width="2"/>
<path d="M122.67 39H120.977V32.4727L118.955 33.0996V31.7227L122.488 30.457H122.67V39ZM170.143 39H164.295V37.8398L167.055 34.8984C167.434 34.4844 167.713 34.123 167.893 33.8145C168.076 33.5059 168.168 33.2129 168.168 32.9355C168.168 32.5566 168.072 32.2598 167.881 32.0449C167.689 31.8262 167.416 31.7168 167.061 31.7168C166.678 31.7168 166.375 31.8496 166.152 32.1152C165.934 32.377 165.824 32.7227 165.824 33.1523H164.125C164.125 32.6328 164.248 32.1582 164.494 31.7285C164.744 31.2988 165.096 30.9629 165.549 30.7207C166.002 30.4746 166.516 30.3516 167.09 30.3516C167.969 30.3516 168.65 30.5625 169.135 30.9844C169.623 31.4062 169.867 32.002 169.867 32.7715C169.867 33.1934 169.758 33.623 169.539 34.0605C169.32 34.498 168.945 35.0078 168.414 35.5898L166.475 37.6348H170.143V39ZM208.768 33.9844H209.67C210.1 33.9844 210.418 33.877 210.625 33.6621C210.832 33.4473 210.936 33.1621 210.936 32.8066C210.936 32.4629 210.832 32.1953 210.625 32.0039C210.422 31.8125 210.141 31.7168 209.781 31.7168C209.457 31.7168 209.186 31.8066 208.967 31.9863C208.748 32.1621 208.639 32.3926 208.639 32.6777H206.945C206.945 32.2324 207.064 31.834 207.303 31.4824C207.545 31.127 207.881 30.8496 208.311 30.6504C208.744 30.4512 209.221 30.3516 209.74 30.3516C210.643 30.3516 211.35 30.5684 211.861 31.002C212.373 31.4316 212.629 32.0254 212.629 32.7832C212.629 33.1738 212.51 33.5332 212.271 33.8613C212.033 34.1895 211.721 34.4414 211.334 34.6172C211.814 34.7891 212.172 35.0469 212.406 35.3906C212.645 35.7344 212.764 36.1406 212.764 36.6094C212.764 37.3672 212.486 37.9746 211.932 38.4316C211.381 38.8887 210.65 39.1172 209.74 39.1172C208.889 39.1172 208.191 38.8926 207.648 38.4434C207.109 37.9941 206.84 37.4004 206.84 36.6621H208.533C208.533 36.9824 208.652 37.2441 208.891 37.4473C209.133 37.6504 209.43 37.752 209.781 37.752C210.184 37.752 210.498 37.6465 210.725 37.4355C210.955 37.2207 211.07 36.9375 211.07 36.5859C211.07 35.7344 210.602 35.3086 209.664 35.3086H208.768V33.9844Z" fill="#BB6BD9"/>
<path d="M92.6934 59H91V52.4727L88.9785 53.0996V51.7227L92.5117 50.457H92.6934V59Z" fill="#BB6BD9"/>
<path d="M94.4277 102H88.5801V100.84L91.3398 97.8984C91.7188 97.4844 91.998 97.123 92.1777 96.8145C92.3613 96.5059 92.4531 96.2129 92.4531 95.9355C92.4531 95.5566 92.3574 95.2598 92.166 95.0449C91.9746 94.8262 91.7012 94.7168 91.3457 94.7168C90.9629 94.7168 90.6602 94.8496 90.4375 95.1152C90.2188 95.377 90.1094 95.7227 90.1094 96.1523H88.4102C88.4102 95.6328 88.5332 95.1582 88.7793 94.7285C89.0293 94.2988 89.3809 93.9629 89.834 93.7207C90.2871 93.4746 90.8008 93.3516 91.375 93.3516C92.2539 93.3516 92.9355 93.5625 93.4199 93.9844C93.9082 94.4062 94.1523 95.002 94.1523 95.7715C94.1523 96.1934 94.043 96.623 93.8242 97.0605C93.6055 97.498 93.2305 98.0078 92.6992 98.5898L90.7598 100.635H94.4277V102Z" fill="#BB6BD9"/>
<path d="M90.3027 134.984H91.2051C91.6348 134.984 91.9531 134.877 92.1602 134.662C92.3672 134.447 92.4707 134.162 92.4707 133.807C92.4707 133.463 92.3672 133.195 92.1602 133.004C91.957 132.812 91.6758 132.717 91.3164 132.717C90.9922 132.717 90.7207 132.807 90.502 132.986C90.2832 133.162 90.1738 133.393 90.1738 133.678H88.4805C88.4805 133.232 88.5996 132.834 88.8379 132.482C89.0801 132.127 89.416 131.85 89.8457 131.65C90.2793 131.451 90.7559 131.352 91.2754 131.352C92.1777 131.352 92.8848 131.568 93.3965 132.002C93.9082 132.432 94.1641 133.025 94.1641 133.783C94.1641 134.174 94.0449 134.533 93.8066 134.861C93.5684 135.189 93.2559 135.441 92.8691 135.617C93.3496 135.789 93.707 136.047 93.9414 136.391C94.1797 136.734 94.2988 137.141 94.2988 137.609C94.2988 138.367 94.0215 138.975 93.4668 139.432C92.916 139.889 92.1855 140.117 91.2754 140.117C90.4238 140.117 89.7266 139.893 89.1836 139.443C88.6445 138.994 88.375 138.4 88.375 137.662H90.0684C90.0684 137.982 90.1875 138.244 90.4258 138.447C90.668 138.65 90.9648 138.752 91.3164 138.752C91.7188 138.752 92.0332 138.646 92.2598 138.436C92.4902 138.221 92.6055 137.938 92.6055 137.586C92.6055 136.734 92.1367 136.309 91.1992 136.309H90.3027V134.984Z" fill="#BB6BD9"/>
<path d="M93.5898 175.789H94.5566V177.154H93.5898V179H91.8965V177.154H88.3984L88.3223 176.088L91.8789 170.469H93.5898V175.789ZM90.0098 175.789H91.8965V172.777L91.7852 172.971L90.0098 175.789Z" fill="#BB6BD9"/>
<path d="M88.832 212.805L89.3242 208.469H94.1055V209.881H90.7129L90.502 211.715C90.9043 211.5 91.332 211.393 91.7852 211.393C92.5977 211.393 93.2344 211.645 93.6953 212.148C94.1562 212.652 94.3867 213.357 94.3867 214.264C94.3867 214.814 94.2695 215.309 94.0352 215.746C93.8047 216.18 93.4727 216.518 93.0391 216.76C92.6055 216.998 92.0938 217.117 91.5039 217.117C90.9883 217.117 90.5098 217.014 90.0684 216.807C89.627 216.596 89.2773 216.301 89.0195 215.922C88.7656 215.543 88.6309 215.111 88.6152 214.627H90.291C90.3262 214.982 90.4492 215.26 90.6602 215.459C90.875 215.654 91.1543 215.752 91.498 215.752C91.8809 215.752 92.1758 215.615 92.3828 215.342C92.5898 215.064 92.6934 214.674 92.6934 214.17C92.6934 213.686 92.5742 213.314 92.3359 213.057C92.0977 212.799 91.7598 212.67 91.3223 212.67C90.9199 212.67 90.5938 212.775 90.3438 212.986L90.1797 213.139L88.832 212.805Z" fill="#BB6BD9"/>
<path d="M71 258H86" stroke="#F2994A" stroke-width="3"/>
<path d="M83.5 251.3L91.2362 258L83.5 264.7V251.3Z" fill="#F2994A" stroke="#F2994A"/>
<path d="M11.2871 261.752C11.5996 261.752 11.8535 261.666 12.0488 261.494C12.2441 261.322 12.3457 261.094 12.3535 260.809H13.9414C13.9375 261.238 13.8203 261.633 13.5898 261.992C13.3594 262.348 13.043 262.625 12.6406 262.824C12.2422 263.02 11.8008 263.117 11.3164 263.117C10.4102 263.117 9.69531 262.83 9.17188 262.256C8.64844 261.678 8.38672 260.881 8.38672 259.865V259.754C8.38672 258.777 8.64648 257.998 9.16602 257.416C9.68555 256.834 10.3984 256.543 11.3047 256.543C12.0977 256.543 12.7324 256.77 13.209 257.223C13.6895 257.672 13.9336 258.271 13.9414 259.021H12.3535C12.3457 258.693 12.2441 258.428 12.0488 258.225C11.8535 258.018 11.5957 257.914 11.2754 257.914C10.8809 257.914 10.582 258.059 10.3789 258.348C10.1797 258.633 10.0801 259.098 10.0801 259.742V259.918C10.0801 260.57 10.1797 261.039 10.3789 261.324C10.5781 261.609 10.8809 261.752 11.2871 261.752ZM14.6445 259.771C14.6445 259.143 14.7656 258.582 15.0078 258.09C15.25 257.598 15.5977 257.217 16.0508 256.947C16.5078 256.678 17.0371 256.543 17.6387 256.543C18.4941 256.543 19.1914 256.805 19.7305 257.328C20.2734 257.852 20.5762 258.562 20.6387 259.461L20.6504 259.895C20.6504 260.867 20.3789 261.648 19.8359 262.238C19.293 262.824 18.5645 263.117 17.6504 263.117C16.7363 263.117 16.0059 262.824 15.459 262.238C14.916 261.652 14.6445 260.855 14.6445 259.848V259.771ZM16.3379 259.895C16.3379 260.496 16.4512 260.957 16.6777 261.277C16.9043 261.594 17.2285 261.752 17.6504 261.752C18.0605 261.752 18.3809 261.596 18.6113 261.283C18.8418 260.967 18.957 260.463 18.957 259.771C18.957 259.182 18.8418 258.725 18.6113 258.4C18.3809 258.076 18.0566 257.914 17.6387 257.914C17.2246 257.914 16.9043 258.076 16.6777 258.4C16.4512 258.721 16.3379 259.219 16.3379 259.895ZM23.4805 263H21.7812V254H23.4805V263ZM29.416 260.762C29.416 260.43 29.2988 260.176 29.0645 260C28.8301 259.82 28.4082 259.633 27.7988 259.438C27.1895 259.238 26.707 259.043 26.3516 258.852C25.3828 258.328 24.8984 257.623 24.8984 256.736C24.8984 256.275 25.0273 255.865 25.2852 255.506C25.5469 255.143 25.9199 254.859 26.4043 254.656C26.8926 254.453 27.4395 254.352 28.0449 254.352C28.6543 254.352 29.1973 254.463 29.6738 254.686C30.1504 254.904 30.5195 255.215 30.7812 255.617C31.0469 256.02 31.1797 256.477 31.1797 256.988H29.4219C29.4219 256.598 29.2988 256.295 29.0527 256.08C28.8066 255.861 28.4609 255.752 28.0156 255.752C27.5859 255.752 27.252 255.844 27.0137 256.027C26.7754 256.207 26.6562 256.445 26.6562 256.742C26.6562 257.02 26.7949 257.252 27.0723 257.439C27.3535 257.627 27.7656 257.803 28.3086 257.967C29.3086 258.268 30.0371 258.641 30.4941 259.086C30.9512 259.531 31.1797 260.086 31.1797 260.75C31.1797 261.488 30.9004 262.068 30.3418 262.49C29.7832 262.908 29.0312 263.117 28.0859 263.117C27.4297 263.117 26.832 262.998 26.293 262.76C25.7539 262.518 25.3418 262.188 25.0566 261.77C24.7754 261.352 24.6348 260.867 24.6348 260.316H26.3984C26.3984 261.258 26.9609 261.729 28.0859 261.729C28.5039 261.729 28.8301 261.645 29.0645 261.477C29.2988 261.305 29.416 261.066 29.416 260.762ZM36.0605 262.355C35.6426 262.863 35.0645 263.117 34.3262 263.117C33.6465 263.117 33.127 262.922 32.7676 262.531C32.4121 262.141 32.2305 261.568 32.2227 260.814V256.66H33.916V260.756C33.916 261.416 34.2168 261.746 34.8184 261.746C35.3926 261.746 35.7871 261.547 36.002 261.148V256.66H37.7012V263H36.1074L36.0605 262.355ZM40.5664 256.66L40.6191 257.369C41.0684 256.818 41.6758 256.543 42.4414 256.543C43.2578 256.543 43.8184 256.865 44.123 257.51C44.5684 256.865 45.2031 256.543 46.0273 256.543C46.7148 256.543 47.2266 256.744 47.5625 257.146C47.8984 257.545 48.0664 258.146 48.0664 258.951V263H46.3672V258.957C46.3672 258.598 46.2969 258.336 46.1562 258.172C46.0156 258.004 45.7676 257.92 45.4121 257.92C44.9043 257.92 44.5527 258.162 44.3574 258.646L44.3633 263H42.6699V258.963C42.6699 258.596 42.5977 258.33 42.4531 258.166C42.3086 258.002 42.0625 257.92 41.7148 257.92C41.2344 257.92 40.8867 258.119 40.6719 258.518V263H38.9785V256.66H40.5664ZM52.8066 261.248C52.8066 261.041 52.7031 260.879 52.4961 260.762C52.293 260.641 51.9648 260.533 51.5117 260.439C50.0039 260.123 49.25 259.482 49.25 258.518C49.25 257.955 49.4824 257.486 49.9473 257.111C50.416 256.732 51.0273 256.543 51.7812 256.543C52.5859 256.543 53.2285 256.732 53.709 257.111C54.1934 257.49 54.4355 257.982 54.4355 258.588H52.7422C52.7422 258.346 52.6641 258.146 52.5078 257.99C52.3516 257.83 52.1074 257.75 51.7754 257.75C51.4902 257.75 51.2695 257.814 51.1133 257.943C50.957 258.072 50.8789 258.236 50.8789 258.436C50.8789 258.623 50.9668 258.775 51.1426 258.893C51.3223 259.006 51.623 259.105 52.0449 259.191C52.4668 259.273 52.8223 259.367 53.1113 259.473C54.0059 259.801 54.4531 260.369 54.4531 261.178C54.4531 261.756 54.2051 262.225 53.709 262.584C53.2129 262.939 52.5723 263.117 51.7871 263.117C51.2559 263.117 50.7832 263.023 50.3691 262.836C49.959 262.645 49.6367 262.385 49.4023 262.057C49.168 261.725 49.0508 261.367 49.0508 260.984H50.6562C50.6719 261.285 50.7832 261.516 50.9902 261.676C51.1973 261.836 51.4746 261.916 51.8223 261.916C52.1465 261.916 52.3906 261.855 52.5547 261.734C52.7227 261.609 52.8066 261.447 52.8066 261.248ZM55.625 259.531C55.625 258.637 55.7441 257.785 55.9824 256.977C56.2207 256.168 56.5723 255.453 57.0371 254.832C57.502 254.207 58.0059 253.773 58.5488 253.531L58.877 254.445C58.3066 254.867 57.8613 255.52 57.541 256.402C57.2207 257.285 57.0605 258.316 57.0605 259.496V259.678C57.0605 260.861 57.2188 261.896 57.5352 262.783C57.8516 263.67 58.2988 264.332 58.877 264.77L58.5488 265.666C58.0176 265.428 57.5215 265.006 57.0605 264.4C56.6035 263.799 56.2539 263.104 56.0117 262.314C55.7695 261.525 55.6406 260.701 55.625 259.842V259.531ZM62.6855 259.666C62.6855 260.549 62.5586 261.398 62.3047 262.215C62.0508 263.031 61.6855 263.752 61.209 264.377C60.7324 265.002 60.2227 265.432 59.6797 265.666L59.3516 264.77C59.9062 264.352 60.3438 263.707 60.6641 262.836C60.9844 261.965 61.1504 260.963 61.1621 259.83V259.52C61.1621 258.352 61.002 257.322 60.6816 256.432C60.3652 255.541 59.9219 254.873 59.3516 254.428L59.6797 253.531C60.2109 253.762 60.7109 254.18 61.1797 254.785C61.6523 255.391 62.0176 256.096 62.2754 256.9C62.5371 257.705 62.6738 258.539 62.6855 259.402V259.666Z" fill="#F2994A"/>
<rect opacity="0.4" x="274" y="47" width="225" height="26" fill="#F2994A"/>
<rect opacity="0.4" x="274" y="79" width="218.304" height="26" fill="#F2994A"/>
<rect opacity="0.4" x="274" y="111" width="218.304" height="26" fill="#F2994A"/>
<rect opacity="0.4" x="274" y="143" width="218.304" height="26" fill="#F2994A"/>
<rect opacity="0.4" x="274" y="175" width="218.304" height="26" fill="#F2994A"/>
<rect x="303" y="48" width="37" height="24" fill="#56CCF2" stroke="black" stroke-width="2"/>
<rect x="303" y="112" width="37" height="24" fill="#56CCF2" stroke="black" stroke-width="2"/>
<rect x="303" y="177" width="37" height="24" fill="#56CCF2" stroke="black" stroke-width="2"/>
<rect x="303" y="80" width="37" height="24" fill="#56CCF2" stroke="black" stroke-width="2"/>
<rect x="303" y="144" width="37" height="24" fill="#56CCF2" stroke="black" stroke-width="2"/>
<rect x="353" y="48" width="37" height="24" fill="#56CCF2" stroke="black" stroke-width="2"/>
<rect x="404" y="48" width="37" height="24" fill="#56CCF2" stroke="black" stroke-width="2"/>
<rect x="461" y="48" width="37" height="24" fill="#F2994A" stroke="black" stroke-width="2"/>
<rect x="353" y="112" width="37" height="24" fill="#56CCF2" stroke="black" stroke-width="2"/>
<rect x="353" y="177" width="37" height="24" fill="#56CCF2" stroke="black" stroke-width="2"/>
<rect x="404" y="112" width="37" height="24" fill="#56CCF2" stroke="black" stroke-width="2"/>
<rect x="461" y="112" width="37" height="24" fill="#F2994A" stroke="black" stroke-width="2"/>
<rect x="404" y="177" width="37" height="24" fill="#56CCF2" stroke="black" stroke-width="2"/>
<rect x="461" y="177" width="37" height="24" fill="#F2994A" stroke="black" stroke-width="2"/>
<rect x="353" y="80" width="37" height="24" fill="#56CCF2" stroke="black" stroke-width="2"/>
<rect x="353" y="144" width="37" height="24" fill="#56CCF2" stroke="black" stroke-width="2"/>
<rect x="404" y="80" width="37" height="24" fill="#56CCF2" stroke="black" stroke-width="2"/>
<rect x="461" y="80" width="37" height="24" fill="#F2994A" stroke="black" stroke-width="2"/>
<rect x="404" y="144" width="37" height="24" fill="#56CCF2" stroke="black" stroke-width="2"/>
<rect x="461" y="144" width="37" height="24" fill="#F2994A" stroke="black" stroke-width="2"/>
<path d="M323.67 41H321.977V34.4727L319.955 35.0996V33.7227L323.488 32.457H323.67V41ZM371.143 41H365.295V39.8398L368.055 36.8984C368.434 36.4844 368.713 36.123 368.893 35.8145C369.076 35.5059 369.168 35.2129 369.168 34.9355C369.168 34.5566 369.072 34.2598 368.881 34.0449C368.689 33.8262 368.416 33.7168 368.061 33.7168C367.678 33.7168 367.375 33.8496 367.152 34.1152C366.934 34.377 366.824 34.7227 366.824 35.1523H365.125C365.125 34.6328 365.248 34.1582 365.494 33.7285C365.744 33.2988 366.096 32.9629 366.549 32.7207C367.002 32.4746 367.516 32.3516 368.09 32.3516C368.969 32.3516 369.65 32.5625 370.135 32.9844C370.623 33.4062 370.867 34.002 370.867 34.7715C370.867 35.1934 370.758 35.623 370.539 36.0605C370.32 36.498 369.945 37.0078 369.414 37.5898L367.475 39.6348H371.143V41ZM409.768 35.9844H410.67C411.1 35.9844 411.418 35.877 411.625 35.6621C411.832 35.4473 411.936 35.1621 411.936 34.8066C411.936 34.4629 411.832 34.1953 411.625 34.0039C411.422 33.8125 411.141 33.7168 410.781 33.7168C410.457 33.7168 410.186 33.8066 409.967 33.9863C409.748 34.1621 409.639 34.3926 409.639 34.6777H407.945C407.945 34.2324 408.064 33.834 408.303 33.4824C408.545 33.127 408.881 32.8496 409.311 32.6504C409.744 32.4512 410.221 32.3516 410.74 32.3516C411.643 32.3516 412.35 32.5684 412.861 33.002C413.373 33.4316 413.629 34.0254 413.629 34.7832C413.629 35.1738 413.51 35.5332 413.271 35.8613C413.033 36.1895 412.721 36.4414 412.334 36.6172C412.814 36.7891 413.172 37.0469 413.406 37.3906C413.645 37.7344 413.764 38.1406 413.764 38.6094C413.764 39.3672 413.486 39.9746 412.932 40.4316C412.381 40.8887 411.65 41.1172 410.74 41.1172C409.889 41.1172 409.191 40.8926 408.648 40.4434C408.109 39.9941 407.84 39.4004 407.84 38.6621H409.533C409.533 38.9824 409.652 39.2441 409.891 39.4473C410.133 39.6504 410.43 39.752 410.781 39.752C411.184 39.752 411.498 39.6465 411.725 39.4355C411.955 39.2207 412.07 38.9375 412.07 38.5859C412.07 37.7344 411.602 37.3086 410.664 37.3086H409.768V35.9844Z" fill="#BB6BD9"/>
<path d="M293.693 64H292V57.4727L289.979 58.0996V56.7227L293.512 55.457H293.693V64Z" fill="#BB6BD9"/>
<path d="M295.428 95H289.58V93.8398L292.34 90.8984C292.719 90.4844 292.998 90.123 293.178 89.8145C293.361 89.5059 293.453 89.2129 293.453 88.9355C293.453 88.5566 293.357 88.2598 293.166 88.0449C292.975 87.8262 292.701 87.7168 292.346 87.7168C291.963 87.7168 291.66 87.8496 291.438 88.1152C291.219 88.377 291.109 88.7227 291.109 89.1523H289.41C289.41 88.6328 289.533 88.1582 289.779 87.7285C290.029 87.2988 290.381 86.9629 290.834 86.7207C291.287 86.4746 291.801 86.3516 292.375 86.3516C293.254 86.3516 293.936 86.5625 294.42 86.9844C294.908 87.4062 295.152 88.002 295.152 88.7715C295.152 89.1934 295.043 89.623 294.824 90.0605C294.605 90.498 294.23 91.0078 293.699 91.5898L291.76 93.6348H295.428V95Z" fill="#BB6BD9"/>
<path d="M291.303 121.984H292.205C292.635 121.984 292.953 121.877 293.16 121.662C293.367 121.447 293.471 121.162 293.471 120.807C293.471 120.463 293.367 120.195 293.16 120.004C292.957 119.812 292.676 119.717 292.316 119.717C291.992 119.717 291.721 119.807 291.502 119.986C291.283 120.162 291.174 120.393 291.174 120.678H289.48C289.48 120.232 289.6 119.834 289.838 119.482C290.08 119.127 290.416 118.85 290.846 118.65C291.279 118.451 291.756 118.352 292.275 118.352C293.178 118.352 293.885 118.568 294.396 119.002C294.908 119.432 295.164 120.025 295.164 120.783C295.164 121.174 295.045 121.533 294.807 121.861C294.568 122.189 294.256 122.441 293.869 122.617C294.35 122.789 294.707 123.047 294.941 123.391C295.18 123.734 295.299 124.141 295.299 124.609C295.299 125.367 295.021 125.975 294.467 126.432C293.916 126.889 293.186 127.117 292.275 127.117C291.424 127.117 290.727 126.893 290.184 126.443C289.645 125.994 289.375 125.4 289.375 124.662H291.068C291.068 124.982 291.188 125.244 291.426 125.447C291.668 125.65 291.965 125.752 292.316 125.752C292.719 125.752 293.033 125.646 293.26 125.436C293.49 125.221 293.605 124.938 293.605 124.586C293.605 123.734 293.137 123.309 292.199 123.309H291.303V121.984Z" fill="#BB6BD9"/>
<path d="M294.59 156.789H295.557V158.154H294.59V160H292.896V158.154H289.398L289.322 157.088L292.879 151.469H294.59V156.789ZM291.01 156.789H292.896V153.777L292.785 153.971L291.01 156.789Z" fill="#BB6BD9"/>
<path d="M289.832 187.805L290.324 183.469H295.105V184.881H291.713L291.502 186.715C291.904 186.5 292.332 186.393 292.785 186.393C293.598 186.393 294.234 186.645 294.695 187.148C295.156 187.652 295.387 188.357 295.387 189.264C295.387 189.814 295.27 190.309 295.035 190.746C294.805 191.18 294.473 191.518 294.039 191.76C293.605 191.998 293.094 192.117 292.504 192.117C291.988 192.117 291.51 192.014 291.068 191.807C290.627 191.596 290.277 191.301 290.02 190.922C289.766 190.543 289.631 190.111 289.615 189.627H291.291C291.326 189.982 291.449 190.26 291.66 190.459C291.875 190.654 292.154 190.752 292.498 190.752C292.881 190.752 293.176 190.615 293.383 190.342C293.59 190.064 293.693 189.674 293.693 189.17C293.693 188.686 293.574 188.314 293.336 188.057C293.098 187.799 292.76 187.67 292.322 187.67C291.92 187.67 291.594 187.775 291.344 187.986L291.18 188.139L289.832 187.805Z" fill="#BB6BD9"/>
<path d="M457.213 11.248C456.982 11.2168 456.779 11.2012 456.604 11.2012C455.963 11.2012 455.543 11.418 455.344 11.8516V16H453.65V9.66016H455.25L455.297 10.416C455.637 9.83398 456.107 9.54297 456.709 9.54297C456.896 9.54297 457.072 9.56836 457.236 9.61914L457.213 11.248ZM457.559 12.7715C457.559 12.1426 457.68 11.582 457.922 11.0898C458.164 10.5977 458.512 10.2168 458.965 9.94727C459.422 9.67773 459.951 9.54297 460.553 9.54297C461.408 9.54297 462.105 9.80469 462.645 10.3281C463.188 10.8516 463.49 11.5625 463.553 12.4609L463.564 12.8945C463.564 13.8672 463.293 14.6484 462.75 15.2383C462.207 15.8242 461.479 16.1172 460.564 16.1172C459.65 16.1172 458.92 15.8242 458.373 15.2383C457.83 14.6523 457.559 13.8555 457.559 12.8477V12.7715ZM459.252 12.8945C459.252 13.4961 459.365 13.957 459.592 14.2773C459.818 14.5938 460.143 14.752 460.564 14.752C460.975 14.752 461.295 14.5957 461.525 14.2832C461.756 13.9668 461.871 13.4629 461.871 12.7715C461.871 12.1816 461.756 11.7246 461.525 11.4004C461.295 11.0762 460.971 10.9141 460.553 10.9141C460.139 10.9141 459.818 11.0762 459.592 11.4004C459.365 11.7207 459.252 12.2188 459.252 12.8945ZM470.121 13.6973L470.953 9.66016H472.588L470.971 16H469.553L468.352 12.0098L467.15 16H465.738L464.121 9.66016H465.756L466.582 13.6914L467.742 9.66016H468.967L470.121 13.6973ZM477.967 13.7617C477.967 13.4297 477.85 13.1758 477.615 13C477.381 12.8203 476.959 12.6328 476.35 12.4375C475.74 12.2383 475.258 12.043 474.902 11.8516C473.934 11.3281 473.449 10.623 473.449 9.73633C473.449 9.27539 473.578 8.86523 473.836 8.50586C474.098 8.14258 474.471 7.85938 474.955 7.65625C475.443 7.45312 475.99 7.35156 476.596 7.35156C477.205 7.35156 477.748 7.46289 478.225 7.68555C478.701 7.9043 479.07 8.21484 479.332 8.61719C479.598 9.01953 479.73 9.47656 479.73 9.98828H477.973C477.973 9.59766 477.85 9.29492 477.604 9.08008C477.357 8.86133 477.012 8.75195 476.566 8.75195C476.137 8.75195 475.803 8.84375 475.564 9.02734C475.326 9.20703 475.207 9.44531 475.207 9.74219C475.207 10.0195 475.346 10.252 475.623 10.4395C475.904 10.627 476.316 10.8027 476.859 10.9668C477.859 11.2676 478.588 11.6406 479.045 12.0859C479.502 12.5312 479.73 13.0859 479.73 13.75C479.73 14.4883 479.451 15.0684 478.893 15.4902C478.334 15.9082 477.582 16.1172 476.637 16.1172C475.98 16.1172 475.383 15.998 474.844 15.7598C474.305 15.5176 473.893 15.1875 473.607 14.7695C473.326 14.3516 473.186 13.8672 473.186 13.3164H474.949C474.949 14.2578 475.512 14.7285 476.637 14.7285C477.055 14.7285 477.381 14.6445 477.615 14.4766C477.85 14.3047 477.967 14.0664 477.967 13.7617ZM484.611 15.3555C484.193 15.8633 483.615 16.1172 482.877 16.1172C482.197 16.1172 481.678 15.9219 481.318 15.5312C480.963 15.1406 480.781 14.5684 480.773 13.8145V9.66016H482.467V13.7559C482.467 14.416 482.768 14.7461 483.369 14.7461C483.943 14.7461 484.338 14.5469 484.553 14.1484V9.66016H486.252V16H484.658L484.611 15.3555ZM489.117 9.66016L489.17 10.3691C489.619 9.81836 490.227 9.54297 490.992 9.54297C491.809 9.54297 492.369 9.86523 492.674 10.5098C493.119 9.86523 493.754 9.54297 494.578 9.54297C495.266 9.54297 495.777 9.74414 496.113 10.1465C496.449 10.5449 496.617 11.1465 496.617 11.9512V16H494.918V11.957C494.918 11.5977 494.848 11.3359 494.707 11.1719C494.566 11.0039 494.318 10.9199 493.963 10.9199C493.455 10.9199 493.104 11.1621 492.908 11.6465L492.914 16H491.221V11.9629C491.221 11.5957 491.148 11.3301 491.004 11.166C490.859 11.002 490.613 10.9199 490.266 10.9199C489.785 10.9199 489.438 11.1191 489.223 11.5176V16H487.529V9.66016H489.117ZM501.357 14.248C501.357 14.041 501.254 13.8789 501.047 13.7617C500.844 13.6406 500.516 13.5332 500.062 13.4395C498.555 13.123 497.801 12.4824 497.801 11.5176C497.801 10.9551 498.033 10.4863 498.498 10.1113C498.967 9.73242 499.578 9.54297 500.332 9.54297C501.137 9.54297 501.779 9.73242 502.26 10.1113C502.744 10.4902 502.986 10.9824 502.986 11.5879H501.293C501.293 11.3457 501.215 11.1465 501.059 10.9902C500.902 10.8301 500.658 10.75 500.326 10.75C500.041 10.75 499.82 10.8145 499.664 10.9434C499.508 11.0723 499.43 11.2363 499.43 11.4355C499.43 11.623 499.518 11.7754 499.693 11.8926C499.873 12.0059 500.174 12.1055 500.596 12.1914C501.018 12.2734 501.373 12.3672 501.662 12.4727C502.557 12.8008 503.004 13.3691 503.004 14.1777C503.004 14.7559 502.756 15.2246 502.26 15.584C501.764 15.9395 501.123 16.1172 500.338 16.1172C499.807 16.1172 499.334 16.0234 498.92 15.8359C498.51 15.6445 498.188 15.3848 497.953 15.0566C497.719 14.7246 497.602 14.3672 497.602 13.9844H499.207C499.223 14.2852 499.334 14.5156 499.541 14.6758C499.748 14.8359 500.025 14.916 500.373 14.916C500.697 14.916 500.941 14.8555 501.105 14.7344C501.273 14.6094 501.357 14.4473 501.357 14.248ZM504.176 12.5312C504.176 11.6367 504.295 10.7852 504.533 9.97656C504.771 9.16797 505.123 8.45312 505.588 7.83203C506.053 7.20703 506.557 6.77344 507.1 6.53125L507.428 7.44531C506.857 7.86719 506.412 8.51953 506.092 9.40234C505.771 10.2852 505.611 11.3164 505.611 12.4961V12.6777C505.611 13.8613 505.77 14.8965 506.086 15.7832C506.402 16.6699 506.85 17.332 507.428 17.7695L507.1 18.666C506.568 18.4277 506.072 18.0059 505.611 17.4004C505.154 16.7988 504.805 16.1035 504.562 15.3145C504.32 14.5254 504.191 13.7012 504.176 12.8418V12.5312ZM511.236 12.666C511.236 13.5488 511.109 14.3984 510.855 15.2148C510.602 16.0312 510.236 16.752 509.76 17.377C509.283 18.002 508.773 18.4316 508.23 18.666L507.902 17.7695C508.457 17.3516 508.895 16.707 509.215 15.8359C509.535 14.9648 509.701 13.9629 509.713 12.8301V12.5195C509.713 11.3516 509.553 10.3223 509.232 9.43164C508.916 8.54102 508.473 7.87305 507.902 7.42773L508.23 6.53125C508.762 6.76172 509.262 7.17969 509.73 7.78516C510.203 8.39062 510.568 9.0957 510.826 9.90039C511.088 10.7051 511.225 11.5391 511.236 12.4023V12.666Z" fill="#F2994A"/>
<path d="M480 20L480 34" stroke="#F2994A" stroke-width="3"/>
<path d="M486.7 31.5L480 39.2362L473.3 31.5H486.7Z" fill="#F2994A" stroke="#F2994A"/>
<path d="M128.287 294.752C128.6 294.752 128.854 294.666 129.049 294.494C129.244 294.322 129.346 294.094 129.354 293.809H130.941C130.938 294.238 130.82 294.633 130.59 294.992C130.359 295.348 130.043 295.625 129.641 295.824C129.242 296.02 128.801 296.117 128.316 296.117C127.41 296.117 126.695 295.83 126.172 295.256C125.648 294.678 125.387 293.881 125.387 292.865V292.754C125.387 291.777 125.646 290.998 126.166 290.416C126.686 289.834 127.398 289.543 128.305 289.543C129.098 289.543 129.732 289.77 130.209 290.223C130.689 290.672 130.934 291.271 130.941 292.021H129.354C129.346 291.693 129.244 291.428 129.049 291.225C128.854 291.018 128.596 290.914 128.275 290.914C127.881 290.914 127.582 291.059 127.379 291.348C127.18 291.633 127.08 292.098 127.08 292.742V292.918C127.08 293.57 127.18 294.039 127.379 294.324C127.578 294.609 127.881 294.752 128.287 294.752ZM131.645 292.771C131.645 292.143 131.766 291.582 132.008 291.09C132.25 290.598 132.598 290.217 133.051 289.947C133.508 289.678 134.037 289.543 134.639 289.543C135.494 289.543 136.191 289.805 136.73 290.328C137.273 290.852 137.576 291.562 137.639 292.461L137.65 292.895C137.65 293.867 137.379 294.648 136.836 295.238C136.293 295.824 135.564 296.117 134.65 296.117C133.736 296.117 133.006 295.824 132.459 295.238C131.916 294.652 131.645 293.855 131.645 292.848V292.771ZM133.338 292.895C133.338 293.496 133.451 293.957 133.678 294.277C133.904 294.594 134.229 294.752 134.65 294.752C135.061 294.752 135.381 294.596 135.611 294.283C135.842 293.967 135.957 293.463 135.957 292.771C135.957 292.182 135.842 291.725 135.611 291.4C135.381 291.076 135.057 290.914 134.639 290.914C134.225 290.914 133.904 291.076 133.678 291.4C133.451 291.721 133.338 292.219 133.338 292.895ZM140.48 296H138.781V287H140.48V296ZM146.416 293.762C146.416 293.43 146.299 293.176 146.064 293C145.83 292.82 145.408 292.633 144.799 292.438C144.189 292.238 143.707 292.043 143.352 291.852C142.383 291.328 141.898 290.623 141.898 289.736C141.898 289.275 142.027 288.865 142.285 288.506C142.547 288.143 142.92 287.859 143.404 287.656C143.893 287.453 144.439 287.352 145.045 287.352C145.654 287.352 146.197 287.463 146.674 287.686C147.15 287.904 147.52 288.215 147.781 288.617C148.047 289.02 148.18 289.477 148.18 289.988H146.422C146.422 289.598 146.299 289.295 146.053 289.08C145.807 288.861 145.461 288.752 145.016 288.752C144.586 288.752 144.252 288.844 144.014 289.027C143.775 289.207 143.656 289.445 143.656 289.742C143.656 290.02 143.795 290.252 144.072 290.439C144.354 290.627 144.766 290.803 145.309 290.967C146.309 291.268 147.037 291.641 147.494 292.086C147.951 292.531 148.18 293.086 148.18 293.75C148.18 294.488 147.9 295.068 147.342 295.49C146.783 295.908 146.031 296.117 145.086 296.117C144.43 296.117 143.832 295.998 143.293 295.76C142.754 295.518 142.342 295.188 142.057 294.77C141.775 294.352 141.635 293.867 141.635 293.316H143.398C143.398 294.258 143.961 294.729 145.086 294.729C145.504 294.729 145.83 294.645 146.064 294.477C146.299 294.305 146.416 294.066 146.416 293.762ZM153.061 295.355C152.643 295.863 152.064 296.117 151.326 296.117C150.646 296.117 150.127 295.922 149.768 295.531C149.412 295.141 149.23 294.568 149.223 293.814V289.66H150.916V293.756C150.916 294.416 151.217 294.746 151.818 294.746C152.393 294.746 152.787 294.547 153.002 294.148V289.66H154.701V296H153.107L153.061 295.355ZM157.566 289.66L157.619 290.369C158.068 289.818 158.676 289.543 159.441 289.543C160.258 289.543 160.818 289.865 161.123 290.51C161.568 289.865 162.203 289.543 163.027 289.543C163.715 289.543 164.227 289.744 164.562 290.146C164.898 290.545 165.066 291.146 165.066 291.951V296H163.367V291.957C163.367 291.598 163.297 291.336 163.156 291.172C163.016 291.004 162.768 290.92 162.412 290.92C161.904 290.92 161.553 291.162 161.357 291.646L161.363 296H159.67V291.963C159.67 291.596 159.598 291.33 159.453 291.166C159.309 291.002 159.062 290.92 158.715 290.92C158.234 290.92 157.887 291.119 157.672 291.518V296H155.979V289.66H157.566ZM169.807 294.248C169.807 294.041 169.703 293.879 169.496 293.762C169.293 293.641 168.965 293.533 168.512 293.439C167.004 293.123 166.25 292.482 166.25 291.518C166.25 290.955 166.482 290.486 166.947 290.111C167.416 289.732 168.027 289.543 168.781 289.543C169.586 289.543 170.229 289.732 170.709 290.111C171.193 290.49 171.436 290.982 171.436 291.588H169.742C169.742 291.346 169.664 291.146 169.508 290.99C169.352 290.83 169.107 290.75 168.775 290.75C168.49 290.75 168.27 290.814 168.113 290.943C167.957 291.072 167.879 291.236 167.879 291.436C167.879 291.623 167.967 291.775 168.143 291.893C168.322 292.006 168.623 292.105 169.045 292.191C169.467 292.273 169.822 292.367 170.111 292.473C171.006 292.801 171.453 293.369 171.453 294.178C171.453 294.756 171.205 295.225 170.709 295.584C170.213 295.939 169.572 296.117 168.787 296.117C168.256 296.117 167.783 296.023 167.369 295.836C166.959 295.645 166.637 295.385 166.402 295.057C166.168 294.725 166.051 294.367 166.051 293.984H167.656C167.672 294.285 167.783 294.516 167.99 294.676C168.197 294.836 168.475 294.916 168.822 294.916C169.146 294.916 169.391 294.855 169.555 294.734C169.723 294.609 169.807 294.447 169.807 294.248ZM172.625 292.531C172.625 291.637 172.744 290.785 172.982 289.977C173.221 289.168 173.572 288.453 174.037 287.832C174.502 287.207 175.006 286.773 175.549 286.531L175.877 287.445C175.307 287.867 174.861 288.52 174.541 289.402C174.221 290.285 174.061 291.316 174.061 292.496V292.678C174.061 293.861 174.219 294.896 174.535 295.783C174.852 296.67 175.299 297.332 175.877 297.77L175.549 298.666C175.018 298.428 174.521 298.006 174.061 297.4C173.604 296.799 173.254 296.104 173.012 295.314C172.77 294.525 172.641 293.701 172.625 292.842V292.531ZM178.355 289.66L178.408 290.369C178.857 289.818 179.465 289.543 180.23 289.543C181.047 289.543 181.607 289.865 181.912 290.51C182.357 289.865 182.992 289.543 183.816 289.543C184.504 289.543 185.016 289.744 185.352 290.146C185.688 290.545 185.855 291.146 185.855 291.951V296H184.156V291.957C184.156 291.598 184.086 291.336 183.945 291.172C183.805 291.004 183.557 290.92 183.201 290.92C182.693 290.92 182.342 291.162 182.146 291.646L182.152 296H180.459V291.963C180.459 291.596 180.387 291.33 180.242 291.166C180.098 291.002 179.852 290.92 179.504 290.92C179.023 290.92 178.676 291.119 178.461 291.518V296H176.768V289.66H178.355ZM190.836 296C190.758 295.848 190.701 295.658 190.666 295.432C190.256 295.889 189.723 296.117 189.066 296.117C188.445 296.117 187.93 295.938 187.52 295.578C187.113 295.219 186.91 294.766 186.91 294.219C186.91 293.547 187.158 293.031 187.654 292.672C188.154 292.312 188.875 292.131 189.816 292.127H190.596V291.764C190.596 291.471 190.52 291.236 190.367 291.061C190.219 290.885 189.982 290.797 189.658 290.797C189.373 290.797 189.148 290.865 188.984 291.002C188.824 291.139 188.744 291.326 188.744 291.564H187.051C187.051 291.197 187.164 290.857 187.391 290.545C187.617 290.232 187.938 289.988 188.352 289.812C188.766 289.633 189.23 289.543 189.746 289.543C190.527 289.543 191.146 289.74 191.604 290.135C192.064 290.525 192.295 291.076 192.295 291.787V294.535C192.299 295.137 192.383 295.592 192.547 295.9V296H190.836ZM189.436 294.822C189.686 294.822 189.916 294.768 190.127 294.658C190.338 294.545 190.494 294.395 190.596 294.207V293.117H189.963C189.115 293.117 188.664 293.41 188.609 293.996L188.604 294.096C188.604 294.307 188.678 294.48 188.826 294.617C188.975 294.754 189.178 294.822 189.436 294.822ZM195.623 288.102V289.66H196.707V290.902H195.623V294.066C195.623 294.301 195.668 294.469 195.758 294.57C195.848 294.672 196.02 294.723 196.273 294.723C196.461 294.723 196.627 294.709 196.771 294.682V295.965C196.439 296.066 196.098 296.117 195.746 296.117C194.559 296.117 193.953 295.518 193.93 294.318V290.902H193.004V289.66H193.93V288.102H195.623ZM201.213 291.248C200.982 291.217 200.779 291.201 200.604 291.201C199.963 291.201 199.543 291.418 199.344 291.852V296H197.65V289.66H199.25L199.297 290.416C199.637 289.834 200.107 289.543 200.709 289.543C200.896 289.543 201.072 289.568 201.236 289.619L201.213 291.248ZM203.82 296H202.121V289.66H203.82V296ZM202.021 288.02C202.021 287.766 202.105 287.557 202.273 287.393C202.445 287.229 202.678 287.146 202.971 287.146C203.26 287.146 203.49 287.229 203.662 287.393C203.834 287.557 203.92 287.766 203.92 288.02C203.92 288.277 203.832 288.488 203.656 288.652C203.484 288.816 203.256 288.898 202.971 288.898C202.686 288.898 202.455 288.816 202.279 288.652C202.107 288.488 202.021 288.277 202.021 288.02ZM207.635 291.553L208.701 289.66H210.512L208.707 292.766L210.588 296H208.771L207.641 294.008L206.516 296H204.693L206.574 292.766L204.775 289.66H206.592L207.635 291.553ZM214.244 292.666C214.244 293.549 214.117 294.398 213.863 295.215C213.609 296.031 213.244 296.752 212.768 297.377C212.291 298.002 211.781 298.432 211.238 298.666L210.91 297.77C211.465 297.352 211.902 296.707 212.223 295.836C212.543 294.965 212.709 293.963 212.721 292.83V292.52C212.721 291.352 212.561 290.322 212.24 289.432C211.924 288.541 211.48 287.873 210.91 287.428L211.238 286.531C211.77 286.762 212.27 287.18 212.738 287.785C213.211 288.391 213.576 289.096 213.834 289.9C214.096 290.705 214.232 291.539 214.244 292.402V292.666Z" fill="#9B51E0"/>
<path d="M351.213 298.248C350.982 298.217 350.779 298.201 350.604 298.201C349.963 298.201 349.543 298.418 349.344 298.852V303H347.65V296.66H349.25L349.297 297.416C349.637 296.834 350.107 296.543 350.709 296.543C350.896 296.543 351.072 296.568 351.236 296.619L351.213 298.248ZM351.559 299.771C351.559 299.143 351.68 298.582 351.922 298.09C352.164 297.598 352.512 297.217 352.965 296.947C353.422 296.678 353.951 296.543 354.553 296.543C355.408 296.543 356.105 296.805 356.645 297.328C357.188 297.852 357.49 298.562 357.553 299.461L357.564 299.895C357.564 300.867 357.293 301.648 356.75 302.238C356.207 302.824 355.479 303.117 354.564 303.117C353.65 303.117 352.92 302.824 352.373 302.238C351.83 301.652 351.559 300.855 351.559 299.848V299.771ZM353.252 299.895C353.252 300.496 353.365 300.957 353.592 301.277C353.818 301.594 354.143 301.752 354.564 301.752C354.975 301.752 355.295 301.596 355.525 301.283C355.756 300.967 355.871 300.463 355.871 299.771C355.871 299.182 355.756 298.725 355.525 298.4C355.295 298.076 354.971 297.914 354.553 297.914C354.139 297.914 353.818 298.076 353.592 298.4C353.365 298.721 353.252 299.219 353.252 299.895ZM364.121 300.697L364.953 296.66H366.588L364.971 303H363.553L362.352 299.01L361.15 303H359.738L358.121 296.66H359.756L360.582 300.691L361.742 296.66H362.967L364.121 300.697ZM371.967 300.762C371.967 300.43 371.85 300.176 371.615 300C371.381 299.82 370.959 299.633 370.35 299.438C369.74 299.238 369.258 299.043 368.902 298.852C367.934 298.328 367.449 297.623 367.449 296.736C367.449 296.275 367.578 295.865 367.836 295.506C368.098 295.143 368.471 294.859 368.955 294.656C369.443 294.453 369.99 294.352 370.596 294.352C371.205 294.352 371.748 294.463 372.225 294.686C372.701 294.904 373.07 295.215 373.332 295.617C373.598 296.02 373.73 296.477 373.73 296.988H371.973C371.973 296.598 371.85 296.295 371.604 296.08C371.357 295.861 371.012 295.752 370.566 295.752C370.137 295.752 369.803 295.844 369.564 296.027C369.326 296.207 369.207 296.445 369.207 296.742C369.207 297.02 369.346 297.252 369.623 297.439C369.904 297.627 370.316 297.803 370.859 297.967C371.859 298.268 372.588 298.641 373.045 299.086C373.502 299.531 373.73 300.086 373.73 300.75C373.73 301.488 373.451 302.068 372.893 302.49C372.334 302.908 371.582 303.117 370.637 303.117C369.98 303.117 369.383 302.998 368.844 302.76C368.305 302.518 367.893 302.188 367.607 301.77C367.326 301.352 367.186 300.867 367.186 300.316H368.949C368.949 301.258 369.512 301.729 370.637 301.729C371.055 301.729 371.381 301.645 371.615 301.477C371.85 301.305 371.967 301.066 371.967 300.762ZM378.611 302.355C378.193 302.863 377.615 303.117 376.877 303.117C376.197 303.117 375.678 302.922 375.318 302.531C374.963 302.141 374.781 301.568 374.773 300.814V296.66H376.467V300.756C376.467 301.416 376.768 301.746 377.369 301.746C377.943 301.746 378.338 301.547 378.553 301.148V296.66H380.252V303H378.658L378.611 302.355ZM383.117 296.66L383.17 297.369C383.619 296.818 384.227 296.543 384.992 296.543C385.809 296.543 386.369 296.865 386.674 297.51C387.119 296.865 387.754 296.543 388.578 296.543C389.266 296.543 389.777 296.744 390.113 297.146C390.449 297.545 390.617 298.146 390.617 298.951V303H388.918V298.957C388.918 298.598 388.848 298.336 388.707 298.172C388.566 298.004 388.318 297.92 387.963 297.92C387.455 297.92 387.104 298.162 386.908 298.646L386.914 303H385.221V298.963C385.221 298.596 385.148 298.33 385.004 298.166C384.859 298.002 384.613 297.92 384.266 297.92C383.785 297.92 383.438 298.119 383.223 298.518V303H381.529V296.66H383.117ZM395.357 301.248C395.357 301.041 395.254 300.879 395.047 300.762C394.844 300.641 394.516 300.533 394.062 300.439C392.555 300.123 391.801 299.482 391.801 298.518C391.801 297.955 392.033 297.486 392.498 297.111C392.967 296.732 393.578 296.543 394.332 296.543C395.137 296.543 395.779 296.732 396.26 297.111C396.744 297.49 396.986 297.982 396.986 298.588H395.293C395.293 298.346 395.215 298.146 395.059 297.99C394.902 297.83 394.658 297.75 394.326 297.75C394.041 297.75 393.82 297.814 393.664 297.943C393.508 298.072 393.43 298.236 393.43 298.436C393.43 298.623 393.518 298.775 393.693 298.893C393.873 299.006 394.174 299.105 394.596 299.191C395.018 299.273 395.373 299.367 395.662 299.473C396.557 299.801 397.004 300.369 397.004 301.178C397.004 301.756 396.756 302.225 396.26 302.584C395.764 302.939 395.123 303.117 394.338 303.117C393.807 303.117 393.334 303.023 392.92 302.836C392.51 302.645 392.188 302.385 391.953 302.057C391.719 301.725 391.602 301.367 391.602 300.984H393.207C393.223 301.285 393.334 301.516 393.541 301.676C393.748 301.836 394.025 301.916 394.373 301.916C394.697 301.916 394.941 301.855 395.105 301.734C395.273 301.609 395.357 301.447 395.357 301.248ZM398.176 299.531C398.176 298.637 398.295 297.785 398.533 296.977C398.771 296.168 399.123 295.453 399.588 294.832C400.053 294.207 400.557 293.773 401.1 293.531L401.428 294.445C400.857 294.867 400.412 295.52 400.092 296.402C399.771 297.285 399.611 298.316 399.611 299.496V299.678C399.611 300.861 399.77 301.896 400.086 302.783C400.402 303.67 400.85 304.332 401.428 304.77L401.1 305.666C400.568 305.428 400.072 305.006 399.611 304.4C399.154 303.799 398.805 303.104 398.562 302.314C398.32 301.525 398.191 300.701 398.176 299.842V299.531ZM403.906 296.66L403.959 297.369C404.408 296.818 405.016 296.543 405.781 296.543C406.598 296.543 407.158 296.865 407.463 297.51C407.908 296.865 408.543 296.543 409.367 296.543C410.055 296.543 410.566 296.744 410.902 297.146C411.238 297.545 411.406 298.146 411.406 298.951V303H409.707V298.957C409.707 298.598 409.637 298.336 409.496 298.172C409.355 298.004 409.107 297.92 408.752 297.92C408.244 297.92 407.893 298.162 407.697 298.646L407.703 303H406.01V298.963C406.01 298.596 405.938 298.33 405.793 298.166C405.648 298.002 405.402 297.92 405.055 297.92C404.574 297.92 404.227 298.119 404.012 298.518V303H402.318V296.66H403.906ZM416.387 303C416.309 302.848 416.252 302.658 416.217 302.432C415.807 302.889 415.273 303.117 414.617 303.117C413.996 303.117 413.48 302.938 413.07 302.578C412.664 302.219 412.461 301.766 412.461 301.219C412.461 300.547 412.709 300.031 413.205 299.672C413.705 299.312 414.426 299.131 415.367 299.127H416.146V298.764C416.146 298.471 416.07 298.236 415.918 298.061C415.77 297.885 415.533 297.797 415.209 297.797C414.924 297.797 414.699 297.865 414.535 298.002C414.375 298.139 414.295 298.326 414.295 298.564H412.602C412.602 298.197 412.715 297.857 412.941 297.545C413.168 297.232 413.488 296.988 413.902 296.812C414.316 296.633 414.781 296.543 415.297 296.543C416.078 296.543 416.697 296.74 417.154 297.135C417.615 297.525 417.846 298.076 417.846 298.787V301.535C417.85 302.137 417.934 302.592 418.098 302.9V303H416.387ZM414.986 301.822C415.236 301.822 415.467 301.768 415.678 301.658C415.889 301.545 416.045 301.395 416.146 301.207V300.117H415.514C414.666 300.117 414.215 300.41 414.16 300.996L414.154 301.096C414.154 301.307 414.229 301.48 414.377 301.617C414.525 301.754 414.729 301.822 414.986 301.822ZM421.174 295.102V296.66H422.258V297.902H421.174V301.066C421.174 301.301 421.219 301.469 421.309 301.57C421.398 301.672 421.57 301.723 421.824 301.723C422.012 301.723 422.178 301.709 422.322 301.682V302.965C421.99 303.066 421.648 303.117 421.297 303.117C420.109 303.117 419.504 302.518 419.48 301.318V297.902H418.555V296.66H419.48V295.102H421.174ZM426.764 298.248C426.533 298.217 426.33 298.201 426.154 298.201C425.514 298.201 425.094 298.418 424.895 298.852V303H423.201V296.66H424.801L424.848 297.416C425.188 296.834 425.658 296.543 426.26 296.543C426.447 296.543 426.623 296.568 426.787 296.619L426.764 298.248ZM429.371 303H427.672V296.66H429.371V303ZM427.572 295.02C427.572 294.766 427.656 294.557 427.824 294.393C427.996 294.229 428.229 294.146 428.521 294.146C428.811 294.146 429.041 294.229 429.213 294.393C429.385 294.557 429.471 294.766 429.471 295.02C429.471 295.277 429.383 295.488 429.207 295.652C429.035 295.816 428.807 295.898 428.521 295.898C428.236 295.898 428.006 295.816 427.83 295.652C427.658 295.488 427.572 295.277 427.572 295.02ZM433.186 298.553L434.252 296.66H436.062L434.258 299.766L436.139 303H434.322L433.191 301.008L432.066 303H430.244L432.125 299.766L430.326 296.66H432.143L433.186 298.553ZM439.795 299.666C439.795 300.549 439.668 301.398 439.414 302.215C439.16 303.031 438.795 303.752 438.318 304.377C437.842 305.002 437.332 305.432 436.789 305.666L436.461 304.77C437.016 304.352 437.453 303.707 437.773 302.836C438.094 301.965 438.26 300.963 438.271 299.83V299.52C438.271 298.352 438.111 297.322 437.791 296.432C437.475 295.541 437.031 294.873 436.461 294.428L436.789 293.531C437.32 293.762 437.82 294.18 438.289 294.785C438.762 295.391 439.127 296.096 439.385 296.9C439.646 297.705 439.783 298.539 439.795 299.402V299.666Z" fill="#9B51E0"/>
<path d="M121.066 77.2246H123.182V78.7539H121.066V81.1445H119.455V78.7539H117.334V77.2246H119.455V74.9336H121.066V77.2246Z" fill="black"/>
<path d="M171.066 77.2246H173.182V78.7539H171.066V81.1445H169.455V78.7539H167.334V77.2246H169.455V74.9336H171.066V77.2246Z" fill="black"/>
<path d="M213.066 77.2246H215.182V78.7539H213.066V81.1445H211.455V78.7539H209.334V77.2246H211.455V74.9336H213.066V77.2246Z" fill="black"/>
<path d="M347.066 60.2246H349.182V61.7539H347.066V64.1445H345.455V61.7539H343.334V60.2246H345.455V57.9336H347.066V60.2246Z" fill="black"/>
<path d="M398.066 60.2246H400.182V61.7539H398.066V64.1445H396.455V61.7539H394.334V60.2246H396.455V57.9336H398.066V60.2246Z" fill="black"/>
<path d="M452.035 60.6289H446.797V59.2461H452.035V60.6289ZM452.035 63.166H446.797V61.7832H452.035V63.166Z" fill="black"/>
<path d="M347.066 93.2246H349.182V94.7539H347.066V97.1445H345.455V94.7539H343.334V93.2246H345.455V90.9336H347.066V93.2246Z" fill="black"/>
<path d="M398.066 93.2246H400.182V94.7539H398.066V97.1445H396.455V94.7539H394.334V93.2246H396.455V90.9336H398.066V93.2246Z" fill="black"/>
<path d="M452.035 93.6289H446.797V92.2461H452.035V93.6289ZM452.035 96.166H446.797V94.7832H452.035V96.166Z" fill="black"/>
<path d="M347.066 124.225H349.182V125.754H347.066V128.145H345.455V125.754H343.334V124.225H345.455V121.934H347.066V124.225Z" fill="black"/>
<path d="M398.066 124.225H400.182V125.754H398.066V128.145H396.455V125.754H394.334V124.225H396.455V121.934H398.066V124.225Z" fill="black"/>
<path d="M452.035 124.629H446.797V123.246H452.035V124.629ZM452.035 127.166H446.797V125.783H452.035V127.166Z" fill="black"/>
<path d="M347.066 155.225H349.182V156.754H347.066V159.145H345.455V156.754H343.334V155.225H345.455V152.934H347.066V155.225Z" fill="black"/>
<path d="M398.066 155.225H400.182V156.754H398.066V159.145H396.455V156.754H394.334V155.225H396.455V152.934H398.066V155.225Z" fill="black"/>
<path d="M452.035 155.629H446.797V154.246H452.035V155.629ZM452.035 158.166H446.797V156.783H452.035V158.166Z" fill="black"/>
<path d="M347.066 188.225H349.182V189.754H347.066V192.145H345.455V189.754H343.334V188.225H345.455V185.934H347.066V188.225Z" fill="black"/>
<path d="M398.066 188.225H400.182V189.754H398.066V192.145H396.455V189.754H394.334V188.225H396.455V185.934H398.066V188.225Z" fill="black"/>
<path d="M452.035 188.629H446.797V187.246H452.035V188.629ZM452.035 191.166H446.797V189.783H452.035V191.166Z" fill="black"/>
<path d="M121.066 116.225H123.182V117.754H121.066V120.145H119.455V117.754H117.334V116.225H119.455V113.934H121.066V116.225Z" fill="black"/>
<path d="M171.066 116.225H173.182V117.754H171.066V120.145H169.455V117.754H167.334V116.225H169.455V113.934H171.066V116.225Z" fill="black"/>
<path d="M213.066 116.225H215.182V117.754H213.066V120.145H211.455V117.754H209.334V116.225H211.455V113.934H213.066V116.225Z" fill="black"/>
<path d="M121.066 155.225H123.182V156.754H121.066V159.145H119.455V156.754H117.334V155.225H119.455V152.934H121.066V155.225Z" fill="black"/>
<path d="M171.066 155.225H173.182V156.754H171.066V159.145H169.455V156.754H167.334V155.225H169.455V152.934H171.066V155.225Z" fill="black"/>
<path d="M213.066 155.225H215.182V156.754H213.066V159.145H211.455V156.754H209.334V155.225H211.455V152.934H213.066V155.225Z" fill="black"/>
<path d="M121.066 194.225H123.182V195.754H121.066V198.145H119.455V195.754H117.334V194.225H119.455V191.934H121.066V194.225Z" fill="black"/>
<path d="M171.066 194.225H173.182V195.754H171.066V198.145H169.455V195.754H167.334V194.225H169.455V191.934H171.066V194.225Z" fill="black"/>
<path d="M213.066 194.225H215.182V195.754H213.066V198.145H211.455V195.754H209.334V194.225H211.455V191.934H213.066V194.225Z" fill="black"/>
<path d="M123.035 236.629H117.797V235.246H123.035V236.629ZM123.035 239.166H117.797V237.783H123.035V239.166Z" fill="black"/>
<path d="M173.035 236.629H167.797V235.246H173.035V236.629ZM173.035 239.166H167.797V237.783H173.035V239.166Z" fill="black"/>
<path d="M215.035 236.629H209.797V235.246H215.035V236.629ZM215.035 239.166H209.797V237.783H215.035V239.166Z" fill="black"/>
</g>
<defs>
<clipPath id="clip0">
<rect width="517" height="313" fill="white"/>
</clipPath>
</defs>
</svg>
