<svg width="550" height="124" viewBox="0 0 550 124" fill="none" xmlns="http://www.w3.org/2000/svg">
<rect width="550" height="124" fill="white"/>
<rect x="307" y="25" width="178" height="89" stroke="black" stroke-width="2"/>
<rect x="320" y="74" width="37" height="24" fill="#56CCF2" stroke="black" stroke-width="2"/>
<rect x="429" y="74" width="37" height="24" fill="#56CCF2" stroke="black" stroke-width="2"/>
<rect x="376" y="74" width="37" height="24" fill="#56CCF2" stroke="black" stroke-width="2"/>
<rect x="307" y="26" width="88" height="18" fill="black"/>
<path d="M315.238 30.6602L315.291 31.3691C315.74 30.8184 316.348 30.543 317.113 30.543C317.93 30.543 318.49 30.8652 318.795 31.5098C319.24 30.8652 319.875 30.543 320.699 30.543C321.387 30.543 321.898 30.7441 322.234 31.1465C322.57 31.5449 322.738 32.1465 322.738 32.9512V37H321.039V32.957C321.039 32.5977 320.969 32.3359 320.828 32.1719C320.688 32.0039 320.439 31.9199 320.084 31.9199C319.576 31.9199 319.225 32.1621 319.029 32.6465L319.035 37H317.342V32.9629C317.342 32.5957 317.27 32.3301 317.125 32.166C316.98 32.002 316.734 31.9199 316.387 31.9199C315.906 31.9199 315.559 32.1191 315.344 32.5176V37H313.65V30.6602H315.238ZM327.719 37C327.641 36.8477 327.584 36.6582 327.549 36.4316C327.139 36.8887 326.605 37.1172 325.949 37.1172C325.328 37.1172 324.812 36.9375 324.402 36.5781C323.996 36.2188 323.793 35.7656 323.793 35.2188C323.793 34.5469 324.041 34.0312 324.537 33.6719C325.037 33.3125 325.758 33.1309 326.699 33.127H327.479V32.7637C327.479 32.4707 327.402 32.2363 327.25 32.0605C327.102 31.8848 326.865 31.7969 326.541 31.7969C326.256 31.7969 326.031 31.8652 325.867 32.002C325.707 32.1387 325.627 32.3262 325.627 32.5645H323.934C323.934 32.1973 324.047 31.8574 324.273 31.5449C324.5 31.2324 324.82 30.9883 325.234 30.8125C325.648 30.6328 326.113 30.543 326.629 30.543C327.41 30.543 328.029 30.7402 328.486 31.1348C328.947 31.5254 329.178 32.0762 329.178 32.7871V35.5352C329.182 36.1367 329.266 36.5918 329.43 36.9004V37H327.719ZM326.318 35.8223C326.568 35.8223 326.799 35.7676 327.01 35.6582C327.221 35.5449 327.377 35.3945 327.479 35.207V34.1172H326.846C325.998 34.1172 325.547 34.4102 325.492 34.9961L325.486 35.0957C325.486 35.3066 325.561 35.4805 325.709 35.6172C325.857 35.7539 326.061 35.8223 326.318 35.8223ZM332.506 29.1016V30.6602H333.59V31.9023H332.506V35.0664C332.506 35.3008 332.551 35.4688 332.641 35.5703C332.73 35.6719 332.902 35.7227 333.156 35.7227C333.344 35.7227 333.51 35.709 333.654 35.6816V36.9648C333.322 37.0664 332.98 37.1172 332.629 37.1172C331.441 37.1172 330.836 36.5176 330.812 35.3184V31.9023H329.887V30.6602H330.812V29.1016H332.506ZM336.186 31.3516C336.635 30.8125 337.199 30.543 337.879 30.543C339.254 30.543 339.951 31.3418 339.971 32.9395V37H338.277V32.9863C338.277 32.623 338.199 32.3555 338.043 32.1836C337.887 32.0078 337.627 31.9199 337.264 31.9199C336.768 31.9199 336.408 32.1113 336.186 32.4941V37H334.492V28H336.186V31.3516ZM345.941 38.3242H340.604V37H345.941V38.3242ZM346.357 33.7832C346.357 32.8105 346.588 32.0273 347.049 31.4336C347.514 30.8398 348.139 30.543 348.924 30.543C349.619 30.543 350.16 30.7812 350.547 31.2578L350.617 30.6602H352.152V36.7891C352.152 37.3438 352.025 37.8262 351.771 38.2363C351.521 38.6465 351.168 38.959 350.711 39.1738C350.254 39.3887 349.719 39.4961 349.105 39.4961C348.641 39.4961 348.188 39.4023 347.746 39.2148C347.305 39.0312 346.971 38.793 346.744 38.5L347.494 37.4688C347.916 37.9414 348.428 38.1777 349.029 38.1777C349.479 38.1777 349.828 38.0566 350.078 37.8145C350.328 37.5762 350.453 37.2363 350.453 36.7949V36.4551C350.062 36.8965 349.549 37.1172 348.912 37.1172C348.15 37.1172 347.533 36.8203 347.061 36.2266C346.592 35.6289 346.357 34.8379 346.357 33.8535V33.7832ZM348.051 33.9062C348.051 34.4805 348.166 34.9316 348.396 35.2598C348.627 35.584 348.943 35.7461 349.346 35.7461C349.861 35.7461 350.23 35.5527 350.453 35.166V32.5C350.227 32.1133 349.861 31.9199 349.357 31.9199C348.951 31.9199 348.631 32.0859 348.396 32.418C348.166 32.75 348.051 33.2461 348.051 33.9062ZM357.021 32.248C356.791 32.2168 356.588 32.2012 356.412 32.2012C355.771 32.2012 355.352 32.418 355.152 32.8516V37H353.459V30.6602H355.059L355.105 31.416C355.445 30.834 355.916 30.543 356.518 30.543C356.705 30.543 356.881 30.5684 357.045 30.6191L357.021 32.248ZM361.34 37C361.262 36.8477 361.205 36.6582 361.17 36.4316C360.76 36.8887 360.227 37.1172 359.57 37.1172C358.949 37.1172 358.434 36.9375 358.023 36.5781C357.617 36.2188 357.414 35.7656 357.414 35.2188C357.414 34.5469 357.662 34.0312 358.158 33.6719C358.658 33.3125 359.379 33.1309 360.32 33.127H361.1V32.7637C361.1 32.4707 361.023 32.2363 360.871 32.0605C360.723 31.8848 360.486 31.7969 360.162 31.7969C359.877 31.7969 359.652 31.8652 359.488 32.002C359.328 32.1387 359.248 32.3262 359.248 32.5645H357.555C357.555 32.1973 357.668 31.8574 357.895 31.5449C358.121 31.2324 358.441 30.9883 358.855 30.8125C359.27 30.6328 359.734 30.543 360.25 30.543C361.031 30.543 361.65 30.7402 362.107 31.1348C362.568 31.5254 362.799 32.0762 362.799 32.7871V35.5352C362.803 36.1367 362.887 36.5918 363.051 36.9004V37H361.34ZM359.939 35.8223C360.189 35.8223 360.42 35.7676 360.631 35.6582C360.842 35.5449 360.998 35.3945 361.1 35.207V34.1172H360.467C359.619 34.1172 359.168 34.4102 359.113 34.9961L359.107 35.0957C359.107 35.3066 359.182 35.4805 359.33 35.6172C359.479 35.7539 359.682 35.8223 359.939 35.8223ZM363.836 33.7832C363.836 32.7949 364.057 32.0078 364.498 31.4219C364.943 30.8359 365.551 30.543 366.32 30.543C366.938 30.543 367.447 30.7734 367.85 31.2344V28H369.549V37H368.02L367.938 36.3262C367.516 36.8535 366.973 37.1172 366.309 37.1172C365.562 37.1172 364.963 36.8242 364.51 36.2383C364.061 35.6484 363.836 34.8301 363.836 33.7832ZM365.529 33.9062C365.529 34.5 365.633 34.9551 365.84 35.2715C366.047 35.5879 366.348 35.7461 366.742 35.7461C367.266 35.7461 367.635 35.5254 367.85 35.084V32.582C367.639 32.1406 367.273 31.9199 366.754 31.9199C365.938 31.9199 365.529 32.582 365.529 33.9062ZM373.779 37.1172C372.85 37.1172 372.092 36.832 371.506 36.2617C370.924 35.6914 370.633 34.9316 370.633 33.9824V33.8184C370.633 33.1816 370.756 32.6133 371.002 32.1133C371.248 31.6094 371.596 31.2227 372.045 30.9531C372.498 30.6797 373.014 30.543 373.592 30.543C374.459 30.543 375.141 30.8164 375.637 31.3633C376.137 31.9102 376.387 32.6855 376.387 33.6895V34.3809H372.35C372.404 34.7949 372.568 35.127 372.842 35.377C373.119 35.627 373.469 35.752 373.891 35.752C374.543 35.752 375.053 35.5156 375.42 35.043L376.252 35.9746C375.998 36.334 375.654 36.6152 375.221 36.8184C374.787 37.0176 374.307 37.1172 373.779 37.1172ZM373.586 31.9141C373.25 31.9141 372.977 32.0273 372.766 32.2539C372.559 32.4805 372.426 32.8047 372.367 33.2266H374.723V33.0918C374.715 32.7168 374.613 32.4277 374.418 32.2246C374.223 32.0176 373.945 31.9141 373.586 31.9141ZM380.787 35.248C380.787 35.041 380.684 34.8789 380.477 34.7617C380.273 34.6406 379.945 34.5332 379.492 34.4395C377.984 34.123 377.23 33.4824 377.23 32.5176C377.23 31.9551 377.463 31.4863 377.928 31.1113C378.396 30.7324 379.008 30.543 379.762 30.543C380.566 30.543 381.209 30.7324 381.689 31.1113C382.174 31.4902 382.416 31.9824 382.416 32.5879H380.723C380.723 32.3457 380.645 32.1465 380.488 31.9902C380.332 31.8301 380.088 31.75 379.756 31.75C379.471 31.75 379.25 31.8145 379.094 31.9434C378.938 32.0723 378.859 32.2363 378.859 32.4355C378.859 32.623 378.947 32.7754 379.123 32.8926C379.303 33.0059 379.604 33.1055 380.025 33.1914C380.447 33.2734 380.803 33.3672 381.092 33.4727C381.986 33.8008 382.434 34.3691 382.434 35.1777C382.434 35.7559 382.186 36.2246 381.689 36.584C381.193 36.9395 380.553 37.1172 379.768 37.1172C379.236 37.1172 378.764 37.0234 378.35 36.8359C377.939 36.6445 377.617 36.3848 377.383 36.0566C377.148 35.7246 377.031 35.3672 377.031 34.9844H378.637C378.652 35.2852 378.764 35.5156 378.971 35.6758C379.178 35.8359 379.455 35.916 379.803 35.916C380.127 35.916 380.371 35.8555 380.535 35.7344C380.703 35.6094 380.787 35.4473 380.787 35.248Z" fill="white"/>
<path d="M309.438 19H307.738V12.6602H309.438V19ZM307.639 11.0195C307.639 10.7656 307.723 10.5566 307.891 10.3926C308.062 10.2285 308.295 10.1465 308.588 10.1465C308.877 10.1465 309.107 10.2285 309.279 10.3926C309.451 10.5566 309.537 10.7656 309.537 11.0195C309.537 11.2773 309.449 11.4883 309.273 11.6523C309.102 11.8164 308.873 11.8984 308.588 11.8984C308.303 11.8984 308.072 11.8164 307.896 11.6523C307.725 11.4883 307.639 11.2773 307.639 11.0195ZM312.396 12.6602L312.449 13.3926C312.902 12.8262 313.51 12.543 314.271 12.543C314.943 12.543 315.443 12.7402 315.771 13.1348C316.1 13.5293 316.268 14.1191 316.275 14.9043V19H314.582V14.9453C314.582 14.5859 314.504 14.3262 314.348 14.166C314.191 14.002 313.932 13.9199 313.568 13.9199C313.092 13.9199 312.734 14.123 312.496 14.5293V19H310.803V12.6602H312.396ZM319.592 11.1016V12.6602H320.676V13.9023H319.592V17.0664C319.592 17.3008 319.637 17.4688 319.727 17.5703C319.816 17.6719 319.988 17.7227 320.242 17.7227C320.43 17.7227 320.596 17.709 320.74 17.6816V18.9648C320.408 19.0664 320.066 19.1172 319.715 19.1172C318.527 19.1172 317.922 18.5176 317.898 17.3184V13.9023H316.973V12.6602H317.898V11.1016H319.592ZM324.537 19.1172C323.607 19.1172 322.85 18.832 322.264 18.2617C321.682 17.6914 321.391 16.9316 321.391 15.9824V15.8184C321.391 15.1816 321.514 14.6133 321.76 14.1133C322.006 13.6094 322.354 13.2227 322.803 12.9531C323.256 12.6797 323.771 12.543 324.35 12.543C325.217 12.543 325.898 12.8164 326.395 13.3633C326.895 13.9102 327.145 14.6855 327.145 15.6895V16.3809H323.107C323.162 16.7949 323.326 17.127 323.6 17.377C323.877 17.627 324.227 17.752 324.648 17.752C325.301 17.752 325.811 17.5156 326.178 17.043L327.01 17.9746C326.756 18.334 326.412 18.6152 325.979 18.8184C325.545 19.0176 325.064 19.1172 324.537 19.1172ZM324.344 13.9141C324.008 13.9141 323.734 14.0273 323.523 14.2539C323.316 14.4805 323.184 14.8047 323.125 15.2266H325.48V15.0918C325.473 14.7168 325.371 14.4277 325.176 14.2246C324.98 14.0176 324.703 13.9141 324.344 13.9141ZM327.865 15.7832C327.865 14.8105 328.096 14.0273 328.557 13.4336C329.021 12.8398 329.646 12.543 330.432 12.543C331.127 12.543 331.668 12.7812 332.055 13.2578L332.125 12.6602H333.66V18.7891C333.66 19.3438 333.533 19.8262 333.279 20.2363C333.029 20.6465 332.676 20.959 332.219 21.1738C331.762 21.3887 331.227 21.4961 330.613 21.4961C330.148 21.4961 329.695 21.4023 329.254 21.2148C328.812 21.0312 328.479 20.793 328.252 20.5L329.002 19.4688C329.424 19.9414 329.936 20.1777 330.537 20.1777C330.986 20.1777 331.336 20.0566 331.586 19.8145C331.836 19.5762 331.961 19.2363 331.961 18.7949V18.4551C331.57 18.8965 331.057 19.1172 330.42 19.1172C329.658 19.1172 329.041 18.8203 328.568 18.2266C328.1 17.6289 327.865 16.8379 327.865 15.8535V15.7832ZM329.559 15.9062C329.559 16.4805 329.674 16.9316 329.904 17.2598C330.135 17.584 330.451 17.7461 330.854 17.7461C331.369 17.7461 331.738 17.5527 331.961 17.166V14.5C331.734 14.1133 331.369 13.9199 330.865 13.9199C330.459 13.9199 330.139 14.0859 329.904 14.418C329.674 14.75 329.559 15.2461 329.559 15.9062ZM337.885 19.1172C336.955 19.1172 336.197 18.832 335.611 18.2617C335.029 17.6914 334.738 16.9316 334.738 15.9824V15.8184C334.738 15.1816 334.861 14.6133 335.107 14.1133C335.354 13.6094 335.701 13.2227 336.15 12.9531C336.604 12.6797 337.119 12.543 337.697 12.543C338.564 12.543 339.246 12.8164 339.742 13.3633C340.242 13.9102 340.492 14.6855 340.492 15.6895V16.3809H336.455C336.51 16.7949 336.674 17.127 336.947 17.377C337.225 17.627 337.574 17.752 337.996 17.752C338.648 17.752 339.158 17.5156 339.525 17.043L340.357 17.9746C340.104 18.334 339.76 18.6152 339.326 18.8184C338.893 19.0176 338.412 19.1172 337.885 19.1172ZM337.691 13.9141C337.355 13.9141 337.082 14.0273 336.871 14.2539C336.664 14.4805 336.531 14.8047 336.473 15.2266H338.828V15.0918C338.82 14.7168 338.719 14.4277 338.523 14.2246C338.328 14.0176 338.051 13.9141 337.691 13.9141ZM345.021 14.248C344.791 14.2168 344.588 14.2012 344.412 14.2012C343.771 14.2012 343.352 14.418 343.152 14.8516V19H341.459V12.6602H343.059L343.105 13.416C343.445 12.834 343.916 12.543 344.518 12.543C344.705 12.543 344.881 12.5684 345.045 12.6191L345.021 14.248ZM351.203 16.9316L352.381 12.6602H354.15L352.012 19H350.395L348.256 12.6602H350.025L351.203 16.9316ZM357.736 19.1172C356.807 19.1172 356.049 18.832 355.463 18.2617C354.881 17.6914 354.59 16.9316 354.59 15.9824V15.8184C354.59 15.1816 354.713 14.6133 354.959 14.1133C355.205 13.6094 355.553 13.2227 356.002 12.9531C356.455 12.6797 356.971 12.543 357.549 12.543C358.416 12.543 359.098 12.8164 359.594 13.3633C360.094 13.9102 360.344 14.6855 360.344 15.6895V16.3809H356.307C356.361 16.7949 356.525 17.127 356.799 17.377C357.076 17.627 357.426 17.752 357.848 17.752C358.5 17.752 359.01 17.5156 359.377 17.043L360.209 17.9746C359.955 18.334 359.611 18.6152 359.178 18.8184C358.744 19.0176 358.264 19.1172 357.736 19.1172ZM357.543 13.9141C357.207 13.9141 356.934 14.0273 356.723 14.2539C356.516 14.4805 356.383 14.8047 356.324 15.2266H358.68V15.0918C358.672 14.7168 358.57 14.4277 358.375 14.2246C358.18 14.0176 357.902 13.9141 357.543 13.9141ZM363.947 17.752C364.26 17.752 364.514 17.666 364.709 17.4941C364.904 17.3223 365.006 17.0938 365.014 16.8086H366.602C366.598 17.2383 366.48 17.6328 366.25 17.9922C366.02 18.3477 365.703 18.625 365.301 18.8242C364.902 19.0195 364.461 19.1172 363.977 19.1172C363.07 19.1172 362.355 18.8301 361.832 18.2559C361.309 17.6777 361.047 16.8809 361.047 15.8652V15.7539C361.047 14.7773 361.307 13.998 361.826 13.416C362.346 12.834 363.059 12.543 363.965 12.543C364.758 12.543 365.393 12.7695 365.869 13.2227C366.35 13.6719 366.594 14.2715 366.602 15.0215H365.014C365.006 14.6934 364.904 14.4277 364.709 14.2246C364.514 14.0176 364.256 13.9141 363.936 13.9141C363.541 13.9141 363.242 14.0586 363.039 14.3477C362.84 14.6328 362.74 15.0977 362.74 15.7422V15.918C362.74 16.5703 362.84 17.0391 363.039 17.3242C363.238 17.6094 363.541 17.752 363.947 17.752ZM369.596 11.1016V12.6602H370.68V13.9023H369.596V17.0664C369.596 17.3008 369.641 17.4688 369.73 17.5703C369.82 17.6719 369.992 17.7227 370.246 17.7227C370.434 17.7227 370.6 17.709 370.744 17.6816V18.9648C370.412 19.0664 370.07 19.1172 369.719 19.1172C368.531 19.1172 367.926 18.5176 367.902 17.3184V13.9023H366.977V12.6602H367.902V11.1016H369.596ZM371.184 15.7715C371.184 15.1426 371.305 14.582 371.547 14.0898C371.789 13.5977 372.137 13.2168 372.59 12.9473C373.047 12.6777 373.576 12.543 374.178 12.543C375.033 12.543 375.73 12.8047 376.27 13.3281C376.812 13.8516 377.115 14.5625 377.178 15.4609L377.189 15.8945C377.189 16.8672 376.918 17.6484 376.375 18.2383C375.832 18.8242 375.104 19.1172 374.189 19.1172C373.275 19.1172 372.545 18.8242 371.998 18.2383C371.455 17.6523 371.184 16.8555 371.184 15.8477V15.7715ZM372.877 15.8945C372.877 16.4961 372.99 16.957 373.217 17.2773C373.443 17.5938 373.768 17.752 374.189 17.752C374.6 17.752 374.92 17.5957 375.15 17.2832C375.381 16.9668 375.496 16.4629 375.496 15.7715C375.496 15.1816 375.381 14.7246 375.15 14.4004C374.92 14.0762 374.596 13.9141 374.178 13.9141C373.764 13.9141 373.443 14.0762 373.217 14.4004C372.99 14.7207 372.877 15.2188 372.877 15.8945ZM381.795 14.248C381.564 14.2168 381.361 14.2012 381.186 14.2012C380.545 14.2012 380.125 14.418 379.926 14.8516V19H378.232V12.6602H379.832L379.879 13.416C380.219 12.834 380.689 12.543 381.291 12.543C381.479 12.543 381.654 12.5684 381.818 12.6191L381.795 14.248Z" fill="black"/>
<path d="M334.776 86.8848C334.114 87.5352 333.341 87.8604 332.456 87.8604C331.325 87.8604 330.42 87.4736 329.74 86.7002C329.061 85.9209 328.721 84.8721 328.721 83.5537C328.721 82.7158 328.902 81.9482 329.266 81.251C329.635 80.5479 330.147 80.0029 330.804 79.6162C331.46 79.2236 332.198 79.0273 333.019 79.0273C333.862 79.0273 334.612 79.2383 335.269 79.6602C335.925 80.082 336.435 80.6885 336.798 81.4795C337.161 82.2705 337.346 83.1758 337.352 84.1953V85.1357C337.352 87.2686 336.821 88.9443 335.761 90.1631C334.7 91.3818 333.197 92.0322 331.252 92.1143L330.628 92.123V90.0049L331.19 89.9961C333.399 89.8965 334.595 88.8594 334.776 86.8848ZM333.08 85.918C333.49 85.918 333.842 85.8125 334.135 85.6016C334.434 85.3906 334.659 85.1357 334.812 84.8369V83.791C334.812 82.9297 334.647 82.2617 334.319 81.7871C333.991 81.3125 333.552 81.0752 333.001 81.0752C332.491 81.0752 332.072 81.3096 331.744 81.7783C331.416 82.2412 331.252 82.8242 331.252 83.5273C331.252 84.2246 331.41 84.7988 331.727 85.25C332.049 85.6953 332.5 85.918 333.08 85.918ZM347.942 92H339.171V90.2598L343.311 85.8477C343.879 85.2266 344.298 84.6846 344.567 84.2217C344.843 83.7588 344.98 83.3193 344.98 82.9033C344.98 82.335 344.837 81.8896 344.55 81.5674C344.263 81.2393 343.853 81.0752 343.319 81.0752C342.745 81.0752 342.291 81.2744 341.957 81.6729C341.629 82.0654 341.465 82.584 341.465 83.2285H338.916C338.916 82.4492 339.101 81.7373 339.47 81.0928C339.845 80.4482 340.372 79.9443 341.052 79.5811C341.731 79.2119 342.502 79.0273 343.363 79.0273C344.682 79.0273 345.704 79.3438 346.431 79.9766C347.163 80.6094 347.529 81.5029 347.529 82.6572C347.529 83.29 347.365 83.9346 347.037 84.5908C346.709 85.2471 346.146 86.0117 345.35 86.8848L342.44 89.9521H347.942V92ZM393.707 82.6045C393.707 83.2256 393.552 83.7764 393.241 84.2568C392.931 84.7373 392.503 85.1211 391.958 85.4082C392.579 85.707 393.071 86.1201 393.435 86.6475C393.798 87.1689 393.979 87.7842 393.979 88.4932C393.979 89.6299 393.593 90.5293 392.819 91.1914C392.046 91.8477 390.994 92.1758 389.664 92.1758C388.334 92.1758 387.279 91.8447 386.5 91.1826C385.721 90.5205 385.331 89.624 385.331 88.4932C385.331 87.7842 385.513 87.166 385.876 86.6387C386.239 86.1113 386.729 85.7012 387.344 85.4082C386.799 85.1211 386.371 84.7373 386.061 84.2568C385.756 83.7764 385.604 83.2256 385.604 82.6045C385.604 81.5146 385.967 80.6475 386.693 80.0029C387.42 79.3525 388.407 79.0273 389.655 79.0273C390.897 79.0273 391.882 79.3496 392.608 79.9941C393.341 80.6328 393.707 81.5029 393.707 82.6045ZM391.431 88.3086C391.431 87.752 391.27 87.3066 390.947 86.9727C390.625 86.6387 390.191 86.4717 389.646 86.4717C389.107 86.4717 388.677 86.6387 388.354 86.9727C388.032 87.3008 387.871 87.7461 387.871 88.3086C387.871 88.8535 388.029 89.293 388.346 89.627C388.662 89.9609 389.102 90.1279 389.664 90.1279C390.215 90.1279 390.646 89.9668 390.956 89.6445C391.272 89.3223 391.431 88.877 391.431 88.3086ZM391.167 82.7275C391.167 82.2295 391.035 81.8311 390.771 81.5322C390.508 81.2275 390.136 81.0752 389.655 81.0752C389.181 81.0752 388.812 81.2217 388.548 81.5146C388.284 81.8076 388.152 82.2119 388.152 82.7275C388.152 83.2373 388.284 83.6475 388.548 83.958C388.812 84.2686 389.184 84.4238 389.664 84.4238C390.145 84.4238 390.514 84.2686 390.771 83.958C391.035 83.6475 391.167 83.2373 391.167 82.7275ZM404.403 80.627L399.455 92H396.774L401.731 81.2598H395.368V79.2031H404.403V80.627ZM445.756 82.6045C445.756 83.2256 445.601 83.7764 445.29 84.2568C444.979 84.7373 444.552 85.1211 444.007 85.4082C444.628 85.707 445.12 86.1201 445.483 86.6475C445.847 87.1689 446.028 87.7842 446.028 88.4932C446.028 89.6299 445.642 90.5293 444.868 91.1914C444.095 91.8477 443.043 92.1758 441.713 92.1758C440.383 92.1758 439.328 91.8447 438.549 91.1826C437.77 90.5205 437.38 89.624 437.38 88.4932C437.38 87.7842 437.562 87.166 437.925 86.6387C438.288 86.1113 438.777 85.7012 439.393 85.4082C438.848 85.1211 438.42 84.7373 438.109 84.2568C437.805 83.7764 437.652 83.2256 437.652 82.6045C437.652 81.5146 438.016 80.6475 438.742 80.0029C439.469 79.3525 440.456 79.0273 441.704 79.0273C442.946 79.0273 443.931 79.3496 444.657 79.9941C445.39 80.6328 445.756 81.5029 445.756 82.6045ZM443.479 88.3086C443.479 87.752 443.318 87.3066 442.996 86.9727C442.674 86.6387 442.24 86.4717 441.695 86.4717C441.156 86.4717 440.726 86.6387 440.403 86.9727C440.081 87.3008 439.92 87.7461 439.92 88.3086C439.92 88.8535 440.078 89.293 440.395 89.627C440.711 89.9609 441.15 90.1279 441.713 90.1279C442.264 90.1279 442.694 89.9668 443.005 89.6445C443.321 89.3223 443.479 88.877 443.479 88.3086ZM443.216 82.7275C443.216 82.2295 443.084 81.8311 442.82 81.5322C442.557 81.2275 442.185 81.0752 441.704 81.0752C441.229 81.0752 440.86 81.2217 440.597 81.5146C440.333 81.8076 440.201 82.2119 440.201 82.7275C440.201 83.2373 440.333 83.6475 440.597 83.958C440.86 84.2686 441.232 84.4238 441.713 84.4238C442.193 84.4238 442.562 84.2686 442.82 83.958C443.084 83.6475 443.216 83.2373 443.216 82.7275ZM448.129 85.707L448.867 79.2031H456.039V81.3213H450.95L450.634 84.0723C451.237 83.75 451.879 83.5889 452.559 83.5889C453.777 83.5889 454.732 83.9668 455.424 84.7227C456.115 85.4785 456.461 86.5361 456.461 87.8955C456.461 88.7217 456.285 89.4629 455.934 90.1191C455.588 90.7695 455.09 91.2764 454.439 91.6396C453.789 91.9971 453.021 92.1758 452.137 92.1758C451.363 92.1758 450.646 92.0205 449.983 91.71C449.321 91.3936 448.797 90.9512 448.41 90.3828C448.029 89.8145 447.827 89.167 447.804 88.4404H450.317C450.37 88.9736 450.555 89.3896 450.871 89.6885C451.193 89.9814 451.612 90.1279 452.128 90.1279C452.702 90.1279 453.145 89.9229 453.455 89.5127C453.766 89.0967 453.921 88.5107 453.921 87.7549C453.921 87.0283 453.742 86.4717 453.385 86.085C453.027 85.6982 452.521 85.5049 451.864 85.5049C451.261 85.5049 450.771 85.6631 450.396 85.9795L450.15 86.208L448.129 85.707Z" fill="black"/>
<path d="M320.926 62.334L321.59 62.7197C321.31 63.1624 321.165 63.6117 321.155 64.0674V64.8828H320.037V64.1504C320.037 63.8444 320.122 63.5189 320.291 63.1738C320.464 62.8255 320.675 62.5456 320.926 62.334ZM322.601 62.334L323.265 62.7197C322.985 63.1624 322.84 63.6117 322.83 64.0674V64.8828H321.712V64.1504C321.712 63.8444 321.797 63.5189 321.966 63.1738C322.138 62.8255 322.35 62.5456 322.601 62.334ZM328.465 66.9189H325.652V68.8232H328.953V70H324.188V62.8906H328.943V64.0771H325.652V65.7715H328.465V66.9189ZM331.731 66.2939L332.62 64.7168H334.129L332.625 67.3047L334.192 70H332.679L331.736 68.3398L330.799 70H329.28L330.848 67.3047L329.349 64.7168H330.862L331.731 66.2939ZM337.869 70C337.804 69.873 337.757 69.7152 337.728 69.5264C337.386 69.9072 336.941 70.0977 336.395 70.0977C335.877 70.0977 335.447 69.9479 335.105 69.6484C334.767 69.349 334.598 68.9714 334.598 68.5156C334.598 67.9557 334.804 67.526 335.218 67.2266C335.634 66.9271 336.235 66.7757 337.02 66.7725H337.669V66.4697C337.669 66.2256 337.605 66.0303 337.479 65.8838C337.355 65.7373 337.158 65.6641 336.888 65.6641C336.65 65.6641 336.463 65.721 336.326 65.835C336.193 65.9489 336.126 66.1051 336.126 66.3037H334.715C334.715 65.9977 334.809 65.7145 334.998 65.4541C335.187 65.1937 335.454 64.9902 335.799 64.8438C336.144 64.694 336.531 64.6191 336.961 64.6191C337.612 64.6191 338.128 64.7835 338.509 65.1123C338.893 65.4378 339.085 65.8968 339.085 66.4893V68.7793C339.088 69.2806 339.158 69.6598 339.295 69.917V70H337.869ZM336.702 69.0186C336.91 69.0186 337.103 68.973 337.278 68.8818C337.454 68.7874 337.584 68.6621 337.669 68.5059V67.5977H337.142C336.435 67.5977 336.059 67.8418 336.014 68.3301L336.009 68.4131C336.009 68.5889 336.071 68.7337 336.194 68.8477C336.318 68.9616 336.487 69.0186 336.702 69.0186ZM341.492 64.7168L341.536 65.3076C341.91 64.8486 342.417 64.6191 343.055 64.6191C343.735 64.6191 344.202 64.8877 344.456 65.4248C344.827 64.8877 345.356 64.6191 346.043 64.6191C346.616 64.6191 347.042 64.7868 347.322 65.1221C347.602 65.4541 347.742 65.9554 347.742 66.626V70H346.326V66.6309C346.326 66.3314 346.268 66.1133 346.15 65.9766C346.033 65.8366 345.826 65.7666 345.53 65.7666C345.107 65.7666 344.814 65.9684 344.651 66.3721L344.656 70H343.245V66.6357C343.245 66.3298 343.185 66.1084 343.064 65.9717C342.944 65.835 342.739 65.7666 342.449 65.7666C342.049 65.7666 341.759 65.9326 341.58 66.2646V70H340.169V64.7168H341.492ZM351.692 68.54C351.692 68.3675 351.606 68.2324 351.434 68.1348C351.264 68.0339 350.991 67.9443 350.613 67.8662C349.357 67.6025 348.729 67.0687 348.729 66.2646C348.729 65.7959 348.922 65.4053 349.31 65.0928C349.7 64.777 350.21 64.6191 350.838 64.6191C351.508 64.6191 352.044 64.777 352.444 65.0928C352.848 65.4085 353.05 65.8187 353.05 66.3232H351.639C351.639 66.1214 351.574 65.9554 351.443 65.8252C351.313 65.6917 351.11 65.625 350.833 65.625C350.595 65.625 350.411 65.6787 350.281 65.7861C350.151 65.8936 350.086 66.0303 350.086 66.1963C350.086 66.3525 350.159 66.4795 350.306 66.5771C350.455 66.6715 350.706 66.7546 351.058 66.8262C351.409 66.8945 351.705 66.9727 351.946 67.0605C352.692 67.334 353.064 67.8076 353.064 68.4814C353.064 68.9632 352.858 69.3538 352.444 69.6533C352.031 69.9495 351.497 70.0977 350.843 70.0977C350.4 70.0977 350.006 70.0195 349.661 69.8633C349.319 69.7038 349.051 69.4873 348.855 69.2139C348.66 68.9372 348.562 68.6393 348.562 68.3203H349.9C349.913 68.571 350.006 68.763 350.179 68.8965C350.351 69.0299 350.582 69.0967 350.872 69.0967C351.142 69.0967 351.346 69.0462 351.482 68.9453C351.622 68.8411 351.692 68.7061 351.692 68.54ZM354.451 65.0732L353.787 64.6875C354.067 64.248 354.212 63.7939 354.222 63.3252V62.5H355.345V63.2568C355.345 63.5498 355.263 63.8672 355.101 64.209C354.938 64.5508 354.721 64.8389 354.451 65.0732ZM356.146 65.0732L355.481 64.6875C355.761 64.248 355.906 63.7939 355.916 63.3252V62.5H357.039V63.2568C357.039 63.5498 356.958 63.8672 356.795 64.209C356.632 64.5508 356.416 64.8389 356.146 65.0732ZM368.924 62.334L369.588 62.7197C369.308 63.1624 369.163 63.6117 369.153 64.0674V64.8828H368.035V64.1504C368.035 63.8444 368.12 63.5189 368.289 63.1738C368.462 62.8255 368.673 62.5456 368.924 62.334ZM370.599 62.334L371.263 62.7197C370.983 63.1624 370.838 63.6117 370.828 64.0674V64.8828H369.71V64.1504C369.71 63.8444 369.795 63.5189 369.964 63.1738C370.136 62.8255 370.348 62.5456 370.599 62.334ZM377.972 70H376.507V66.9531H373.65V70H372.186V62.8906H373.65V65.7715H376.507V62.8906H377.972V70ZM378.943 67.3096C378.943 66.7855 379.044 66.3184 379.246 65.9082C379.448 65.498 379.738 65.1807 380.115 64.9561C380.496 64.7314 380.937 64.6191 381.438 64.6191C382.151 64.6191 382.732 64.8372 383.182 65.2734C383.634 65.7096 383.886 66.3021 383.938 67.0508L383.948 67.4121C383.948 68.2227 383.722 68.8737 383.27 69.3652C382.817 69.8535 382.21 70.0977 381.448 70.0977C380.687 70.0977 380.078 69.8535 379.622 69.3652C379.17 68.877 378.943 68.2129 378.943 67.373V67.3096ZM380.354 67.4121C380.354 67.9134 380.449 68.2975 380.638 68.5645C380.826 68.8281 381.097 68.96 381.448 68.96C381.79 68.96 382.057 68.8298 382.249 68.5693C382.441 68.3057 382.537 67.8857 382.537 67.3096C382.537 66.818 382.441 66.4372 382.249 66.167C382.057 65.8968 381.787 65.7617 381.438 65.7617C381.093 65.7617 380.826 65.8968 380.638 66.167C380.449 66.4339 380.354 66.849 380.354 67.4121ZM386.141 64.7168L386.185 65.3076C386.559 64.8486 387.065 64.6191 387.703 64.6191C388.383 64.6191 388.851 64.8877 389.104 65.4248C389.476 64.8877 390.005 64.6191 390.691 64.6191C391.264 64.6191 391.691 64.7868 391.971 65.1221C392.251 65.4541 392.391 65.9554 392.391 66.626V70H390.975V66.6309C390.975 66.3314 390.916 66.1133 390.799 65.9766C390.682 65.8366 390.475 65.7666 390.179 65.7666C389.756 65.7666 389.463 65.9684 389.3 66.3721L389.305 70H387.894V66.6357C387.894 66.3298 387.833 66.1084 387.713 65.9717C387.592 65.835 387.387 65.7666 387.098 65.7666C386.697 65.7666 386.408 65.9326 386.229 66.2646V70H384.817V64.7168H386.141ZM395.911 70.0977C395.136 70.0977 394.505 69.86 394.017 69.3848C393.532 68.9095 393.289 68.2764 393.289 67.4854V67.3486C393.289 66.818 393.392 66.3444 393.597 65.9277C393.802 65.5078 394.091 65.1855 394.466 64.9609C394.843 64.7331 395.273 64.6191 395.755 64.6191C396.478 64.6191 397.046 64.847 397.459 65.3027C397.876 65.7585 398.084 66.4046 398.084 67.2412V67.8174H394.72C394.765 68.1624 394.902 68.4391 395.13 68.6475C395.361 68.8558 395.652 68.96 396.004 68.96C396.548 68.96 396.972 68.763 397.278 68.3691L397.972 69.1455C397.76 69.445 397.474 69.6794 397.112 69.8486C396.751 70.0146 396.351 70.0977 395.911 70.0977ZM395.75 65.7617C395.47 65.7617 395.242 65.8561 395.066 66.0449C394.894 66.2337 394.783 66.5039 394.734 66.8555H396.697V66.7432C396.691 66.4307 396.606 66.1898 396.443 66.0205C396.281 65.848 396.049 65.7617 395.75 65.7617ZM403.484 68.0811L404.178 64.7168H405.54L404.192 70H403.011L402.01 66.6748L401.009 70H399.832L398.484 64.7168H399.847L400.535 68.0762L401.502 64.7168H402.522L403.484 68.0811ZM406.023 67.3096C406.023 66.7855 406.124 66.3184 406.326 65.9082C406.528 65.498 406.818 65.1807 407.195 64.9561C407.576 64.7314 408.017 64.6191 408.519 64.6191C409.231 64.6191 409.812 64.8372 410.262 65.2734C410.714 65.7096 410.966 66.3021 411.019 67.0508L411.028 67.4121C411.028 68.2227 410.802 68.8737 410.35 69.3652C409.897 69.8535 409.29 70.0977 408.528 70.0977C407.767 70.0977 407.158 69.8535 406.702 69.3652C406.25 68.877 406.023 68.2129 406.023 67.373V67.3096ZM407.435 67.4121C407.435 67.9134 407.529 68.2975 407.718 68.5645C407.907 68.8281 408.177 68.96 408.528 68.96C408.87 68.96 409.137 68.8298 409.329 68.5693C409.521 68.3057 409.617 67.8857 409.617 67.3096C409.617 66.818 409.521 66.4372 409.329 66.167C409.137 65.8968 408.867 65.7617 408.519 65.7617C408.174 65.7617 407.907 65.8968 407.718 66.167C407.529 66.4339 407.435 66.849 407.435 67.4121ZM414.866 66.04C414.674 66.014 414.505 66.001 414.358 66.001C413.825 66.001 413.475 66.1816 413.309 66.543V70H411.897V64.7168H413.23L413.27 65.3467C413.553 64.8617 413.945 64.6191 414.446 64.6191C414.603 64.6191 414.749 64.6403 414.886 64.6826L414.866 66.04ZM417.469 67.8809L416.961 68.3887V70H415.55V62.5H416.961V66.6553L417.234 66.3037L418.587 64.7168H420.281L418.372 66.9189L420.447 70H418.826L417.469 67.8809ZM421.365 65.0732L420.701 64.6875C420.981 64.248 421.126 63.7939 421.136 63.3252V62.5H422.259V63.2568C422.259 63.5498 422.177 63.8672 422.015 64.209C421.852 64.5508 421.635 64.8389 421.365 65.0732ZM423.06 65.0732L422.396 64.6875C422.675 64.248 422.82 63.7939 422.83 63.3252V62.5H423.953V63.2568C423.953 63.5498 423.872 63.8672 423.709 64.209C423.546 64.5508 423.33 64.8389 423.06 65.0732ZM427.947 65.0732L427.283 64.6875C427.563 64.248 427.708 63.7939 427.718 63.3252V62.5H428.841V63.2568C428.841 63.5498 428.759 63.8672 428.597 64.209C428.434 64.5508 428.217 64.8389 427.947 65.0732ZM429.642 65.0732L428.978 64.6875C429.257 64.248 429.402 63.7939 429.412 63.3252V62.5H430.535V63.2568C430.535 63.5498 430.454 63.8672 430.291 64.209C430.128 64.5508 429.912 64.8389 429.642 65.0732ZM433.123 67.4951V70H431.658V62.8906H434.432C434.965 62.8906 435.434 62.9883 435.838 63.1836C436.245 63.3789 436.557 63.6572 436.775 64.0186C436.993 64.3766 437.103 64.7852 437.103 65.2441C437.103 65.9408 436.863 66.4909 436.385 66.8945C435.91 67.2949 435.25 67.4951 434.407 67.4951H433.123ZM433.123 66.3086H434.432C434.819 66.3086 435.114 66.2174 435.315 66.0352C435.521 65.8529 435.623 65.5924 435.623 65.2539C435.623 64.9056 435.521 64.624 435.315 64.4092C435.11 64.1943 434.827 64.0837 434.466 64.0771H433.123V66.3086ZM440.989 66.04C440.797 66.014 440.628 66.001 440.481 66.001C439.948 66.001 439.598 66.1816 439.432 66.543V70H438.021V64.7168H439.354L439.393 65.3467C439.676 64.8617 440.068 64.6191 440.569 64.6191C440.726 64.6191 440.872 64.6403 441.009 64.6826L440.989 66.04ZM441.277 67.3096C441.277 66.7855 441.378 66.3184 441.58 65.9082C441.782 65.498 442.072 65.1807 442.449 64.9561C442.83 64.7314 443.271 64.6191 443.772 64.6191C444.485 64.6191 445.066 64.8372 445.516 65.2734C445.968 65.7096 446.22 66.3021 446.272 67.0508L446.282 67.4121C446.282 68.2227 446.056 68.8737 445.604 69.3652C445.151 69.8535 444.544 70.0977 443.782 70.0977C443.021 70.0977 442.412 69.8535 441.956 69.3652C441.504 68.877 441.277 68.2129 441.277 67.373V67.3096ZM442.688 67.4121C442.688 67.9134 442.783 68.2975 442.972 68.5645C443.16 68.8281 443.431 68.96 443.782 68.96C444.124 68.96 444.391 68.8298 444.583 68.5693C444.775 68.3057 444.871 67.8857 444.871 67.3096C444.871 66.818 444.775 66.4372 444.583 66.167C444.391 65.8968 444.121 65.7617 443.772 65.7617C443.427 65.7617 443.16 65.8968 442.972 66.167C442.783 66.4339 442.688 66.849 442.688 67.4121ZM448.646 64.7168V70.2881C448.646 70.8708 448.491 71.3232 448.182 71.6455C447.872 71.971 447.426 72.1338 446.844 72.1338C446.6 72.1338 446.367 72.1061 446.146 72.0508V70.9326C446.315 70.9619 446.463 70.9766 446.59 70.9766C447.016 70.9766 447.229 70.7503 447.229 70.2979V64.7168H448.646ZM447.117 63.3496C447.117 63.138 447.187 62.9639 447.327 62.8271C447.47 62.6904 447.664 62.6221 447.908 62.6221C448.152 62.6221 448.344 62.6904 448.484 62.8271C448.628 62.9639 448.699 63.138 448.699 63.3496C448.699 63.5645 448.626 63.7402 448.479 63.877C448.336 64.0137 448.146 64.082 447.908 64.082C447.671 64.082 447.479 64.0137 447.332 63.877C447.189 63.7402 447.117 63.5645 447.117 63.3496ZM452.181 70.0977C451.406 70.0977 450.774 69.86 450.286 69.3848C449.801 68.9095 449.559 68.2764 449.559 67.4854V67.3486C449.559 66.818 449.661 66.3444 449.866 65.9277C450.071 65.5078 450.361 65.1855 450.735 64.9609C451.113 64.7331 451.543 64.6191 452.024 64.6191C452.747 64.6191 453.315 64.847 453.729 65.3027C454.145 65.7585 454.354 66.4046 454.354 67.2412V67.8174H450.989C451.035 68.1624 451.172 68.4391 451.399 68.6475C451.631 68.8558 451.922 68.96 452.273 68.96C452.817 68.96 453.242 68.763 453.548 68.3691L454.241 69.1455C454.03 69.445 453.743 69.6794 453.382 69.8486C453.021 70.0146 452.62 70.0977 452.181 70.0977ZM452.02 65.7617C451.74 65.7617 451.512 65.8561 451.336 66.0449C451.163 66.2337 451.053 66.5039 451.004 66.8555H452.967V66.7432C452.96 66.4307 452.876 66.1898 452.713 66.0205C452.55 65.848 452.319 65.7617 452.02 65.7617ZM457.356 68.96C457.617 68.96 457.828 68.8883 457.991 68.7451C458.154 68.6019 458.239 68.4115 458.245 68.1738H459.568C459.565 68.5319 459.467 68.8607 459.275 69.1602C459.083 69.4564 458.82 69.6875 458.484 69.8535C458.152 70.0163 457.785 70.0977 457.381 70.0977C456.626 70.0977 456.03 69.8584 455.594 69.3799C455.158 68.8981 454.939 68.234 454.939 67.3877V67.2949C454.939 66.4811 455.156 65.8317 455.589 65.3467C456.022 64.8617 456.616 64.6191 457.371 64.6191C458.032 64.6191 458.561 64.8079 458.958 65.1855C459.358 65.5599 459.562 66.0596 459.568 66.6846H458.245C458.239 66.4111 458.154 66.1898 457.991 66.0205C457.828 65.848 457.614 65.7617 457.347 65.7617C457.018 65.7617 456.769 65.8822 456.6 66.123C456.434 66.3607 456.351 66.748 456.351 67.2852V67.4316C456.351 67.9753 456.434 68.3659 456.6 68.6035C456.766 68.8411 457.018 68.96 457.356 68.96ZM462.063 63.418V64.7168H462.967V65.752H462.063V68.3887C462.063 68.584 462.101 68.724 462.176 68.8086C462.251 68.8932 462.394 68.9355 462.605 68.9355C462.762 68.9355 462.9 68.9242 463.021 68.9014V69.9707C462.744 70.0553 462.459 70.0977 462.166 70.0977C461.176 70.0977 460.672 69.598 460.652 68.5986V65.752H459.881V64.7168H460.652V63.418H462.063ZM466.614 68.54C466.614 68.3675 466.528 68.2324 466.355 68.1348C466.186 68.0339 465.913 67.9443 465.535 67.8662C464.279 67.6025 463.65 67.0687 463.65 66.2646C463.65 65.7959 463.844 65.4053 464.231 65.0928C464.622 64.777 465.132 64.6191 465.76 64.6191C466.43 64.6191 466.966 64.777 467.366 65.0928C467.77 65.4085 467.972 65.8187 467.972 66.3232H466.561C466.561 66.1214 466.495 65.9554 466.365 65.8252C466.235 65.6917 466.032 65.625 465.755 65.625C465.517 65.625 465.333 65.6787 465.203 65.7861C465.073 65.8936 465.008 66.0303 465.008 66.1963C465.008 66.3525 465.081 66.4795 465.228 66.5771C465.377 66.6715 465.628 66.7546 465.979 66.8262C466.331 66.8945 466.627 66.9727 466.868 67.0605C467.614 67.334 467.986 67.8076 467.986 68.4814C467.986 68.9632 467.78 69.3538 467.366 69.6533C466.953 69.9495 466.419 70.0977 465.765 70.0977C465.322 70.0977 464.928 70.0195 464.583 69.8633C464.241 69.7038 463.973 69.4873 463.777 69.2139C463.582 68.9372 463.484 68.6393 463.484 68.3203H464.822C464.835 68.571 464.928 68.763 465.101 68.8965C465.273 69.0299 465.504 69.0967 465.794 69.0967C466.064 69.0967 466.268 69.0462 466.404 68.9453C466.544 68.8411 466.614 68.7061 466.614 68.54ZM469.373 65.0732L468.709 64.6875C468.989 64.248 469.134 63.7939 469.144 63.3252V62.5H470.267V63.2568C470.267 63.5498 470.185 63.8672 470.022 64.209C469.86 64.5508 469.643 64.8389 469.373 65.0732ZM471.067 65.0732L470.403 64.6875C470.683 64.248 470.828 63.7939 470.838 63.3252V62.5H471.961V63.2568C471.961 63.5498 471.88 63.8672 471.717 64.209C471.554 64.5508 471.338 64.8389 471.067 65.0732Z" fill="#BB6BD9"/>
<g filter="url(#filter0_d)">
<path d="M335.646 61.3536C335.842 61.5488 336.158 61.5488 336.354 61.3536L339.536 58.1716C339.731 57.9763 339.731 57.6597 339.536 57.4645C339.34 57.2692 339.024 57.2692 338.828 57.4645L336 60.2929L333.172 57.4645C332.976 57.2692 332.66 57.2692 332.464 57.4645C332.269 57.6597 332.269 57.9763 332.464 58.1716L335.646 61.3536ZM335.5 54V61H336.5V54H335.5Z" fill="#BB6BD9"/>
</g>
<g filter="url(#filter1_d)">
<path d="M392.646 61.3536C392.842 61.5488 393.158 61.5488 393.354 61.3536L396.536 58.1716C396.731 57.9763 396.731 57.6597 396.536 57.4645C396.34 57.2692 396.024 57.2692 395.828 57.4645L393 60.2929L390.172 57.4645C389.976 57.2692 389.66 57.2692 389.464 57.4645C389.269 57.6597 389.269 57.9763 389.464 58.1716L392.646 61.3536ZM392.5 54V61H393.5V54H392.5Z" fill="#BB6BD9"/>
</g>
<g filter="url(#filter2_d)">
<path d="M444.646 61.3536C444.842 61.5488 445.158 61.5488 445.354 61.3536L448.536 58.1716C448.731 57.9763 448.731 57.6597 448.536 57.4645C448.34 57.2692 448.024 57.2692 447.828 57.4645L445 60.2929L442.172 57.4645C441.976 57.2692 441.66 57.2692 441.464 57.4645C441.269 57.6597 441.269 57.9763 441.464 58.1716L444.646 61.3536ZM444.5 54V61H445.5V54H444.5Z" fill="#BB6BD9"/>
</g>
<g filter="url(#filter3_d)">
<line x1="335.997" y1="54.5" x2="503.997" y2="53.494" stroke="#BB6BD9"/>
</g>
<g filter="url(#filter4_d)">
<path d="M338.354 100.646C338.158 100.451 337.842 100.451 337.646 100.646L334.464 103.828C334.269 104.024 334.269 104.34 334.464 104.536C334.66 104.731 334.976 104.731 335.172 104.536L338 101.707L340.828 104.536C341.024 104.731 341.34 104.731 341.536 104.536C341.731 104.34 341.731 104.024 341.536 103.828L338.354 100.646ZM338.5 107V101H337.5V107H338.5Z" fill="#56CCF2"/>
</g>
<g filter="url(#filter5_d)">
<path d="M386.354 100.646C386.158 100.451 385.842 100.451 385.646 100.646L382.464 103.828C382.269 104.024 382.269 104.34 382.464 104.536C382.66 104.731 382.976 104.731 383.172 104.536L386 101.707L388.828 104.536C389.024 104.731 389.34 104.731 389.536 104.536C389.731 104.34 389.731 104.024 389.536 103.828L386.354 100.646ZM386.5 107V101H385.5V107H386.5Z" fill="#56CCF2"/>
</g>
<g filter="url(#filter6_d)">
<path d="M432.354 100.646C432.158 100.451 431.842 100.451 431.646 100.646L428.464 103.828C428.269 104.024 428.269 104.34 428.464 104.536C428.66 104.731 428.976 104.731 429.172 104.536L432 101.707L434.828 104.536C435.024 104.731 435.34 104.731 435.536 104.536C435.731 104.34 435.731 104.024 435.536 103.828L432.354 100.646ZM432.5 107V101H431.5V107H432.5Z" fill="#56CCF2"/>
</g>
<g filter="url(#filter7_d)">
<line x1="266" y1="106.5" x2="432" y2="106.5" stroke="#56CCF2"/>
</g>
<path d="M510.209 52.6602L510.262 53.3926C510.715 52.8262 511.322 52.543 512.084 52.543C512.756 52.543 513.256 52.7402 513.584 53.1348C513.912 53.5293 514.08 54.1191 514.088 54.9043V59H512.395V54.9453C512.395 54.5859 512.316 54.3262 512.16 54.166C512.004 54.002 511.744 53.9199 511.381 53.9199C510.904 53.9199 510.547 54.123 510.309 54.5293V59H508.615V52.6602H510.209ZM519.051 59C518.973 58.8477 518.916 58.6582 518.881 58.4316C518.471 58.8887 517.938 59.1172 517.281 59.1172C516.66 59.1172 516.145 58.9375 515.734 58.5781C515.328 58.2188 515.125 57.7656 515.125 57.2188C515.125 56.5469 515.373 56.0312 515.869 55.6719C516.369 55.3125 517.09 55.1309 518.031 55.127H518.811V54.7637C518.811 54.4707 518.734 54.2363 518.582 54.0605C518.434 53.8848 518.197 53.7969 517.873 53.7969C517.588 53.7969 517.363 53.8652 517.199 54.002C517.039 54.1387 516.959 54.3262 516.959 54.5645H515.266C515.266 54.1973 515.379 53.8574 515.605 53.5449C515.832 53.2324 516.152 52.9883 516.566 52.8125C516.98 52.6328 517.445 52.543 517.961 52.543C518.742 52.543 519.361 52.7402 519.818 53.1348C520.279 53.5254 520.51 54.0762 520.51 54.7871V57.5352C520.514 58.1367 520.598 58.5918 520.762 58.9004V59H519.051ZM517.65 57.8223C517.9 57.8223 518.131 57.7676 518.342 57.6582C518.553 57.5449 518.709 57.3945 518.811 57.207V56.1172H518.178C517.33 56.1172 516.879 56.4102 516.824 56.9961L516.818 57.0957C516.818 57.3066 516.893 57.4805 517.041 57.6172C517.189 57.7539 517.393 57.8223 517.65 57.8223ZM523.398 52.6602L523.451 53.3691C523.9 52.8184 524.508 52.543 525.273 52.543C526.09 52.543 526.65 52.8652 526.955 53.5098C527.4 52.8652 528.035 52.543 528.859 52.543C529.547 52.543 530.059 52.7441 530.395 53.1465C530.73 53.5449 530.898 54.1465 530.898 54.9512V59H529.199V54.957C529.199 54.5977 529.129 54.3359 528.988 54.1719C528.848 54.0039 528.6 53.9199 528.244 53.9199C527.736 53.9199 527.385 54.1621 527.189 54.6465L527.195 59H525.502V54.9629C525.502 54.5957 525.43 54.3301 525.285 54.166C525.141 54.002 524.895 53.9199 524.547 53.9199C524.066 53.9199 523.719 54.1191 523.504 54.5176V59H521.811V52.6602H523.398ZM535.123 59.1172C534.193 59.1172 533.436 58.832 532.85 58.2617C532.268 57.6914 531.977 56.9316 531.977 55.9824V55.8184C531.977 55.1816 532.1 54.6133 532.346 54.1133C532.592 53.6094 532.939 53.2227 533.389 52.9531C533.842 52.6797 534.357 52.543 534.936 52.543C535.803 52.543 536.484 52.8164 536.98 53.3633C537.48 53.9102 537.73 54.6855 537.73 55.6895V56.3809H533.693C533.748 56.7949 533.912 57.127 534.186 57.377C534.463 57.627 534.812 57.752 535.234 57.752C535.887 57.752 536.396 57.5156 536.764 57.043L537.596 57.9746C537.342 58.334 536.998 58.6152 536.564 58.8184C536.131 59.0176 535.65 59.1172 535.123 59.1172ZM534.93 53.9141C534.594 53.9141 534.32 54.0273 534.109 54.2539C533.902 54.4805 533.77 54.8047 533.711 55.2266H536.066V55.0918C536.059 54.7168 535.957 54.4277 535.762 54.2246C535.566 54.0176 535.289 53.9141 534.93 53.9141ZM542.131 57.248C542.131 57.041 542.027 56.8789 541.82 56.7617C541.617 56.6406 541.289 56.5332 540.836 56.4395C539.328 56.123 538.574 55.4824 538.574 54.5176C538.574 53.9551 538.807 53.4863 539.271 53.1113C539.74 52.7324 540.352 52.543 541.105 52.543C541.91 52.543 542.553 52.7324 543.033 53.1113C543.518 53.4902 543.76 53.9824 543.76 54.5879H542.066C542.066 54.3457 541.988 54.1465 541.832 53.9902C541.676 53.8301 541.432 53.75 541.1 53.75C540.814 53.75 540.594 53.8145 540.438 53.9434C540.281 54.0723 540.203 54.2363 540.203 54.4355C540.203 54.623 540.291 54.7754 540.467 54.8926C540.646 55.0059 540.947 55.1055 541.369 55.1914C541.791 55.2734 542.146 55.3672 542.436 55.4727C543.33 55.8008 543.777 56.3691 543.777 57.1777C543.777 57.7559 543.529 58.2246 543.033 58.584C542.537 58.9395 541.896 59.1172 541.111 59.1172C540.58 59.1172 540.107 59.0234 539.693 58.8359C539.283 58.6445 538.961 58.3848 538.727 58.0566C538.492 57.7246 538.375 57.3672 538.375 56.9844H539.98C539.996 57.2852 540.107 57.5156 540.314 57.6758C540.521 57.8359 540.799 57.916 541.146 57.916C541.471 57.916 541.715 57.8555 541.879 57.7344C542.047 57.6094 542.131 57.4473 542.131 57.248Z" fill="#BB6BD9"/>
<rect x="10" y="24" width="178" height="89" stroke="black" stroke-width="2"/>
<rect x="33" y="73" width="37" height="24" fill="#56CCF2" stroke="black" stroke-width="2"/>
<rect x="125" y="73" width="37" height="24" fill="#56CCF2" stroke="black" stroke-width="2"/>
<rect x="79" y="73" width="37" height="24" fill="#56CCF2" stroke="black" stroke-width="2"/>
<rect x="10" y="25" width="88" height="18" fill="black"/>
<path d="M18.2383 29.6602L18.291 30.3691C18.7402 29.8184 19.3477 29.543 20.1133 29.543C20.9297 29.543 21.4902 29.8652 21.7949 30.5098C22.2402 29.8652 22.875 29.543 23.6992 29.543C24.3867 29.543 24.8984 29.7441 25.2344 30.1465C25.5703 30.5449 25.7383 31.1465 25.7383 31.9512V36H24.0391V31.957C24.0391 31.5977 23.9688 31.3359 23.8281 31.1719C23.6875 31.0039 23.4395 30.9199 23.084 30.9199C22.5762 30.9199 22.2246 31.1621 22.0293 31.6465L22.0352 36H20.3418V31.9629C20.3418 31.5957 20.2695 31.3301 20.125 31.166C19.9805 31.002 19.7344 30.9199 19.3867 30.9199C18.9062 30.9199 18.5586 31.1191 18.3438 31.5176V36H16.6504V29.6602H18.2383ZM30.7188 36C30.6406 35.8477 30.584 35.6582 30.5488 35.4316C30.1387 35.8887 29.6055 36.1172 28.9492 36.1172C28.3281 36.1172 27.8125 35.9375 27.4023 35.5781C26.9961 35.2188 26.793 34.7656 26.793 34.2188C26.793 33.5469 27.041 33.0312 27.5371 32.6719C28.0371 32.3125 28.7578 32.1309 29.6992 32.127H30.4785V31.7637C30.4785 31.4707 30.4023 31.2363 30.25 31.0605C30.1016 30.8848 29.8652 30.7969 29.541 30.7969C29.2559 30.7969 29.0312 30.8652 28.8672 31.002C28.707 31.1387 28.627 31.3262 28.627 31.5645H26.9336C26.9336 31.1973 27.0469 30.8574 27.2734 30.5449C27.5 30.2324 27.8203 29.9883 28.2344 29.8125C28.6484 29.6328 29.1133 29.543 29.6289 29.543C30.4102 29.543 31.0293 29.7402 31.4863 30.1348C31.9473 30.5254 32.1777 31.0762 32.1777 31.7871V34.5352C32.1816 35.1367 32.2656 35.5918 32.4297 35.9004V36H30.7188ZM29.3184 34.8223C29.5684 34.8223 29.7988 34.7676 30.0098 34.6582C30.2207 34.5449 30.377 34.3945 30.4785 34.207V33.1172H29.8457C28.998 33.1172 28.5469 33.4102 28.4922 33.9961L28.4863 34.0957C28.4863 34.3066 28.5605 34.4805 28.709 34.6172C28.8574 34.7539 29.0605 34.8223 29.3184 34.8223ZM35.5059 28.1016V29.6602H36.5898V30.9023H35.5059V34.0664C35.5059 34.3008 35.5508 34.4688 35.6406 34.5703C35.7305 34.6719 35.9023 34.7227 36.1562 34.7227C36.3438 34.7227 36.5098 34.709 36.6543 34.6816V35.9648C36.3223 36.0664 35.9805 36.1172 35.6289 36.1172C34.4414 36.1172 33.8359 35.5176 33.8125 34.3184V30.9023H32.8867V29.6602H33.8125V28.1016H35.5059ZM39.1855 30.3516C39.6348 29.8125 40.1992 29.543 40.8789 29.543C42.2539 29.543 42.9512 30.3418 42.9707 31.9395V36H41.2773V31.9863C41.2773 31.623 41.1992 31.3555 41.043 31.1836C40.8867 31.0078 40.627 30.9199 40.2637 30.9199C39.7676 30.9199 39.4082 31.1113 39.1855 31.4941V36H37.4922V27H39.1855V30.3516ZM48.9414 37.3242H43.6035V36H48.9414V37.3242ZM49.3574 32.7832C49.3574 31.8105 49.5879 31.0273 50.0488 30.4336C50.5137 29.8398 51.1387 29.543 51.9238 29.543C52.6191 29.543 53.1602 29.7812 53.5469 30.2578L53.6172 29.6602H55.1523V35.7891C55.1523 36.3438 55.0254 36.8262 54.7715 37.2363C54.5215 37.6465 54.168 37.959 53.7109 38.1738C53.2539 38.3887 52.7188 38.4961 52.1055 38.4961C51.6406 38.4961 51.1875 38.4023 50.7461 38.2148C50.3047 38.0312 49.9707 37.793 49.7441 37.5L50.4941 36.4688C50.916 36.9414 51.4277 37.1777 52.0293 37.1777C52.4785 37.1777 52.8281 37.0566 53.0781 36.8145C53.3281 36.5762 53.4531 36.2363 53.4531 35.7949V35.4551C53.0625 35.8965 52.5488 36.1172 51.9121 36.1172C51.1504 36.1172 50.5332 35.8203 50.0605 35.2266C49.5918 34.6289 49.3574 33.8379 49.3574 32.8535V32.7832ZM51.0508 32.9062C51.0508 33.4805 51.166 33.9316 51.3965 34.2598C51.627 34.584 51.9434 34.7461 52.3457 34.7461C52.8613 34.7461 53.2305 34.5527 53.4531 34.166V31.5C53.2266 31.1133 52.8613 30.9199 52.3574 30.9199C51.9512 30.9199 51.6309 31.0859 51.3965 31.418C51.166 31.75 51.0508 32.2461 51.0508 32.9062ZM60.0215 31.248C59.791 31.2168 59.5879 31.2012 59.4121 31.2012C58.7715 31.2012 58.3516 31.418 58.1523 31.8516V36H56.459V29.6602H58.0586L58.1055 30.416C58.4453 29.834 58.916 29.543 59.5176 29.543C59.7051 29.543 59.8809 29.5684 60.0449 29.6191L60.0215 31.248ZM64.3398 36C64.2617 35.8477 64.2051 35.6582 64.1699 35.4316C63.7598 35.8887 63.2266 36.1172 62.5703 36.1172C61.9492 36.1172 61.4336 35.9375 61.0234 35.5781C60.6172 35.2188 60.4141 34.7656 60.4141 34.2188C60.4141 33.5469 60.6621 33.0312 61.1582 32.6719C61.6582 32.3125 62.3789 32.1309 63.3203 32.127H64.0996V31.7637C64.0996 31.4707 64.0234 31.2363 63.8711 31.0605C63.7227 30.8848 63.4863 30.7969 63.1621 30.7969C62.877 30.7969 62.6523 30.8652 62.4883 31.002C62.3281 31.1387 62.248 31.3262 62.248 31.5645H60.5547C60.5547 31.1973 60.668 30.8574 60.8945 30.5449C61.1211 30.2324 61.4414 29.9883 61.8555 29.8125C62.2695 29.6328 62.7344 29.543 63.25 29.543C64.0312 29.543 64.6504 29.7402 65.1074 30.1348C65.5684 30.5254 65.7988 31.0762 65.7988 31.7871V34.5352C65.8027 35.1367 65.8867 35.5918 66.0508 35.9004V36H64.3398ZM62.9395 34.8223C63.1895 34.8223 63.4199 34.7676 63.6309 34.6582C63.8418 34.5449 63.998 34.3945 64.0996 34.207V33.1172H63.4668C62.6191 33.1172 62.168 33.4102 62.1133 33.9961L62.1074 34.0957C62.1074 34.3066 62.1816 34.4805 62.3301 34.6172C62.4785 34.7539 62.6816 34.8223 62.9395 34.8223ZM66.8359 32.7832C66.8359 31.7949 67.0566 31.0078 67.498 30.4219C67.9434 29.8359 68.5508 29.543 69.3203 29.543C69.9375 29.543 70.4473 29.7734 70.8496 30.2344V27H72.5488V36H71.0195L70.9375 35.3262C70.5156 35.8535 69.9727 36.1172 69.3086 36.1172C68.5625 36.1172 67.9629 35.8242 67.5098 35.2383C67.0605 34.6484 66.8359 33.8301 66.8359 32.7832ZM68.5293 32.9062C68.5293 33.5 68.6328 33.9551 68.8398 34.2715C69.0469 34.5879 69.3477 34.7461 69.7422 34.7461C70.2656 34.7461 70.6348 34.5254 70.8496 34.084V31.582C70.6387 31.1406 70.2734 30.9199 69.7539 30.9199C68.9375 30.9199 68.5293 31.582 68.5293 32.9062ZM76.7793 36.1172C75.8496 36.1172 75.0918 35.832 74.5059 35.2617C73.9238 34.6914 73.6328 33.9316 73.6328 32.9824V32.8184C73.6328 32.1816 73.7559 31.6133 74.002 31.1133C74.248 30.6094 74.5957 30.2227 75.0449 29.9531C75.498 29.6797 76.0137 29.543 76.5918 29.543C77.459 29.543 78.1406 29.8164 78.6367 30.3633C79.1367 30.9102 79.3867 31.6855 79.3867 32.6895V33.3809H75.3496C75.4043 33.7949 75.5684 34.127 75.8418 34.377C76.1191 34.627 76.4688 34.752 76.8906 34.752C77.543 34.752 78.0527 34.5156 78.4199 34.043L79.252 34.9746C78.998 35.334 78.6543 35.6152 78.2207 35.8184C77.7871 36.0176 77.3066 36.1172 76.7793 36.1172ZM76.5859 30.9141C76.25 30.9141 75.9766 31.0273 75.7656 31.2539C75.5586 31.4805 75.4258 31.8047 75.3672 32.2266H77.7227V32.0918C77.7148 31.7168 77.6133 31.4277 77.418 31.2246C77.2227 31.0176 76.9453 30.9141 76.5859 30.9141ZM83.7871 34.248C83.7871 34.041 83.6836 33.8789 83.4766 33.7617C83.2734 33.6406 82.9453 33.5332 82.4922 33.4395C80.9844 33.123 80.2305 32.4824 80.2305 31.5176C80.2305 30.9551 80.4629 30.4863 80.9277 30.1113C81.3965 29.7324 82.0078 29.543 82.7617 29.543C83.5664 29.543 84.209 29.7324 84.6895 30.1113C85.1738 30.4902 85.416 30.9824 85.416 31.5879H83.7227C83.7227 31.3457 83.6445 31.1465 83.4883 30.9902C83.332 30.8301 83.0879 30.75 82.7559 30.75C82.4707 30.75 82.25 30.8145 82.0938 30.9434C81.9375 31.0723 81.8594 31.2363 81.8594 31.4355C81.8594 31.623 81.9473 31.7754 82.123 31.8926C82.3027 32.0059 82.6035 32.1055 83.0254 32.1914C83.4473 32.2734 83.8027 32.3672 84.0918 32.4727C84.9863 32.8008 85.4336 33.3691 85.4336 34.1777C85.4336 34.7559 85.1855 35.2246 84.6895 35.584C84.1934 35.9395 83.5527 36.1172 82.7676 36.1172C82.2363 36.1172 81.7637 36.0234 81.3496 35.8359C80.9395 35.6445 80.6172 35.3848 80.3828 35.0566C80.1484 34.7246 80.0312 34.3672 80.0312 33.9844H81.6367C81.6523 34.2852 81.7637 34.5156 81.9707 34.6758C82.1777 34.8359 82.4551 34.916 82.8027 34.916C83.127 34.916 83.3711 34.8555 83.5352 34.7344C83.7031 34.6094 83.7871 34.4473 83.7871 34.248Z" fill="white"/>
<path d="M12.4375 18H10.7383V11.6602H12.4375V18ZM10.6387 10.0195C10.6387 9.76562 10.7227 9.55664 10.8906 9.39258C11.0625 9.22852 11.2949 9.14648 11.5879 9.14648C11.877 9.14648 12.1074 9.22852 12.2793 9.39258C12.4512 9.55664 12.5371 9.76562 12.5371 10.0195C12.5371 10.2773 12.4492 10.4883 12.2734 10.6523C12.1016 10.8164 11.873 10.8984 11.5879 10.8984C11.3027 10.8984 11.0723 10.8164 10.8965 10.6523C10.7246 10.4883 10.6387 10.2773 10.6387 10.0195ZM15.3965 11.6602L15.4492 12.3926C15.9023 11.8262 16.5098 11.543 17.2715 11.543C17.9434 11.543 18.4434 11.7402 18.7715 12.1348C19.0996 12.5293 19.2676 13.1191 19.2754 13.9043V18H17.582V13.9453C17.582 13.5859 17.5039 13.3262 17.3477 13.166C17.1914 13.002 16.9316 12.9199 16.5684 12.9199C16.0918 12.9199 15.7344 13.123 15.4961 13.5293V18H13.8027V11.6602H15.3965ZM22.5918 10.1016V11.6602H23.6758V12.9023H22.5918V16.0664C22.5918 16.3008 22.6367 16.4688 22.7266 16.5703C22.8164 16.6719 22.9883 16.7227 23.2422 16.7227C23.4297 16.7227 23.5957 16.709 23.7402 16.6816V17.9648C23.4082 18.0664 23.0664 18.1172 22.7148 18.1172C21.5273 18.1172 20.9219 17.5176 20.8984 16.3184V12.9023H19.9727V11.6602H20.8984V10.1016H22.5918ZM27.5371 18.1172C26.6074 18.1172 25.8496 17.832 25.2637 17.2617C24.6816 16.6914 24.3906 15.9316 24.3906 14.9824V14.8184C24.3906 14.1816 24.5137 13.6133 24.7598 13.1133C25.0059 12.6094 25.3535 12.2227 25.8027 11.9531C26.2559 11.6797 26.7715 11.543 27.3496 11.543C28.2168 11.543 28.8984 11.8164 29.3945 12.3633C29.8945 12.9102 30.1445 13.6855 30.1445 14.6895V15.3809H26.1074C26.1621 15.7949 26.3262 16.127 26.5996 16.377C26.877 16.627 27.2266 16.752 27.6484 16.752C28.3008 16.752 28.8105 16.5156 29.1777 16.043L30.0098 16.9746C29.7559 17.334 29.4121 17.6152 28.9785 17.8184C28.5449 18.0176 28.0645 18.1172 27.5371 18.1172ZM27.3438 12.9141C27.0078 12.9141 26.7344 13.0273 26.5234 13.2539C26.3164 13.4805 26.1836 13.8047 26.125 14.2266H28.4805V14.0918C28.4727 13.7168 28.3711 13.4277 28.1758 13.2246C27.9805 13.0176 27.7031 12.9141 27.3438 12.9141ZM30.8652 14.7832C30.8652 13.8105 31.0957 13.0273 31.5566 12.4336C32.0215 11.8398 32.6465 11.543 33.4316 11.543C34.127 11.543 34.668 11.7812 35.0547 12.2578L35.125 11.6602H36.6602V17.7891C36.6602 18.3438 36.5332 18.8262 36.2793 19.2363C36.0293 19.6465 35.6758 19.959 35.2188 20.1738C34.7617 20.3887 34.2266 20.4961 33.6133 20.4961C33.1484 20.4961 32.6953 20.4023 32.2539 20.2148C31.8125 20.0312 31.4785 19.793 31.252 19.5L32.002 18.4688C32.4238 18.9414 32.9355 19.1777 33.5371 19.1777C33.9863 19.1777 34.3359 19.0566 34.5859 18.8145C34.8359 18.5762 34.9609 18.2363 34.9609 17.7949V17.4551C34.5703 17.8965 34.0566 18.1172 33.4199 18.1172C32.6582 18.1172 32.041 17.8203 31.5684 17.2266C31.0996 16.6289 30.8652 15.8379 30.8652 14.8535V14.7832ZM32.5586 14.9062C32.5586 15.4805 32.6738 15.9316 32.9043 16.2598C33.1348 16.584 33.4512 16.7461 33.8535 16.7461C34.3691 16.7461 34.7383 16.5527 34.9609 16.166V13.5C34.7344 13.1133 34.3691 12.9199 33.8652 12.9199C33.459 12.9199 33.1387 13.0859 32.9043 13.418C32.6738 13.75 32.5586 14.2461 32.5586 14.9062ZM40.8848 18.1172C39.9551 18.1172 39.1973 17.832 38.6113 17.2617C38.0293 16.6914 37.7383 15.9316 37.7383 14.9824V14.8184C37.7383 14.1816 37.8613 13.6133 38.1074 13.1133C38.3535 12.6094 38.7012 12.2227 39.1504 11.9531C39.6035 11.6797 40.1191 11.543 40.6973 11.543C41.5645 11.543 42.2461 11.8164 42.7422 12.3633C43.2422 12.9102 43.4922 13.6855 43.4922 14.6895V15.3809H39.4551C39.5098 15.7949 39.6738 16.127 39.9473 16.377C40.2246 16.627 40.5742 16.752 40.9961 16.752C41.6484 16.752 42.1582 16.5156 42.5254 16.043L43.3574 16.9746C43.1035 17.334 42.7598 17.6152 42.3262 17.8184C41.8926 18.0176 41.4121 18.1172 40.8848 18.1172ZM40.6914 12.9141C40.3555 12.9141 40.082 13.0273 39.8711 13.2539C39.6641 13.4805 39.5312 13.8047 39.4727 14.2266H41.8281V14.0918C41.8203 13.7168 41.7188 13.4277 41.5234 13.2246C41.3281 13.0176 41.0508 12.9141 40.6914 12.9141ZM48.0215 13.248C47.791 13.2168 47.5879 13.2012 47.4121 13.2012C46.7715 13.2012 46.3516 13.418 46.1523 13.8516V18H44.459V11.6602H46.0586L46.1055 12.416C46.4453 11.834 46.916 11.543 47.5176 11.543C47.7051 11.543 47.8809 11.5684 48.0449 11.6191L48.0215 13.248ZM54.2031 15.9316L55.3809 11.6602H57.1504L55.0117 18H53.3945L51.2559 11.6602H53.0254L54.2031 15.9316ZM60.7363 18.1172C59.8066 18.1172 59.0488 17.832 58.4629 17.2617C57.8809 16.6914 57.5898 15.9316 57.5898 14.9824V14.8184C57.5898 14.1816 57.7129 13.6133 57.959 13.1133C58.2051 12.6094 58.5527 12.2227 59.002 11.9531C59.4551 11.6797 59.9707 11.543 60.5488 11.543C61.416 11.543 62.0977 11.8164 62.5938 12.3633C63.0938 12.9102 63.3438 13.6855 63.3438 14.6895V15.3809H59.3066C59.3613 15.7949 59.5254 16.127 59.7988 16.377C60.0762 16.627 60.4258 16.752 60.8477 16.752C61.5 16.752 62.0098 16.5156 62.377 16.043L63.209 16.9746C62.9551 17.334 62.6113 17.6152 62.1777 17.8184C61.7441 18.0176 61.2637 18.1172 60.7363 18.1172ZM60.543 12.9141C60.207 12.9141 59.9336 13.0273 59.7227 13.2539C59.5156 13.4805 59.3828 13.8047 59.3242 14.2266H61.6797V14.0918C61.6719 13.7168 61.5703 13.4277 61.375 13.2246C61.1797 13.0176 60.9023 12.9141 60.543 12.9141ZM66.9473 16.752C67.2598 16.752 67.5137 16.666 67.709 16.4941C67.9043 16.3223 68.0059 16.0938 68.0137 15.8086H69.6016C69.5977 16.2383 69.4805 16.6328 69.25 16.9922C69.0195 17.3477 68.7031 17.625 68.3008 17.8242C67.9023 18.0195 67.4609 18.1172 66.9766 18.1172C66.0703 18.1172 65.3555 17.8301 64.832 17.2559C64.3086 16.6777 64.0469 15.8809 64.0469 14.8652V14.7539C64.0469 13.7773 64.3066 12.998 64.8262 12.416C65.3457 11.834 66.0586 11.543 66.9648 11.543C67.7578 11.543 68.3926 11.7695 68.8691 12.2227C69.3496 12.6719 69.5938 13.2715 69.6016 14.0215H68.0137C68.0059 13.6934 67.9043 13.4277 67.709 13.2246C67.5137 13.0176 67.2559 12.9141 66.9355 12.9141C66.541 12.9141 66.2422 13.0586 66.0391 13.3477C65.8398 13.6328 65.7402 14.0977 65.7402 14.7422V14.918C65.7402 15.5703 65.8398 16.0391 66.0391 16.3242C66.2383 16.6094 66.541 16.752 66.9473 16.752ZM72.5957 10.1016V11.6602H73.6797V12.9023H72.5957V16.0664C72.5957 16.3008 72.6406 16.4688 72.7305 16.5703C72.8203 16.6719 72.9922 16.7227 73.2461 16.7227C73.4336 16.7227 73.5996 16.709 73.7441 16.6816V17.9648C73.4121 18.0664 73.0703 18.1172 72.7188 18.1172C71.5312 18.1172 70.9258 17.5176 70.9023 16.3184V12.9023H69.9766V11.6602H70.9023V10.1016H72.5957ZM74.1836 14.7715C74.1836 14.1426 74.3047 13.582 74.5469 13.0898C74.7891 12.5977 75.1367 12.2168 75.5898 11.9473C76.0469 11.6777 76.5762 11.543 77.1777 11.543C78.0332 11.543 78.7305 11.8047 79.2695 12.3281C79.8125 12.8516 80.1152 13.5625 80.1777 14.4609L80.1895 14.8945C80.1895 15.8672 79.918 16.6484 79.375 17.2383C78.832 17.8242 78.1035 18.1172 77.1895 18.1172C76.2754 18.1172 75.5449 17.8242 74.998 17.2383C74.4551 16.6523 74.1836 15.8555 74.1836 14.8477V14.7715ZM75.877 14.8945C75.877 15.4961 75.9902 15.957 76.2168 16.2773C76.4434 16.5938 76.7676 16.752 77.1895 16.752C77.5996 16.752 77.9199 16.5957 78.1504 16.2832C78.3809 15.9668 78.4961 15.4629 78.4961 14.7715C78.4961 14.1816 78.3809 13.7246 78.1504 13.4004C77.9199 13.0762 77.5957 12.9141 77.1777 12.9141C76.7637 12.9141 76.4434 13.0762 76.2168 13.4004C75.9902 13.7207 75.877 14.2188 75.877 14.8945ZM84.7949 13.248C84.5645 13.2168 84.3613 13.2012 84.1855 13.2012C83.5449 13.2012 83.125 13.418 82.9258 13.8516V18H81.2324V11.6602H82.832L82.8789 12.416C83.2188 11.834 83.6895 11.543 84.291 11.543C84.4785 11.543 84.6543 11.5684 84.8184 11.6191L84.7949 13.248Z" fill="black"/>
<path d="M47.7764 85.8848C47.1143 86.5352 46.3408 86.8604 45.4561 86.8604C44.3252 86.8604 43.4199 86.4736 42.7402 85.7002C42.0605 84.9209 41.7207 83.8721 41.7207 82.5537C41.7207 81.7158 41.9023 80.9482 42.2656 80.251C42.6348 79.5479 43.1475 79.0029 43.8037 78.6162C44.46 78.2236 45.1982 78.0273 46.0186 78.0273C46.8623 78.0273 47.6123 78.2383 48.2686 78.6602C48.9248 79.082 49.4346 79.6885 49.7979 80.4795C50.1611 81.2705 50.3457 82.1758 50.3516 83.1953V84.1357C50.3516 86.2686 49.8213 87.9443 48.7607 89.1631C47.7002 90.3818 46.1973 91.0322 44.252 91.1143L43.6279 91.123V89.0049L44.1904 88.9961C46.3994 88.8965 47.5947 87.8594 47.7764 85.8848ZM46.0801 84.918C46.4902 84.918 46.8418 84.8125 47.1348 84.6016C47.4336 84.3906 47.6592 84.1357 47.8115 83.8369V82.791C47.8115 81.9297 47.6475 81.2617 47.3193 80.7871C46.9912 80.3125 46.5518 80.0752 46.001 80.0752C45.4912 80.0752 45.0723 80.3096 44.7441 80.7783C44.416 81.2412 44.252 81.8242 44.252 82.5273C44.252 83.2246 44.4102 83.7988 44.7266 84.25C45.0488 84.6953 45.5 84.918 46.0801 84.918ZM60.9424 91H52.1709V89.2598L56.3105 84.8477C56.8789 84.2266 57.2979 83.6846 57.5674 83.2217C57.8428 82.7588 57.9805 82.3193 57.9805 81.9033C57.9805 81.335 57.8369 80.8896 57.5498 80.5674C57.2627 80.2393 56.8525 80.0752 56.3193 80.0752C55.7451 80.0752 55.291 80.2744 54.957 80.6729C54.6289 81.0654 54.4648 81.584 54.4648 82.2285H51.916C51.916 81.4492 52.1006 80.7373 52.4697 80.0928C52.8447 79.4482 53.3721 78.9443 54.0518 78.5811C54.7314 78.2119 55.502 78.0273 56.3633 78.0273C57.6816 78.0273 58.7041 78.3438 59.4307 78.9766C60.1631 79.6094 60.5293 80.5029 60.5293 81.6572C60.5293 82.29 60.3652 82.9346 60.0371 83.5908C59.709 84.2471 59.1465 85.0117 58.3496 85.8848L55.4404 88.9521H60.9424V91ZM97.7422 81.6045C97.7422 82.2256 97.5869 82.7764 97.2764 83.2568C96.9658 83.7373 96.5381 84.1211 95.9932 84.4082C96.6143 84.707 97.1064 85.1201 97.4697 85.6475C97.833 86.1689 98.0146 86.7842 98.0146 87.4932C98.0146 88.6299 97.6279 89.5293 96.8545 90.1914C96.0811 90.8477 95.0293 91.1758 93.6992 91.1758C92.3691 91.1758 91.3145 90.8447 90.5352 90.1826C89.7559 89.5205 89.3662 88.624 89.3662 87.4932C89.3662 86.7842 89.5479 86.166 89.9111 85.6387C90.2744 85.1113 90.7637 84.7012 91.3789 84.4082C90.834 84.1211 90.4062 83.7373 90.0957 83.2568C89.791 82.7764 89.6387 82.2256 89.6387 81.6045C89.6387 80.5146 90.002 79.6475 90.7285 79.0029C91.4551 78.3525 92.4424 78.0273 93.6904 78.0273C94.9326 78.0273 95.917 78.3496 96.6436 78.9941C97.376 79.6328 97.7422 80.5029 97.7422 81.6045ZM95.4658 87.3086C95.4658 86.752 95.3047 86.3066 94.9824 85.9727C94.6602 85.6387 94.2266 85.4717 93.6816 85.4717C93.1426 85.4717 92.7119 85.6387 92.3896 85.9727C92.0674 86.3008 91.9062 86.7461 91.9062 87.3086C91.9062 87.8535 92.0645 88.293 92.3809 88.627C92.6973 88.9609 93.1367 89.1279 93.6992 89.1279C94.25 89.1279 94.6807 88.9668 94.9912 88.6445C95.3076 88.3223 95.4658 87.877 95.4658 87.3086ZM95.2021 81.7275C95.2021 81.2295 95.0703 80.8311 94.8066 80.5322C94.543 80.2275 94.1709 80.0752 93.6904 80.0752C93.2158 80.0752 92.8467 80.2217 92.583 80.5146C92.3193 80.8076 92.1875 81.2119 92.1875 81.7275C92.1875 82.2373 92.3193 82.6475 92.583 82.958C92.8467 83.2686 93.2188 83.4238 93.6992 83.4238C94.1797 83.4238 94.5488 83.2686 94.8066 82.958C95.0703 82.6475 95.2021 82.2373 95.2021 81.7275ZM108.438 79.627L103.49 91H100.81L105.767 80.2598H99.4033V78.2031H108.438V79.627ZM140.826 81.6045C140.826 82.2256 140.671 82.7764 140.36 83.2568C140.05 83.7373 139.622 84.1211 139.077 84.4082C139.698 84.707 140.19 85.1201 140.554 85.6475C140.917 86.1689 141.099 86.7842 141.099 87.4932C141.099 88.6299 140.712 89.5293 139.938 90.1914C139.165 90.8477 138.113 91.1758 136.783 91.1758C135.453 91.1758 134.398 90.8447 133.619 90.1826C132.84 89.5205 132.45 88.624 132.45 87.4932C132.45 86.7842 132.632 86.166 132.995 85.6387C133.358 85.1113 133.848 84.7012 134.463 84.4082C133.918 84.1211 133.49 83.7373 133.18 83.2568C132.875 82.7764 132.723 82.2256 132.723 81.6045C132.723 80.5146 133.086 79.6475 133.812 79.0029C134.539 78.3525 135.526 78.0273 136.774 78.0273C138.017 78.0273 139.001 78.3496 139.728 78.9941C140.46 79.6328 140.826 80.5029 140.826 81.6045ZM138.55 87.3086C138.55 86.752 138.389 86.3066 138.066 85.9727C137.744 85.6387 137.311 85.4717 136.766 85.4717C136.227 85.4717 135.796 85.6387 135.474 85.9727C135.151 86.3008 134.99 86.7461 134.99 87.3086C134.99 87.8535 135.148 88.293 135.465 88.627C135.781 88.9609 136.221 89.1279 136.783 89.1279C137.334 89.1279 137.765 88.9668 138.075 88.6445C138.392 88.3223 138.55 87.877 138.55 87.3086ZM138.286 81.7275C138.286 81.2295 138.154 80.8311 137.891 80.5322C137.627 80.2275 137.255 80.0752 136.774 80.0752C136.3 80.0752 135.931 80.2217 135.667 80.5146C135.403 80.8076 135.271 81.2119 135.271 81.7275C135.271 82.2373 135.403 82.6475 135.667 82.958C135.931 83.2686 136.303 83.4238 136.783 83.4238C137.264 83.4238 137.633 83.2686 137.891 82.958C138.154 82.6475 138.286 82.2373 138.286 81.7275ZM143.199 84.707L143.938 78.2031H151.109V80.3213H146.021L145.704 83.0723C146.308 82.75 146.949 82.5889 147.629 82.5889C148.848 82.5889 149.803 82.9668 150.494 83.7227C151.186 84.4785 151.531 85.5361 151.531 86.8955C151.531 87.7217 151.355 88.4629 151.004 89.1191C150.658 89.7695 150.16 90.2764 149.51 90.6396C148.859 90.9971 148.092 91.1758 147.207 91.1758C146.434 91.1758 145.716 91.0205 145.054 90.71C144.392 90.3936 143.867 89.9512 143.48 89.3828C143.1 88.8145 142.897 88.167 142.874 87.4404H145.388C145.44 87.9736 145.625 88.3896 145.941 88.6885C146.264 88.9814 146.683 89.1279 147.198 89.1279C147.772 89.1279 148.215 88.9229 148.525 88.5127C148.836 88.0967 148.991 87.5107 148.991 86.7549C148.991 86.0283 148.812 85.4717 148.455 85.085C148.098 84.6982 147.591 84.5049 146.935 84.5049C146.331 84.5049 145.842 84.6631 145.467 84.9795L145.221 85.208L143.199 84.707Z" fill="black"/>
<path d="M51.6699 71H49.9766V64.4727L47.9551 65.0996V63.7227L51.4883 62.457H51.6699V71ZM99.1426 71H93.2949V69.8398L96.0547 66.8984C96.4336 66.4844 96.7129 66.123 96.8926 65.8145C97.0762 65.5059 97.168 65.2129 97.168 64.9355C97.168 64.5566 97.0723 64.2598 96.8809 64.0449C96.6895 63.8262 96.416 63.7168 96.0605 63.7168C95.6777 63.7168 95.375 63.8496 95.1523 64.1152C94.9336 64.377 94.8242 64.7227 94.8242 65.1523H93.125C93.125 64.6328 93.248 64.1582 93.4941 63.7285C93.7441 63.2988 94.0957 62.9629 94.5488 62.7207C95.002 62.4746 95.5156 62.3516 96.0898 62.3516C96.9688 62.3516 97.6504 62.5625 98.1348 62.9844C98.623 63.4062 98.8672 64.002 98.8672 64.7715C98.8672 65.1934 98.7578 65.623 98.5391 66.0605C98.3203 66.498 97.9453 67.0078 97.4141 67.5898L95.4746 69.6348H99.1426V71ZM140.756 65.9844H141.658C142.088 65.9844 142.406 65.877 142.613 65.6621C142.82 65.4473 142.924 65.1621 142.924 64.8066C142.924 64.4629 142.82 64.1953 142.613 64.0039C142.41 63.8125 142.129 63.7168 141.77 63.7168C141.445 63.7168 141.174 63.8066 140.955 63.9863C140.736 64.1621 140.627 64.3926 140.627 64.6777H138.934C138.934 64.2324 139.053 63.834 139.291 63.4824C139.533 63.127 139.869 62.8496 140.299 62.6504C140.732 62.4512 141.209 62.3516 141.729 62.3516C142.631 62.3516 143.338 62.5684 143.85 63.002C144.361 63.4316 144.617 64.0254 144.617 64.7832C144.617 65.1738 144.498 65.5332 144.26 65.8613C144.021 66.1895 143.709 66.4414 143.322 66.6172C143.803 66.7891 144.16 67.0469 144.395 67.3906C144.633 67.7344 144.752 68.1406 144.752 68.6094C144.752 69.3672 144.475 69.9746 143.92 70.4316C143.369 70.8887 142.639 71.1172 141.729 71.1172C140.877 71.1172 140.18 70.8926 139.637 70.4434C139.098 69.9941 138.828 69.4004 138.828 68.6621H140.521C140.521 68.9824 140.641 69.2441 140.879 69.4473C141.121 69.6504 141.418 69.752 141.77 69.752C142.172 69.752 142.486 69.6465 142.713 69.4355C142.943 69.2207 143.059 68.9375 143.059 68.5859C143.059 67.7344 142.59 67.3086 141.652 67.3086H140.756V65.9844Z" fill="#BB6BD9"/>
<g filter="url(#filter8_d)">
<path d="M48.6464 60.3536C48.8417 60.5488 49.1583 60.5488 49.3536 60.3536L52.5355 57.1716C52.7308 56.9763 52.7308 56.6597 52.5355 56.4645C52.3403 56.2692 52.0237 56.2692 51.8284 56.4645L49 59.2929L46.1716 56.4645C45.9763 56.2692 45.6597 56.2692 45.4645 56.4645C45.2692 56.6597 45.2692 56.9763 45.4645 57.1716L48.6464 60.3536ZM48.5 53V60H49.5V53H48.5Z" fill="#BB6BD9"/>
</g>
<g filter="url(#filter9_d)">
<path d="M95.6464 60.3536C95.8417 60.5488 96.1583 60.5488 96.3536 60.3536L99.5355 57.1716C99.7308 56.9763 99.7308 56.6597 99.5355 56.4645C99.3403 56.2692 99.0237 56.2692 98.8284 56.4645L96 59.2929L93.1716 56.4645C92.9763 56.2692 92.6597 56.2692 92.4645 56.4645C92.2692 56.6597 92.2692 56.9763 92.4645 57.1716L95.6464 60.3536ZM95.5 53V60H96.5V53H95.5Z" fill="#BB6BD9"/>
</g>
<g filter="url(#filter10_d)">
<path d="M140.646 60.3536C140.842 60.5488 141.158 60.5488 141.354 60.3536L144.536 57.1716C144.731 56.9763 144.731 56.6597 144.536 56.4645C144.34 56.2692 144.024 56.2692 143.828 56.4645L141 59.2929L138.172 56.4645C137.976 56.2692 137.66 56.2692 137.464 56.4645C137.269 56.6597 137.269 56.9763 137.464 57.1716L140.646 60.3536ZM140.5 53V60H141.5V53H140.5Z" fill="#BB6BD9"/>
</g>
<g filter="url(#filter11_d)">
<line x1="48.997" y1="53.5" x2="216.997" y2="52.494" stroke="#BB6BD9"/>
</g>
<g filter="url(#filter12_d)">
<path d="M51.3536 99.6464C51.1583 99.4512 50.8417 99.4512 50.6464 99.6464L47.4645 102.828C47.2692 103.024 47.2692 103.34 47.4645 103.536C47.6597 103.731 47.9763 103.731 48.1716 103.536L51 100.707L53.8284 103.536C54.0237 103.731 54.3403 103.731 54.5355 103.536C54.7308 103.34 54.7308 103.024 54.5355 102.828L51.3536 99.6464ZM51.5 106V100H50.5V106H51.5Z" fill="#56CCF2"/>
</g>
<g filter="url(#filter13_d)">
<path d="M99.3536 99.6464C99.1583 99.4512 98.8417 99.4512 98.6464 99.6464L95.4645 102.828C95.2692 103.024 95.2692 103.34 95.4645 103.536C95.6597 103.731 95.9763 103.731 96.1716 103.536L99 100.707L101.828 103.536C102.024 103.731 102.34 103.731 102.536 103.536C102.731 103.34 102.731 103.024 102.536 102.828L99.3536 99.6464ZM99.5 106V100H98.5V106H99.5Z" fill="#56CCF2"/>
</g>
<g filter="url(#filter14_d)">
<path d="M145.354 99.6464C145.158 99.4512 144.842 99.4512 144.646 99.6464L141.464 102.828C141.269 103.024 141.269 103.34 141.464 103.536C141.66 103.731 141.976 103.731 142.172 103.536L145 100.707L147.828 103.536C148.024 103.731 148.34 103.731 148.536 103.536C148.731 103.34 148.731 103.024 148.536 102.828L145.354 99.6464ZM145.5 106V100H144.5V106H145.5Z" fill="#56CCF2"/>
</g>
<g filter="url(#filter15_d)">
<line x1="51" y1="105.5" x2="217" y2="105.5" stroke="#56CCF2"/>
</g>
<path d="M223.438 58H221.738V51.6602H223.438V58ZM221.639 50.0195C221.639 49.7656 221.723 49.5566 221.891 49.3926C222.062 49.2285 222.295 49.1465 222.588 49.1465C222.877 49.1465 223.107 49.2285 223.279 49.3926C223.451 49.5566 223.537 49.7656 223.537 50.0195C223.537 50.2773 223.449 50.4883 223.273 50.6523C223.102 50.8164 222.873 50.8984 222.588 50.8984C222.303 50.8984 222.072 50.8164 221.896 50.6523C221.725 50.4883 221.639 50.2773 221.639 50.0195ZM226.396 51.6602L226.449 52.3926C226.902 51.8262 227.51 51.543 228.271 51.543C228.943 51.543 229.443 51.7402 229.771 52.1348C230.1 52.5293 230.268 53.1191 230.275 53.9043V58H228.582V53.9453C228.582 53.5859 228.504 53.3262 228.348 53.166C228.191 53.002 227.932 52.9199 227.568 52.9199C227.092 52.9199 226.734 53.123 226.496 53.5293V58H224.803V51.6602H226.396ZM231.301 54.7832C231.301 53.7949 231.521 53.0078 231.963 52.4219C232.408 51.8359 233.016 51.543 233.785 51.543C234.402 51.543 234.912 51.7734 235.314 52.2344V49H237.014V58H235.484L235.402 57.3262C234.98 57.8535 234.438 58.1172 233.773 58.1172C233.027 58.1172 232.428 57.8242 231.975 57.2383C231.525 56.6484 231.301 55.8301 231.301 54.7832ZM232.994 54.9062C232.994 55.5 233.098 55.9551 233.305 56.2715C233.512 56.5879 233.812 56.7461 234.207 56.7461C234.73 56.7461 235.1 56.5254 235.314 56.084V53.582C235.104 53.1406 234.738 52.9199 234.219 52.9199C233.402 52.9199 232.994 53.582 232.994 54.9062ZM240.113 58H238.414V51.6602H240.113V58ZM238.314 50.0195C238.314 49.7656 238.398 49.5566 238.566 49.3926C238.738 49.2285 238.971 49.1465 239.264 49.1465C239.553 49.1465 239.783 49.2285 239.955 49.3926C240.127 49.5566 240.213 49.7656 240.213 50.0195C240.213 50.2773 240.125 50.4883 239.949 50.6523C239.777 50.8164 239.549 50.8984 239.264 50.8984C238.979 50.8984 238.748 50.8164 238.572 50.6523C238.4 50.4883 238.314 50.2773 238.314 50.0195ZM244.15 56.752C244.463 56.752 244.717 56.666 244.912 56.4941C245.107 56.3223 245.209 56.0938 245.217 55.8086H246.805C246.801 56.2383 246.684 56.6328 246.453 56.9922C246.223 57.3477 245.906 57.625 245.504 57.8242C245.105 58.0195 244.664 58.1172 244.18 58.1172C243.273 58.1172 242.559 57.8301 242.035 57.2559C241.512 56.6777 241.25 55.8809 241.25 54.8652V54.7539C241.25 53.7773 241.51 52.998 242.029 52.416C242.549 51.834 243.262 51.543 244.168 51.543C244.961 51.543 245.596 51.7695 246.072 52.2227C246.553 52.6719 246.797 53.2715 246.805 54.0215H245.217C245.209 53.6934 245.107 53.4277 244.912 53.2246C244.717 53.0176 244.459 52.9141 244.139 52.9141C243.744 52.9141 243.445 53.0586 243.242 53.3477C243.043 53.6328 242.943 54.0977 242.943 54.7422V54.918C242.943 55.5703 243.043 56.0391 243.242 56.3242C243.441 56.6094 243.744 56.752 244.15 56.752ZM250.689 58.1172C249.76 58.1172 249.002 57.832 248.416 57.2617C247.834 56.6914 247.543 55.9316 247.543 54.9824V54.8184C247.543 54.1816 247.666 53.6133 247.912 53.1133C248.158 52.6094 248.506 52.2227 248.955 51.9531C249.408 51.6797 249.924 51.543 250.502 51.543C251.369 51.543 252.051 51.8164 252.547 52.3633C253.047 52.9102 253.297 53.6855 253.297 54.6895V55.3809H249.26C249.314 55.7949 249.479 56.127 249.752 56.377C250.029 56.627 250.379 56.752 250.801 56.752C251.453 56.752 251.963 56.5156 252.33 56.043L253.162 56.9746C252.908 57.334 252.564 57.6152 252.131 57.8184C251.697 58.0176 251.217 58.1172 250.689 58.1172ZM250.496 52.9141C250.16 52.9141 249.887 53.0273 249.676 53.2539C249.469 53.4805 249.336 53.8047 249.277 54.2266H251.633V54.0918C251.625 53.7168 251.523 53.4277 251.328 53.2246C251.133 53.0176 250.855 52.9141 250.496 52.9141ZM257.697 56.248C257.697 56.041 257.594 55.8789 257.387 55.7617C257.184 55.6406 256.855 55.5332 256.402 55.4395C254.895 55.123 254.141 54.4824 254.141 53.5176C254.141 52.9551 254.373 52.4863 254.838 52.1113C255.307 51.7324 255.918 51.543 256.672 51.543C257.477 51.543 258.119 51.7324 258.6 52.1113C259.084 52.4902 259.326 52.9824 259.326 53.5879H257.633C257.633 53.3457 257.555 53.1465 257.398 52.9902C257.242 52.8301 256.998 52.75 256.666 52.75C256.381 52.75 256.16 52.8145 256.004 52.9434C255.848 53.0723 255.77 53.2363 255.77 53.4355C255.77 53.623 255.857 53.7754 256.033 53.8926C256.213 54.0059 256.514 54.1055 256.936 54.1914C257.357 54.2734 257.713 54.3672 258.002 54.4727C258.896 54.8008 259.344 55.3691 259.344 56.1777C259.344 56.7559 259.096 57.2246 258.6 57.584C258.104 57.9395 257.463 58.1172 256.678 58.1172C256.146 58.1172 255.674 58.0234 255.26 57.8359C254.85 57.6445 254.527 57.3848 254.293 57.0566C254.059 56.7246 253.941 56.3672 253.941 55.9844H255.547C255.562 56.2852 255.674 56.5156 255.881 56.6758C256.088 56.8359 256.365 56.916 256.713 56.916C257.037 56.916 257.281 56.8555 257.445 56.7344C257.613 56.6094 257.697 56.4473 257.697 56.248Z" fill="#BB6BD9"/>
<path d="M228.023 108.932L229.201 104.66H230.971L228.832 111H227.215L225.076 104.66H226.846L228.023 108.932ZM235.301 111C235.223 110.848 235.166 110.658 235.131 110.432C234.721 110.889 234.188 111.117 233.531 111.117C232.91 111.117 232.395 110.938 231.984 110.578C231.578 110.219 231.375 109.766 231.375 109.219C231.375 108.547 231.623 108.031 232.119 107.672C232.619 107.312 233.34 107.131 234.281 107.127H235.061V106.764C235.061 106.471 234.984 106.236 234.832 106.061C234.684 105.885 234.447 105.797 234.123 105.797C233.838 105.797 233.613 105.865 233.449 106.002C233.289 106.139 233.209 106.326 233.209 106.564H231.516C231.516 106.197 231.629 105.857 231.855 105.545C232.082 105.232 232.402 104.988 232.816 104.812C233.23 104.633 233.695 104.543 234.211 104.543C234.992 104.543 235.611 104.74 236.068 105.135C236.529 105.525 236.76 106.076 236.76 106.787V109.535C236.764 110.137 236.848 110.592 237.012 110.9V111H235.301ZM233.9 109.822C234.15 109.822 234.381 109.768 234.592 109.658C234.803 109.545 234.959 109.395 235.061 109.207V108.117H234.428C233.58 108.117 233.129 108.41 233.074 108.996L233.068 109.096C233.068 109.307 233.143 109.48 233.291 109.617C233.439 109.754 233.643 109.822 233.9 109.822ZM239.848 111H238.148V102H239.848V111ZM245.045 110.355C244.627 110.863 244.049 111.117 243.311 111.117C242.631 111.117 242.111 110.922 241.752 110.531C241.396 110.141 241.215 109.568 241.207 108.814V104.66H242.9V108.756C242.9 109.416 243.201 109.746 243.803 109.746C244.377 109.746 244.771 109.547 244.986 109.148V104.66H246.686V111H245.092L245.045 110.355ZM250.881 111.117C249.951 111.117 249.193 110.832 248.607 110.262C248.025 109.691 247.734 108.932 247.734 107.982V107.818C247.734 107.182 247.857 106.613 248.104 106.113C248.35 105.609 248.697 105.223 249.146 104.953C249.6 104.68 250.115 104.543 250.693 104.543C251.561 104.543 252.242 104.816 252.738 105.363C253.238 105.91 253.488 106.686 253.488 107.689V108.381H249.451C249.506 108.795 249.67 109.127 249.943 109.377C250.221 109.627 250.57 109.752 250.992 109.752C251.645 109.752 252.154 109.516 252.521 109.043L253.354 109.975C253.1 110.334 252.756 110.615 252.322 110.818C251.889 111.018 251.408 111.117 250.881 111.117ZM250.688 105.914C250.352 105.914 250.078 106.027 249.867 106.254C249.66 106.48 249.527 106.805 249.469 107.227H251.824V107.092C251.816 106.717 251.715 106.428 251.52 106.225C251.324 106.018 251.047 105.914 250.688 105.914ZM257.889 109.248C257.889 109.041 257.785 108.879 257.578 108.762C257.375 108.641 257.047 108.533 256.594 108.439C255.086 108.123 254.332 107.482 254.332 106.518C254.332 105.955 254.564 105.486 255.029 105.111C255.498 104.732 256.109 104.543 256.863 104.543C257.668 104.543 258.311 104.732 258.791 105.111C259.275 105.49 259.518 105.982 259.518 106.588H257.824C257.824 106.346 257.746 106.146 257.59 105.99C257.434 105.83 257.189 105.75 256.857 105.75C256.572 105.75 256.352 105.814 256.195 105.943C256.039 106.072 255.961 106.236 255.961 106.436C255.961 106.623 256.049 106.775 256.225 106.893C256.404 107.006 256.705 107.105 257.127 107.191C257.549 107.273 257.904 107.367 258.193 107.473C259.088 107.801 259.535 108.369 259.535 109.178C259.535 109.756 259.287 110.225 258.791 110.584C258.295 110.939 257.654 111.117 256.869 111.117C256.338 111.117 255.865 111.023 255.451 110.836C255.041 110.645 254.719 110.385 254.484 110.057C254.25 109.725 254.133 109.367 254.133 108.984H255.738C255.754 109.285 255.865 109.516 256.072 109.676C256.279 109.836 256.557 109.916 256.904 109.916C257.229 109.916 257.473 109.855 257.637 109.734C257.805 109.609 257.889 109.447 257.889 109.248Z" fill="#56CCF2"/>
<defs>
<filter id="filter0_d" x="328.318" y="54" width="15.364" height="15.5" filterUnits="userSpaceOnUse" color-interpolation-filters="sRGB">
<feFlood flood-opacity="0" result="BackgroundImageFix"/>
<feColorMatrix in="SourceAlpha" type="matrix" values="0 0 0 0 0 0 0 0 0 0 0 0 0 0 0 0 0 0 127 0"/>
<feOffset dy="4"/>
<feGaussianBlur stdDeviation="2"/>
<feColorMatrix type="matrix" values="0 0 0 0 0 0 0 0 0 0 0 0 0 0 0 0 0 0 0.25 0"/>
<feBlend mode="normal" in2="BackgroundImageFix" result="effect1_dropShadow"/>
<feBlend mode="normal" in="SourceGraphic" in2="effect1_dropShadow" result="shape"/>
</filter>
<filter id="filter1_d" x="385.318" y="54" width="15.364" height="15.5" filterUnits="userSpaceOnUse" color-interpolation-filters="sRGB">
<feFlood flood-opacity="0" result="BackgroundImageFix"/>
<feColorMatrix in="SourceAlpha" type="matrix" values="0 0 0 0 0 0 0 0 0 0 0 0 0 0 0 0 0 0 127 0"/>
<feOffset dy="4"/>
<feGaussianBlur stdDeviation="2"/>
<feColorMatrix type="matrix" values="0 0 0 0 0 0 0 0 0 0 0 0 0 0 0 0 0 0 0.25 0"/>
<feBlend mode="normal" in2="BackgroundImageFix" result="effect1_dropShadow"/>
<feBlend mode="normal" in="SourceGraphic" in2="effect1_dropShadow" result="shape"/>
</filter>
<filter id="filter2_d" x="437.318" y="54" width="15.364" height="15.5" filterUnits="userSpaceOnUse" color-interpolation-filters="sRGB">
<feFlood flood-opacity="0" result="BackgroundImageFix"/>
<feColorMatrix in="SourceAlpha" type="matrix" values="0 0 0 0 0 0 0 0 0 0 0 0 0 0 0 0 0 0 127 0"/>
<feOffset dy="4"/>
<feGaussianBlur stdDeviation="2"/>
<feColorMatrix type="matrix" values="0 0 0 0 0 0 0 0 0 0 0 0 0 0 0 0 0 0 0.25 0"/>
<feBlend mode="normal" in2="BackgroundImageFix" result="effect1_dropShadow"/>
<feBlend mode="normal" in="SourceGraphic" in2="effect1_dropShadow" result="shape"/>
</filter>
<filter id="filter3_d" x="331.994" y="52.994" width="176.006" height="10.006" filterUnits="userSpaceOnUse" color-interpolation-filters="sRGB">
<feFlood flood-opacity="0" result="BackgroundImageFix"/>
<feColorMatrix in="SourceAlpha" type="matrix" values="0 0 0 0 0 0 0 0 0 0 0 0 0 0 0 0 0 0 127 0"/>
<feOffset dy="4"/>
<feGaussianBlur stdDeviation="2"/>
<feColorMatrix type="matrix" values="0 0 0 0 0 0 0 0 0 0 0 0 0 0 0 0 0 0 0.25 0"/>
<feBlend mode="normal" in2="BackgroundImageFix" result="effect1_dropShadow"/>
<feBlend mode="normal" in="SourceGraphic" in2="effect1_dropShadow" result="shape"/>
</filter>
<filter id="filter4_d" x="330.318" y="100.5" width="15.364" height="14.5" filterUnits="userSpaceOnUse" color-interpolation-filters="sRGB">
<feFlood flood-opacity="0" result="BackgroundImageFix"/>
<feColorMatrix in="SourceAlpha" type="matrix" values="0 0 0 0 0 0 0 0 0 0 0 0 0 0 0 0 0 0 127 0"/>
<feOffset dy="4"/>
<feGaussianBlur stdDeviation="2"/>
<feColorMatrix type="matrix" values="0 0 0 0 0 0 0 0 0 0 0 0 0 0 0 0 0 0 0.25 0"/>
<feBlend mode="normal" in2="BackgroundImageFix" result="effect1_dropShadow"/>
<feBlend mode="normal" in="SourceGraphic" in2="effect1_dropShadow" result="shape"/>
</filter>
<filter id="filter5_d" x="378.318" y="100.5" width="15.364" height="14.5" filterUnits="userSpaceOnUse" color-interpolation-filters="sRGB">
<feFlood flood-opacity="0" result="BackgroundImageFix"/>
<feColorMatrix in="SourceAlpha" type="matrix" values="0 0 0 0 0 0 0 0 0 0 0 0 0 0 0 0 0 0 127 0"/>
<feOffset dy="4"/>
<feGaussianBlur stdDeviation="2"/>
<feColorMatrix type="matrix" values="0 0 0 0 0 0 0 0 0 0 0 0 0 0 0 0 0 0 0.25 0"/>
<feBlend mode="normal" in2="BackgroundImageFix" result="effect1_dropShadow"/>
<feBlend mode="normal" in="SourceGraphic" in2="effect1_dropShadow" result="shape"/>
</filter>
<filter id="filter6_d" x="424.318" y="100.5" width="15.364" height="14.5" filterUnits="userSpaceOnUse" color-interpolation-filters="sRGB">
<feFlood flood-opacity="0" result="BackgroundImageFix"/>
<feColorMatrix in="SourceAlpha" type="matrix" values="0 0 0 0 0 0 0 0 0 0 0 0 0 0 0 0 0 0 127 0"/>
<feOffset dy="4"/>
<feGaussianBlur stdDeviation="2"/>
<feColorMatrix type="matrix" values="0 0 0 0 0 0 0 0 0 0 0 0 0 0 0 0 0 0 0.25 0"/>
<feBlend mode="normal" in2="BackgroundImageFix" result="effect1_dropShadow"/>
<feBlend mode="normal" in="SourceGraphic" in2="effect1_dropShadow" result="shape"/>
</filter>
<filter id="filter7_d" x="262" y="106" width="174" height="9.00001" filterUnits="userSpaceOnUse" color-interpolation-filters="sRGB">
<feFlood flood-opacity="0" result="BackgroundImageFix"/>
<feColorMatrix in="SourceAlpha" type="matrix" values="0 0 0 0 0 0 0 0 0 0 0 0 0 0 0 0 0 0 127 0"/>
<feOffset dy="4"/>
<feGaussianBlur stdDeviation="2"/>
<feColorMatrix type="matrix" values="0 0 0 0 0 0 0 0 0 0 0 0 0 0 0 0 0 0 0.25 0"/>
<feBlend mode="normal" in2="BackgroundImageFix" result="effect1_dropShadow"/>
<feBlend mode="normal" in="SourceGraphic" in2="effect1_dropShadow" result="shape"/>
</filter>
<filter id="filter8_d" x="41.318" y="53" width="15.364" height="15.5" filterUnits="userSpaceOnUse" color-interpolation-filters="sRGB">
<feFlood flood-opacity="0" result="BackgroundImageFix"/>
<feColorMatrix in="SourceAlpha" type="matrix" values="0 0 0 0 0 0 0 0 0 0 0 0 0 0 0 0 0 0 127 0"/>
<feOffset dy="4"/>
<feGaussianBlur stdDeviation="2"/>
<feColorMatrix type="matrix" values="0 0 0 0 0 0 0 0 0 0 0 0 0 0 0 0 0 0 0.25 0"/>
<feBlend mode="normal" in2="BackgroundImageFix" result="effect1_dropShadow"/>
<feBlend mode="normal" in="SourceGraphic" in2="effect1_dropShadow" result="shape"/>
</filter>
<filter id="filter9_d" x="88.318" y="53" width="15.364" height="15.5" filterUnits="userSpaceOnUse" color-interpolation-filters="sRGB">
<feFlood flood-opacity="0" result="BackgroundImageFix"/>
<feColorMatrix in="SourceAlpha" type="matrix" values="0 0 0 0 0 0 0 0 0 0 0 0 0 0 0 0 0 0 127 0"/>
<feOffset dy="4"/>
<feGaussianBlur stdDeviation="2"/>
<feColorMatrix type="matrix" values="0 0 0 0 0 0 0 0 0 0 0 0 0 0 0 0 0 0 0.25 0"/>
<feBlend mode="normal" in2="BackgroundImageFix" result="effect1_dropShadow"/>
<feBlend mode="normal" in="SourceGraphic" in2="effect1_dropShadow" result="shape"/>
</filter>
<filter id="filter10_d" x="133.318" y="53" width="15.364" height="15.5" filterUnits="userSpaceOnUse" color-interpolation-filters="sRGB">
<feFlood flood-opacity="0" result="BackgroundImageFix"/>
<feColorMatrix in="SourceAlpha" type="matrix" values="0 0 0 0 0 0 0 0 0 0 0 0 0 0 0 0 0 0 127 0"/>
<feOffset dy="4"/>
<feGaussianBlur stdDeviation="2"/>
<feColorMatrix type="matrix" values="0 0 0 0 0 0 0 0 0 0 0 0 0 0 0 0 0 0 0.25 0"/>
<feBlend mode="normal" in2="BackgroundImageFix" result="effect1_dropShadow"/>
<feBlend mode="normal" in="SourceGraphic" in2="effect1_dropShadow" result="shape"/>
</filter>
<filter id="filter11_d" x="44.994" y="51.994" width="176.006" height="10.006" filterUnits="userSpaceOnUse" color-interpolation-filters="sRGB">
<feFlood flood-opacity="0" result="BackgroundImageFix"/>
<feColorMatrix in="SourceAlpha" type="matrix" values="0 0 0 0 0 0 0 0 0 0 0 0 0 0 0 0 0 0 127 0"/>
<feOffset dy="4"/>
<feGaussianBlur stdDeviation="2"/>
<feColorMatrix type="matrix" values="0 0 0 0 0 0 0 0 0 0 0 0 0 0 0 0 0 0 0.25 0"/>
<feBlend mode="normal" in2="BackgroundImageFix" result="effect1_dropShadow"/>
<feBlend mode="normal" in="SourceGraphic" in2="effect1_dropShadow" result="shape"/>
</filter>
<filter id="filter12_d" x="43.318" y="99.5" width="15.364" height="14.5" filterUnits="userSpaceOnUse" color-interpolation-filters="sRGB">
<feFlood flood-opacity="0" result="BackgroundImageFix"/>
<feColorMatrix in="SourceAlpha" type="matrix" values="0 0 0 0 0 0 0 0 0 0 0 0 0 0 0 0 0 0 127 0"/>
<feOffset dy="4"/>
<feGaussianBlur stdDeviation="2"/>
<feColorMatrix type="matrix" values="0 0 0 0 0 0 0 0 0 0 0 0 0 0 0 0 0 0 0.25 0"/>
<feBlend mode="normal" in2="BackgroundImageFix" result="effect1_dropShadow"/>
<feBlend mode="normal" in="SourceGraphic" in2="effect1_dropShadow" result="shape"/>
</filter>
<filter id="filter13_d" x="91.318" y="99.5" width="15.364" height="14.5" filterUnits="userSpaceOnUse" color-interpolation-filters="sRGB">
<feFlood flood-opacity="0" result="BackgroundImageFix"/>
<feColorMatrix in="SourceAlpha" type="matrix" values="0 0 0 0 0 0 0 0 0 0 0 0 0 0 0 0 0 0 127 0"/>
<feOffset dy="4"/>
<feGaussianBlur stdDeviation="2"/>
<feColorMatrix type="matrix" values="0 0 0 0 0 0 0 0 0 0 0 0 0 0 0 0 0 0 0.25 0"/>
<feBlend mode="normal" in2="BackgroundImageFix" result="effect1_dropShadow"/>
<feBlend mode="normal" in="SourceGraphic" in2="effect1_dropShadow" result="shape"/>
</filter>
<filter id="filter14_d" x="137.318" y="99.5" width="15.364" height="14.5" filterUnits="userSpaceOnUse" color-interpolation-filters="sRGB">
<feFlood flood-opacity="0" result="BackgroundImageFix"/>
<feColorMatrix in="SourceAlpha" type="matrix" values="0 0 0 0 0 0 0 0 0 0 0 0 0 0 0 0 0 0 127 0"/>
<feOffset dy="4"/>
<feGaussianBlur stdDeviation="2"/>
<feColorMatrix type="matrix" values="0 0 0 0 0 0 0 0 0 0 0 0 0 0 0 0 0 0 0.25 0"/>
<feBlend mode="normal" in2="BackgroundImageFix" result="effect1_dropShadow"/>
<feBlend mode="normal" in="SourceGraphic" in2="effect1_dropShadow" result="shape"/>
</filter>
<filter id="filter15_d" x="47" y="105" width="174" height="9.00001" filterUnits="userSpaceOnUse" color-interpolation-filters="sRGB">
<feFlood flood-opacity="0" result="BackgroundImageFix"/>
<feColorMatrix in="SourceAlpha" type="matrix" values="0 0 0 0 0 0 0 0 0 0 0 0 0 0 0 0 0 0 127 0"/>
<feOffset dy="4"/>
<feGaussianBlur stdDeviation="2"/>
<feColorMatrix type="matrix" values="0 0 0 0 0 0 0 0 0 0 0 0 0 0 0 0 0 0 0.25 0"/>
<feBlend mode="normal" in2="BackgroundImageFix" result="effect1_dropShadow"/>
<feBlend mode="normal" in="SourceGraphic" in2="effect1_dropShadow" result="shape"/>
</filter>
</defs>
</svg>
