<svg width="829" height="306" viewBox="0 0 829 306" fill="none" xmlns="http://www.w3.org/2000/svg">
<rect width="829" height="306" fill="white"/>
<rect x="109" y="81" width="37" height="24" fill="#56CCF2" stroke="black" stroke-width="2"/>
<rect x="109" y="145" width="37" height="24" fill="#56CCF2" stroke="black" stroke-width="2"/>
<rect x="109" y="210" width="37" height="24" fill="#56CCF2" stroke="black" stroke-width="2"/>
<rect x="109" y="113" width="37" height="24" fill="#F2994A" stroke="black" stroke-width="2"/>
<rect x="109" y="177" width="37" height="24" fill="#56CCF2" stroke="black" stroke-width="2"/>
<rect x="155" y="81" width="37" height="24" fill="#56CCF2" stroke="black" stroke-width="2"/>
<rect x="201" y="81" width="37" height="24" fill="#56CCF2" stroke="black" stroke-width="2"/>
<rect x="155" y="145" width="37" height="24" fill="#56CCF2" stroke="black" stroke-width="2"/>
<rect x="155" y="210" width="37" height="24" fill="#56CCF2" stroke="black" stroke-width="2"/>
<rect x="201" y="145" width="37" height="24" fill="#56CCF2" stroke="black" stroke-width="2"/>
<rect x="201" y="210" width="37" height="24" fill="#56CCF2" stroke="black" stroke-width="2"/>
<rect x="155" y="113" width="37" height="24" fill="#F2994A" stroke="black" stroke-width="2"/>
<rect x="155" y="177" width="37" height="24" fill="#56CCF2" stroke="black" stroke-width="2"/>
<rect x="201" y="113" width="37" height="24" fill="#F2994A" stroke="black" stroke-width="2"/>
<rect x="201" y="177" width="37" height="24" fill="#56CCF2" stroke="black" stroke-width="2"/>
<path d="M129.67 74H127.977V67.4727L125.955 68.0996V66.7227L129.488 65.457H129.67V74ZM177.143 74H171.295V72.8398L174.055 69.8984C174.434 69.4844 174.713 69.123 174.893 68.8145C175.076 68.5059 175.168 68.2129 175.168 67.9355C175.168 67.5566 175.072 67.2598 174.881 67.0449C174.689 66.8262 174.416 66.7168 174.061 66.7168C173.678 66.7168 173.375 66.8496 173.152 67.1152C172.934 67.377 172.824 67.7227 172.824 68.1523H171.125C171.125 67.6328 171.248 67.1582 171.494 66.7285C171.744 66.2988 172.096 65.9629 172.549 65.7207C173.002 65.4746 173.516 65.3516 174.09 65.3516C174.969 65.3516 175.65 65.5625 176.135 65.9844C176.623 66.4062 176.867 67.002 176.867 67.7715C176.867 68.1934 176.758 68.623 176.539 69.0605C176.32 69.498 175.945 70.0078 175.414 70.5898L173.475 72.6348H177.143V74ZM215.768 68.9844H216.67C217.1 68.9844 217.418 68.877 217.625 68.6621C217.832 68.4473 217.936 68.1621 217.936 67.8066C217.936 67.4629 217.832 67.1953 217.625 67.0039C217.422 66.8125 217.141 66.7168 216.781 66.7168C216.457 66.7168 216.186 66.8066 215.967 66.9863C215.748 67.1621 215.639 67.3926 215.639 67.6777H213.945C213.945 67.2324 214.064 66.834 214.303 66.4824C214.545 66.127 214.881 65.8496 215.311 65.6504C215.744 65.4512 216.221 65.3516 216.74 65.3516C217.643 65.3516 218.35 65.5684 218.861 66.002C219.373 66.4316 219.629 67.0254 219.629 67.7832C219.629 68.1738 219.51 68.5332 219.271 68.8613C219.033 69.1895 218.721 69.4414 218.334 69.6172C218.814 69.7891 219.172 70.0469 219.406 70.3906C219.645 70.7344 219.764 71.1406 219.764 71.6094C219.764 72.3672 219.486 72.9746 218.932 73.4316C218.381 73.8887 217.65 74.1172 216.74 74.1172C215.889 74.1172 215.191 73.8926 214.648 73.4434C214.109 72.9941 213.84 72.4004 213.84 71.6621H215.533C215.533 71.9824 215.652 72.2441 215.891 72.4473C216.133 72.6504 216.43 72.752 216.781 72.752C217.184 72.752 217.498 72.6465 217.725 72.4355C217.955 72.2207 218.07 71.9375 218.07 71.5859C218.07 70.7344 217.602 70.3086 216.664 70.3086H215.768V68.9844Z" fill="#BB6BD9"/>
<path d="M99.6934 94H98V87.4727L95.9785 88.0996V86.7227L99.5117 85.457H99.6934V94Z" fill="#BB6BD9"/>
<path d="M101.428 128H95.5801V126.84L98.3398 123.898C98.7188 123.484 98.998 123.123 99.1777 122.814C99.3613 122.506 99.4531 122.213 99.4531 121.936C99.4531 121.557 99.3574 121.26 99.166 121.045C98.9746 120.826 98.7012 120.717 98.3457 120.717C97.9629 120.717 97.6602 120.85 97.4375 121.115C97.2188 121.377 97.1094 121.723 97.1094 122.152H95.4102C95.4102 121.633 95.5332 121.158 95.7793 120.729C96.0293 120.299 96.3809 119.963 96.834 119.721C97.2871 119.475 97.8008 119.352 98.375 119.352C99.2539 119.352 99.9355 119.562 100.42 119.984C100.908 120.406 101.152 121.002 101.152 121.771C101.152 122.193 101.043 122.623 100.824 123.061C100.605 123.498 100.23 124.008 99.6992 124.59L97.7598 126.635H101.428V128Z" fill="#BB6BD9"/>
<path d="M97.3027 154.984H98.2051C98.6348 154.984 98.9531 154.877 99.1602 154.662C99.3672 154.447 99.4707 154.162 99.4707 153.807C99.4707 153.463 99.3672 153.195 99.1602 153.004C98.957 152.812 98.6758 152.717 98.3164 152.717C97.9922 152.717 97.7207 152.807 97.502 152.986C97.2832 153.162 97.1738 153.393 97.1738 153.678H95.4805C95.4805 153.232 95.5996 152.834 95.8379 152.482C96.0801 152.127 96.416 151.85 96.8457 151.65C97.2793 151.451 97.7559 151.352 98.2754 151.352C99.1777 151.352 99.8848 151.568 100.396 152.002C100.908 152.432 101.164 153.025 101.164 153.783C101.164 154.174 101.045 154.533 100.807 154.861C100.568 155.189 100.256 155.441 99.8691 155.617C100.35 155.789 100.707 156.047 100.941 156.391C101.18 156.734 101.299 157.141 101.299 157.609C101.299 158.367 101.021 158.975 100.467 159.432C99.916 159.889 99.1855 160.117 98.2754 160.117C97.4238 160.117 96.7266 159.893 96.1836 159.443C95.6445 158.994 95.375 158.4 95.375 157.662H97.0684C97.0684 157.982 97.1875 158.244 97.4258 158.447C97.668 158.65 97.9648 158.752 98.3164 158.752C98.7188 158.752 99.0332 158.646 99.2598 158.436C99.4902 158.221 99.6055 157.938 99.6055 157.586C99.6055 156.734 99.1367 156.309 98.1992 156.309H97.3027V154.984Z" fill="#BB6BD9"/>
<path d="M100.59 188.789H101.557V190.154H100.59V192H98.8965V190.154H95.3984L95.3223 189.088L98.8789 183.469H100.59V188.789ZM97.0098 188.789H98.8965V185.777L98.7852 185.971L97.0098 188.789Z" fill="#BB6BD9"/>
<path d="M95.832 219.805L96.3242 215.469H101.105V216.881H97.7129L97.502 218.715C97.9043 218.5 98.332 218.393 98.7852 218.393C99.5977 218.393 100.234 218.645 100.695 219.148C101.156 219.652 101.387 220.357 101.387 221.264C101.387 221.814 101.27 222.309 101.035 222.746C100.805 223.18 100.473 223.518 100.039 223.76C99.6055 223.998 99.0938 224.117 98.5039 224.117C97.9883 224.117 97.5098 224.014 97.0684 223.807C96.627 223.596 96.2773 223.301 96.0195 222.922C95.7656 222.543 95.6309 222.111 95.6152 221.627H97.291C97.3262 221.982 97.4492 222.26 97.6602 222.459C97.875 222.654 98.1543 222.752 98.498 222.752C98.8809 222.752 99.1758 222.615 99.3828 222.342C99.5898 222.064 99.6934 221.674 99.6934 221.17C99.6934 220.686 99.5742 220.314 99.3359 220.057C99.0977 219.799 98.7598 219.67 98.3223 219.67C97.9199 219.67 97.5938 219.775 97.3438 219.986L97.1797 220.139L95.832 219.805Z" fill="#BB6BD9"/>
<rect x="394" y="81" width="37" height="24" fill="#56CCF2" stroke="black" stroke-width="2"/>
<rect x="394" y="145" width="37" height="24" fill="#56CCF2" stroke="black" stroke-width="2"/>
<rect x="394" y="210" width="37" height="24" fill="#56CCF2" stroke="black" stroke-width="2"/>
<rect x="394" y="113" width="37" height="24" fill="#56CCF2" stroke="black" stroke-width="2"/>
<rect x="394" y="177" width="37" height="24" fill="#56CCF2" stroke="black" stroke-width="2"/>
<rect x="440" y="81" width="37" height="24" fill="#56CCF2" stroke="black" stroke-width="2"/>
<rect x="486" y="81" width="37" height="24" fill="#F2994A" stroke="black" stroke-width="2"/>
<rect x="440" y="145" width="37" height="24" fill="#56CCF2" stroke="black" stroke-width="2"/>
<rect x="440" y="210" width="37" height="24" fill="#56CCF2" stroke="black" stroke-width="2"/>
<rect x="486" y="145" width="37" height="24" fill="#F2994A" stroke="black" stroke-width="2"/>
<rect x="486" y="210" width="37" height="24" fill="#F2994A" stroke="black" stroke-width="2"/>
<rect x="440" y="113" width="37" height="24" fill="#56CCF2" stroke="black" stroke-width="2"/>
<rect x="440" y="177" width="37" height="24" fill="#56CCF2" stroke="black" stroke-width="2"/>
<rect x="486" y="113" width="37" height="24" fill="#F2994A" stroke="black" stroke-width="2"/>
<rect x="486" y="177" width="37" height="24" fill="#F2994A" stroke="black" stroke-width="2"/>
<path d="M414.67 74H412.977V67.4727L410.955 68.0996V66.7227L414.488 65.457H414.67V74ZM462.143 74H456.295V72.8398L459.055 69.8984C459.434 69.4844 459.713 69.123 459.893 68.8145C460.076 68.5059 460.168 68.2129 460.168 67.9355C460.168 67.5566 460.072 67.2598 459.881 67.0449C459.689 66.8262 459.416 66.7168 459.061 66.7168C458.678 66.7168 458.375 66.8496 458.152 67.1152C457.934 67.377 457.824 67.7227 457.824 68.1523H456.125C456.125 67.6328 456.248 67.1582 456.494 66.7285C456.744 66.2988 457.096 65.9629 457.549 65.7207C458.002 65.4746 458.516 65.3516 459.09 65.3516C459.969 65.3516 460.65 65.5625 461.135 65.9844C461.623 66.4062 461.867 67.002 461.867 67.7715C461.867 68.1934 461.758 68.623 461.539 69.0605C461.32 69.498 460.945 70.0078 460.414 70.5898L458.475 72.6348H462.143V74ZM500.768 68.9844H501.67C502.1 68.9844 502.418 68.877 502.625 68.6621C502.832 68.4473 502.936 68.1621 502.936 67.8066C502.936 67.4629 502.832 67.1953 502.625 67.0039C502.422 66.8125 502.141 66.7168 501.781 66.7168C501.457 66.7168 501.186 66.8066 500.967 66.9863C500.748 67.1621 500.639 67.3926 500.639 67.6777H498.945C498.945 67.2324 499.064 66.834 499.303 66.4824C499.545 66.127 499.881 65.8496 500.311 65.6504C500.744 65.4512 501.221 65.3516 501.74 65.3516C502.643 65.3516 503.35 65.5684 503.861 66.002C504.373 66.4316 504.629 67.0254 504.629 67.7832C504.629 68.1738 504.51 68.5332 504.271 68.8613C504.033 69.1895 503.721 69.4414 503.334 69.6172C503.814 69.7891 504.172 70.0469 504.406 70.3906C504.645 70.7344 504.764 71.1406 504.764 71.6094C504.764 72.3672 504.486 72.9746 503.932 73.4316C503.381 73.8887 502.65 74.1172 501.74 74.1172C500.889 74.1172 500.191 73.8926 499.648 73.4434C499.109 72.9941 498.84 72.4004 498.84 71.6621H500.533C500.533 71.9824 500.652 72.2441 500.891 72.4473C501.133 72.6504 501.43 72.752 501.781 72.752C502.184 72.752 502.498 72.6465 502.725 72.4355C502.955 72.2207 503.07 71.9375 503.07 71.5859C503.07 70.7344 502.602 70.3086 501.664 70.3086H500.768V68.9844Z" fill="#BB6BD9"/>
<path d="M384.693 94H383V87.4727L380.979 88.0996V86.7227L384.512 85.457H384.693V94Z" fill="#BB6BD9"/>
<path d="M386.428 128H380.58V126.84L383.34 123.898C383.719 123.484 383.998 123.123 384.178 122.814C384.361 122.506 384.453 122.213 384.453 121.936C384.453 121.557 384.357 121.26 384.166 121.045C383.975 120.826 383.701 120.717 383.346 120.717C382.963 120.717 382.66 120.85 382.438 121.115C382.219 121.377 382.109 121.723 382.109 122.152H380.41C380.41 121.633 380.533 121.158 380.779 120.729C381.029 120.299 381.381 119.963 381.834 119.721C382.287 119.475 382.801 119.352 383.375 119.352C384.254 119.352 384.936 119.562 385.42 119.984C385.908 120.406 386.152 121.002 386.152 121.771C386.152 122.193 386.043 122.623 385.824 123.061C385.605 123.498 385.23 124.008 384.699 124.59L382.76 126.635H386.428V128Z" fill="#BB6BD9"/>
<path d="M382.303 154.984H383.205C383.635 154.984 383.953 154.877 384.16 154.662C384.367 154.447 384.471 154.162 384.471 153.807C384.471 153.463 384.367 153.195 384.16 153.004C383.957 152.812 383.676 152.717 383.316 152.717C382.992 152.717 382.721 152.807 382.502 152.986C382.283 153.162 382.174 153.393 382.174 153.678H380.48C380.48 153.232 380.6 152.834 380.838 152.482C381.08 152.127 381.416 151.85 381.846 151.65C382.279 151.451 382.756 151.352 383.275 151.352C384.178 151.352 384.885 151.568 385.396 152.002C385.908 152.432 386.164 153.025 386.164 153.783C386.164 154.174 386.045 154.533 385.807 154.861C385.568 155.189 385.256 155.441 384.869 155.617C385.35 155.789 385.707 156.047 385.941 156.391C386.18 156.734 386.299 157.141 386.299 157.609C386.299 158.367 386.021 158.975 385.467 159.432C384.916 159.889 384.186 160.117 383.275 160.117C382.424 160.117 381.727 159.893 381.184 159.443C380.645 158.994 380.375 158.4 380.375 157.662H382.068C382.068 157.982 382.188 158.244 382.426 158.447C382.668 158.65 382.965 158.752 383.316 158.752C383.719 158.752 384.033 158.646 384.26 158.436C384.49 158.221 384.605 157.938 384.605 157.586C384.605 156.734 384.137 156.309 383.199 156.309H382.303V154.984Z" fill="#BB6BD9"/>
<path d="M385.59 188.789H386.557V190.154H385.59V192H383.896V190.154H380.398L380.322 189.088L383.879 183.469H385.59V188.789ZM382.01 188.789H383.896V185.777L383.785 185.971L382.01 188.789Z" fill="#BB6BD9"/>
<path d="M380.832 219.805L381.324 215.469H386.105V216.881H382.713L382.502 218.715C382.904 218.5 383.332 218.393 383.785 218.393C384.598 218.393 385.234 218.645 385.695 219.148C386.156 219.652 386.387 220.357 386.387 221.264C386.387 221.814 386.27 222.309 386.035 222.746C385.805 223.18 385.473 223.518 385.039 223.76C384.605 223.998 384.094 224.117 383.504 224.117C382.988 224.117 382.51 224.014 382.068 223.807C381.627 223.596 381.277 223.301 381.02 222.922C380.766 222.543 380.631 222.111 380.615 221.627H382.291C382.326 221.982 382.449 222.26 382.66 222.459C382.875 222.654 383.154 222.752 383.498 222.752C383.881 222.752 384.176 222.615 384.383 222.342C384.59 222.064 384.693 221.674 384.693 221.17C384.693 220.686 384.574 220.314 384.336 220.057C384.098 219.799 383.76 219.67 383.322 219.67C382.92 219.67 382.594 219.775 382.344 219.986L382.18 220.139L380.832 219.805Z" fill="#BB6BD9"/>
<path d="M52 125H67" stroke="#F2994A" stroke-width="3"/>
<path d="M64.5 118.3L72.2362 125L64.5 131.7V118.3Z" fill="#F2994A" stroke="#F2994A"/>
<path d="M11.9199 125.877H10.5195V129H8.76172V120.469H11.9316C12.9395 120.469 13.7168 120.693 14.2637 121.143C14.8105 121.592 15.084 122.227 15.084 123.047C15.084 123.629 14.957 124.115 14.7031 124.506C14.4531 124.893 14.0723 125.201 13.5605 125.432L15.4062 128.918V129H13.5195L11.9199 125.877ZM10.5195 124.453H11.9375C12.3789 124.453 12.7207 124.342 12.9629 124.119C13.2051 123.893 13.3262 123.582 13.3262 123.188C13.3262 122.785 13.2109 122.469 12.9805 122.238C12.7539 122.008 12.4043 121.893 11.9316 121.893H10.5195V124.453ZM16.0508 125.771C16.0508 125.143 16.1719 124.582 16.4141 124.09C16.6562 123.598 17.0039 123.217 17.457 122.947C17.9141 122.678 18.4434 122.543 19.0449 122.543C19.9004 122.543 20.5977 122.805 21.1367 123.328C21.6797 123.852 21.9824 124.562 22.0449 125.461L22.0566 125.895C22.0566 126.867 21.7852 127.648 21.2422 128.238C20.6992 128.824 19.9707 129.117 19.0566 129.117C18.1426 129.117 17.4121 128.824 16.8652 128.238C16.3223 127.652 16.0508 126.855 16.0508 125.848V125.771ZM17.7441 125.895C17.7441 126.496 17.8574 126.957 18.084 127.277C18.3105 127.594 18.6348 127.752 19.0566 127.752C19.4668 127.752 19.7871 127.596 20.0176 127.283C20.248 126.967 20.3633 126.463 20.3633 125.771C20.3633 125.182 20.248 124.725 20.0176 124.4C19.7871 124.076 19.4629 123.914 19.0449 123.914C18.6309 123.914 18.3105 124.076 18.084 124.4C17.8574 124.721 17.7441 125.219 17.7441 125.895ZM28.6133 126.697L29.4453 122.66H31.0801L29.4629 129H28.0449L26.8438 125.01L25.6426 129H24.2305L22.6133 122.66H24.248L25.0742 126.691L26.2344 122.66H27.459L28.6133 126.697ZM40.6895 129H34.8418V127.84L37.6016 124.898C37.9805 124.484 38.2598 124.123 38.4395 123.814C38.623 123.506 38.7148 123.213 38.7148 122.936C38.7148 122.557 38.6191 122.26 38.4277 122.045C38.2363 121.826 37.9629 121.717 37.6074 121.717C37.2246 121.717 36.9219 121.85 36.6992 122.115C36.4805 122.377 36.3711 122.723 36.3711 123.152H34.6719C34.6719 122.633 34.7949 122.158 35.041 121.729C35.291 121.299 35.6426 120.963 36.0957 120.721C36.5488 120.475 37.0625 120.352 37.6367 120.352C38.5156 120.352 39.1973 120.562 39.6816 120.984C40.1699 121.406 40.4141 122.002 40.4141 122.771C40.4141 123.193 40.3047 123.623 40.0859 124.061C39.8672 124.498 39.4922 125.008 38.9609 125.59L37.0215 127.635H40.6895V129Z" fill="#F2994A"/>
<rect opacity="0.4" x="77" y="109" width="163" height="32" fill="#F2994A"/>
<path d="M485.459 26.1582C485.393 27.0762 485.053 27.7988 484.439 28.3262C483.83 28.8535 483.025 29.1172 482.025 29.1172C480.932 29.1172 480.07 28.75 479.441 28.0156C478.816 27.2773 478.504 26.2656 478.504 24.9805V24.459C478.504 23.6387 478.648 22.916 478.938 22.291C479.227 21.666 479.639 21.1875 480.174 20.8555C480.713 20.5195 481.338 20.3516 482.049 20.3516C483.033 20.3516 483.826 20.6152 484.428 21.1426C485.029 21.6699 485.377 22.4102 485.471 23.3633H483.713C483.67 22.8125 483.516 22.4141 483.25 22.168C482.988 21.918 482.588 21.793 482.049 21.793C481.463 21.793 481.023 22.0039 480.73 22.4258C480.441 22.8438 480.293 23.4941 480.285 24.377V25.0215C480.285 25.9434 480.424 26.6172 480.701 27.043C480.982 27.4688 481.424 27.6816 482.025 27.6816C482.568 27.6816 482.973 27.5586 483.238 27.3125C483.508 27.0625 483.662 26.6777 483.701 26.1582H485.459ZM486.238 25.7715C486.238 25.1426 486.359 24.582 486.602 24.0898C486.844 23.5977 487.191 23.2168 487.645 22.9473C488.102 22.6777 488.631 22.543 489.232 22.543C490.088 22.543 490.785 22.8047 491.324 23.3281C491.867 23.8516 492.17 24.5625 492.232 25.4609L492.244 25.8945C492.244 26.8672 491.973 27.6484 491.43 28.2383C490.887 28.8242 490.158 29.1172 489.244 29.1172C488.33 29.1172 487.6 28.8242 487.053 28.2383C486.51 27.6523 486.238 26.8555 486.238 25.8477V25.7715ZM487.932 25.8945C487.932 26.4961 488.045 26.957 488.271 27.2773C488.498 27.5938 488.822 27.752 489.244 27.752C489.654 27.752 489.975 27.5957 490.205 27.2832C490.436 26.9668 490.551 26.4629 490.551 25.7715C490.551 25.1816 490.436 24.7246 490.205 24.4004C489.975 24.0762 489.65 23.9141 489.232 23.9141C488.818 23.9141 488.498 24.0762 488.271 24.4004C488.045 24.7207 487.932 25.2188 487.932 25.8945ZM495.074 29H493.375V20H495.074V29ZM500.271 28.3555C499.854 28.8633 499.275 29.1172 498.537 29.1172C497.857 29.1172 497.338 28.9219 496.979 28.5312C496.623 28.1406 496.441 27.5684 496.434 26.8145V22.6602H498.127V26.7559C498.127 27.416 498.428 27.7461 499.029 27.7461C499.604 27.7461 499.998 27.5469 500.213 27.1484V22.6602H501.912V29H500.318L500.271 28.3555ZM504.777 22.6602L504.83 23.3691C505.279 22.8184 505.887 22.543 506.652 22.543C507.469 22.543 508.029 22.8652 508.334 23.5098C508.779 22.8652 509.414 22.543 510.238 22.543C510.926 22.543 511.438 22.7441 511.773 23.1465C512.109 23.5449 512.277 24.1465 512.277 24.9512V29H510.578V24.957C510.578 24.5977 510.508 24.3359 510.367 24.1719C510.227 24.0039 509.979 23.9199 509.623 23.9199C509.115 23.9199 508.764 24.1621 508.568 24.6465L508.574 29H506.881V24.9629C506.881 24.5957 506.809 24.3301 506.664 24.166C506.52 24.002 506.273 23.9199 505.926 23.9199C505.445 23.9199 505.098 24.1191 504.883 24.5176V29H503.189V22.6602H504.777ZM515.143 22.6602L515.195 23.3926C515.648 22.8262 516.256 22.543 517.018 22.543C517.689 22.543 518.189 22.7402 518.518 23.1348C518.846 23.5293 519.014 24.1191 519.021 24.9043V29H517.328V24.9453C517.328 24.5859 517.25 24.3262 517.094 24.166C516.938 24.002 516.678 23.9199 516.314 23.9199C515.838 23.9199 515.48 24.123 515.242 24.5293V29H513.549V22.6602H515.143ZM524.951 23.9844H525.854C526.283 23.9844 526.602 23.877 526.809 23.6621C527.016 23.4473 527.119 23.1621 527.119 22.8066C527.119 22.4629 527.016 22.1953 526.809 22.0039C526.605 21.8125 526.324 21.7168 525.965 21.7168C525.641 21.7168 525.369 21.8066 525.15 21.9863C524.932 22.1621 524.822 22.3926 524.822 22.6777H523.129C523.129 22.2324 523.248 21.834 523.486 21.4824C523.729 21.127 524.064 20.8496 524.494 20.6504C524.928 20.4512 525.404 20.3516 525.924 20.3516C526.826 20.3516 527.533 20.5684 528.045 21.002C528.557 21.4316 528.812 22.0254 528.812 22.7832C528.812 23.1738 528.693 23.5332 528.455 23.8613C528.217 24.1895 527.904 24.4414 527.518 24.6172C527.998 24.7891 528.355 25.0469 528.59 25.3906C528.828 25.7344 528.947 26.1406 528.947 26.6094C528.947 27.3672 528.67 27.9746 528.115 28.4316C527.564 28.8887 526.834 29.1172 525.924 29.1172C525.072 29.1172 524.375 28.8926 523.832 28.4434C523.293 27.9941 523.023 27.4004 523.023 26.6621H524.717C524.717 26.9824 524.836 27.2441 525.074 27.4473C525.316 27.6504 525.613 27.752 525.965 27.752C526.367 27.752 526.682 27.6465 526.908 27.4355C527.139 27.2207 527.254 26.9375 527.254 26.5859C527.254 25.7344 526.785 25.3086 525.848 25.3086H524.951V23.9844Z" fill="#F2994A"/>
<path d="M505 33L505 47" stroke="#F2994A" stroke-width="3"/>
<path d="M511.7 44.5L505 52.2362L498.3 44.5H511.7Z" fill="#F2994A" stroke="#F2994A"/>
<rect opacity="0.4" x="483" y="59" width="43" height="176" fill="#F2994A"/>
<path d="M130.197 261H129.072V252.469H130.197V261ZM138.816 261H137.686L133.391 254.426V261H132.26V252.469H133.391L137.697 259.072V252.469H138.816V261ZM140.814 261V252.469H143.223C143.965 252.469 144.621 252.633 145.191 252.961C145.762 253.289 146.201 253.756 146.51 254.361C146.822 254.967 146.98 255.662 146.984 256.447V256.992C146.984 257.797 146.828 258.502 146.516 259.107C146.207 259.713 145.764 260.178 145.186 260.502C144.611 260.826 143.941 260.992 143.176 261H140.814ZM141.939 253.395V260.08H143.123C143.99 260.08 144.664 259.811 145.145 259.271C145.629 258.732 145.871 257.965 145.871 256.969V256.471C145.871 255.502 145.643 254.75 145.186 254.215C144.732 253.676 144.088 253.402 143.252 253.395H141.939ZM153.512 257.057H149.814V260.08H154.109V261H148.689V252.469H154.051V253.395H149.814V256.137H153.512V257.057ZM158.293 255.738L160.338 252.469H161.662L158.967 256.699L161.727 261H160.391L158.293 257.672L156.184 261H154.854L157.619 256.699L154.918 252.469H156.236L158.293 255.738ZM164.24 261H163.115V252.469H164.24V261ZM172.859 261H171.729L167.434 254.426V261H166.303V252.469H167.434L171.74 259.072V252.469H172.859V261ZM181.156 259.881C180.867 260.295 180.463 260.605 179.943 260.812C179.428 261.016 178.826 261.117 178.139 261.117C177.443 261.117 176.826 260.955 176.287 260.631C175.748 260.303 175.33 259.838 175.033 259.236C174.74 258.635 174.59 257.938 174.582 257.145V256.4C174.582 255.115 174.881 254.119 175.479 253.412C176.08 252.705 176.924 252.352 178.01 252.352C178.9 252.352 179.617 252.58 180.16 253.037C180.703 253.49 181.035 254.135 181.156 254.971H180.031C179.82 253.842 179.148 253.277 178.016 253.277C177.262 253.277 176.689 253.543 176.299 254.074C175.912 254.602 175.717 255.367 175.713 256.371V257.068C175.713 258.025 175.932 258.787 176.369 259.354C176.807 259.916 177.398 260.197 178.145 260.197C178.566 260.197 178.936 260.15 179.252 260.057C179.568 259.963 179.83 259.805 180.037 259.582V257.666H178.062V256.752H181.156V259.881ZM193.49 259.406H190.672L190.18 261H187.982L191.111 252.469H193.045L196.197 261H193.988L193.49 259.406ZM191.164 257.818H192.998L192.078 254.859L191.164 257.818ZM202.982 257.988H201.869V261H199.812V252.469H203.17C204.182 252.469 204.973 252.693 205.543 253.143C206.113 253.592 206.398 254.227 206.398 255.047C206.398 255.641 206.277 256.133 206.035 256.523C205.797 256.914 205.422 257.23 204.91 257.473L206.691 260.912V261H204.488L202.982 257.988ZM201.869 256.4H203.17C203.561 256.4 203.854 256.299 204.049 256.096C204.248 255.889 204.348 255.602 204.348 255.234C204.348 254.867 204.248 254.58 204.049 254.373C203.85 254.162 203.557 254.057 203.17 254.057H201.869V256.4ZM214.865 256.91C214.865 257.742 214.711 258.479 214.402 259.119C214.094 259.76 213.654 260.254 213.084 260.602C212.518 260.945 211.871 261.117 211.145 261.117C210.418 261.117 209.773 260.951 209.211 260.619C208.648 260.283 208.209 259.805 207.893 259.184C207.58 258.562 207.416 257.85 207.4 257.045V256.564C207.4 255.729 207.553 254.992 207.857 254.355C208.166 253.715 208.605 253.221 209.176 252.873C209.75 252.525 210.402 252.352 211.133 252.352C211.855 252.352 212.5 252.523 213.066 252.867C213.633 253.211 214.072 253.701 214.385 254.338C214.701 254.971 214.861 255.697 214.865 256.518V256.91ZM212.773 256.553C212.773 255.705 212.631 255.062 212.346 254.625C212.064 254.184 211.66 253.963 211.133 253.963C210.102 253.963 209.557 254.736 209.498 256.283L209.492 256.91C209.492 257.746 209.631 258.389 209.908 258.838C210.186 259.287 210.598 259.512 211.145 259.512C211.664 259.512 212.064 259.291 212.346 258.85C212.627 258.408 212.77 257.773 212.773 256.945V256.553ZM222.535 257.818L223.514 252.469H225.553L223.742 261H221.609L220.467 256.137L219.348 261H217.221L215.404 252.469H217.449L218.428 257.818L219.6 252.469H221.346L222.535 257.818ZM167.012 266.381H166.18V275.68H167.012V276.986H164.48V265.074H167.012V266.381ZM171.037 271.877H169.637V275H167.879V266.469H171.049C172.057 266.469 172.834 266.693 173.381 267.143C173.928 267.592 174.201 268.227 174.201 269.047C174.201 269.629 174.074 270.115 173.82 270.506C173.57 270.893 173.189 271.201 172.678 271.432L174.523 274.918V275H172.637L171.037 271.877ZM169.637 270.453H171.055C171.496 270.453 171.838 270.342 172.08 270.119C172.322 269.893 172.443 269.582 172.443 269.188C172.443 268.785 172.328 268.469 172.098 268.238C171.871 268.008 171.521 267.893 171.049 267.893H169.637V270.453ZM182.551 270.928C182.551 271.768 182.402 272.504 182.105 273.137C181.809 273.77 181.383 274.258 180.828 274.602C180.277 274.945 179.645 275.117 178.93 275.117C178.223 275.117 177.592 274.947 177.037 274.607C176.482 274.268 176.053 273.783 175.748 273.154C175.443 272.521 175.289 271.795 175.285 270.975V270.553C175.285 269.713 175.436 268.975 175.736 268.338C176.041 267.697 176.469 267.207 177.02 266.867C177.574 266.523 178.207 266.352 178.918 266.352C179.629 266.352 180.26 266.523 180.811 266.867C181.365 267.207 181.793 267.697 182.094 268.338C182.398 268.975 182.551 269.711 182.551 270.547V270.928ZM180.77 270.541C180.77 269.646 180.609 268.967 180.289 268.502C179.969 268.037 179.512 267.805 178.918 267.805C178.328 267.805 177.873 268.035 177.553 268.496C177.232 268.953 177.07 269.625 177.066 270.512V270.928C177.066 271.799 177.227 272.475 177.547 272.955C177.867 273.436 178.328 273.676 178.93 273.676C179.52 273.676 179.973 273.445 180.289 272.984C180.605 272.52 180.766 271.844 180.77 270.957V270.541ZM190.473 272.539L191.621 266.469H193.373L191.48 275H189.711L188.322 269.293L186.934 275H185.164L183.271 266.469H185.023L186.178 272.527L187.584 266.469H189.072L190.473 272.539ZM193.812 277.139L192.928 276.676L193.139 276.295C193.4 275.818 193.535 275.344 193.543 274.871V273.559H194.973L194.967 274.73C194.963 275.164 194.854 275.602 194.639 276.043C194.424 276.484 194.148 276.85 193.812 277.139ZM201.705 265.074H204.236V276.986H201.705V275.68H202.543V266.381H201.705V265.074Z" fill="#9B51E0"/>
<path d="M382.197 261H381.072V252.469H382.197V261ZM390.816 261H389.686L385.391 254.426V261H384.26V252.469H385.391L389.697 259.072V252.469H390.816V261ZM392.814 261V252.469H395.223C395.965 252.469 396.621 252.633 397.191 252.961C397.762 253.289 398.201 253.756 398.51 254.361C398.822 254.967 398.98 255.662 398.984 256.447V256.992C398.984 257.797 398.828 258.502 398.516 259.107C398.207 259.713 397.764 260.178 397.186 260.502C396.611 260.826 395.941 260.992 395.176 261H392.814ZM393.939 253.395V260.08H395.123C395.99 260.08 396.664 259.811 397.145 259.271C397.629 258.732 397.871 257.965 397.871 256.969V256.471C397.871 255.502 397.643 254.75 397.186 254.215C396.732 253.676 396.088 253.402 395.252 253.395H393.939ZM405.512 257.057H401.814V260.08H406.109V261H400.689V252.469H406.051V253.395H401.814V256.137H405.512V257.057ZM410.293 255.738L412.338 252.469H413.662L410.967 256.699L413.727 261H412.391L410.293 257.672L408.184 261H406.854L409.619 256.699L406.918 252.469H408.236L410.293 255.738ZM416.24 261H415.115V252.469H416.24V261ZM424.859 261H423.729L419.434 254.426V261H418.303V252.469H419.434L423.74 259.072V252.469H424.859V261ZM433.156 259.881C432.867 260.295 432.463 260.605 431.943 260.812C431.428 261.016 430.826 261.117 430.139 261.117C429.443 261.117 428.826 260.955 428.287 260.631C427.748 260.303 427.33 259.838 427.033 259.236C426.74 258.635 426.59 257.938 426.582 257.145V256.4C426.582 255.115 426.881 254.119 427.479 253.412C428.08 252.705 428.924 252.352 430.01 252.352C430.9 252.352 431.617 252.58 432.16 253.037C432.703 253.49 433.035 254.135 433.156 254.971H432.031C431.82 253.842 431.148 253.277 430.016 253.277C429.262 253.277 428.689 253.543 428.299 254.074C427.912 254.602 427.717 255.367 427.713 256.371V257.068C427.713 258.025 427.932 258.787 428.369 259.354C428.807 259.916 429.398 260.197 430.145 260.197C430.566 260.197 430.936 260.15 431.252 260.057C431.568 259.963 431.83 259.805 432.037 259.582V257.666H430.062V256.752H433.156V259.881ZM445.49 259.406H442.672L442.18 261H439.982L443.111 252.469H445.045L448.197 261H445.988L445.49 259.406ZM443.164 257.818H444.998L444.078 254.859L443.164 257.818ZM458.715 258.111C458.688 258.705 458.527 259.23 458.234 259.688C457.941 260.141 457.529 260.492 456.998 260.742C456.471 260.992 455.867 261.117 455.188 261.117C454.066 261.117 453.184 260.752 452.539 260.021C451.895 259.291 451.572 258.26 451.572 256.928V256.506C451.572 255.67 451.717 254.939 452.006 254.314C452.299 253.686 452.719 253.201 453.266 252.861C453.812 252.518 454.445 252.346 455.164 252.346C456.199 252.346 457.031 252.619 457.66 253.166C458.289 253.709 458.646 254.459 458.732 255.416H456.682C456.666 254.896 456.535 254.523 456.289 254.297C456.043 254.07 455.668 253.957 455.164 253.957C454.652 253.957 454.277 254.148 454.039 254.531C453.801 254.914 453.676 255.525 453.664 256.365V256.969C453.664 257.879 453.777 258.529 454.004 258.92C454.234 259.311 454.629 259.506 455.188 259.506C455.66 259.506 456.021 259.395 456.271 259.172C456.521 258.949 456.654 258.596 456.67 258.111H458.715ZM466.912 256.91C466.912 257.742 466.758 258.479 466.449 259.119C466.141 259.76 465.701 260.254 465.131 260.602C464.564 260.945 463.918 261.117 463.191 261.117C462.465 261.117 461.82 260.951 461.258 260.619C460.695 260.283 460.256 259.805 459.939 259.184C459.627 258.562 459.463 257.85 459.447 257.045V256.564C459.447 255.729 459.6 254.992 459.904 254.355C460.213 253.715 460.652 253.221 461.223 252.873C461.797 252.525 462.449 252.352 463.18 252.352C463.902 252.352 464.547 252.523 465.113 252.867C465.68 253.211 466.119 253.701 466.432 254.338C466.748 254.971 466.908 255.697 466.912 256.518V256.91ZM464.82 256.553C464.82 255.705 464.678 255.062 464.393 254.625C464.111 254.184 463.707 253.963 463.18 253.963C462.148 253.963 461.604 254.736 461.545 256.283L461.539 256.91C461.539 257.746 461.678 258.389 461.955 258.838C462.232 259.287 462.645 259.512 463.191 259.512C463.711 259.512 464.111 259.291 464.393 258.85C464.674 258.408 464.816 257.773 464.82 256.945V256.553ZM470.029 259.418H473.609V261H467.973V252.469H470.029V259.418ZM481.027 252.469V258.053C481.027 258.686 480.893 259.234 480.623 259.699C480.354 260.16 479.967 260.512 479.463 260.754C478.959 260.996 478.363 261.117 477.676 261.117C476.637 261.117 475.818 260.848 475.221 260.309C474.623 259.77 474.318 259.031 474.307 258.094V252.469H476.375V258.135C476.398 259.068 476.832 259.535 477.676 259.535C478.102 259.535 478.424 259.418 478.643 259.184C478.861 258.949 478.971 258.568 478.971 258.041V252.469H481.027ZM485.018 252.469L486.922 258.404L488.82 252.469H491.527V261H489.465V259.008L489.664 254.93L487.602 261H486.242L484.174 254.924L484.373 259.008V261H482.316V252.469H485.018ZM499.965 261H497.92L494.896 255.691V261H492.84V252.469H494.896L497.914 257.777V252.469H499.965V261ZM419.012 266.381H418.18V275.68H419.012V276.986H416.48V265.074H419.012V266.381ZM423.195 277.139L422.311 276.676L422.521 276.295C422.783 275.818 422.918 275.344 422.926 274.871V273.559H424.355L424.35 274.73C424.346 275.164 424.236 275.602 424.021 276.043C423.807 276.484 423.531 276.85 423.195 277.139ZM435.482 272.158C435.416 273.076 435.076 273.799 434.463 274.326C433.854 274.854 433.049 275.117 432.049 275.117C430.955 275.117 430.094 274.75 429.465 274.016C428.84 273.277 428.527 272.266 428.527 270.98V270.459C428.527 269.639 428.672 268.916 428.961 268.291C429.25 267.666 429.662 267.188 430.197 266.855C430.736 266.52 431.361 266.352 432.072 266.352C433.057 266.352 433.85 266.615 434.451 267.143C435.053 267.67 435.4 268.41 435.494 269.363H433.736C433.693 268.812 433.539 268.414 433.273 268.168C433.012 267.918 432.611 267.793 432.072 267.793C431.486 267.793 431.047 268.004 430.754 268.426C430.465 268.844 430.316 269.494 430.309 270.377V271.021C430.309 271.943 430.447 272.617 430.725 273.043C431.006 273.469 431.447 273.682 432.049 273.682C432.592 273.682 432.996 273.559 433.262 273.312C433.531 273.062 433.686 272.678 433.725 272.158H435.482ZM443.645 270.928C443.645 271.768 443.496 272.504 443.199 273.137C442.902 273.77 442.477 274.258 441.922 274.602C441.371 274.945 440.738 275.117 440.023 275.117C439.316 275.117 438.686 274.947 438.131 274.607C437.576 274.268 437.146 273.783 436.842 273.154C436.537 272.521 436.383 271.795 436.379 270.975V270.553C436.379 269.713 436.529 268.975 436.83 268.338C437.135 267.697 437.562 267.207 438.113 266.867C438.668 266.523 439.301 266.352 440.012 266.352C440.723 266.352 441.354 266.523 441.904 266.867C442.459 267.207 442.887 267.697 443.188 268.338C443.492 268.975 443.645 269.711 443.645 270.547V270.928ZM441.863 270.541C441.863 269.646 441.703 268.967 441.383 268.502C441.062 268.037 440.605 267.805 440.012 267.805C439.422 267.805 438.967 268.035 438.646 268.496C438.326 268.953 438.164 269.625 438.16 270.512V270.928C438.16 271.799 438.32 272.475 438.641 272.955C438.961 273.436 439.422 273.676 440.023 273.676C440.613 273.676 441.066 273.445 441.383 272.984C441.699 272.52 441.859 271.844 441.863 270.957V270.541ZM446.68 273.588H450.412V275H444.922V266.469H446.68V273.588ZM457.742 266.469V272.088C457.742 273.021 457.449 273.76 456.863 274.303C456.281 274.846 455.484 275.117 454.473 275.117C453.477 275.117 452.686 274.854 452.1 274.326C451.514 273.799 451.215 273.074 451.203 272.152V266.469H452.961V272.1C452.961 272.658 453.094 273.066 453.359 273.324C453.629 273.578 454 273.705 454.473 273.705C455.461 273.705 455.963 273.186 455.979 272.146V266.469H457.742ZM461.48 266.469L463.672 272.656L465.852 266.469H468.16V275H466.396V272.668L466.572 268.643L464.27 275H463.062L460.766 268.648L460.941 272.668V275H459.184V266.469H461.48ZM476.633 275H474.875L471.453 269.387V275H469.695V266.469H471.453L474.881 272.094V266.469H476.633V275ZM477.482 265.074H480.014V276.986H477.482V275.68H478.32V266.381H477.482V265.074Z" fill="#9B51E0"/>
<rect x="675" y="81" width="37" height="24" fill="#56CCF2" stroke="black" stroke-width="2"/>
<rect x="675" y="145" width="37" height="24" fill="#56CCF2" stroke="black" stroke-width="2"/>
<rect x="675" y="210" width="37" height="24" fill="#56CCF2" stroke="black" stroke-width="2"/>
<rect x="675" y="113" width="37" height="24" fill="#56CCF2" stroke="black" stroke-width="2"/>
<rect x="675" y="177" width="37" height="24" fill="#56CCF2" stroke="black" stroke-width="2"/>
<rect x="721" y="81" width="37" height="24" fill="#56CCF2" stroke="black" stroke-width="2"/>
<rect x="767" y="81" width="37" height="24" fill="#56CCF2" stroke="black" stroke-width="2"/>
<rect x="721" y="145" width="37" height="24" fill="#56CCF2" stroke="black" stroke-width="2"/>
<rect x="721" y="210" width="37" height="24" fill="#56CCF2" stroke="black" stroke-width="2"/>
<rect x="767" y="145" width="37" height="24" fill="#56CCF2" stroke="black" stroke-width="2"/>
<rect x="767" y="210" width="37" height="24" fill="#56CCF2" stroke="black" stroke-width="2"/>
<rect x="721" y="113" width="37" height="24" fill="#56CCF2" stroke="black" stroke-width="2"/>
<rect x="721" y="177" width="37" height="24" fill="#56CCF2" stroke="black" stroke-width="2"/>
<rect x="767" y="113" width="37" height="24" fill="#F2994A" stroke="black" stroke-width="2"/>
<rect x="767" y="177" width="37" height="24" fill="#56CCF2" stroke="black" stroke-width="2"/>
<path d="M695.67 74H693.977V67.4727L691.955 68.0996V66.7227L695.488 65.457H695.67V74ZM743.143 74H737.295V72.8398L740.055 69.8984C740.434 69.4844 740.713 69.123 740.893 68.8145C741.076 68.5059 741.168 68.2129 741.168 67.9355C741.168 67.5566 741.072 67.2598 740.881 67.0449C740.689 66.8262 740.416 66.7168 740.061 66.7168C739.678 66.7168 739.375 66.8496 739.152 67.1152C738.934 67.377 738.824 67.7227 738.824 68.1523H737.125C737.125 67.6328 737.248 67.1582 737.494 66.7285C737.744 66.2988 738.096 65.9629 738.549 65.7207C739.002 65.4746 739.516 65.3516 740.09 65.3516C740.969 65.3516 741.65 65.5625 742.135 65.9844C742.623 66.4062 742.867 67.002 742.867 67.7715C742.867 68.1934 742.758 68.623 742.539 69.0605C742.32 69.498 741.945 70.0078 741.414 70.5898L739.475 72.6348H743.143V74ZM781.768 68.9844H782.67C783.1 68.9844 783.418 68.877 783.625 68.6621C783.832 68.4473 783.936 68.1621 783.936 67.8066C783.936 67.4629 783.832 67.1953 783.625 67.0039C783.422 66.8125 783.141 66.7168 782.781 66.7168C782.457 66.7168 782.186 66.8066 781.967 66.9863C781.748 67.1621 781.639 67.3926 781.639 67.6777H779.945C779.945 67.2324 780.064 66.834 780.303 66.4824C780.545 66.127 780.881 65.8496 781.311 65.6504C781.744 65.4512 782.221 65.3516 782.74 65.3516C783.643 65.3516 784.35 65.5684 784.861 66.002C785.373 66.4316 785.629 67.0254 785.629 67.7832C785.629 68.1738 785.51 68.5332 785.271 68.8613C785.033 69.1895 784.721 69.4414 784.334 69.6172C784.814 69.7891 785.172 70.0469 785.406 70.3906C785.645 70.7344 785.764 71.1406 785.764 71.6094C785.764 72.3672 785.486 72.9746 784.932 73.4316C784.381 73.8887 783.65 74.1172 782.74 74.1172C781.889 74.1172 781.191 73.8926 780.648 73.4434C780.109 72.9941 779.84 72.4004 779.84 71.6621H781.533C781.533 71.9824 781.652 72.2441 781.891 72.4473C782.133 72.6504 782.43 72.752 782.781 72.752C783.184 72.752 783.498 72.6465 783.725 72.4355C783.955 72.2207 784.07 71.9375 784.07 71.5859C784.07 70.7344 783.602 70.3086 782.664 70.3086H781.768V68.9844Z" fill="#BB6BD9"/>
<path d="M665.693 94H664V87.4727L661.979 88.0996V86.7227L665.512 85.457H665.693V94Z" fill="#BB6BD9"/>
<path d="M667.428 128H661.58V126.84L664.34 123.898C664.719 123.484 664.998 123.123 665.178 122.814C665.361 122.506 665.453 122.213 665.453 121.936C665.453 121.557 665.357 121.26 665.166 121.045C664.975 120.826 664.701 120.717 664.346 120.717C663.963 120.717 663.66 120.85 663.438 121.115C663.219 121.377 663.109 121.723 663.109 122.152H661.41C661.41 121.633 661.533 121.158 661.779 120.729C662.029 120.299 662.381 119.963 662.834 119.721C663.287 119.475 663.801 119.352 664.375 119.352C665.254 119.352 665.936 119.562 666.42 119.984C666.908 120.406 667.152 121.002 667.152 121.771C667.152 122.193 667.043 122.623 666.824 123.061C666.605 123.498 666.23 124.008 665.699 124.59L663.76 126.635H667.428V128Z" fill="#BB6BD9"/>
<path d="M663.303 154.984H664.205C664.635 154.984 664.953 154.877 665.16 154.662C665.367 154.447 665.471 154.162 665.471 153.807C665.471 153.463 665.367 153.195 665.16 153.004C664.957 152.812 664.676 152.717 664.316 152.717C663.992 152.717 663.721 152.807 663.502 152.986C663.283 153.162 663.174 153.393 663.174 153.678H661.48C661.48 153.232 661.6 152.834 661.838 152.482C662.08 152.127 662.416 151.85 662.846 151.65C663.279 151.451 663.756 151.352 664.275 151.352C665.178 151.352 665.885 151.568 666.396 152.002C666.908 152.432 667.164 153.025 667.164 153.783C667.164 154.174 667.045 154.533 666.807 154.861C666.568 155.189 666.256 155.441 665.869 155.617C666.35 155.789 666.707 156.047 666.941 156.391C667.18 156.734 667.299 157.141 667.299 157.609C667.299 158.367 667.021 158.975 666.467 159.432C665.916 159.889 665.186 160.117 664.275 160.117C663.424 160.117 662.727 159.893 662.184 159.443C661.645 158.994 661.375 158.4 661.375 157.662H663.068C663.068 157.982 663.188 158.244 663.426 158.447C663.668 158.65 663.965 158.752 664.316 158.752C664.719 158.752 665.033 158.646 665.26 158.436C665.49 158.221 665.605 157.938 665.605 157.586C665.605 156.734 665.137 156.309 664.199 156.309H663.303V154.984Z" fill="#BB6BD9"/>
<path d="M666.59 188.789H667.557V190.154H666.59V192H664.896V190.154H661.398L661.322 189.088L664.879 183.469H666.59V188.789ZM663.01 188.789H664.896V185.777L664.785 185.971L663.01 188.789Z" fill="#BB6BD9"/>
<path d="M661.832 219.805L662.324 215.469H667.105V216.881H663.713L663.502 218.715C663.904 218.5 664.332 218.393 664.785 218.393C665.598 218.393 666.234 218.645 666.695 219.148C667.156 219.652 667.387 220.357 667.387 221.264C667.387 221.814 667.27 222.309 667.035 222.746C666.805 223.18 666.473 223.518 666.039 223.76C665.605 223.998 665.094 224.117 664.504 224.117C663.988 224.117 663.51 224.014 663.068 223.807C662.627 223.596 662.277 223.301 662.02 222.922C661.766 222.543 661.631 222.111 661.615 221.627H663.291C663.326 221.982 663.449 222.26 663.66 222.459C663.875 222.654 664.154 222.752 664.498 222.752C664.881 222.752 665.176 222.615 665.383 222.342C665.59 222.064 665.693 221.674 665.693 221.17C665.693 220.686 665.574 220.314 665.336 220.057C665.098 219.799 664.76 219.67 664.322 219.67C663.92 219.67 663.594 219.775 663.344 219.986L663.18 220.139L661.832 219.805Z" fill="#BB6BD9"/>
<path d="M618 125H633" stroke="#F2994A" stroke-width="3"/>
<path d="M630.5 118.3L638.236 125L630.5 131.7V118.3Z" fill="#F2994A" stroke="#F2994A"/>
<path d="M577.92 125.877H576.52V129H574.762V120.469H577.932C578.939 120.469 579.717 120.693 580.264 121.143C580.811 121.592 581.084 122.227 581.084 123.047C581.084 123.629 580.957 124.115 580.703 124.506C580.453 124.893 580.072 125.201 579.561 125.432L581.406 128.918V129H579.52L577.92 125.877ZM576.52 124.453H577.938C578.379 124.453 578.721 124.342 578.963 124.119C579.205 123.893 579.326 123.582 579.326 123.188C579.326 122.785 579.211 122.469 578.98 122.238C578.754 122.008 578.404 121.893 577.932 121.893H576.52V124.453ZM582.051 125.771C582.051 125.143 582.172 124.582 582.414 124.09C582.656 123.598 583.004 123.217 583.457 122.947C583.914 122.678 584.443 122.543 585.045 122.543C585.9 122.543 586.598 122.805 587.137 123.328C587.68 123.852 587.982 124.562 588.045 125.461L588.057 125.895C588.057 126.867 587.785 127.648 587.242 128.238C586.699 128.824 585.971 129.117 585.057 129.117C584.143 129.117 583.412 128.824 582.865 128.238C582.322 127.652 582.051 126.855 582.051 125.848V125.771ZM583.744 125.895C583.744 126.496 583.857 126.957 584.084 127.277C584.311 127.594 584.635 127.752 585.057 127.752C585.467 127.752 585.787 127.596 586.018 127.283C586.248 126.967 586.363 126.463 586.363 125.771C586.363 125.182 586.248 124.725 586.018 124.4C585.787 124.076 585.463 123.914 585.045 123.914C584.631 123.914 584.311 124.076 584.084 124.4C583.857 124.721 583.744 125.219 583.744 125.895ZM594.613 126.697L595.445 122.66H597.08L595.463 129H594.045L592.844 125.01L591.643 129H590.23L588.613 122.66H590.248L591.074 126.691L592.234 122.66H593.459L594.613 126.697ZM606.689 129H600.842V127.84L603.602 124.898C603.98 124.484 604.26 124.123 604.439 123.814C604.623 123.506 604.715 123.213 604.715 122.936C604.715 122.557 604.619 122.26 604.428 122.045C604.236 121.826 603.963 121.717 603.607 121.717C603.225 121.717 602.922 121.85 602.699 122.115C602.48 122.377 602.371 122.723 602.371 123.152H600.672C600.672 122.633 600.795 122.158 601.041 121.729C601.291 121.299 601.643 120.963 602.096 120.721C602.549 120.475 603.062 120.352 603.637 120.352C604.516 120.352 605.197 120.562 605.682 120.984C606.17 121.406 606.414 122.002 606.414 122.771C606.414 123.193 606.305 123.623 606.086 124.061C605.867 124.498 605.492 125.008 604.961 125.59L603.021 127.635H606.689V129Z" fill="#F2994A"/>
<path d="M766.459 26.1582C766.393 27.0762 766.053 27.7988 765.439 28.3262C764.83 28.8535 764.025 29.1172 763.025 29.1172C761.932 29.1172 761.07 28.75 760.441 28.0156C759.816 27.2773 759.504 26.2656 759.504 24.9805V24.459C759.504 23.6387 759.648 22.916 759.938 22.291C760.227 21.666 760.639 21.1875 761.174 20.8555C761.713 20.5195 762.338 20.3516 763.049 20.3516C764.033 20.3516 764.826 20.6152 765.428 21.1426C766.029 21.6699 766.377 22.4102 766.471 23.3633H764.713C764.67 22.8125 764.516 22.4141 764.25 22.168C763.988 21.918 763.588 21.793 763.049 21.793C762.463 21.793 762.023 22.0039 761.73 22.4258C761.441 22.8438 761.293 23.4941 761.285 24.377V25.0215C761.285 25.9434 761.424 26.6172 761.701 27.043C761.982 27.4688 762.424 27.6816 763.025 27.6816C763.568 27.6816 763.973 27.5586 764.238 27.3125C764.508 27.0625 764.662 26.6777 764.701 26.1582H766.459ZM767.238 25.7715C767.238 25.1426 767.359 24.582 767.602 24.0898C767.844 23.5977 768.191 23.2168 768.645 22.9473C769.102 22.6777 769.631 22.543 770.232 22.543C771.088 22.543 771.785 22.8047 772.324 23.3281C772.867 23.8516 773.17 24.5625 773.232 25.4609L773.244 25.8945C773.244 26.8672 772.973 27.6484 772.43 28.2383C771.887 28.8242 771.158 29.1172 770.244 29.1172C769.33 29.1172 768.6 28.8242 768.053 28.2383C767.51 27.6523 767.238 26.8555 767.238 25.8477V25.7715ZM768.932 25.8945C768.932 26.4961 769.045 26.957 769.271 27.2773C769.498 27.5938 769.822 27.752 770.244 27.752C770.654 27.752 770.975 27.5957 771.205 27.2832C771.436 26.9668 771.551 26.4629 771.551 25.7715C771.551 25.1816 771.436 24.7246 771.205 24.4004C770.975 24.0762 770.65 23.9141 770.232 23.9141C769.818 23.9141 769.498 24.0762 769.271 24.4004C769.045 24.7207 768.932 25.2188 768.932 25.8945ZM776.074 29H774.375V20H776.074V29ZM781.271 28.3555C780.854 28.8633 780.275 29.1172 779.537 29.1172C778.857 29.1172 778.338 28.9219 777.979 28.5312C777.623 28.1406 777.441 27.5684 777.434 26.8145V22.6602H779.127V26.7559C779.127 27.416 779.428 27.7461 780.029 27.7461C780.604 27.7461 780.998 27.5469 781.213 27.1484V22.6602H782.912V29H781.318L781.271 28.3555ZM785.777 22.6602L785.83 23.3691C786.279 22.8184 786.887 22.543 787.652 22.543C788.469 22.543 789.029 22.8652 789.334 23.5098C789.779 22.8652 790.414 22.543 791.238 22.543C791.926 22.543 792.438 22.7441 792.773 23.1465C793.109 23.5449 793.277 24.1465 793.277 24.9512V29H791.578V24.957C791.578 24.5977 791.508 24.3359 791.367 24.1719C791.227 24.0039 790.979 23.9199 790.623 23.9199C790.115 23.9199 789.764 24.1621 789.568 24.6465L789.574 29H787.881V24.9629C787.881 24.5957 787.809 24.3301 787.664 24.166C787.52 24.002 787.273 23.9199 786.926 23.9199C786.445 23.9199 786.098 24.1191 785.883 24.5176V29H784.189V22.6602H785.777ZM796.143 22.6602L796.195 23.3926C796.648 22.8262 797.256 22.543 798.018 22.543C798.689 22.543 799.189 22.7402 799.518 23.1348C799.846 23.5293 800.014 24.1191 800.021 24.9043V29H798.328V24.9453C798.328 24.5859 798.25 24.3262 798.094 24.166C797.938 24.002 797.678 23.9199 797.314 23.9199C796.838 23.9199 796.48 24.123 796.242 24.5293V29H794.549V22.6602H796.143ZM805.951 23.9844H806.854C807.283 23.9844 807.602 23.877 807.809 23.6621C808.016 23.4473 808.119 23.1621 808.119 22.8066C808.119 22.4629 808.016 22.1953 807.809 22.0039C807.605 21.8125 807.324 21.7168 806.965 21.7168C806.641 21.7168 806.369 21.8066 806.15 21.9863C805.932 22.1621 805.822 22.3926 805.822 22.6777H804.129C804.129 22.2324 804.248 21.834 804.486 21.4824C804.729 21.127 805.064 20.8496 805.494 20.6504C805.928 20.4512 806.404 20.3516 806.924 20.3516C807.826 20.3516 808.533 20.5684 809.045 21.002C809.557 21.4316 809.812 22.0254 809.812 22.7832C809.812 23.1738 809.693 23.5332 809.455 23.8613C809.217 24.1895 808.904 24.4414 808.518 24.6172C808.998 24.7891 809.355 25.0469 809.59 25.3906C809.828 25.7344 809.947 26.1406 809.947 26.6094C809.947 27.3672 809.67 27.9746 809.115 28.4316C808.564 28.8887 807.834 29.1172 806.924 29.1172C806.072 29.1172 805.375 28.8926 804.832 28.4434C804.293 27.9941 804.023 27.4004 804.023 26.6621H805.717C805.717 26.9824 805.836 27.2441 806.074 27.4473C806.316 27.6504 806.613 27.752 806.965 27.752C807.367 27.752 807.682 27.6465 807.908 27.4355C808.139 27.2207 808.254 26.9375 808.254 26.5859C808.254 25.7344 807.785 25.3086 806.848 25.3086H805.951V23.9844Z" fill="#F2994A"/>
<path d="M786 33L786 47" stroke="#F2994A" stroke-width="3"/>
<path d="M792.7 44.5L786 52.2362L779.3 44.5H792.7Z" fill="#F2994A" stroke="#F2994A"/>
<rect opacity="0.4" x="643" y="109" width="163" height="32" fill="#F2994A"/>
<rect opacity="0.4" x="764" y="59" width="43" height="176" fill="#F2994A"/>
<path d="M663.197 261H662.072V252.469H663.197V261ZM671.816 261H670.686L666.391 254.426V261H665.26V252.469H666.391L670.697 259.072V252.469H671.816V261ZM673.814 261V252.469H676.223C676.965 252.469 677.621 252.633 678.191 252.961C678.762 253.289 679.201 253.756 679.51 254.361C679.822 254.967 679.98 255.662 679.984 256.447V256.992C679.984 257.797 679.828 258.502 679.516 259.107C679.207 259.713 678.764 260.178 678.186 260.502C677.611 260.826 676.941 260.992 676.176 261H673.814ZM674.939 253.395V260.08H676.123C676.99 260.08 677.664 259.811 678.145 259.271C678.629 258.732 678.871 257.965 678.871 256.969V256.471C678.871 255.502 678.643 254.75 678.186 254.215C677.732 253.676 677.088 253.402 676.252 253.395H674.939ZM686.512 257.057H682.814V260.08H687.109V261H681.689V252.469H687.051V253.395H682.814V256.137H686.512V257.057ZM691.293 255.738L693.338 252.469H694.662L691.967 256.699L694.727 261H693.391L691.293 257.672L689.184 261H687.854L690.619 256.699L687.918 252.469H689.236L691.293 255.738ZM697.24 261H696.115V252.469H697.24V261ZM705.859 261H704.729L700.434 254.426V261H699.303V252.469H700.434L704.74 259.072V252.469H705.859V261ZM714.156 259.881C713.867 260.295 713.463 260.605 712.943 260.812C712.428 261.016 711.826 261.117 711.139 261.117C710.443 261.117 709.826 260.955 709.287 260.631C708.748 260.303 708.33 259.838 708.033 259.236C707.74 258.635 707.59 257.938 707.582 257.145V256.4C707.582 255.115 707.881 254.119 708.479 253.412C709.08 252.705 709.924 252.352 711.01 252.352C711.9 252.352 712.617 252.58 713.16 253.037C713.703 253.49 714.035 254.135 714.156 254.971H713.031C712.82 253.842 712.148 253.277 711.016 253.277C710.262 253.277 709.689 253.543 709.299 254.074C708.912 254.602 708.717 255.367 708.713 256.371V257.068C708.713 258.025 708.932 258.787 709.369 259.354C709.807 259.916 710.398 260.197 711.145 260.197C711.566 260.197 711.936 260.15 712.252 260.057C712.568 259.963 712.83 259.805 713.037 259.582V257.666H711.062V256.752H714.156V259.881ZM721.527 257.197C720.562 256.92 719.859 256.58 719.418 256.178C718.98 255.771 718.762 255.271 718.762 254.678C718.762 254.006 719.029 253.451 719.564 253.014C720.104 252.572 720.803 252.352 721.662 252.352C722.248 252.352 722.77 252.465 723.227 252.691C723.688 252.918 724.043 253.23 724.293 253.629C724.547 254.027 724.674 254.463 724.674 254.936H723.543C723.543 254.42 723.379 254.016 723.051 253.723C722.723 253.426 722.26 253.277 721.662 253.277C721.107 253.277 720.674 253.4 720.361 253.646C720.053 253.889 719.898 254.227 719.898 254.66C719.898 255.008 720.045 255.303 720.338 255.545C720.635 255.783 721.137 256.002 721.844 256.201C722.555 256.4 723.109 256.621 723.508 256.863C723.91 257.102 724.207 257.381 724.398 257.701C724.594 258.021 724.691 258.398 724.691 258.832C724.691 259.523 724.422 260.078 723.883 260.496C723.344 260.91 722.623 261.117 721.721 261.117C721.135 261.117 720.588 261.006 720.08 260.783C719.572 260.557 719.18 260.248 718.902 259.857C718.629 259.467 718.492 259.023 718.492 258.527H719.623C719.623 259.043 719.812 259.451 720.191 259.752C720.574 260.049 721.084 260.197 721.721 260.197C722.314 260.197 722.77 260.076 723.086 259.834C723.402 259.592 723.561 259.262 723.561 258.844C723.561 258.426 723.414 258.104 723.121 257.877C722.828 257.646 722.297 257.42 721.527 257.197ZM727.264 257.66V261H726.139V252.469H729.285C730.219 252.469 730.949 252.707 731.477 253.184C732.008 253.66 732.273 254.291 732.273 255.076C732.273 255.904 732.014 256.543 731.494 256.992C730.979 257.438 730.238 257.66 729.273 257.66H727.264ZM727.264 256.74H729.285C729.887 256.74 730.348 256.6 730.668 256.318C730.988 256.033 731.148 255.623 731.148 255.088C731.148 254.58 730.988 254.174 730.668 253.869C730.348 253.564 729.908 253.406 729.35 253.395H727.264V256.74ZM738.531 257.057H734.834V260.08H739.129V261H733.709V252.469H739.07V253.395H734.834V256.137H738.531V257.057ZM746.805 258.293C746.699 259.195 746.365 259.893 745.803 260.385C745.244 260.873 744.5 261.117 743.57 261.117C742.562 261.117 741.754 260.756 741.145 260.033C740.539 259.311 740.236 258.344 740.236 257.133V256.312C740.236 255.52 740.377 254.822 740.658 254.221C740.943 253.619 741.346 253.158 741.865 252.838C742.385 252.514 742.986 252.352 743.67 252.352C744.576 252.352 745.303 252.605 745.85 253.113C746.396 253.617 746.715 254.316 746.805 255.211H745.674C745.576 254.531 745.363 254.039 745.035 253.734C744.711 253.43 744.256 253.277 743.67 253.277C742.951 253.277 742.387 253.543 741.977 254.074C741.57 254.605 741.367 255.361 741.367 256.342V257.168C741.367 258.094 741.561 258.83 741.947 259.377C742.334 259.924 742.875 260.197 743.57 260.197C744.195 260.197 744.674 260.057 745.006 259.775C745.342 259.49 745.564 258.996 745.674 258.293H746.805ZM749.553 261H748.428V252.469H749.553V261ZM756.32 257.232H752.74V261H751.615V252.469H756.9V253.395H752.74V256.312H756.32V257.232ZM764.523 258.293C764.418 259.195 764.084 259.893 763.521 260.385C762.963 260.873 762.219 261.117 761.289 261.117C760.281 261.117 759.473 260.756 758.863 260.033C758.258 259.311 757.955 258.344 757.955 257.133V256.312C757.955 255.52 758.096 254.822 758.377 254.221C758.662 253.619 759.064 253.158 759.584 252.838C760.104 252.514 760.705 252.352 761.389 252.352C762.295 252.352 763.021 252.605 763.568 253.113C764.115 253.617 764.434 254.316 764.523 255.211H763.393C763.295 254.531 763.082 254.039 762.754 253.734C762.43 253.43 761.975 253.277 761.389 253.277C760.67 253.277 760.105 253.543 759.695 254.074C759.289 254.605 759.086 255.361 759.086 256.342V257.168C759.086 258.094 759.279 258.83 759.666 259.377C760.053 259.924 760.594 260.197 761.289 260.197C761.914 260.197 762.393 260.057 762.725 259.775C763.061 259.49 763.283 258.996 763.393 258.293H764.523ZM773.541 259.406H770.723L770.23 261H768.033L771.162 252.469H773.096L776.248 261H774.039L773.541 259.406ZM771.215 257.818H773.049L772.129 254.859L771.215 257.818ZM783.174 258.68L784.873 252.469H787.17L784.299 261H782.049L779.201 252.469H781.48L783.174 258.68ZM792.197 259.406H789.379L788.887 261H786.689L789.818 252.469H791.752L794.904 261H792.695L792.197 259.406ZM789.871 257.818H791.705L790.785 254.859L789.871 257.818ZM797.588 259.418H801.168V261H795.531V252.469H797.588V259.418ZM808.586 252.469V258.053C808.586 258.686 808.451 259.234 808.182 259.699C807.912 260.16 807.525 260.512 807.021 260.754C806.518 260.996 805.922 261.117 805.234 261.117C804.195 261.117 803.377 260.848 802.779 260.309C802.182 259.77 801.877 259.031 801.865 258.094V252.469H803.934V258.135C803.957 259.068 804.391 259.535 805.234 259.535C805.66 259.535 805.982 259.418 806.201 259.184C806.42 258.949 806.529 258.568 806.529 258.041V252.469H808.586ZM815.166 257.385H811.932V259.418H815.752V261H809.875V252.469H815.764V254.057H811.932V255.855H815.166V257.385ZM700.012 266.381H699.18V275.68H700.012V276.986H697.48V265.074H700.012V266.381ZM704.037 271.877H702.637V275H700.879V266.469H704.049C705.057 266.469 705.834 266.693 706.381 267.143C706.928 267.592 707.201 268.227 707.201 269.047C707.201 269.629 707.074 270.115 706.82 270.506C706.57 270.893 706.189 271.201 705.678 271.432L707.523 274.918V275H705.637L704.037 271.877ZM702.637 270.453H704.055C704.496 270.453 704.838 270.342 705.08 270.119C705.322 269.893 705.443 269.582 705.443 269.188C705.443 268.785 705.328 268.469 705.098 268.238C704.871 268.008 704.521 267.893 704.049 267.893H702.637V270.453ZM715.551 270.928C715.551 271.768 715.402 272.504 715.105 273.137C714.809 273.77 714.383 274.258 713.828 274.602C713.277 274.945 712.645 275.117 711.93 275.117C711.223 275.117 710.592 274.947 710.037 274.607C709.482 274.268 709.053 273.783 708.748 273.154C708.443 272.521 708.289 271.795 708.285 270.975V270.553C708.285 269.713 708.436 268.975 708.736 268.338C709.041 267.697 709.469 267.207 710.02 266.867C710.574 266.523 711.207 266.352 711.918 266.352C712.629 266.352 713.26 266.523 713.811 266.867C714.365 267.207 714.793 267.697 715.094 268.338C715.398 268.975 715.551 269.711 715.551 270.547V270.928ZM713.77 270.541C713.77 269.646 713.609 268.967 713.289 268.502C712.969 268.037 712.512 267.805 711.918 267.805C711.328 267.805 710.873 268.035 710.553 268.496C710.232 268.953 710.07 269.625 710.066 270.512V270.928C710.066 271.799 710.227 272.475 710.547 272.955C710.867 273.436 711.328 273.676 711.93 273.676C712.52 273.676 712.973 273.445 713.289 272.984C713.605 272.52 713.766 271.844 713.77 270.957V270.541ZM723.473 272.539L724.621 266.469H726.373L724.48 275H722.711L721.322 269.293L719.934 275H718.164L716.271 266.469H718.023L719.178 272.527L720.584 266.469H722.072L723.473 272.539ZM726.812 277.139L725.928 276.676L726.139 276.295C726.4 275.818 726.535 275.344 726.543 274.871V273.559H727.973L727.967 274.73C727.963 275.164 727.854 275.602 727.639 276.043C727.424 276.484 727.148 276.85 726.812 277.139ZM739.1 272.158C739.033 273.076 738.693 273.799 738.08 274.326C737.471 274.854 736.666 275.117 735.666 275.117C734.572 275.117 733.711 274.75 733.082 274.016C732.457 273.277 732.145 272.266 732.145 270.98V270.459C732.145 269.639 732.289 268.916 732.578 268.291C732.867 267.666 733.279 267.188 733.814 266.855C734.354 266.52 734.979 266.352 735.689 266.352C736.674 266.352 737.467 266.615 738.068 267.143C738.67 267.67 739.018 268.41 739.111 269.363H737.354C737.311 268.812 737.156 268.414 736.891 268.168C736.629 267.918 736.229 267.793 735.689 267.793C735.104 267.793 734.664 268.004 734.371 268.426C734.082 268.844 733.934 269.494 733.926 270.377V271.021C733.926 271.943 734.064 272.617 734.342 273.043C734.623 273.469 735.064 273.682 735.666 273.682C736.209 273.682 736.613 273.559 736.879 273.312C737.148 273.062 737.303 272.678 737.342 272.158H739.1ZM747.262 270.928C747.262 271.768 747.113 272.504 746.816 273.137C746.52 273.77 746.094 274.258 745.539 274.602C744.988 274.945 744.355 275.117 743.641 275.117C742.934 275.117 742.303 274.947 741.748 274.607C741.193 274.268 740.764 273.783 740.459 273.154C740.154 272.521 740 271.795 739.996 270.975V270.553C739.996 269.713 740.146 268.975 740.447 268.338C740.752 267.697 741.18 267.207 741.73 266.867C742.285 266.523 742.918 266.352 743.629 266.352C744.34 266.352 744.971 266.523 745.521 266.867C746.076 267.207 746.504 267.697 746.805 268.338C747.109 268.975 747.262 269.711 747.262 270.547V270.928ZM745.48 270.541C745.48 269.646 745.32 268.967 745 268.502C744.68 268.037 744.223 267.805 743.629 267.805C743.039 267.805 742.584 268.035 742.264 268.496C741.943 268.953 741.781 269.625 741.777 270.512V270.928C741.777 271.799 741.938 272.475 742.258 272.955C742.578 273.436 743.039 273.676 743.641 273.676C744.23 273.676 744.684 273.445 745 272.984C745.316 272.52 745.477 271.844 745.48 270.957V270.541ZM750.297 273.588H754.029V275H748.539V266.469H750.297V273.588ZM761.359 266.469V272.088C761.359 273.021 761.066 273.76 760.48 274.303C759.898 274.846 759.102 275.117 758.09 275.117C757.094 275.117 756.303 274.854 755.717 274.326C755.131 273.799 754.832 273.074 754.82 272.152V266.469H756.578V272.1C756.578 272.658 756.711 273.066 756.977 273.324C757.246 273.578 757.617 273.705 758.09 273.705C759.078 273.705 759.58 273.186 759.596 272.146V266.469H761.359ZM765.098 266.469L767.289 272.656L769.469 266.469H771.777V275H770.014V272.668L770.189 268.643L767.887 275H766.68L764.383 268.648L764.559 272.668V275H762.801V266.469H765.098ZM780.25 275H778.492L775.07 269.387V275H773.312V266.469H775.07L778.498 272.094V266.469H780.25V275ZM781.1 265.074H783.631V276.986H781.1V275.68H781.938V266.381H781.1V265.074Z" fill="#9B51E0"/>
</svg>
