<svg width="445" height="122" viewBox="0 0 445 122" fill="none" xmlns="http://www.w3.org/2000/svg">
<rect width="445" height="122" fill="white"/>
<path d="M83.9883 19.5059L85.207 14.6602H86.291L84.4453 21H83.5664L82.0254 16.1953L80.5254 21H79.6465L77.8066 14.6602H78.8848L80.1328 19.4062L81.6094 14.6602H82.4824L83.9883 19.5059ZM87.1113 17.7715C87.1113 17.1504 87.2324 16.5918 87.4746 16.0957C87.7207 15.5996 88.0605 15.2168 88.4941 14.9473C88.9316 14.6777 89.4297 14.543 89.9883 14.543C90.8516 14.543 91.5488 14.8418 92.0801 15.4395C92.6152 16.0371 92.8828 16.832 92.8828 17.8242V17.9004C92.8828 18.5176 92.7637 19.0723 92.5254 19.5645C92.291 20.0527 91.9531 20.4336 91.5117 20.707C91.0742 20.9805 90.5703 21.1172 90 21.1172C89.1406 21.1172 88.4434 20.8184 87.9082 20.2207C87.377 19.623 87.1113 18.832 87.1113 17.8477V17.7715ZM88.2012 17.9004C88.2012 18.6035 88.3633 19.168 88.6875 19.5938C89.0156 20.0195 89.4531 20.2324 90 20.2324C90.5508 20.2324 90.9883 20.0176 91.3125 19.5879C91.6367 19.1543 91.7988 18.5488 91.7988 17.7715C91.7988 17.0762 91.6328 16.5137 91.3008 16.084C90.9727 15.6504 90.5352 15.4336 89.9883 15.4336C89.4531 15.4336 89.0215 15.6465 88.6934 16.0723C88.3652 16.498 88.2012 17.1074 88.2012 17.9004ZM97.3066 15.6328C97.1426 15.6055 96.9648 15.5918 96.7734 15.5918C96.0625 15.5918 95.5801 15.8945 95.3262 16.5V21H94.2422V14.6602H95.2969L95.3145 15.3926C95.6699 14.8262 96.1738 14.543 96.8262 14.543C97.0371 14.543 97.1973 14.5703 97.3066 14.625V15.6328ZM99.4863 21H98.4023V12H99.4863V21ZM100.963 17.7773C100.963 16.8047 101.193 16.0234 101.654 15.4336C102.115 14.8398 102.719 14.543 103.465 14.543C104.207 14.543 104.795 14.7969 105.229 15.3047V12H106.312V21H105.316L105.264 20.3203C104.83 20.8516 104.227 21.1172 103.453 21.1172C102.719 21.1172 102.119 20.8164 101.654 20.2148C101.193 19.6133 100.963 18.8281 100.963 17.8594V17.7773ZM102.047 17.9004C102.047 18.6191 102.195 19.1816 102.492 19.5879C102.789 19.9941 103.199 20.1973 103.723 20.1973C104.41 20.1973 104.912 19.8887 105.229 19.2715V16.3594C104.904 15.7617 104.406 15.4629 103.734 15.4629C103.203 15.4629 102.789 15.668 102.492 16.0781C102.195 16.4883 102.047 17.0957 102.047 17.9004ZM112.57 21.8848H107.203V21H112.57V21.8848ZM116.479 15.6328C116.314 15.6055 116.137 15.5918 115.945 15.5918C115.234 15.5918 114.752 15.8945 114.498 16.5V21H113.414V14.6602H114.469L114.486 15.3926C114.842 14.8262 115.346 14.543 115.998 14.543C116.209 14.543 116.369 14.5703 116.479 14.625V15.6328ZM121.16 21C121.098 20.875 121.047 20.6523 121.008 20.332C120.504 20.8555 119.902 21.1172 119.203 21.1172C118.578 21.1172 118.064 20.9414 117.662 20.5898C117.264 20.2344 117.064 19.7852 117.064 19.2422C117.064 18.582 117.314 18.0703 117.814 17.707C118.318 17.3398 119.025 17.1562 119.936 17.1562H120.99V16.6582C120.99 16.2793 120.877 15.9785 120.65 15.7559C120.424 15.5293 120.09 15.416 119.648 15.416C119.262 15.416 118.938 15.5137 118.676 15.709C118.414 15.9043 118.283 16.1406 118.283 16.418H117.193C117.193 16.1016 117.305 15.7969 117.527 15.5039C117.754 15.207 118.059 14.9727 118.441 14.8008C118.828 14.6289 119.252 14.543 119.713 14.543C120.443 14.543 121.016 14.7266 121.43 15.0938C121.844 15.457 122.059 15.959 122.074 16.5996V19.5176C122.074 20.0996 122.148 20.5625 122.297 20.9062V21H121.16ZM119.361 20.1738C119.701 20.1738 120.023 20.0859 120.328 19.9102C120.633 19.7344 120.854 19.5059 120.99 19.2246V17.9238H120.141C118.812 17.9238 118.148 18.3125 118.148 19.0898C118.148 19.4297 118.262 19.6953 118.488 19.8867C118.715 20.0781 119.006 20.1738 119.361 20.1738ZM124.799 14.6602L124.834 15.457C125.318 14.8477 125.951 14.543 126.732 14.543C128.072 14.543 128.748 15.2988 128.76 16.8105V21H127.676V16.8047C127.672 16.3477 127.566 16.0098 127.359 15.791C127.156 15.5723 126.838 15.4629 126.404 15.4629C126.053 15.4629 125.744 15.5566 125.479 15.7441C125.213 15.9316 125.006 16.1777 124.857 16.4824V21H123.773V14.6602H124.799ZM132.164 18.0645L131.484 18.7734V21H130.4V12H131.484V17.4434L132.064 16.7461L134.039 14.6602H135.357L132.891 17.3086L135.645 21H134.373L132.164 18.0645ZM142.166 17.7773C142.166 16.7812 142.395 15.9941 142.852 15.416C143.309 14.834 143.922 14.543 144.691 14.543C145.441 14.543 146.033 14.7949 146.467 15.2988L146.514 14.6602H147.51V23.4375H146.426V20.4141C145.988 20.8828 145.406 21.1172 144.68 21.1172C143.914 21.1172 143.303 20.8203 142.846 20.2266C142.393 19.6289 142.166 18.8379 142.166 17.8535V17.7773ZM143.25 17.9004C143.25 18.627 143.402 19.1973 143.707 19.6113C144.016 20.0254 144.43 20.2324 144.949 20.2324C145.594 20.2324 146.086 19.9473 146.426 19.377V16.2715C146.082 15.7129 145.594 15.4336 144.961 15.4336C144.438 15.4336 144.021 15.6426 143.713 16.0605C143.404 16.4746 143.25 17.0879 143.25 17.9004ZM153.164 20.373C152.742 20.8691 152.123 21.1172 151.307 21.1172C150.631 21.1172 150.115 20.9219 149.76 20.5312C149.408 20.1367 149.23 19.5547 149.227 18.7852V14.6602H150.311V18.7559C150.311 19.7168 150.701 20.1973 151.482 20.1973C152.311 20.1973 152.861 19.8887 153.135 19.2715V14.6602H154.219V21H153.188L153.164 20.373ZM159.785 21C159.723 20.875 159.672 20.6523 159.633 20.332C159.129 20.8555 158.527 21.1172 157.828 21.1172C157.203 21.1172 156.689 20.9414 156.287 20.5898C155.889 20.2344 155.689 19.7852 155.689 19.2422C155.689 18.582 155.939 18.0703 156.439 17.707C156.943 17.3398 157.65 17.1562 158.561 17.1562H159.615V16.6582C159.615 16.2793 159.502 15.9785 159.275 15.7559C159.049 15.5293 158.715 15.416 158.273 15.416C157.887 15.416 157.562 15.5137 157.301 15.709C157.039 15.9043 156.908 16.1406 156.908 16.418H155.818C155.818 16.1016 155.93 15.7969 156.152 15.5039C156.379 15.207 156.684 14.9727 157.066 14.8008C157.453 14.6289 157.877 14.543 158.338 14.543C159.068 14.543 159.641 14.7266 160.055 15.0938C160.469 15.457 160.684 15.959 160.699 16.5996V19.5176C160.699 20.0996 160.773 20.5625 160.922 20.9062V21H159.785ZM157.986 20.1738C158.326 20.1738 158.648 20.0859 158.953 19.9102C159.258 19.7344 159.479 19.5059 159.615 19.2246V17.9238H158.766C157.438 17.9238 156.773 18.3125 156.773 19.0898C156.773 19.4297 156.887 19.6953 157.113 19.8867C157.34 20.0781 157.631 20.1738 157.986 20.1738ZM163.576 21H162.492V12H163.576V21ZM166.494 21H165.41V14.6602H166.494V21ZM165.322 12.9785C165.322 12.8027 165.375 12.6543 165.48 12.5332C165.59 12.4121 165.75 12.3516 165.961 12.3516C166.172 12.3516 166.332 12.4121 166.441 12.5332C166.551 12.6543 166.605 12.8027 166.605 12.9785C166.605 13.1543 166.551 13.3008 166.441 13.418C166.332 13.5352 166.172 13.5938 165.961 13.5938C165.75 13.5938 165.59 13.5352 165.48 13.418C165.375 13.3008 165.322 13.1543 165.322 12.9785ZM169.705 13.125V14.6602H170.889V15.498H169.705V19.4297C169.705 19.6836 169.758 19.875 169.863 20.0039C169.969 20.1289 170.148 20.1914 170.402 20.1914C170.527 20.1914 170.699 20.168 170.918 20.1211V21C170.633 21.0781 170.355 21.1172 170.086 21.1172C169.602 21.1172 169.236 20.9707 168.99 20.6777C168.744 20.3848 168.621 19.9688 168.621 19.4297V15.498H167.467V14.6602H168.621V13.125H169.705ZM174.234 19.4121L175.711 14.6602H176.871L174.322 21.9785C173.928 23.0332 173.301 23.5605 172.441 23.5605L172.236 23.543L171.832 23.4668V22.5879L172.125 22.6113C172.492 22.6113 172.777 22.5371 172.98 22.3887C173.188 22.2402 173.357 21.9688 173.49 21.5742L173.73 20.9297L171.469 14.6602H172.652L174.234 19.4121ZM182.414 21.8848H177.047V21H182.414V21.8848ZM182.971 17.7715C182.971 17.1504 183.092 16.5918 183.334 16.0957C183.58 15.5996 183.92 15.2168 184.354 14.9473C184.791 14.6777 185.289 14.543 185.848 14.543C186.711 14.543 187.408 14.8418 187.939 15.4395C188.475 16.0371 188.742 16.832 188.742 17.8242V17.9004C188.742 18.5176 188.623 19.0723 188.385 19.5645C188.15 20.0527 187.812 20.4336 187.371 20.707C186.934 20.9805 186.43 21.1172 185.859 21.1172C185 21.1172 184.303 20.8184 183.768 20.2207C183.236 19.623 182.971 18.832 182.971 17.8477V17.7715ZM184.061 17.9004C184.061 18.6035 184.223 19.168 184.547 19.5938C184.875 20.0195 185.312 20.2324 185.859 20.2324C186.41 20.2324 186.848 20.0176 187.172 19.5879C187.496 19.1543 187.658 18.5488 187.658 17.7715C187.658 17.0762 187.492 16.5137 187.16 16.084C186.832 15.6504 186.395 15.4336 185.848 15.4336C185.312 15.4336 184.881 15.6465 184.553 16.0723C184.225 16.498 184.061 17.1074 184.061 17.9004ZM190.635 21V15.498H189.633V14.6602H190.635V14.0098C190.635 13.3301 190.816 12.8047 191.18 12.4336C191.543 12.0625 192.057 11.877 192.721 11.877C192.971 11.877 193.219 11.9102 193.465 11.9766L193.406 12.8555C193.223 12.8203 193.027 12.8027 192.82 12.8027C192.469 12.8027 192.197 12.9062 192.006 13.1133C191.814 13.3164 191.719 13.6094 191.719 13.9922V14.6602H193.072V15.498H191.719V21H190.635ZM198.844 21.8848H193.477V21H198.844V21.8848ZM202.318 21.1172C201.459 21.1172 200.76 20.8359 200.221 20.2734C199.682 19.707 199.412 18.9512 199.412 18.0059V17.8066C199.412 17.1777 199.531 16.6172 199.77 16.125C200.012 15.6289 200.348 15.2422 200.777 14.9648C201.211 14.6836 201.68 14.543 202.184 14.543C203.008 14.543 203.648 14.8145 204.105 15.3574C204.562 15.9004 204.791 16.6777 204.791 17.6895V18.1406H200.496C200.512 18.7656 200.693 19.2715 201.041 19.6582C201.393 20.041 201.838 20.2324 202.377 20.2324C202.76 20.2324 203.084 20.1543 203.35 19.998C203.615 19.8418 203.848 19.6348 204.047 19.377L204.709 19.8926C204.178 20.709 203.381 21.1172 202.318 21.1172ZM202.184 15.4336C201.746 15.4336 201.379 15.5938 201.082 15.9141C200.785 16.2305 200.602 16.6758 200.531 17.25H203.707V17.168C203.676 16.6172 203.527 16.1914 203.262 15.8906C202.996 15.5859 202.637 15.4336 202.184 15.4336ZM205.787 17.7773C205.787 16.8047 206.018 16.0234 206.479 15.4336C206.939 14.8398 207.543 14.543 208.289 14.543C209.031 14.543 209.619 14.7969 210.053 15.3047V12H211.137V21H210.141L210.088 20.3203C209.654 20.8516 209.051 21.1172 208.277 21.1172C207.543 21.1172 206.943 20.8164 206.479 20.2148C206.018 19.6133 205.787 18.8281 205.787 17.8594V17.7773ZM206.871 17.9004C206.871 18.6191 207.02 19.1816 207.316 19.5879C207.613 19.9941 208.023 20.1973 208.547 20.1973C209.234 20.1973 209.736 19.8887 210.053 19.2715V16.3594C209.729 15.7617 209.23 15.4629 208.559 15.4629C208.027 15.4629 207.613 15.668 207.316 16.0781C207.02 16.4883 206.871 17.0957 206.871 17.9004ZM216.738 20.373C216.316 20.8691 215.697 21.1172 214.881 21.1172C214.205 21.1172 213.689 20.9219 213.334 20.5312C212.982 20.1367 212.805 19.5547 212.801 18.7852V14.6602H213.885V18.7559C213.885 19.7168 214.275 20.1973 215.057 20.1973C215.885 20.1973 216.436 19.8887 216.709 19.2715V14.6602H217.793V21H216.762L216.738 20.373ZM221.988 20.2324C222.375 20.2324 222.713 20.1152 223.002 19.8809C223.291 19.6465 223.451 19.3535 223.482 19.002H224.508C224.488 19.3652 224.363 19.7109 224.133 20.0391C223.902 20.3672 223.594 20.6289 223.207 20.8242C222.824 21.0195 222.418 21.1172 221.988 21.1172C221.125 21.1172 220.438 20.8301 219.926 20.2559C219.418 19.6777 219.164 18.8887 219.164 17.8887V17.707C219.164 17.0898 219.277 16.541 219.504 16.0605C219.73 15.5801 220.055 15.207 220.477 14.9414C220.902 14.6758 221.404 14.543 221.982 14.543C222.693 14.543 223.283 14.7559 223.752 15.1816C224.225 15.6074 224.477 16.1602 224.508 16.8398H223.482C223.451 16.4297 223.295 16.0938 223.014 15.832C222.736 15.5664 222.393 15.4336 221.982 15.4336C221.432 15.4336 221.004 15.6328 220.699 16.0312C220.398 16.4258 220.248 16.998 220.248 17.748V17.9531C220.248 18.6836 220.398 19.2461 220.699 19.6406C221 20.0352 221.43 20.2324 221.988 20.2324ZM229.641 21C229.578 20.875 229.527 20.6523 229.488 20.332C228.984 20.8555 228.383 21.1172 227.684 21.1172C227.059 21.1172 226.545 20.9414 226.143 20.5898C225.744 20.2344 225.545 19.7852 225.545 19.2422C225.545 18.582 225.795 18.0703 226.295 17.707C226.799 17.3398 227.506 17.1562 228.416 17.1562H229.471V16.6582C229.471 16.2793 229.357 15.9785 229.131 15.7559C228.904 15.5293 228.57 15.416 228.129 15.416C227.742 15.416 227.418 15.5137 227.156 15.709C226.895 15.9043 226.764 16.1406 226.764 16.418H225.674C225.674 16.1016 225.785 15.7969 226.008 15.5039C226.234 15.207 226.539 14.9727 226.922 14.8008C227.309 14.6289 227.732 14.543 228.193 14.543C228.924 14.543 229.496 14.7266 229.91 15.0938C230.324 15.457 230.539 15.959 230.555 16.5996V19.5176C230.555 20.0996 230.629 20.5625 230.777 20.9062V21H229.641ZM227.842 20.1738C228.182 20.1738 228.504 20.0859 228.809 19.9102C229.113 19.7344 229.334 19.5059 229.471 19.2246V17.9238H228.621C227.293 17.9238 226.629 18.3125 226.629 19.0898C226.629 19.4297 226.742 19.6953 226.969 19.8867C227.195 20.0781 227.486 20.1738 227.842 20.1738ZM233.725 13.125V14.6602H234.908V15.498H233.725V19.4297C233.725 19.6836 233.777 19.875 233.883 20.0039C233.988 20.1289 234.168 20.1914 234.422 20.1914C234.547 20.1914 234.719 20.168 234.938 20.1211V21C234.652 21.0781 234.375 21.1172 234.105 21.1172C233.621 21.1172 233.256 20.9707 233.01 20.6777C232.764 20.3848 232.641 19.9688 232.641 19.4297V15.498H231.486V14.6602H232.641V13.125H233.725ZM237.357 21H236.273V14.6602H237.357V21ZM236.186 12.9785C236.186 12.8027 236.238 12.6543 236.344 12.5332C236.453 12.4121 236.613 12.3516 236.824 12.3516C237.035 12.3516 237.195 12.4121 237.305 12.5332C237.414 12.6543 237.469 12.8027 237.469 12.9785C237.469 13.1543 237.414 13.3008 237.305 13.418C237.195 13.5352 237.035 13.5938 236.824 13.5938C236.613 13.5938 236.453 13.5352 236.344 13.418C236.238 13.3008 236.186 13.1543 236.186 12.9785ZM238.811 17.7715C238.811 17.1504 238.932 16.5918 239.174 16.0957C239.42 15.5996 239.76 15.2168 240.193 14.9473C240.631 14.6777 241.129 14.543 241.688 14.543C242.551 14.543 243.248 14.8418 243.779 15.4395C244.314 16.0371 244.582 16.832 244.582 17.8242V17.9004C244.582 18.5176 244.463 19.0723 244.225 19.5645C243.99 20.0527 243.652 20.4336 243.211 20.707C242.773 20.9805 242.27 21.1172 241.699 21.1172C240.84 21.1172 240.143 20.8184 239.607 20.2207C239.076 19.623 238.811 18.832 238.811 17.8477V17.7715ZM239.9 17.9004C239.9 18.6035 240.062 19.168 240.387 19.5938C240.715 20.0195 241.152 20.2324 241.699 20.2324C242.25 20.2324 242.688 20.0176 243.012 19.5879C243.336 19.1543 243.498 18.5488 243.498 17.7715C243.498 17.0762 243.332 16.5137 243 16.084C242.672 15.6504 242.234 15.4336 241.688 15.4336C241.152 15.4336 240.721 15.6465 240.393 16.0723C240.064 16.498 239.9 17.1074 239.9 17.9004ZM246.967 14.6602L247.002 15.457C247.486 14.8477 248.119 14.543 248.9 14.543C250.24 14.543 250.916 15.2988 250.928 16.8105V21H249.844V16.8047C249.84 16.3477 249.734 16.0098 249.527 15.791C249.324 15.5723 249.006 15.4629 248.572 15.4629C248.221 15.4629 247.912 15.5566 247.646 15.7441C247.381 15.9316 247.174 16.1777 247.025 16.4824V21H245.941V14.6602H246.967ZM259.693 21H258.609V14.6602H259.693V21ZM258.521 12.9785C258.521 12.8027 258.574 12.6543 258.68 12.5332C258.789 12.4121 258.949 12.3516 259.16 12.3516C259.371 12.3516 259.531 12.4121 259.641 12.5332C259.75 12.6543 259.805 12.8027 259.805 12.9785C259.805 13.1543 259.75 13.3008 259.641 13.418C259.531 13.5352 259.371 13.5938 259.16 13.5938C258.949 13.5938 258.789 13.5352 258.68 13.418C258.574 13.3008 258.521 13.1543 258.521 12.9785ZM262.459 14.6602L262.494 15.457C262.979 14.8477 263.611 14.543 264.393 14.543C265.732 14.543 266.408 15.2988 266.42 16.8105V21H265.336V16.8047C265.332 16.3477 265.227 16.0098 265.02 15.791C264.816 15.5723 264.498 15.4629 264.064 15.4629C263.713 15.4629 263.404 15.5566 263.139 15.7441C262.873 15.9316 262.666 16.1777 262.518 16.4824V21H261.434V14.6602H262.459ZM272.016 12.9199C271.531 12.8418 271.141 12.8027 270.844 12.8027C270.062 12.8027 269.672 13.2129 269.672 14.0332V14.6602H271.025V15.498H269.672V21H268.588V15.498H267.586V14.6602H268.588V13.9688C268.592 13.293 268.781 12.7754 269.156 12.416C269.531 12.0566 270.064 11.877 270.756 11.877C271.15 11.877 271.932 11.9961 273.1 12.2344V21H272.016V12.9199ZM278.789 20.373C278.367 20.8691 277.748 21.1172 276.932 21.1172C276.256 21.1172 275.74 20.9219 275.385 20.5312C275.033 20.1367 274.855 19.5547 274.852 18.7852V14.6602H275.936V18.7559C275.936 19.7168 276.326 20.1973 277.107 20.1973C277.936 20.1973 278.486 19.8887 278.76 19.2715V14.6602H279.844V21H278.812L278.789 20.373ZM284.127 21.1172C283.268 21.1172 282.568 20.8359 282.029 20.2734C281.49 19.707 281.221 18.9512 281.221 18.0059V17.8066C281.221 17.1777 281.34 16.6172 281.578 16.125C281.82 15.6289 282.156 15.2422 282.586 14.9648C283.02 14.6836 283.488 14.543 283.992 14.543C284.816 14.543 285.457 14.8145 285.914 15.3574C286.371 15.9004 286.6 16.6777 286.6 17.6895V18.1406H282.305C282.32 18.7656 282.502 19.2715 282.85 19.6582C283.201 20.041 283.646 20.2324 284.186 20.2324C284.568 20.2324 284.893 20.1543 285.158 19.998C285.424 19.8418 285.656 19.6348 285.855 19.377L286.518 19.8926C285.986 20.709 285.189 21.1172 284.127 21.1172ZM283.992 15.4336C283.555 15.4336 283.188 15.5938 282.891 15.9141C282.594 16.2305 282.41 16.6758 282.34 17.25H285.516V17.168C285.484 16.6172 285.336 16.1914 285.07 15.8906C284.805 15.5859 284.445 15.4336 283.992 15.4336ZM288.885 14.6602L288.92 15.457C289.404 14.8477 290.037 14.543 290.818 14.543C292.158 14.543 292.834 15.2988 292.846 16.8105V21H291.762V16.8047C291.758 16.3477 291.652 16.0098 291.445 15.791C291.242 15.5723 290.924 15.4629 290.49 15.4629C290.139 15.4629 289.83 15.5566 289.564 15.7441C289.299 15.9316 289.092 16.1777 288.943 16.4824V21H287.859V14.6602H288.885ZM297.023 20.2324C297.41 20.2324 297.748 20.1152 298.037 19.8809C298.326 19.6465 298.486 19.3535 298.518 19.002H299.543C299.523 19.3652 299.398 19.7109 299.168 20.0391C298.938 20.3672 298.629 20.6289 298.242 20.8242C297.859 21.0195 297.453 21.1172 297.023 21.1172C296.16 21.1172 295.473 20.8301 294.961 20.2559C294.453 19.6777 294.199 18.8887 294.199 17.8887V17.707C294.199 17.0898 294.312 16.541 294.539 16.0605C294.766 15.5801 295.09 15.207 295.512 14.9414C295.938 14.6758 296.439 14.543 297.018 14.543C297.729 14.543 298.318 14.7559 298.787 15.1816C299.26 15.6074 299.512 16.1602 299.543 16.8398H298.518C298.486 16.4297 298.33 16.0938 298.049 15.832C297.771 15.5664 297.428 15.4336 297.018 15.4336C296.467 15.4336 296.039 15.6328 295.734 16.0312C295.434 16.4258 295.283 16.998 295.283 17.748V17.9531C295.283 18.6836 295.434 19.2461 295.734 19.6406C296.035 20.0352 296.465 20.2324 297.023 20.2324ZM303.393 21.1172C302.533 21.1172 301.834 20.8359 301.295 20.2734C300.756 19.707 300.486 18.9512 300.486 18.0059V17.8066C300.486 17.1777 300.605 16.6172 300.844 16.125C301.086 15.6289 301.422 15.2422 301.852 14.9648C302.285 14.6836 302.754 14.543 303.258 14.543C304.082 14.543 304.723 14.8145 305.18 15.3574C305.637 15.9004 305.865 16.6777 305.865 17.6895V18.1406H301.57C301.586 18.7656 301.768 19.2715 302.115 19.6582C302.467 20.041 302.912 20.2324 303.451 20.2324C303.834 20.2324 304.158 20.1543 304.424 19.998C304.689 19.8418 304.922 19.6348 305.121 19.377L305.783 19.8926C305.252 20.709 304.455 21.1172 303.393 21.1172ZM303.258 15.4336C302.82 15.4336 302.453 15.5938 302.156 15.9141C301.859 16.2305 301.676 16.6758 301.605 17.25H304.781V17.168C304.75 16.6172 304.602 16.1914 304.336 15.8906C304.07 15.5859 303.711 15.4336 303.258 15.4336ZM318.445 17.9004C318.445 18.8691 318.223 19.6484 317.777 20.2383C317.332 20.8242 316.734 21.1172 315.984 21.1172C315.184 21.1172 314.564 20.834 314.127 20.2676L314.074 21H313.078V12H314.162V15.3574C314.6 14.8145 315.203 14.543 315.973 14.543C316.742 14.543 317.346 14.834 317.783 15.416C318.225 15.998 318.445 16.7949 318.445 17.8066V17.9004ZM317.361 17.7773C317.361 17.0391 317.219 16.4688 316.934 16.0664C316.648 15.6641 316.238 15.4629 315.703 15.4629C314.988 15.4629 314.475 15.7949 314.162 16.459V19.2012C314.494 19.8652 315.012 20.1973 315.715 20.1973C316.234 20.1973 316.639 19.9961 316.928 19.5938C317.217 19.1914 317.361 18.5859 317.361 17.7773ZM322.881 15.6328C322.717 15.6055 322.539 15.5918 322.348 15.5918C321.637 15.5918 321.154 15.8945 320.9 16.5V21H319.816V14.6602H320.871L320.889 15.3926C321.244 14.8262 321.748 14.543 322.4 14.543C322.611 14.543 322.771 14.5703 322.881 14.625V15.6328ZM323.479 17.7715C323.479 17.1504 323.6 16.5918 323.842 16.0957C324.088 15.5996 324.428 15.2168 324.861 14.9473C325.299 14.6777 325.797 14.543 326.355 14.543C327.219 14.543 327.916 14.8418 328.447 15.4395C328.982 16.0371 329.25 16.832 329.25 17.8242V17.9004C329.25 18.5176 329.131 19.0723 328.893 19.5645C328.658 20.0527 328.32 20.4336 327.879 20.707C327.441 20.9805 326.938 21.1172 326.367 21.1172C325.508 21.1172 324.811 20.8184 324.275 20.2207C323.744 19.623 323.479 18.832 323.479 17.8477V17.7715ZM324.568 17.9004C324.568 18.6035 324.73 19.168 325.055 19.5938C325.383 20.0195 325.82 20.2324 326.367 20.2324C326.918 20.2324 327.355 20.0176 327.68 19.5879C328.004 19.1543 328.166 18.5488 328.166 17.7715C328.166 17.0762 328 16.5137 327.668 16.084C327.34 15.6504 326.902 15.4336 326.355 15.4336C325.82 15.4336 325.389 15.6465 325.061 16.0723C324.732 16.498 324.568 17.1074 324.568 17.9004ZM334.523 21C334.461 20.875 334.41 20.6523 334.371 20.332C333.867 20.8555 333.266 21.1172 332.566 21.1172C331.941 21.1172 331.428 20.9414 331.025 20.5898C330.627 20.2344 330.428 19.7852 330.428 19.2422C330.428 18.582 330.678 18.0703 331.178 17.707C331.682 17.3398 332.389 17.1562 333.299 17.1562H334.354V16.6582C334.354 16.2793 334.24 15.9785 334.014 15.7559C333.787 15.5293 333.453 15.416 333.012 15.416C332.625 15.416 332.301 15.5137 332.039 15.709C331.777 15.9043 331.646 16.1406 331.646 16.418H330.557C330.557 16.1016 330.668 15.7969 330.891 15.5039C331.117 15.207 331.422 14.9727 331.805 14.8008C332.191 14.6289 332.615 14.543 333.076 14.543C333.807 14.543 334.379 14.7266 334.793 15.0938C335.207 15.457 335.422 15.959 335.438 16.5996V19.5176C335.438 20.0996 335.512 20.5625 335.66 20.9062V21H334.523ZM332.725 20.1738C333.064 20.1738 333.387 20.0859 333.691 19.9102C333.996 19.7344 334.217 19.5059 334.354 19.2246V17.9238H333.504C332.176 17.9238 331.512 18.3125 331.512 19.0898C331.512 19.4297 331.625 19.6953 331.852 19.8867C332.078 20.0781 332.369 20.1738 332.725 20.1738ZM336.873 17.7773C336.873 16.8047 337.104 16.0234 337.564 15.4336C338.025 14.8398 338.629 14.543 339.375 14.543C340.117 14.543 340.705 14.7969 341.139 15.3047V12H342.223V21H341.227L341.174 20.3203C340.74 20.8516 340.137 21.1172 339.363 21.1172C338.629 21.1172 338.029 20.8164 337.564 20.2148C337.104 19.6133 336.873 18.8281 336.873 17.8594V17.7773ZM337.957 17.9004C337.957 18.6191 338.105 19.1816 338.402 19.5879C338.699 19.9941 339.109 20.1973 339.633 20.1973C340.32 20.1973 340.822 19.8887 341.139 19.2715V16.3594C340.814 15.7617 340.316 15.4629 339.645 15.4629C339.113 15.4629 338.699 15.668 338.402 16.0781C338.105 16.4883 337.957 17.0957 337.957 17.9004ZM348.48 21.8848H343.113V21H348.48V21.8848ZM350.502 21H349.418V14.6602H350.502V21ZM349.33 12.9785C349.33 12.8027 349.383 12.6543 349.488 12.5332C349.598 12.4121 349.758 12.3516 349.969 12.3516C350.18 12.3516 350.34 12.4121 350.449 12.5332C350.559 12.6543 350.613 12.8027 350.613 12.9785C350.613 13.1543 350.559 13.3008 350.449 13.418C350.34 13.5352 350.18 13.5938 349.969 13.5938C349.758 13.5938 349.598 13.5352 349.488 13.418C349.383 13.3008 349.33 13.1543 349.33 12.9785ZM353.262 14.6602L353.291 15.3633C353.756 14.8164 354.383 14.543 355.172 14.543C356.059 14.543 356.662 14.8828 356.982 15.5625C357.193 15.2578 357.467 15.0117 357.803 14.8242C358.143 14.6367 358.543 14.543 359.004 14.543C360.395 14.543 361.102 15.2793 361.125 16.752V21H360.041V16.8164C360.041 16.3633 359.938 16.0254 359.73 15.8027C359.523 15.5762 359.176 15.4629 358.688 15.4629C358.285 15.4629 357.951 15.584 357.686 15.8262C357.42 16.0645 357.266 16.3867 357.223 16.793V21H356.133V16.8457C356.133 15.9238 355.682 15.4629 354.779 15.4629C354.068 15.4629 353.582 15.7656 353.32 16.3711V21H352.236V14.6602H353.262ZM368.121 17.9004C368.121 18.8652 367.9 19.6426 367.459 20.2324C367.018 20.8223 366.42 21.1172 365.666 21.1172C364.896 21.1172 364.291 20.873 363.85 20.3848V23.4375H362.766V14.6602H363.756L363.809 15.3633C364.25 14.8164 364.863 14.543 365.648 14.543C366.41 14.543 367.012 14.8301 367.453 15.4043C367.898 15.9785 368.121 16.7773 368.121 17.8008V17.9004ZM367.037 17.7773C367.037 17.0625 366.885 16.498 366.58 16.084C366.275 15.6699 365.857 15.4629 365.326 15.4629C364.67 15.4629 364.178 15.7539 363.85 16.3359V19.3652C364.174 19.9434 364.67 20.2324 365.338 20.2324C365.857 20.2324 366.27 20.0273 366.574 19.6172C366.883 19.2031 367.037 18.5898 367.037 17.7773ZM373.418 21C373.355 20.875 373.305 20.6523 373.266 20.332C372.762 20.8555 372.16 21.1172 371.461 21.1172C370.836 21.1172 370.322 20.9414 369.92 20.5898C369.521 20.2344 369.322 19.7852 369.322 19.2422C369.322 18.582 369.572 18.0703 370.072 17.707C370.576 17.3398 371.283 17.1562 372.193 17.1562H373.248V16.6582C373.248 16.2793 373.135 15.9785 372.908 15.7559C372.682 15.5293 372.348 15.416 371.906 15.416C371.52 15.416 371.195 15.5137 370.934 15.709C370.672 15.9043 370.541 16.1406 370.541 16.418H369.451C369.451 16.1016 369.562 15.7969 369.785 15.5039C370.012 15.207 370.316 14.9727 370.699 14.8008C371.086 14.6289 371.51 14.543 371.971 14.543C372.701 14.543 373.273 14.7266 373.688 15.0938C374.102 15.457 374.316 15.959 374.332 16.5996V19.5176C374.332 20.0996 374.406 20.5625 374.555 20.9062V21H373.418ZM371.619 20.1738C371.959 20.1738 372.281 20.0859 372.586 19.9102C372.891 19.7344 373.111 19.5059 373.248 19.2246V17.9238H372.398C371.07 17.9238 370.406 18.3125 370.406 19.0898C370.406 19.4297 370.52 19.6953 370.746 19.8867C370.973 20.0781 371.264 20.1738 371.619 20.1738ZM378.574 20.2324C378.961 20.2324 379.299 20.1152 379.588 19.8809C379.877 19.6465 380.037 19.3535 380.068 19.002H381.094C381.074 19.3652 380.949 19.7109 380.719 20.0391C380.488 20.3672 380.18 20.6289 379.793 20.8242C379.41 21.0195 379.004 21.1172 378.574 21.1172C377.711 21.1172 377.023 20.8301 376.512 20.2559C376.004 19.6777 375.75 18.8887 375.75 17.8887V17.707C375.75 17.0898 375.863 16.541 376.09 16.0605C376.316 15.5801 376.641 15.207 377.062 14.9414C377.488 14.6758 377.99 14.543 378.568 14.543C379.279 14.543 379.869 14.7559 380.338 15.1816C380.811 15.6074 381.062 16.1602 381.094 16.8398H380.068C380.037 16.4297 379.881 16.0938 379.6 15.832C379.322 15.5664 378.979 15.4336 378.568 15.4336C378.018 15.4336 377.59 15.6328 377.285 16.0312C376.984 16.4258 376.834 16.998 376.834 17.748V17.9531C376.834 18.6836 376.984 19.2461 377.285 19.6406C377.586 20.0352 378.016 20.2324 378.574 20.2324ZM383.783 13.125V14.6602H384.967V15.498H383.783V19.4297C383.783 19.6836 383.836 19.875 383.941 20.0039C384.047 20.1289 384.227 20.1914 384.48 20.1914C384.605 20.1914 384.777 20.168 384.996 20.1211V21C384.711 21.0781 384.434 21.1172 384.164 21.1172C383.68 21.1172 383.314 20.9707 383.068 20.6777C382.822 20.3848 382.699 19.9688 382.699 19.4297V15.498H381.545V14.6602H382.699V13.125H383.783ZM397.547 17.9004C397.547 18.8652 397.326 19.6426 396.885 20.2324C396.443 20.8223 395.846 21.1172 395.092 21.1172C394.322 21.1172 393.717 20.873 393.275 20.3848V23.4375H392.191V14.6602H393.182L393.234 15.3633C393.676 14.8164 394.289 14.543 395.074 14.543C395.836 14.543 396.438 14.8301 396.879 15.4043C397.324 15.9785 397.547 16.7773 397.547 17.8008V17.9004ZM396.463 17.7773C396.463 17.0625 396.311 16.498 396.006 16.084C395.701 15.6699 395.283 15.4629 394.752 15.4629C394.096 15.4629 393.604 15.7539 393.275 16.3359V19.3652C393.6 19.9434 394.096 20.2324 394.764 20.2324C395.283 20.2324 395.695 20.0273 396 19.6172C396.309 19.2031 396.463 18.5898 396.463 17.7773ZM402.844 21C402.781 20.875 402.73 20.6523 402.691 20.332C402.188 20.8555 401.586 21.1172 400.887 21.1172C400.262 21.1172 399.748 20.9414 399.346 20.5898C398.947 20.2344 398.748 19.7852 398.748 19.2422C398.748 18.582 398.998 18.0703 399.498 17.707C400.002 17.3398 400.709 17.1562 401.619 17.1562H402.674V16.6582C402.674 16.2793 402.561 15.9785 402.334 15.7559C402.107 15.5293 401.773 15.416 401.332 15.416C400.945 15.416 400.621 15.5137 400.359 15.709C400.098 15.9043 399.967 16.1406 399.967 16.418H398.877C398.877 16.1016 398.988 15.7969 399.211 15.5039C399.438 15.207 399.742 14.9727 400.125 14.8008C400.512 14.6289 400.936 14.543 401.396 14.543C402.127 14.543 402.699 14.7266 403.113 15.0938C403.527 15.457 403.742 15.959 403.758 16.5996V19.5176C403.758 20.0996 403.832 20.5625 403.98 20.9062V21H402.844ZM401.045 20.1738C401.385 20.1738 401.707 20.0859 402.012 19.9102C402.316 19.7344 402.537 19.5059 402.674 19.2246V17.9238H401.824C400.496 17.9238 399.832 18.3125 399.832 19.0898C399.832 19.4297 399.945 19.6953 400.172 19.8867C400.398 20.0781 400.689 20.1738 401.045 20.1738ZM406.928 13.125V14.6602H408.111V15.498H406.928V19.4297C406.928 19.6836 406.98 19.875 407.086 20.0039C407.191 20.1289 407.371 20.1914 407.625 20.1914C407.75 20.1914 407.922 20.168 408.141 20.1211V21C407.855 21.0781 407.578 21.1172 407.309 21.1172C406.824 21.1172 406.459 20.9707 406.213 20.6777C405.967 20.3848 405.844 19.9688 405.844 19.4297V15.498H404.689V14.6602H405.844V13.125H406.928ZM412.014 21.1172C411.154 21.1172 410.455 20.8359 409.916 20.2734C409.377 19.707 409.107 18.9512 409.107 18.0059V17.8066C409.107 17.1777 409.227 16.6172 409.465 16.125C409.707 15.6289 410.043 15.2422 410.473 14.9648C410.906 14.6836 411.375 14.543 411.879 14.543C412.703 14.543 413.344 14.8145 413.801 15.3574C414.258 15.9004 414.486 16.6777 414.486 17.6895V18.1406H410.191C410.207 18.7656 410.389 19.2715 410.736 19.6582C411.088 20.041 411.533 20.2324 412.072 20.2324C412.455 20.2324 412.779 20.1543 413.045 19.998C413.311 19.8418 413.543 19.6348 413.742 19.377L414.404 19.8926C413.873 20.709 413.076 21.1172 412.014 21.1172ZM411.879 15.4336C411.441 15.4336 411.074 15.5938 410.777 15.9141C410.48 16.2305 410.297 16.6758 410.227 17.25H413.402V17.168C413.371 16.6172 413.223 16.1914 412.957 15.8906C412.691 15.5859 412.332 15.4336 411.879 15.4336ZM416.771 14.6602L416.807 15.457C417.291 14.8477 417.924 14.543 418.705 14.543C420.045 14.543 420.721 15.2988 420.732 16.8105V21H419.648V16.8047C419.645 16.3477 419.539 16.0098 419.332 15.791C419.129 15.5723 418.811 15.4629 418.377 15.4629C418.025 15.4629 417.717 15.5566 417.451 15.7441C417.186 15.9316 416.979 16.1777 416.83 16.4824V21H415.746V14.6602H416.771ZM423.838 13.125V14.6602H425.021V15.498H423.838V19.4297C423.838 19.6836 423.891 19.875 423.996 20.0039C424.102 20.1289 424.281 20.1914 424.535 20.1914C424.66 20.1914 424.832 20.168 425.051 20.1211V21C424.766 21.0781 424.488 21.1172 424.219 21.1172C423.734 21.1172 423.369 20.9707 423.123 20.6777C422.877 20.3848 422.754 19.9688 422.754 19.4297V15.498H421.6V14.6602H422.754V13.125H423.838ZM429.984 19.3184C429.984 19.0254 429.873 18.7988 429.65 18.6387C429.432 18.4746 429.047 18.334 428.496 18.2168C427.949 18.0996 427.514 17.959 427.189 17.7949C426.869 17.6309 426.631 17.4355 426.475 17.209C426.322 16.9824 426.246 16.7129 426.246 16.4004C426.246 15.8809 426.465 15.4414 426.902 15.082C427.344 14.7227 427.906 14.543 428.59 14.543C429.309 14.543 429.891 14.7285 430.336 15.0996C430.785 15.4707 431.01 15.9453 431.01 16.5234H429.92C429.92 16.2266 429.793 15.9707 429.539 15.7559C429.289 15.541 428.973 15.4336 428.59 15.4336C428.195 15.4336 427.887 15.5195 427.664 15.6914C427.441 15.8633 427.33 16.0879 427.33 16.3652C427.33 16.627 427.434 16.8242 427.641 16.957C427.848 17.0898 428.221 17.2168 428.76 17.3379C429.303 17.459 429.742 17.6035 430.078 17.7715C430.414 17.9395 430.662 18.1426 430.822 18.3809C430.986 18.6152 431.068 18.9023 431.068 19.2422C431.068 19.8086 430.842 20.2637 430.389 20.6074C429.936 20.9473 429.348 21.1172 428.625 21.1172C428.117 21.1172 427.668 21.0273 427.277 20.8477C426.887 20.668 426.58 20.418 426.357 20.0977C426.139 19.7734 426.029 19.4238 426.029 19.0488H427.113C427.133 19.4121 427.277 19.7012 427.547 19.916C427.82 20.127 428.18 20.2324 428.625 20.2324C429.035 20.2324 429.363 20.1504 429.609 19.9863C429.859 19.8184 429.984 19.5957 429.984 19.3184ZM22.9043 29.4277C23.3848 28.8379 24.0098 28.543 24.7793 28.543C26.1191 28.543 26.7949 29.2988 26.8066 30.8105V35H25.7227V30.8047C25.7188 30.3477 25.6133 30.0098 25.4062 29.791C25.2031 29.5723 24.8848 29.4629 24.4512 29.4629C24.0996 29.4629 23.791 29.5566 23.5254 29.7441C23.2598 29.9316 23.0527 30.1777 22.9043 30.4824V35H21.8203V26H22.9043V29.4277ZM32.3438 35C32.2812 34.875 32.2305 34.6523 32.1914 34.332C31.6875 34.8555 31.0859 35.1172 30.3867 35.1172C29.7617 35.1172 29.248 34.9414 28.8457 34.5898C28.4473 34.2344 28.248 33.7852 28.248 33.2422C28.248 32.582 28.498 32.0703 28.998 31.707C29.502 31.3398 30.209 31.1562 31.1191 31.1562H32.1738V30.6582C32.1738 30.2793 32.0605 29.9785 31.834 29.7559C31.6074 29.5293 31.2734 29.416 30.832 29.416C30.4453 29.416 30.1211 29.5137 29.8594 29.709C29.5977 29.9043 29.4668 30.1406 29.4668 30.418H28.377C28.377 30.1016 28.4883 29.7969 28.7109 29.5039C28.9375 29.207 29.2422 28.9727 29.625 28.8008C30.0117 28.6289 30.4355 28.543 30.8965 28.543C31.627 28.543 32.1992 28.7266 32.6133 29.0938C33.0273 29.457 33.2422 29.959 33.2578 30.5996V33.5176C33.2578 34.0996 33.332 34.5625 33.4805 34.9062V35H32.3438ZM30.5449 34.1738C30.8848 34.1738 31.207 34.0859 31.5117 33.9102C31.8164 33.7344 32.0371 33.5059 32.1738 33.2246V31.9238H31.3242C29.9961 31.9238 29.332 32.3125 29.332 33.0898C29.332 33.4297 29.4453 33.6953 29.6719 33.8867C29.8984 34.0781 30.1895 34.1738 30.5449 34.1738ZM38.0215 29.6328C37.8574 29.6055 37.6797 29.5918 37.4883 29.5918C36.7773 29.5918 36.2949 29.8945 36.041 30.5V35H34.957V28.6602H36.0117L36.0293 29.3926C36.3848 28.8262 36.8887 28.543 37.541 28.543C37.752 28.543 37.9121 28.5703 38.0215 28.625V29.6328ZM41.2207 33.5293L42.791 28.6602H43.8984L41.625 35H40.7988L38.502 28.6602H39.6094L41.2207 33.5293ZM48.7617 35C48.6992 34.875 48.6484 34.6523 48.6094 34.332C48.1055 34.8555 47.5039 35.1172 46.8047 35.1172C46.1797 35.1172 45.666 34.9414 45.2637 34.5898C44.8652 34.2344 44.666 33.7852 44.666 33.2422C44.666 32.582 44.916 32.0703 45.416 31.707C45.9199 31.3398 46.627 31.1562 47.5371 31.1562H48.5918V30.6582C48.5918 30.2793 48.4785 29.9785 48.252 29.7559C48.0254 29.5293 47.6914 29.416 47.25 29.416C46.8633 29.416 46.5391 29.5137 46.2773 29.709C46.0156 29.9043 45.8848 30.1406 45.8848 30.418H44.7949C44.7949 30.1016 44.9062 29.7969 45.1289 29.5039C45.3555 29.207 45.6602 28.9727 46.043 28.8008C46.4297 28.6289 46.8535 28.543 47.3145 28.543C48.0449 28.543 48.6172 28.7266 49.0312 29.0938C49.4453 29.457 49.6602 29.959 49.6758 30.5996V33.5176C49.6758 34.0996 49.75 34.5625 49.8984 34.9062V35H48.7617ZM46.9629 34.1738C47.3027 34.1738 47.625 34.0859 47.9297 33.9102C48.2344 33.7344 48.4551 33.5059 48.5918 33.2246V31.9238H47.7422C46.4141 31.9238 45.75 32.3125 45.75 33.0898C45.75 33.4297 45.8633 33.6953 46.0898 33.8867C46.3164 34.0781 46.6074 34.1738 46.9629 34.1738ZM54.4395 29.6328C54.2754 29.6055 54.0977 29.5918 53.9062 29.5918C53.1953 29.5918 52.7129 29.8945 52.459 30.5V35H51.375V28.6602H52.4297L52.4473 29.3926C52.8027 28.8262 53.3066 28.543 53.959 28.543C54.1699 28.543 54.3301 28.5703 54.4395 28.625V29.6328ZM55.0605 31.7773C55.0605 30.8047 55.291 30.0234 55.752 29.4336C56.2129 28.8398 56.8164 28.543 57.5625 28.543C58.3047 28.543 58.8926 28.7969 59.3262 29.3047V26H60.4102V35H59.4141L59.3613 34.3203C58.9277 34.8516 58.3242 35.1172 57.5508 35.1172C56.8164 35.1172 56.2168 34.8164 55.752 34.2148C55.291 33.6133 55.0605 32.8281 55.0605 31.8594V31.7773ZM56.1445 31.9004C56.1445 32.6191 56.293 33.1816 56.5898 33.5879C56.8867 33.9941 57.2969 34.1973 57.8203 34.1973C58.5078 34.1973 59.0098 33.8887 59.3262 33.2715V30.3594C59.002 29.7617 58.5039 29.4629 57.832 29.4629C57.3008 29.4629 56.8867 29.668 56.5898 30.0781C56.293 30.4883 56.1445 31.0957 56.1445 31.9004ZM101.268 35H100.178V27.7754L97.9922 28.5781V27.5938L101.098 26.4277H101.268V35ZM197.303 35H196.213V27.7754L194.027 28.5781V27.5938L197.133 26.4277H197.303V35ZM287.807 35H286.113V28.4727L284.092 29.0996V27.7227L287.625 26.457H287.807V35ZM360.439 35H358.746V28.4727L356.725 29.0996V27.7227L360.258 26.457H360.439V35ZM421.119 35H419.426V28.4727L417.404 29.0996V27.7227L420.938 26.457H421.119V35ZM25.5117 47.3184C25.5117 47.0254 25.4004 46.7988 25.1777 46.6387C24.959 46.4746 24.5742 46.334 24.0234 46.2168C23.4766 46.0996 23.041 45.959 22.7168 45.7949C22.3965 45.6309 22.1582 45.4355 22.002 45.209C21.8496 44.9824 21.7734 44.7129 21.7734 44.4004C21.7734 43.8809 21.9922 43.4414 22.4297 43.082C22.8711 42.7227 23.4336 42.543 24.1172 42.543C24.8359 42.543 25.418 42.7285 25.8633 43.0996C26.3125 43.4707 26.5371 43.9453 26.5371 44.5234H25.4473C25.4473 44.2266 25.3203 43.9707 25.0664 43.7559C24.8164 43.541 24.5 43.4336 24.1172 43.4336C23.7227 43.4336 23.4141 43.5195 23.1914 43.6914C22.9688 43.8633 22.8574 44.0879 22.8574 44.3652C22.8574 44.627 22.9609 44.8242 23.168 44.957C23.375 45.0898 23.748 45.2168 24.2871 45.3379C24.8301 45.459 25.2695 45.6035 25.6055 45.7715C25.9414 45.9395 26.1895 46.1426 26.3496 46.3809C26.5137 46.6152 26.5957 46.9023 26.5957 47.2422C26.5957 47.8086 26.3691 48.2637 25.916 48.6074C25.4629 48.9473 24.875 49.1172 24.1523 49.1172C23.6445 49.1172 23.1953 49.0273 22.8047 48.8477C22.4141 48.668 22.1074 48.418 21.8848 48.0977C21.666 47.7734 21.5566 47.4238 21.5566 47.0488H22.6406C22.6602 47.4121 22.8047 47.7012 23.0742 47.916C23.3477 48.127 23.707 48.2324 24.1523 48.2324C24.5625 48.2324 24.8906 48.1504 25.1367 47.9863C25.3867 47.8184 25.5117 47.5957 25.5117 47.3184ZM29.4785 41.125V42.6602H30.6621V43.498H29.4785V47.4297C29.4785 47.6836 29.5312 47.875 29.6367 48.0039C29.7422 48.1289 29.9219 48.1914 30.1758 48.1914C30.3008 48.1914 30.4727 48.168 30.6914 48.1211V49C30.4062 49.0781 30.1289 49.1172 29.8594 49.1172C29.375 49.1172 29.0098 48.9707 28.7637 48.6777C28.5176 48.3848 28.3945 47.9688 28.3945 47.4297V43.498H27.2402V42.6602H28.3945V41.125H29.4785ZM35.8477 49C35.7852 48.875 35.7344 48.6523 35.6953 48.332C35.1914 48.8555 34.5898 49.1172 33.8906 49.1172C33.2656 49.1172 32.752 48.9414 32.3496 48.5898C31.9512 48.2344 31.752 47.7852 31.752 47.2422C31.752 46.582 32.002 46.0703 32.502 45.707C33.0059 45.3398 33.7129 45.1562 34.623 45.1562H35.6777V44.6582C35.6777 44.2793 35.5645 43.9785 35.3379 43.7559C35.1113 43.5293 34.7773 43.416 34.3359 43.416C33.9492 43.416 33.625 43.5137 33.3633 43.709C33.1016 43.9043 32.9707 44.1406 32.9707 44.418H31.8809C31.8809 44.1016 31.9922 43.7969 32.2148 43.5039C32.4414 43.207 32.7461 42.9727 33.1289 42.8008C33.5156 42.6289 33.9395 42.543 34.4004 42.543C35.1309 42.543 35.7031 42.7266 36.1172 43.0938C36.5312 43.457 36.7461 43.959 36.7617 44.5996V47.5176C36.7617 48.0996 36.8359 48.5625 36.9844 48.9062V49H35.8477ZM34.0488 48.1738C34.3887 48.1738 34.7109 48.0859 35.0156 47.9102C35.3203 47.7344 35.541 47.5059 35.6777 47.2246V45.9238H34.8281C33.5 45.9238 32.8359 46.3125 32.8359 47.0898C32.8359 47.4297 32.9492 47.6953 33.1758 47.8867C33.4023 48.0781 33.6934 48.1738 34.0488 48.1738ZM39.4863 42.6602L39.5215 43.457C40.0059 42.8477 40.6387 42.543 41.4199 42.543C42.7598 42.543 43.4355 43.2988 43.4473 44.8105V49H42.3633V44.8047C42.3594 44.3477 42.2539 44.0098 42.0469 43.791C41.8438 43.5723 41.5254 43.4629 41.0918 43.4629C40.7402 43.4629 40.4316 43.5566 40.166 43.7441C39.9004 43.9316 39.6934 44.1777 39.5449 44.4824V49H38.4609V42.6602H39.4863ZM45.6152 49V43.498H44.6133V42.6602H45.6152V42.0098C45.6152 41.3301 45.7969 40.8047 46.1602 40.4336C46.5234 40.0625 47.0371 39.877 47.7012 39.877C47.9512 39.877 48.1992 39.9102 48.4453 39.9766L48.3867 40.8555C48.2031 40.8203 48.0078 40.8027 47.8008 40.8027C47.4492 40.8027 47.1777 40.9062 46.9863 41.1133C46.7949 41.3164 46.6992 41.6094 46.6992 41.9922V42.6602H48.0527V43.498H46.6992V49H45.6152ZM48.9668 45.7715C48.9668 45.1504 49.0879 44.5918 49.3301 44.0957C49.5762 43.5996 49.916 43.2168 50.3496 42.9473C50.7871 42.6777 51.2852 42.543 51.8438 42.543C52.707 42.543 53.4043 42.8418 53.9355 43.4395C54.4707 44.0371 54.7383 44.832 54.7383 45.8242V45.9004C54.7383 46.5176 54.6191 47.0723 54.3809 47.5645C54.1465 48.0527 53.8086 48.4336 53.3672 48.707C52.9297 48.9805 52.4258 49.1172 51.8555 49.1172C50.9961 49.1172 50.2988 48.8184 49.7637 48.2207C49.2324 47.623 48.9668 46.832 48.9668 45.8477V45.7715ZM50.0566 45.9004C50.0566 46.6035 50.2188 47.168 50.543 47.5938C50.8711 48.0195 51.3086 48.2324 51.8555 48.2324C52.4062 48.2324 52.8438 48.0176 53.168 47.5879C53.4922 47.1543 53.6543 46.5488 53.6543 45.7715C53.6543 45.0762 53.4883 44.5137 53.1562 44.084C52.8281 43.6504 52.3906 43.4336 51.8438 43.4336C51.3086 43.4336 50.877 43.6465 50.5488 44.0723C50.2207 44.498 50.0566 45.1074 50.0566 45.9004ZM59.1621 43.6328C58.998 43.6055 58.8203 43.5918 58.6289 43.5918C57.918 43.5918 57.4355 43.8945 57.1816 44.5V49H56.0977V42.6602H57.1523L57.1699 43.3926C57.5254 42.8262 58.0293 42.543 58.6816 42.543C58.8926 42.543 59.0527 42.5703 59.1621 42.625V43.6328ZM59.7832 45.7773C59.7832 44.8047 60.0137 44.0234 60.4746 43.4336C60.9355 42.8398 61.5391 42.543 62.2852 42.543C63.0273 42.543 63.6152 42.7969 64.0488 43.3047V40H65.1328V49H64.1367L64.084 48.3203C63.6504 48.8516 63.0469 49.1172 62.2734 49.1172C61.5391 49.1172 60.9395 48.8164 60.4746 48.2148C60.0137 47.6133 59.7832 46.8281 59.7832 45.8594V45.7773ZM60.8672 45.9004C60.8672 46.6191 61.0156 47.1816 61.3125 47.5879C61.6094 47.9941 62.0195 48.1973 62.543 48.1973C63.2305 48.1973 63.7324 47.8887 64.0488 47.2715V44.3594C63.7246 43.7617 63.2266 43.4629 62.5547 43.4629C62.0234 43.4629 61.6094 43.668 61.3125 44.0781C61.0156 44.4883 60.8672 45.0957 60.8672 45.9004ZM105.041 49H99.4512V48.2207L102.404 44.9395C102.842 44.4434 103.143 44.041 103.307 43.7324C103.475 43.4199 103.559 43.0977 103.559 42.7656C103.559 42.3203 103.424 41.9551 103.154 41.6699C102.885 41.3848 102.525 41.2422 102.076 41.2422C101.537 41.2422 101.117 41.3965 100.816 41.7051C100.52 42.0098 100.371 42.4355 100.371 42.9824H99.2871C99.2871 42.1973 99.5391 41.5625 100.043 41.0781C100.551 40.5938 101.229 40.3516 102.076 40.3516C102.869 40.3516 103.496 40.5605 103.957 40.9785C104.418 41.3926 104.648 41.9453 104.648 42.6367C104.648 43.4766 104.113 44.4766 103.043 45.6367L100.758 48.1152H105.041V49ZM199.641 45.25C199.414 45.5195 199.143 45.7363 198.826 45.9004C198.514 46.0645 198.17 46.1465 197.795 46.1465C197.303 46.1465 196.873 46.0254 196.506 45.7832C196.143 45.541 195.861 45.2012 195.662 44.7637C195.463 44.3223 195.363 43.8359 195.363 43.3047C195.363 42.7344 195.471 42.2207 195.686 41.7637C195.904 41.3066 196.213 40.957 196.611 40.7148C197.01 40.4727 197.475 40.3516 198.006 40.3516C198.85 40.3516 199.514 40.668 199.998 41.3008C200.486 41.9297 200.73 42.7891 200.73 43.8789V44.1953C200.73 45.8555 200.402 47.0684 199.746 47.834C199.09 48.5957 198.1 48.9863 196.775 49.0059H196.564V48.0918H196.793C197.688 48.0762 198.375 47.8438 198.855 47.3945C199.336 46.9414 199.598 46.2266 199.641 45.25ZM197.971 45.25C198.334 45.25 198.668 45.1387 198.973 44.916C199.281 44.6934 199.506 44.418 199.646 44.0898V43.6562C199.646 42.9453 199.492 42.3672 199.184 41.9219C198.875 41.4766 198.484 41.2539 198.012 41.2539C197.535 41.2539 197.152 41.4375 196.863 41.8047C196.574 42.168 196.43 42.6484 196.43 43.2461C196.43 43.8281 196.568 44.3086 196.846 44.6875C197.127 45.0625 197.502 45.25 197.971 45.25ZM289.564 49H287.871V42.4727L285.85 43.0996V41.7227L289.383 40.457H289.564V49ZM362.197 49H360.504V42.4727L358.482 43.0996V41.7227L362.016 40.457H362.197V49ZM422.877 49H421.184V42.4727L419.162 43.0996V41.7227L422.695 40.457H422.877V49ZM23.4434 54.4688L26.2324 61.4297L29.0215 54.4688H30.4805V63H29.3555V59.6777L29.4609 56.0918L26.6602 63H25.7988L23.0039 56.1094L23.1152 59.6777V63H21.9902V54.4688H23.4434ZM33.6738 63H32.5488V54.4688H33.6738V63ZM41.4551 55.3945H38.7129V63H37.5938V55.3945H34.8574V54.4688H41.4551V55.3945ZM100.336 58.207H101.15C101.662 58.1992 102.064 58.0645 102.357 57.8027C102.65 57.541 102.797 57.1875 102.797 56.7422C102.797 55.7422 102.299 55.2422 101.303 55.2422C100.834 55.2422 100.459 55.377 100.178 55.6465C99.9004 55.9121 99.7617 56.2656 99.7617 56.707H98.6777C98.6777 56.0312 98.9238 55.4707 99.416 55.0254C99.9121 54.5762 100.541 54.3516 101.303 54.3516C102.107 54.3516 102.738 54.5645 103.195 54.9902C103.652 55.416 103.881 56.0078 103.881 56.7656C103.881 57.1367 103.76 57.4961 103.518 57.8438C103.279 58.1914 102.953 58.4512 102.539 58.623C103.008 58.7715 103.369 59.0176 103.623 59.3613C103.881 59.7051 104.01 60.125 104.01 60.6211C104.01 61.3867 103.76 61.9941 103.26 62.4434C102.76 62.8926 102.109 63.1172 101.309 63.1172C100.508 63.1172 99.8555 62.9004 99.3516 62.4668C98.8516 62.0332 98.6016 61.4609 98.6016 60.75H99.6914C99.6914 61.1992 99.8379 61.5586 100.131 61.8281C100.424 62.0977 100.816 62.2324 101.309 62.2324C101.832 62.2324 102.232 62.0957 102.51 61.8223C102.787 61.5488 102.926 61.1562 102.926 60.6445C102.926 60.1484 102.773 59.7676 102.469 59.502C102.164 59.2363 101.725 59.0996 101.15 59.0918H100.336V58.207ZM196.371 58.207H197.186C197.697 58.1992 198.1 58.0645 198.393 57.8027C198.686 57.541 198.832 57.1875 198.832 56.7422C198.832 55.7422 198.334 55.2422 197.338 55.2422C196.869 55.2422 196.494 55.377 196.213 55.6465C195.936 55.9121 195.797 56.2656 195.797 56.707H194.713C194.713 56.0312 194.959 55.4707 195.451 55.0254C195.947 54.5762 196.576 54.3516 197.338 54.3516C198.143 54.3516 198.773 54.5645 199.23 54.9902C199.688 55.416 199.916 56.0078 199.916 56.7656C199.916 57.1367 199.795 57.4961 199.553 57.8438C199.314 58.1914 198.988 58.4512 198.574 58.623C199.043 58.7715 199.404 59.0176 199.658 59.3613C199.916 59.7051 200.045 60.125 200.045 60.6211C200.045 61.3867 199.795 61.9941 199.295 62.4434C198.795 62.8926 198.145 63.1172 197.344 63.1172C196.543 63.1172 195.891 62.9004 195.387 62.4668C194.887 62.0332 194.637 61.4609 194.637 60.75H195.727C195.727 61.1992 195.873 61.5586 196.166 61.8281C196.459 62.0977 196.852 62.2324 197.344 62.2324C197.867 62.2324 198.268 62.0957 198.545 61.8223C198.822 61.5488 198.961 61.1562 198.961 60.6445C198.961 60.1484 198.809 59.7676 198.504 59.502C198.199 59.2363 197.76 59.0996 197.186 59.0918H196.371V58.207ZM288.861 63H287.168V56.4727L285.146 57.0996V55.7227L288.68 54.457H288.861V63ZM361.494 63H359.801V56.4727L357.779 57.0996V55.7227L361.312 54.457H361.494V63ZM422.174 63H420.48V56.4727L418.459 57.0996V55.7227L421.992 54.457H422.174V63ZM24.3633 76.2324C24.75 76.2324 25.0879 76.1152 25.377 75.8809C25.666 75.6465 25.8262 75.3535 25.8574 75.002H26.8828C26.8633 75.3652 26.7383 75.7109 26.5078 76.0391C26.2773 76.3672 25.9688 76.6289 25.582 76.8242C25.1992 77.0195 24.793 77.1172 24.3633 77.1172C23.5 77.1172 22.8125 76.8301 22.3008 76.2559C21.793 75.6777 21.5391 74.8887 21.5391 73.8887V73.707C21.5391 73.0898 21.6523 72.541 21.8789 72.0605C22.1055 71.5801 22.4297 71.207 22.8516 70.9414C23.2773 70.6758 23.7793 70.543 24.3574 70.543C25.0684 70.543 25.6582 70.7559 26.127 71.1816C26.5996 71.6074 26.8516 72.1602 26.8828 72.8398H25.8574C25.8262 72.4297 25.6699 72.0938 25.3887 71.832C25.1113 71.5664 24.7676 71.4336 24.3574 71.4336C23.8066 71.4336 23.3789 71.6328 23.0742 72.0312C22.7734 72.4258 22.623 72.998 22.623 73.748V73.9531C22.623 74.6836 22.7734 75.2461 23.0742 75.6406C23.375 76.0352 23.8047 76.2324 24.3633 76.2324ZM32.0156 77C31.9531 76.875 31.9023 76.6523 31.8633 76.332C31.3594 76.8555 30.7578 77.1172 30.0586 77.1172C29.4336 77.1172 28.9199 76.9414 28.5176 76.5898C28.1191 76.2344 27.9199 75.7852 27.9199 75.2422C27.9199 74.582 28.1699 74.0703 28.6699 73.707C29.1738 73.3398 29.8809 73.1562 30.791 73.1562H31.8457V72.6582C31.8457 72.2793 31.7324 71.9785 31.5059 71.7559C31.2793 71.5293 30.9453 71.416 30.5039 71.416C30.1172 71.416 29.793 71.5137 29.5312 71.709C29.2695 71.9043 29.1387 72.1406 29.1387 72.418H28.0488C28.0488 72.1016 28.1602 71.7969 28.3828 71.5039C28.6094 71.207 28.9141 70.9727 29.2969 70.8008C29.6836 70.6289 30.1074 70.543 30.5684 70.543C31.2988 70.543 31.8711 70.7266 32.2852 71.0938C32.6992 71.457 32.9141 71.959 32.9297 72.5996V75.5176C32.9297 76.0996 33.0039 76.5625 33.1523 76.9062V77H32.0156ZM30.2168 76.1738C30.5566 76.1738 30.8789 76.0859 31.1836 75.9102C31.4883 75.7344 31.709 75.5059 31.8457 75.2246V73.9238H30.9961C29.668 73.9238 29.0039 74.3125 29.0039 75.0898C29.0039 75.4297 29.1172 75.6953 29.3438 75.8867C29.5703 76.0781 29.8613 76.1738 30.2168 76.1738ZM35.6484 70.6602L35.6777 71.3633C36.1426 70.8164 36.7695 70.543 37.5586 70.543C38.4453 70.543 39.0488 70.8828 39.3691 71.5625C39.5801 71.2578 39.8535 71.0117 40.1895 70.8242C40.5293 70.6367 40.9297 70.543 41.3906 70.543C42.7812 70.543 43.4883 71.2793 43.5117 72.752V77H42.4277V72.8164C42.4277 72.3633 42.3242 72.0254 42.1172 71.8027C41.9102 71.5762 41.5625 71.4629 41.0742 71.4629C40.6719 71.4629 40.3379 71.584 40.0723 71.8262C39.8066 72.0645 39.6523 72.3867 39.6094 72.793V77H38.5195V72.8457C38.5195 71.9238 38.0684 71.4629 37.166 71.4629C36.4551 71.4629 35.9688 71.7656 35.707 72.3711V77H34.623V70.6602H35.6484ZM50.5195 73.9004C50.5195 74.8691 50.2969 75.6484 49.8516 76.2383C49.4062 76.8242 48.8086 77.1172 48.0586 77.1172C47.2578 77.1172 46.6387 76.834 46.2012 76.2676L46.1484 77H45.1523V68H46.2363V71.3574C46.6738 70.8145 47.2773 70.543 48.0469 70.543C48.8164 70.543 49.4199 70.834 49.8574 71.416C50.2988 71.998 50.5195 72.7949 50.5195 73.8066V73.9004ZM49.4355 73.7773C49.4355 73.0391 49.293 72.4688 49.0078 72.0664C48.7227 71.6641 48.3125 71.4629 47.7773 71.4629C47.0625 71.4629 46.5488 71.7949 46.2363 72.459V75.2012C46.5684 75.8652 47.0859 76.1973 47.7891 76.1973C48.3086 76.1973 48.7129 75.9961 49.002 75.5938C49.291 75.1914 49.4355 74.5859 49.4355 73.7773ZM54.9551 71.6328C54.791 71.6055 54.6133 71.5918 54.4219 71.5918C53.7109 71.5918 53.2285 71.8945 52.9746 72.5V77H51.8906V70.6602H52.9453L52.9629 71.3926C53.3184 70.8262 53.8223 70.543 54.4746 70.543C54.6855 70.543 54.8457 70.5703 54.9551 70.625V71.6328ZM57.1348 77H56.0508V70.6602H57.1348V77ZM55.9629 68.9785C55.9629 68.8027 56.0156 68.6543 56.1211 68.5332C56.2305 68.4121 56.3906 68.3516 56.6016 68.3516C56.8125 68.3516 56.9727 68.4121 57.082 68.5332C57.1914 68.6543 57.2461 68.8027 57.2461 68.9785C57.2461 69.1543 57.1914 69.3008 57.082 69.418C56.9727 69.5352 56.8125 69.5938 56.6016 69.5938C56.3906 69.5938 56.2305 69.5352 56.1211 69.418C56.0156 69.3008 55.9629 69.1543 55.9629 68.9785ZM58.6113 73.7773C58.6113 72.8047 58.8418 72.0234 59.3027 71.4336C59.7637 70.8398 60.3672 70.543 61.1133 70.543C61.8555 70.543 62.4434 70.7969 62.877 71.3047V68H63.9609V77H62.9648L62.9121 76.3203C62.4785 76.8516 61.875 77.1172 61.1016 77.1172C60.3672 77.1172 59.7676 76.8164 59.3027 76.2148C58.8418 75.6133 58.6113 74.8281 58.6113 73.8594V73.7773ZM59.6953 73.9004C59.6953 74.6191 59.8438 75.1816 60.1406 75.5879C60.4375 75.9941 60.8477 76.1973 61.3711 76.1973C62.0586 76.1973 62.5605 75.8887 62.877 75.2715V72.3594C62.5527 71.7617 62.0547 71.4629 61.3828 71.4629C60.8516 71.4629 60.4375 71.668 60.1406 72.0781C59.8438 72.4883 59.6953 73.0957 59.6953 73.9004ZM65.3906 73.7773C65.3906 72.7891 65.6191 72.0039 66.0762 71.4219C66.5332 70.8359 67.1387 70.543 67.8926 70.543C68.666 70.543 69.2695 70.8164 69.7031 71.3633L69.7559 70.6602H70.7461V76.8477C70.7461 77.668 70.502 78.3145 70.0137 78.7871C69.5293 79.2598 68.877 79.4961 68.0566 79.4961C67.5996 79.4961 67.1523 79.3984 66.7148 79.2031C66.2773 79.0078 65.9434 78.7402 65.7129 78.4004L66.2754 77.75C66.7402 78.3242 67.3086 78.6113 67.9805 78.6113C68.5078 78.6113 68.918 78.4629 69.2109 78.166C69.5078 77.8691 69.6562 77.4512 69.6562 76.9121V76.3672C69.2227 76.8672 68.6309 77.1172 67.8809 77.1172C67.1387 77.1172 66.5371 76.8184 66.0762 76.2207C65.6191 75.623 65.3906 74.8086 65.3906 73.7773ZM66.4805 73.9004C66.4805 74.6152 66.627 75.1777 66.9199 75.5879C67.2129 75.9941 67.623 76.1973 68.1504 76.1973C68.834 76.1973 69.3359 75.8867 69.6562 75.2656V72.3711C69.3242 71.7656 68.8262 71.4629 68.1621 71.4629C67.6348 71.4629 67.2227 71.668 66.9258 72.0781C66.6289 72.4883 66.4805 73.0957 66.4805 73.9004ZM75.0176 77.1172C74.1582 77.1172 73.459 76.8359 72.9199 76.2734C72.3809 75.707 72.1113 74.9512 72.1113 74.0059V73.8066C72.1113 73.1777 72.2305 72.6172 72.4688 72.125C72.7109 71.6289 73.0469 71.2422 73.4766 70.9648C73.9102 70.6836 74.3789 70.543 74.8828 70.543C75.707 70.543 76.3477 70.8145 76.8047 71.3574C77.2617 71.9004 77.4902 72.6777 77.4902 73.6895V74.1406H73.1953C73.2109 74.7656 73.3926 75.2715 73.7402 75.6582C74.0918 76.041 74.5371 76.2324 75.0762 76.2324C75.459 76.2324 75.7832 76.1543 76.0488 75.998C76.3145 75.8418 76.5469 75.6348 76.7461 75.377L77.4082 75.8926C76.877 76.709 76.0801 77.1172 75.0176 77.1172ZM74.8828 71.4336C74.4453 71.4336 74.0781 71.5938 73.7812 71.9141C73.4844 72.2305 73.3008 72.6758 73.2305 73.25H76.4062V73.168C76.375 72.6172 76.2266 72.1914 75.9609 71.8906C75.6953 71.5859 75.3359 71.4336 74.8828 71.4336ZM104.051 74.1348H105.234V75.0195H104.051V77H102.961V75.0195H99.0762V74.3809L102.896 68.4688H104.051V74.1348ZM100.307 74.1348H102.961V69.9512L102.832 70.1855L100.307 74.1348ZM201.1 77H195.51V76.2207L198.463 72.9395C198.9 72.4434 199.201 72.041 199.365 71.7324C199.533 71.4199 199.617 71.0977 199.617 70.7656C199.617 70.3203 199.482 69.9551 199.213 69.6699C198.943 69.3848 198.584 69.2422 198.135 69.2422C197.596 69.2422 197.176 69.3965 196.875 69.7051C196.578 70.0098 196.43 70.4355 196.43 70.9824H195.346C195.346 70.1973 195.598 69.5625 196.102 69.0781C196.609 68.5938 197.287 68.3516 198.135 68.3516C198.928 68.3516 199.555 68.5605 200.016 68.9785C200.477 69.3926 200.707 69.9453 200.707 70.6367C200.707 71.4766 200.172 72.4766 199.102 73.6367L196.816 76.1152H201.1V77ZM289.846 68.4629V69.3828H289.646C288.803 69.3984 288.131 69.6484 287.631 70.1328C287.131 70.6172 286.842 71.2988 286.764 72.1777C287.213 71.6621 287.826 71.4043 288.604 71.4043C289.346 71.4043 289.938 71.666 290.379 72.1895C290.824 72.7129 291.047 73.3887 291.047 74.2168C291.047 75.0957 290.807 75.7988 290.326 76.3262C289.85 76.8535 289.209 77.1172 288.404 77.1172C287.588 77.1172 286.926 76.8047 286.418 76.1797C285.91 75.5508 285.656 74.7422 285.656 73.7539V73.3379C285.656 71.7676 285.99 70.5684 286.658 69.7402C287.33 68.9082 288.328 68.4824 289.652 68.4629H289.846ZM288.422 72.3066C288.051 72.3066 287.709 72.418 287.396 72.6406C287.084 72.8633 286.867 73.1426 286.746 73.4785V73.877C286.746 74.5801 286.904 75.1465 287.221 75.5762C287.537 76.0059 287.932 76.2207 288.404 76.2207C288.893 76.2207 289.275 76.041 289.553 75.6816C289.834 75.3223 289.975 74.8516 289.975 74.2695C289.975 73.6836 289.832 73.2109 289.547 72.8516C289.266 72.4883 288.891 72.3066 288.422 72.3066ZM358.4 77H357.311V69.7754L355.125 70.5781V69.5938L358.23 68.4277H358.4V77ZM363.152 72.207H363.967C364.479 72.1992 364.881 72.0645 365.174 71.8027C365.467 71.541 365.613 71.1875 365.613 70.7422C365.613 69.7422 365.115 69.2422 364.119 69.2422C363.65 69.2422 363.275 69.377 362.994 69.6465C362.717 69.9121 362.578 70.2656 362.578 70.707H361.494C361.494 70.0312 361.74 69.4707 362.232 69.0254C362.729 68.5762 363.357 68.3516 364.119 68.3516C364.924 68.3516 365.555 68.5645 366.012 68.9902C366.469 69.416 366.697 70.0078 366.697 70.7656C366.697 71.1367 366.576 71.4961 366.334 71.8438C366.096 72.1914 365.77 72.4512 365.355 72.623C365.824 72.7715 366.186 73.0176 366.439 73.3613C366.697 73.7051 366.826 74.125 366.826 74.6211C366.826 75.3867 366.576 75.9941 366.076 76.4434C365.576 76.8926 364.926 77.1172 364.125 77.1172C363.324 77.1172 362.672 76.9004 362.168 76.4668C361.668 76.0332 361.418 75.4609 361.418 74.75H362.508C362.508 75.1992 362.654 75.5586 362.947 75.8281C363.24 76.0977 363.633 76.2324 364.125 76.2324C364.648 76.2324 365.049 76.0957 365.326 75.8223C365.604 75.5488 365.742 75.1562 365.742 74.6445C365.742 74.1484 365.59 73.7676 365.285 73.502C364.98 73.2363 364.541 73.0996 363.967 73.0918H363.152V72.207ZM417.539 74.1348H418.723V75.0195H417.539V77H416.449V75.0195H412.564V74.3809L416.385 68.4688H417.539V74.1348ZM413.795 74.1348H416.449V69.9512L416.32 70.1855L413.795 74.1348ZM424.875 70.6953C424.875 71.1211 424.762 71.5 424.535 71.832C424.312 72.1641 424.01 72.4238 423.627 72.6113C424.072 72.8027 424.424 73.082 424.682 73.4492C424.943 73.8164 425.074 74.2324 425.074 74.6973C425.074 75.4355 424.824 76.0234 424.324 76.4609C423.828 76.8984 423.174 77.1172 422.361 77.1172C421.541 77.1172 420.883 76.8984 420.387 76.4609C419.895 76.0195 419.648 75.4316 419.648 74.6973C419.648 74.2363 419.773 73.8203 420.023 73.4492C420.277 73.0781 420.627 72.7969 421.072 72.6055C420.693 72.418 420.395 72.1582 420.176 71.8262C419.957 71.4941 419.848 71.1172 419.848 70.6953C419.848 69.9766 420.078 69.4062 420.539 68.9844C421 68.5625 421.607 68.3516 422.361 68.3516C423.111 68.3516 423.717 68.5625 424.178 68.9844C424.643 69.4062 424.875 69.9766 424.875 70.6953ZM423.99 74.6738C423.99 74.1973 423.838 73.8086 423.533 73.5078C423.232 73.207 422.838 73.0566 422.35 73.0566C421.861 73.0566 421.469 73.2051 421.172 73.502C420.879 73.7988 420.732 74.1895 420.732 74.6738C420.732 75.1582 420.875 75.5391 421.16 75.8164C421.449 76.0938 421.85 76.2324 422.361 76.2324C422.869 76.2324 423.268 76.0938 423.557 75.8164C423.846 75.5352 423.99 75.1543 423.99 74.6738ZM422.361 69.2422C421.936 69.2422 421.59 69.375 421.324 69.6406C421.062 69.9023 420.932 70.2598 420.932 70.7129C420.932 71.1465 421.061 71.498 421.318 71.7676C421.58 72.0332 421.928 72.166 422.361 72.166C422.795 72.166 423.141 72.0332 423.398 71.7676C423.66 71.498 423.791 71.1465 423.791 70.7129C423.791 70.2793 423.656 69.9258 423.387 69.6523C423.117 69.3789 422.775 69.2422 422.361 69.2422ZM21.5332 87.7715C21.5332 87.1504 21.6543 86.5918 21.8965 86.0957C22.1426 85.5996 22.4824 85.2168 22.916 84.9473C23.3535 84.6777 23.8516 84.543 24.4102 84.543C25.2734 84.543 25.9707 84.8418 26.502 85.4395C27.0371 86.0371 27.3047 86.832 27.3047 87.8242V87.9004C27.3047 88.5176 27.1855 89.0723 26.9473 89.5645C26.7129 90.0527 26.375 90.4336 25.9336 90.707C25.4961 90.9805 24.9922 91.1172 24.4219 91.1172C23.5625 91.1172 22.8652 90.8184 22.3301 90.2207C21.7988 89.623 21.5332 88.832 21.5332 87.8477V87.7715ZM22.623 87.9004C22.623 88.6035 22.7852 89.168 23.1094 89.5938C23.4375 90.0195 23.875 90.2324 24.4219 90.2324C24.9727 90.2324 25.4102 90.0176 25.7344 89.5879C26.0586 89.1543 26.2207 88.5488 26.2207 87.7715C26.2207 87.0762 26.0547 86.5137 25.7227 86.084C25.3945 85.6504 24.957 85.4336 24.4102 85.4336C23.875 85.4336 23.4434 85.6465 23.1152 86.0723C22.7871 86.498 22.623 87.1074 22.623 87.9004ZM30.6621 86.9746L32.0684 84.6602H33.334L31.2598 87.7949L33.3984 91H32.1445L30.6797 88.627L29.2148 91H27.9551L30.0938 87.7949L28.0195 84.6602H29.2734L30.6621 86.9746ZM35.0215 91V85.498H34.0195V84.6602H35.0215V84.0098C35.0215 83.3301 35.2031 82.8047 35.5664 82.4336C35.9297 82.0625 36.4434 81.877 37.1074 81.877C37.3574 81.877 37.6055 81.9102 37.8516 81.9766L37.793 82.8555C37.6094 82.8203 37.4141 82.8027 37.207 82.8027C36.8555 82.8027 36.584 82.9062 36.3926 83.1133C36.2012 83.3164 36.1055 83.6094 36.1055 83.9922V84.6602H37.459V85.498H36.1055V91H35.0215ZM38.373 87.7715C38.373 87.1504 38.4941 86.5918 38.7363 86.0957C38.9824 85.5996 39.3223 85.2168 39.7559 84.9473C40.1934 84.6777 40.6914 84.543 41.25 84.543C42.1133 84.543 42.8105 84.8418 43.3418 85.4395C43.877 86.0371 44.1445 86.832 44.1445 87.8242V87.9004C44.1445 88.5176 44.0254 89.0723 43.7871 89.5645C43.5527 90.0527 43.2148 90.4336 42.7734 90.707C42.3359 90.9805 41.832 91.1172 41.2617 91.1172C40.4023 91.1172 39.7051 90.8184 39.1699 90.2207C38.6387 89.623 38.373 88.832 38.373 87.8477V87.7715ZM39.4629 87.9004C39.4629 88.6035 39.625 89.168 39.9492 89.5938C40.2773 90.0195 40.7148 90.2324 41.2617 90.2324C41.8125 90.2324 42.25 90.0176 42.5742 89.5879C42.8984 89.1543 43.0605 88.5488 43.0605 87.7715C43.0605 87.0762 42.8945 86.5137 42.5625 86.084C42.2344 85.6504 41.7969 85.4336 41.25 85.4336C40.7148 85.4336 40.2832 85.6465 39.9551 86.0723C39.627 86.498 39.4629 87.1074 39.4629 87.9004ZM48.5684 85.6328C48.4043 85.6055 48.2266 85.5918 48.0352 85.5918C47.3242 85.5918 46.8418 85.8945 46.5879 86.5V91H45.5039V84.6602H46.5586L46.5762 85.3926C46.9316 84.8262 47.4355 84.543 48.0879 84.543C48.2988 84.543 48.459 84.5703 48.5684 84.625V85.6328ZM49.1895 87.7773C49.1895 86.8047 49.4199 86.0234 49.8809 85.4336C50.3418 84.8398 50.9453 84.543 51.6914 84.543C52.4336 84.543 53.0215 84.7969 53.4551 85.3047V82H54.5391V91H53.543L53.4902 90.3203C53.0566 90.8516 52.4531 91.1172 51.6797 91.1172C50.9453 91.1172 50.3457 90.8164 49.8809 90.2148C49.4199 89.6133 49.1895 88.8281 49.1895 87.8594V87.7773ZM50.2734 87.9004C50.2734 88.6191 50.4219 89.1816 50.7188 89.5879C51.0156 89.9941 51.4258 90.1973 51.9492 90.1973C52.6367 90.1973 53.1387 89.8887 53.4551 89.2715V86.3594C53.1309 85.7617 52.6328 85.4629 51.9609 85.4629C51.4297 85.4629 51.0156 85.668 50.7188 86.0781C50.4219 86.4883 50.2734 87.0957 50.2734 87.9004ZM98.2852 86.7227L98.7188 82.4688H103.09V83.4707H99.6387L99.3809 85.7969C99.7988 85.5508 100.273 85.4277 100.805 85.4277C101.582 85.4277 102.199 85.6855 102.656 86.2012C103.113 86.7129 103.342 87.4062 103.342 88.2812C103.342 89.1602 103.104 89.8535 102.627 90.3613C102.154 90.8652 101.492 91.1172 100.641 91.1172C99.8867 91.1172 99.2715 90.9082 98.7949 90.4902C98.3184 90.0723 98.0469 89.4941 97.9805 88.7559H99.0059C99.0723 89.2441 99.2461 89.6133 99.5273 89.8633C99.8086 90.1094 100.18 90.2324 100.641 90.2324C101.145 90.2324 101.539 90.0605 101.824 89.7168C102.113 89.373 102.258 88.8984 102.258 88.293C102.258 87.7227 102.102 87.2656 101.789 86.9219C101.48 86.5742 101.068 86.4004 100.553 86.4004C100.08 86.4004 99.709 86.5039 99.4395 86.7109L99.1523 86.9453L98.2852 86.7227ZM199.33 83.0781L195.797 91H194.66L198.182 83.3594H193.564V82.4688H199.33V83.0781ZM287.467 91H286.377V83.7754L284.191 84.5781V83.5938L287.297 82.4277H287.467V91ZM296.232 91H290.643V90.2207L293.596 86.9395C294.033 86.4434 294.334 86.041 294.498 85.7324C294.666 85.4199 294.75 85.0977 294.75 84.7656C294.75 84.3203 294.615 83.9551 294.346 83.6699C294.076 83.3848 293.717 83.2422 293.268 83.2422C292.729 83.2422 292.309 83.3965 292.008 83.7051C291.711 84.0098 291.562 84.4355 291.562 84.9824H290.479C290.479 84.1973 290.73 83.5625 291.234 83.0781C291.742 82.5938 292.42 82.3516 293.268 82.3516C294.061 82.3516 294.688 82.5605 295.148 82.9785C295.609 83.3926 295.84 83.9453 295.84 84.6367C295.84 85.4766 295.305 86.4766 294.234 87.6367L291.949 90.1152H296.232V91ZM361.066 87.25C360.84 87.5195 360.568 87.7363 360.252 87.9004C359.939 88.0645 359.596 88.1465 359.221 88.1465C358.729 88.1465 358.299 88.0254 357.932 87.7832C357.568 87.541 357.287 87.2012 357.088 86.7637C356.889 86.3223 356.789 85.8359 356.789 85.3047C356.789 84.7344 356.896 84.2207 357.111 83.7637C357.33 83.3066 357.639 82.957 358.037 82.7148C358.436 82.4727 358.9 82.3516 359.432 82.3516C360.275 82.3516 360.939 82.668 361.424 83.3008C361.912 83.9297 362.156 84.7891 362.156 85.8789V86.1953C362.156 87.8555 361.828 89.0684 361.172 89.834C360.516 90.5957 359.525 90.9863 358.201 91.0059H357.99V90.0918H358.219C359.113 90.0762 359.801 89.8438 360.281 89.3945C360.762 88.9414 361.023 88.2266 361.066 87.25ZM359.396 87.25C359.76 87.25 360.094 87.1387 360.398 86.916C360.707 86.6934 360.932 86.418 361.072 86.0898V85.6562C361.072 84.9453 360.918 84.3672 360.609 83.9219C360.301 83.4766 359.91 83.2539 359.438 83.2539C358.961 83.2539 358.578 83.4375 358.289 83.8047C358 84.168 357.855 84.6484 357.855 85.2461C357.855 85.8281 357.994 86.3086 358.271 86.6875C358.553 87.0625 358.928 87.25 359.396 87.25ZM414.838 91H413.748V83.7754L411.562 84.5781V83.5938L414.668 82.4277H414.838V91ZM418.512 86.7227L418.945 82.4688H423.316V83.4707H419.865L419.607 85.7969C420.025 85.5508 420.5 85.4277 421.031 85.4277C421.809 85.4277 422.426 85.6855 422.883 86.2012C423.34 86.7129 423.568 87.4062 423.568 88.2812C423.568 89.1602 423.33 89.8535 422.854 90.3613C422.381 90.8652 421.719 91.1172 420.867 91.1172C420.113 91.1172 419.498 90.9082 419.021 90.4902C418.545 90.0723 418.273 89.4941 418.207 88.7559H419.232C419.299 89.2441 419.473 89.6133 419.754 89.8633C420.035 90.1094 420.406 90.2324 420.867 90.2324C421.371 90.2324 421.766 90.0605 422.051 89.7168C422.34 89.373 422.484 88.8984 422.484 88.293C422.484 87.7227 422.328 87.2656 422.016 86.9219C421.707 86.5742 421.295 86.4004 420.779 86.4004C420.307 86.4004 419.936 86.5039 419.666 86.7109L419.379 86.9453L418.512 86.7227ZM24.3633 104.232C24.75 104.232 25.0879 104.115 25.377 103.881C25.666 103.646 25.8262 103.354 25.8574 103.002H26.8828C26.8633 103.365 26.7383 103.711 26.5078 104.039C26.2773 104.367 25.9688 104.629 25.582 104.824C25.1992 105.02 24.793 105.117 24.3633 105.117C23.5 105.117 22.8125 104.83 22.3008 104.256C21.793 103.678 21.5391 102.889 21.5391 101.889V101.707C21.5391 101.09 21.6523 100.541 21.8789 100.061C22.1055 99.5801 22.4297 99.207 22.8516 98.9414C23.2773 98.6758 23.7793 98.543 24.3574 98.543C25.0684 98.543 25.6582 98.7559 26.127 99.1816C26.5996 99.6074 26.8516 100.16 26.8828 100.84H25.8574C25.8262 100.43 25.6699 100.094 25.3887 99.832C25.1113 99.5664 24.7676 99.4336 24.3574 99.4336C23.8066 99.4336 23.3789 99.6328 23.0742 100.031C22.7734 100.426 22.623 100.998 22.623 101.748V101.953C22.623 102.684 22.7734 103.246 23.0742 103.641C23.375 104.035 23.8047 104.232 24.3633 104.232ZM27.8145 101.771C27.8145 101.15 27.9355 100.592 28.1777 100.096C28.4238 99.5996 28.7637 99.2168 29.1973 98.9473C29.6348 98.6777 30.1328 98.543 30.6914 98.543C31.5547 98.543 32.252 98.8418 32.7832 99.4395C33.3184 100.037 33.5859 100.832 33.5859 101.824V101.9C33.5859 102.518 33.4668 103.072 33.2285 103.564C32.9941 104.053 32.6562 104.434 32.2148 104.707C31.7773 104.98 31.2734 105.117 30.7031 105.117C29.8438 105.117 29.1465 104.818 28.6113 104.221C28.0801 103.623 27.8145 102.832 27.8145 101.848V101.771ZM28.9043 101.9C28.9043 102.604 29.0664 103.168 29.3906 103.594C29.7188 104.02 30.1562 104.232 30.7031 104.232C31.2539 104.232 31.6914 104.018 32.0156 103.588C32.3398 103.154 32.502 102.549 32.502 101.771C32.502 101.076 32.3359 100.514 32.0039 100.084C31.6758 99.6504 31.2383 99.4336 30.6914 99.4336C30.1562 99.4336 29.7246 99.6465 29.3965 100.072C29.0684 100.498 28.9043 101.107 28.9043 101.9ZM36.123 105H35.0391V96H36.123V105ZM41.7773 104.373C41.3555 104.869 40.7363 105.117 39.9199 105.117C39.2441 105.117 38.7285 104.922 38.373 104.531C38.0215 104.137 37.8438 103.555 37.8398 102.785V98.6602H38.9238V102.756C38.9238 103.717 39.3145 104.197 40.0957 104.197C40.9238 104.197 41.4746 103.889 41.748 103.271V98.6602H42.832V105H41.8008L41.7773 104.373ZM45.5039 98.6602L45.5332 99.3633C45.998 98.8164 46.625 98.543 47.4141 98.543C48.3008 98.543 48.9043 98.8828 49.2246 99.5625C49.4355 99.2578 49.709 99.0117 50.0449 98.8242C50.3848 98.6367 50.7852 98.543 51.2461 98.543C52.6367 98.543 53.3438 99.2793 53.3672 100.752V105H52.2832V100.816C52.2832 100.363 52.1797 100.025 51.9727 99.8027C51.7656 99.5762 51.418 99.4629 50.9297 99.4629C50.5273 99.4629 50.1934 99.584 49.9277 99.8262C49.6621 100.064 49.5078 100.387 49.4648 100.793V105H48.375V100.846C48.375 99.9238 47.9238 99.4629 47.0215 99.4629C46.3105 99.4629 45.8242 99.7656 45.5625 100.371V105H44.4785V98.6602H45.5039ZM60.375 101.9C60.375 102.869 60.1523 103.648 59.707 104.238C59.2617 104.824 58.6641 105.117 57.9141 105.117C57.1133 105.117 56.4941 104.834 56.0566 104.268L56.0039 105H55.0078V96H56.0918V99.3574C56.5293 98.8145 57.1328 98.543 57.9023 98.543C58.6719 98.543 59.2754 98.834 59.7129 99.416C60.1543 99.998 60.375 100.795 60.375 101.807V101.9ZM59.291 101.777C59.291 101.039 59.1484 100.469 58.8633 100.066C58.5781 99.6641 58.168 99.4629 57.6328 99.4629C56.918 99.4629 56.4043 99.7949 56.0918 100.459V103.201C56.4238 103.865 56.9414 104.197 57.6445 104.197C58.1641 104.197 58.5684 103.996 58.8574 103.594C59.1465 103.191 59.291 102.586 59.291 101.777ZM62.9238 105H61.8398V98.6602H62.9238V105ZM61.752 96.9785C61.752 96.8027 61.8047 96.6543 61.9102 96.5332C62.0195 96.4121 62.1797 96.3516 62.3906 96.3516C62.6016 96.3516 62.7617 96.4121 62.8711 96.5332C62.9805 96.6543 63.0352 96.8027 63.0352 96.9785C63.0352 97.1543 62.9805 97.3008 62.8711 97.418C62.7617 97.5352 62.6016 97.5938 62.3906 97.5938C62.1797 97.5938 62.0195 97.5352 61.9102 97.418C61.8047 97.3008 61.752 97.1543 61.752 96.9785ZM68.5781 105C68.5156 104.875 68.4648 104.652 68.4258 104.332C67.9219 104.855 67.3203 105.117 66.6211 105.117C65.9961 105.117 65.4824 104.941 65.0801 104.59C64.6816 104.234 64.4824 103.785 64.4824 103.242C64.4824 102.582 64.7324 102.07 65.2324 101.707C65.7363 101.34 66.4434 101.156 67.3535 101.156H68.4082V100.658C68.4082 100.279 68.2949 99.9785 68.0684 99.7559C67.8418 99.5293 67.5078 99.416 67.0664 99.416C66.6797 99.416 66.3555 99.5137 66.0938 99.709C65.832 99.9043 65.7012 100.141 65.7012 100.418H64.6113C64.6113 100.102 64.7227 99.7969 64.9453 99.5039C65.1719 99.207 65.4766 98.9727 65.8594 98.8008C66.2461 98.6289 66.6699 98.543 67.1309 98.543C67.8613 98.543 68.4336 98.7266 68.8477 99.0938C69.2617 99.457 69.4766 99.959 69.4922 100.6V103.518C69.4922 104.1 69.5664 104.562 69.7148 104.906V105H68.5781ZM66.7793 104.174C67.1191 104.174 67.4414 104.086 67.7461 103.91C68.0508 103.734 68.2715 103.506 68.4082 103.225V101.924H67.5586C66.2305 101.924 65.5664 102.312 65.5664 103.09C65.5664 103.43 65.6797 103.695 65.9062 103.887C66.1328 104.078 66.4238 104.174 66.7793 104.174ZM102.123 96.4629V97.3828H101.924C101.08 97.3984 100.408 97.6484 99.9082 98.1328C99.4082 98.6172 99.1191 99.2988 99.041 100.178C99.4902 99.6621 100.104 99.4043 100.881 99.4043C101.623 99.4043 102.215 99.666 102.656 100.189C103.102 100.713 103.324 101.389 103.324 102.217C103.324 103.096 103.084 103.799 102.604 104.326C102.127 104.854 101.486 105.117 100.682 105.117C99.8652 105.117 99.2031 104.805 98.6953 104.18C98.1875 103.551 97.9336 102.742 97.9336 101.754V101.338C97.9336 99.7676 98.2676 98.5684 98.9355 97.7402C99.6074 96.9082 100.605 96.4824 101.93 96.4629H102.123ZM100.699 100.307C100.328 100.307 99.9863 100.418 99.6738 100.641C99.3613 100.863 99.1445 101.143 99.0234 101.479V101.877C99.0234 102.58 99.1816 103.146 99.498 103.576C99.8145 104.006 100.209 104.221 100.682 104.221C101.17 104.221 101.553 104.041 101.83 103.682C102.111 103.322 102.252 102.852 102.252 102.27C102.252 101.684 102.109 101.211 101.824 100.852C101.543 100.488 101.168 100.307 100.699 100.307ZM197.467 105H196.377V97.7754L194.191 98.5781V97.5938L197.297 96.4277H197.467V105ZM202.219 100.207H203.033C203.545 100.199 203.947 100.064 204.24 99.8027C204.533 99.541 204.68 99.1875 204.68 98.7422C204.68 97.7422 204.182 97.2422 203.186 97.2422C202.717 97.2422 202.342 97.377 202.061 97.6465C201.783 97.9121 201.645 98.2656 201.645 98.707H200.561C200.561 98.0312 200.807 97.4707 201.299 97.0254C201.795 96.5762 202.424 96.3516 203.186 96.3516C203.99 96.3516 204.621 96.5645 205.078 96.9902C205.535 97.416 205.764 98.0078 205.764 98.7656C205.764 99.1367 205.643 99.4961 205.4 99.8438C205.162 100.191 204.836 100.451 204.422 100.623C204.891 100.771 205.252 101.018 205.506 101.361C205.764 101.705 205.893 102.125 205.893 102.621C205.893 103.387 205.643 103.994 205.143 104.443C204.643 104.893 203.992 105.117 203.191 105.117C202.391 105.117 201.738 104.9 201.234 104.467C200.734 104.033 200.484 103.461 200.484 102.75H201.574C201.574 103.199 201.721 103.559 202.014 103.828C202.307 104.098 202.699 104.232 203.191 104.232C203.715 104.232 204.115 104.096 204.393 103.822C204.67 103.549 204.809 103.156 204.809 102.645C204.809 102.148 204.656 101.768 204.352 101.502C204.047 101.236 203.607 101.1 203.033 101.092H202.219V100.207ZM288.756 105H287.062V98.4727L285.041 99.0996V97.7227L288.574 96.457H288.756V105ZM364.377 105H362.684V98.4727L360.662 99.0996V97.7227L364.195 96.457H364.377V105ZM422.068 105H420.375V98.4727L418.354 99.0996V97.7227L421.887 96.457H422.068V105Z" fill="black"/>
<rect opacity="0.4" x="8" y="25" width="433" height="13" fill="#F2994A"/>
<rect opacity="0.4" x="256" y="5" width="54" height="107" fill="#F2994A"/>
<rect opacity="0.4" x="311" y="5" width="77" height="107" fill="#F2994A"/>
<rect opacity="0.4" x="389" y="6" width="47" height="107" fill="#F2994A"/>
<rect opacity="0.4" x="8" y="39" width="433" height="13" fill="#F2994A"/>
<rect opacity="0.4" x="8" y="53" width="433" height="13" fill="#F2994A"/>
<rect opacity="0.4" x="8" y="95" width="433" height="13" fill="#F2994A"/>
</svg>
