<svg width="1021" height="269" viewBox="0 0 1021 269" fill="none" xmlns="http://www.w3.org/2000/svg">
<rect width="1021" height="269" fill="white"/>
<path d="M28.0938 37H25.832L17.2422 23.8516V37H14.9805V19.9375H17.2422L25.8555 33.1445V19.9375H28.0938V37ZM45.2148 29.0195C45.2148 30.6914 44.9336 32.1523 44.3711 33.4023C43.8086 34.6445 43.0117 35.5938 41.9805 36.25C40.9492 36.9062 39.7461 37.2344 38.3711 37.2344C37.0273 37.2344 35.8359 36.9062 34.7969 36.25C33.7578 35.5859 32.9492 34.6445 32.3711 33.4258C31.8008 32.1992 31.5078 30.7812 31.4922 29.1719V27.9414C31.4922 26.3008 31.7773 24.8516 32.3477 23.5938C32.918 22.3359 33.7227 21.375 34.7617 20.7109C35.8086 20.0391 37.0039 19.7031 38.3477 19.7031C39.7148 19.7031 40.918 20.0352 41.957 20.6992C43.0039 21.3555 43.8086 22.3125 44.3711 23.5703C44.9336 24.8203 45.2148 26.2773 45.2148 27.9414V29.0195ZM42.9766 27.918C42.9766 25.8945 42.5703 24.3438 41.7578 23.2656C40.9453 22.1797 39.8086 21.6367 38.3477 21.6367C36.9258 21.6367 35.8047 22.1797 34.9844 23.2656C34.1719 24.3438 33.7539 25.8438 33.7305 27.7656V29.0195C33.7305 30.9805 34.1406 32.5234 34.9609 33.6484C35.7891 34.7656 36.9258 35.3242 38.3711 35.3242C39.8242 35.3242 40.9492 34.7969 41.7461 33.7422C42.543 32.6797 42.9531 31.1602 42.9766 29.1836V27.918ZM60.0508 21.7891H54.5664V37H52.3281V21.7891H46.8555V19.9375H60.0508V21.7891Z" fill="black"/>
<rect x="13" y="6" width="236" height="9" fill="#BDBDBD"/>
<rect x="9" y="59" width="95" height="39" fill="#C4C4C4" fill-opacity="0.3"/>
<rect x="9" y="112" width="95" height="39" fill="#C4C4C4" fill-opacity="0.3"/>
<rect x="181" y="60" width="79" height="39" fill="#C4C4C4" fill-opacity="0.3"/>
<rect x="181" y="113" width="79" height="39" fill="#C4C4C4" fill-opacity="0.3"/>
<path d="M24.0273 81.5977H20.8281L20.3242 69.9375H24.5312L24.0273 81.5977ZM20.207 85.2305C20.207 84.6523 20.4141 84.1797 20.8281 83.8125C21.25 83.4375 21.7734 83.25 22.3984 83.25C23.0234 83.25 23.543 83.4375 23.957 83.8125C24.3789 84.1797 24.5898 84.6523 24.5898 85.2305C24.5898 85.8086 24.3789 86.2852 23.957 86.6602C23.543 87.0273 23.0234 87.2109 22.3984 87.2109C21.7734 87.2109 21.25 87.0273 20.8281 86.6602C20.4141 86.2852 20.207 85.8086 20.207 85.2305Z" fill="#9B51E0"/>
<path d="M119.5 83.8242L122.453 74.3203H124.773L119.676 88.957C118.887 91.0664 117.633 92.1211 115.914 92.1211L115.504 92.0859L114.695 91.9336V90.1758L115.281 90.2227C116.016 90.2227 116.586 90.0742 116.992 89.7773C117.406 89.4805 117.746 88.9375 118.012 88.1484L118.492 86.8594L113.969 74.3203H116.336L119.5 83.8242ZM129.074 87H126.906V74.3203H129.074V87ZM126.73 70.957C126.73 70.6055 126.836 70.3086 127.047 70.0664C127.266 69.8242 127.586 69.7031 128.008 69.7031C128.43 69.7031 128.75 69.8242 128.969 70.0664C129.188 70.3086 129.297 70.6055 129.297 70.957C129.297 71.3086 129.188 71.6016 128.969 71.8359C128.75 72.0703 128.43 72.1875 128.008 72.1875C127.586 72.1875 127.266 72.0703 127.047 71.8359C126.836 71.6016 126.73 71.3086 126.73 70.957ZM137.816 87.2344C136.098 87.2344 134.699 86.6719 133.621 85.5469C132.543 84.4141 132.004 82.9023 132.004 81.0117V80.6133C132.004 79.3555 132.242 78.2344 132.719 77.25C133.203 76.2578 133.875 75.4844 134.734 74.9297C135.602 74.3672 136.539 74.0859 137.547 74.0859C139.195 74.0859 140.477 74.6289 141.391 75.7148C142.305 76.8008 142.762 78.3555 142.762 80.3789V81.2812H134.172C134.203 82.5312 134.566 83.543 135.262 84.3164C135.965 85.082 136.855 85.4648 137.934 85.4648C138.699 85.4648 139.348 85.3086 139.879 84.9961C140.41 84.6836 140.875 84.2695 141.273 83.7539L142.598 84.7852C141.535 86.418 139.941 87.2344 137.816 87.2344ZM137.547 75.8672C136.672 75.8672 135.938 76.1875 135.344 76.8281C134.75 77.4609 134.383 78.3516 134.242 79.5H140.594V79.3359C140.531 78.2344 140.234 77.3828 139.703 76.7812C139.172 76.1719 138.453 75.8672 137.547 75.8672ZM147.637 87H145.469V69H147.637V87ZM150.59 80.5547C150.59 78.6094 151.051 77.0469 151.973 75.8672C152.895 74.6797 154.102 74.0859 155.594 74.0859C157.078 74.0859 158.254 74.5938 159.121 75.6094V69H161.289V87H159.297L159.191 85.6406C158.324 86.7031 157.117 87.2344 155.57 87.2344C154.102 87.2344 152.902 86.6328 151.973 85.4297C151.051 84.2266 150.59 82.6562 150.59 80.7188V80.5547ZM152.758 80.8008C152.758 82.2383 153.055 83.3633 153.648 84.1758C154.242 84.9883 155.062 85.3945 156.109 85.3945C157.484 85.3945 158.488 84.7773 159.121 83.543V77.7188C158.473 76.5234 157.477 75.9258 156.133 75.9258C155.07 75.9258 154.242 76.3359 153.648 77.1562C153.055 77.9766 152.758 79.1914 152.758 80.8008ZM172.047 83.6367C172.047 83.0508 171.824 82.5977 171.379 82.2773C170.941 81.9492 170.172 81.668 169.07 81.4336C167.977 81.1992 167.105 80.918 166.457 80.5898C165.816 80.2617 165.34 79.8711 165.027 79.418C164.723 78.9648 164.57 78.4258 164.57 77.8008C164.57 76.7617 165.008 75.8828 165.883 75.1641C166.766 74.4453 167.891 74.0859 169.258 74.0859C170.695 74.0859 171.859 74.457 172.75 75.1992C173.648 75.9414 174.098 76.8906 174.098 78.0469H171.918C171.918 77.4531 171.664 76.9414 171.156 76.5117C170.656 76.082 170.023 75.8672 169.258 75.8672C168.469 75.8672 167.852 76.0391 167.406 76.3828C166.961 76.7266 166.738 77.1758 166.738 77.7305C166.738 78.2539 166.945 78.6484 167.359 78.9141C167.773 79.1797 168.52 79.4336 169.598 79.6758C170.684 79.918 171.562 80.207 172.234 80.543C172.906 80.8789 173.402 81.2852 173.723 81.7617C174.051 82.2305 174.215 82.8047 174.215 83.4844C174.215 84.6172 173.762 85.5273 172.855 86.2148C171.949 86.8945 170.773 87.2344 169.328 87.2344C168.312 87.2344 167.414 87.0547 166.633 86.6953C165.852 86.3359 165.238 85.8359 164.793 85.1953C164.355 84.5469 164.137 83.8477 164.137 83.0977H166.305C166.344 83.8242 166.633 84.4023 167.172 84.832C167.719 85.2539 168.438 85.4648 169.328 85.4648C170.148 85.4648 170.805 85.3008 171.297 84.9727C171.797 84.6367 172.047 84.1914 172.047 83.6367Z" fill="black"/>
<path d="M45.3555 71.7891H39.8711V87H37.6328V71.7891H32.1602V69.9375H45.3555V71.7891ZM54.1445 80.0977H50.1367V87H47.875V69.9375H53.5234C55.4453 69.9375 56.9219 70.375 57.9531 71.25C58.9922 72.125 59.5117 73.3984 59.5117 75.0703C59.5117 76.1328 59.2227 77.0586 58.6445 77.8477C58.0742 78.6367 57.2773 79.2266 56.2539 79.6172L60.2617 86.8594V87H57.8477L54.1445 80.0977ZM50.1367 78.2578H53.5938C54.7109 78.2578 55.5977 77.9688 56.2539 77.3906C56.918 76.8125 57.25 76.0391 57.25 75.0703C57.25 74.0156 56.9336 73.207 56.3008 72.6445C55.6758 72.082 54.7695 71.7969 53.582 71.7891H50.1367V78.2578ZM74.6875 69.9375V81.5391C74.6797 83.1484 74.1719 84.4648 73.1641 85.4883C72.1641 86.5117 70.8047 87.0859 69.0859 87.2109L68.4883 87.2344C66.6211 87.2344 65.1328 86.7305 64.0234 85.7227C62.9141 84.7148 62.3516 83.3281 62.3359 81.5625V69.9375H64.5625V81.4922C64.5625 82.7266 64.9023 83.6875 65.582 84.375C66.2617 85.0547 67.2305 85.3945 68.4883 85.3945C69.7617 85.3945 70.7344 85.0547 71.4062 84.375C72.0859 83.6953 72.4258 82.7383 72.4258 81.5039V69.9375H74.6875ZM87.8828 79.1133H80.4883V85.1602H89.0781V87H78.2383V69.9375H88.9609V71.7891H80.4883V77.2734H87.8828V79.1133Z" fill="#219653"/>
<path d="M198.695 79.4648H191.535V87H189.285V69.9375H199.855V71.7891H191.535V77.625H198.695V79.4648ZM209.98 82.5469H202.832L201.227 87H198.906L205.422 69.9375H207.391L213.918 87H211.609L209.98 82.5469ZM203.512 80.6953H209.312L206.406 72.7148L203.512 80.6953ZM218.477 85.1602H226.562V87H216.215V69.9375H218.477V85.1602ZM234.156 79.3945C232.227 78.8398 230.82 78.1602 229.938 77.3555C229.062 76.543 228.625 75.543 228.625 74.3555C228.625 73.0117 229.16 71.9023 230.23 71.0273C231.309 70.1445 232.707 69.7031 234.426 69.7031C235.598 69.7031 236.641 69.9297 237.555 70.3828C238.477 70.8359 239.188 71.4609 239.688 72.2578C240.195 73.0547 240.449 73.9258 240.449 74.8711H238.188C238.188 73.8398 237.859 73.0312 237.203 72.4453C236.547 71.8516 235.621 71.5547 234.426 71.5547C233.316 71.5547 232.449 71.8008 231.824 72.293C231.207 72.7773 230.898 73.4531 230.898 74.3203C230.898 75.0156 231.191 75.6055 231.777 76.0898C232.371 76.5664 233.375 77.0039 234.789 77.4023C236.211 77.8008 237.32 78.2422 238.117 78.7266C238.922 79.2031 239.516 79.7617 239.898 80.4023C240.289 81.043 240.484 81.7969 240.484 82.6641C240.484 84.0469 239.945 85.1562 238.867 85.9922C237.789 86.8203 236.348 87.2344 234.543 87.2344C233.371 87.2344 232.277 87.0117 231.262 86.5664C230.246 86.1133 229.461 85.4961 228.906 84.7148C228.359 83.9336 228.086 83.0469 228.086 82.0547H230.348C230.348 83.0859 230.727 83.9023 231.484 84.5039C232.25 85.0977 233.27 85.3945 234.543 85.3945C235.73 85.3945 236.641 85.1523 237.273 84.668C237.906 84.1836 238.223 83.5234 238.223 82.6875C238.223 81.8516 237.93 81.207 237.344 80.7539C236.758 80.293 235.695 79.8398 234.156 79.3945ZM253.023 79.1133H245.629V85.1602H254.219V87H243.379V69.9375H254.102V71.7891H245.629V77.2734H253.023V79.1133Z" fill="#EB5757"/>
<path d="M24.0273 134.598H20.8281L20.3242 122.938H24.5312L24.0273 134.598ZM20.207 138.23C20.207 137.652 20.4141 137.18 20.8281 136.812C21.25 136.438 21.7734 136.25 22.3984 136.25C23.0234 136.25 23.543 136.438 23.957 136.812C24.3789 137.18 24.5898 137.652 24.5898 138.23C24.5898 138.809 24.3789 139.285 23.957 139.66C23.543 140.027 23.0234 140.211 22.3984 140.211C21.7734 140.211 21.25 140.027 20.8281 139.66C20.4141 139.285 20.207 138.809 20.207 138.23Z" fill="#9B51E0"/>
<path d="M117.016 136.824L119.969 127.32H122.289L117.191 141.957C116.402 144.066 115.148 145.121 113.43 145.121L113.02 145.086L112.211 144.934V143.176L112.797 143.223C113.531 143.223 114.102 143.074 114.508 142.777C114.922 142.48 115.262 141.938 115.527 141.148L116.008 139.859L111.484 127.32H113.852L117.016 136.824ZM126.59 140H124.422V127.32H126.59V140ZM124.246 123.957C124.246 123.605 124.352 123.309 124.562 123.066C124.781 122.824 125.102 122.703 125.523 122.703C125.945 122.703 126.266 122.824 126.484 123.066C126.703 123.309 126.812 123.605 126.812 123.957C126.812 124.309 126.703 124.602 126.484 124.836C126.266 125.07 125.945 125.188 125.523 125.188C125.102 125.188 124.781 125.07 124.562 124.836C124.352 124.602 124.246 124.309 124.246 123.957ZM135.332 140.234C133.613 140.234 132.215 139.672 131.137 138.547C130.059 137.414 129.52 135.902 129.52 134.012V133.613C129.52 132.355 129.758 131.234 130.234 130.25C130.719 129.258 131.391 128.484 132.25 127.93C133.117 127.367 134.055 127.086 135.062 127.086C136.711 127.086 137.992 127.629 138.906 128.715C139.82 129.801 140.277 131.355 140.277 133.379V134.281H131.688C131.719 135.531 132.082 136.543 132.777 137.316C133.48 138.082 134.371 138.465 135.449 138.465C136.215 138.465 136.863 138.309 137.395 137.996C137.926 137.684 138.391 137.27 138.789 136.754L140.113 137.785C139.051 139.418 137.457 140.234 135.332 140.234ZM135.062 128.867C134.188 128.867 133.453 129.188 132.859 129.828C132.266 130.461 131.898 131.352 131.758 132.5H138.109V132.336C138.047 131.234 137.75 130.383 137.219 129.781C136.688 129.172 135.969 128.867 135.062 128.867ZM145.152 140H142.984V122H145.152V140ZM148.105 133.555C148.105 131.609 148.566 130.047 149.488 128.867C150.41 127.68 151.617 127.086 153.109 127.086C154.594 127.086 155.77 127.594 156.637 128.609V122H158.805V140H156.812L156.707 138.641C155.84 139.703 154.633 140.234 153.086 140.234C151.617 140.234 150.418 139.633 149.488 138.43C148.566 137.227 148.105 135.656 148.105 133.719V133.555ZM150.273 133.801C150.273 135.238 150.57 136.363 151.164 137.176C151.758 137.988 152.578 138.395 153.625 138.395C155 138.395 156.004 137.777 156.637 136.543V130.719C155.988 129.523 154.992 128.926 153.648 128.926C152.586 128.926 151.758 129.336 151.164 130.156C150.57 130.977 150.273 132.191 150.273 133.801ZM169.562 136.637C169.562 136.051 169.34 135.598 168.895 135.277C168.457 134.949 167.688 134.668 166.586 134.434C165.492 134.199 164.621 133.918 163.973 133.59C163.332 133.262 162.855 132.871 162.543 132.418C162.238 131.965 162.086 131.426 162.086 130.801C162.086 129.762 162.523 128.883 163.398 128.164C164.281 127.445 165.406 127.086 166.773 127.086C168.211 127.086 169.375 127.457 170.266 128.199C171.164 128.941 171.613 129.891 171.613 131.047H169.434C169.434 130.453 169.18 129.941 168.672 129.512C168.172 129.082 167.539 128.867 166.773 128.867C165.984 128.867 165.367 129.039 164.922 129.383C164.477 129.727 164.254 130.176 164.254 130.73C164.254 131.254 164.461 131.648 164.875 131.914C165.289 132.18 166.035 132.434 167.113 132.676C168.199 132.918 169.078 133.207 169.75 133.543C170.422 133.879 170.918 134.285 171.238 134.762C171.566 135.23 171.73 135.805 171.73 136.484C171.73 137.617 171.277 138.527 170.371 139.215C169.465 139.895 168.289 140.234 166.844 140.234C165.828 140.234 164.93 140.055 164.148 139.695C163.367 139.336 162.754 138.836 162.309 138.195C161.871 137.547 161.652 136.848 161.652 136.098H163.82C163.859 136.824 164.148 137.402 164.688 137.832C165.234 138.254 165.953 138.465 166.844 138.465C167.664 138.465 168.32 138.301 168.812 137.973C169.312 137.637 169.562 137.191 169.562 136.637Z" fill="black"/>
<path d="M42.9766 132.465H35.8164V140H33.5664V122.938H44.1367V124.789H35.8164V130.625H42.9766V132.465ZM54.2617 135.547H47.1133L45.5078 140H43.1875L49.7031 122.938H51.6719L58.1992 140H55.8906L54.2617 135.547ZM47.793 133.695H53.5938L50.6875 125.715L47.793 133.695ZM62.7578 138.16H70.8438V140H60.4961V122.938H62.7578V138.16ZM78.4375 132.395C76.5078 131.84 75.1016 131.16 74.2188 130.355C73.3438 129.543 72.9062 128.543 72.9062 127.355C72.9062 126.012 73.4414 124.902 74.5117 124.027C75.5898 123.145 76.9883 122.703 78.707 122.703C79.8789 122.703 80.9219 122.93 81.8359 123.383C82.7578 123.836 83.4688 124.461 83.9688 125.258C84.4766 126.055 84.7305 126.926 84.7305 127.871H82.4688C82.4688 126.84 82.1406 126.031 81.4844 125.445C80.8281 124.852 79.9023 124.555 78.707 124.555C77.5977 124.555 76.7305 124.801 76.1055 125.293C75.4883 125.777 75.1797 126.453 75.1797 127.32C75.1797 128.016 75.4727 128.605 76.0586 129.09C76.6523 129.566 77.6562 130.004 79.0703 130.402C80.4922 130.801 81.6016 131.242 82.3984 131.727C83.2031 132.203 83.7969 132.762 84.1797 133.402C84.5703 134.043 84.7656 134.797 84.7656 135.664C84.7656 137.047 84.2266 138.156 83.1484 138.992C82.0703 139.82 80.6289 140.234 78.8242 140.234C77.6523 140.234 76.5586 140.012 75.543 139.566C74.5273 139.113 73.7422 138.496 73.1875 137.715C72.6406 136.934 72.3672 136.047 72.3672 135.055H74.6289C74.6289 136.086 75.0078 136.902 75.7656 137.504C76.5312 138.098 77.5508 138.395 78.8242 138.395C80.0117 138.395 80.9219 138.152 81.5547 137.668C82.1875 137.184 82.5039 136.523 82.5039 135.688C82.5039 134.852 82.2109 134.207 81.625 133.754C81.0391 133.293 79.9766 132.84 78.4375 132.395ZM97.3047 132.113H89.9102V138.16H98.5V140H87.6602V122.938H98.3828V124.789H89.9102V130.273H97.3047V132.113Z" fill="#EB5757"/>
<path d="M198.59 124.789H193.105V140H190.867V124.789H185.395V122.938H198.59V124.789ZM207.379 133.098H203.371V140H201.109V122.938H206.758C208.68 122.938 210.156 123.375 211.188 124.25C212.227 125.125 212.746 126.398 212.746 128.07C212.746 129.133 212.457 130.059 211.879 130.848C211.309 131.637 210.512 132.227 209.488 132.617L213.496 139.859V140H211.082L207.379 133.098ZM203.371 131.258H206.828C207.945 131.258 208.832 130.969 209.488 130.391C210.152 129.812 210.484 129.039 210.484 128.07C210.484 127.016 210.168 126.207 209.535 125.645C208.91 125.082 208.004 124.797 206.816 124.789H203.371V131.258ZM227.922 122.938V134.539C227.914 136.148 227.406 137.465 226.398 138.488C225.398 139.512 224.039 140.086 222.32 140.211L221.723 140.234C219.855 140.234 218.367 139.73 217.258 138.723C216.148 137.715 215.586 136.328 215.57 134.562V122.938H217.797V134.492C217.797 135.727 218.137 136.688 218.816 137.375C219.496 138.055 220.465 138.395 221.723 138.395C222.996 138.395 223.969 138.055 224.641 137.375C225.32 136.695 225.66 135.738 225.66 134.504V122.938H227.922ZM241.117 132.113H233.723V138.16H242.312V140H231.473V122.938H242.195V124.789H233.723V130.273H241.117V132.113Z" fill="#219653"/>
<path d="M303.402 32.5469H296.254L294.648 37H292.328L298.844 19.9375H300.812L307.34 37H305.031L303.402 32.5469ZM296.934 30.6953H302.734L299.828 22.7148L296.934 30.6953ZM322.75 37H320.488L311.898 23.8516V37H309.637V19.9375H311.898L320.512 33.1445V19.9375H322.75V37ZM326.746 37V19.9375H331.562C333.047 19.9375 334.359 20.2656 335.5 20.9219C336.641 21.5781 337.52 22.5117 338.137 23.7227C338.762 24.9336 339.078 26.3242 339.086 27.8945V28.9844C339.086 30.5938 338.773 32.0039 338.148 33.2148C337.531 34.4258 336.645 35.3555 335.488 36.0039C334.34 36.6523 333 36.9844 331.469 37H326.746ZM328.996 21.7891V35.1602H331.363C333.098 35.1602 334.445 34.6211 335.406 33.543C336.375 32.4648 336.859 30.9297 336.859 28.9375V27.9414C336.859 26.0039 336.402 24.5 335.488 23.4297C334.582 22.3516 333.293 21.8047 331.621 21.7891H328.996Z" fill="black"/>
<path d="M693.105 30.0195C693.105 31.6914 692.824 33.1523 692.262 34.4023C691.699 35.6445 690.902 36.5938 689.871 37.25C688.84 37.9062 687.637 38.2344 686.262 38.2344C684.918 38.2344 683.727 37.9062 682.688 37.25C681.648 36.5859 680.84 35.6445 680.262 34.4258C679.691 33.1992 679.398 31.7812 679.383 30.1719V28.9414C679.383 27.3008 679.668 25.8516 680.238 24.5938C680.809 23.3359 681.613 22.375 682.652 21.7109C683.699 21.0391 684.895 20.7031 686.238 20.7031C687.605 20.7031 688.809 21.0352 689.848 21.6992C690.895 22.3555 691.699 23.3125 692.262 24.5703C692.824 25.8203 693.105 27.2773 693.105 28.9414V30.0195ZM690.867 28.918C690.867 26.8945 690.461 25.3438 689.648 24.2656C688.836 23.1797 687.699 22.6367 686.238 22.6367C684.816 22.6367 683.695 23.1797 682.875 24.2656C682.062 25.3438 681.645 26.8438 681.621 28.7656V30.0195C681.621 31.9805 682.031 33.5234 682.852 34.6484C683.68 35.7656 684.816 36.3242 686.262 36.3242C687.715 36.3242 688.84 35.7969 689.637 34.7422C690.434 33.6797 690.844 32.1602 690.867 30.1836V28.918ZM702.738 31.0977H698.73V38H696.469V20.9375H702.117C704.039 20.9375 705.516 21.375 706.547 22.25C707.586 23.125 708.105 24.3984 708.105 26.0703C708.105 27.1328 707.816 28.0586 707.238 28.8477C706.668 29.6367 705.871 30.2266 704.848 30.6172L708.855 37.8594V38H706.441L702.738 31.0977ZM698.73 29.2578H702.188C703.305 29.2578 704.191 28.9688 704.848 28.3906C705.512 27.8125 705.844 27.0391 705.844 26.0703C705.844 25.0156 705.527 24.207 704.895 23.6445C704.27 23.082 703.363 22.7969 702.176 22.7891H698.73V29.2578Z" fill="black"/>
<rect x="292" y="6" width="347" height="9" fill="#BDBDBD"/>
<rect x="678" y="7" width="325" height="9" fill="#BDBDBD"/>
<rect x="293" y="59" width="187" height="39" fill="#C4C4C4" fill-opacity="0.3"/>
<rect x="679" y="60" width="170" height="39" fill="#C4C4C4" fill-opacity="0.3"/>
<rect x="293" y="164" width="187" height="39" fill="#C4C4C4" fill-opacity="0.3"/>
<rect x="679" y="165" width="170" height="39" fill="#C4C4C4" fill-opacity="0.3"/>
<rect x="293" y="112" width="187" height="39" fill="#C4C4C4" fill-opacity="0.3"/>
<rect x="679" y="113" width="170" height="39" fill="#C4C4C4" fill-opacity="0.3"/>
<rect x="293" y="217" width="187" height="39" fill="#C4C4C4" fill-opacity="0.3"/>
<rect x="679" y="218" width="170" height="39" fill="#C4C4C4" fill-opacity="0.3"/>
<rect x="560" y="60" width="79" height="39" fill="#C4C4C4" fill-opacity="0.3"/>
<rect x="924" y="61" width="79" height="39" fill="#C4C4C4" fill-opacity="0.3"/>
<rect x="560" y="165" width="79" height="39" fill="#C4C4C4" fill-opacity="0.3"/>
<rect x="924" y="166" width="79" height="39" fill="#C4C4C4" fill-opacity="0.3"/>
<rect x="560" y="113" width="79" height="39" fill="#C4C4C4" fill-opacity="0.3"/>
<rect x="924" y="114" width="79" height="39" fill="#C4C4C4" fill-opacity="0.3"/>
<rect x="560" y="218" width="79" height="39" fill="#C4C4C4" fill-opacity="0.3"/>
<rect x="924" y="219" width="79" height="39" fill="#C4C4C4" fill-opacity="0.3"/>
<path d="M311.77 71.7891H306.285V87H304.047V71.7891H298.574V69.9375H311.77V71.7891ZM320.559 80.0977H316.551V87H314.289V69.9375H319.938C321.859 69.9375 323.336 70.375 324.367 71.25C325.406 72.125 325.926 73.3984 325.926 75.0703C325.926 76.1328 325.637 77.0586 325.059 77.8477C324.488 78.6367 323.691 79.2266 322.668 79.6172L326.676 86.8594V87H324.262L320.559 80.0977ZM316.551 78.2578H320.008C321.125 78.2578 322.012 77.9688 322.668 77.3906C323.332 76.8125 323.664 76.0391 323.664 75.0703C323.664 74.0156 323.348 73.207 322.715 72.6445C322.09 72.082 321.184 71.7969 319.996 71.7891H316.551V78.2578ZM341.102 69.9375V81.5391C341.094 83.1484 340.586 84.4648 339.578 85.4883C338.578 86.5117 337.219 87.0859 335.5 87.2109L334.902 87.2344C333.035 87.2344 331.547 86.7305 330.438 85.7227C329.328 84.7148 328.766 83.3281 328.75 81.5625V69.9375H330.977V81.4922C330.977 82.7266 331.316 83.6875 331.996 84.375C332.676 85.0547 333.645 85.3945 334.902 85.3945C336.176 85.3945 337.148 85.0547 337.82 84.375C338.5 83.6953 338.84 82.7383 338.84 81.5039V69.9375H341.102ZM354.297 79.1133H346.902V85.1602H355.492V87H344.652V69.9375H355.375V71.7891H346.902V77.2734H354.297V79.1133ZM414.332 71.7891H408.848V87H406.609V71.7891H401.137V69.9375H414.332V71.7891ZM423.121 80.0977H419.113V87H416.852V69.9375H422.5C424.422 69.9375 425.898 70.375 426.93 71.25C427.969 72.125 428.488 73.3984 428.488 75.0703C428.488 76.1328 428.199 77.0586 427.621 77.8477C427.051 78.6367 426.254 79.2266 425.23 79.6172L429.238 86.8594V87H426.824L423.121 80.0977ZM419.113 78.2578H422.57C423.688 78.2578 424.574 77.9688 425.23 77.3906C425.895 76.8125 426.227 76.0391 426.227 75.0703C426.227 74.0156 425.91 73.207 425.277 72.6445C424.652 72.082 423.746 71.7969 422.559 71.7891H419.113V78.2578ZM443.664 69.9375V81.5391C443.656 83.1484 443.148 84.4648 442.141 85.4883C441.141 86.5117 439.781 87.0859 438.062 87.2109L437.465 87.2344C435.598 87.2344 434.109 86.7305 433 85.7227C431.891 84.7148 431.328 83.3281 431.312 81.5625V69.9375H433.539V81.4922C433.539 82.7266 433.879 83.6875 434.559 84.375C435.238 85.0547 436.207 85.3945 437.465 85.3945C438.738 85.3945 439.711 85.0547 440.383 84.375C441.062 83.6953 441.402 82.7383 441.402 81.5039V69.9375H443.664ZM456.859 79.1133H449.465V85.1602H458.055V87H447.215V69.9375H457.938V71.7891H449.465V77.2734H456.859V79.1133ZM581.957 71.7891H576.473V87H574.234V71.7891H568.762V69.9375H581.957V71.7891ZM590.746 80.0977H586.738V87H584.477V69.9375H590.125C592.047 69.9375 593.523 70.375 594.555 71.25C595.594 72.125 596.113 73.3984 596.113 75.0703C596.113 76.1328 595.824 77.0586 595.246 77.8477C594.676 78.6367 593.879 79.2266 592.855 79.6172L596.863 86.8594V87H594.449L590.746 80.0977ZM586.738 78.2578H590.195C591.312 78.2578 592.199 77.9688 592.855 77.3906C593.52 76.8125 593.852 76.0391 593.852 75.0703C593.852 74.0156 593.535 73.207 592.902 72.6445C592.277 72.082 591.371 71.7969 590.184 71.7891H586.738V78.2578ZM611.289 69.9375V81.5391C611.281 83.1484 610.773 84.4648 609.766 85.4883C608.766 86.5117 607.406 87.0859 605.688 87.2109L605.09 87.2344C603.223 87.2344 601.734 86.7305 600.625 85.7227C599.516 84.7148 598.953 83.3281 598.938 81.5625V69.9375H601.164V81.4922C601.164 82.7266 601.504 83.6875 602.184 84.375C602.863 85.0547 603.832 85.3945 605.09 85.3945C606.363 85.3945 607.336 85.0547 608.008 84.375C608.688 83.6953 609.027 82.7383 609.027 81.5039V69.9375H611.289ZM624.484 79.1133H617.09V85.1602H625.68V87H614.84V69.9375H625.562V71.7891H617.09V77.2734H624.484V79.1133Z" fill="#219653"/>
<path d="M500.383 83.8242L503.336 74.3203H505.656L500.559 88.957C499.77 91.0664 498.516 92.1211 496.797 92.1211L496.387 92.0859L495.578 91.9336V90.1758L496.164 90.2227C496.898 90.2227 497.469 90.0742 497.875 89.7773C498.289 89.4805 498.629 88.9375 498.895 88.1484L499.375 86.8594L494.852 74.3203H497.219L500.383 83.8242ZM509.957 87H507.789V74.3203H509.957V87ZM507.613 70.957C507.613 70.6055 507.719 70.3086 507.93 70.0664C508.148 69.8242 508.469 69.7031 508.891 69.7031C509.312 69.7031 509.633 69.8242 509.852 70.0664C510.07 70.3086 510.18 70.6055 510.18 70.957C510.18 71.3086 510.07 71.6016 509.852 71.8359C509.633 72.0703 509.312 72.1875 508.891 72.1875C508.469 72.1875 508.148 72.0703 507.93 71.8359C507.719 71.6016 507.613 71.3086 507.613 70.957ZM518.699 87.2344C516.98 87.2344 515.582 86.6719 514.504 85.5469C513.426 84.4141 512.887 82.9023 512.887 81.0117V80.6133C512.887 79.3555 513.125 78.2344 513.602 77.25C514.086 76.2578 514.758 75.4844 515.617 74.9297C516.484 74.3672 517.422 74.0859 518.43 74.0859C520.078 74.0859 521.359 74.6289 522.273 75.7148C523.188 76.8008 523.645 78.3555 523.645 80.3789V81.2812H515.055C515.086 82.5312 515.449 83.543 516.145 84.3164C516.848 85.082 517.738 85.4648 518.816 85.4648C519.582 85.4648 520.23 85.3086 520.762 84.9961C521.293 84.6836 521.758 84.2695 522.156 83.7539L523.48 84.7852C522.418 86.418 520.824 87.2344 518.699 87.2344ZM518.43 75.8672C517.555 75.8672 516.82 76.1875 516.227 76.8281C515.633 77.4609 515.266 78.3516 515.125 79.5H521.477V79.3359C521.414 78.2344 521.117 77.3828 520.586 76.7812C520.055 76.1719 519.336 75.8672 518.43 75.8672ZM528.52 87H526.352V69H528.52V87ZM531.473 80.5547C531.473 78.6094 531.934 77.0469 532.855 75.8672C533.777 74.6797 534.984 74.0859 536.477 74.0859C537.961 74.0859 539.137 74.5938 540.004 75.6094V69H542.172V87H540.18L540.074 85.6406C539.207 86.7031 538 87.2344 536.453 87.2344C534.984 87.2344 533.785 86.6328 532.855 85.4297C531.934 84.2266 531.473 82.6562 531.473 80.7188V80.5547ZM533.641 80.8008C533.641 82.2383 533.938 83.3633 534.531 84.1758C535.125 84.9883 535.945 85.3945 536.992 85.3945C538.367 85.3945 539.371 84.7773 540.004 83.543V77.7188C539.355 76.5234 538.359 75.9258 537.016 75.9258C535.953 75.9258 535.125 76.3359 534.531 77.1562C533.938 77.9766 533.641 79.1914 533.641 80.8008ZM552.93 83.6367C552.93 83.0508 552.707 82.5977 552.262 82.2773C551.824 81.9492 551.055 81.668 549.953 81.4336C548.859 81.1992 547.988 80.918 547.34 80.5898C546.699 80.2617 546.223 79.8711 545.91 79.418C545.605 78.9648 545.453 78.4258 545.453 77.8008C545.453 76.7617 545.891 75.8828 546.766 75.1641C547.648 74.4453 548.773 74.0859 550.141 74.0859C551.578 74.0859 552.742 74.457 553.633 75.1992C554.531 75.9414 554.98 76.8906 554.98 78.0469H552.801C552.801 77.4531 552.547 76.9414 552.039 76.5117C551.539 76.082 550.906 75.8672 550.141 75.8672C549.352 75.8672 548.734 76.0391 548.289 76.3828C547.844 76.7266 547.621 77.1758 547.621 77.7305C547.621 78.2539 547.828 78.6484 548.242 78.9141C548.656 79.1797 549.402 79.4336 550.48 79.6758C551.566 79.918 552.445 80.207 553.117 80.543C553.789 80.8789 554.285 81.2852 554.605 81.7617C554.934 82.2305 555.098 82.8047 555.098 83.4844C555.098 84.6172 554.645 85.5273 553.738 86.2148C552.832 86.8945 551.656 87.2344 550.211 87.2344C549.195 87.2344 548.297 87.0547 547.516 86.6953C546.734 86.3359 546.121 85.8359 545.676 85.1953C545.238 84.5469 545.02 83.8477 545.02 83.0977H547.188C547.227 83.8242 547.516 84.4023 548.055 84.832C548.602 85.2539 549.32 85.4648 550.211 85.4648C551.031 85.4648 551.688 85.3008 552.18 84.9727C552.68 84.6367 552.93 84.1914 552.93 83.6367Z" fill="black"/>
<path d="M365.91 78.0117C365.449 77.3555 365.086 76.7305 364.82 76.1367C364.562 75.543 364.434 74.9297 364.434 74.2969C364.434 72.9219 364.879 71.8125 365.77 70.9688C366.66 70.1172 367.824 69.6914 369.262 69.6914C370.551 69.6914 371.617 70.0859 372.461 70.875C373.305 71.6562 373.727 72.6289 373.727 73.793C373.727 75.2461 372.926 76.5352 371.324 77.6602L370.434 78.2812L373.059 81.293C373.488 80.4336 373.703 79.4922 373.703 78.4688H377.02C377.02 80.7734 376.488 82.6211 375.426 84.0117L378.027 87H373.621L372.824 86.0977C372.168 86.4883 371.496 86.7773 370.809 86.9648C370.129 87.1523 369.359 87.2461 368.5 87.2461C366.812 87.2461 365.461 86.8047 364.445 85.9219C363.43 85.0312 362.922 83.8633 362.922 82.418C362.922 81.6289 363.121 80.9141 363.52 80.2734C363.926 79.6328 364.711 78.8867 365.875 78.0352L365.91 78.0117ZM368.758 84.1992C369.445 84.1992 370.102 84.0391 370.727 83.7188L367.656 80.2266L367.551 80.2969C367.105 80.8438 366.883 81.4609 366.883 82.1484C366.883 82.7188 367.062 83.2031 367.422 83.6016C367.781 84 368.227 84.1992 368.758 84.1992ZM367.844 74.25C367.844 74.7969 368.141 75.4609 368.734 76.2422L369.52 75.75C369.879 75.5156 370.141 75.2734 370.305 75.0234C370.469 74.7734 370.551 74.457 370.551 74.0742C370.551 73.7148 370.426 73.4023 370.176 73.1367C369.926 72.8711 369.617 72.7383 369.25 72.7383C368.812 72.7383 368.469 72.8789 368.219 73.1602C367.969 73.4336 367.844 73.7969 367.844 74.25ZM382.082 78.0117C381.621 77.3555 381.258 76.7305 380.992 76.1367C380.734 75.543 380.605 74.9297 380.605 74.2969C380.605 72.9219 381.051 71.8125 381.941 70.9688C382.832 70.1172 383.996 69.6914 385.434 69.6914C386.723 69.6914 387.789 70.0859 388.633 70.875C389.477 71.6562 389.898 72.6289 389.898 73.793C389.898 75.2461 389.098 76.5352 387.496 77.6602L386.605 78.2812L389.23 81.293C389.66 80.4336 389.875 79.4922 389.875 78.4688H393.191C393.191 80.7734 392.66 82.6211 391.598 84.0117L394.199 87H389.793L388.996 86.0977C388.34 86.4883 387.668 86.7773 386.98 86.9648C386.301 87.1523 385.531 87.2461 384.672 87.2461C382.984 87.2461 381.633 86.8047 380.617 85.9219C379.602 85.0312 379.094 83.8633 379.094 82.418C379.094 81.6289 379.293 80.9141 379.691 80.2734C380.098 79.6328 380.883 78.8867 382.047 78.0352L382.082 78.0117ZM384.93 84.1992C385.617 84.1992 386.273 84.0391 386.898 83.7188L383.828 80.2266L383.723 80.2969C383.277 80.8438 383.055 81.4609 383.055 82.1484C383.055 82.7188 383.234 83.2031 383.594 83.6016C383.953 84 384.398 84.1992 384.93 84.1992ZM384.016 74.25C384.016 74.7969 384.312 75.4609 384.906 76.2422L385.691 75.75C386.051 75.5156 386.312 75.2734 386.477 75.0234C386.641 74.7734 386.723 74.457 386.723 74.0742C386.723 73.7148 386.598 73.4023 386.348 73.1367C386.098 72.8711 385.789 72.7383 385.422 72.7383C384.984 72.7383 384.641 72.8789 384.391 73.1602C384.141 73.4336 384.016 73.7969 384.016 74.25Z" fill="#9B51E0"/>
<path d="M697.77 72.7891H692.285V88H690.047V72.7891H684.574V70.9375H697.77V72.7891ZM706.559 81.0977H702.551V88H700.289V70.9375H705.938C707.859 70.9375 709.336 71.375 710.367 72.25C711.406 73.125 711.926 74.3984 711.926 76.0703C711.926 77.1328 711.637 78.0586 711.059 78.8477C710.488 79.6367 709.691 80.2266 708.668 80.6172L712.676 87.8594V88H710.262L706.559 81.0977ZM702.551 79.2578H706.008C707.125 79.2578 708.012 78.9688 708.668 78.3906C709.332 77.8125 709.664 77.0391 709.664 76.0703C709.664 75.0156 709.348 74.207 708.715 73.6445C708.09 73.082 707.184 72.7969 705.996 72.7891H702.551V79.2578ZM727.102 70.9375V82.5391C727.094 84.1484 726.586 85.4648 725.578 86.4883C724.578 87.5117 723.219 88.0859 721.5 88.2109L720.902 88.2344C719.035 88.2344 717.547 87.7305 716.438 86.7227C715.328 85.7148 714.766 84.3281 714.75 82.5625V70.9375H716.977V82.4922C716.977 83.7266 717.316 84.6875 717.996 85.375C718.676 86.0547 719.645 86.3945 720.902 86.3945C722.176 86.3945 723.148 86.0547 723.82 85.375C724.5 84.6953 724.84 83.7383 724.84 82.5039V70.9375H727.102ZM740.297 80.1133H732.902V86.1602H741.492V88H730.652V70.9375H741.375V72.7891H732.902V78.2734H740.297V80.1133ZM780.27 72.7891H774.785V88H772.547V72.7891H767.074V70.9375H780.27V72.7891ZM789.059 81.0977H785.051V88H782.789V70.9375H788.438C790.359 70.9375 791.836 71.375 792.867 72.25C793.906 73.125 794.426 74.3984 794.426 76.0703C794.426 77.1328 794.137 78.0586 793.559 78.8477C792.988 79.6367 792.191 80.2266 791.168 80.6172L795.176 87.8594V88H792.762L789.059 81.0977ZM785.051 79.2578H788.508C789.625 79.2578 790.512 78.9688 791.168 78.3906C791.832 77.8125 792.164 77.0391 792.164 76.0703C792.164 75.0156 791.848 74.207 791.215 73.6445C790.59 73.082 789.684 72.7969 788.496 72.7891H785.051V79.2578ZM809.602 70.9375V82.5391C809.594 84.1484 809.086 85.4648 808.078 86.4883C807.078 87.5117 805.719 88.0859 804 88.2109L803.402 88.2344C801.535 88.2344 800.047 87.7305 798.938 86.7227C797.828 85.7148 797.266 84.3281 797.25 82.5625V70.9375H799.477V82.4922C799.477 83.7266 799.816 84.6875 800.496 85.375C801.176 86.0547 802.145 86.3945 803.402 86.3945C804.676 86.3945 805.648 86.0547 806.32 85.375C807 84.6953 807.34 83.7383 807.34 82.5039V70.9375H809.602ZM822.797 80.1133H815.402V86.1602H823.992V88H813.152V70.9375H823.875V72.7891H815.402V78.2734H822.797V80.1133ZM947.895 72.7891H942.41V88H940.172V72.7891H934.699V70.9375H947.895V72.7891ZM956.684 81.0977H952.676V88H950.414V70.9375H956.062C957.984 70.9375 959.461 71.375 960.492 72.25C961.531 73.125 962.051 74.3984 962.051 76.0703C962.051 77.1328 961.762 78.0586 961.184 78.8477C960.613 79.6367 959.816 80.2266 958.793 80.6172L962.801 87.8594V88H960.387L956.684 81.0977ZM952.676 79.2578H956.133C957.25 79.2578 958.137 78.9688 958.793 78.3906C959.457 77.8125 959.789 77.0391 959.789 76.0703C959.789 75.0156 959.473 74.207 958.84 73.6445C958.215 73.082 957.309 72.7969 956.121 72.7891H952.676V79.2578ZM977.227 70.9375V82.5391C977.219 84.1484 976.711 85.4648 975.703 86.4883C974.703 87.5117 973.344 88.0859 971.625 88.2109L971.027 88.2344C969.16 88.2344 967.672 87.7305 966.562 86.7227C965.453 85.7148 964.891 84.3281 964.875 82.5625V70.9375H967.102V82.4922C967.102 83.7266 967.441 84.6875 968.121 85.375C968.801 86.0547 969.77 86.3945 971.027 86.3945C972.301 86.3945 973.273 86.0547 973.945 85.375C974.625 84.6953 974.965 83.7383 974.965 82.5039V70.9375H977.227ZM990.422 80.1133H983.027V86.1602H991.617V88H980.777V70.9375H991.5V72.7891H983.027V78.2734H990.422V80.1133Z" fill="#219653"/>
<path d="M866.32 84.8242L869.273 75.3203H871.594L866.496 89.957C865.707 92.0664 864.453 93.1211 862.734 93.1211L862.324 93.0859L861.516 92.9336V91.1758L862.102 91.2227C862.836 91.2227 863.406 91.0742 863.812 90.7773C864.227 90.4805 864.566 89.9375 864.832 89.1484L865.312 87.8594L860.789 75.3203H863.156L866.32 84.8242ZM875.895 88H873.727V75.3203H875.895V88ZM873.551 71.957C873.551 71.6055 873.656 71.3086 873.867 71.0664C874.086 70.8242 874.406 70.7031 874.828 70.7031C875.25 70.7031 875.57 70.8242 875.789 71.0664C876.008 71.3086 876.117 71.6055 876.117 71.957C876.117 72.3086 876.008 72.6016 875.789 72.8359C875.57 73.0703 875.25 73.1875 874.828 73.1875C874.406 73.1875 874.086 73.0703 873.867 72.8359C873.656 72.6016 873.551 72.3086 873.551 71.957ZM884.637 88.2344C882.918 88.2344 881.52 87.6719 880.441 86.5469C879.363 85.4141 878.824 83.9023 878.824 82.0117V81.6133C878.824 80.3555 879.062 79.2344 879.539 78.25C880.023 77.2578 880.695 76.4844 881.555 75.9297C882.422 75.3672 883.359 75.0859 884.367 75.0859C886.016 75.0859 887.297 75.6289 888.211 76.7148C889.125 77.8008 889.582 79.3555 889.582 81.3789V82.2812H880.992C881.023 83.5312 881.387 84.543 882.082 85.3164C882.785 86.082 883.676 86.4648 884.754 86.4648C885.52 86.4648 886.168 86.3086 886.699 85.9961C887.23 85.6836 887.695 85.2695 888.094 84.7539L889.418 85.7852C888.355 87.418 886.762 88.2344 884.637 88.2344ZM884.367 76.8672C883.492 76.8672 882.758 77.1875 882.164 77.8281C881.57 78.4609 881.203 79.3516 881.062 80.5H887.414V80.3359C887.352 79.2344 887.055 78.3828 886.523 77.7812C885.992 77.1719 885.273 76.8672 884.367 76.8672ZM894.457 88H892.289V70H894.457V88ZM897.41 81.5547C897.41 79.6094 897.871 78.0469 898.793 76.8672C899.715 75.6797 900.922 75.0859 902.414 75.0859C903.898 75.0859 905.074 75.5938 905.941 76.6094V70H908.109V88H906.117L906.012 86.6406C905.145 87.7031 903.938 88.2344 902.391 88.2344C900.922 88.2344 899.723 87.6328 898.793 86.4297C897.871 85.2266 897.41 83.6562 897.41 81.7188V81.5547ZM899.578 81.8008C899.578 83.2383 899.875 84.3633 900.469 85.1758C901.062 85.9883 901.883 86.3945 902.93 86.3945C904.305 86.3945 905.309 85.7773 905.941 84.543V78.7188C905.293 77.5234 904.297 76.9258 902.953 76.9258C901.891 76.9258 901.062 77.3359 900.469 78.1562C899.875 78.9766 899.578 80.1914 899.578 81.8008ZM918.867 84.6367C918.867 84.0508 918.645 83.5977 918.199 83.2773C917.762 82.9492 916.992 82.668 915.891 82.4336C914.797 82.1992 913.926 81.918 913.277 81.5898C912.637 81.2617 912.16 80.8711 911.848 80.418C911.543 79.9648 911.391 79.4258 911.391 78.8008C911.391 77.7617 911.828 76.8828 912.703 76.1641C913.586 75.4453 914.711 75.0859 916.078 75.0859C917.516 75.0859 918.68 75.457 919.57 76.1992C920.469 76.9414 920.918 77.8906 920.918 79.0469H918.738C918.738 78.4531 918.484 77.9414 917.977 77.5117C917.477 77.082 916.844 76.8672 916.078 76.8672C915.289 76.8672 914.672 77.0391 914.227 77.3828C913.781 77.7266 913.559 78.1758 913.559 78.7305C913.559 79.2539 913.766 79.6484 914.18 79.9141C914.594 80.1797 915.34 80.4336 916.418 80.6758C917.504 80.918 918.383 81.207 919.055 81.543C919.727 81.8789 920.223 82.2852 920.543 82.7617C920.871 83.2305 921.035 83.8047 921.035 84.4844C921.035 85.6172 920.582 86.5273 919.676 87.2148C918.77 87.8945 917.594 88.2344 916.148 88.2344C915.133 88.2344 914.234 88.0547 913.453 87.6953C912.672 87.3359 912.059 86.8359 911.613 86.1953C911.176 85.5469 910.957 84.8477 910.957 84.0977H913.125C913.164 84.8242 913.453 85.4023 913.992 85.832C914.539 86.2539 915.258 86.4648 916.148 86.4648C916.969 86.4648 917.625 86.3008 918.117 85.9727C918.617 85.6367 918.867 85.1914 918.867 84.6367Z" fill="black"/>
<path d="M752.438 91.1641H750.281V70.9375H752.438V91.1641ZM758.578 91.1641H756.422V70.9375H758.578V91.1641Z" fill="#9B51E0"/>
<path d="M309.391 184.465H302.23V192H299.98V174.938H310.551V176.789H302.23V182.625H309.391V184.465ZM320.676 187.547H313.527L311.922 192H309.602L316.117 174.938H318.086L324.613 192H322.305L320.676 187.547ZM314.207 185.695H320.008L317.102 177.715L314.207 185.695ZM329.172 190.16H337.258V192H326.91V174.938H329.172V190.16ZM344.852 184.395C342.922 183.84 341.516 183.16 340.633 182.355C339.758 181.543 339.32 180.543 339.32 179.355C339.32 178.012 339.855 176.902 340.926 176.027C342.004 175.145 343.402 174.703 345.121 174.703C346.293 174.703 347.336 174.93 348.25 175.383C349.172 175.836 349.883 176.461 350.383 177.258C350.891 178.055 351.145 178.926 351.145 179.871H348.883C348.883 178.84 348.555 178.031 347.898 177.445C347.242 176.852 346.316 176.555 345.121 176.555C344.012 176.555 343.145 176.801 342.52 177.293C341.902 177.777 341.594 178.453 341.594 179.32C341.594 180.016 341.887 180.605 342.473 181.09C343.066 181.566 344.07 182.004 345.484 182.402C346.906 182.801 348.016 183.242 348.812 183.727C349.617 184.203 350.211 184.762 350.594 185.402C350.984 186.043 351.18 186.797 351.18 187.664C351.18 189.047 350.641 190.156 349.562 190.992C348.484 191.82 347.043 192.234 345.238 192.234C344.066 192.234 342.973 192.012 341.957 191.566C340.941 191.113 340.156 190.496 339.602 189.715C339.055 188.934 338.781 188.047 338.781 187.055H341.043C341.043 188.086 341.422 188.902 342.18 189.504C342.945 190.098 343.965 190.395 345.238 190.395C346.426 190.395 347.336 190.152 347.969 189.668C348.602 189.184 348.918 188.523 348.918 187.688C348.918 186.852 348.625 186.207 348.039 185.754C347.453 185.293 346.391 184.84 344.852 184.395ZM363.719 184.113H356.324V190.16H364.914V192H354.074V174.938H364.797V176.789H356.324V182.273H363.719V184.113ZM577.094 184.465H569.934V192H567.684V174.938H578.254V176.789H569.934V182.625H577.094V184.465ZM588.379 187.547H581.23L579.625 192H577.305L583.82 174.938H585.789L592.316 192H590.008L588.379 187.547ZM581.91 185.695H587.711L584.805 177.715L581.91 185.695ZM596.875 190.16H604.961V192H594.613V174.938H596.875V190.16ZM612.555 184.395C610.625 183.84 609.219 183.16 608.336 182.355C607.461 181.543 607.023 180.543 607.023 179.355C607.023 178.012 607.559 176.902 608.629 176.027C609.707 175.145 611.105 174.703 612.824 174.703C613.996 174.703 615.039 174.93 615.953 175.383C616.875 175.836 617.586 176.461 618.086 177.258C618.594 178.055 618.848 178.926 618.848 179.871H616.586C616.586 178.84 616.258 178.031 615.602 177.445C614.945 176.852 614.02 176.555 612.824 176.555C611.715 176.555 610.848 176.801 610.223 177.293C609.605 177.777 609.297 178.453 609.297 179.32C609.297 180.016 609.59 180.605 610.176 181.09C610.77 181.566 611.773 182.004 613.188 182.402C614.609 182.801 615.719 183.242 616.516 183.727C617.32 184.203 617.914 184.762 618.297 185.402C618.688 186.043 618.883 186.797 618.883 187.664C618.883 189.047 618.344 190.156 617.266 190.992C616.188 191.82 614.746 192.234 612.941 192.234C611.77 192.234 610.676 192.012 609.66 191.566C608.645 191.113 607.859 190.496 607.305 189.715C606.758 188.934 606.484 188.047 606.484 187.055H608.746C608.746 188.086 609.125 188.902 609.883 189.504C610.648 190.098 611.668 190.395 612.941 190.395C614.129 190.395 615.039 190.152 615.672 189.668C616.305 189.184 616.621 188.523 616.621 187.688C616.621 186.852 616.328 186.207 615.742 185.754C615.156 185.293 614.094 184.84 612.555 184.395ZM631.422 184.113H624.027V190.16H632.617V192H621.777V174.938H632.5V176.789H624.027V182.273H631.422V184.113Z" fill="#EB5757"/>
<path d="M497.898 188.824L500.852 179.32H503.172L498.074 193.957C497.285 196.066 496.031 197.121 494.312 197.121L493.902 197.086L493.094 196.934V195.176L493.68 195.223C494.414 195.223 494.984 195.074 495.391 194.777C495.805 194.48 496.145 193.938 496.41 193.148L496.891 191.859L492.367 179.32H494.734L497.898 188.824ZM507.473 192H505.305V179.32H507.473V192ZM505.129 175.957C505.129 175.605 505.234 175.309 505.445 175.066C505.664 174.824 505.984 174.703 506.406 174.703C506.828 174.703 507.148 174.824 507.367 175.066C507.586 175.309 507.695 175.605 507.695 175.957C507.695 176.309 507.586 176.602 507.367 176.836C507.148 177.07 506.828 177.188 506.406 177.188C505.984 177.188 505.664 177.07 505.445 176.836C505.234 176.602 505.129 176.309 505.129 175.957ZM516.215 192.234C514.496 192.234 513.098 191.672 512.02 190.547C510.941 189.414 510.402 187.902 510.402 186.012V185.613C510.402 184.355 510.641 183.234 511.117 182.25C511.602 181.258 512.273 180.484 513.133 179.93C514 179.367 514.938 179.086 515.945 179.086C517.594 179.086 518.875 179.629 519.789 180.715C520.703 181.801 521.16 183.355 521.16 185.379V186.281H512.57C512.602 187.531 512.965 188.543 513.66 189.316C514.363 190.082 515.254 190.465 516.332 190.465C517.098 190.465 517.746 190.309 518.277 189.996C518.809 189.684 519.273 189.27 519.672 188.754L520.996 189.785C519.934 191.418 518.34 192.234 516.215 192.234ZM515.945 180.867C515.07 180.867 514.336 181.188 513.742 181.828C513.148 182.461 512.781 183.352 512.641 184.5H518.992V184.336C518.93 183.234 518.633 182.383 518.102 181.781C517.57 181.172 516.852 180.867 515.945 180.867ZM526.035 192H523.867V174H526.035V192ZM528.988 185.555C528.988 183.609 529.449 182.047 530.371 180.867C531.293 179.68 532.5 179.086 533.992 179.086C535.477 179.086 536.652 179.594 537.52 180.609V174H539.688V192H537.695L537.59 190.641C536.723 191.703 535.516 192.234 533.969 192.234C532.5 192.234 531.301 191.633 530.371 190.43C529.449 189.227 528.988 187.656 528.988 185.719V185.555ZM531.156 185.801C531.156 187.238 531.453 188.363 532.047 189.176C532.641 189.988 533.461 190.395 534.508 190.395C535.883 190.395 536.887 189.777 537.52 188.543V182.719C536.871 181.523 535.875 180.926 534.531 180.926C533.469 180.926 532.641 181.336 532.047 182.156C531.453 182.977 531.156 184.191 531.156 185.801ZM550.445 188.637C550.445 188.051 550.223 187.598 549.777 187.277C549.34 186.949 548.57 186.668 547.469 186.434C546.375 186.199 545.504 185.918 544.855 185.59C544.215 185.262 543.738 184.871 543.426 184.418C543.121 183.965 542.969 183.426 542.969 182.801C542.969 181.762 543.406 180.883 544.281 180.164C545.164 179.445 546.289 179.086 547.656 179.086C549.094 179.086 550.258 179.457 551.148 180.199C552.047 180.941 552.496 181.891 552.496 183.047H550.316C550.316 182.453 550.062 181.941 549.555 181.512C549.055 181.082 548.422 180.867 547.656 180.867C546.867 180.867 546.25 181.039 545.805 181.383C545.359 181.727 545.137 182.176 545.137 182.73C545.137 183.254 545.344 183.648 545.758 183.914C546.172 184.18 546.918 184.434 547.996 184.676C549.082 184.918 549.961 185.207 550.633 185.543C551.305 185.879 551.801 186.285 552.121 186.762C552.449 187.23 552.613 187.805 552.613 188.484C552.613 189.617 552.16 190.527 551.254 191.215C550.348 191.895 549.172 192.234 547.727 192.234C546.711 192.234 545.812 192.055 545.031 191.695C544.25 191.336 543.637 190.836 543.191 190.195C542.754 189.547 542.535 188.848 542.535 188.098H544.703C544.742 188.824 545.031 189.402 545.57 189.832C546.117 190.254 546.836 190.465 547.727 190.465C548.547 190.465 549.203 190.301 549.695 189.973C550.195 189.637 550.445 189.191 550.445 188.637Z" fill="black"/>
<path d="M375.332 183.012C374.871 182.355 374.508 181.73 374.242 181.137C373.984 180.543 373.855 179.93 373.855 179.297C373.855 177.922 374.301 176.812 375.191 175.969C376.082 175.117 377.246 174.691 378.684 174.691C379.973 174.691 381.039 175.086 381.883 175.875C382.727 176.656 383.148 177.629 383.148 178.793C383.148 180.246 382.348 181.535 380.746 182.66L379.855 183.281L382.48 186.293C382.91 185.434 383.125 184.492 383.125 183.469H386.441C386.441 185.773 385.91 187.621 384.848 189.012L387.449 192H383.043L382.246 191.098C381.59 191.488 380.918 191.777 380.23 191.965C379.551 192.152 378.781 192.246 377.922 192.246C376.234 192.246 374.883 191.805 373.867 190.922C372.852 190.031 372.344 188.863 372.344 187.418C372.344 186.629 372.543 185.914 372.941 185.273C373.348 184.633 374.133 183.887 375.297 183.035L375.332 183.012ZM378.18 189.199C378.867 189.199 379.523 189.039 380.148 188.719L377.078 185.227L376.973 185.297C376.527 185.844 376.305 186.461 376.305 187.148C376.305 187.719 376.484 188.203 376.844 188.602C377.203 189 377.648 189.199 378.18 189.199ZM377.266 179.25C377.266 179.797 377.562 180.461 378.156 181.242L378.941 180.75C379.301 180.516 379.562 180.273 379.727 180.023C379.891 179.773 379.973 179.457 379.973 179.074C379.973 178.715 379.848 178.402 379.598 178.137C379.348 177.871 379.039 177.738 378.672 177.738C378.234 177.738 377.891 177.879 377.641 178.16C377.391 178.434 377.266 178.797 377.266 179.25ZM391.504 183.012C391.043 182.355 390.68 181.73 390.414 181.137C390.156 180.543 390.027 179.93 390.027 179.297C390.027 177.922 390.473 176.812 391.363 175.969C392.254 175.117 393.418 174.691 394.855 174.691C396.145 174.691 397.211 175.086 398.055 175.875C398.898 176.656 399.32 177.629 399.32 178.793C399.32 180.246 398.52 181.535 396.918 182.66L396.027 183.281L398.652 186.293C399.082 185.434 399.297 184.492 399.297 183.469H402.613C402.613 185.773 402.082 187.621 401.02 189.012L403.621 192H399.215L398.418 191.098C397.762 191.488 397.09 191.777 396.402 191.965C395.723 192.152 394.953 192.246 394.094 192.246C392.406 192.246 391.055 191.805 390.039 190.922C389.023 190.031 388.516 188.863 388.516 187.418C388.516 186.629 388.715 185.914 389.113 185.273C389.52 184.633 390.305 183.887 391.469 183.035L391.504 183.012ZM394.352 189.199C395.039 189.199 395.695 189.039 396.32 188.719L393.25 185.227L393.145 185.297C392.699 185.844 392.477 186.461 392.477 187.148C392.477 187.719 392.656 188.203 393.016 188.602C393.375 189 393.82 189.199 394.352 189.199ZM393.438 179.25C393.438 179.797 393.734 180.461 394.328 181.242L395.113 180.75C395.473 180.516 395.734 180.273 395.898 180.023C396.062 179.773 396.145 179.457 396.145 179.074C396.145 178.715 396.02 178.402 395.77 178.137C395.52 177.871 395.211 177.738 394.844 177.738C394.406 177.738 394.062 177.879 393.812 178.16C393.562 178.434 393.438 178.797 393.438 179.25Z" fill="#9B51E0"/>
<path d="M423.754 176.789H418.27V192H416.031V176.789H410.559V174.938H423.754V176.789ZM432.543 185.098H428.535V192H426.273V174.938H431.922C433.844 174.938 435.32 175.375 436.352 176.25C437.391 177.125 437.91 178.398 437.91 180.07C437.91 181.133 437.621 182.059 437.043 182.848C436.473 183.637 435.676 184.227 434.652 184.617L438.66 191.859V192H436.246L432.543 185.098ZM428.535 183.258H431.992C433.109 183.258 433.996 182.969 434.652 182.391C435.316 181.812 435.648 181.039 435.648 180.07C435.648 179.016 435.332 178.207 434.699 177.645C434.074 177.082 433.168 176.797 431.98 176.789H428.535V183.258ZM453.086 174.938V186.539C453.078 188.148 452.57 189.465 451.562 190.488C450.562 191.512 449.203 192.086 447.484 192.211L446.887 192.234C445.02 192.234 443.531 191.73 442.422 190.723C441.312 189.715 440.75 188.328 440.734 186.562V174.938H442.961V186.492C442.961 187.727 443.301 188.688 443.98 189.375C444.66 190.055 445.629 190.395 446.887 190.395C448.16 190.395 449.133 190.055 449.805 189.375C450.484 188.695 450.824 187.738 450.824 186.504V174.938H453.086ZM466.281 184.113H458.887V190.16H467.477V192H456.637V174.938H467.359V176.789H458.887V182.273H466.281V184.113Z" fill="#219653"/>
<path d="M695.391 185.465H688.23V193H685.98V175.938H696.551V177.789H688.23V183.625H695.391V185.465ZM706.676 188.547H699.527L697.922 193H695.602L702.117 175.938H704.086L710.613 193H708.305L706.676 188.547ZM700.207 186.695H706.008L703.102 178.715L700.207 186.695ZM715.172 191.16H723.258V193H712.91V175.938H715.172V191.16ZM730.852 185.395C728.922 184.84 727.516 184.16 726.633 183.355C725.758 182.543 725.32 181.543 725.32 180.355C725.32 179.012 725.855 177.902 726.926 177.027C728.004 176.145 729.402 175.703 731.121 175.703C732.293 175.703 733.336 175.93 734.25 176.383C735.172 176.836 735.883 177.461 736.383 178.258C736.891 179.055 737.145 179.926 737.145 180.871H734.883C734.883 179.84 734.555 179.031 733.898 178.445C733.242 177.852 732.316 177.555 731.121 177.555C730.012 177.555 729.145 177.801 728.52 178.293C727.902 178.777 727.594 179.453 727.594 180.32C727.594 181.016 727.887 181.605 728.473 182.09C729.066 182.566 730.07 183.004 731.484 183.402C732.906 183.801 734.016 184.242 734.812 184.727C735.617 185.203 736.211 185.762 736.594 186.402C736.984 187.043 737.18 187.797 737.18 188.664C737.18 190.047 736.641 191.156 735.562 191.992C734.484 192.82 733.043 193.234 731.238 193.234C730.066 193.234 728.973 193.012 727.957 192.566C726.941 192.113 726.156 191.496 725.602 190.715C725.055 189.934 724.781 189.047 724.781 188.055H727.043C727.043 189.086 727.422 189.902 728.18 190.504C728.945 191.098 729.965 191.395 731.238 191.395C732.426 191.395 733.336 191.152 733.969 190.668C734.602 190.184 734.918 189.523 734.918 188.688C734.918 187.852 734.625 187.207 734.039 186.754C733.453 186.293 732.391 185.84 730.852 185.395ZM749.719 185.113H742.324V191.16H750.914V193H740.074V175.938H750.797V177.789H742.324V183.273H749.719V185.113Z" fill="#EB5757"/>
<path d="M863.836 189.824L866.789 180.32H869.109L864.012 194.957C863.223 197.066 861.969 198.121 860.25 198.121L859.84 198.086L859.031 197.934V196.176L859.617 196.223C860.352 196.223 860.922 196.074 861.328 195.777C861.742 195.48 862.082 194.938 862.348 194.148L862.828 192.859L858.305 180.32H860.672L863.836 189.824ZM873.41 193H871.242V180.32H873.41V193ZM871.066 176.957C871.066 176.605 871.172 176.309 871.383 176.066C871.602 175.824 871.922 175.703 872.344 175.703C872.766 175.703 873.086 175.824 873.305 176.066C873.523 176.309 873.633 176.605 873.633 176.957C873.633 177.309 873.523 177.602 873.305 177.836C873.086 178.07 872.766 178.188 872.344 178.188C871.922 178.188 871.602 178.07 871.383 177.836C871.172 177.602 871.066 177.309 871.066 176.957ZM882.152 193.234C880.434 193.234 879.035 192.672 877.957 191.547C876.879 190.414 876.34 188.902 876.34 187.012V186.613C876.34 185.355 876.578 184.234 877.055 183.25C877.539 182.258 878.211 181.484 879.07 180.93C879.938 180.367 880.875 180.086 881.883 180.086C883.531 180.086 884.812 180.629 885.727 181.715C886.641 182.801 887.098 184.355 887.098 186.379V187.281H878.508C878.539 188.531 878.902 189.543 879.598 190.316C880.301 191.082 881.191 191.465 882.27 191.465C883.035 191.465 883.684 191.309 884.215 190.996C884.746 190.684 885.211 190.27 885.609 189.754L886.934 190.785C885.871 192.418 884.277 193.234 882.152 193.234ZM881.883 181.867C881.008 181.867 880.273 182.188 879.68 182.828C879.086 183.461 878.719 184.352 878.578 185.5H884.93V185.336C884.867 184.234 884.57 183.383 884.039 182.781C883.508 182.172 882.789 181.867 881.883 181.867ZM891.973 193H889.805V175H891.973V193ZM894.926 186.555C894.926 184.609 895.387 183.047 896.309 181.867C897.23 180.68 898.438 180.086 899.93 180.086C901.414 180.086 902.59 180.594 903.457 181.609V175H905.625V193H903.633L903.527 191.641C902.66 192.703 901.453 193.234 899.906 193.234C898.438 193.234 897.238 192.633 896.309 191.43C895.387 190.227 894.926 188.656 894.926 186.719V186.555ZM897.094 186.801C897.094 188.238 897.391 189.363 897.984 190.176C898.578 190.988 899.398 191.395 900.445 191.395C901.82 191.395 902.824 190.777 903.457 189.543V183.719C902.809 182.523 901.812 181.926 900.469 181.926C899.406 181.926 898.578 182.336 897.984 183.156C897.391 183.977 897.094 185.191 897.094 186.801ZM916.383 189.637C916.383 189.051 916.16 188.598 915.715 188.277C915.277 187.949 914.508 187.668 913.406 187.434C912.312 187.199 911.441 186.918 910.793 186.59C910.152 186.262 909.676 185.871 909.363 185.418C909.059 184.965 908.906 184.426 908.906 183.801C908.906 182.762 909.344 181.883 910.219 181.164C911.102 180.445 912.227 180.086 913.594 180.086C915.031 180.086 916.195 180.457 917.086 181.199C917.984 181.941 918.434 182.891 918.434 184.047H916.254C916.254 183.453 916 182.941 915.492 182.512C914.992 182.082 914.359 181.867 913.594 181.867C912.805 181.867 912.188 182.039 911.742 182.383C911.297 182.727 911.074 183.176 911.074 183.73C911.074 184.254 911.281 184.648 911.695 184.914C912.109 185.18 912.855 185.434 913.934 185.676C915.02 185.918 915.898 186.207 916.57 186.543C917.242 186.879 917.738 187.285 918.059 187.762C918.387 188.23 918.551 188.805 918.551 189.484C918.551 190.617 918.098 191.527 917.191 192.215C916.285 192.895 915.109 193.234 913.664 193.234C912.648 193.234 911.75 193.055 910.969 192.695C910.188 192.336 909.574 191.836 909.129 191.195C908.691 190.547 908.473 189.848 908.473 189.098H910.641C910.68 189.824 910.969 190.402 911.508 190.832C912.055 191.254 912.773 191.465 913.664 191.465C914.484 191.465 915.141 191.301 915.633 190.973C916.133 190.637 916.383 190.191 916.383 189.637Z" fill="black"/>
<path d="M761.859 196.164H759.703V175.938H761.859V196.164ZM768 196.164H765.844V175.938H768V196.164Z" fill="#9B51E0"/>
<path d="M789.691 177.789H784.207V193H781.969V177.789H776.496V175.938H789.691V177.789ZM798.48 186.098H794.473V193H792.211V175.938H797.859C799.781 175.938 801.258 176.375 802.289 177.25C803.328 178.125 803.848 179.398 803.848 181.07C803.848 182.133 803.559 183.059 802.98 183.848C802.41 184.637 801.613 185.227 800.59 185.617L804.598 192.859V193H802.184L798.48 186.098ZM794.473 184.258H797.93C799.047 184.258 799.934 183.969 800.59 183.391C801.254 182.812 801.586 182.039 801.586 181.07C801.586 180.016 801.27 179.207 800.637 178.645C800.012 178.082 799.105 177.797 797.918 177.789H794.473V184.258ZM819.023 175.938V187.539C819.016 189.148 818.508 190.465 817.5 191.488C816.5 192.512 815.141 193.086 813.422 193.211L812.824 193.234C810.957 193.234 809.469 192.73 808.359 191.723C807.25 190.715 806.688 189.328 806.672 187.562V175.938H808.898V187.492C808.898 188.727 809.238 189.688 809.918 190.375C810.598 191.055 811.566 191.395 812.824 191.395C814.098 191.395 815.07 191.055 815.742 190.375C816.422 189.695 816.762 188.738 816.762 187.504V175.938H819.023ZM832.219 185.113H824.824V191.16H833.414V193H822.574V175.938H833.297V177.789H824.824V183.273H832.219V185.113ZM945.41 177.789H939.926V193H937.688V177.789H932.215V175.938H945.41V177.789ZM954.199 186.098H950.191V193H947.93V175.938H953.578C955.5 175.938 956.977 176.375 958.008 177.25C959.047 178.125 959.566 179.398 959.566 181.07C959.566 182.133 959.277 183.059 958.699 183.848C958.129 184.637 957.332 185.227 956.309 185.617L960.316 192.859V193H957.902L954.199 186.098ZM950.191 184.258H953.648C954.766 184.258 955.652 183.969 956.309 183.391C956.973 182.812 957.305 182.039 957.305 181.07C957.305 180.016 956.988 179.207 956.355 178.645C955.73 178.082 954.824 177.797 953.637 177.789H950.191V184.258ZM974.742 175.938V187.539C974.734 189.148 974.227 190.465 973.219 191.488C972.219 192.512 970.859 193.086 969.141 193.211L968.543 193.234C966.676 193.234 965.188 192.73 964.078 191.723C962.969 190.715 962.406 189.328 962.391 187.562V175.938H964.617V187.492C964.617 188.727 964.957 189.688 965.637 190.375C966.316 191.055 967.285 191.395 968.543 191.395C969.816 191.395 970.789 191.055 971.461 190.375C972.141 189.695 972.48 188.738 972.48 187.504V175.938H974.742ZM987.938 185.113H980.543V191.16H989.133V193H978.293V175.938H989.016V177.789H980.543V183.273H987.938V185.113Z" fill="#219653"/>
<path d="M311.77 124.789H306.285V140H304.047V124.789H298.574V122.938H311.77V124.789ZM320.559 133.098H316.551V140H314.289V122.938H319.938C321.859 122.938 323.336 123.375 324.367 124.25C325.406 125.125 325.926 126.398 325.926 128.07C325.926 129.133 325.637 130.059 325.059 130.848C324.488 131.637 323.691 132.227 322.668 132.617L326.676 139.859V140H324.262L320.559 133.098ZM316.551 131.258H320.008C321.125 131.258 322.012 130.969 322.668 130.391C323.332 129.812 323.664 129.039 323.664 128.07C323.664 127.016 323.348 126.207 322.715 125.645C322.09 125.082 321.184 124.797 319.996 124.789H316.551V131.258ZM341.102 122.938V134.539C341.094 136.148 340.586 137.465 339.578 138.488C338.578 139.512 337.219 140.086 335.5 140.211L334.902 140.234C333.035 140.234 331.547 139.73 330.438 138.723C329.328 137.715 328.766 136.328 328.75 134.562V122.938H330.977V134.492C330.977 135.727 331.316 136.688 331.996 137.375C332.676 138.055 333.645 138.395 334.902 138.395C336.176 138.395 337.148 138.055 337.82 137.375C338.5 136.695 338.84 135.738 338.84 134.504V122.938H341.102ZM354.297 132.113H346.902V138.16H355.492V140H344.652V122.938H355.375V124.789H346.902V130.273H354.297V132.113Z" fill="#219653"/>
<path d="M497.898 136.824L500.852 127.32H503.172L498.074 141.957C497.285 144.066 496.031 145.121 494.312 145.121L493.902 145.086L493.094 144.934V143.176L493.68 143.223C494.414 143.223 494.984 143.074 495.391 142.777C495.805 142.48 496.145 141.938 496.41 141.148L496.891 139.859L492.367 127.32H494.734L497.898 136.824ZM507.473 140H505.305V127.32H507.473V140ZM505.129 123.957C505.129 123.605 505.234 123.309 505.445 123.066C505.664 122.824 505.984 122.703 506.406 122.703C506.828 122.703 507.148 122.824 507.367 123.066C507.586 123.309 507.695 123.605 507.695 123.957C507.695 124.309 507.586 124.602 507.367 124.836C507.148 125.07 506.828 125.188 506.406 125.188C505.984 125.188 505.664 125.07 505.445 124.836C505.234 124.602 505.129 124.309 505.129 123.957ZM516.215 140.234C514.496 140.234 513.098 139.672 512.02 138.547C510.941 137.414 510.402 135.902 510.402 134.012V133.613C510.402 132.355 510.641 131.234 511.117 130.25C511.602 129.258 512.273 128.484 513.133 127.93C514 127.367 514.938 127.086 515.945 127.086C517.594 127.086 518.875 127.629 519.789 128.715C520.703 129.801 521.16 131.355 521.16 133.379V134.281H512.57C512.602 135.531 512.965 136.543 513.66 137.316C514.363 138.082 515.254 138.465 516.332 138.465C517.098 138.465 517.746 138.309 518.277 137.996C518.809 137.684 519.273 137.27 519.672 136.754L520.996 137.785C519.934 139.418 518.34 140.234 516.215 140.234ZM515.945 128.867C515.07 128.867 514.336 129.188 513.742 129.828C513.148 130.461 512.781 131.352 512.641 132.5H518.992V132.336C518.93 131.234 518.633 130.383 518.102 129.781C517.57 129.172 516.852 128.867 515.945 128.867ZM526.035 140H523.867V122H526.035V140ZM528.988 133.555C528.988 131.609 529.449 130.047 530.371 128.867C531.293 127.68 532.5 127.086 533.992 127.086C535.477 127.086 536.652 127.594 537.52 128.609V122H539.688V140H537.695L537.59 138.641C536.723 139.703 535.516 140.234 533.969 140.234C532.5 140.234 531.301 139.633 530.371 138.43C529.449 137.227 528.988 135.656 528.988 133.719V133.555ZM531.156 133.801C531.156 135.238 531.453 136.363 532.047 137.176C532.641 137.988 533.461 138.395 534.508 138.395C535.883 138.395 536.887 137.777 537.52 136.543V130.719C536.871 129.523 535.875 128.926 534.531 128.926C533.469 128.926 532.641 129.336 532.047 130.156C531.453 130.977 531.156 132.191 531.156 133.801ZM550.445 136.637C550.445 136.051 550.223 135.598 549.777 135.277C549.34 134.949 548.57 134.668 547.469 134.434C546.375 134.199 545.504 133.918 544.855 133.59C544.215 133.262 543.738 132.871 543.426 132.418C543.121 131.965 542.969 131.426 542.969 130.801C542.969 129.762 543.406 128.883 544.281 128.164C545.164 127.445 546.289 127.086 547.656 127.086C549.094 127.086 550.258 127.457 551.148 128.199C552.047 128.941 552.496 129.891 552.496 131.047H550.316C550.316 130.453 550.062 129.941 549.555 129.512C549.055 129.082 548.422 128.867 547.656 128.867C546.867 128.867 546.25 129.039 545.805 129.383C545.359 129.727 545.137 130.176 545.137 130.73C545.137 131.254 545.344 131.648 545.758 131.914C546.172 132.18 546.918 132.434 547.996 132.676C549.082 132.918 549.961 133.207 550.633 133.543C551.305 133.879 551.801 134.285 552.121 134.762C552.449 135.23 552.613 135.805 552.613 136.484C552.613 137.617 552.16 138.527 551.254 139.215C550.348 139.895 549.172 140.234 547.727 140.234C546.711 140.234 545.812 140.055 545.031 139.695C544.25 139.336 543.637 138.836 543.191 138.195C542.754 137.547 542.535 136.848 542.535 136.098H544.703C544.742 136.824 545.031 137.402 545.57 137.832C546.117 138.254 546.836 138.465 547.727 138.465C548.547 138.465 549.203 138.301 549.695 137.973C550.195 137.637 550.445 137.191 550.445 136.637Z" fill="black"/>
<path d="M365.91 131.012C365.449 130.355 365.086 129.73 364.82 129.137C364.562 128.543 364.434 127.93 364.434 127.297C364.434 125.922 364.879 124.812 365.77 123.969C366.66 123.117 367.824 122.691 369.262 122.691C370.551 122.691 371.617 123.086 372.461 123.875C373.305 124.656 373.727 125.629 373.727 126.793C373.727 128.246 372.926 129.535 371.324 130.66L370.434 131.281L373.059 134.293C373.488 133.434 373.703 132.492 373.703 131.469H377.02C377.02 133.773 376.488 135.621 375.426 137.012L378.027 140H373.621L372.824 139.098C372.168 139.488 371.496 139.777 370.809 139.965C370.129 140.152 369.359 140.246 368.5 140.246C366.812 140.246 365.461 139.805 364.445 138.922C363.43 138.031 362.922 136.863 362.922 135.418C362.922 134.629 363.121 133.914 363.52 133.273C363.926 132.633 364.711 131.887 365.875 131.035L365.91 131.012ZM368.758 137.199C369.445 137.199 370.102 137.039 370.727 136.719L367.656 133.227L367.551 133.297C367.105 133.844 366.883 134.461 366.883 135.148C366.883 135.719 367.062 136.203 367.422 136.602C367.781 137 368.227 137.199 368.758 137.199ZM367.844 127.25C367.844 127.797 368.141 128.461 368.734 129.242L369.52 128.75C369.879 128.516 370.141 128.273 370.305 128.023C370.469 127.773 370.551 127.457 370.551 127.074C370.551 126.715 370.426 126.402 370.176 126.137C369.926 125.871 369.617 125.738 369.25 125.738C368.812 125.738 368.469 125.879 368.219 126.16C367.969 126.434 367.844 126.797 367.844 127.25ZM382.082 131.012C381.621 130.355 381.258 129.73 380.992 129.137C380.734 128.543 380.605 127.93 380.605 127.297C380.605 125.922 381.051 124.812 381.941 123.969C382.832 123.117 383.996 122.691 385.434 122.691C386.723 122.691 387.789 123.086 388.633 123.875C389.477 124.656 389.898 125.629 389.898 126.793C389.898 128.246 389.098 129.535 387.496 130.66L386.605 131.281L389.23 134.293C389.66 133.434 389.875 132.492 389.875 131.469H393.191C393.191 133.773 392.66 135.621 391.598 137.012L394.199 140H389.793L388.996 139.098C388.34 139.488 387.668 139.777 386.98 139.965C386.301 140.152 385.531 140.246 384.672 140.246C382.984 140.246 381.633 139.805 380.617 138.922C379.602 138.031 379.094 136.863 379.094 135.418C379.094 134.629 379.293 133.914 379.691 133.273C380.098 132.633 380.883 131.887 382.047 131.035L382.082 131.012ZM384.93 137.199C385.617 137.199 386.273 137.039 386.898 136.719L383.828 133.227L383.723 133.297C383.277 133.844 383.055 134.461 383.055 135.148C383.055 135.719 383.234 136.203 383.594 136.602C383.953 137 384.398 137.199 384.93 137.199ZM384.016 127.25C384.016 127.797 384.312 128.461 384.906 129.242L385.691 128.75C386.051 128.516 386.312 128.273 386.477 128.023C386.641 127.773 386.723 127.457 386.723 127.074C386.723 126.715 386.598 126.402 386.348 126.137C386.098 125.871 385.789 125.738 385.422 125.738C384.984 125.738 384.641 125.879 384.391 126.16C384.141 126.434 384.016 126.797 384.016 127.25Z" fill="#9B51E0"/>
<path d="M411.953 132.465H404.793V140H402.543V122.938H413.113V124.789H404.793V130.625H411.953V132.465ZM423.238 135.547H416.09L414.484 140H412.164L418.68 122.938H420.648L427.176 140H424.867L423.238 135.547ZM416.77 133.695H422.57L419.664 125.715L416.77 133.695ZM431.734 138.16H439.82V140H429.473V122.938H431.734V138.16ZM447.414 132.395C445.484 131.84 444.078 131.16 443.195 130.355C442.32 129.543 441.883 128.543 441.883 127.355C441.883 126.012 442.418 124.902 443.488 124.027C444.566 123.145 445.965 122.703 447.684 122.703C448.855 122.703 449.898 122.93 450.812 123.383C451.734 123.836 452.445 124.461 452.945 125.258C453.453 126.055 453.707 126.926 453.707 127.871H451.445C451.445 126.84 451.117 126.031 450.461 125.445C449.805 124.852 448.879 124.555 447.684 124.555C446.574 124.555 445.707 124.801 445.082 125.293C444.465 125.777 444.156 126.453 444.156 127.32C444.156 128.016 444.449 128.605 445.035 129.09C445.629 129.566 446.633 130.004 448.047 130.402C449.469 130.801 450.578 131.242 451.375 131.727C452.18 132.203 452.773 132.762 453.156 133.402C453.547 134.043 453.742 134.797 453.742 135.664C453.742 137.047 453.203 138.156 452.125 138.992C451.047 139.82 449.605 140.234 447.801 140.234C446.629 140.234 445.535 140.012 444.52 139.566C443.504 139.113 442.719 138.496 442.164 137.715C441.617 136.934 441.344 136.047 441.344 135.055H443.605C443.605 136.086 443.984 136.902 444.742 137.504C445.508 138.098 446.527 138.395 447.801 138.395C448.988 138.395 449.898 138.152 450.531 137.668C451.164 137.184 451.48 136.523 451.48 135.688C451.48 134.852 451.188 134.207 450.602 133.754C450.016 133.293 448.953 132.84 447.414 132.395ZM466.281 132.113H458.887V138.16H467.477V140H456.637V122.938H467.359V124.789H458.887V130.273H466.281V132.113ZM577.094 132.465H569.934V140H567.684V122.938H578.254V124.789H569.934V130.625H577.094V132.465ZM588.379 135.547H581.23L579.625 140H577.305L583.82 122.938H585.789L592.316 140H590.008L588.379 135.547ZM581.91 133.695H587.711L584.805 125.715L581.91 133.695ZM596.875 138.16H604.961V140H594.613V122.938H596.875V138.16ZM612.555 132.395C610.625 131.84 609.219 131.16 608.336 130.355C607.461 129.543 607.023 128.543 607.023 127.355C607.023 126.012 607.559 124.902 608.629 124.027C609.707 123.145 611.105 122.703 612.824 122.703C613.996 122.703 615.039 122.93 615.953 123.383C616.875 123.836 617.586 124.461 618.086 125.258C618.594 126.055 618.848 126.926 618.848 127.871H616.586C616.586 126.84 616.258 126.031 615.602 125.445C614.945 124.852 614.02 124.555 612.824 124.555C611.715 124.555 610.848 124.801 610.223 125.293C609.605 125.777 609.297 126.453 609.297 127.32C609.297 128.016 609.59 128.605 610.176 129.09C610.77 129.566 611.773 130.004 613.188 130.402C614.609 130.801 615.719 131.242 616.516 131.727C617.32 132.203 617.914 132.762 618.297 133.402C618.688 134.043 618.883 134.797 618.883 135.664C618.883 137.047 618.344 138.156 617.266 138.992C616.188 139.82 614.746 140.234 612.941 140.234C611.77 140.234 610.676 140.012 609.66 139.566C608.645 139.113 607.859 138.496 607.305 137.715C606.758 136.934 606.484 136.047 606.484 135.055H608.746C608.746 136.086 609.125 136.902 609.883 137.504C610.648 138.098 611.668 138.395 612.941 138.395C614.129 138.395 615.039 138.152 615.672 137.668C616.305 137.184 616.621 136.523 616.621 135.688C616.621 134.852 616.328 134.207 615.742 133.754C615.156 133.293 614.094 132.84 612.555 132.395ZM631.422 132.113H624.027V138.16H632.617V140H621.777V122.938H632.5V124.789H624.027V130.273H631.422V132.113Z" fill="#EB5757"/>
<path d="M697.77 125.789H692.285V141H690.047V125.789H684.574V123.938H697.77V125.789ZM706.559 134.098H702.551V141H700.289V123.938H705.938C707.859 123.938 709.336 124.375 710.367 125.25C711.406 126.125 711.926 127.398 711.926 129.07C711.926 130.133 711.637 131.059 711.059 131.848C710.488 132.637 709.691 133.227 708.668 133.617L712.676 140.859V141H710.262L706.559 134.098ZM702.551 132.258H706.008C707.125 132.258 708.012 131.969 708.668 131.391C709.332 130.812 709.664 130.039 709.664 129.07C709.664 128.016 709.348 127.207 708.715 126.645C708.09 126.082 707.184 125.797 705.996 125.789H702.551V132.258ZM727.102 123.938V135.539C727.094 137.148 726.586 138.465 725.578 139.488C724.578 140.512 723.219 141.086 721.5 141.211L720.902 141.234C719.035 141.234 717.547 140.73 716.438 139.723C715.328 138.715 714.766 137.328 714.75 135.562V123.938H716.977V135.492C716.977 136.727 717.316 137.688 717.996 138.375C718.676 139.055 719.645 139.395 720.902 139.395C722.176 139.395 723.148 139.055 723.82 138.375C724.5 137.695 724.84 136.738 724.84 135.504V123.938H727.102ZM740.297 133.113H732.902V139.16H741.492V141H730.652V123.938H741.375V125.789H732.902V131.273H740.297V133.113ZM945.41 125.789H939.926V141H937.688V125.789H932.215V123.938H945.41V125.789ZM954.199 134.098H950.191V141H947.93V123.938H953.578C955.5 123.938 956.977 124.375 958.008 125.25C959.047 126.125 959.566 127.398 959.566 129.07C959.566 130.133 959.277 131.059 958.699 131.848C958.129 132.637 957.332 133.227 956.309 133.617L960.316 140.859V141H957.902L954.199 134.098ZM950.191 132.258H953.648C954.766 132.258 955.652 131.969 956.309 131.391C956.973 130.812 957.305 130.039 957.305 129.07C957.305 128.016 956.988 127.207 956.355 126.645C955.73 126.082 954.824 125.797 953.637 125.789H950.191V132.258ZM974.742 123.938V135.539C974.734 137.148 974.227 138.465 973.219 139.488C972.219 140.512 970.859 141.086 969.141 141.211L968.543 141.234C966.676 141.234 965.188 140.73 964.078 139.723C962.969 138.715 962.406 137.328 962.391 135.562V123.938H964.617V135.492C964.617 136.727 964.957 137.688 965.637 138.375C966.316 139.055 967.285 139.395 968.543 139.395C969.816 139.395 970.789 139.055 971.461 138.375C972.141 137.695 972.48 136.738 972.48 135.504V123.938H974.742ZM987.938 133.113H980.543V139.16H989.133V141H978.293V123.938H989.016V125.789H980.543V131.273H987.938V133.113Z" fill="#219653"/>
<path d="M863.836 137.824L866.789 128.32H869.109L864.012 142.957C863.223 145.066 861.969 146.121 860.25 146.121L859.84 146.086L859.031 145.934V144.176L859.617 144.223C860.352 144.223 860.922 144.074 861.328 143.777C861.742 143.48 862.082 142.938 862.348 142.148L862.828 140.859L858.305 128.32H860.672L863.836 137.824ZM873.41 141H871.242V128.32H873.41V141ZM871.066 124.957C871.066 124.605 871.172 124.309 871.383 124.066C871.602 123.824 871.922 123.703 872.344 123.703C872.766 123.703 873.086 123.824 873.305 124.066C873.523 124.309 873.633 124.605 873.633 124.957C873.633 125.309 873.523 125.602 873.305 125.836C873.086 126.07 872.766 126.188 872.344 126.188C871.922 126.188 871.602 126.07 871.383 125.836C871.172 125.602 871.066 125.309 871.066 124.957ZM882.152 141.234C880.434 141.234 879.035 140.672 877.957 139.547C876.879 138.414 876.34 136.902 876.34 135.012V134.613C876.34 133.355 876.578 132.234 877.055 131.25C877.539 130.258 878.211 129.484 879.07 128.93C879.938 128.367 880.875 128.086 881.883 128.086C883.531 128.086 884.812 128.629 885.727 129.715C886.641 130.801 887.098 132.355 887.098 134.379V135.281H878.508C878.539 136.531 878.902 137.543 879.598 138.316C880.301 139.082 881.191 139.465 882.27 139.465C883.035 139.465 883.684 139.309 884.215 138.996C884.746 138.684 885.211 138.27 885.609 137.754L886.934 138.785C885.871 140.418 884.277 141.234 882.152 141.234ZM881.883 129.867C881.008 129.867 880.273 130.188 879.68 130.828C879.086 131.461 878.719 132.352 878.578 133.5H884.93V133.336C884.867 132.234 884.57 131.383 884.039 130.781C883.508 130.172 882.789 129.867 881.883 129.867ZM891.973 141H889.805V123H891.973V141ZM894.926 134.555C894.926 132.609 895.387 131.047 896.309 129.867C897.23 128.68 898.438 128.086 899.93 128.086C901.414 128.086 902.59 128.594 903.457 129.609V123H905.625V141H903.633L903.527 139.641C902.66 140.703 901.453 141.234 899.906 141.234C898.438 141.234 897.238 140.633 896.309 139.43C895.387 138.227 894.926 136.656 894.926 134.719V134.555ZM897.094 134.801C897.094 136.238 897.391 137.363 897.984 138.176C898.578 138.988 899.398 139.395 900.445 139.395C901.82 139.395 902.824 138.777 903.457 137.543V131.719C902.809 130.523 901.812 129.926 900.469 129.926C899.406 129.926 898.578 130.336 897.984 131.156C897.391 131.977 897.094 133.191 897.094 134.801ZM916.383 137.637C916.383 137.051 916.16 136.598 915.715 136.277C915.277 135.949 914.508 135.668 913.406 135.434C912.312 135.199 911.441 134.918 910.793 134.59C910.152 134.262 909.676 133.871 909.363 133.418C909.059 132.965 908.906 132.426 908.906 131.801C908.906 130.762 909.344 129.883 910.219 129.164C911.102 128.445 912.227 128.086 913.594 128.086C915.031 128.086 916.195 128.457 917.086 129.199C917.984 129.941 918.434 130.891 918.434 132.047H916.254C916.254 131.453 916 130.941 915.492 130.512C914.992 130.082 914.359 129.867 913.594 129.867C912.805 129.867 912.188 130.039 911.742 130.383C911.297 130.727 911.074 131.176 911.074 131.73C911.074 132.254 911.281 132.648 911.695 132.914C912.109 133.18 912.855 133.434 913.934 133.676C915.02 133.918 915.898 134.207 916.57 134.543C917.242 134.879 917.738 135.285 918.059 135.762C918.387 136.23 918.551 136.805 918.551 137.484C918.551 138.617 918.098 139.527 917.191 140.215C916.285 140.895 915.109 141.234 913.664 141.234C912.648 141.234 911.75 141.055 910.969 140.695C910.188 140.336 909.574 139.836 909.129 139.195C908.691 138.547 908.473 137.848 908.473 137.098H910.641C910.68 137.824 910.969 138.402 911.508 138.832C912.055 139.254 912.773 139.465 913.664 139.465C914.484 139.465 915.141 139.301 915.633 138.973C916.133 138.637 916.383 138.191 916.383 137.637Z" fill="black"/>
<path d="M752.438 144.164H750.281V123.938H752.438V144.164ZM758.578 144.164H756.422V123.938H758.578V144.164Z" fill="#9B51E0"/>
<path d="M777.891 133.465H770.73V141H768.48V123.938H779.051V125.789H770.73V131.625H777.891V133.465ZM789.176 136.547H782.027L780.422 141H778.102L784.617 123.938H786.586L793.113 141H790.805L789.176 136.547ZM782.707 134.695H788.508L785.602 126.715L782.707 134.695ZM797.672 139.16H805.758V141H795.41V123.938H797.672V139.16ZM813.352 133.395C811.422 132.84 810.016 132.16 809.133 131.355C808.258 130.543 807.82 129.543 807.82 128.355C807.82 127.012 808.355 125.902 809.426 125.027C810.504 124.145 811.902 123.703 813.621 123.703C814.793 123.703 815.836 123.93 816.75 124.383C817.672 124.836 818.383 125.461 818.883 126.258C819.391 127.055 819.645 127.926 819.645 128.871H817.383C817.383 127.84 817.055 127.031 816.398 126.445C815.742 125.852 814.816 125.555 813.621 125.555C812.512 125.555 811.645 125.801 811.02 126.293C810.402 126.777 810.094 127.453 810.094 128.32C810.094 129.016 810.387 129.605 810.973 130.09C811.566 130.566 812.57 131.004 813.984 131.402C815.406 131.801 816.516 132.242 817.312 132.727C818.117 133.203 818.711 133.762 819.094 134.402C819.484 135.043 819.68 135.797 819.68 136.664C819.68 138.047 819.141 139.156 818.062 139.992C816.984 140.82 815.543 141.234 813.738 141.234C812.566 141.234 811.473 141.012 810.457 140.566C809.441 140.113 808.656 139.496 808.102 138.715C807.555 137.934 807.281 137.047 807.281 136.055H809.543C809.543 137.086 809.922 137.902 810.68 138.504C811.445 139.098 812.465 139.395 813.738 139.395C814.926 139.395 815.836 139.152 816.469 138.668C817.102 138.184 817.418 137.523 817.418 136.688C817.418 135.852 817.125 135.207 816.539 134.754C815.953 134.293 814.891 133.84 813.352 133.395ZM832.219 133.113H824.824V139.16H833.414V141H822.574V123.938H833.297V125.789H824.824V131.273H832.219V133.113Z" fill="#EB5757"/>
<path d="M309.391 237.465H302.23V245H299.98V227.938H310.551V229.789H302.23V235.625H309.391V237.465ZM320.676 240.547H313.527L311.922 245H309.602L316.117 227.938H318.086L324.613 245H322.305L320.676 240.547ZM314.207 238.695H320.008L317.102 230.715L314.207 238.695ZM329.172 243.16H337.258V245H326.91V227.938H329.172V243.16ZM344.852 237.395C342.922 236.84 341.516 236.16 340.633 235.355C339.758 234.543 339.32 233.543 339.32 232.355C339.32 231.012 339.855 229.902 340.926 229.027C342.004 228.145 343.402 227.703 345.121 227.703C346.293 227.703 347.336 227.93 348.25 228.383C349.172 228.836 349.883 229.461 350.383 230.258C350.891 231.055 351.145 231.926 351.145 232.871H348.883C348.883 231.84 348.555 231.031 347.898 230.445C347.242 229.852 346.316 229.555 345.121 229.555C344.012 229.555 343.145 229.801 342.52 230.293C341.902 230.777 341.594 231.453 341.594 232.32C341.594 233.016 341.887 233.605 342.473 234.09C343.066 234.566 344.07 235.004 345.484 235.402C346.906 235.801 348.016 236.242 348.812 236.727C349.617 237.203 350.211 237.762 350.594 238.402C350.984 239.043 351.18 239.797 351.18 240.664C351.18 242.047 350.641 243.156 349.562 243.992C348.484 244.82 347.043 245.234 345.238 245.234C344.066 245.234 342.973 245.012 341.957 244.566C340.941 244.113 340.156 243.496 339.602 242.715C339.055 241.934 338.781 241.047 338.781 240.055H341.043C341.043 241.086 341.422 241.902 342.18 242.504C342.945 243.098 343.965 243.395 345.238 243.395C346.426 243.395 347.336 243.152 347.969 242.668C348.602 242.184 348.918 241.523 348.918 240.688C348.918 239.852 348.625 239.207 348.039 238.754C347.453 238.293 346.391 237.84 344.852 237.395ZM363.719 237.113H356.324V243.16H364.914V245H354.074V227.938H364.797V229.789H356.324V235.273H363.719V237.113ZM421.375 237.465H414.215V245H411.965V227.938H422.535V229.789H414.215V235.625H421.375V237.465ZM432.66 240.547H425.512L423.906 245H421.586L428.102 227.938H430.07L436.598 245H434.289L432.66 240.547ZM426.191 238.695H431.992L429.086 230.715L426.191 238.695ZM441.156 243.16H449.242V245H438.895V227.938H441.156V243.16ZM456.836 237.395C454.906 236.84 453.5 236.16 452.617 235.355C451.742 234.543 451.305 233.543 451.305 232.355C451.305 231.012 451.84 229.902 452.91 229.027C453.988 228.145 455.387 227.703 457.105 227.703C458.277 227.703 459.32 227.93 460.234 228.383C461.156 228.836 461.867 229.461 462.367 230.258C462.875 231.055 463.129 231.926 463.129 232.871H460.867C460.867 231.84 460.539 231.031 459.883 230.445C459.227 229.852 458.301 229.555 457.105 229.555C455.996 229.555 455.129 229.801 454.504 230.293C453.887 230.777 453.578 231.453 453.578 232.32C453.578 233.016 453.871 233.605 454.457 234.09C455.051 234.566 456.055 235.004 457.469 235.402C458.891 235.801 460 236.242 460.797 236.727C461.602 237.203 462.195 237.762 462.578 238.402C462.969 239.043 463.164 239.797 463.164 240.664C463.164 242.047 462.625 243.156 461.547 243.992C460.469 244.82 459.027 245.234 457.223 245.234C456.051 245.234 454.957 245.012 453.941 244.566C452.926 244.113 452.141 243.496 451.586 242.715C451.039 241.934 450.766 241.047 450.766 240.055H453.027C453.027 241.086 453.406 241.902 454.164 242.504C454.93 243.098 455.949 243.395 457.223 243.395C458.41 243.395 459.32 243.152 459.953 242.668C460.586 242.184 460.902 241.523 460.902 240.688C460.902 239.852 460.609 239.207 460.023 238.754C459.438 238.293 458.375 237.84 456.836 237.395ZM475.703 237.113H468.309V243.16H476.898V245H466.059V227.938H476.781V229.789H468.309V235.273H475.703V237.113ZM574.609 237.465H567.449V245H565.199V227.938H575.77V229.789H567.449V235.625H574.609V237.465ZM585.895 240.547H578.746L577.141 245H574.82L581.336 227.938H583.305L589.832 245H587.523L585.895 240.547ZM579.426 238.695H585.227L582.32 230.715L579.426 238.695ZM594.391 243.16H602.477V245H592.129V227.938H594.391V243.16ZM610.07 237.395C608.141 236.84 606.734 236.16 605.852 235.355C604.977 234.543 604.539 233.543 604.539 232.355C604.539 231.012 605.074 229.902 606.145 229.027C607.223 228.145 608.621 227.703 610.34 227.703C611.512 227.703 612.555 227.93 613.469 228.383C614.391 228.836 615.102 229.461 615.602 230.258C616.109 231.055 616.363 231.926 616.363 232.871H614.102C614.102 231.84 613.773 231.031 613.117 230.445C612.461 229.852 611.535 229.555 610.34 229.555C609.23 229.555 608.363 229.801 607.738 230.293C607.121 230.777 606.812 231.453 606.812 232.32C606.812 233.016 607.105 233.605 607.691 234.09C608.285 234.566 609.289 235.004 610.703 235.402C612.125 235.801 613.234 236.242 614.031 236.727C614.836 237.203 615.43 237.762 615.812 238.402C616.203 239.043 616.398 239.797 616.398 240.664C616.398 242.047 615.859 243.156 614.781 243.992C613.703 244.82 612.262 245.234 610.457 245.234C609.285 245.234 608.191 245.012 607.176 244.566C606.16 244.113 605.375 243.496 604.82 242.715C604.273 241.934 604 241.047 604 240.055H606.262C606.262 241.086 606.641 241.902 607.398 242.504C608.164 243.098 609.184 243.395 610.457 243.395C611.645 243.395 612.555 243.152 613.188 242.668C613.82 242.184 614.137 241.523 614.137 240.688C614.137 239.852 613.844 239.207 613.258 238.754C612.672 238.293 611.609 237.84 610.07 237.395ZM628.938 237.113H621.543V243.16H630.133V245H619.293V227.938H630.016V229.789H621.543V235.273H628.938V237.113Z" fill="#EB5757"/>
<path d="M495.414 241.824L498.367 232.32H500.688L495.59 246.957C494.801 249.066 493.547 250.121 491.828 250.121L491.418 250.086L490.609 249.934V248.176L491.195 248.223C491.93 248.223 492.5 248.074 492.906 247.777C493.32 247.48 493.66 246.938 493.926 246.148L494.406 244.859L489.883 232.32H492.25L495.414 241.824ZM504.988 245H502.82V232.32H504.988V245ZM502.645 228.957C502.645 228.605 502.75 228.309 502.961 228.066C503.18 227.824 503.5 227.703 503.922 227.703C504.344 227.703 504.664 227.824 504.883 228.066C505.102 228.309 505.211 228.605 505.211 228.957C505.211 229.309 505.102 229.602 504.883 229.836C504.664 230.07 504.344 230.188 503.922 230.188C503.5 230.188 503.18 230.07 502.961 229.836C502.75 229.602 502.645 229.309 502.645 228.957ZM513.73 245.234C512.012 245.234 510.613 244.672 509.535 243.547C508.457 242.414 507.918 240.902 507.918 239.012V238.613C507.918 237.355 508.156 236.234 508.633 235.25C509.117 234.258 509.789 233.484 510.648 232.93C511.516 232.367 512.453 232.086 513.461 232.086C515.109 232.086 516.391 232.629 517.305 233.715C518.219 234.801 518.676 236.355 518.676 238.379V239.281H510.086C510.117 240.531 510.48 241.543 511.176 242.316C511.879 243.082 512.77 243.465 513.848 243.465C514.613 243.465 515.262 243.309 515.793 242.996C516.324 242.684 516.789 242.27 517.188 241.754L518.512 242.785C517.449 244.418 515.855 245.234 513.73 245.234ZM513.461 233.867C512.586 233.867 511.852 234.188 511.258 234.828C510.664 235.461 510.297 236.352 510.156 237.5H516.508V237.336C516.445 236.234 516.148 235.383 515.617 234.781C515.086 234.172 514.367 233.867 513.461 233.867ZM523.551 245H521.383V227H523.551V245ZM526.504 238.555C526.504 236.609 526.965 235.047 527.887 233.867C528.809 232.68 530.016 232.086 531.508 232.086C532.992 232.086 534.168 232.594 535.035 233.609V227H537.203V245H535.211L535.105 243.641C534.238 244.703 533.031 245.234 531.484 245.234C530.016 245.234 528.816 244.633 527.887 243.43C526.965 242.227 526.504 240.656 526.504 238.719V238.555ZM528.672 238.801C528.672 240.238 528.969 241.363 529.562 242.176C530.156 242.988 530.977 243.395 532.023 243.395C533.398 243.395 534.402 242.777 535.035 241.543V235.719C534.387 234.523 533.391 233.926 532.047 233.926C530.984 233.926 530.156 234.336 529.562 235.156C528.969 235.977 528.672 237.191 528.672 238.801ZM547.961 241.637C547.961 241.051 547.738 240.598 547.293 240.277C546.855 239.949 546.086 239.668 544.984 239.434C543.891 239.199 543.02 238.918 542.371 238.59C541.73 238.262 541.254 237.871 540.941 237.418C540.637 236.965 540.484 236.426 540.484 235.801C540.484 234.762 540.922 233.883 541.797 233.164C542.68 232.445 543.805 232.086 545.172 232.086C546.609 232.086 547.773 232.457 548.664 233.199C549.562 233.941 550.012 234.891 550.012 236.047H547.832C547.832 235.453 547.578 234.941 547.07 234.512C546.57 234.082 545.938 233.867 545.172 233.867C544.383 233.867 543.766 234.039 543.32 234.383C542.875 234.727 542.652 235.176 542.652 235.73C542.652 236.254 542.859 236.648 543.273 236.914C543.688 237.18 544.434 237.434 545.512 237.676C546.598 237.918 547.477 238.207 548.148 238.543C548.82 238.879 549.316 239.285 549.637 239.762C549.965 240.23 550.129 240.805 550.129 241.484C550.129 242.617 549.676 243.527 548.77 244.215C547.863 244.895 546.688 245.234 545.242 245.234C544.227 245.234 543.328 245.055 542.547 244.695C541.766 244.336 541.152 243.836 540.707 243.195C540.27 242.547 540.051 241.848 540.051 241.098H542.219C542.258 241.824 542.547 242.402 543.086 242.832C543.633 243.254 544.352 243.465 545.242 243.465C546.062 243.465 546.719 243.301 547.211 242.973C547.711 242.637 547.961 242.191 547.961 241.637Z" fill="black"/>
<path d="M375.332 236.012C374.871 235.355 374.508 234.73 374.242 234.137C373.984 233.543 373.855 232.93 373.855 232.297C373.855 230.922 374.301 229.812 375.191 228.969C376.082 228.117 377.246 227.691 378.684 227.691C379.973 227.691 381.039 228.086 381.883 228.875C382.727 229.656 383.148 230.629 383.148 231.793C383.148 233.246 382.348 234.535 380.746 235.66L379.855 236.281L382.48 239.293C382.91 238.434 383.125 237.492 383.125 236.469H386.441C386.441 238.773 385.91 240.621 384.848 242.012L387.449 245H383.043L382.246 244.098C381.59 244.488 380.918 244.777 380.23 244.965C379.551 245.152 378.781 245.246 377.922 245.246C376.234 245.246 374.883 244.805 373.867 243.922C372.852 243.031 372.344 241.863 372.344 240.418C372.344 239.629 372.543 238.914 372.941 238.273C373.348 237.633 374.133 236.887 375.297 236.035L375.332 236.012ZM378.18 242.199C378.867 242.199 379.523 242.039 380.148 241.719L377.078 238.227L376.973 238.297C376.527 238.844 376.305 239.461 376.305 240.148C376.305 240.719 376.484 241.203 376.844 241.602C377.203 242 377.648 242.199 378.18 242.199ZM377.266 232.25C377.266 232.797 377.562 233.461 378.156 234.242L378.941 233.75C379.301 233.516 379.562 233.273 379.727 233.023C379.891 232.773 379.973 232.457 379.973 232.074C379.973 231.715 379.848 231.402 379.598 231.137C379.348 230.871 379.039 230.738 378.672 230.738C378.234 230.738 377.891 230.879 377.641 231.16C377.391 231.434 377.266 231.797 377.266 232.25ZM391.504 236.012C391.043 235.355 390.68 234.73 390.414 234.137C390.156 233.543 390.027 232.93 390.027 232.297C390.027 230.922 390.473 229.812 391.363 228.969C392.254 228.117 393.418 227.691 394.855 227.691C396.145 227.691 397.211 228.086 398.055 228.875C398.898 229.656 399.32 230.629 399.32 231.793C399.32 233.246 398.52 234.535 396.918 235.66L396.027 236.281L398.652 239.293C399.082 238.434 399.297 237.492 399.297 236.469H402.613C402.613 238.773 402.082 240.621 401.02 242.012L403.621 245H399.215L398.418 244.098C397.762 244.488 397.09 244.777 396.402 244.965C395.723 245.152 394.953 245.246 394.094 245.246C392.406 245.246 391.055 244.805 390.039 243.922C389.023 243.031 388.516 241.863 388.516 240.418C388.516 239.629 388.715 238.914 389.113 238.273C389.52 237.633 390.305 236.887 391.469 236.035L391.504 236.012ZM394.352 242.199C395.039 242.199 395.695 242.039 396.32 241.719L393.25 238.227L393.145 238.297C392.699 238.844 392.477 239.461 392.477 240.148C392.477 240.719 392.656 241.203 393.016 241.602C393.375 242 393.82 242.199 394.352 242.199ZM393.438 232.25C393.438 232.797 393.734 233.461 394.328 234.242L395.113 233.75C395.473 233.516 395.734 233.273 395.898 233.023C396.062 232.773 396.145 232.457 396.145 232.074C396.145 231.715 396.02 231.402 395.77 231.137C395.52 230.871 395.211 230.738 394.844 230.738C394.406 230.738 394.062 230.879 393.812 231.16C393.562 231.434 393.438 231.797 393.438 232.25Z" fill="#9B51E0"/>
<path d="M695.391 238.465H688.23V246H685.98V228.938H696.551V230.789H688.23V236.625H695.391V238.465ZM706.676 241.547H699.527L697.922 246H695.602L702.117 228.938H704.086L710.613 246H708.305L706.676 241.547ZM700.207 239.695H706.008L703.102 231.715L700.207 239.695ZM715.172 244.16H723.258V246H712.91V228.938H715.172V244.16ZM730.852 238.395C728.922 237.84 727.516 237.16 726.633 236.355C725.758 235.543 725.32 234.543 725.32 233.355C725.32 232.012 725.855 230.902 726.926 230.027C728.004 229.145 729.402 228.703 731.121 228.703C732.293 228.703 733.336 228.93 734.25 229.383C735.172 229.836 735.883 230.461 736.383 231.258C736.891 232.055 737.145 232.926 737.145 233.871H734.883C734.883 232.84 734.555 232.031 733.898 231.445C733.242 230.852 732.316 230.555 731.121 230.555C730.012 230.555 729.145 230.801 728.52 231.293C727.902 231.777 727.594 232.453 727.594 233.32C727.594 234.016 727.887 234.605 728.473 235.09C729.066 235.566 730.07 236.004 731.484 236.402C732.906 236.801 734.016 237.242 734.812 237.727C735.617 238.203 736.211 238.762 736.594 239.402C736.984 240.043 737.18 240.797 737.18 241.664C737.18 243.047 736.641 244.156 735.562 244.992C734.484 245.82 733.043 246.234 731.238 246.234C730.066 246.234 728.973 246.012 727.957 245.566C726.941 245.113 726.156 244.496 725.602 243.715C725.055 242.934 724.781 242.047 724.781 241.055H727.043C727.043 242.086 727.422 242.902 728.18 243.504C728.945 244.098 729.965 244.395 731.238 244.395C732.426 244.395 733.336 244.152 733.969 243.668C734.602 243.184 734.918 242.523 734.918 241.688C734.918 240.852 734.625 240.207 734.039 239.754C733.453 239.293 732.391 238.84 730.852 238.395ZM749.719 238.113H742.324V244.16H750.914V246H740.074V228.938H750.797V230.789H742.324V236.273H749.719V238.113ZM787.312 238.465H780.152V246H777.902V228.938H788.473V230.789H780.152V236.625H787.312V238.465ZM798.598 241.547H791.449L789.844 246H787.523L794.039 228.938H796.008L802.535 246H800.227L798.598 241.547ZM792.129 239.695H797.93L795.023 231.715L792.129 239.695ZM807.094 244.16H815.18V246H804.832V228.938H807.094V244.16ZM822.773 238.395C820.844 237.84 819.438 237.16 818.555 236.355C817.68 235.543 817.242 234.543 817.242 233.355C817.242 232.012 817.777 230.902 818.848 230.027C819.926 229.145 821.324 228.703 823.043 228.703C824.215 228.703 825.258 228.93 826.172 229.383C827.094 229.836 827.805 230.461 828.305 231.258C828.812 232.055 829.066 232.926 829.066 233.871H826.805C826.805 232.84 826.477 232.031 825.82 231.445C825.164 230.852 824.238 230.555 823.043 230.555C821.934 230.555 821.066 230.801 820.441 231.293C819.824 231.777 819.516 232.453 819.516 233.32C819.516 234.016 819.809 234.605 820.395 235.09C820.988 235.566 821.992 236.004 823.406 236.402C824.828 236.801 825.938 237.242 826.734 237.727C827.539 238.203 828.133 238.762 828.516 239.402C828.906 240.043 829.102 240.797 829.102 241.664C829.102 243.047 828.562 244.156 827.484 244.992C826.406 245.82 824.965 246.234 823.16 246.234C821.988 246.234 820.895 246.012 819.879 245.566C818.863 245.113 818.078 244.496 817.523 243.715C816.977 242.934 816.703 242.047 816.703 241.055H818.965C818.965 242.086 819.344 242.902 820.102 243.504C820.867 244.098 821.887 244.395 823.16 244.395C824.348 244.395 825.258 244.152 825.891 243.668C826.523 243.184 826.84 242.523 826.84 241.688C826.84 240.852 826.547 240.207 825.961 239.754C825.375 239.293 824.312 238.84 822.773 238.395ZM841.641 238.113H834.246V244.16H842.836V246H831.996V228.938H842.719V230.789H834.246V236.273H841.641V238.113ZM940.547 238.465H933.387V246H931.137V228.938H941.707V230.789H933.387V236.625H940.547V238.465ZM951.832 241.547H944.684L943.078 246H940.758L947.273 228.938H949.242L955.77 246H953.461L951.832 241.547ZM945.363 239.695H951.164L948.258 231.715L945.363 239.695ZM960.328 244.16H968.414V246H958.066V228.938H960.328V244.16ZM976.008 238.395C974.078 237.84 972.672 237.16 971.789 236.355C970.914 235.543 970.477 234.543 970.477 233.355C970.477 232.012 971.012 230.902 972.082 230.027C973.16 229.145 974.559 228.703 976.277 228.703C977.449 228.703 978.492 228.93 979.406 229.383C980.328 229.836 981.039 230.461 981.539 231.258C982.047 232.055 982.301 232.926 982.301 233.871H980.039C980.039 232.84 979.711 232.031 979.055 231.445C978.398 230.852 977.473 230.555 976.277 230.555C975.168 230.555 974.301 230.801 973.676 231.293C973.059 231.777 972.75 232.453 972.75 233.32C972.75 234.016 973.043 234.605 973.629 235.09C974.223 235.566 975.227 236.004 976.641 236.402C978.062 236.801 979.172 237.242 979.969 237.727C980.773 238.203 981.367 238.762 981.75 239.402C982.141 240.043 982.336 240.797 982.336 241.664C982.336 243.047 981.797 244.156 980.719 244.992C979.641 245.82 978.199 246.234 976.395 246.234C975.223 246.234 974.129 246.012 973.113 245.566C972.098 245.113 971.312 244.496 970.758 243.715C970.211 242.934 969.938 242.047 969.938 241.055H972.199C972.199 242.086 972.578 242.902 973.336 243.504C974.102 244.098 975.121 244.395 976.395 244.395C977.582 244.395 978.492 244.152 979.125 243.668C979.758 243.184 980.074 242.523 980.074 241.688C980.074 240.852 979.781 240.207 979.195 239.754C978.609 239.293 977.547 238.84 976.008 238.395ZM994.875 238.113H987.48V244.16H996.07V246H985.23V228.938H995.953V230.789H987.48V236.273H994.875V238.113Z" fill="#EB5757"/>
<path d="M861.352 242.824L864.305 233.32H866.625L861.527 247.957C860.738 250.066 859.484 251.121 857.766 251.121L857.355 251.086L856.547 250.934V249.176L857.133 249.223C857.867 249.223 858.438 249.074 858.844 248.777C859.258 248.48 859.598 247.938 859.863 247.148L860.344 245.859L855.82 233.32H858.188L861.352 242.824ZM870.926 246H868.758V233.32H870.926V246ZM868.582 229.957C868.582 229.605 868.688 229.309 868.898 229.066C869.117 228.824 869.438 228.703 869.859 228.703C870.281 228.703 870.602 228.824 870.82 229.066C871.039 229.309 871.148 229.605 871.148 229.957C871.148 230.309 871.039 230.602 870.82 230.836C870.602 231.07 870.281 231.188 869.859 231.188C869.438 231.188 869.117 231.07 868.898 230.836C868.688 230.602 868.582 230.309 868.582 229.957ZM879.668 246.234C877.949 246.234 876.551 245.672 875.473 244.547C874.395 243.414 873.855 241.902 873.855 240.012V239.613C873.855 238.355 874.094 237.234 874.57 236.25C875.055 235.258 875.727 234.484 876.586 233.93C877.453 233.367 878.391 233.086 879.398 233.086C881.047 233.086 882.328 233.629 883.242 234.715C884.156 235.801 884.613 237.355 884.613 239.379V240.281H876.023C876.055 241.531 876.418 242.543 877.113 243.316C877.816 244.082 878.707 244.465 879.785 244.465C880.551 244.465 881.199 244.309 881.73 243.996C882.262 243.684 882.727 243.27 883.125 242.754L884.449 243.785C883.387 245.418 881.793 246.234 879.668 246.234ZM879.398 234.867C878.523 234.867 877.789 235.188 877.195 235.828C876.602 236.461 876.234 237.352 876.094 238.5H882.445V238.336C882.383 237.234 882.086 236.383 881.555 235.781C881.023 235.172 880.305 234.867 879.398 234.867ZM889.488 246H887.32V228H889.488V246ZM892.441 239.555C892.441 237.609 892.902 236.047 893.824 234.867C894.746 233.68 895.953 233.086 897.445 233.086C898.93 233.086 900.105 233.594 900.973 234.609V228H903.141V246H901.148L901.043 244.641C900.176 245.703 898.969 246.234 897.422 246.234C895.953 246.234 894.754 245.633 893.824 244.43C892.902 243.227 892.441 241.656 892.441 239.719V239.555ZM894.609 239.801C894.609 241.238 894.906 242.363 895.5 243.176C896.094 243.988 896.914 244.395 897.961 244.395C899.336 244.395 900.34 243.777 900.973 242.543V236.719C900.324 235.523 899.328 234.926 897.984 234.926C896.922 234.926 896.094 235.336 895.5 236.156C894.906 236.977 894.609 238.191 894.609 239.801ZM913.898 242.637C913.898 242.051 913.676 241.598 913.23 241.277C912.793 240.949 912.023 240.668 910.922 240.434C909.828 240.199 908.957 239.918 908.309 239.59C907.668 239.262 907.191 238.871 906.879 238.418C906.574 237.965 906.422 237.426 906.422 236.801C906.422 235.762 906.859 234.883 907.734 234.164C908.617 233.445 909.742 233.086 911.109 233.086C912.547 233.086 913.711 233.457 914.602 234.199C915.5 234.941 915.949 235.891 915.949 237.047H913.77C913.77 236.453 913.516 235.941 913.008 235.512C912.508 235.082 911.875 234.867 911.109 234.867C910.32 234.867 909.703 235.039 909.258 235.383C908.812 235.727 908.59 236.176 908.59 236.73C908.59 237.254 908.797 237.648 909.211 237.914C909.625 238.18 910.371 238.434 911.449 238.676C912.535 238.918 913.414 239.207 914.086 239.543C914.758 239.879 915.254 240.285 915.574 240.762C915.902 241.23 916.066 241.805 916.066 242.484C916.066 243.617 915.613 244.527 914.707 245.215C913.801 245.895 912.625 246.234 911.18 246.234C910.164 246.234 909.266 246.055 908.484 245.695C907.703 245.336 907.09 244.836 906.645 244.195C906.207 243.547 905.988 242.848 905.988 242.098H908.156C908.195 242.824 908.484 243.402 909.023 243.832C909.57 244.254 910.289 244.465 911.18 244.465C912 244.465 912.656 244.301 913.148 243.973C913.648 243.637 913.898 243.191 913.898 242.637Z" fill="black"/>
<path d="M761.859 249.164H759.703V228.938H761.859V249.164ZM768 249.164H765.844V228.938H768V249.164Z" fill="#9B51E0"/>
</svg>
