<svg width="552" height="266" viewBox="0 0 552 266" fill="none" xmlns="http://www.w3.org/2000/svg">
<rect width="552" height="266" fill="white"/>
<rect x="23" y="55" width="157" height="50" rx="4" fill="#F1F4F8"/>
<path d="M48.8352 86V84.66C49.8352 83.8067 50.7285 83.0267 51.5152 82.32C52.3018 81.6 52.9685 80.9333 53.5152 80.32C54.0752 79.7067 54.5018 79.1333 54.7952 78.6C55.0885 78.0667 55.2352 77.5533 55.2352 77.06C55.2352 76.38 55.0285 75.8467 54.6152 75.46C54.2018 75.06 53.5952 74.86 52.7952 74.86C52.2352 74.86 51.7218 75 51.2552 75.28C50.8018 75.56 50.3818 75.8933 49.9952 76.28L48.7352 75C49.3485 74.3733 49.9952 73.8933 50.6752 73.56C51.3552 73.2133 52.1618 73.04 53.0952 73.04C53.7485 73.04 54.3418 73.1333 54.8752 73.32C55.4085 73.5067 55.8618 73.7733 56.2352 74.12C56.6218 74.4533 56.9152 74.86 57.1152 75.34C57.3285 75.82 57.4352 76.3533 57.4352 76.94C57.4352 77.5 57.2952 78.0733 57.0152 78.66C56.7485 79.2333 56.3818 79.82 55.9152 80.42C55.4485 81.0067 54.8885 81.6133 54.2352 82.24C53.5952 82.8667 52.9085 83.5133 52.1752 84.18C52.5485 84.1533 52.9418 84.1267 53.3552 84.1C53.7685 84.06 54.1485 84.04 54.4952 84.04H58.0952V86H48.8352ZM76.6395 84.02V80.24H73.0795V78.56H76.6395V74.78H78.3995V78.56H81.9595V80.24H78.3995V84.02H76.6395ZM101.164 86.24C100.071 86.24 99.1372 86.0667 98.3639 85.72C97.5906 85.3733 96.9706 84.9467 96.5039 84.44L97.5839 82.96C98.0106 83.3467 98.5039 83.68 99.0639 83.96C99.6372 84.2267 100.271 84.36 100.964 84.36C101.751 84.36 102.397 84.1933 102.904 83.86C103.424 83.5133 103.684 83.04 103.684 82.44C103.684 82.1067 103.611 81.8067 103.464 81.54C103.317 81.2733 103.077 81.0467 102.744 80.86C102.424 80.6733 101.991 80.5333 101.444 80.44C100.911 80.3333 100.251 80.28 99.4639 80.28V78.6C100.144 78.6 100.724 78.5533 101.204 78.46C101.684 78.3533 102.071 78.2133 102.364 78.04C102.671 77.8533 102.891 77.6333 103.024 77.38C103.171 77.1267 103.244 76.8533 103.244 76.56C103.244 76.0267 103.037 75.6133 102.624 75.32C102.224 75.0133 101.684 74.86 101.004 74.86C100.444 74.86 99.9239 74.9733 99.4439 75.2C98.9772 75.4133 98.5306 75.7 98.1039 76.06L96.9039 74.64C97.4906 74.16 98.1306 73.7733 98.8239 73.48C99.5172 73.1867 100.277 73.04 101.104 73.04C101.757 73.04 102.357 73.1133 102.904 73.26C103.451 73.4067 103.917 73.6267 104.304 73.92C104.704 74.2 105.011 74.5533 105.224 74.98C105.451 75.3933 105.564 75.8667 105.564 76.4C105.564 77.12 105.331 77.72 104.864 78.2C104.397 78.68 103.771 79.0533 102.984 79.32V79.4C103.397 79.5067 103.784 79.6533 104.144 79.84C104.517 80.0133 104.837 80.2333 105.104 80.5C105.384 80.7667 105.604 81.0733 105.764 81.42C105.924 81.7667 106.004 82.1467 106.004 82.56C106.004 83.1467 105.871 83.6667 105.604 84.12C105.351 84.5733 105.004 84.96 104.564 85.28C104.124 85.5867 103.611 85.8267 103.024 86C102.437 86.16 101.817 86.24 101.164 86.24ZM123.128 83.98L122.068 83.24L124.128 80.02L120.968 78.64L121.348 77.46L124.648 78.44L124.848 74.78H126.128L126.328 78.44L129.628 77.46L130.008 78.64L126.848 80.02L128.908 83.24L127.848 83.98L125.488 80.98L123.128 83.98ZM149.153 86.24C148.033 86.24 147.099 86.0667 146.353 85.72C145.619 85.36 144.999 84.9467 144.493 84.48L145.553 83C145.979 83.36 146.453 83.68 146.973 83.96C147.506 84.2267 148.139 84.36 148.873 84.36C149.673 84.36 150.339 84.1467 150.873 83.72C151.419 83.2933 151.693 82.6933 151.693 81.92C151.693 81.16 151.439 80.5733 150.933 80.16C150.439 79.7467 149.786 79.54 148.973 79.54C148.506 79.54 148.106 79.6 147.773 79.72C147.439 79.8267 147.053 80.0067 146.613 80.26L145.513 79.56L145.913 73.28H153.413V75.22H147.913L147.633 78.3C147.966 78.1667 148.286 78.0667 148.593 78C148.899 77.92 149.246 77.88 149.633 77.88C150.233 77.88 150.799 77.96 151.333 78.12C151.866 78.28 152.326 78.5267 152.713 78.86C153.113 79.18 153.426 79.5933 153.653 80.1C153.893 80.5933 154.013 81.18 154.013 81.86C154.013 82.5533 153.879 83.1733 153.613 83.72C153.346 84.2667 152.986 84.7267 152.533 85.1C152.079 85.4733 151.559 85.76 150.973 85.96C150.399 86.1467 149.793 86.24 149.153 86.24Z" fill="black"/>
<rect x="367" y="55" width="157" height="50" rx="4" fill="#F1F4F8"/>
<path d="M387.783 89.54C386.436 88.42 385.37 87.1 384.583 85.58C383.81 84.06 383.423 82.3467 383.423 80.44C383.423 78.5333 383.81 76.82 384.583 75.3C385.37 73.78 386.436 72.46 387.783 71.34L389.063 72.4C387.796 73.5467 386.87 74.7667 386.283 76.06C385.696 77.3533 385.403 78.8133 385.403 80.44C385.403 82.0667 385.696 83.5267 386.283 84.82C386.87 86.1133 387.796 87.3333 389.063 88.48L387.783 89.54ZM455.256 89.54L453.976 88.48C455.243 87.3333 456.169 86.1133 456.756 84.82C457.343 83.5267 457.636 82.0667 457.636 80.44C457.636 78.8133 457.343 77.3533 456.756 76.06C456.169 74.7667 455.243 73.5467 453.976 72.4L455.256 71.34C456.603 72.46 457.663 73.78 458.436 75.3C459.223 76.82 459.616 78.5333 459.616 80.44C459.616 82.3467 459.223 84.06 458.436 85.58C457.663 87.1 456.603 88.42 455.256 89.54Z" fill="#071D10"/>
<path d="M392.835 86V84.66C393.835 83.8067 394.728 83.0267 395.515 82.32C396.302 81.6 396.968 80.9333 397.515 80.32C398.075 79.7067 398.502 79.1333 398.795 78.6C399.088 78.0667 399.235 77.5533 399.235 77.06C399.235 76.38 399.028 75.8467 398.615 75.46C398.202 75.06 397.595 74.86 396.795 74.86C396.235 74.86 395.722 75 395.255 75.28C394.802 75.56 394.382 75.8933 393.995 76.28L392.735 75C393.348 74.3733 393.995 73.8933 394.675 73.56C395.355 73.2133 396.162 73.04 397.095 73.04C397.748 73.04 398.342 73.1333 398.875 73.32C399.408 73.5067 399.862 73.7733 400.235 74.12C400.622 74.4533 400.915 74.86 401.115 75.34C401.328 75.82 401.435 76.3533 401.435 76.94C401.435 77.5 401.295 78.0733 401.015 78.66C400.748 79.2333 400.382 79.82 399.915 80.42C399.448 81.0067 398.888 81.6133 398.235 82.24C397.595 82.8667 396.908 83.5133 396.175 84.18C396.548 84.1533 396.942 84.1267 397.355 84.1C397.768 84.06 398.148 84.04 398.495 84.04H402.095V86H392.835ZM420.64 84.02V80.24H417.08V78.56H420.64V74.78H422.4V78.56H425.96V80.24H422.4V84.02H420.64ZM445.164 86.24C444.071 86.24 443.137 86.0667 442.364 85.72C441.591 85.3733 440.971 84.9467 440.504 84.44L441.584 82.96C442.011 83.3467 442.504 83.68 443.064 83.96C443.637 84.2267 444.271 84.36 444.964 84.36C445.751 84.36 446.397 84.1933 446.904 83.86C447.424 83.5133 447.684 83.04 447.684 82.44C447.684 82.1067 447.611 81.8067 447.464 81.54C447.317 81.2733 447.077 81.0467 446.744 80.86C446.424 80.6733 445.991 80.5333 445.444 80.44C444.911 80.3333 444.251 80.28 443.464 80.28V78.6C444.144 78.6 444.724 78.5533 445.204 78.46C445.684 78.3533 446.071 78.2133 446.364 78.04C446.671 77.8533 446.891 77.6333 447.024 77.38C447.171 77.1267 447.244 76.8533 447.244 76.56C447.244 76.0267 447.037 75.6133 446.624 75.32C446.224 75.0133 445.684 74.86 445.004 74.86C444.444 74.86 443.924 74.9733 443.444 75.2C442.977 75.4133 442.531 75.7 442.104 76.06L440.904 74.64C441.491 74.16 442.131 73.7733 442.824 73.48C443.517 73.1867 444.277 73.04 445.104 73.04C445.757 73.04 446.357 73.1133 446.904 73.26C447.451 73.4067 447.917 73.6267 448.304 73.92C448.704 74.2 449.011 74.5533 449.224 74.98C449.451 75.3933 449.564 75.8667 449.564 76.4C449.564 77.12 449.331 77.72 448.864 78.2C448.397 78.68 447.771 79.0533 446.984 79.32V79.4C447.397 79.5067 447.784 79.6533 448.144 79.84C448.517 80.0133 448.837 80.2333 449.104 80.5C449.384 80.7667 449.604 81.0733 449.764 81.42C449.924 81.7667 450.004 82.1467 450.004 82.56C450.004 83.1467 449.871 83.6667 449.604 84.12C449.351 84.5733 449.004 84.96 448.564 85.28C448.124 85.5867 447.611 85.8267 447.024 86C446.437 86.16 445.817 86.24 445.164 86.24Z" fill="#27AE60"/>
<path d="M479.12 83.98L478.06 83.24L480.12 80.02L476.96 78.64L477.34 77.46L480.64 78.44L480.84 74.78H482.12L482.32 78.44L485.62 77.46L486 78.64L482.84 80.02L484.9 83.24L483.84 83.98L481.48 80.98L479.12 83.98ZM505.145 86.24C504.025 86.24 503.092 86.0667 502.345 85.72C501.612 85.36 500.992 84.9467 500.485 84.48L501.545 83C501.972 83.36 502.445 83.68 502.965 83.96C503.498 84.2267 504.132 84.36 504.865 84.36C505.665 84.36 506.332 84.1467 506.865 83.72C507.412 83.2933 507.685 82.6933 507.685 81.92C507.685 81.16 507.432 80.5733 506.925 80.16C506.432 79.7467 505.778 79.54 504.965 79.54C504.498 79.54 504.098 79.6 503.765 79.72C503.432 79.8267 503.045 80.0067 502.605 80.26L501.505 79.56L501.905 73.28H509.405V75.22H503.905L503.625 78.3C503.958 78.1667 504.278 78.0667 504.585 78C504.892 77.92 505.238 77.88 505.625 77.88C506.225 77.88 506.792 77.96 507.325 78.12C507.858 78.28 508.318 78.5267 508.705 78.86C509.105 79.18 509.418 79.5933 509.645 80.1C509.885 80.5933 510.005 81.18 510.005 81.86C510.005 82.5533 509.872 83.1733 509.605 83.72C509.338 84.2667 508.978 84.7267 508.525 85.1C508.072 85.4733 507.552 85.76 506.965 85.96C506.392 86.1467 505.785 86.24 505.145 86.24Z" fill="black"/>
<g style="mix-blend-mode:multiply">
<rect x="376" y="65" width="92" height="30" rx="4" fill="#6FCF97"/>
</g>
<path d="M29 35.24C28.24 35.24 27.54 35.0933 26.9 34.8C26.2733 34.4933 25.7333 34.0533 25.28 33.48C24.84 32.8933 24.4933 32.1733 24.24 31.32C23.9867 30.4667 23.86 29.4933 23.86 28.4C23.86 27.32 23.9867 26.3667 24.24 25.54C24.4933 24.7 24.84 24 25.28 23.44C25.7333 22.8667 26.2733 22.4333 26.9 22.14C27.54 21.8333 28.24 21.68 29 21.68C29.76 21.68 30.4533 21.8333 31.08 22.14C31.72 22.4333 32.26 22.8667 32.7 23.44C33.1533 24 33.5067 24.7 33.76 25.54C34.0133 26.3667 34.14 27.32 34.14 28.4C34.14 29.4933 34.0133 30.4667 33.76 31.32C33.5067 32.1733 33.1533 32.8933 32.7 33.48C32.26 34.0533 31.72 34.4933 31.08 34.8C30.4533 35.0933 29.76 35.24 29 35.24ZM29 33.22C29.84 33.22 30.5067 32.8067 31 31.98C31.5067 31.14 31.76 29.9467 31.76 28.4C31.76 26.8933 31.5067 25.7333 31 24.92C30.5067 24.1067 29.84 23.7 29 23.7C28.16 23.7 27.4867 24.1067 26.98 24.92C26.4867 25.7333 26.24 26.8933 26.24 28.4C26.24 29.9467 26.4867 31.14 26.98 31.98C27.4867 32.8067 28.16 33.22 29 33.22ZM37.5922 35V25.18H39.4922L39.6922 27.4H39.7522C40.2589 26.6 40.8655 25.9933 41.5722 25.58C42.2922 25.1533 43.0789 24.94 43.9322 24.94C44.3322 24.94 44.6722 24.9733 44.9522 25.04C45.2455 25.0933 45.5389 25.1933 45.8322 25.34L45.3522 27.28C45.0322 27.1733 44.7455 27.1 44.4922 27.06C44.2522 27.0067 43.9455 26.98 43.5722 26.98C42.8922 26.98 42.2389 27.1733 41.6122 27.56C40.9855 27.9467 40.4189 28.62 39.9122 29.58V35H37.5922ZM52.2444 35.24C51.6177 35.24 51.0444 35.1267 50.5244 34.9C50.0044 34.66 49.5577 34.32 49.1844 33.88C48.8244 33.44 48.5444 32.9067 48.3444 32.28C48.1444 31.64 48.0444 30.9133 48.0444 30.1C48.0444 29.3 48.1644 28.58 48.4044 27.94C48.6444 27.3 48.9644 26.76 49.3644 26.32C49.7777 25.88 50.2444 25.54 50.7644 25.3C51.2844 25.06 51.8244 24.94 52.3844 24.94C52.9444 24.94 53.4377 25.04 53.8644 25.24C54.291 25.44 54.6977 25.7267 55.0844 26.1H55.1444L55.0244 24.44V20.88H57.3444V35H55.4444L55.2644 33.86H55.2044C54.8177 34.2467 54.3644 34.5733 53.8444 34.84C53.3377 35.1067 52.8044 35.24 52.2444 35.24ZM52.8044 33.34C53.6177 33.34 54.3577 32.9467 55.0244 32.16V27.74C54.6777 27.4067 54.331 27.1733 53.9844 27.04C53.6377 26.9067 53.2844 26.84 52.9244 26.84C52.5777 26.84 52.251 26.9133 51.9444 27.06C51.651 27.2067 51.391 27.42 51.1644 27.7C50.9377 27.9667 50.7577 28.3 50.6244 28.7C50.491 29.1 50.4244 29.56 50.4244 30.08C50.4244 31.1467 50.631 31.96 51.0444 32.52C51.4577 33.0667 52.0444 33.34 52.8044 33.34ZM65.5766 35.24C64.8299 35.24 64.1299 35.1267 63.4766 34.9C62.8232 34.66 62.2499 34.32 61.7566 33.88C61.2766 33.44 60.8966 32.9 60.6166 32.26C60.3366 31.62 60.1966 30.8933 60.1966 30.08C60.1966 29.28 60.3366 28.5667 60.6166 27.94C60.8966 27.3 61.2699 26.76 61.7366 26.32C62.2166 25.8667 62.7566 25.5267 63.3566 25.3C63.9699 25.06 64.6099 24.94 65.2766 24.94C66.0099 24.94 66.6566 25.06 67.2166 25.3C67.7766 25.5267 68.2499 25.8467 68.6366 26.26C69.0232 26.66 69.3166 27.1467 69.5166 27.72C69.7166 28.2933 69.8166 28.92 69.8166 29.6C69.8166 29.8267 69.8032 30.0467 69.7766 30.26C69.7632 30.46 69.7432 30.6267 69.7166 30.76H62.4966C62.6299 31.68 62.9966 32.36 63.5966 32.8C64.1966 33.24 64.9566 33.46 65.8766 33.46C66.3966 33.46 66.8766 33.3867 67.3166 33.24C67.7566 33.0933 68.1966 32.8933 68.6366 32.64L69.4166 34.08C68.8966 34.4267 68.3032 34.7067 67.6366 34.92C66.9832 35.1333 66.2966 35.24 65.5766 35.24ZM65.3366 26.72C64.6566 26.72 64.0566 26.92 63.5366 27.32C63.0299 27.72 62.7032 28.32 62.5566 29.12H67.7766C67.6966 28.32 67.4432 27.72 67.0166 27.32C66.6032 26.92 66.0432 26.72 65.3366 26.72ZM73.5688 35V25.18H75.4688L75.6688 27.4H75.7288C76.2354 26.6 76.8421 25.9933 77.5488 25.58C78.2688 25.1533 79.0554 24.94 79.9088 24.94C80.3088 24.94 80.6488 24.9733 80.9288 25.04C81.2221 25.0933 81.5154 25.1933 81.8088 25.34L81.3288 27.28C81.0088 27.1733 80.7221 27.1 80.4688 27.06C80.2288 27.0067 79.9221 26.98 79.5488 26.98C78.8688 26.98 78.2154 27.1733 77.5888 27.56C76.9621 27.9467 76.3954 28.62 75.8888 29.58V35H73.5688ZM101.533 35.24C101.066 35.24 100.58 35.1267 100.073 34.9C99.5665 34.6733 99.0998 34.3467 98.6731 33.92H98.6131L98.4131 35H96.5931V20.88H98.9131V24.52L98.8131 26.24H98.8731C99.2865 25.84 99.7531 25.5267 100.273 25.3C100.806 25.06 101.34 24.94 101.873 24.94C102.513 24.94 103.08 25.06 103.573 25.3C104.066 25.5267 104.486 25.86 104.833 26.3C105.18 26.7267 105.44 27.2467 105.613 27.86C105.8 28.4733 105.893 29.16 105.893 29.92C105.893 30.76 105.773 31.5133 105.533 32.18C105.293 32.8333 104.966 33.3867 104.553 33.84C104.153 34.2933 103.686 34.64 103.153 34.88C102.633 35.12 102.093 35.24 101.533 35.24ZM101.073 33.34C101.766 33.34 102.346 33.06 102.813 32.5C103.28 31.9267 103.513 31.08 103.513 29.96C103.513 28.9733 103.333 28.2067 102.973 27.66C102.613 27.1133 102.033 26.84 101.233 26.84C100.86 26.84 100.48 26.9333 100.093 27.12C99.7065 27.3067 99.3131 27.6067 98.9131 28.02V32.44C99.2731 32.7733 99.6465 33.0067 100.033 33.14C100.42 33.2733 100.766 33.34 101.073 33.34ZM109.685 39.04C109.419 39.04 109.165 39.02 108.925 38.98C108.685 38.9533 108.472 38.9067 108.285 38.84L108.725 37.04C108.859 37.08 108.992 37.1133 109.125 37.14C109.259 37.1667 109.399 37.18 109.545 37.18C110.172 37.18 110.672 37.02 111.045 36.7C111.419 36.3933 111.705 35.9933 111.905 35.5L112.145 34.88L107.745 25.18H110.045L112.065 30C112.252 30.44 112.432 30.9067 112.605 31.4C112.779 31.8933 112.959 32.3867 113.145 32.88H113.225C113.372 32.4133 113.532 31.9333 113.705 31.44C113.879 30.9467 114.045 30.4667 114.205 30L115.985 25.18H118.165L114.065 35.44C113.852 36 113.612 36.5 113.345 36.94C113.092 37.38 112.792 37.7533 112.445 38.06C112.099 38.38 111.699 38.62 111.245 38.78C110.792 38.9533 110.272 39.04 109.685 39.04ZM136.19 35.24C135.563 35.24 134.99 35.1267 134.47 34.9C133.95 34.66 133.503 34.32 133.13 33.88C132.77 33.44 132.49 32.9067 132.29 32.28C132.09 31.64 131.99 30.9133 131.99 30.1C131.99 29.3 132.11 28.58 132.35 27.94C132.59 27.3 132.91 26.76 133.31 26.32C133.723 25.88 134.19 25.54 134.71 25.3C135.23 25.06 135.77 24.94 136.33 24.94C136.89 24.94 137.383 25.04 137.81 25.24C138.236 25.44 138.643 25.7267 139.03 26.1H139.09L138.97 24.44V20.88H141.29V35H139.39L139.21 33.86H139.15C138.763 34.2467 138.31 34.5733 137.79 34.84C137.283 35.1067 136.75 35.24 136.19 35.24ZM136.75 33.34C137.563 33.34 138.303 32.9467 138.97 32.16V27.74C138.623 27.4067 138.276 27.1733 137.93 27.04C137.583 26.9067 137.23 26.84 136.87 26.84C136.523 26.84 136.196 26.9133 135.89 27.06C135.596 27.2067 135.336 27.42 135.11 27.7C134.883 27.9667 134.703 28.3 134.57 28.7C134.436 29.1 134.37 29.56 134.37 30.08C134.37 31.1467 134.576 31.96 134.99 32.52C135.403 33.0667 135.99 33.34 136.75 33.34ZM149.522 35.24C148.775 35.24 148.075 35.1267 147.422 34.9C146.769 34.66 146.195 34.32 145.702 33.88C145.222 33.44 144.842 32.9 144.562 32.26C144.282 31.62 144.142 30.8933 144.142 30.08C144.142 29.28 144.282 28.5667 144.562 27.94C144.842 27.3 145.215 26.76 145.682 26.32C146.162 25.8667 146.702 25.5267 147.302 25.3C147.915 25.06 148.555 24.94 149.222 24.94C149.955 24.94 150.602 25.06 151.162 25.3C151.722 25.5267 152.195 25.8467 152.582 26.26C152.969 26.66 153.262 27.1467 153.462 27.72C153.662 28.2933 153.762 28.92 153.762 29.6C153.762 29.8267 153.749 30.0467 153.722 30.26C153.709 30.46 153.689 30.6267 153.662 30.76H146.442C146.575 31.68 146.942 32.36 147.542 32.8C148.142 33.24 148.902 33.46 149.822 33.46C150.342 33.46 150.822 33.3867 151.262 33.24C151.702 33.0933 152.142 32.8933 152.582 32.64L153.362 34.08C152.842 34.4267 152.249 34.7067 151.582 34.92C150.929 35.1333 150.242 35.24 149.522 35.24ZM149.282 26.72C148.602 26.72 148.002 26.92 147.482 27.32C146.975 27.72 146.649 28.32 146.502 29.12H151.722C151.642 28.32 151.389 27.72 150.962 27.32C150.549 26.92 149.989 26.72 149.282 26.72ZM159.474 35V27H156.754V25.28L159.474 25.18V24.64C159.474 24.0667 159.554 23.5333 159.714 23.04C159.874 22.5467 160.121 22.1267 160.454 21.78C160.801 21.42 161.234 21.14 161.754 20.94C162.287 20.74 162.914 20.64 163.634 20.64C164.167 20.64 164.674 20.6867 165.154 20.78C165.647 20.8733 166.114 21.0067 166.554 21.18L166.074 22.88C165.714 22.7333 165.361 22.6267 165.014 22.56C164.681 22.4933 164.314 22.46 163.914 22.46C163.154 22.46 162.601 22.6467 162.254 23.02C161.921 23.38 161.754 23.9067 161.754 24.6V25.18H165.494V27H161.754V35H159.474ZM171.606 35.24C171.126 35.24 170.686 35.1667 170.286 35.02C169.886 34.8867 169.54 34.6933 169.246 34.44C168.953 34.1867 168.726 33.8867 168.566 33.54C168.406 33.18 168.326 32.7867 168.326 32.36C168.326 31.8133 168.453 31.3333 168.706 30.92C168.96 30.4933 169.36 30.1333 169.906 29.84C170.453 29.5467 171.153 29.3067 172.006 29.12C172.86 28.9333 173.893 28.8 175.106 28.72C175.066 28.16 174.866 27.7 174.506 27.34C174.146 26.98 173.566 26.8 172.766 26.8C172.206 26.8 171.653 26.9067 171.106 27.12C170.573 27.32 170.053 27.56 169.546 27.84L168.706 26.3C169.306 25.9533 169.993 25.64 170.766 25.36C171.54 25.08 172.346 24.94 173.186 24.94C174.56 24.94 175.606 25.3067 176.326 26.04C177.046 26.76 177.406 27.8067 177.406 29.18V35H175.526L175.346 33.78H175.286C174.766 34.18 174.186 34.5267 173.546 34.82C172.92 35.1 172.273 35.24 171.606 35.24ZM172.306 33.44C172.8 33.44 173.273 33.3333 173.726 33.12C174.193 32.8933 174.653 32.6 175.106 32.24V30.16C174.226 30.2267 173.493 30.32 172.906 30.44C172.32 30.5467 171.853 30.6867 171.506 30.86C171.16 31.0333 170.913 31.2333 170.766 31.46C170.62 31.6733 170.546 31.9133 170.546 32.18C170.546 32.62 170.713 32.94 171.046 33.14C171.393 33.34 171.813 33.44 172.306 33.44ZM183.578 35.24C182.432 35.24 181.598 34.9 181.078 34.22C180.558 33.5267 180.298 32.54 180.298 31.26V25.18H182.598V30.96C182.598 31.76 182.732 32.3467 182.998 32.72C183.278 33.08 183.758 33.26 184.438 33.26C184.905 33.26 185.318 33.1533 185.678 32.94C186.052 32.7267 186.458 32.3467 186.898 31.8V25.18H189.198V35H187.318L187.138 33.44H187.058C186.592 33.9867 186.078 34.4267 185.518 34.76C184.958 35.08 184.312 35.24 183.578 35.24ZM198.911 35.24C197.764 35.24 196.891 34.9067 196.291 34.24C195.704 33.5733 195.411 32.6333 195.411 31.42V22.7H192.131V20.88H197.711V31.54C197.711 32.2067 197.877 32.68 198.211 32.96C198.557 33.2267 198.977 33.36 199.471 33.36C199.991 33.36 200.551 33.2333 201.151 32.98L201.691 34.68C201.211 34.8667 200.771 35.0067 200.371 35.1C199.971 35.1933 199.484 35.24 198.911 35.24ZM210.703 35.24C209.956 35.24 209.323 35.14 208.803 34.94C208.296 34.74 207.883 34.46 207.563 34.1C207.256 33.7267 207.029 33.28 206.883 32.76C206.749 32.24 206.683 31.6667 206.683 31.04V27H204.063V25.28L206.783 25.18L207.083 22.1H208.983V25.18H213.463V27H208.983V31.04C208.983 31.8533 209.149 32.4533 209.483 32.84C209.829 33.2133 210.423 33.4 211.263 33.4C211.676 33.4 212.056 33.3667 212.403 33.3C212.749 33.22 213.083 33.12 213.403 33L213.843 34.68C213.403 34.8267 212.929 34.9533 212.423 35.06C211.916 35.18 211.343 35.24 210.703 35.24Z" fill="#EB5757"/>
<path d="M326.153 34.24C324.726 34.24 323.606 33.8133 322.793 32.96C321.979 32.1067 321.573 30.7867 321.573 29V20.92H323.893V29.18C323.893 30.26 324.093 31.04 324.493 31.52C324.893 31.9867 325.446 32.22 326.153 32.22C326.873 32.22 327.439 31.9867 327.853 31.52C328.266 31.04 328.473 30.26 328.473 29.18V20.92H330.693V29C330.693 30.8 330.299 32.1267 329.513 32.98C328.726 33.82 327.606 34.24 326.153 34.24ZM338.185 34.24C337.265 34.24 336.385 34.0933 335.545 33.8C334.705 33.4933 333.978 33.1333 333.365 32.72L334.365 31.26C334.965 31.6467 335.598 31.9533 336.265 32.18C336.945 32.3933 337.685 32.5 338.485 32.5C339.165 32.5 339.665 32.3867 339.985 32.16C340.318 31.9333 340.485 31.6533 340.485 31.32C340.485 31.16 340.452 31.02 340.385 30.9C340.318 30.7667 340.185 30.64 339.985 30.52C339.785 30.4 339.505 30.2867 339.145 30.18C338.798 30.0733 338.338 29.96 337.765 29.84C336.445 29.5733 335.478 29.2 334.865 28.72C334.265 28.24 333.965 27.6267 333.965 26.88C333.965 26.0133 334.338 25.3067 335.085 24.76C335.832 24.2133 336.898 23.94 338.285 23.94C339.098 23.94 339.858 24.0733 340.565 24.34C341.272 24.6067 341.878 24.9067 342.385 25.24L341.325 26.66C340.845 26.3533 340.332 26.1133 339.785 25.94C339.238 25.7667 338.672 25.68 338.085 25.68C337.432 25.68 336.965 25.7867 336.685 26C336.405 26.2 336.265 26.4533 336.265 26.76C336.265 27.1067 336.465 27.3667 336.865 27.54C337.265 27.7133 337.918 27.9 338.825 28.1C339.612 28.2733 340.258 28.46 340.765 28.66C341.272 28.86 341.672 29.0867 341.965 29.34C342.272 29.58 342.485 29.8533 342.605 30.16C342.725 30.4667 342.785 30.8133 342.785 31.2C342.785 31.6267 342.685 32.0267 342.485 32.4C342.285 32.76 341.992 33.08 341.605 33.36C341.218 33.6267 340.738 33.84 340.165 34C339.592 34.16 338.932 34.24 338.185 34.24ZM350.057 34V26H345.797V24.18H352.357V34H350.057ZM351.057 22.38C350.591 22.38 350.197 22.24 349.877 21.96C349.571 21.68 349.417 21.3067 349.417 20.84C349.417 20.3733 349.571 20 349.877 19.72C350.197 19.4267 350.591 19.28 351.057 19.28C351.524 19.28 351.911 19.4267 352.217 19.72C352.537 20 352.697 20.3733 352.697 20.84C352.697 21.3067 352.537 21.68 352.217 21.96C351.911 22.24 351.524 22.38 351.057 22.38ZM357.749 34V24.18H359.649L359.829 25.66H359.909C360.376 25.1933 360.889 24.7933 361.449 24.46C362.023 24.1133 362.689 23.94 363.449 23.94C364.583 23.94 365.416 24.2867 365.949 24.98C366.483 25.66 366.749 26.64 366.749 27.92V34H364.429V28.22C364.429 27.42 364.289 26.84 364.009 26.48C363.743 26.1067 363.269 25.92 362.589 25.92C362.109 25.92 361.683 26.0333 361.309 26.26C360.936 26.4867 360.523 26.8333 360.069 27.3V34H357.749ZM373.822 38.34C373.142 38.34 372.528 38.2867 371.982 38.18C371.435 38.0733 370.962 37.9067 370.562 37.68C370.175 37.4667 369.875 37.1933 369.662 36.86C369.448 36.54 369.342 36.16 369.342 35.72C369.342 34.92 369.862 34.2333 370.902 33.66V33.58C370.635 33.42 370.402 33.2133 370.202 32.96C370.002 32.6933 369.902 32.3533 369.902 31.94C369.902 31.62 370.008 31.2933 370.222 30.96C370.435 30.6267 370.722 30.34 371.082 30.1V30.02C370.735 29.7667 370.435 29.4267 370.182 29C369.942 28.5733 369.822 28.0667 369.822 27.48C369.822 26.92 369.928 26.42 370.142 25.98C370.368 25.54 370.662 25.1733 371.022 24.88C371.395 24.5733 371.822 24.34 372.302 24.18C372.795 24.02 373.315 23.94 373.862 23.94C374.422 23.94 374.935 24.02 375.402 24.18H379.422V25.94H377.162C377.335 26.1267 377.482 26.3667 377.602 26.66C377.735 26.94 377.802 27.24 377.802 27.56C377.802 28.1067 377.695 28.5867 377.482 29C377.282 29.4133 377.002 29.76 376.642 30.04C376.295 30.32 375.882 30.5333 375.402 30.68C374.922 30.8267 374.408 30.9 373.862 30.9C373.395 30.9 372.895 30.8067 372.362 30.62C371.962 30.86 371.762 31.1667 371.762 31.54C371.762 32.1533 372.382 32.46 373.622 32.46H375.622C376.902 32.46 377.862 32.6467 378.502 33.02C379.155 33.38 379.482 33.9933 379.482 34.86C379.482 35.34 379.348 35.7933 379.082 36.22C378.815 36.6467 378.435 37.0133 377.942 37.32C377.462 37.64 376.868 37.8867 376.162 38.06C375.468 38.2467 374.688 38.34 373.822 38.34ZM373.862 29.44C374.368 29.44 374.802 29.2733 375.162 28.94C375.535 28.5933 375.722 28.1067 375.722 27.48C375.722 26.88 375.535 26.4067 375.162 26.06C374.802 25.7133 374.368 25.54 373.862 25.54C373.355 25.54 372.915 25.7133 372.542 26.06C372.182 26.4067 372.002 26.88 372.002 27.48C372.002 28.1067 372.182 28.5933 372.542 28.94C372.915 29.2733 373.355 29.44 373.862 29.44ZM374.102 36.82C374.582 36.82 375.015 36.7733 375.402 36.68C375.788 36.6 376.122 36.4867 376.402 36.34C376.682 36.1933 376.895 36.0267 377.042 35.84C377.188 35.6533 377.262 35.4533 377.262 35.24C377.262 34.8533 377.095 34.5933 376.762 34.46C376.442 34.34 375.948 34.28 375.282 34.28H373.722C373.095 34.28 372.595 34.2333 372.222 34.14C371.875 34.34 371.628 34.5467 371.482 34.76C371.335 34.9733 371.262 35.1933 371.262 35.42C371.262 35.86 371.502 36.2 371.982 36.44C372.475 36.6933 373.182 36.82 374.102 36.82ZM393.726 37.88V24.18H395.626L395.806 25.3H395.866C396.293 24.9133 396.779 24.5933 397.326 24.34C397.886 24.0733 398.446 23.94 399.006 23.94C399.646 23.94 400.213 24.06 400.706 24.3C401.213 24.5267 401.633 24.86 401.966 25.3C402.313 25.74 402.573 26.2667 402.746 26.88C402.933 27.4933 403.026 28.18 403.026 28.94C403.026 29.78 402.906 30.5333 402.666 31.2C402.426 31.8533 402.099 32.4067 401.686 32.86C401.286 33.3 400.819 33.64 400.286 33.88C399.766 34.12 399.226 34.24 398.666 34.24C398.213 34.24 397.746 34.14 397.266 33.94C396.799 33.74 396.373 33.4533 395.986 33.08H395.926L396.046 34.8V37.88H393.726ZM398.186 32.34C398.893 32.34 399.479 32.06 399.946 31.5C400.413 30.9267 400.646 30.08 400.646 28.96C400.646 27.9733 400.466 27.2067 400.106 26.66C399.746 26.1133 399.166 25.84 398.366 25.84C397.993 25.84 397.613 25.9333 397.226 26.12C396.839 26.3067 396.446 26.6067 396.046 27.02V31.44C396.406 31.7733 396.773 32.0067 397.146 32.14C397.533 32.2733 397.879 32.34 398.186 32.34ZM408.778 34.24C408.298 34.24 407.858 34.1667 407.458 34.02C407.058 33.8867 406.711 33.6933 406.418 33.44C406.125 33.1867 405.898 32.8867 405.738 32.54C405.578 32.18 405.498 31.7867 405.498 31.36C405.498 30.8133 405.625 30.3333 405.878 29.92C406.131 29.4933 406.531 29.1333 407.078 28.84C407.625 28.5467 408.325 28.3067 409.178 28.12C410.031 27.9333 411.065 27.8 412.278 27.72C412.238 27.16 412.038 26.7 411.678 26.34C411.318 25.98 410.738 25.8 409.938 25.8C409.378 25.8 408.825 25.9067 408.278 26.12C407.745 26.32 407.225 26.56 406.718 26.84L405.878 25.3C406.478 24.9533 407.165 24.64 407.938 24.36C408.711 24.08 409.518 23.94 410.358 23.94C411.731 23.94 412.778 24.3067 413.498 25.04C414.218 25.76 414.578 26.8067 414.578 28.18V34H412.698L412.518 32.78H412.458C411.938 33.18 411.358 33.5267 410.718 33.82C410.091 34.1 409.445 34.24 408.778 34.24ZM409.478 32.44C409.971 32.44 410.445 32.3333 410.898 32.12C411.365 31.8933 411.825 31.6 412.278 31.24V29.16C411.398 29.2267 410.665 29.32 410.078 29.44C409.491 29.5467 409.025 29.6867 408.678 29.86C408.331 30.0333 408.085 30.2333 407.938 30.46C407.791 30.6733 407.718 30.9133 407.718 31.18C407.718 31.62 407.885 31.94 408.218 32.14C408.565 32.34 408.985 32.44 409.478 32.44ZM418.67 34V24.18H420.57L420.77 26.4H420.83C421.337 25.6 421.944 24.9933 422.65 24.58C423.37 24.1533 424.157 23.94 425.01 23.94C425.41 23.94 425.75 23.9733 426.03 24.04C426.324 24.0933 426.617 24.1933 426.91 24.34L426.43 26.28C426.11 26.1733 425.824 26.1 425.57 26.06C425.33 26.0067 425.024 25.98 424.65 25.98C423.97 25.98 423.317 26.1733 422.69 26.56C422.064 26.9467 421.497 27.62 420.99 28.58V34H418.67ZM434.663 34.24C433.916 34.24 433.216 34.1267 432.563 33.9C431.909 33.66 431.336 33.32 430.843 32.88C430.363 32.44 429.983 31.9 429.703 31.26C429.423 30.62 429.283 29.8933 429.283 29.08C429.283 28.28 429.423 27.5667 429.703 26.94C429.983 26.3 430.356 25.76 430.823 25.32C431.303 24.8667 431.843 24.5267 432.443 24.3C433.056 24.06 433.696 23.94 434.363 23.94C435.096 23.94 435.743 24.06 436.303 24.3C436.863 24.5267 437.336 24.8467 437.723 25.26C438.109 25.66 438.403 26.1467 438.603 26.72C438.803 27.2933 438.903 27.92 438.903 28.6C438.903 28.8267 438.889 29.0467 438.863 29.26C438.849 29.46 438.829 29.6267 438.803 29.76H431.583C431.716 30.68 432.083 31.36 432.683 31.8C433.283 32.24 434.043 32.46 434.963 32.46C435.483 32.46 435.963 32.3867 436.403 32.24C436.843 32.0933 437.283 31.8933 437.723 31.64L438.503 33.08C437.983 33.4267 437.389 33.7067 436.723 33.92C436.069 34.1333 435.383 34.24 434.663 34.24ZM434.423 25.72C433.743 25.72 433.143 25.92 432.623 26.32C432.116 26.72 431.789 27.32 431.643 28.12H436.863C436.783 27.32 436.529 26.72 436.103 26.32C435.689 25.92 435.129 25.72 434.423 25.72ZM441.695 34V24.18H443.595L443.775 25.66H443.855C444.321 25.1933 444.835 24.7933 445.395 24.46C445.968 24.1133 446.635 23.94 447.395 23.94C448.528 23.94 449.361 24.2867 449.895 24.98C450.428 25.66 450.695 26.64 450.695 27.92V34H448.375V28.22C448.375 27.42 448.235 26.84 447.955 26.48C447.688 26.1067 447.215 25.92 446.535 25.92C446.055 25.92 445.628 26.0333 445.255 26.26C444.881 26.4867 444.468 26.8333 444.015 27.3V34H441.695ZM459.867 34.24C459.12 34.24 458.487 34.14 457.967 33.94C457.46 33.74 457.047 33.46 456.727 33.1C456.42 32.7267 456.194 32.28 456.047 31.76C455.914 31.24 455.847 30.6667 455.847 30.04V26H453.227V24.28L455.947 24.18L456.247 21.1H458.147V24.18H462.627V26H458.147V30.04C458.147 30.8533 458.314 31.4533 458.647 31.84C458.994 32.2133 459.587 32.4 460.427 32.4C460.84 32.4 461.22 32.3667 461.567 32.3C461.914 32.22 462.247 32.12 462.567 32L463.007 33.68C462.567 33.8267 462.094 33.9533 461.587 34.06C461.08 34.18 460.507 34.24 459.867 34.24ZM465.679 34V19.88H467.999V23.52L467.859 25.62H467.919C468.346 25.1667 468.839 24.7733 469.399 24.44C469.959 24.1067 470.619 23.94 471.379 23.94C472.512 23.94 473.346 24.2867 473.879 24.98C474.412 25.66 474.679 26.64 474.679 27.92V34H472.359V28.22C472.359 27.42 472.219 26.84 471.939 26.48C471.672 26.1067 471.199 25.92 470.519 25.92C470.039 25.92 469.612 26.0333 469.239 26.26C468.866 26.4867 468.452 26.8333 467.999 27.3V34H465.679ZM482.631 34.24C481.885 34.24 481.185 34.1267 480.531 33.9C479.878 33.66 479.305 33.32 478.811 32.88C478.331 32.44 477.951 31.9 477.671 31.26C477.391 30.62 477.251 29.8933 477.251 29.08C477.251 28.28 477.391 27.5667 477.671 26.94C477.951 26.3 478.325 25.76 478.791 25.32C479.271 24.8667 479.811 24.5267 480.411 24.3C481.025 24.06 481.665 23.94 482.331 23.94C483.065 23.94 483.711 24.06 484.271 24.3C484.831 24.5267 485.305 24.8467 485.691 25.26C486.078 25.66 486.371 26.1467 486.571 26.72C486.771 27.2933 486.871 27.92 486.871 28.6C486.871 28.8267 486.858 29.0467 486.831 29.26C486.818 29.46 486.798 29.6267 486.771 29.76H479.551C479.685 30.68 480.051 31.36 480.651 31.8C481.251 32.24 482.011 32.46 482.931 32.46C483.451 32.46 483.931 32.3867 484.371 32.24C484.811 32.0933 485.251 31.8933 485.691 31.64L486.471 33.08C485.951 33.4267 485.358 33.7067 484.691 33.92C484.038 34.1333 483.351 34.24 482.631 34.24ZM482.391 25.72C481.711 25.72 481.111 25.92 480.591 26.32C480.085 26.72 479.758 27.32 479.611 28.12H484.831C484.751 27.32 484.498 26.72 484.071 26.32C483.658 25.92 483.098 25.72 482.391 25.72ZM494.083 34.24C493.163 34.24 492.283 34.0933 491.443 33.8C490.603 33.4933 489.877 33.1333 489.263 32.72L490.263 31.26C490.863 31.6467 491.497 31.9533 492.163 32.18C492.843 32.3933 493.583 32.5 494.383 32.5C495.063 32.5 495.563 32.3867 495.883 32.16C496.217 31.9333 496.383 31.6533 496.383 31.32C496.383 31.16 496.35 31.02 496.283 30.9C496.217 30.7667 496.083 30.64 495.883 30.52C495.683 30.4 495.403 30.2867 495.043 30.18C494.697 30.0733 494.237 29.96 493.663 29.84C492.343 29.5733 491.377 29.2 490.763 28.72C490.163 28.24 489.863 27.6267 489.863 26.88C489.863 26.0133 490.237 25.3067 490.983 24.76C491.73 24.2133 492.797 23.94 494.183 23.94C494.997 23.94 495.757 24.0733 496.463 24.34C497.17 24.6067 497.777 24.9067 498.283 25.24L497.223 26.66C496.743 26.3533 496.23 26.1133 495.683 25.94C495.137 25.7667 494.57 25.68 493.983 25.68C493.33 25.68 492.863 25.7867 492.583 26C492.303 26.2 492.163 26.4533 492.163 26.76C492.163 27.1067 492.363 27.3667 492.763 27.54C493.163 27.7133 493.817 27.9 494.723 28.1C495.51 28.2733 496.157 28.46 496.663 28.66C497.17 28.86 497.57 29.0867 497.863 29.34C498.17 29.58 498.383 29.8533 498.503 30.16C498.623 30.4667 498.683 30.8133 498.683 31.2C498.683 31.6267 498.583 32.0267 498.383 32.4C498.183 32.76 497.89 33.08 497.503 33.36C497.117 33.6267 496.637 33.84 496.063 34C495.49 34.16 494.83 34.24 494.083 34.24ZM506.616 34.24C505.869 34.24 505.169 34.1267 504.516 33.9C503.862 33.66 503.289 33.32 502.796 32.88C502.316 32.44 501.936 31.9 501.656 31.26C501.376 30.62 501.236 29.8933 501.236 29.08C501.236 28.28 501.376 27.5667 501.656 26.94C501.936 26.3 502.309 25.76 502.776 25.32C503.256 24.8667 503.796 24.5267 504.396 24.3C505.009 24.06 505.649 23.94 506.316 23.94C507.049 23.94 507.696 24.06 508.256 24.3C508.816 24.5267 509.289 24.8467 509.676 25.26C510.062 25.66 510.356 26.1467 510.556 26.72C510.756 27.2933 510.856 27.92 510.856 28.6C510.856 28.8267 510.842 29.0467 510.816 29.26C510.802 29.46 510.782 29.6267 510.756 29.76H503.536C503.669 30.68 504.036 31.36 504.636 31.8C505.236 32.24 505.996 32.46 506.916 32.46C507.436 32.46 507.916 32.3867 508.356 32.24C508.796 32.0933 509.236 31.8933 509.676 31.64L510.456 33.08C509.936 33.4267 509.342 33.7067 508.676 33.92C508.022 34.1333 507.336 34.24 506.616 34.24ZM506.376 25.72C505.696 25.72 505.096 25.92 504.576 26.32C504.069 26.72 503.742 27.32 503.596 28.12H508.816C508.736 27.32 508.482 26.72 508.056 26.32C507.642 25.92 507.082 25.72 506.376 25.72ZM518.068 34.24C517.148 34.24 516.268 34.0933 515.428 33.8C514.588 33.4933 513.861 33.1333 513.248 32.72L514.248 31.26C514.848 31.6467 515.481 31.9533 516.148 32.18C516.828 32.3933 517.568 32.5 518.368 32.5C519.048 32.5 519.548 32.3867 519.868 32.16C520.201 31.9333 520.368 31.6533 520.368 31.32C520.368 31.16 520.334 31.02 520.268 30.9C520.201 30.7667 520.068 30.64 519.868 30.52C519.668 30.4 519.388 30.2867 519.028 30.18C518.681 30.0733 518.221 29.96 517.648 29.84C516.328 29.5733 515.361 29.2 514.748 28.72C514.148 28.24 513.848 27.6267 513.848 26.88C513.848 26.0133 514.221 25.3067 514.968 24.76C515.714 24.2133 516.781 23.94 518.168 23.94C518.981 23.94 519.741 24.0733 520.448 24.34C521.154 24.6067 521.761 24.9067 522.268 25.24L521.208 26.66C520.728 26.3533 520.214 26.1133 519.668 25.94C519.121 25.7667 518.554 25.68 517.968 25.68C517.314 25.68 516.848 25.7867 516.568 26C516.288 26.2 516.148 26.4533 516.148 26.76C516.148 27.1067 516.348 27.3667 516.748 27.54C517.148 27.7133 517.801 27.9 518.708 28.1C519.494 28.2733 520.141 28.46 520.648 28.66C521.154 28.86 521.554 29.0867 521.848 29.34C522.154 29.58 522.368 29.8533 522.488 30.16C522.608 30.4667 522.668 30.8133 522.668 31.2C522.668 31.6267 522.568 32.0267 522.368 32.4C522.168 32.76 521.874 33.08 521.488 33.36C521.101 33.6267 520.621 33.84 520.048 34C519.474 34.16 518.814 34.24 518.068 34.24Z" fill="#27AE60"/>
<rect x="23" y="125" width="120" height="50" rx="4" fill="#F1F4F8"/>
<path d="M48.3234 156V154.66C49.3234 153.807 50.2168 153.027 51.0034 152.32C51.7901 151.6 52.4568 150.933 53.0034 150.32C53.5634 149.707 53.9901 149.133 54.2834 148.6C54.5768 148.067 54.7234 147.553 54.7234 147.06C54.7234 146.38 54.5168 145.847 54.1034 145.46C53.6901 145.06 53.0834 144.86 52.2834 144.86C51.7234 144.86 51.2101 145 50.7434 145.28C50.2901 145.56 49.8701 145.893 49.4834 146.28L48.2234 145C48.8368 144.373 49.4834 143.893 50.1634 143.56C50.8434 143.213 51.6501 143.04 52.5834 143.04C53.2368 143.04 53.8301 143.133 54.3634 143.32C54.8968 143.507 55.3501 143.773 55.7234 144.12C56.1101 144.453 56.4034 144.86 56.6034 145.34C56.8168 145.82 56.9234 146.353 56.9234 146.94C56.9234 147.5 56.7834 148.073 56.5034 148.66C56.2368 149.233 55.8701 149.82 55.4034 150.42C54.9368 151.007 54.3768 151.613 53.7234 152.24C53.0834 152.867 52.3968 153.513 51.6634 154.18C52.0368 154.153 52.4301 154.127 52.8434 154.1C53.2568 154.06 53.6368 154.04 53.9834 154.04H57.5834V156H48.3234ZM76.1278 154.02V150.24H72.5678V148.56H76.1278V144.78H77.8878V148.56H81.4478V150.24H77.8878V154.02H76.1278ZM96.7522 156V154.12H100.292V145.76H97.4722V144.32C97.8722 144.267 98.2322 144.207 98.5522 144.14C98.8722 144.06 99.1655 143.98 99.4322 143.9C99.7122 143.82 99.9722 143.727 100.212 143.62C100.452 143.513 100.686 143.4 100.912 143.28H102.592V154.12H105.712V156H96.7522ZM112.664 156.24C111.544 156.24 110.611 156.067 109.864 155.72C109.131 155.36 108.511 154.947 108.004 154.48L109.064 153C109.491 153.36 109.964 153.68 110.484 153.96C111.018 154.227 111.651 154.36 112.384 154.36C113.184 154.36 113.851 154.147 114.384 153.72C114.931 153.293 115.204 152.693 115.204 151.92C115.204 151.16 114.951 150.573 114.444 150.16C113.951 149.747 113.298 149.54 112.484 149.54C112.018 149.54 111.618 149.6 111.284 149.72C110.951 149.827 110.564 150.007 110.124 150.26L109.024 149.56L109.424 143.28H116.924V145.22H111.424L111.144 148.3C111.478 148.167 111.798 148.067 112.104 148C112.411 147.92 112.758 147.88 113.144 147.88C113.744 147.88 114.311 147.96 114.844 148.12C115.378 148.28 115.838 148.527 116.224 148.86C116.624 149.18 116.938 149.593 117.164 150.1C117.404 150.593 117.524 151.18 117.524 151.86C117.524 152.553 117.391 153.173 117.124 153.72C116.858 154.267 116.498 154.727 116.044 155.1C115.591 155.473 115.071 155.76 114.484 155.96C113.911 156.147 113.304 156.24 112.664 156.24Z" fill="black"/>
<rect x="414" y="125" width="110" height="50" rx="4" fill="#F1F4F8"/>
<path d="M444.7 156.24C443.58 156.24 442.646 156.067 441.9 155.72C441.166 155.36 440.546 154.947 440.04 154.48L441.1 153C441.526 153.36 442 153.68 442.52 153.96C443.053 154.227 443.686 154.36 444.42 154.36C445.22 154.36 445.886 154.147 446.42 153.72C446.966 153.293 447.24 152.693 447.24 151.92C447.24 151.16 446.986 150.573 446.48 150.16C445.986 149.747 445.333 149.54 444.52 149.54C444.053 149.54 443.653 149.6 443.32 149.72C442.986 149.827 442.6 150.007 442.16 150.26L441.06 149.56L441.46 143.28H448.96V145.22H443.46L443.18 148.3C443.513 148.167 443.833 148.067 444.14 148C444.446 147.92 444.793 147.88 445.18 147.88C445.78 147.88 446.346 147.96 446.88 148.12C447.413 148.28 447.873 148.527 448.26 148.86C448.66 149.18 448.973 149.593 449.2 150.1C449.44 150.593 449.56 151.18 449.56 151.86C449.56 152.553 449.426 153.173 449.16 153.72C448.893 154.267 448.533 154.727 448.08 155.1C447.626 155.473 447.106 155.76 446.52 155.96C445.946 156.147 445.34 156.24 444.7 156.24ZM466.644 153.98L465.584 153.24L467.644 150.02L464.484 148.64L464.864 147.46L468.164 148.44L468.364 144.78H469.644L469.844 148.44L473.144 147.46L473.524 148.64L470.364 150.02L472.424 153.24L471.364 153.98L469.004 150.98L466.644 153.98ZM492.668 156.24C491.548 156.24 490.615 156.067 489.868 155.72C489.135 155.36 488.515 154.947 488.008 154.48L489.068 153C489.495 153.36 489.968 153.68 490.488 153.96C491.022 154.227 491.655 154.36 492.388 154.36C493.188 154.36 493.855 154.147 494.388 153.72C494.935 153.293 495.208 152.693 495.208 151.92C495.208 151.16 494.955 150.573 494.448 150.16C493.955 149.747 493.302 149.54 492.488 149.54C492.022 149.54 491.622 149.6 491.288 149.72C490.955 149.827 490.568 150.007 490.128 150.26L489.028 149.56L489.428 143.28H496.928V145.22H491.428L491.148 148.3C491.482 148.167 491.802 148.067 492.108 148C492.415 147.92 492.762 147.88 493.148 147.88C493.748 147.88 494.315 147.96 494.848 148.12C495.382 148.28 495.842 148.527 496.228 148.86C496.628 149.18 496.942 149.593 497.168 150.1C497.408 150.593 497.528 151.18 497.528 151.86C497.528 152.553 497.395 153.173 497.128 153.72C496.862 154.267 496.502 154.727 496.048 155.1C495.595 155.473 495.075 155.76 494.488 155.96C493.915 156.147 493.308 156.24 492.668 156.24Z" fill="black"/>
<rect x="23" y="195" width="56" height="50" rx="4" fill="#F1F4F8"/>
<path d="M40.7678 226V224.12H44.3078V215.76H41.4878V214.32C41.8878 214.267 42.2478 214.207 42.5678 214.14C42.8878 214.06 43.1811 213.98 43.4478 213.9C43.7278 213.82 43.9878 213.727 44.2278 213.62C44.4678 213.513 44.7011 213.4 44.9278 213.28H46.6078V224.12H49.7278V226H40.7678ZM55.18 226C55.2333 224.867 55.34 223.833 55.5 222.9C55.6733 221.953 55.9133 221.06 56.22 220.22C56.54 219.367 56.94 218.54 57.42 217.74C57.9 216.927 58.4867 216.087 59.18 215.22H52.32V213.28H61.72V214.68C60.8933 215.6 60.22 216.48 59.7 217.32C59.18 218.147 58.7667 218.993 58.46 219.86C58.1533 220.727 57.9333 221.66 57.8 222.66C57.6667 223.647 57.5733 224.76 57.52 226H55.18Z" fill="#EB5757"/>
<rect x="468" y="195" width="56" height="50" rx="4" fill="#F1F4F8"/>
<path d="M485.308 226V224.66C486.308 223.807 487.201 223.027 487.988 222.32C488.774 221.6 489.441 220.933 489.988 220.32C490.548 219.707 490.974 219.133 491.268 218.6C491.561 218.067 491.708 217.553 491.708 217.06C491.708 216.38 491.501 215.847 491.088 215.46C490.674 215.06 490.068 214.86 489.268 214.86C488.708 214.86 488.194 215 487.728 215.28C487.274 215.56 486.854 215.893 486.468 216.28L485.208 215C485.821 214.373 486.468 213.893 487.148 213.56C487.828 213.213 488.634 213.04 489.568 213.04C490.221 213.04 490.814 213.133 491.348 213.32C491.881 213.507 492.334 213.773 492.708 214.12C493.094 214.453 493.388 214.86 493.588 215.34C493.801 215.82 493.908 216.353 493.908 216.94C493.908 217.5 493.768 218.073 493.488 218.66C493.221 219.233 492.854 219.82 492.388 220.42C491.921 221.007 491.361 221.613 490.708 222.24C490.068 222.867 489.381 223.513 488.648 224.18C489.021 224.153 489.414 224.127 489.828 224.1C490.241 224.06 490.621 224.04 490.968 224.04H494.568V226H485.308ZM501.68 226.24C500.56 226.24 499.627 226.067 498.88 225.72C498.147 225.36 497.527 224.947 497.02 224.48L498.08 223C498.507 223.36 498.98 223.68 499.5 223.96C500.033 224.227 500.667 224.36 501.4 224.36C502.2 224.36 502.867 224.147 503.4 223.72C503.947 223.293 504.22 222.693 504.22 221.92C504.22 221.16 503.967 220.573 503.46 220.16C502.967 219.747 502.313 219.54 501.5 219.54C501.033 219.54 500.633 219.6 500.3 219.72C499.967 219.827 499.58 220.007 499.14 220.26L498.04 219.56L498.44 213.28H505.94V215.22H500.44L500.16 218.3C500.493 218.167 500.813 218.067 501.12 218C501.427 217.92 501.773 217.88 502.16 217.88C502.76 217.88 503.327 217.96 503.86 218.12C504.393 218.28 504.853 218.527 505.24 218.86C505.64 219.18 505.953 219.593 506.18 220.1C506.42 220.593 506.54 221.18 506.54 221.86C506.54 222.553 506.407 223.173 506.14 223.72C505.873 224.267 505.513 224.727 505.06 225.1C504.607 225.473 504.087 225.76 503.5 225.96C502.927 226.147 502.32 226.24 501.68 226.24Z" fill="#27AE60"/>
<path d="M189.293 77.2929C188.902 77.6834 188.902 78.3166 189.293 78.7071L195.657 85.0711C196.047 85.4616 196.681 85.4616 197.071 85.0711C197.462 84.6805 197.462 84.0474 197.071 83.6569L191.414 78L197.071 72.3431C197.462 71.9526 197.462 71.3195 197.071 70.9289C196.681 70.5384 196.047 70.5384 195.657 70.9289L189.293 77.2929ZM210 77H190V79H210V77Z" fill="#EB5757"/>
<path d="M151.293 147.293C150.902 147.683 150.902 148.317 151.293 148.707L157.657 155.071C158.047 155.462 158.681 155.462 159.071 155.071C159.462 154.681 159.462 154.047 159.071 153.657L153.414 148L159.071 142.343C159.462 141.953 159.462 141.319 159.071 140.929C158.681 140.538 158.047 140.538 157.657 140.929L151.293 147.293ZM172 147H152V149H172V147Z" fill="#EB5757"/>
<path d="M402.707 147.293C403.098 147.683 403.098 148.317 402.707 148.707L396.343 155.071C395.953 155.462 395.319 155.462 394.929 155.071C394.538 154.681 394.538 154.047 394.929 153.657L400.586 148L394.929 142.343C394.538 141.953 394.538 141.319 394.929 140.929C395.319 140.538 395.953 140.538 396.343 140.929L402.707 147.293ZM382 147H402V149H382V147Z" fill="#27AE60"/>
<path d="M356.707 77.2929C357.098 77.6834 357.098 78.3166 356.707 78.7071L350.343 85.0711C349.953 85.4616 349.319 85.4616 348.929 85.0711C348.538 84.6805 348.538 84.0474 348.929 83.6569L354.586 78L348.929 72.3431C348.538 71.9526 348.538 71.3195 348.929 70.9289C349.319 70.5384 349.953 70.5384 350.343 70.9289L356.707 77.2929ZM336 77H356V79H336V77Z" fill="#27AE60"/>
<g style="mix-blend-mode:hard-light">
<rect x="87" y="65" width="80" height="30" rx="4" fill="#EB5757"/>
</g>
<g style="mix-blend-mode:hard-light">
<rect x="43" y="135" width="80" height="30" rx="4" fill="#EB5757"/>
</g>
<g style="mix-blend-mode:multiply">
<rect x="430" y="135" width="80" height="30" rx="4" fill="#6FCF97"/>
</g>
</svg>
