<svg width="573" height="182" viewBox="0 0 573 182" fill="none" xmlns="http://www.w3.org/2000/svg">
<rect width="573" height="182" fill="white"/>
<rect x="159" y="31" width="37" height="24" fill="#56CCF2" stroke="#F2994A" stroke-width="2"/>
<rect x="251" y="31" width="37" height="24" fill="#56CCF2" stroke="#F2994A" stroke-width="2"/>
<rect x="205" y="31" width="37" height="24" fill="#56CCF2" stroke="#F2994A" stroke-width="2"/>
<rect x="297" y="31" width="37" height="24" fill="#56CCF2" stroke="#F2994A" stroke-width="2"/>
<rect x="389" y="31" width="37" height="24" fill="#56CCF2" stroke="#F2994A" stroke-width="2"/>
<rect x="435" y="31" width="37" height="24" fill="#56CCF2" stroke="#F2994A" stroke-width="2"/>
<rect x="343" y="31" width="37" height="24" fill="#56CCF2" stroke="#F2994A" stroke-width="2"/>
<g filter="url(#filter0_f)">
<rect x="246" y="71" width="227" height="35" fill="#EB5757"/>
</g>
<path d="M173.776 43.8848C173.114 44.5352 172.341 44.8604 171.456 44.8604C170.325 44.8604 169.42 44.4736 168.74 43.7002C168.061 42.9209 167.721 41.8721 167.721 40.5537C167.721 39.7158 167.902 38.9482 168.266 38.251C168.635 37.5479 169.147 37.0029 169.804 36.6162C170.46 36.2236 171.198 36.0273 172.019 36.0273C172.862 36.0273 173.612 36.2383 174.269 36.6602C174.925 37.082 175.435 37.6885 175.798 38.4795C176.161 39.2705 176.346 40.1758 176.352 41.1953V42.1357C176.352 44.2686 175.821 45.9443 174.761 47.1631C173.7 48.3818 172.197 49.0322 170.252 49.1143L169.628 49.123V47.0049L170.19 46.9961C172.399 46.8965 173.595 45.8594 173.776 43.8848ZM172.08 42.918C172.49 42.918 172.842 42.8125 173.135 42.6016C173.434 42.3906 173.659 42.1357 173.812 41.8369V40.791C173.812 39.9297 173.647 39.2617 173.319 38.7871C172.991 38.3125 172.552 38.0752 172.001 38.0752C171.491 38.0752 171.072 38.3096 170.744 38.7783C170.416 39.2412 170.252 39.8242 170.252 40.5273C170.252 41.2246 170.41 41.7988 170.727 42.25C171.049 42.6953 171.5 42.918 172.08 42.918ZM186.942 49H178.171V47.2598L182.311 42.8477C182.879 42.2266 183.298 41.6846 183.567 41.2217C183.843 40.7588 183.98 40.3193 183.98 39.9033C183.98 39.335 183.837 38.8896 183.55 38.5674C183.263 38.2393 182.853 38.0752 182.319 38.0752C181.745 38.0752 181.291 38.2744 180.957 38.6729C180.629 39.0654 180.465 39.584 180.465 40.2285H177.916C177.916 39.4492 178.101 38.7373 178.47 38.0928C178.845 37.4482 179.372 36.9443 180.052 36.5811C180.731 36.2119 181.502 36.0273 182.363 36.0273C183.682 36.0273 184.704 36.3438 185.431 36.9766C186.163 37.6094 186.529 38.5029 186.529 39.6572C186.529 40.29 186.365 40.9346 186.037 41.5908C185.709 42.2471 185.146 43.0117 184.35 43.8848L181.44 46.9521H186.942V49ZM221.343 43.8848C220.681 44.5352 219.907 44.8604 219.022 44.8604C217.892 44.8604 216.986 44.4736 216.307 43.7002C215.627 42.9209 215.287 41.8721 215.287 40.5537C215.287 39.7158 215.469 38.9482 215.832 38.251C216.201 37.5479 216.714 37.0029 217.37 36.6162C218.026 36.2236 218.765 36.0273 219.585 36.0273C220.429 36.0273 221.179 36.2383 221.835 36.6602C222.491 37.082 223.001 37.6885 223.364 38.4795C223.728 39.2705 223.912 40.1758 223.918 41.1953V42.1357C223.918 44.2686 223.388 45.9443 222.327 47.1631C221.267 48.3818 219.764 49.0322 217.818 49.1143L217.194 49.123V47.0049L217.757 46.9961C219.966 46.8965 221.161 45.8594 221.343 43.8848ZM219.646 42.918C220.057 42.918 220.408 42.8125 220.701 42.6016C221 42.3906 221.226 42.1357 221.378 41.8369V40.791C221.378 39.9297 221.214 39.2617 220.886 38.7871C220.558 38.3125 220.118 38.0752 219.567 38.0752C219.058 38.0752 218.639 38.3096 218.311 38.7783C217.982 39.2412 217.818 39.8242 217.818 40.5273C217.818 41.2246 217.977 41.7988 218.293 42.25C218.615 42.6953 219.066 42.918 219.646 42.918ZM234.351 43.709C234.351 45.4785 233.984 46.832 233.252 47.7695C232.52 48.707 231.447 49.1758 230.035 49.1758C228.641 49.1758 227.574 48.7158 226.836 47.7959C226.098 46.876 225.72 45.5576 225.702 43.8408V41.4854C225.702 39.6982 226.071 38.3418 226.81 37.416C227.554 36.4902 228.623 36.0273 230.018 36.0273C231.412 36.0273 232.479 36.4873 233.217 37.4072C233.955 38.3213 234.333 39.6367 234.351 41.3535V43.709ZM231.811 41.125C231.811 40.0645 231.664 39.2939 231.371 38.8135C231.084 38.3271 230.633 38.084 230.018 38.084C229.42 38.084 228.978 38.3154 228.69 38.7783C228.409 39.2354 228.26 39.9531 228.242 40.9316V44.043C228.242 45.0859 228.383 45.8623 228.664 46.3721C228.951 46.876 229.408 47.1279 230.035 47.1279C230.656 47.1279 231.104 46.8848 231.38 46.3984C231.655 45.9121 231.799 45.168 231.811 44.166V41.125ZM266.826 39.6045C266.826 40.2256 266.671 40.7764 266.36 41.2568C266.05 41.7373 265.622 42.1211 265.077 42.4082C265.698 42.707 266.19 43.1201 266.554 43.6475C266.917 44.1689 267.099 44.7842 267.099 45.4932C267.099 46.6299 266.712 47.5293 265.938 48.1914C265.165 48.8477 264.113 49.1758 262.783 49.1758C261.453 49.1758 260.398 48.8447 259.619 48.1826C258.84 47.5205 258.45 46.624 258.45 45.4932C258.45 44.7842 258.632 44.166 258.995 43.6387C259.358 43.1113 259.848 42.7012 260.463 42.4082C259.918 42.1211 259.49 41.7373 259.18 41.2568C258.875 40.7764 258.723 40.2256 258.723 39.6045C258.723 38.5146 259.086 37.6475 259.812 37.0029C260.539 36.3525 261.526 36.0273 262.774 36.0273C264.017 36.0273 265.001 36.3496 265.728 36.9941C266.46 37.6328 266.826 38.5029 266.826 39.6045ZM264.55 45.3086C264.55 44.752 264.389 44.3066 264.066 43.9727C263.744 43.6387 263.311 43.4717 262.766 43.4717C262.227 43.4717 261.796 43.6387 261.474 43.9727C261.151 44.3008 260.99 44.7461 260.99 45.3086C260.99 45.8535 261.148 46.293 261.465 46.627C261.781 46.9609 262.221 47.1279 262.783 47.1279C263.334 47.1279 263.765 46.9668 264.075 46.6445C264.392 46.3223 264.55 45.877 264.55 45.3086ZM264.286 39.7275C264.286 39.2295 264.154 38.8311 263.891 38.5322C263.627 38.2275 263.255 38.0752 262.774 38.0752C262.3 38.0752 261.931 38.2217 261.667 38.5146C261.403 38.8076 261.271 39.2119 261.271 39.7275C261.271 40.2373 261.403 40.6475 261.667 40.958C261.931 41.2686 262.303 41.4238 262.783 41.4238C263.264 41.4238 263.633 41.2686 263.891 40.958C264.154 40.6475 264.286 40.2373 264.286 39.7275ZM276.336 44.1836H277.786V46.2314H276.336V49H273.796V46.2314H268.549L268.435 44.6318L273.77 36.2031H276.336V44.1836ZM270.966 44.1836H273.796V39.666L273.629 39.9561L270.966 44.1836ZM311.993 43.8848C311.331 44.5352 310.558 44.8604 309.673 44.8604C308.542 44.8604 307.637 44.4736 306.957 43.7002C306.277 42.9209 305.938 41.8721 305.938 40.5537C305.938 39.7158 306.119 38.9482 306.482 38.251C306.852 37.5479 307.364 37.0029 308.021 36.6162C308.677 36.2236 309.415 36.0273 310.235 36.0273C311.079 36.0273 311.829 36.2383 312.485 36.6602C313.142 37.082 313.651 37.6885 314.015 38.4795C314.378 39.2705 314.562 40.1758 314.568 41.1953V42.1357C314.568 44.2686 314.038 45.9443 312.978 47.1631C311.917 48.3818 310.414 49.0322 308.469 49.1143L307.845 49.123V47.0049L308.407 46.9961C310.616 46.8965 311.812 45.8594 311.993 43.8848ZM310.297 42.918C310.707 42.918 311.059 42.8125 311.352 42.6016C311.65 42.3906 311.876 42.1357 312.028 41.8369V40.791C312.028 39.9297 311.864 39.2617 311.536 38.7871C311.208 38.3125 310.769 38.0752 310.218 38.0752C309.708 38.0752 309.289 38.3096 308.961 38.7783C308.633 39.2412 308.469 39.8242 308.469 40.5273C308.469 41.2246 308.627 41.7988 308.943 42.25C309.266 42.6953 309.717 42.918 310.297 42.918ZM316.766 42.707L317.504 36.2031H324.676V38.3213H319.587L319.271 41.0723C319.874 40.75 320.516 40.5889 321.195 40.5889C322.414 40.5889 323.369 40.9668 324.061 41.7227C324.752 42.4785 325.098 43.5361 325.098 44.8955C325.098 45.7217 324.922 46.4629 324.57 47.1191C324.225 47.7695 323.727 48.2764 323.076 48.6396C322.426 48.9971 321.658 49.1758 320.773 49.1758C320 49.1758 319.282 49.0205 318.62 48.71C317.958 48.3936 317.434 47.9512 317.047 47.3828C316.666 46.8145 316.464 46.167 316.44 45.4404H318.954C319.007 45.9736 319.191 46.3896 319.508 46.6885C319.83 46.9814 320.249 47.1279 320.765 47.1279C321.339 47.1279 321.781 46.9229 322.092 46.5127C322.402 46.0967 322.558 45.5107 322.558 44.7549C322.558 44.0283 322.379 43.4717 322.021 43.085C321.664 42.6982 321.157 42.5049 320.501 42.5049C319.897 42.5049 319.408 42.6631 319.033 42.9795L318.787 43.208L316.766 42.707ZM362.319 37.627L357.371 49H354.69L359.647 38.2598H353.284V36.2031H362.319V37.627ZM372.655 37.627L367.707 49H365.026L369.983 38.2598H363.62V36.2031H372.655V37.627ZM402.644 43.8848C401.981 44.5352 401.208 44.8604 400.323 44.8604C399.192 44.8604 398.287 44.4736 397.607 43.7002C396.928 42.9209 396.588 41.8721 396.588 40.5537C396.588 39.7158 396.77 38.9482 397.133 38.251C397.502 37.5479 398.015 37.0029 398.671 36.6162C399.327 36.2236 400.065 36.0273 400.886 36.0273C401.729 36.0273 402.479 36.2383 403.136 36.6602C403.792 37.082 404.302 37.6885 404.665 38.4795C405.028 39.2705 405.213 40.1758 405.219 41.1953V42.1357C405.219 44.2686 404.688 45.9443 403.628 47.1631C402.567 48.3818 401.064 49.0322 399.119 49.1143L398.495 49.123V47.0049L399.058 46.9961C401.267 46.8965 402.462 45.8594 402.644 43.8848ZM400.947 42.918C401.357 42.918 401.709 42.8125 402.002 42.6016C402.301 42.3906 402.526 42.1357 402.679 41.8369V40.791C402.679 39.9297 402.515 39.2617 402.187 38.7871C401.858 38.3125 401.419 38.0752 400.868 38.0752C400.358 38.0752 399.939 38.3096 399.611 38.7783C399.283 39.2412 399.119 39.8242 399.119 40.5273C399.119 41.2246 399.277 41.7988 399.594 42.25C399.916 42.6953 400.367 42.918 400.947 42.918ZM415.81 49H407.038V47.2598L411.178 42.8477C411.746 42.2266 412.165 41.6846 412.435 41.2217C412.71 40.7588 412.848 40.3193 412.848 39.9033C412.848 39.335 412.704 38.8896 412.417 38.5674C412.13 38.2393 411.72 38.0752 411.187 38.0752C410.612 38.0752 410.158 38.2744 409.824 38.6729C409.496 39.0654 409.332 39.584 409.332 40.2285H406.783C406.783 39.4492 406.968 38.7373 407.337 38.0928C407.712 37.4482 408.239 36.9443 408.919 36.5811C409.599 36.2119 410.369 36.0273 411.23 36.0273C412.549 36.0273 413.571 36.3438 414.298 36.9766C415.03 37.6094 415.396 38.5029 415.396 39.6572C415.396 40.29 415.232 40.9346 414.904 41.5908C414.576 42.2471 414.014 43.0117 413.217 43.8848L410.308 46.9521H415.81V49ZM452.609 39.6045C452.609 40.2256 452.454 40.7764 452.144 41.2568C451.833 41.7373 451.405 42.1211 450.86 42.4082C451.481 42.707 451.974 43.1201 452.337 43.6475C452.7 44.1689 452.882 44.7842 452.882 45.4932C452.882 46.6299 452.495 47.5293 451.722 48.1914C450.948 48.8477 449.896 49.1758 448.566 49.1758C447.236 49.1758 446.182 48.8447 445.402 48.1826C444.623 47.5205 444.233 46.624 444.233 45.4932C444.233 44.7842 444.415 44.166 444.778 43.6387C445.142 43.1113 445.631 42.7012 446.246 42.4082C445.701 42.1211 445.273 41.7373 444.963 41.2568C444.658 40.7764 444.506 40.2256 444.506 39.6045C444.506 38.5146 444.869 37.6475 445.596 37.0029C446.322 36.3525 447.31 36.0273 448.558 36.0273C449.8 36.0273 450.784 36.3496 451.511 36.9941C452.243 37.6328 452.609 38.5029 452.609 39.6045ZM450.333 45.3086C450.333 44.752 450.172 44.3066 449.85 43.9727C449.527 43.6387 449.094 43.4717 448.549 43.4717C448.01 43.4717 447.579 43.6387 447.257 43.9727C446.935 44.3008 446.773 44.7461 446.773 45.3086C446.773 45.8535 446.932 46.293 447.248 46.627C447.564 46.9609 448.004 47.1279 448.566 47.1279C449.117 47.1279 449.548 46.9668 449.858 46.6445C450.175 46.3223 450.333 45.877 450.333 45.3086ZM450.069 39.7275C450.069 39.2295 449.938 38.8311 449.674 38.5322C449.41 38.2275 449.038 38.0752 448.558 38.0752C448.083 38.0752 447.714 38.2217 447.45 38.5146C447.187 38.8076 447.055 39.2119 447.055 39.7275C447.055 40.2373 447.187 40.6475 447.45 40.958C447.714 41.2686 448.086 41.4238 448.566 41.4238C449.047 41.4238 449.416 41.2686 449.674 40.958C449.938 40.6475 450.069 40.2373 450.069 39.7275ZM454.982 42.707L455.721 36.2031H462.893V38.3213H457.804L457.487 41.0723C458.091 40.75 458.732 40.5889 459.412 40.5889C460.631 40.5889 461.586 40.9668 462.277 41.7227C462.969 42.4785 463.314 43.5361 463.314 44.8955C463.314 45.7217 463.139 46.4629 462.787 47.1191C462.441 47.7695 461.943 48.2764 461.293 48.6396C460.643 48.9971 459.875 49.1758 458.99 49.1758C458.217 49.1758 457.499 49.0205 456.837 48.71C456.175 48.3936 455.65 47.9512 455.264 47.3828C454.883 46.8145 454.681 46.167 454.657 45.4404H457.171C457.224 45.9736 457.408 46.3896 457.725 46.6885C458.047 46.9814 458.466 47.1279 458.981 47.1279C459.556 47.1279 459.998 46.9229 460.309 46.5127C460.619 46.0967 460.774 45.5107 460.774 44.7549C460.774 44.0283 460.596 43.4717 460.238 43.085C459.881 42.6982 459.374 42.5049 458.718 42.5049C458.114 42.5049 457.625 42.6631 457.25 42.9795L457.004 43.208L454.982 42.707Z" fill="black"/>
<rect x="159" y="77" width="37" height="24" fill="#56CCF2" stroke="#F2994A" stroke-width="2"/>
<rect x="205" y="77" width="37" height="24" fill="#56CCF2" stroke="#F2994A" stroke-width="2"/>
<path d="M176.176 85.6045C176.176 86.2256 176.021 86.7764 175.71 87.2568C175.399 87.7373 174.972 88.1211 174.427 88.4082C175.048 88.707 175.54 89.1201 175.903 89.6475C176.267 90.1689 176.448 90.7842 176.448 91.4932C176.448 92.6299 176.062 93.5293 175.288 94.1914C174.515 94.8477 173.463 95.1758 172.133 95.1758C170.803 95.1758 169.748 94.8447 168.969 94.1826C168.189 93.5205 167.8 92.624 167.8 91.4932C167.8 90.7842 167.981 90.166 168.345 89.6387C168.708 89.1113 169.197 88.7012 169.812 88.4082C169.268 88.1211 168.84 87.7373 168.529 87.2568C168.225 86.7764 168.072 86.2256 168.072 85.6045C168.072 84.5146 168.436 83.6475 169.162 83.0029C169.889 82.3525 170.876 82.0273 172.124 82.0273C173.366 82.0273 174.351 82.3496 175.077 82.9941C175.81 83.6328 176.176 84.5029 176.176 85.6045ZM173.899 91.3086C173.899 90.752 173.738 90.3066 173.416 89.9727C173.094 89.6387 172.66 89.4717 172.115 89.4717C171.576 89.4717 171.146 89.6387 170.823 89.9727C170.501 90.3008 170.34 90.7461 170.34 91.3086C170.34 91.8535 170.498 92.293 170.814 92.627C171.131 92.9609 171.57 93.1279 172.133 93.1279C172.684 93.1279 173.114 92.9668 173.425 92.6445C173.741 92.3223 173.899 91.877 173.899 91.3086ZM173.636 85.7275C173.636 85.2295 173.504 84.8311 173.24 84.5322C172.977 84.2275 172.604 84.0752 172.124 84.0752C171.649 84.0752 171.28 84.2217 171.017 84.5146C170.753 84.8076 170.621 85.2119 170.621 85.7275C170.621 86.2373 170.753 86.6475 171.017 86.958C171.28 87.2686 171.652 87.4238 172.133 87.4238C172.613 87.4238 172.982 87.2686 173.24 86.958C173.504 86.6475 173.636 86.2373 173.636 85.7275ZM186.872 83.627L181.924 95H179.243L184.2 84.2598H177.837V82.2031H186.872V83.627ZM223.742 85.6045C223.742 86.2256 223.587 86.7764 223.276 87.2568C222.966 87.7373 222.538 88.1211 221.993 88.4082C222.614 88.707 223.106 89.1201 223.47 89.6475C223.833 90.1689 224.015 90.7842 224.015 91.4932C224.015 92.6299 223.628 93.5293 222.854 94.1914C222.081 94.8477 221.029 95.1758 219.699 95.1758C218.369 95.1758 217.314 94.8447 216.535 94.1826C215.756 93.5205 215.366 92.624 215.366 91.4932C215.366 90.7842 215.548 90.166 215.911 89.6387C216.274 89.1113 216.764 88.7012 217.379 88.4082C216.834 88.1211 216.406 87.7373 216.096 87.2568C215.791 86.7764 215.639 86.2256 215.639 85.6045C215.639 84.5146 216.002 83.6475 216.729 83.0029C217.455 82.3525 218.442 82.0273 219.69 82.0273C220.933 82.0273 221.917 82.3496 222.644 82.9941C223.376 83.6328 223.742 84.5029 223.742 85.6045ZM221.466 91.3086C221.466 90.752 221.305 90.3066 220.982 89.9727C220.66 89.6387 220.227 89.4717 219.682 89.4717C219.143 89.4717 218.712 89.6387 218.39 89.9727C218.067 90.3008 217.906 90.7461 217.906 91.3086C217.906 91.8535 218.064 92.293 218.381 92.627C218.697 92.9609 219.137 93.1279 219.699 93.1279C220.25 93.1279 220.681 92.9668 220.991 92.6445C221.308 92.3223 221.466 91.877 221.466 91.3086ZM221.202 85.7275C221.202 85.2295 221.07 84.8311 220.807 84.5322C220.543 84.2275 220.171 84.0752 219.69 84.0752C219.216 84.0752 218.847 84.2217 218.583 84.5146C218.319 84.8076 218.188 85.2119 218.188 85.7275C218.188 86.2373 218.319 86.6475 218.583 86.958C218.847 87.2686 219.219 87.4238 219.699 87.4238C220.18 87.4238 220.549 87.2686 220.807 86.958C221.07 86.6475 221.202 86.2373 221.202 85.7275ZM231.907 95H229.367V85.209L226.335 86.1494V84.084L231.635 82.1855H231.907V95Z" fill="black"/>
<rect x="250" y="77" width="37" height="24" fill="#56CCF2" stroke="#F2994A" stroke-width="2"/>
<rect x="296" y="77" width="37" height="24" fill="#56CCF2" stroke="#F2994A" stroke-width="2"/>
<path d="M267.176 85.6045C267.176 86.2256 267.021 86.7764 266.71 87.2568C266.399 87.7373 265.972 88.1211 265.427 88.4082C266.048 88.707 266.54 89.1201 266.903 89.6475C267.267 90.1689 267.448 90.7842 267.448 91.4932C267.448 92.6299 267.062 93.5293 266.288 94.1914C265.515 94.8477 264.463 95.1758 263.133 95.1758C261.803 95.1758 260.748 94.8447 259.969 94.1826C259.189 93.5205 258.8 92.624 258.8 91.4932C258.8 90.7842 258.981 90.166 259.345 89.6387C259.708 89.1113 260.197 88.7012 260.812 88.4082C260.268 88.1211 259.84 87.7373 259.529 87.2568C259.225 86.7764 259.072 86.2256 259.072 85.6045C259.072 84.5146 259.436 83.6475 260.162 83.0029C260.889 82.3525 261.876 82.0273 263.124 82.0273C264.366 82.0273 265.351 82.3496 266.077 82.9941C266.81 83.6328 267.176 84.5029 267.176 85.6045ZM264.899 91.3086C264.899 90.752 264.738 90.3066 264.416 89.9727C264.094 89.6387 263.66 89.4717 263.115 89.4717C262.576 89.4717 262.146 89.6387 261.823 89.9727C261.501 90.3008 261.34 90.7461 261.34 91.3086C261.34 91.8535 261.498 92.293 261.814 92.627C262.131 92.9609 262.57 93.1279 263.133 93.1279C263.684 93.1279 264.114 92.9668 264.425 92.6445C264.741 92.3223 264.899 91.877 264.899 91.3086ZM264.636 85.7275C264.636 85.2295 264.504 84.8311 264.24 84.5322C263.977 84.2275 263.604 84.0752 263.124 84.0752C262.649 84.0752 262.28 84.2217 262.017 84.5146C261.753 84.8076 261.621 85.2119 261.621 85.7275C261.621 86.2373 261.753 86.6475 262.017 86.958C262.28 87.2686 262.652 87.4238 263.133 87.4238C263.613 87.4238 263.982 87.2686 264.24 86.958C264.504 86.6475 264.636 86.2373 264.636 85.7275ZM277.872 83.627L272.924 95H270.243L275.2 84.2598H268.837V82.2031H277.872V83.627ZM314.742 85.6045C314.742 86.2256 314.587 86.7764 314.276 87.2568C313.966 87.7373 313.538 88.1211 312.993 88.4082C313.614 88.707 314.106 89.1201 314.47 89.6475C314.833 90.1689 315.015 90.7842 315.015 91.4932C315.015 92.6299 314.628 93.5293 313.854 94.1914C313.081 94.8477 312.029 95.1758 310.699 95.1758C309.369 95.1758 308.314 94.8447 307.535 94.1826C306.756 93.5205 306.366 92.624 306.366 91.4932C306.366 90.7842 306.548 90.166 306.911 89.6387C307.274 89.1113 307.764 88.7012 308.379 88.4082C307.834 88.1211 307.406 87.7373 307.096 87.2568C306.791 86.7764 306.639 86.2256 306.639 85.6045C306.639 84.5146 307.002 83.6475 307.729 83.0029C308.455 82.3525 309.442 82.0273 310.69 82.0273C311.933 82.0273 312.917 82.3496 313.644 82.9941C314.376 83.6328 314.742 84.5029 314.742 85.6045ZM312.466 91.3086C312.466 90.752 312.305 90.3066 311.982 89.9727C311.66 89.6387 311.227 89.4717 310.682 89.4717C310.143 89.4717 309.712 89.6387 309.39 89.9727C309.067 90.3008 308.906 90.7461 308.906 91.3086C308.906 91.8535 309.064 92.293 309.381 92.627C309.697 92.9609 310.137 93.1279 310.699 93.1279C311.25 93.1279 311.681 92.9668 311.991 92.6445C312.308 92.3223 312.466 91.877 312.466 91.3086ZM312.202 85.7275C312.202 85.2295 312.07 84.8311 311.807 84.5322C311.543 84.2275 311.171 84.0752 310.69 84.0752C310.216 84.0752 309.847 84.2217 309.583 84.5146C309.319 84.8076 309.188 85.2119 309.188 85.7275C309.188 86.2373 309.319 86.6475 309.583 86.958C309.847 87.2686 310.219 87.4238 310.699 87.4238C311.18 87.4238 311.549 87.2686 311.807 86.958C312.07 86.6475 312.202 86.2373 312.202 85.7275ZM322.907 95H320.367V85.209L317.335 86.1494V84.084L322.635 82.1855H322.907V95Z" fill="black"/>
<rect x="341" y="77" width="37" height="24" fill="#56CCF2" stroke="#F2994A" stroke-width="2"/>
<rect x="387" y="77" width="37" height="24" fill="#56CCF2" stroke="#F2994A" stroke-width="2"/>
<path d="M358.176 85.6045C358.176 86.2256 358.021 86.7764 357.71 87.2568C357.399 87.7373 356.972 88.1211 356.427 88.4082C357.048 88.707 357.54 89.1201 357.903 89.6475C358.267 90.1689 358.448 90.7842 358.448 91.4932C358.448 92.6299 358.062 93.5293 357.288 94.1914C356.515 94.8477 355.463 95.1758 354.133 95.1758C352.803 95.1758 351.748 94.8447 350.969 94.1826C350.189 93.5205 349.8 92.624 349.8 91.4932C349.8 90.7842 349.981 90.166 350.345 89.6387C350.708 89.1113 351.197 88.7012 351.812 88.4082C351.268 88.1211 350.84 87.7373 350.529 87.2568C350.225 86.7764 350.072 86.2256 350.072 85.6045C350.072 84.5146 350.436 83.6475 351.162 83.0029C351.889 82.3525 352.876 82.0273 354.124 82.0273C355.366 82.0273 356.351 82.3496 357.077 82.9941C357.81 83.6328 358.176 84.5029 358.176 85.6045ZM355.899 91.3086C355.899 90.752 355.738 90.3066 355.416 89.9727C355.094 89.6387 354.66 89.4717 354.115 89.4717C353.576 89.4717 353.146 89.6387 352.823 89.9727C352.501 90.3008 352.34 90.7461 352.34 91.3086C352.34 91.8535 352.498 92.293 352.814 92.627C353.131 92.9609 353.57 93.1279 354.133 93.1279C354.684 93.1279 355.114 92.9668 355.425 92.6445C355.741 92.3223 355.899 91.877 355.899 91.3086ZM355.636 85.7275C355.636 85.2295 355.504 84.8311 355.24 84.5322C354.977 84.2275 354.604 84.0752 354.124 84.0752C353.649 84.0752 353.28 84.2217 353.017 84.5146C352.753 84.8076 352.621 85.2119 352.621 85.7275C352.621 86.2373 352.753 86.6475 353.017 86.958C353.28 87.2686 353.652 87.4238 354.133 87.4238C354.613 87.4238 354.982 87.2686 355.24 86.958C355.504 86.6475 355.636 86.2373 355.636 85.7275ZM368.872 83.627L363.924 95H361.243L366.2 84.2598H359.837V82.2031H368.872V83.627ZM405.742 85.6045C405.742 86.2256 405.587 86.7764 405.276 87.2568C404.966 87.7373 404.538 88.1211 403.993 88.4082C404.614 88.707 405.106 89.1201 405.47 89.6475C405.833 90.1689 406.015 90.7842 406.015 91.4932C406.015 92.6299 405.628 93.5293 404.854 94.1914C404.081 94.8477 403.029 95.1758 401.699 95.1758C400.369 95.1758 399.314 94.8447 398.535 94.1826C397.756 93.5205 397.366 92.624 397.366 91.4932C397.366 90.7842 397.548 90.166 397.911 89.6387C398.274 89.1113 398.764 88.7012 399.379 88.4082C398.834 88.1211 398.406 87.7373 398.096 87.2568C397.791 86.7764 397.639 86.2256 397.639 85.6045C397.639 84.5146 398.002 83.6475 398.729 83.0029C399.455 82.3525 400.442 82.0273 401.69 82.0273C402.933 82.0273 403.917 82.3496 404.644 82.9941C405.376 83.6328 405.742 84.5029 405.742 85.6045ZM403.466 91.3086C403.466 90.752 403.305 90.3066 402.982 89.9727C402.66 89.6387 402.227 89.4717 401.682 89.4717C401.143 89.4717 400.712 89.6387 400.39 89.9727C400.067 90.3008 399.906 90.7461 399.906 91.3086C399.906 91.8535 400.064 92.293 400.381 92.627C400.697 92.9609 401.137 93.1279 401.699 93.1279C402.25 93.1279 402.681 92.9668 402.991 92.6445C403.308 92.3223 403.466 91.877 403.466 91.3086ZM403.202 85.7275C403.202 85.2295 403.07 84.8311 402.807 84.5322C402.543 84.2275 402.171 84.0752 401.69 84.0752C401.216 84.0752 400.847 84.2217 400.583 84.5146C400.319 84.8076 400.188 85.2119 400.188 85.7275C400.188 86.2373 400.319 86.6475 400.583 86.958C400.847 87.2686 401.219 87.4238 401.699 87.4238C402.18 87.4238 402.549 87.2686 402.807 86.958C403.07 86.6475 403.202 86.2373 403.202 85.7275ZM413.907 95H411.367V85.209L408.335 86.1494V84.084L413.635 82.1855H413.907V95Z" fill="black"/>
<rect x="432" y="77" width="37" height="24" fill="#56CCF2" stroke="#F2994A" stroke-width="2"/>
<path d="M449.176 85.6045C449.176 86.2256 449.021 86.7764 448.71 87.2568C448.399 87.7373 447.972 88.1211 447.427 88.4082C448.048 88.707 448.54 89.1201 448.903 89.6475C449.267 90.1689 449.448 90.7842 449.448 91.4932C449.448 92.6299 449.062 93.5293 448.288 94.1914C447.515 94.8477 446.463 95.1758 445.133 95.1758C443.803 95.1758 442.748 94.8447 441.969 94.1826C441.189 93.5205 440.8 92.624 440.8 91.4932C440.8 90.7842 440.981 90.166 441.345 89.6387C441.708 89.1113 442.197 88.7012 442.812 88.4082C442.268 88.1211 441.84 87.7373 441.529 87.2568C441.225 86.7764 441.072 86.2256 441.072 85.6045C441.072 84.5146 441.436 83.6475 442.162 83.0029C442.889 82.3525 443.876 82.0273 445.124 82.0273C446.366 82.0273 447.351 82.3496 448.077 82.9941C448.81 83.6328 449.176 84.5029 449.176 85.6045ZM446.899 91.3086C446.899 90.752 446.738 90.3066 446.416 89.9727C446.094 89.6387 445.66 89.4717 445.115 89.4717C444.576 89.4717 444.146 89.6387 443.823 89.9727C443.501 90.3008 443.34 90.7461 443.34 91.3086C443.34 91.8535 443.498 92.293 443.814 92.627C444.131 92.9609 444.57 93.1279 445.133 93.1279C445.684 93.1279 446.114 92.9668 446.425 92.6445C446.741 92.3223 446.899 91.877 446.899 91.3086ZM446.636 85.7275C446.636 85.2295 446.504 84.8311 446.24 84.5322C445.977 84.2275 445.604 84.0752 445.124 84.0752C444.649 84.0752 444.28 84.2217 444.017 84.5146C443.753 84.8076 443.621 85.2119 443.621 85.7275C443.621 86.2373 443.753 86.6475 444.017 86.958C444.28 87.2686 444.652 87.4238 445.133 87.4238C445.613 87.4238 445.982 87.2686 446.24 86.958C446.504 86.6475 446.636 86.2373 446.636 85.7275ZM459.872 83.627L454.924 95H452.243L457.2 84.2598H450.837V82.2031H459.872V83.627Z" fill="black"/>
<path d="M177.67 17H175.977V10.4727L173.955 11.0996V9.72266L177.488 8.45703H177.67V17ZM225.143 17H219.295V15.8398L222.055 12.8984C222.434 12.4844 222.713 12.123 222.893 11.8145C223.076 11.5059 223.168 11.2129 223.168 10.9355C223.168 10.5566 223.072 10.2598 222.881 10.0449C222.689 9.82617 222.416 9.7168 222.061 9.7168C221.678 9.7168 221.375 9.84961 221.152 10.1152C220.934 10.377 220.824 10.7227 220.824 11.1523H219.125C219.125 10.6328 219.248 10.1582 219.494 9.72852C219.744 9.29883 220.096 8.96289 220.549 8.7207C221.002 8.47461 221.516 8.35156 222.09 8.35156C222.969 8.35156 223.65 8.5625 224.135 8.98438C224.623 9.40625 224.867 10.002 224.867 10.7715C224.867 11.1934 224.758 11.623 224.539 12.0605C224.32 12.498 223.945 13.0078 223.414 13.5898L221.475 15.6348H225.143V17ZM266.756 11.9844H267.658C268.088 11.9844 268.406 11.877 268.613 11.6621C268.82 11.4473 268.924 11.1621 268.924 10.8066C268.924 10.4629 268.82 10.1953 268.613 10.0039C268.41 9.8125 268.129 9.7168 267.77 9.7168C267.445 9.7168 267.174 9.80664 266.955 9.98633C266.736 10.1621 266.627 10.3926 266.627 10.6777H264.934C264.934 10.2324 265.053 9.83398 265.291 9.48242C265.533 9.12695 265.869 8.84961 266.299 8.65039C266.732 8.45117 267.209 8.35156 267.729 8.35156C268.631 8.35156 269.338 8.56836 269.85 9.00195C270.361 9.43164 270.617 10.0254 270.617 10.7832C270.617 11.1738 270.498 11.5332 270.26 11.8613C270.021 12.1895 269.709 12.4414 269.322 12.6172C269.803 12.7891 270.16 13.0469 270.395 13.3906C270.633 13.7344 270.752 14.1406 270.752 14.6094C270.752 15.3672 270.475 15.9746 269.92 16.4316C269.369 16.8887 268.639 17.1172 267.729 17.1172C266.877 17.1172 266.18 16.8926 265.637 16.4434C265.098 15.9941 264.828 15.4004 264.828 14.6621H266.521C266.521 14.9824 266.641 15.2441 266.879 15.4473C267.121 15.6504 267.418 15.752 267.77 15.752C268.172 15.752 268.486 15.6465 268.713 15.4355C268.943 15.2207 269.059 14.9375 269.059 14.5859C269.059 13.7344 268.59 13.3086 267.652 13.3086H266.756V11.9844ZM315.781 13.7891H316.748V15.1543H315.781V17H314.088V15.1543H310.59L310.514 14.0879L314.07 8.46875H315.781V13.7891ZM312.201 13.7891H314.088V10.7773L313.977 10.9707L312.201 13.7891ZM359.75 12.8047L360.242 8.46875H365.023V9.88086H361.631L361.42 11.7148C361.822 11.5 362.25 11.3926 362.703 11.3926C363.516 11.3926 364.152 11.6445 364.613 12.1484C365.074 12.6523 365.305 13.3574 365.305 14.2637C365.305 14.8145 365.188 15.3086 364.953 15.7461C364.723 16.1797 364.391 16.5176 363.957 16.7598C363.523 16.998 363.012 17.1172 362.422 17.1172C361.906 17.1172 361.428 17.0137 360.986 16.8066C360.545 16.5957 360.195 16.3008 359.938 15.9219C359.684 15.543 359.549 15.1113 359.533 14.627H361.209C361.244 14.9824 361.367 15.2598 361.578 15.459C361.793 15.6543 362.072 15.752 362.416 15.752C362.799 15.752 363.094 15.6152 363.301 15.3418C363.508 15.0645 363.611 14.6738 363.611 14.1699C363.611 13.6855 363.492 13.3145 363.254 13.0566C363.016 12.7988 362.678 12.6699 362.24 12.6699C361.838 12.6699 361.512 12.7754 361.262 12.9863L361.098 13.1387L359.75 12.8047ZM406.842 8.38086V9.77539H406.678C405.912 9.78711 405.295 9.98633 404.826 10.373C404.361 10.7598 404.082 11.2969 403.988 11.9844C404.441 11.5234 405.014 11.293 405.705 11.293C406.447 11.293 407.037 11.5586 407.475 12.0898C407.912 12.6211 408.131 13.3203 408.131 14.1875C408.131 14.7422 408.01 15.2441 407.768 15.6934C407.529 16.1426 407.189 16.4922 406.748 16.7422C406.311 16.9922 405.814 17.1172 405.26 17.1172C404.361 17.1172 403.635 16.8047 403.08 16.1797C402.529 15.5547 402.254 14.7207 402.254 13.6777V13.0684C402.254 12.1426 402.428 11.3262 402.775 10.6191C403.127 9.9082 403.629 9.35938 404.281 8.97266C404.938 8.58203 405.697 8.38477 406.561 8.38086H406.842ZM405.189 12.6523C404.916 12.6523 404.668 12.7246 404.445 12.8691C404.223 13.0098 404.059 13.1973 403.953 13.4316V13.9473C403.953 14.5137 404.064 14.957 404.287 15.2773C404.51 15.5938 404.822 15.752 405.225 15.752C405.588 15.752 405.881 15.6094 406.104 15.3242C406.33 15.0352 406.443 14.6621 406.443 14.2051C406.443 13.7402 406.33 13.3652 406.104 13.0801C405.877 12.7949 405.572 12.6523 405.189 12.6523ZM456.775 9.41797L453.477 17H451.689L454.994 9.83984H450.752V8.46875H456.775V9.41797Z" fill="#BB6BD9"/>
<rect x="10" y="32" width="113" height="24" fill="black"/>
<path d="M20.5684 48.1172C19.6387 48.1172 18.8809 47.832 18.2949 47.2617C17.7129 46.6914 17.4219 45.9316 17.4219 44.9824V44.8184C17.4219 44.1816 17.5449 43.6133 17.791 43.1133C18.0371 42.6094 18.3848 42.2227 18.834 41.9531C19.2871 41.6797 19.8027 41.543 20.3809 41.543C21.248 41.543 21.9297 41.8164 22.4258 42.3633C22.9258 42.9102 23.1758 43.6855 23.1758 44.6895V45.3809H19.1387C19.1934 45.7949 19.3574 46.127 19.6309 46.377C19.9082 46.627 20.2578 46.752 20.6797 46.752C21.332 46.752 21.8418 46.5156 22.209 46.043L23.041 46.9746C22.7871 47.334 22.4434 47.6152 22.0098 47.8184C21.5762 48.0176 21.0957 48.1172 20.5684 48.1172ZM20.375 42.9141C20.0391 42.9141 19.7656 43.0273 19.5547 43.2539C19.3477 43.4805 19.2148 43.8047 19.1562 44.2266H21.5117V44.0918C21.5039 43.7168 21.4023 43.4277 21.207 43.2246C21.0117 43.0176 20.7344 42.9141 20.375 42.9141ZM26.5566 43.5527L27.623 41.6602H29.4336L27.6289 44.7656L29.5098 48H27.6934L26.5625 46.0078L25.4375 48H23.6152L25.4961 44.7656L23.6973 41.6602H25.5137L26.5566 43.5527ZM33.9219 48C33.8438 47.8477 33.7871 47.6582 33.752 47.4316C33.3418 47.8887 32.8086 48.1172 32.1523 48.1172C31.5312 48.1172 31.0156 47.9375 30.6055 47.5781C30.1992 47.2188 29.9961 46.7656 29.9961 46.2188C29.9961 45.5469 30.2441 45.0312 30.7402 44.6719C31.2402 44.3125 31.9609 44.1309 32.9023 44.127H33.6816V43.7637C33.6816 43.4707 33.6055 43.2363 33.4531 43.0605C33.3047 42.8848 33.0684 42.7969 32.7441 42.7969C32.459 42.7969 32.2344 42.8652 32.0703 43.002C31.9102 43.1387 31.8301 43.3262 31.8301 43.5645H30.1367C30.1367 43.1973 30.25 42.8574 30.4766 42.5449C30.7031 42.2324 31.0234 41.9883 31.4375 41.8125C31.8516 41.6328 32.3164 41.543 32.832 41.543C33.6133 41.543 34.2324 41.7402 34.6895 42.1348C35.1504 42.5254 35.3809 43.0762 35.3809 43.7871V46.5352C35.3848 47.1367 35.4688 47.5918 35.6328 47.9004V48H33.9219ZM32.5215 46.8223C32.7715 46.8223 33.002 46.7676 33.2129 46.6582C33.4238 46.5449 33.5801 46.3945 33.6816 46.207V45.1172H33.0488C32.2012 45.1172 31.75 45.4102 31.6953 45.9961L31.6895 46.0957C31.6895 46.3066 31.7637 46.4805 31.9121 46.6172C32.0605 46.7539 32.2637 46.8223 32.5215 46.8223ZM38.2695 41.6602L38.3223 42.3691C38.7715 41.8184 39.3789 41.543 40.1445 41.543C40.9609 41.543 41.5215 41.8652 41.8262 42.5098C42.2715 41.8652 42.9062 41.543 43.7305 41.543C44.418 41.543 44.9297 41.7441 45.2656 42.1465C45.6016 42.5449 45.7695 43.1465 45.7695 43.9512V48H44.0703V43.957C44.0703 43.5977 44 43.3359 43.8594 43.1719C43.7188 43.0039 43.4707 42.9199 43.1152 42.9199C42.6074 42.9199 42.2559 43.1621 42.0605 43.6465L42.0664 48H40.373V43.9629C40.373 43.5957 40.3008 43.3301 40.1562 43.166C40.0117 43.002 39.7656 42.9199 39.418 42.9199C38.9375 42.9199 38.5898 43.1191 38.375 43.5176V48H36.6816V41.6602H38.2695ZM51.7695 49.3242H46.4316V48H51.7695V49.3242ZM52.1855 44.7832C52.1855 43.8105 52.416 43.0273 52.877 42.4336C53.3418 41.8398 53.9668 41.543 54.752 41.543C55.4473 41.543 55.9883 41.7812 56.375 42.2578L56.4453 41.6602H57.9805V47.7891C57.9805 48.3438 57.8535 48.8262 57.5996 49.2363C57.3496 49.6465 56.9961 49.959 56.5391 50.1738C56.082 50.3887 55.5469 50.4961 54.9336 50.4961C54.4688 50.4961 54.0156 50.4023 53.5742 50.2148C53.1328 50.0312 52.7988 49.793 52.5723 49.5L53.3223 48.4688C53.7441 48.9414 54.2559 49.1777 54.8574 49.1777C55.3066 49.1777 55.6562 49.0566 55.9062 48.8145C56.1562 48.5762 56.2812 48.2363 56.2812 47.7949V47.4551C55.8906 47.8965 55.377 48.1172 54.7402 48.1172C53.9785 48.1172 53.3613 47.8203 52.8887 47.2266C52.4199 46.6289 52.1855 45.8379 52.1855 44.8535V44.7832ZM53.8789 44.9062C53.8789 45.4805 53.9941 45.9316 54.2246 46.2598C54.4551 46.584 54.7715 46.7461 55.1738 46.7461C55.6895 46.7461 56.0586 46.5527 56.2812 46.166V43.5C56.0547 43.1133 55.6895 42.9199 55.1855 42.9199C54.7793 42.9199 54.459 43.0859 54.2246 43.418C53.9941 43.75 53.8789 44.2461 53.8789 44.9062ZM62.8496 43.248C62.6191 43.2168 62.416 43.2012 62.2402 43.2012C61.5996 43.2012 61.1797 43.418 60.9805 43.8516V48H59.2871V41.6602H60.8867L60.9336 42.416C61.2734 41.834 61.7441 41.543 62.3457 41.543C62.5332 41.543 62.709 41.5684 62.873 41.6191L62.8496 43.248ZM67.168 48C67.0898 47.8477 67.0332 47.6582 66.998 47.4316C66.5879 47.8887 66.0547 48.1172 65.3984 48.1172C64.7773 48.1172 64.2617 47.9375 63.8516 47.5781C63.4453 47.2188 63.2422 46.7656 63.2422 46.2188C63.2422 45.5469 63.4902 45.0312 63.9863 44.6719C64.4863 44.3125 65.207 44.1309 66.1484 44.127H66.9277V43.7637C66.9277 43.4707 66.8516 43.2363 66.6992 43.0605C66.5508 42.8848 66.3145 42.7969 65.9902 42.7969C65.7051 42.7969 65.4805 42.8652 65.3164 43.002C65.1562 43.1387 65.0762 43.3262 65.0762 43.5645H63.3828C63.3828 43.1973 63.4961 42.8574 63.7227 42.5449C63.9492 42.2324 64.2695 41.9883 64.6836 41.8125C65.0977 41.6328 65.5625 41.543 66.0781 41.543C66.8594 41.543 67.4785 41.7402 67.9355 42.1348C68.3965 42.5254 68.627 43.0762 68.627 43.7871V46.5352C68.6309 47.1367 68.7148 47.5918 68.8789 47.9004V48H67.168ZM65.7676 46.8223C66.0176 46.8223 66.248 46.7676 66.459 46.6582C66.6699 46.5449 66.8262 46.3945 66.9277 46.207V45.1172H66.2949C65.4473 45.1172 64.9961 45.4102 64.9414 45.9961L64.9355 46.0957C64.9355 46.3066 65.0098 46.4805 65.1582 46.6172C65.3066 46.7539 65.5098 46.8223 65.7676 46.8223ZM69.6641 44.7832C69.6641 43.7949 69.8848 43.0078 70.3262 42.4219C70.7715 41.8359 71.3789 41.543 72.1484 41.543C72.7656 41.543 73.2754 41.7734 73.6777 42.2344V39H75.377V48H73.8477L73.7656 47.3262C73.3438 47.8535 72.8008 48.1172 72.1367 48.1172C71.3906 48.1172 70.791 47.8242 70.3379 47.2383C69.8887 46.6484 69.6641 45.8301 69.6641 44.7832ZM71.3574 44.9062C71.3574 45.5 71.4609 45.9551 71.668 46.2715C71.875 46.5879 72.1758 46.7461 72.5703 46.7461C73.0938 46.7461 73.4629 46.5254 73.6777 46.084V43.582C73.4668 43.1406 73.1016 42.9199 72.582 42.9199C71.7656 42.9199 71.3574 43.582 71.3574 44.9062ZM79.6074 48.1172C78.6777 48.1172 77.9199 47.832 77.334 47.2617C76.752 46.6914 76.4609 45.9316 76.4609 44.9824V44.8184C76.4609 44.1816 76.584 43.6133 76.8301 43.1133C77.0762 42.6094 77.4238 42.2227 77.873 41.9531C78.3262 41.6797 78.8418 41.543 79.4199 41.543C80.2871 41.543 80.9688 41.8164 81.4648 42.3633C81.9648 42.9102 82.2148 43.6855 82.2148 44.6895V45.3809H78.1777C78.2324 45.7949 78.3965 46.127 78.6699 46.377C78.9473 46.627 79.2969 46.752 79.7188 46.752C80.3711 46.752 80.8809 46.5156 81.248 46.043L82.0801 46.9746C81.8262 47.334 81.4824 47.6152 81.0488 47.8184C80.6152 48.0176 80.1348 48.1172 79.6074 48.1172ZM79.4141 42.9141C79.0781 42.9141 78.8047 43.0273 78.5938 43.2539C78.3867 43.4805 78.2539 43.8047 78.1953 44.2266H80.5508V44.0918C80.543 43.7168 80.4414 43.4277 80.2461 43.2246C80.0508 43.0176 79.7734 42.9141 79.4141 42.9141ZM86.6152 46.248C86.6152 46.041 86.5117 45.8789 86.3047 45.7617C86.1016 45.6406 85.7734 45.5332 85.3203 45.4395C83.8125 45.123 83.0586 44.4824 83.0586 43.5176C83.0586 42.9551 83.291 42.4863 83.7559 42.1113C84.2246 41.7324 84.8359 41.543 85.5898 41.543C86.3945 41.543 87.0371 41.7324 87.5176 42.1113C88.002 42.4902 88.2441 42.9824 88.2441 43.5879H86.5508C86.5508 43.3457 86.4727 43.1465 86.3164 42.9902C86.1602 42.8301 85.916 42.75 85.584 42.75C85.2988 42.75 85.0781 42.8145 84.9219 42.9434C84.7656 43.0723 84.6875 43.2363 84.6875 43.4355C84.6875 43.623 84.7754 43.7754 84.9512 43.8926C85.1309 44.0059 85.4316 44.1055 85.8535 44.1914C86.2754 44.2734 86.6309 44.3672 86.9199 44.4727C87.8145 44.8008 88.2617 45.3691 88.2617 46.1777C88.2617 46.7559 88.0137 47.2246 87.5176 47.584C87.0215 47.9395 86.3809 48.1172 85.5957 48.1172C85.0645 48.1172 84.5918 48.0234 84.1777 47.8359C83.7676 47.6445 83.4453 47.3848 83.2109 47.0566C82.9766 46.7246 82.8594 46.3672 82.8594 45.9844H84.4648C84.4805 46.2852 84.5918 46.5156 84.7988 46.6758C85.0059 46.8359 85.2832 46.916 85.6309 46.916C85.9551 46.916 86.1992 46.8555 86.3633 46.7344C86.5312 46.6094 86.6152 46.4473 86.6152 46.248Z" fill="white"/>
<rect x="10" y="76" width="113" height="24" fill="black"/>
<path d="M19.3027 86.3516C19.752 85.8125 20.3164 85.543 20.9961 85.543C22.3711 85.543 23.0684 86.3418 23.0879 87.9395V92H21.3945V87.9863C21.3945 87.623 21.3164 87.3555 21.1602 87.1836C21.0039 87.0078 20.7441 86.9199 20.3809 86.9199C19.8848 86.9199 19.5254 87.1113 19.3027 87.4941V92H17.6094V83H19.3027V86.3516ZM24.1016 88.7715C24.1016 88.1426 24.2227 87.582 24.4648 87.0898C24.707 86.5977 25.0547 86.2168 25.5078 85.9473C25.9648 85.6777 26.4941 85.543 27.0957 85.543C27.9512 85.543 28.6484 85.8047 29.1875 86.3281C29.7305 86.8516 30.0332 87.5625 30.0957 88.4609L30.1074 88.8945C30.1074 89.8672 29.8359 90.6484 29.293 91.2383C28.75 91.8242 28.0215 92.1172 27.1074 92.1172C26.1934 92.1172 25.4629 91.8242 24.916 91.2383C24.373 90.6523 24.1016 89.8555 24.1016 88.8477V88.7715ZM25.7949 88.8945C25.7949 89.4961 25.9082 89.957 26.1348 90.2773C26.3613 90.5938 26.6855 90.752 27.1074 90.752C27.5176 90.752 27.8379 90.5957 28.0684 90.2832C28.2988 89.9668 28.4141 89.4629 28.4141 88.7715C28.4141 88.1816 28.2988 87.7246 28.0684 87.4004C27.8379 87.0762 27.5137 86.9141 27.0957 86.9141C26.6816 86.9141 26.3613 87.0762 26.1348 87.4004C25.9082 87.7207 25.7949 88.2188 25.7949 88.8945ZM32.7383 85.6602L32.791 86.3691C33.2402 85.8184 33.8477 85.543 34.6133 85.543C35.4297 85.543 35.9902 85.8652 36.2949 86.5098C36.7402 85.8652 37.375 85.543 38.1992 85.543C38.8867 85.543 39.3984 85.7441 39.7344 86.1465C40.0703 86.5449 40.2383 87.1465 40.2383 87.9512V92H38.5391V87.957C38.5391 87.5977 38.4688 87.3359 38.3281 87.1719C38.1875 87.0039 37.9395 86.9199 37.584 86.9199C37.0762 86.9199 36.7246 87.1621 36.5293 87.6465L36.5352 92H34.8418V87.9629C34.8418 87.5957 34.7695 87.3301 34.625 87.166C34.4805 87.002 34.2344 86.9199 33.8867 86.9199C33.4062 86.9199 33.0586 87.1191 32.8438 87.5176V92H31.1504V85.6602H32.7383ZM44.4629 92.1172C43.5332 92.1172 42.7754 91.832 42.1895 91.2617C41.6074 90.6914 41.3164 89.9316 41.3164 88.9824V88.8184C41.3164 88.1816 41.4395 87.6133 41.6855 87.1133C41.9316 86.6094 42.2793 86.2227 42.7285 85.9531C43.1816 85.6797 43.6973 85.543 44.2754 85.543C45.1426 85.543 45.8242 85.8164 46.3203 86.3633C46.8203 86.9102 47.0703 87.6855 47.0703 88.6895V89.3809H43.0332C43.0879 89.7949 43.252 90.127 43.5254 90.377C43.8027 90.627 44.1523 90.752 44.5742 90.752C45.2266 90.752 45.7363 90.5156 46.1035 90.043L46.9355 90.9746C46.6816 91.334 46.3379 91.6152 45.9043 91.8184C45.4707 92.0176 44.9902 92.1172 44.4629 92.1172ZM44.2695 86.9141C43.9336 86.9141 43.6602 87.0273 43.4492 87.2539C43.2422 87.4805 43.1094 87.8047 43.0508 88.2266H45.4062V88.0918C45.3984 87.7168 45.2969 87.4277 45.1016 87.2246C44.9062 87.0176 44.6289 86.9141 44.2695 86.9141ZM53.5508 89.6973L54.3828 85.6602H56.0176L54.4004 92H52.9824L51.7812 88.0098L50.5801 92H49.168L47.5508 85.6602H49.1855L50.0117 89.6914L51.1719 85.6602H52.3965L53.5508 89.6973ZM56.5977 88.7715C56.5977 88.1426 56.7188 87.582 56.9609 87.0898C57.2031 86.5977 57.5508 86.2168 58.0039 85.9473C58.4609 85.6777 58.9902 85.543 59.5918 85.543C60.4473 85.543 61.1445 85.8047 61.6836 86.3281C62.2266 86.8516 62.5293 87.5625 62.5918 88.4609L62.6035 88.8945C62.6035 89.8672 62.332 90.6484 61.7891 91.2383C61.2461 91.8242 60.5176 92.1172 59.6035 92.1172C58.6895 92.1172 57.959 91.8242 57.4121 91.2383C56.8691 90.6523 56.5977 89.8555 56.5977 88.8477V88.7715ZM58.291 88.8945C58.291 89.4961 58.4043 89.957 58.6309 90.2773C58.8574 90.5938 59.1816 90.752 59.6035 90.752C60.0137 90.752 60.334 90.5957 60.5645 90.2832C60.7949 89.9668 60.9102 89.4629 60.9102 88.7715C60.9102 88.1816 60.7949 87.7246 60.5645 87.4004C60.334 87.0762 60.0098 86.9141 59.5918 86.9141C59.1777 86.9141 58.8574 87.0762 58.6309 87.4004C58.4043 87.7207 58.291 88.2188 58.291 88.8945ZM67.209 87.248C66.9785 87.2168 66.7754 87.2012 66.5996 87.2012C65.959 87.2012 65.5391 87.418 65.3398 87.8516V92H63.6465V85.6602H65.2461L65.293 86.416C65.6328 85.834 66.1035 85.543 66.7051 85.543C66.8926 85.543 67.0684 85.5684 67.2324 85.6191L67.209 87.248ZM70.332 89.457L69.7227 90.0664V92H68.0293V83H69.7227V87.9863L70.0508 87.5645L71.6738 85.6602H73.707L71.416 88.3027L73.9062 92H71.9609L70.332 89.457ZM79.1328 93.3242H73.7949V92H79.1328V93.3242ZM79.5488 88.7832C79.5488 87.8105 79.7793 87.0273 80.2402 86.4336C80.7051 85.8398 81.3301 85.543 82.1152 85.543C82.8105 85.543 83.3516 85.7812 83.7383 86.2578L83.8086 85.6602H85.3438V91.7891C85.3438 92.3438 85.2168 92.8262 84.9629 93.2363C84.7129 93.6465 84.3594 93.959 83.9023 94.1738C83.4453 94.3887 82.9102 94.4961 82.2969 94.4961C81.832 94.4961 81.3789 94.4023 80.9375 94.2148C80.4961 94.0312 80.1621 93.793 79.9355 93.5L80.6855 92.4688C81.1074 92.9414 81.6191 93.1777 82.2207 93.1777C82.6699 93.1777 83.0195 93.0566 83.2695 92.8145C83.5195 92.5762 83.6445 92.2363 83.6445 91.7949V91.4551C83.2539 91.8965 82.7402 92.1172 82.1035 92.1172C81.3418 92.1172 80.7246 91.8203 80.252 91.2266C79.7832 90.6289 79.5488 89.8379 79.5488 88.8535V88.7832ZM81.2422 88.9062C81.2422 89.4805 81.3574 89.9316 81.5879 90.2598C81.8184 90.584 82.1348 90.7461 82.5371 90.7461C83.0527 90.7461 83.4219 90.5527 83.6445 90.166V87.5C83.418 87.1133 83.0527 86.9199 82.5488 86.9199C82.1426 86.9199 81.8223 87.0859 81.5879 87.418C81.3574 87.75 81.2422 88.2461 81.2422 88.9062ZM90.2129 87.248C89.9824 87.2168 89.7793 87.2012 89.6035 87.2012C88.9629 87.2012 88.543 87.418 88.3438 87.8516V92H86.6504V85.6602H88.25L88.2969 86.416C88.6367 85.834 89.1074 85.543 89.709 85.543C89.8965 85.543 90.0723 85.5684 90.2363 85.6191L90.2129 87.248ZM94.5312 92C94.4531 91.8477 94.3965 91.6582 94.3613 91.4316C93.9512 91.8887 93.418 92.1172 92.7617 92.1172C92.1406 92.1172 91.625 91.9375 91.2148 91.5781C90.8086 91.2188 90.6055 90.7656 90.6055 90.2188C90.6055 89.5469 90.8535 89.0312 91.3496 88.6719C91.8496 88.3125 92.5703 88.1309 93.5117 88.127H94.291V87.7637C94.291 87.4707 94.2148 87.2363 94.0625 87.0605C93.9141 86.8848 93.6777 86.7969 93.3535 86.7969C93.0684 86.7969 92.8438 86.8652 92.6797 87.002C92.5195 87.1387 92.4395 87.3262 92.4395 87.5645H90.7461C90.7461 87.1973 90.8594 86.8574 91.0859 86.5449C91.3125 86.2324 91.6328 85.9883 92.0469 85.8125C92.4609 85.6328 92.9258 85.543 93.4414 85.543C94.2227 85.543 94.8418 85.7402 95.2988 86.1348C95.7598 86.5254 95.9902 87.0762 95.9902 87.7871V90.5352C95.9941 91.1367 96.0781 91.5918 96.2422 91.9004V92H94.5312ZM93.1309 90.8223C93.3809 90.8223 93.6113 90.7676 93.8223 90.6582C94.0332 90.5449 94.1895 90.3945 94.291 90.207V89.1172H93.6582C92.8105 89.1172 92.3594 89.4102 92.3047 89.9961L92.2988 90.0957C92.2988 90.3066 92.373 90.4805 92.5215 90.6172C92.6699 90.7539 92.873 90.8223 93.1309 90.8223ZM97.0273 88.7832C97.0273 87.7949 97.248 87.0078 97.6895 86.4219C98.1348 85.8359 98.7422 85.543 99.5117 85.543C100.129 85.543 100.639 85.7734 101.041 86.2344V83H102.74V92H101.211L101.129 91.3262C100.707 91.8535 100.164 92.1172 99.5 92.1172C98.7539 92.1172 98.1543 91.8242 97.7012 91.2383C97.252 90.6484 97.0273 89.8301 97.0273 88.7832ZM98.7207 88.9062C98.7207 89.5 98.8242 89.9551 99.0312 90.2715C99.2383 90.5879 99.5391 90.7461 99.9336 90.7461C100.457 90.7461 100.826 90.5254 101.041 90.084V87.582C100.83 87.1406 100.465 86.9199 99.9453 86.9199C99.1289 86.9199 98.7207 87.582 98.7207 88.9062ZM106.971 92.1172C106.041 92.1172 105.283 91.832 104.697 91.2617C104.115 90.6914 103.824 89.9316 103.824 88.9824V88.8184C103.824 88.1816 103.947 87.6133 104.193 87.1133C104.439 86.6094 104.787 86.2227 105.236 85.9531C105.689 85.6797 106.205 85.543 106.783 85.543C107.65 85.543 108.332 85.8164 108.828 86.3633C109.328 86.9102 109.578 87.6855 109.578 88.6895V89.3809H105.541C105.596 89.7949 105.76 90.127 106.033 90.377C106.311 90.627 106.66 90.752 107.082 90.752C107.734 90.752 108.244 90.5156 108.611 90.043L109.443 90.9746C109.189 91.334 108.846 91.6152 108.412 91.8184C107.979 92.0176 107.498 92.1172 106.971 92.1172ZM106.777 86.9141C106.441 86.9141 106.168 87.0273 105.957 87.2539C105.75 87.4805 105.617 87.8047 105.559 88.2266H107.914V88.0918C107.906 87.7168 107.805 87.4277 107.609 87.2246C107.414 87.0176 107.137 86.9141 106.777 86.9141ZM113.979 90.248C113.979 90.041 113.875 89.8789 113.668 89.7617C113.465 89.6406 113.137 89.5332 112.684 89.4395C111.176 89.123 110.422 88.4824 110.422 87.5176C110.422 86.9551 110.654 86.4863 111.119 86.1113C111.588 85.7324 112.199 85.543 112.953 85.543C113.758 85.543 114.4 85.7324 114.881 86.1113C115.365 86.4902 115.607 86.9824 115.607 87.5879H113.914C113.914 87.3457 113.836 87.1465 113.68 86.9902C113.523 86.8301 113.279 86.75 112.947 86.75C112.662 86.75 112.441 86.8145 112.285 86.9434C112.129 87.0723 112.051 87.2363 112.051 87.4355C112.051 87.623 112.139 87.7754 112.314 87.8926C112.494 88.0059 112.795 88.1055 113.217 88.1914C113.639 88.2734 113.994 88.3672 114.283 88.4727C115.178 88.8008 115.625 89.3691 115.625 90.1777C115.625 90.7559 115.377 91.2246 114.881 91.584C114.385 91.9395 113.744 92.1172 112.959 92.1172C112.428 92.1172 111.955 92.0234 111.541 91.8359C111.131 91.6445 110.809 91.3848 110.574 91.0566C110.34 90.7246 110.223 90.3672 110.223 89.9844H111.828C111.844 90.2852 111.955 90.5156 112.162 90.6758C112.369 90.8359 112.646 90.916 112.994 90.916C113.318 90.916 113.562 90.8555 113.727 90.7344C113.895 90.6094 113.979 90.4473 113.979 90.248Z" fill="white"/>
<rect x="159" y="135" width="37" height="24" fill="#56CCF2" stroke="#56CCF2" stroke-width="2"/>
<rect x="251" y="135" width="37" height="24" fill="#56CCF2" stroke="#56CCF2" stroke-width="2"/>
<rect x="205" y="135" width="37" height="24" fill="#56CCF2" stroke="#56CCF2" stroke-width="2"/>
<rect x="297" y="135" width="37" height="24" fill="#56CCF2" stroke="#56CCF2" stroke-width="2"/>
<rect x="389" y="135" width="37" height="24" fill="#56CCF2" stroke="#56CCF2" stroke-width="2"/>
<rect x="435" y="135" width="37" height="24" fill="#56CCF2" stroke="#56CCF2" stroke-width="2"/>
<rect x="343" y="135" width="37" height="24" fill="#56CCF2" stroke="#56CCF2" stroke-width="2"/>
<rect x="10" y="134" width="113" height="24" fill="black"/>
<path d="M21.084 148.248C21.084 148.041 20.9805 147.879 20.7734 147.762C20.5703 147.641 20.2422 147.533 19.7891 147.439C18.2812 147.123 17.5273 146.482 17.5273 145.518C17.5273 144.955 17.7598 144.486 18.2246 144.111C18.6934 143.732 19.3047 143.543 20.0586 143.543C20.8633 143.543 21.5059 143.732 21.9863 144.111C22.4707 144.49 22.7129 144.982 22.7129 145.588H21.0195C21.0195 145.346 20.9414 145.146 20.7852 144.99C20.6289 144.83 20.3848 144.75 20.0527 144.75C19.7676 144.75 19.5469 144.814 19.3906 144.943C19.2344 145.072 19.1562 145.236 19.1562 145.436C19.1562 145.623 19.2441 145.775 19.4199 145.893C19.5996 146.006 19.9004 146.105 20.3223 146.191C20.7441 146.273 21.0996 146.367 21.3887 146.473C22.2832 146.801 22.7305 147.369 22.7305 148.178C22.7305 148.756 22.4824 149.225 21.9863 149.584C21.4902 149.939 20.8496 150.117 20.0645 150.117C19.5332 150.117 19.0605 150.023 18.6465 149.836C18.2363 149.645 17.9141 149.385 17.6797 149.057C17.4453 148.725 17.3281 148.367 17.3281 147.984H18.9336C18.9492 148.285 19.0605 148.516 19.2676 148.676C19.4746 148.836 19.752 148.916 20.0996 148.916C20.4238 148.916 20.668 148.855 20.832 148.734C21 148.609 21.084 148.447 21.084 148.248ZM27.623 149.355C27.2051 149.863 26.627 150.117 25.8887 150.117C25.209 150.117 24.6895 149.922 24.3301 149.531C23.9746 149.141 23.793 148.568 23.7852 147.814V143.66H25.4785V147.756C25.4785 148.416 25.7793 148.746 26.3809 148.746C26.9551 148.746 27.3496 148.547 27.5645 148.148V143.66H29.2637V150H27.6699L27.623 149.355ZM32.1289 143.66L32.1816 144.369C32.6309 143.818 33.2383 143.543 34.0039 143.543C34.8203 143.543 35.3809 143.865 35.6855 144.51C36.1309 143.865 36.7656 143.543 37.5898 143.543C38.2773 143.543 38.7891 143.744 39.125 144.146C39.4609 144.545 39.6289 145.146 39.6289 145.951V150H37.9297V145.957C37.9297 145.598 37.8594 145.336 37.7188 145.172C37.5781 145.004 37.3301 144.92 36.9746 144.92C36.4668 144.92 36.1152 145.162 35.9199 145.646L35.9258 150H34.2324V145.963C34.2324 145.596 34.1602 145.33 34.0156 145.166C33.8711 145.002 33.625 144.92 33.2773 144.92C32.7969 144.92 32.4492 145.119 32.2344 145.518V150H30.541V143.66H32.1289ZM45.6289 151.324H40.291V150H45.6289V151.324ZM46.0449 146.783C46.0449 145.811 46.2754 145.027 46.7363 144.434C47.2012 143.84 47.8262 143.543 48.6113 143.543C49.3066 143.543 49.8477 143.781 50.2344 144.258L50.3047 143.66H51.8398V149.789C51.8398 150.344 51.7129 150.826 51.459 151.236C51.209 151.646 50.8555 151.959 50.3984 152.174C49.9414 152.389 49.4062 152.496 48.793 152.496C48.3281 152.496 47.875 152.402 47.4336 152.215C46.9922 152.031 46.6582 151.793 46.4316 151.5L47.1816 150.469C47.6035 150.941 48.1152 151.178 48.7168 151.178C49.166 151.178 49.5156 151.057 49.7656 150.814C50.0156 150.576 50.1406 150.236 50.1406 149.795V149.455C49.75 149.896 49.2363 150.117 48.5996 150.117C47.8379 150.117 47.2207 149.82 46.748 149.227C46.2793 148.629 46.0449 147.838 46.0449 146.854V146.783ZM47.7383 146.906C47.7383 147.48 47.8535 147.932 48.084 148.26C48.3145 148.584 48.6309 148.746 49.0332 148.746C49.5488 148.746 49.918 148.553 50.1406 148.166V145.5C49.9141 145.113 49.5488 144.92 49.0449 144.92C48.6387 144.92 48.3184 145.086 48.084 145.418C47.8535 145.75 47.7383 146.246 47.7383 146.906ZM56.709 145.248C56.4785 145.217 56.2754 145.201 56.0996 145.201C55.459 145.201 55.0391 145.418 54.8398 145.852V150H53.1465V143.66H54.7461L54.793 144.416C55.1328 143.834 55.6035 143.543 56.2051 143.543C56.3926 143.543 56.5684 143.568 56.7324 143.619L56.709 145.248ZM61.0273 150C60.9492 149.848 60.8926 149.658 60.8574 149.432C60.4473 149.889 59.9141 150.117 59.2578 150.117C58.6367 150.117 58.1211 149.938 57.7109 149.578C57.3047 149.219 57.1016 148.766 57.1016 148.219C57.1016 147.547 57.3496 147.031 57.8457 146.672C58.3457 146.312 59.0664 146.131 60.0078 146.127H60.7871V145.764C60.7871 145.471 60.7109 145.236 60.5586 145.061C60.4102 144.885 60.1738 144.797 59.8496 144.797C59.5645 144.797 59.3398 144.865 59.1758 145.002C59.0156 145.139 58.9355 145.326 58.9355 145.564H57.2422C57.2422 145.197 57.3555 144.857 57.582 144.545C57.8086 144.232 58.1289 143.988 58.543 143.812C58.957 143.633 59.4219 143.543 59.9375 143.543C60.7188 143.543 61.3379 143.74 61.7949 144.135C62.2559 144.525 62.4863 145.076 62.4863 145.787V148.535C62.4902 149.137 62.5742 149.592 62.7383 149.9V150H61.0273ZM59.627 148.822C59.877 148.822 60.1074 148.768 60.3184 148.658C60.5293 148.545 60.6855 148.395 60.7871 148.207V147.117H60.1543C59.3066 147.117 58.8555 147.41 58.8008 147.996L58.7949 148.096C58.7949 148.307 58.8691 148.48 59.0176 148.617C59.166 148.754 59.3691 148.822 59.627 148.822ZM63.5234 146.783C63.5234 145.795 63.7441 145.008 64.1855 144.422C64.6309 143.836 65.2383 143.543 66.0078 143.543C66.625 143.543 67.1348 143.773 67.5371 144.234V141H69.2363V150H67.707L67.625 149.326C67.2031 149.854 66.6602 150.117 65.9961 150.117C65.25 150.117 64.6504 149.824 64.1973 149.238C63.748 148.648 63.5234 147.83 63.5234 146.783ZM65.2168 146.906C65.2168 147.5 65.3203 147.955 65.5273 148.271C65.7344 148.588 66.0352 148.746 66.4297 148.746C66.9531 148.746 67.3223 148.525 67.5371 148.084V145.582C67.3262 145.141 66.9609 144.92 66.4414 144.92C65.625 144.92 65.2168 145.582 65.2168 146.906ZM73.4668 150.117C72.5371 150.117 71.7793 149.832 71.1934 149.262C70.6113 148.691 70.3203 147.932 70.3203 146.982V146.818C70.3203 146.182 70.4434 145.613 70.6895 145.113C70.9355 144.609 71.2832 144.223 71.7324 143.953C72.1855 143.68 72.7012 143.543 73.2793 143.543C74.1465 143.543 74.8281 143.816 75.3242 144.363C75.8242 144.91 76.0742 145.686 76.0742 146.689V147.381H72.0371C72.0918 147.795 72.2559 148.127 72.5293 148.377C72.8066 148.627 73.1562 148.752 73.5781 148.752C74.2305 148.752 74.7402 148.516 75.1074 148.043L75.9395 148.975C75.6855 149.334 75.3418 149.615 74.9082 149.818C74.4746 150.018 73.9941 150.117 73.4668 150.117ZM73.2734 144.914C72.9375 144.914 72.6641 145.027 72.4531 145.254C72.2461 145.48 72.1133 145.805 72.0547 146.227H74.4102V146.092C74.4023 145.717 74.3008 145.428 74.1055 145.225C73.9102 145.018 73.6328 144.914 73.2734 144.914ZM80.4746 148.248C80.4746 148.041 80.3711 147.879 80.1641 147.762C79.9609 147.641 79.6328 147.533 79.1797 147.439C77.6719 147.123 76.918 146.482 76.918 145.518C76.918 144.955 77.1504 144.486 77.6152 144.111C78.084 143.732 78.6953 143.543 79.4492 143.543C80.2539 143.543 80.8965 143.732 81.377 144.111C81.8613 144.49 82.1035 144.982 82.1035 145.588H80.4102C80.4102 145.346 80.332 145.146 80.1758 144.99C80.0195 144.83 79.7754 144.75 79.4434 144.75C79.1582 144.75 78.9375 144.814 78.7812 144.943C78.625 145.072 78.5469 145.236 78.5469 145.436C78.5469 145.623 78.6348 145.775 78.8105 145.893C78.9902 146.006 79.291 146.105 79.7129 146.191C80.1348 146.273 80.4902 146.367 80.7793 146.473C81.6738 146.801 82.1211 147.369 82.1211 148.178C82.1211 148.756 81.873 149.225 81.377 149.584C80.8809 149.939 80.2402 150.117 79.4551 150.117C78.9238 150.117 78.4512 150.023 78.0371 149.836C77.627 149.645 77.3047 149.385 77.0703 149.057C76.8359 148.725 76.7188 148.367 76.7188 147.984H78.3242C78.3398 148.285 78.4512 148.516 78.6582 148.676C78.8652 148.836 79.1426 148.916 79.4902 148.916C79.8145 148.916 80.0586 148.855 80.2227 148.734C80.3906 148.609 80.4746 148.447 80.4746 148.248Z" fill="white"/>
<path d="M134.043 44.7578L140.723 47.1133V50.3945L130.633 46.1172V43.3516L140.723 39.0742V42.3555L134.043 44.7578ZM150.098 46.0586H143.5V43.3281H150.098V46.0586Z" fill="black"/>
<path d="M134.043 89.7578L140.723 92.1133V95.3945L130.633 91.1172V88.3516L140.723 84.0742V87.3555L134.043 89.7578ZM150.098 91.0586H143.5V88.3281H150.098V91.0586Z" fill="black"/>
<path d="M134.043 147.758L140.723 150.113V153.395L130.633 149.117V146.352L140.723 142.074V145.355L134.043 147.758ZM150.098 149.059H143.5V146.328H150.098V149.059Z" fill="black"/>
<path d="M177.761 66.2349H180.757V68.4014H177.761V71.7881H175.478V68.4014H172.473V66.2349H175.478V62.9893H177.761V66.2349Z" fill="#F2994A"/>
<path d="M223.761 66.2349H226.757V68.4014H223.761V71.7881H221.478V68.4014H218.473V66.2349H221.478V62.9893H223.761V66.2349Z" fill="#F2994A"/>
<path d="M269.761 66.2349H272.757V68.4014H269.761V71.7881H267.478V68.4014H264.473V66.2349H267.478V62.9893H269.761V66.2349Z" fill="#F2994A"/>
<path d="M315.761 66.2349H318.757V68.4014H315.761V71.7881H313.478V68.4014H310.473V66.2349H313.478V62.9893H315.761V66.2349Z" fill="#F2994A"/>
<path d="M361.761 66.2349H364.757V68.4014H361.761V71.7881H359.478V68.4014H356.473V66.2349H359.478V62.9893H361.761V66.2349Z" fill="#F2994A"/>
<path d="M407.761 66.2349H410.757V68.4014H407.761V71.7881H405.478V68.4014H402.473V66.2349H405.478V62.9893H407.761V66.2349Z" fill="#F2994A"/>
<path d="M453.761 66.2349H456.757V68.4014H453.761V71.7881H451.478V68.4014H448.473V66.2349H451.478V62.9893H453.761V66.2349Z" fill="#F2994A"/>
<path d="M66.7607 66.2349H69.7573V68.4014H66.7607V71.7881H64.478V68.4014H61.4731V66.2349H64.478V62.9893H66.7607V66.2349Z" fill="#F2994A"/>
<path d="M69.5498 117.808H62.1289V115.849H69.5498V117.808ZM69.5498 121.402H62.1289V119.443H69.5498V121.402Z" fill="black"/>
<path d="M180.55 117.808H173.129V115.849H180.55V117.808ZM180.55 121.402H173.129V119.443H180.55V121.402Z" fill="black"/>
<path d="M226.55 117.808H219.129V115.849H226.55V117.808ZM226.55 121.402H219.129V119.443H226.55V121.402Z" fill="black"/>
<path d="M272.55 117.808H265.129V115.849H272.55V117.808ZM272.55 121.402H265.129V119.443H272.55V121.402Z" fill="black"/>
<path d="M318.55 117.808H311.129V115.849H318.55V117.808ZM318.55 121.402H311.129V119.443H318.55V121.402Z" fill="black"/>
<path d="M364.55 117.808H357.129V115.849H364.55V117.808ZM364.55 121.402H357.129V119.443H364.55V121.402Z" fill="black"/>
<path d="M410.55 117.808H403.129V115.849H410.55V117.808ZM410.55 121.402H403.129V119.443H410.55V121.402Z" fill="black"/>
<path d="M456.55 117.808H449.129V115.849H456.55V117.808ZM456.55 121.402H449.129V119.443H456.55V121.402Z" fill="black"/>
<path d="M168.649 153H166.25V143.753L163.386 144.641V142.69L168.392 140.897H168.649V153ZM180.801 142.259L176.128 153H173.596L178.278 142.856H172.268V140.914H180.801V142.259ZM187.957 148.169C187.331 148.783 186.601 149.09 185.765 149.09C184.697 149.09 183.842 148.725 183.2 147.995C182.558 147.259 182.237 146.268 182.237 145.023C182.237 144.232 182.409 143.507 182.752 142.848C183.101 142.184 183.585 141.669 184.205 141.304C184.824 140.933 185.522 140.748 186.296 140.748C187.093 140.748 187.802 140.947 188.421 141.346C189.041 141.744 189.523 142.317 189.866 143.064C190.209 143.811 190.383 144.666 190.389 145.629V146.517C190.389 148.531 189.888 150.114 188.886 151.265C187.885 152.416 186.465 153.03 184.628 153.108L184.039 153.116V151.116L184.57 151.107C186.656 151.013 187.785 150.034 187.957 148.169ZM186.354 147.256C186.742 147.256 187.074 147.156 187.351 146.957C187.633 146.758 187.846 146.517 187.99 146.235V145.247C187.99 144.434 187.835 143.803 187.525 143.354C187.215 142.906 186.8 142.682 186.28 142.682C185.798 142.682 185.403 142.903 185.093 143.346C184.783 143.783 184.628 144.334 184.628 144.998C184.628 145.657 184.777 146.199 185.076 146.625C185.381 147.046 185.807 147.256 186.354 147.256ZM214.868 153H212.469V143.753L209.605 144.641V142.69L214.61 140.897H214.868V153ZM227.02 142.259L222.347 153H219.815L224.497 142.856H218.487V140.914H227.02V142.259ZM234.391 153H231.992V143.753L229.128 144.641V142.69L234.134 140.897H234.391V153ZM261.086 153H258.688V143.753L255.824 144.641V142.69L260.829 140.897H261.086V153ZM273.239 142.259L268.565 153H266.034L270.715 142.856H264.706V140.914H273.239V142.259ZM280.61 153H278.211V143.753L275.347 144.641V142.69L280.353 140.897H280.61V153ZM307.305 153H304.906V143.753L302.042 144.641V142.69L307.048 140.897H307.305V153ZM319.458 142.259L314.784 153H312.252L316.934 142.856H310.924V140.914H319.458V142.259ZM327.509 140.79V142.765H327.277C326.192 142.782 325.318 143.064 324.654 143.612C323.995 144.16 323.6 144.921 323.467 145.895C324.109 145.242 324.919 144.915 325.899 144.915C326.95 144.915 327.786 145.291 328.406 146.044C329.026 146.797 329.335 147.787 329.335 149.016C329.335 149.801 329.164 150.513 328.821 151.149C328.483 151.785 328.002 152.281 327.376 152.635C326.757 152.989 326.054 153.166 325.268 153.166C323.995 153.166 322.966 152.723 322.18 151.838C321.4 150.952 321.01 149.771 321.01 148.293V147.43C321.01 146.119 321.256 144.962 321.749 143.96C322.247 142.953 322.958 142.176 323.882 141.628C324.812 141.075 325.888 140.795 327.111 140.79H327.509ZM325.168 146.841C324.781 146.841 324.43 146.943 324.114 147.148C323.799 147.347 323.566 147.613 323.417 147.945V148.675C323.417 149.478 323.575 150.106 323.89 150.56C324.206 151.008 324.648 151.232 325.218 151.232C325.733 151.232 326.148 151.03 326.463 150.626C326.784 150.216 326.945 149.688 326.945 149.041C326.945 148.382 326.784 147.851 326.463 147.447C326.142 147.043 325.711 146.841 325.168 146.841ZM353.524 153H351.125V143.753L348.261 144.641V142.69L353.267 140.897H353.524V153ZM363.966 140.79V142.765H363.734C362.649 142.782 361.775 143.064 361.111 143.612C360.452 144.16 360.057 144.921 359.924 145.895C360.566 145.242 361.376 144.915 362.356 144.915C363.407 144.915 364.243 145.291 364.863 146.044C365.483 146.797 365.792 147.787 365.792 149.016C365.792 149.801 365.621 150.513 365.278 151.149C364.94 151.785 364.459 152.281 363.833 152.635C363.214 152.989 362.511 153.166 361.725 153.166C360.452 153.166 359.423 152.723 358.637 151.838C357.857 150.952 357.467 149.771 357.467 148.293V147.43C357.467 146.119 357.713 144.962 358.206 143.96C358.704 142.953 359.415 142.176 360.339 141.628C361.269 141.075 362.345 140.795 363.568 140.79H363.966ZM361.625 146.841C361.238 146.841 360.887 146.943 360.571 147.148C360.256 147.347 360.023 147.613 359.874 147.945V148.675C359.874 149.478 360.032 150.106 360.347 150.56C360.663 151.008 361.105 151.232 361.675 151.232C362.19 151.232 362.605 151.03 362.92 150.626C363.241 150.216 363.402 149.688 363.402 149.041C363.402 148.382 363.241 147.851 362.92 147.447C362.599 147.043 362.168 146.841 361.625 146.841ZM374.317 148.451H375.687V150.385H374.317V153H371.918V150.385H366.963L366.855 148.875L371.894 140.914H374.317V148.451ZM369.246 148.451H371.918V144.185L371.761 144.458L369.246 148.451ZM399.743 153H397.344V143.753L394.48 144.641V142.69L399.485 140.897H399.743V153ZM411.895 142.259L407.222 153H404.69L409.372 142.856H403.362V140.914H411.895V142.259ZM415.879 145.895H417.158C417.766 145.895 418.217 145.742 418.511 145.438C418.804 145.134 418.951 144.73 418.951 144.226C418.951 143.739 418.804 143.36 418.511 143.089C418.223 142.818 417.825 142.682 417.315 142.682C416.856 142.682 416.472 142.809 416.162 143.064C415.852 143.313 415.697 143.639 415.697 144.043H413.298C413.298 143.413 413.467 142.848 413.804 142.35C414.147 141.847 414.623 141.454 415.232 141.171C415.846 140.889 416.521 140.748 417.257 140.748C418.536 140.748 419.537 141.055 420.262 141.669C420.987 142.278 421.35 143.119 421.35 144.193C421.35 144.746 421.181 145.255 420.843 145.72C420.506 146.185 420.063 146.542 419.515 146.791C420.196 147.035 420.702 147.4 421.034 147.887C421.372 148.374 421.541 148.949 421.541 149.613C421.541 150.687 421.148 151.547 420.362 152.195C419.582 152.842 418.547 153.166 417.257 153.166C416.051 153.166 415.063 152.848 414.294 152.211C413.53 151.575 413.148 150.734 413.148 149.688H415.547C415.547 150.142 415.716 150.513 416.054 150.8C416.397 151.088 416.817 151.232 417.315 151.232C417.885 151.232 418.331 151.083 418.652 150.784C418.978 150.479 419.142 150.078 419.142 149.58C419.142 148.374 418.478 147.771 417.149 147.771H415.879V145.895ZM445.961 153H443.562V143.753L440.699 144.641V142.69L445.704 140.897H445.961V153ZM458.114 142.259L453.44 153H450.909L455.59 142.856H449.581V140.914H458.114V142.259ZM467.942 153H459.658V151.356L463.567 147.189C464.104 146.603 464.5 146.091 464.754 145.654C465.014 145.217 465.145 144.802 465.145 144.409C465.145 143.872 465.009 143.451 464.738 143.147C464.467 142.837 464.079 142.682 463.576 142.682C463.033 142.682 462.604 142.87 462.289 143.247C461.979 143.617 461.824 144.107 461.824 144.716H459.417C459.417 143.98 459.591 143.307 459.94 142.699C460.294 142.09 460.792 141.614 461.434 141.271C462.076 140.922 462.804 140.748 463.617 140.748C464.862 140.748 465.828 141.047 466.514 141.645C467.206 142.242 467.552 143.086 467.552 144.176C467.552 144.774 467.397 145.383 467.087 146.002C466.777 146.622 466.246 147.344 465.493 148.169L462.746 151.066H467.942V153Z" fill="black"/>
<g filter="url(#filter1_d)">
<path d="M267 112V113H268V112H267ZM267.707 99.2929C267.317 98.9024 266.683 98.9024 266.293 99.2929L259.929 105.657C259.538 106.047 259.538 106.681 259.929 107.071C260.319 107.462 260.953 107.462 261.343 107.071L267 101.414L272.657 107.071C273.047 107.462 273.681 107.462 274.071 107.071C274.462 106.681 274.462 106.047 274.071 105.657L267.707 99.2929ZM177 112H176V113H177V112ZM268 112V100H266V112H268ZM176 100V112H178V100H176ZM177 113H267V111H177V113Z" fill="#EB5757"/>
</g>
<g filter="url(#filter2_d)">
<path d="M357 112V113H358V112H357ZM357.707 99.2929C357.317 98.9024 356.683 98.9024 356.293 99.2929L349.929 105.657C349.538 106.047 349.538 106.681 349.929 107.071C350.319 107.462 350.953 107.462 351.343 107.071L357 101.414L362.657 107.071C363.047 107.462 363.681 107.462 364.071 107.071C364.462 106.681 364.462 106.047 364.071 105.657L357.707 99.2929ZM267 112H266V113H267V112ZM358 112V100H356V112H358ZM266 100V112H268V100H266ZM267 113H357V111H267V113Z" fill="#EB5757"/>
</g>
<g filter="url(#filter3_d)">
<path d="M447 112V113H448V112H447ZM447.707 99.2929C447.317 98.9024 446.683 98.9024 446.293 99.2929L439.929 105.657C439.538 106.047 439.538 106.681 439.929 107.071C440.319 107.462 440.953 107.462 441.343 107.071L447 101.414L452.657 107.071C453.047 107.462 453.681 107.462 454.071 107.071C454.462 106.681 454.462 106.047 454.071 105.657L447.707 99.2929ZM357 112H356V113H357V112ZM448 112V100H446V112H448ZM356 100V112H358V100H356ZM357 113H447V111H357V113Z" fill="#EB5757"/>
</g>
<path d="M498.88 80.3154H496.779V85H494.143V72.2031H498.897C500.409 72.2031 501.575 72.54 502.396 73.2139C503.216 73.8877 503.626 74.8398 503.626 76.0703C503.626 76.9434 503.436 77.6729 503.055 78.2588C502.68 78.8389 502.108 79.3018 501.341 79.6475L504.109 84.877V85H501.279L498.88 80.3154ZM496.779 78.1797H498.906C499.568 78.1797 500.081 78.0127 500.444 77.6787C500.808 77.3389 500.989 76.873 500.989 76.2812C500.989 75.6777 500.816 75.2031 500.471 74.8574C500.131 74.5117 499.606 74.3389 498.897 74.3389H496.779V78.1797ZM509.849 85.1758C508.454 85.1758 507.317 84.748 506.438 83.8926C505.565 83.0371 505.129 81.8975 505.129 80.4736V80.2275C505.129 79.2725 505.313 78.4199 505.683 77.6699C506.052 76.9141 506.573 76.334 507.247 75.9297C507.927 75.5195 508.7 75.3145 509.567 75.3145C510.868 75.3145 511.891 75.7246 512.635 76.5449C513.385 77.3652 513.76 78.5283 513.76 80.0342V81.0713H507.704C507.786 81.6924 508.032 82.1904 508.442 82.5654C508.858 82.9404 509.383 83.1279 510.016 83.1279C510.994 83.1279 511.759 82.7734 512.31 82.0645L513.558 83.4619C513.177 84.001 512.661 84.4229 512.011 84.7275C511.36 85.0264 510.64 85.1758 509.849 85.1758ZM509.559 77.3711C509.055 77.3711 508.645 77.541 508.328 77.8809C508.018 78.2207 507.818 78.707 507.73 79.3398H511.264V79.1377C511.252 78.5752 511.1 78.1416 510.807 77.8369C510.514 77.5264 510.098 77.3711 509.559 77.3711ZM519.165 83.1279C519.634 83.1279 520.015 82.999 520.308 82.7412C520.601 82.4834 520.753 82.1406 520.765 81.7129H523.146C523.141 82.3574 522.965 82.9492 522.619 83.4883C522.273 84.0215 521.799 84.4375 521.195 84.7363C520.598 85.0293 519.936 85.1758 519.209 85.1758C517.85 85.1758 516.777 84.7451 515.992 83.8838C515.207 83.0166 514.814 81.8213 514.814 80.2979V80.1309C514.814 78.666 515.204 77.4971 515.983 76.624C516.763 75.751 517.832 75.3145 519.191 75.3145C520.381 75.3145 521.333 75.6543 522.048 76.334C522.769 77.0078 523.135 77.9072 523.146 79.0322H520.765C520.753 78.54 520.601 78.1416 520.308 77.8369C520.015 77.5264 519.628 77.3711 519.147 77.3711C518.556 77.3711 518.107 77.5879 517.803 78.0215C517.504 78.4492 517.354 79.1465 517.354 80.1133V80.377C517.354 81.3555 517.504 82.0586 517.803 82.4863C518.102 82.9141 518.556 83.1279 519.165 83.1279ZM528.147 81.4053L529.905 75.4902H532.63L528.807 86.4766L528.596 86.9775C528.027 88.2197 527.09 88.8408 525.783 88.8408C525.414 88.8408 525.039 88.7852 524.658 88.6738V86.749L525.045 86.7578C525.525 86.7578 525.883 86.6846 526.117 86.5381C526.357 86.3916 526.545 86.1484 526.68 85.8086L526.979 85.0264L523.647 75.4902H526.381L528.147 81.4053ZM537.464 83.1279C537.933 83.1279 538.313 82.999 538.606 82.7412C538.899 82.4834 539.052 82.1406 539.063 81.7129H541.445C541.439 82.3574 541.264 82.9492 540.918 83.4883C540.572 84.0215 540.098 84.4375 539.494 84.7363C538.896 85.0293 538.234 85.1758 537.508 85.1758C536.148 85.1758 535.076 84.7451 534.291 83.8838C533.506 83.0166 533.113 81.8213 533.113 80.2979V80.1309C533.113 78.666 533.503 77.4971 534.282 76.624C535.062 75.751 536.131 75.3145 537.49 75.3145C538.68 75.3145 539.632 75.6543 540.347 76.334C541.067 77.0078 541.434 77.9072 541.445 79.0322H539.063C539.052 78.54 538.899 78.1416 538.606 77.8369C538.313 77.5264 537.927 77.3711 537.446 77.3711C536.854 77.3711 536.406 77.5879 536.102 78.0215C535.803 78.4492 535.653 79.1465 535.653 80.1133V80.377C535.653 81.3555 535.803 82.0586 536.102 82.4863C536.4 82.9141 536.854 83.1279 537.464 83.1279ZM545.576 85H543.027V71.5H545.576V85ZM552.054 85.1758C550.659 85.1758 549.522 84.748 548.644 83.8926C547.771 83.0371 547.334 81.8975 547.334 80.4736V80.2275C547.334 79.2725 547.519 78.4199 547.888 77.6699C548.257 76.9141 548.778 76.334 549.452 75.9297C550.132 75.5195 550.905 75.3145 551.772 75.3145C553.073 75.3145 554.096 75.7246 554.84 76.5449C555.59 77.3652 555.965 78.5283 555.965 80.0342V81.0713H549.909C549.991 81.6924 550.237 82.1904 550.647 82.5654C551.063 82.9404 551.588 83.1279 552.221 83.1279C553.199 83.1279 553.964 82.7734 554.515 82.0645L555.763 83.4619C555.382 84.001 554.866 84.4229 554.216 84.7275C553.565 85.0264 552.845 85.1758 552.054 85.1758ZM551.764 77.3711C551.26 77.3711 550.85 77.541 550.533 77.8809C550.223 78.2207 550.023 78.707 549.936 79.3398H553.469V79.1377C553.457 78.5752 553.305 78.1416 553.012 77.8369C552.719 77.5264 552.303 77.3711 551.764 77.3711ZM557.02 80.1748C557.02 78.6924 557.351 77.5117 558.013 76.6328C558.681 75.7539 559.592 75.3145 560.746 75.3145C561.672 75.3145 562.437 75.6602 563.04 76.3516V71.5H565.589V85H563.295L563.172 83.9893C562.539 84.7803 561.725 85.1758 560.729 85.1758C559.609 85.1758 558.71 84.7363 558.03 83.8574C557.356 82.9727 557.02 81.7451 557.02 80.1748ZM559.56 80.3594C559.56 81.25 559.715 81.9326 560.025 82.4072C560.336 82.8818 560.787 83.1191 561.379 83.1191C562.164 83.1191 562.718 82.7881 563.04 82.126V78.373C562.724 77.7109 562.176 77.3799 561.396 77.3799C560.172 77.3799 559.56 78.373 559.56 80.3594ZM498.353 106.176C496.958 106.176 495.821 105.748 494.942 104.893C494.069 104.037 493.633 102.897 493.633 101.474V101.228C493.633 100.272 493.817 99.4199 494.187 98.6699C494.556 97.9141 495.077 97.334 495.751 96.9297C496.431 96.5195 497.204 96.3145 498.071 96.3145C499.372 96.3145 500.395 96.7246 501.139 97.5449C501.889 98.3652 502.264 99.5283 502.264 101.034V102.071H496.208C496.29 102.692 496.536 103.19 496.946 103.565C497.362 103.94 497.887 104.128 498.52 104.128C499.498 104.128 500.263 103.773 500.813 103.064L502.062 104.462C501.681 105.001 501.165 105.423 500.515 105.728C499.864 106.026 499.144 106.176 498.353 106.176ZM498.062 98.3711C497.559 98.3711 497.148 98.541 496.832 98.8809C496.521 99.2207 496.322 99.707 496.234 100.34H499.768V100.138C499.756 99.5752 499.604 99.1416 499.311 98.8369C499.018 98.5264 498.602 98.3711 498.062 98.3711ZM506.395 106H503.846V92.5H506.395V106ZM512.872 106.176C511.478 106.176 510.341 105.748 509.462 104.893C508.589 104.037 508.152 102.897 508.152 101.474V101.228C508.152 100.272 508.337 99.4199 508.706 98.6699C509.075 97.9141 509.597 97.334 510.271 96.9297C510.95 96.5195 511.724 96.3145 512.591 96.3145C513.892 96.3145 514.914 96.7246 515.658 97.5449C516.408 98.3652 516.783 99.5283 516.783 101.034V102.071H510.728C510.81 102.692 511.056 103.19 511.466 103.565C511.882 103.94 512.406 104.128 513.039 104.128C514.018 104.128 514.782 103.773 515.333 103.064L516.581 104.462C516.2 105.001 515.685 105.423 515.034 105.728C514.384 106.026 513.663 106.176 512.872 106.176ZM512.582 98.3711C512.078 98.3711 511.668 98.541 511.352 98.8809C511.041 99.2207 510.842 99.707 510.754 100.34H514.287V100.138C514.275 99.5752 514.123 99.1416 513.83 98.8369C513.537 98.5264 513.121 98.3711 512.582 98.3711ZM520.615 96.4902L520.694 97.5537C521.368 96.7275 522.279 96.3145 523.428 96.3145C524.652 96.3145 525.493 96.7979 525.95 97.7646C526.618 96.7979 527.57 96.3145 528.807 96.3145C529.838 96.3145 530.605 96.6162 531.109 97.2197C531.613 97.8174 531.865 98.7197 531.865 99.9268V106H529.316V99.9355C529.316 99.3965 529.211 99.0039 529 98.7578C528.789 98.5059 528.417 98.3799 527.884 98.3799C527.122 98.3799 526.595 98.7432 526.302 99.4697L526.311 106H523.771V99.9443C523.771 99.3936 523.662 98.9951 523.445 98.749C523.229 98.5029 522.859 98.3799 522.338 98.3799C521.617 98.3799 521.096 98.6787 520.773 99.2764V106H518.233V96.4902H520.615ZM538.202 106.176C536.808 106.176 535.671 105.748 534.792 104.893C533.919 104.037 533.482 102.897 533.482 101.474V101.228C533.482 100.272 533.667 99.4199 534.036 98.6699C534.405 97.9141 534.927 97.334 535.601 96.9297C536.28 96.5195 537.054 96.3145 537.921 96.3145C539.222 96.3145 540.244 96.7246 540.988 97.5449C541.738 98.3652 542.113 99.5283 542.113 101.034V102.071H536.058C536.14 102.692 536.386 103.19 536.796 103.565C537.212 103.94 537.736 104.128 538.369 104.128C539.348 104.128 540.112 103.773 540.663 103.064L541.911 104.462C541.53 105.001 541.015 105.423 540.364 105.728C539.714 106.026 538.993 106.176 538.202 106.176ZM537.912 98.3711C537.408 98.3711 536.998 98.541 536.682 98.8809C536.371 99.2207 536.172 99.707 536.084 100.34H539.617V100.138C539.605 99.5752 539.453 99.1416 539.16 98.8369C538.867 98.5264 538.451 98.3711 537.912 98.3711ZM545.901 96.4902L545.98 97.5889C546.66 96.7393 547.571 96.3145 548.714 96.3145C549.722 96.3145 550.472 96.6104 550.964 97.2021C551.456 97.7939 551.708 98.6787 551.72 99.8564V106H549.18V99.918C549.18 99.3789 549.062 98.9893 548.828 98.749C548.594 98.5029 548.204 98.3799 547.659 98.3799C546.944 98.3799 546.408 98.6846 546.051 99.2939V106H543.511V96.4902H545.901ZM556.694 94.1523V96.4902H558.32V98.3535H556.694V103.1C556.694 103.451 556.762 103.703 556.896 103.855C557.031 104.008 557.289 104.084 557.67 104.084C557.951 104.084 558.2 104.063 558.417 104.022V105.947C557.919 106.1 557.406 106.176 556.879 106.176C555.098 106.176 554.189 105.276 554.154 103.478V98.3535H552.766V96.4902H554.154V94.1523H556.694ZM564.886 103.372C564.886 103.062 564.73 102.818 564.42 102.643C564.115 102.461 563.623 102.3 562.943 102.159C560.682 101.685 559.551 100.724 559.551 99.2764C559.551 98.4326 559.899 97.7295 560.597 97.167C561.3 96.5986 562.217 96.3145 563.348 96.3145C564.555 96.3145 565.519 96.5986 566.239 97.167C566.966 97.7354 567.329 98.4736 567.329 99.3818H564.789C564.789 99.0186 564.672 98.7197 564.438 98.4854C564.203 98.2451 563.837 98.125 563.339 98.125C562.911 98.125 562.58 98.2217 562.346 98.415C562.111 98.6084 561.994 98.8545 561.994 99.1533C561.994 99.4346 562.126 99.6631 562.39 99.8389C562.659 100.009 563.11 100.158 563.743 100.287C564.376 100.41 564.909 100.551 565.343 100.709C566.685 101.201 567.355 102.054 567.355 103.267C567.355 104.134 566.983 104.837 566.239 105.376C565.495 105.909 564.534 106.176 563.356 106.176C562.56 106.176 561.851 106.035 561.229 105.754C560.614 105.467 560.131 105.077 559.779 104.585C559.428 104.087 559.252 103.551 559.252 102.977H561.66C561.684 103.428 561.851 103.773 562.161 104.014C562.472 104.254 562.888 104.374 563.409 104.374C563.896 104.374 564.262 104.283 564.508 104.102C564.76 103.914 564.886 103.671 564.886 103.372Z" fill="#EB5757"/>
<defs>
<filter id="filter0_f" x="231" y="56" width="257" height="65" filterUnits="userSpaceOnUse" color-interpolation-filters="sRGB">
<feFlood flood-opacity="0" result="BackgroundImageFix"/>
<feBlend mode="normal" in="SourceGraphic" in2="BackgroundImageFix" result="shape"/>
<feGaussianBlur stdDeviation="7.5" result="effect1_foregroundBlur"/>
</filter>
<filter id="filter1_d" x="172" y="99" width="106.364" height="22" filterUnits="userSpaceOnUse" color-interpolation-filters="sRGB">
<feFlood flood-opacity="0" result="BackgroundImageFix"/>
<feColorMatrix in="SourceAlpha" type="matrix" values="0 0 0 0 0 0 0 0 0 0 0 0 0 0 0 0 0 0 127 0"/>
<feOffset dy="4"/>
<feGaussianBlur stdDeviation="2"/>
<feColorMatrix type="matrix" values="0 0 0 0 0 0 0 0 0 0 0 0 0 0 0 0 0 0 0.25 0"/>
<feBlend mode="normal" in2="BackgroundImageFix" result="effect1_dropShadow"/>
<feBlend mode="normal" in="SourceGraphic" in2="effect1_dropShadow" result="shape"/>
</filter>
<filter id="filter2_d" x="262" y="99" width="106.364" height="22" filterUnits="userSpaceOnUse" color-interpolation-filters="sRGB">
<feFlood flood-opacity="0" result="BackgroundImageFix"/>
<feColorMatrix in="SourceAlpha" type="matrix" values="0 0 0 0 0 0 0 0 0 0 0 0 0 0 0 0 0 0 127 0"/>
<feOffset dy="4"/>
<feGaussianBlur stdDeviation="2"/>
<feColorMatrix type="matrix" values="0 0 0 0 0 0 0 0 0 0 0 0 0 0 0 0 0 0 0.25 0"/>
<feBlend mode="normal" in2="BackgroundImageFix" result="effect1_dropShadow"/>
<feBlend mode="normal" in="SourceGraphic" in2="effect1_dropShadow" result="shape"/>
</filter>
<filter id="filter3_d" x="352" y="99" width="106.364" height="22" filterUnits="userSpaceOnUse" color-interpolation-filters="sRGB">
<feFlood flood-opacity="0" result="BackgroundImageFix"/>
<feColorMatrix in="SourceAlpha" type="matrix" values="0 0 0 0 0 0 0 0 0 0 0 0 0 0 0 0 0 0 127 0"/>
<feOffset dy="4"/>
<feGaussianBlur stdDeviation="2"/>
<feColorMatrix type="matrix" values="0 0 0 0 0 0 0 0 0 0 0 0 0 0 0 0 0 0 0.25 0"/>
<feBlend mode="normal" in2="BackgroundImageFix" result="effect1_dropShadow"/>
<feBlend mode="normal" in="SourceGraphic" in2="effect1_dropShadow" result="shape"/>
</filter>
</defs>
</svg>
