<svg width="418" height="212" viewBox="0 0 418 212" fill="none" xmlns="http://www.w3.org/2000/svg">
<rect width="418" height="212" fill="white"/>
<path d="M22.8281 22.7695L26.6953 9.9375H30.6094L24.668 27H21L15.082 9.9375H18.9844L22.8281 22.7695ZM37.3242 27.2344C35.4648 27.2344 33.9492 26.6641 32.7773 25.5234C31.6133 24.3828 31.0312 22.8633 31.0312 20.9648V20.6367C31.0312 19.3633 31.2773 18.2266 31.7695 17.2266C32.2617 16.2188 32.957 15.4453 33.8555 14.9062C34.7617 14.3594 35.793 14.0859 36.9492 14.0859C38.6836 14.0859 40.0469 14.6328 41.0391 15.7266C42.0391 16.8203 42.5391 18.3711 42.5391 20.3789V21.7617H34.4648C34.5742 22.5898 34.9023 23.2539 35.4492 23.7539C36.0039 24.2539 36.7031 24.5039 37.5469 24.5039C38.8516 24.5039 39.8711 24.0312 40.6055 23.0859L42.2695 24.9492C41.7617 25.668 41.0742 26.2305 40.207 26.6367C39.3398 27.0352 38.3789 27.2344 37.3242 27.2344ZM36.9375 16.8281C36.2656 16.8281 35.7188 17.0547 35.2969 17.5078C34.8828 17.9609 34.6172 18.6094 34.5 19.4531H39.2109V19.1836C39.1953 18.4336 38.9922 17.8555 38.6016 17.4492C38.2109 17.0352 37.6562 16.8281 36.9375 16.8281ZM49.7461 24.5039C50.3711 24.5039 50.8789 24.332 51.2695 23.9883C51.6602 23.6445 51.8633 23.1875 51.8789 22.6172H55.0547C55.0469 23.4766 54.8125 24.2656 54.3516 24.9844C53.8906 25.6953 53.2578 26.25 52.4531 26.6484C51.6562 27.0391 50.7734 27.2344 49.8047 27.2344C47.9922 27.2344 46.5625 26.6602 45.5156 25.5117C44.4688 24.3555 43.9453 22.7617 43.9453 20.7305V20.5078C43.9453 18.5547 44.4648 16.9961 45.5039 15.832C46.543 14.668 47.9688 14.0859 49.7812 14.0859C51.3672 14.0859 52.6367 14.5391 53.5898 15.4453C54.5508 16.3438 55.0391 17.543 55.0547 19.043H51.8789C51.8633 18.3867 51.6602 17.8555 51.2695 17.4492C50.8789 17.0352 50.3633 16.8281 49.7227 16.8281C48.9336 16.8281 48.3359 17.1172 47.9297 17.6953C47.5312 18.2656 47.332 19.1953 47.332 20.4844V20.8359C47.332 22.1406 47.5312 23.0781 47.9297 23.6484C48.3281 24.2188 48.9336 24.5039 49.7461 24.5039ZM61.043 11.2031V14.3203H63.2109V16.8047H61.043V23.1328C61.043 23.6016 61.1328 23.9375 61.3125 24.1406C61.4922 24.3438 61.8359 24.4453 62.3438 24.4453C62.7188 24.4453 63.0508 24.418 63.3398 24.3633V26.9297C62.6758 27.1328 61.9922 27.2344 61.2891 27.2344C58.9141 27.2344 57.7031 26.0352 57.6562 23.6367V16.8047H55.8047V14.3203H57.6562V11.2031H61.043ZM64.2188 20.543C64.2188 19.2852 64.4609 18.1641 64.9453 17.1797C65.4297 16.1953 66.125 15.4336 67.0312 14.8945C67.9453 14.3555 69.0039 14.0859 70.207 14.0859C71.918 14.0859 73.3125 14.6094 74.3906 15.6562C75.4766 16.7031 76.082 18.125 76.207 19.9219L76.2305 20.7891C76.2305 22.7344 75.6875 24.2969 74.6016 25.4766C73.5156 26.6484 72.0586 27.2344 70.2305 27.2344C68.4023 27.2344 66.9414 26.6484 65.8477 25.4766C64.7617 24.3047 64.2188 22.7109 64.2188 20.6953V20.543ZM67.6055 20.7891C67.6055 21.9922 67.832 22.9141 68.2852 23.5547C68.7383 24.1875 69.3867 24.5039 70.2305 24.5039C71.0508 24.5039 71.6914 24.1914 72.1523 23.5664C72.6133 22.9336 72.8438 21.9258 72.8438 20.543C72.8438 19.3633 72.6133 18.4492 72.1523 17.8008C71.6914 17.1523 71.043 16.8281 70.207 16.8281C69.3789 16.8281 68.7383 17.1523 68.2852 17.8008C67.832 18.4414 67.6055 19.4375 67.6055 20.7891ZM85.4414 17.4961C84.9805 17.4336 84.5742 17.4023 84.2227 17.4023C82.9414 17.4023 82.1016 17.8359 81.7031 18.7031V27H78.3164V14.3203H81.5156L81.6094 15.832C82.2891 14.668 83.2305 14.0859 84.4336 14.0859C84.8086 14.0859 85.1602 14.1367 85.4883 14.2383L85.4414 17.4961Z" fill="black"/>
<rect x="317" y="107" width="37" height="24" fill="#56CCF2" stroke="black" stroke-width="2"/>
<rect x="317" y="172" width="37" height="24" fill="#56CCF2" stroke="black" stroke-width="2"/>
<rect x="317" y="141" width="37" height="24" fill="#56CCF2" stroke="black" stroke-width="2"/>
<rect x="363" y="107" width="37" height="24" fill="#56CCF2" stroke="black" stroke-width="2"/>
<rect x="363" y="172" width="37" height="24" fill="#56CCF2" stroke="black" stroke-width="2"/>
<rect x="363" y="141" width="37" height="24" fill="#56CCF2" stroke="black" stroke-width="2"/>
<path d="M401.354 79.3536C401.549 79.1583 401.549 78.8417 401.354 78.6464L398.172 75.4645C397.976 75.2692 397.66 75.2692 397.464 75.4645C397.269 75.6597 397.269 75.9763 397.464 76.1716L400.293 79L397.464 81.8284C397.269 82.0237 397.269 82.3403 397.464 82.5355C397.66 82.7308 397.976 82.7308 398.172 82.5355L401.354 79.3536ZM315 79.5H401V78.5H315V79.5Z" fill="#BDBDBD"/>
<path d="M290.646 200.354C290.842 200.549 291.158 200.549 291.354 200.354L294.536 197.172C294.731 196.976 294.731 196.66 294.536 196.464C294.34 196.269 294.024 196.269 293.828 196.464L291 199.293L288.172 196.464C287.976 196.269 287.66 196.269 287.464 196.464C287.269 196.66 287.269 196.976 287.464 197.172L290.646 200.354ZM290.5 105L290.5 200L291.5 200L291.5 105L290.5 105Z" fill="#BDBDBD"/>
<path d="M334.287 73.752C334.6 73.752 334.854 73.666 335.049 73.4941C335.244 73.3223 335.346 73.0938 335.354 72.8086H336.941C336.938 73.2383 336.82 73.6328 336.59 73.9922C336.359 74.3477 336.043 74.625 335.641 74.8242C335.242 75.0195 334.801 75.1172 334.316 75.1172C333.41 75.1172 332.695 74.8301 332.172 74.2559C331.648 73.6777 331.387 72.8809 331.387 71.8652V71.7539C331.387 70.7773 331.646 69.998 332.166 69.416C332.686 68.834 333.398 68.543 334.305 68.543C335.098 68.543 335.732 68.7695 336.209 69.2227C336.689 69.6719 336.934 70.2715 336.941 71.0215H335.354C335.346 70.6934 335.244 70.4277 335.049 70.2246C334.854 70.0176 334.596 69.9141 334.275 69.9141C333.881 69.9141 333.582 70.0586 333.379 70.3477C333.18 70.6328 333.08 71.0977 333.08 71.7422V71.918C333.08 72.5703 333.18 73.0391 333.379 73.3242C333.578 73.6094 333.881 73.752 334.287 73.752ZM337.645 71.7715C337.645 71.1426 337.766 70.582 338.008 70.0898C338.25 69.5977 338.598 69.2168 339.051 68.9473C339.508 68.6777 340.037 68.543 340.639 68.543C341.494 68.543 342.191 68.8047 342.73 69.3281C343.273 69.8516 343.576 70.5625 343.639 71.4609L343.65 71.8945C343.65 72.8672 343.379 73.6484 342.836 74.2383C342.293 74.8242 341.564 75.1172 340.65 75.1172C339.736 75.1172 339.006 74.8242 338.459 74.2383C337.916 73.6523 337.645 72.8555 337.645 71.8477V71.7715ZM339.338 71.8945C339.338 72.4961 339.451 72.957 339.678 73.2773C339.904 73.5938 340.229 73.752 340.65 73.752C341.061 73.752 341.381 73.5957 341.611 73.2832C341.842 72.9668 341.957 72.4629 341.957 71.7715C341.957 71.1816 341.842 70.7246 341.611 70.4004C341.381 70.0762 341.057 69.9141 340.639 69.9141C340.225 69.9141 339.904 70.0762 339.678 70.4004C339.451 70.7207 339.338 71.2188 339.338 71.8945ZM346.48 75H344.781V66H346.48V75ZM351.678 74.3555C351.26 74.8633 350.682 75.1172 349.943 75.1172C349.264 75.1172 348.744 74.9219 348.385 74.5312C348.029 74.1406 347.848 73.5684 347.84 72.8145V68.6602H349.533V72.7559C349.533 73.416 349.834 73.7461 350.436 73.7461C351.01 73.7461 351.404 73.5469 351.619 73.1484V68.6602H353.318V75H351.725L351.678 74.3555ZM356.184 68.6602L356.236 69.3691C356.686 68.8184 357.293 68.543 358.059 68.543C358.875 68.543 359.436 68.8652 359.74 69.5098C360.186 68.8652 360.82 68.543 361.645 68.543C362.332 68.543 362.844 68.7441 363.18 69.1465C363.516 69.5449 363.684 70.1465 363.684 70.9512V75H361.984V70.957C361.984 70.5977 361.914 70.3359 361.773 70.1719C361.633 70.0039 361.385 69.9199 361.029 69.9199C360.521 69.9199 360.17 70.1621 359.975 70.6465L359.98 75H358.287V70.9629C358.287 70.5957 358.215 70.3301 358.07 70.166C357.926 70.002 357.68 69.9199 357.332 69.9199C356.852 69.9199 356.504 70.1191 356.289 70.5176V75H354.596V68.6602H356.184ZM366.549 68.6602L366.602 69.3926C367.055 68.8262 367.662 68.543 368.424 68.543C369.096 68.543 369.596 68.7402 369.924 69.1348C370.252 69.5293 370.42 70.1191 370.428 70.9043V75H368.734V70.9453C368.734 70.5859 368.656 70.3262 368.5 70.166C368.344 70.002 368.084 69.9199 367.721 69.9199C367.244 69.9199 366.887 70.123 366.648 70.5293V75H364.955V68.6602H366.549ZM375.15 73.248C375.15 73.041 375.047 72.8789 374.84 72.7617C374.637 72.6406 374.309 72.5332 373.855 72.4395C372.348 72.123 371.594 71.4824 371.594 70.5176C371.594 69.9551 371.826 69.4863 372.291 69.1113C372.76 68.7324 373.371 68.543 374.125 68.543C374.93 68.543 375.572 68.7324 376.053 69.1113C376.537 69.4902 376.779 69.9824 376.779 70.5879H375.086C375.086 70.3457 375.008 70.1465 374.852 69.9902C374.695 69.8301 374.451 69.75 374.119 69.75C373.834 69.75 373.613 69.8145 373.457 69.9434C373.301 70.0723 373.223 70.2363 373.223 70.4355C373.223 70.623 373.311 70.7754 373.486 70.8926C373.666 71.0059 373.967 71.1055 374.389 71.1914C374.811 71.2734 375.166 71.3672 375.455 71.4727C376.35 71.8008 376.797 72.3691 376.797 73.1777C376.797 73.7559 376.549 74.2246 376.053 74.584C375.557 74.9395 374.916 75.1172 374.131 75.1172C373.6 75.1172 373.127 75.0234 372.713 74.8359C372.303 74.6445 371.98 74.3848 371.746 74.0566C371.512 73.7246 371.395 73.3672 371.395 72.9844H373C373.016 73.2852 373.127 73.5156 373.334 73.6758C373.541 73.8359 373.818 73.916 374.166 73.916C374.49 73.916 374.734 73.8555 374.898 73.7344C375.066 73.6094 375.15 73.4473 375.15 73.248Z" fill="#BDBDBD"/>
<path d="M280.248 161.787C280.217 162.018 280.201 162.221 280.201 162.396C280.201 163.037 280.418 163.457 280.852 163.656L285 163.656L285 165.35L278.66 165.35L278.66 163.75L279.416 163.703C278.834 163.363 278.543 162.893 278.543 162.291C278.543 162.104 278.568 161.928 278.619 161.764L280.248 161.787ZM281.771 161.441C281.143 161.441 280.582 161.32 280.09 161.078C279.598 160.836 279.217 160.488 278.947 160.035C278.678 159.578 278.543 159.049 278.543 158.447C278.543 157.592 278.805 156.895 279.328 156.355C279.852 155.812 280.563 155.51 281.461 155.447L281.895 155.436C282.867 155.436 283.648 155.707 284.238 156.25C284.824 156.793 285.117 157.521 285.117 158.436C285.117 159.35 284.824 160.08 284.238 160.627C283.652 161.17 282.855 161.441 281.848 161.441L281.771 161.441ZM281.895 159.748C282.496 159.748 282.957 159.635 283.277 159.408C283.594 159.182 283.752 158.857 283.752 158.436C283.752 158.025 283.596 157.705 283.283 157.475C282.967 157.244 282.463 157.129 281.771 157.129C281.182 157.129 280.725 157.244 280.4 157.475C280.076 157.705 279.914 158.029 279.914 158.447C279.914 158.861 280.076 159.182 280.4 159.408C280.721 159.635 281.219 159.748 281.895 159.748ZM282.697 148.879L278.66 148.047L278.66 146.412L285 148.029L285 149.447L281.01 150.648L285 151.85L285 153.262L278.66 154.879L278.66 153.244L282.691 152.418L278.66 151.258L278.66 150.033L282.697 148.879ZM283.248 142.135C283.041 142.135 282.879 142.238 282.762 142.445C282.641 142.648 282.533 142.977 282.439 143.43C282.123 144.937 281.482 145.691 280.518 145.691C279.955 145.691 279.486 145.459 279.111 144.994C278.732 144.525 278.543 143.914 278.543 143.16C278.543 142.355 278.732 141.713 279.111 141.232C279.49 140.748 279.982 140.506 280.588 140.506L280.588 142.199C280.346 142.199 280.146 142.277 279.99 142.434C279.83 142.59 279.75 142.834 279.75 143.166C279.75 143.451 279.814 143.672 279.943 143.828C280.072 143.984 280.236 144.062 280.436 144.062C280.623 144.062 280.775 143.975 280.893 143.799C281.006 143.619 281.105 143.318 281.191 142.896C281.273 142.475 281.367 142.119 281.473 141.83C281.801 140.936 282.369 140.488 283.178 140.488C283.756 140.488 284.225 140.736 284.584 141.232C284.939 141.729 285.117 142.369 285.117 143.154C285.117 143.686 285.023 144.158 284.836 144.572C284.645 144.982 284.385 145.305 284.057 145.539C283.725 145.773 283.367 145.891 282.984 145.891L282.984 144.285C283.285 144.27 283.516 144.158 283.676 143.951C283.836 143.744 283.916 143.467 283.916 143.119C283.916 142.795 283.855 142.551 283.734 142.387C283.609 142.219 283.447 142.135 283.248 142.135Z" fill="#BDBDBD"/>
<path d="M308.45 39.0581L304.762 37.7695V36.0049L310.291 38.3218V39.8135L304.762 42.1367V40.3657L308.45 39.0581ZM320.917 43H314.582V41.7432L317.571 38.5566C317.982 38.1081 318.284 37.7166 318.479 37.3823C318.678 37.048 318.777 36.7306 318.777 36.4302C318.777 36.0197 318.674 35.6981 318.466 35.4653C318.259 35.2284 317.963 35.1099 317.578 35.1099C317.163 35.1099 316.835 35.2537 316.594 35.5415C316.357 35.825 316.238 36.1995 316.238 36.665H314.397C314.397 36.1022 314.531 35.5881 314.797 35.1226C315.068 34.6571 315.449 34.2931 315.94 34.0308C316.431 33.7642 316.987 33.6309 317.609 33.6309C318.562 33.6309 319.3 33.8594 319.825 34.3164C320.354 34.7734 320.618 35.4188 320.618 36.2524C320.618 36.7095 320.5 37.175 320.263 37.6489C320.026 38.1229 319.619 38.6751 319.044 39.3057L316.943 41.521H320.917V43ZM325.48 43V33.7578H328.324C329.137 33.7578 329.862 33.9419 330.501 34.3101C331.145 34.674 331.646 35.1945 332.006 35.8716C332.366 36.5444 332.545 37.3104 332.545 38.1694V38.5947C332.545 39.4538 332.368 40.2176 332.012 40.8862C331.661 41.5549 331.164 42.0732 330.521 42.4414C329.877 42.8096 329.152 42.9958 328.343 43H325.48ZM327.385 35.3003V41.4702H328.305C329.05 41.4702 329.619 41.2269 330.013 40.7402C330.406 40.2536 330.607 39.5575 330.616 38.6519V38.1631C330.616 37.2236 330.421 36.5127 330.032 36.0303C329.642 35.5436 329.073 35.3003 328.324 35.3003H327.385ZM335.751 43H333.91V36.1318H335.751V43ZM333.802 34.3545C333.802 34.0794 333.893 33.853 334.075 33.6753C334.261 33.4976 334.513 33.4087 334.831 33.4087C335.144 33.4087 335.393 33.4976 335.58 33.6753C335.766 33.853 335.859 34.0794 335.859 34.3545C335.859 34.6338 335.764 34.8623 335.573 35.04C335.387 35.2178 335.14 35.3066 334.831 35.3066C334.522 35.3066 334.272 35.2178 334.082 35.04C333.895 34.8623 333.802 34.6338 333.802 34.3545ZM338.988 36.1318L339.045 36.8999C339.532 36.3032 340.19 36.0049 341.02 36.0049C341.904 36.0049 342.511 36.354 342.841 37.0522C343.324 36.354 344.011 36.0049 344.904 36.0049C345.649 36.0049 346.203 36.2228 346.567 36.6587C346.931 37.0903 347.113 37.742 347.113 38.6138V43H345.272V38.6201C345.272 38.2308 345.196 37.9473 345.044 37.7695C344.892 37.5876 344.623 37.4966 344.238 37.4966C343.688 37.4966 343.307 37.759 343.095 38.2837L343.102 43H341.267V38.6265C341.267 38.2287 341.189 37.9409 341.032 37.7632C340.876 37.5854 340.609 37.4966 340.232 37.4966C339.712 37.4966 339.335 37.7124 339.103 38.144V43H337.268V36.1318H338.988ZM351.69 43.127C350.683 43.127 349.862 42.818 349.227 42.2002C348.597 41.5824 348.281 40.7593 348.281 39.731V39.5532C348.281 38.8634 348.415 38.2477 348.681 37.7061C348.948 37.1602 349.324 36.7412 349.811 36.4492C350.302 36.153 350.861 36.0049 351.487 36.0049C352.426 36.0049 353.165 36.3011 353.702 36.8936C354.244 37.486 354.515 38.326 354.515 39.4136V40.1626H350.141C350.2 40.6112 350.378 40.9709 350.674 41.2417C350.975 41.5125 351.354 41.6479 351.811 41.6479C352.517 41.6479 353.07 41.3919 353.467 40.8799L354.369 41.8892C354.094 42.2785 353.721 42.5832 353.251 42.8032C352.782 43.019 352.261 43.127 351.69 43.127ZM351.48 37.4902C351.117 37.4902 350.82 37.613 350.592 37.8584C350.368 38.1038 350.224 38.4551 350.16 38.9121H352.712V38.7661C352.703 38.3599 352.593 38.0467 352.382 37.8267C352.17 37.6024 351.87 37.4902 351.48 37.4902ZM357.251 36.1318L357.308 36.9253C357.799 36.3117 358.457 36.0049 359.282 36.0049C360.01 36.0049 360.551 36.2186 360.907 36.646C361.262 37.0734 361.444 37.7124 361.453 38.563V43H359.618V38.6074C359.618 38.2181 359.534 37.9367 359.364 37.7632C359.195 37.5854 358.914 37.4966 358.52 37.4966C358.004 37.4966 357.617 37.7166 357.358 38.1567V43H355.524V36.1318H357.251ZM366.569 41.1021C366.569 40.8778 366.457 40.7021 366.232 40.5752C366.012 40.444 365.657 40.3276 365.166 40.2261C363.533 39.8833 362.716 39.1893 362.716 38.144C362.716 37.5347 362.968 37.0269 363.471 36.6206C363.979 36.2101 364.641 36.0049 365.458 36.0049C366.33 36.0049 367.026 36.2101 367.546 36.6206C368.071 37.0311 368.334 37.5643 368.334 38.2202H366.499C366.499 37.9578 366.414 37.742 366.245 37.5728C366.076 37.3993 365.811 37.3125 365.452 37.3125C365.143 37.3125 364.904 37.3823 364.734 37.522C364.565 37.6616 364.48 37.8394 364.48 38.0552C364.48 38.2583 364.576 38.4233 364.766 38.5503C364.961 38.673 365.287 38.7809 365.744 38.874C366.201 38.9629 366.586 39.0645 366.899 39.1787C367.868 39.5342 368.353 40.1499 368.353 41.0259C368.353 41.6522 368.084 42.16 367.546 42.5493C367.009 42.9344 366.315 43.127 365.464 43.127C364.889 43.127 364.377 43.0254 363.928 42.8223C363.484 42.6149 363.135 42.3335 362.881 41.978C362.627 41.6183 362.5 41.2311 362.5 40.8164H364.239C364.256 41.1423 364.377 41.3919 364.601 41.5654C364.825 41.7389 365.126 41.8257 365.502 41.8257C365.854 41.8257 366.118 41.7601 366.296 41.6289C366.478 41.4935 366.569 41.3179 366.569 41.1021ZM371.476 43H369.635V36.1318H371.476V43ZM369.527 34.3545C369.527 34.0794 369.618 33.853 369.8 33.6753C369.986 33.4976 370.238 33.4087 370.555 33.4087C370.868 33.4087 371.118 33.4976 371.304 33.6753C371.49 33.853 371.584 34.0794 371.584 34.3545C371.584 34.6338 371.488 34.8623 371.298 35.04C371.112 35.2178 370.864 35.3066 370.555 35.3066C370.246 35.3066 369.997 35.2178 369.806 35.04C369.62 34.8623 369.527 34.6338 369.527 34.3545ZM372.707 39.5024C372.707 38.8211 372.838 38.2139 373.101 37.6807C373.363 37.1475 373.74 36.7349 374.23 36.4429C374.726 36.1509 375.299 36.0049 375.951 36.0049C376.877 36.0049 377.633 36.2884 378.217 36.8555C378.805 37.4225 379.133 38.1927 379.201 39.166L379.213 39.6357C379.213 40.6895 378.919 41.5358 378.331 42.1748C377.743 42.8096 376.954 43.127 375.963 43.127C374.973 43.127 374.182 42.8096 373.589 42.1748C373.001 41.54 372.707 40.6768 372.707 39.585V39.5024ZM374.542 39.6357C374.542 40.2874 374.664 40.7868 374.91 41.1338C375.155 41.4766 375.506 41.6479 375.963 41.6479C376.408 41.6479 376.755 41.4787 377.004 41.1401C377.254 40.7974 377.379 40.2515 377.379 39.5024C377.379 38.8634 377.254 38.3683 377.004 38.0171C376.755 37.6659 376.404 37.4902 375.951 37.4902C375.502 37.4902 375.155 37.6659 374.91 38.0171C374.664 38.3641 374.542 38.9036 374.542 39.6357ZM382.032 36.1318L382.089 36.9253C382.58 36.3117 383.238 36.0049 384.063 36.0049C384.791 36.0049 385.333 36.2186 385.688 36.646C386.043 37.0734 386.225 37.7124 386.234 38.563V43H384.399V38.6074C384.399 38.2181 384.315 37.9367 384.146 37.7632C383.976 37.5854 383.695 37.4966 383.301 37.4966C382.785 37.4966 382.398 37.7166 382.14 38.1567V43H380.305V36.1318H382.032ZM391.35 41.1021C391.35 40.8778 391.238 40.7021 391.014 40.5752C390.794 40.444 390.438 40.3276 389.947 40.2261C388.314 39.8833 387.497 39.1893 387.497 38.144C387.497 37.5347 387.749 37.0269 388.252 36.6206C388.76 36.2101 389.423 36.0049 390.239 36.0049C391.111 36.0049 391.807 36.2101 392.328 36.6206C392.852 37.0311 393.115 37.5643 393.115 38.2202H391.28C391.28 37.9578 391.196 37.742 391.026 37.5728C390.857 37.3993 390.593 37.3125 390.233 37.3125C389.924 37.3125 389.685 37.3823 389.516 37.522C389.346 37.6616 389.262 37.8394 389.262 38.0552C389.262 38.2583 389.357 38.4233 389.547 38.5503C389.742 38.673 390.068 38.7809 390.525 38.874C390.982 38.9629 391.367 39.0645 391.68 39.1787C392.649 39.5342 393.134 40.1499 393.134 41.0259C393.134 41.6522 392.865 42.16 392.328 42.5493C391.79 42.9344 391.096 43.127 390.246 43.127C389.67 43.127 389.158 43.0254 388.709 42.8223C388.265 42.6149 387.916 42.3335 387.662 41.978C387.408 41.6183 387.281 41.2311 387.281 40.8164H389.021C389.037 41.1423 389.158 41.3919 389.382 41.5654C389.607 41.7389 389.907 41.8257 390.284 41.8257C390.635 41.8257 390.899 41.7601 391.077 41.6289C391.259 41.4935 391.35 41.3179 391.35 41.1021ZM308.45 54.0581L304.762 52.7695V51.0049L310.291 53.3218V54.8135L304.762 57.1367V55.3657L308.45 54.0581ZM319.571 55.5752C319.571 55.2155 319.444 54.9404 319.19 54.75C318.936 54.5553 318.479 54.3522 317.819 54.1406C317.159 53.9248 316.636 53.7132 316.251 53.5059C315.202 52.9388 314.677 52.175 314.677 51.2144C314.677 50.715 314.816 50.2707 315.096 49.8813C315.379 49.4878 315.783 49.181 316.308 48.9609C316.837 48.7409 317.43 48.6309 318.085 48.6309C318.746 48.6309 319.334 48.7515 319.85 48.9927C320.366 49.2297 320.766 49.5661 321.05 50.002C321.338 50.4378 321.481 50.9329 321.481 51.4873H319.577C319.577 51.0641 319.444 50.7362 319.177 50.5034C318.911 50.2664 318.536 50.1479 318.054 50.1479C317.588 50.1479 317.226 50.2474 316.968 50.4463C316.71 50.641 316.581 50.8991 316.581 51.2207C316.581 51.5212 316.731 51.7729 317.032 51.9761C317.336 52.1792 317.783 52.3696 318.371 52.5474C319.454 52.8732 320.244 53.2773 320.739 53.7598C321.234 54.2422 321.481 54.8431 321.481 55.5625C321.481 56.3623 321.179 56.9907 320.574 57.4478C319.969 57.9006 319.154 58.127 318.13 58.127C317.419 58.127 316.772 57.9979 316.188 57.7397C315.604 57.4774 315.157 57.1198 314.848 56.667C314.543 56.2142 314.391 55.6895 314.391 55.0928H316.302C316.302 56.1126 316.911 56.6226 318.13 56.6226C318.583 56.6226 318.936 56.5316 319.19 56.3496C319.444 56.1634 319.571 55.9053 319.571 55.5752ZM326.636 58C326.551 57.835 326.49 57.6297 326.452 57.3843C326.007 57.8794 325.43 58.127 324.719 58.127C324.046 58.127 323.487 57.9323 323.043 57.543C322.603 57.1536 322.383 56.6628 322.383 56.0703C322.383 55.3424 322.652 54.7839 323.189 54.3945C323.731 54.0052 324.511 53.8084 325.531 53.8042H326.376V53.4106C326.376 53.0933 326.293 52.8394 326.128 52.6489C325.967 52.4585 325.711 52.3633 325.36 52.3633C325.051 52.3633 324.808 52.4373 324.63 52.5854C324.456 52.7336 324.37 52.9367 324.37 53.1948H322.535C322.535 52.797 322.658 52.4289 322.903 52.0903C323.149 51.7518 323.496 51.4873 323.944 51.2969C324.393 51.1022 324.897 51.0049 325.455 51.0049C326.301 51.0049 326.972 51.2186 327.467 51.646C327.967 52.0692 328.216 52.6659 328.216 53.436V56.4131C328.221 57.0648 328.312 57.5578 328.489 57.8921V58H326.636ZM325.119 56.7241C325.39 56.7241 325.639 56.6649 325.868 56.5464C326.096 56.4237 326.265 56.2607 326.376 56.0576V54.877H325.69C324.772 54.877 324.283 55.1943 324.224 55.8291L324.217 55.937C324.217 56.1655 324.298 56.3538 324.459 56.502C324.619 56.6501 324.839 56.7241 325.119 56.7241ZM331.346 51.1318L331.403 51.8999C331.89 51.3032 332.548 51.0049 333.377 51.0049C334.261 51.0049 334.869 51.354 335.199 52.0522C335.681 51.354 336.369 51.0049 337.262 51.0049C338.007 51.0049 338.561 51.2228 338.925 51.6587C339.289 52.0903 339.471 52.742 339.471 53.6138V58H337.63V53.6201C337.63 53.2308 337.554 52.9473 337.401 52.7695C337.249 52.5876 336.98 52.4966 336.595 52.4966C336.045 52.4966 335.664 52.759 335.453 53.2837L335.459 58H333.625V53.6265C333.625 53.2287 333.546 52.9409 333.39 52.7632C333.233 52.5854 332.966 52.4966 332.59 52.4966C332.069 52.4966 331.693 52.7124 331.46 53.144V58H329.626V51.1318H331.346ZM344.047 58.127C343.04 58.127 342.219 57.818 341.584 57.2002C340.954 56.5824 340.639 55.7593 340.639 54.731V54.5532C340.639 53.8634 340.772 53.2477 341.039 52.7061C341.305 52.1602 341.682 51.7412 342.168 51.4492C342.659 51.153 343.218 51.0049 343.844 51.0049C344.784 51.0049 345.522 51.3011 346.06 51.8936C346.601 52.486 346.872 53.326 346.872 54.4136V55.1626H342.499C342.558 55.6112 342.736 55.9709 343.032 56.2417C343.332 56.5125 343.711 56.6479 344.168 56.6479C344.875 56.6479 345.427 56.3919 345.825 55.8799L346.726 56.8892C346.451 57.2785 346.079 57.5832 345.609 57.8032C345.139 58.019 344.619 58.127 344.047 58.127ZM343.838 52.4902C343.474 52.4902 343.178 52.613 342.949 52.8584C342.725 53.1038 342.581 53.4551 342.518 53.9121H345.069V53.7661C345.061 53.3599 344.951 53.0467 344.739 52.8267C344.528 52.6024 344.227 52.4902 343.838 52.4902ZM357.854 50.3003H355.022V58H353.118V50.3003H350.325V48.7578H357.854V50.3003ZM360.869 55.4038L362.138 51.1318H364.106L361.345 59.0664L361.192 59.4282C360.782 60.3254 360.105 60.7739 359.161 60.7739C358.895 60.7739 358.624 60.7337 358.349 60.6533V59.2632L358.628 59.2695C358.975 59.2695 359.233 59.2166 359.402 59.1108C359.576 59.005 359.711 58.8294 359.809 58.584L360.024 58.019L357.619 51.1318H359.593L360.869 55.4038ZM371.012 54.6294C371.012 55.6873 370.771 56.5358 370.289 57.1748C369.81 57.8096 369.163 58.127 368.346 58.127C367.652 58.127 367.091 57.8857 366.664 57.4033V60.6406H364.83V51.1318H366.531L366.594 51.8047C367.039 51.2715 367.618 51.0049 368.334 51.0049C369.18 51.0049 369.838 51.318 370.308 51.9443C370.777 52.5706 371.012 53.4339 371.012 54.5342V54.6294ZM369.178 54.4961C369.178 53.8571 369.064 53.3641 368.835 53.0171C368.611 52.6701 368.283 52.4966 367.851 52.4966C367.276 52.4966 366.88 52.7166 366.664 53.1567V55.9688C366.888 56.4215 367.288 56.6479 367.864 56.6479C368.74 56.6479 369.178 55.9307 369.178 54.4961ZM375.316 58.127C374.309 58.127 373.488 57.818 372.853 57.2002C372.223 56.5824 371.907 55.7593 371.907 54.731V54.5532C371.907 53.8634 372.041 53.2477 372.307 52.7061C372.574 52.1602 372.95 51.7412 373.437 51.4492C373.928 51.153 374.487 51.0049 375.113 51.0049C376.052 51.0049 376.791 51.3011 377.328 51.8936C377.87 52.486 378.141 53.326 378.141 54.4136V55.1626H373.767C373.826 55.6112 374.004 55.9709 374.3 56.2417C374.601 56.5125 374.98 56.6479 375.437 56.6479C376.143 56.6479 376.696 56.3919 377.093 55.8799L377.995 56.8892C377.72 57.2785 377.347 57.5832 376.877 57.8032C376.408 58.019 375.887 58.127 375.316 58.127ZM375.106 52.4902C374.743 52.4902 374.446 52.613 374.218 52.8584C373.994 53.1038 373.85 53.4551 373.786 53.9121H376.338V53.7661C376.329 53.3599 376.219 53.0467 376.008 52.8267C375.796 52.6024 375.496 52.4902 375.106 52.4902Z" fill="#9B51E0"/>
<line x1="299.5" y1="34" x2="299.5" y2="61" stroke="#9B51E0" stroke-width="3"/>
<path d="M304.117 9.9375L308.5 22.3125L312.859 9.9375H317.477V27H313.949V22.3359L314.301 14.2852L309.695 27H307.281L302.688 14.2969L303.039 22.3359V27H299.523V9.9375H304.117ZM327.672 27C327.516 26.6953 327.402 26.3164 327.332 25.8633C326.512 26.7773 325.445 27.2344 324.133 27.2344C322.891 27.2344 321.859 26.875 321.039 26.1562C320.227 25.4375 319.82 24.5312 319.82 23.4375C319.82 22.0938 320.316 21.0625 321.309 20.3438C322.309 19.625 323.75 19.2617 325.633 19.2539H327.191V18.5273C327.191 17.9414 327.039 17.4727 326.734 17.1211C326.438 16.7695 325.965 16.5938 325.316 16.5938C324.746 16.5938 324.297 16.7305 323.969 17.0039C323.648 17.2773 323.488 17.6523 323.488 18.1289H320.102C320.102 17.3945 320.328 16.7148 320.781 16.0898C321.234 15.4648 321.875 14.9766 322.703 14.625C323.531 14.2656 324.461 14.0859 325.492 14.0859C327.055 14.0859 328.293 14.4805 329.207 15.2695C330.129 16.0508 330.59 17.1523 330.59 18.5742V24.0703C330.598 25.2734 330.766 26.1836 331.094 26.8008V27H327.672ZM324.871 24.6445C325.371 24.6445 325.832 24.5352 326.254 24.3164C326.676 24.0898 326.988 23.7891 327.191 23.4141V21.2344H325.926C324.23 21.2344 323.328 21.8203 323.219 22.9922L323.207 23.1914C323.207 23.6133 323.355 23.9609 323.652 24.2344C323.949 24.5078 324.355 24.6445 324.871 24.6445ZM337.246 11.2031V14.3203H339.414V16.8047H337.246V23.1328C337.246 23.6016 337.336 23.9375 337.516 24.1406C337.695 24.3438 338.039 24.4453 338.547 24.4453C338.922 24.4453 339.254 24.418 339.543 24.3633V26.9297C338.879 27.1328 338.195 27.2344 337.492 27.2344C335.117 27.2344 333.906 26.0352 333.859 23.6367V16.8047H332.008V14.3203H333.859V11.2031H337.246ZM348.426 17.4961C347.965 17.4336 347.559 17.4023 347.207 17.4023C345.926 17.4023 345.086 17.8359 344.688 18.7031V27H341.301V14.3203H344.5L344.594 15.832C345.273 14.668 346.215 14.0859 347.418 14.0859C347.793 14.0859 348.145 14.1367 348.473 14.2383L348.426 17.4961ZM353.641 27H350.242V14.3203H353.641V27ZM350.043 11.0391C350.043 10.5312 350.211 10.1133 350.547 9.78516C350.891 9.45703 351.355 9.29297 351.941 9.29297C352.52 9.29297 352.98 9.45703 353.324 9.78516C353.668 10.1133 353.84 10.5312 353.84 11.0391C353.84 11.5547 353.664 11.9766 353.313 12.3047C352.969 12.6328 352.512 12.7969 351.941 12.7969C351.371 12.7969 350.91 12.6328 350.559 12.3047C350.215 11.9766 350.043 11.5547 350.043 11.0391ZM361.27 18.1055L363.402 14.3203H367.023L363.414 20.5312L367.176 27H363.543L361.281 23.0156L359.031 27H355.387L359.148 20.5312L355.551 14.3203H359.184L361.27 18.1055Z" fill="black"/>
<rect x="102" y="151" width="37" height="24" fill="#56CCF2" stroke="black" stroke-width="2"/>
<rect x="194" y="151" width="37" height="24" fill="#56CCF2" stroke="black" stroke-width="2"/>
<rect x="148" y="151" width="37" height="24" fill="#56CCF2" stroke="black" stroke-width="2"/>
<path d="M28.4497 39.0581L24.7617 37.7695V36.0049L30.2905 38.3218V39.8135L24.7617 42.1367V40.3657L28.4497 39.0581ZM39.0376 43H37.2031V35.9287L35.0132 36.6079V35.1162L38.8408 33.7451H39.0376V43ZM45.4805 43V33.7578H48.3242C49.1367 33.7578 49.8625 33.9419 50.5015 34.3101C51.1447 34.674 51.6462 35.1945 52.0059 35.8716C52.3656 36.5444 52.5454 37.3104 52.5454 38.1694V38.5947C52.5454 39.4538 52.3677 40.2176 52.0122 40.8862C51.661 41.5549 51.1637 42.0732 50.5205 42.4414C49.8773 42.8096 49.1515 42.9958 48.3433 43H45.4805ZM47.3848 35.3003V41.4702H48.3052C49.05 41.4702 49.6191 41.2269 50.0127 40.7402C50.4062 40.2536 50.6073 39.5575 50.6157 38.6519V38.1631C50.6157 37.2236 50.4211 36.5127 50.0317 36.0303C49.6424 35.5436 49.0732 35.3003 48.3242 35.3003H47.3848ZM55.751 43H53.9102V36.1318H55.751V43ZM53.8022 34.3545C53.8022 34.0794 53.8932 33.853 54.0752 33.6753C54.2614 33.4976 54.5132 33.4087 54.8306 33.4087C55.1437 33.4087 55.3934 33.4976 55.5796 33.6753C55.7658 33.853 55.8589 34.0794 55.8589 34.3545C55.8589 34.6338 55.7637 34.8623 55.5732 35.04C55.387 35.2178 55.1395 35.3066 54.8306 35.3066C54.5216 35.3066 54.272 35.2178 54.0815 35.04C53.8953 34.8623 53.8022 34.6338 53.8022 34.3545ZM58.9883 36.1318L59.0454 36.8999C59.5321 36.3032 60.1901 36.0049 61.0195 36.0049C61.904 36.0049 62.5112 36.354 62.8413 37.0522C63.3237 36.354 64.0114 36.0049 64.9043 36.0049C65.6491 36.0049 66.2035 36.2228 66.5674 36.6587C66.9313 37.0903 67.1133 37.742 67.1133 38.6138V43H65.2725V38.6201C65.2725 38.2308 65.1963 37.9473 65.0439 37.7695C64.8916 37.5876 64.6229 37.4966 64.2378 37.4966C63.6877 37.4966 63.3068 37.759 63.0952 38.2837L63.1016 43H61.2671V38.6265C61.2671 38.2287 61.1888 37.9409 61.0322 37.7632C60.8757 37.5854 60.609 37.4966 60.2324 37.4966C59.7119 37.4966 59.3353 37.7124 59.1025 38.144V43H57.2681V36.1318H58.9883ZM71.6899 43.127C70.6828 43.127 69.8618 42.818 69.2271 42.2002C68.5965 41.5824 68.2812 40.7593 68.2812 39.731V39.5532C68.2812 38.8634 68.4146 38.2477 68.6812 37.7061C68.9478 37.1602 69.3244 36.7412 69.811 36.4492C70.3019 36.153 70.8605 36.0049 71.4868 36.0049C72.4263 36.0049 73.1647 36.3011 73.7021 36.8936C74.2438 37.486 74.5146 38.326 74.5146 39.4136V40.1626H70.1411C70.2004 40.6112 70.3781 40.9709 70.6743 41.2417C70.9748 41.5125 71.3535 41.6479 71.8105 41.6479C72.5173 41.6479 73.0695 41.3919 73.4673 40.8799L74.3687 41.8892C74.0936 42.2785 73.7212 42.5832 73.2515 42.8032C72.7817 43.019 72.2612 43.127 71.6899 43.127ZM71.4805 37.4902C71.1165 37.4902 70.8203 37.613 70.5918 37.8584C70.3675 38.1038 70.2236 38.4551 70.1602 38.9121H72.7119V38.7661C72.7035 38.3599 72.5934 38.0467 72.3818 37.8267C72.1702 37.6024 71.8698 37.4902 71.4805 37.4902ZM77.2505 36.1318L77.3076 36.9253C77.7985 36.3117 78.4565 36.0049 79.2817 36.0049C80.0096 36.0049 80.5513 36.2186 80.9067 36.646C81.2622 37.0734 81.4442 37.7124 81.4526 38.563V43H79.6182V38.6074C79.6182 38.2181 79.5335 37.9367 79.3643 37.7632C79.195 37.5854 78.9136 37.4966 78.52 37.4966C78.0037 37.4966 77.6165 37.7166 77.3584 38.1567V43H75.5239V36.1318H77.2505ZM86.5688 41.1021C86.5688 40.8778 86.4567 40.7021 86.2324 40.5752C86.0124 40.444 85.6569 40.3276 85.166 40.2261C83.5326 39.8833 82.7158 39.1893 82.7158 38.144C82.7158 37.5347 82.9676 37.0269 83.4712 36.6206C83.979 36.2101 84.6413 36.0049 85.458 36.0049C86.3298 36.0049 87.0259 36.2101 87.5464 36.6206C88.0711 37.0311 88.3335 37.5643 88.3335 38.2202H86.499C86.499 37.9578 86.4144 37.742 86.2451 37.5728C86.0758 37.3993 85.8114 37.3125 85.4517 37.3125C85.1427 37.3125 84.9036 37.3823 84.7344 37.522C84.5651 37.6616 84.4805 37.8394 84.4805 38.0552C84.4805 38.2583 84.5757 38.4233 84.7661 38.5503C84.9608 38.673 85.2866 38.7809 85.7437 38.874C86.2007 38.9629 86.5858 39.0645 86.8989 39.1787C87.868 39.5342 88.3525 40.1499 88.3525 41.0259C88.3525 41.6522 88.0838 42.16 87.5464 42.5493C87.009 42.9344 86.3149 43.127 85.4644 43.127C84.8888 43.127 84.3768 43.0254 83.9282 42.8223C83.4839 42.6149 83.1348 42.3335 82.8809 41.978C82.627 41.6183 82.5 41.2311 82.5 40.8164H84.2393C84.2562 41.1423 84.3768 41.3919 84.6011 41.5654C84.8254 41.7389 85.1258 41.8257 85.5024 41.8257C85.8537 41.8257 86.1182 41.7601 86.2959 41.6289C86.4779 41.4935 86.5688 41.3179 86.5688 41.1021ZM91.4756 43H89.6348V36.1318H91.4756V43ZM89.5269 34.3545C89.5269 34.0794 89.6178 33.853 89.7998 33.6753C89.986 33.4976 90.2378 33.4087 90.5552 33.4087C90.8683 33.4087 91.118 33.4976 91.3042 33.6753C91.4904 33.853 91.5835 34.0794 91.5835 34.3545C91.5835 34.6338 91.4883 34.8623 91.2979 35.04C91.1117 35.2178 90.8641 35.3066 90.5552 35.3066C90.2463 35.3066 89.9966 35.2178 89.8062 35.04C89.62 34.8623 89.5269 34.6338 89.5269 34.3545ZM92.707 39.5024C92.707 38.8211 92.8382 38.2139 93.1006 37.6807C93.363 37.1475 93.7396 36.7349 94.2305 36.4429C94.7256 36.1509 95.299 36.0049 95.9507 36.0049C96.8774 36.0049 97.6328 36.2884 98.2168 36.8555C98.805 37.4225 99.133 38.1927 99.2007 39.166L99.2134 39.6357C99.2134 40.6895 98.9193 41.5358 98.3311 42.1748C97.7428 42.8096 96.9536 43.127 95.9634 43.127C94.9731 43.127 94.1818 42.8096 93.5894 42.1748C93.0011 41.54 92.707 40.6768 92.707 39.585V39.5024ZM94.5415 39.6357C94.5415 40.2874 94.6642 40.7868 94.9097 41.1338C95.1551 41.4766 95.5063 41.6479 95.9634 41.6479C96.4077 41.6479 96.7547 41.4787 97.0044 41.1401C97.2541 40.7974 97.3789 40.2515 97.3789 39.5024C97.3789 38.8634 97.2541 38.3683 97.0044 38.0171C96.7547 37.6659 96.4035 37.4902 95.9507 37.4902C95.5021 37.4902 95.1551 37.6659 94.9097 38.0171C94.6642 38.3641 94.5415 38.9036 94.5415 39.6357ZM102.032 36.1318L102.089 36.9253C102.58 36.3117 103.238 36.0049 104.063 36.0049C104.791 36.0049 105.333 36.2186 105.688 36.646C106.043 37.0734 106.225 37.7124 106.234 38.563V43H104.399V38.6074C104.399 38.2181 104.315 37.9367 104.146 37.7632C103.976 37.5854 103.695 37.4966 103.301 37.4966C102.785 37.4966 102.398 37.7166 102.14 38.1567V43H100.305V36.1318H102.032ZM28.4497 54.0581L24.7617 52.7695V51.0049L30.2905 53.3218V54.8135L24.7617 57.1367V55.3657L28.4497 54.0581ZM39.5708 55.5752C39.5708 55.2155 39.4438 54.9404 39.1899 54.75C38.936 54.5553 38.479 54.3522 37.8188 54.1406C37.1587 53.9248 36.6361 53.7132 36.251 53.5059C35.2015 52.9388 34.6768 52.175 34.6768 51.2144C34.6768 50.715 34.8164 50.2707 35.0957 49.8813C35.3792 49.4878 35.7834 49.181 36.3081 48.9609C36.8371 48.7409 37.4295 48.6309 38.0854 48.6309C38.7456 48.6309 39.3338 48.7515 39.8501 48.9927C40.3664 49.2297 40.7663 49.5661 41.0498 50.002C41.3376 50.4378 41.4814 50.9329 41.4814 51.4873H39.5771C39.5771 51.0641 39.4438 50.7362 39.1772 50.5034C38.9106 50.2664 38.5361 50.1479 38.0537 50.1479C37.5882 50.1479 37.2264 50.2474 36.9683 50.4463C36.7101 50.641 36.5811 50.8991 36.5811 51.2207C36.5811 51.5212 36.7313 51.7729 37.0317 51.9761C37.3364 52.1792 37.7829 52.3696 38.3711 52.5474C39.4544 52.8732 40.2437 53.2773 40.7388 53.7598C41.2339 54.2422 41.4814 54.8431 41.4814 55.5625C41.4814 56.3623 41.1789 56.9907 40.5737 57.4478C39.9686 57.9006 39.154 58.127 38.1299 58.127C37.4189 58.127 36.7715 57.9979 36.1875 57.7397C35.6035 57.4774 35.1571 57.1198 34.8481 56.667C34.5435 56.2142 34.3911 55.6895 34.3911 55.0928H36.3018C36.3018 56.1126 36.9111 56.6226 38.1299 56.6226C38.5827 56.6226 38.936 56.5316 39.1899 56.3496C39.4438 56.1634 39.5708 55.9053 39.5708 55.5752ZM46.6357 58C46.5511 57.835 46.4897 57.6297 46.4517 57.3843C46.0073 57.8794 45.4297 58.127 44.7188 58.127C44.0459 58.127 43.4873 57.9323 43.043 57.543C42.6029 57.1536 42.3828 56.6628 42.3828 56.0703C42.3828 55.3424 42.6515 54.7839 43.189 54.3945C43.7306 54.0052 44.5114 53.8084 45.5312 53.8042H46.3755V53.4106C46.3755 53.0933 46.293 52.8394 46.1279 52.6489C45.9671 52.4585 45.7111 52.3633 45.3599 52.3633C45.0509 52.3633 44.8076 52.4373 44.6299 52.5854C44.4564 52.7336 44.3696 52.9367 44.3696 53.1948H42.5352C42.5352 52.797 42.6579 52.4289 42.9033 52.0903C43.1488 51.7518 43.4958 51.4873 43.9443 51.2969C44.3929 51.1022 44.8965 51.0049 45.4551 51.0049C46.3014 51.0049 46.9722 51.2186 47.4673 51.646C47.9666 52.0692 48.2163 52.6659 48.2163 53.436V56.4131C48.2205 57.0648 48.3115 57.5578 48.4893 57.8921V58H46.6357ZM45.1187 56.7241C45.3895 56.7241 45.6392 56.6649 45.8677 56.5464C46.0962 56.4237 46.2655 56.2607 46.3755 56.0576V54.877H45.6899C44.7716 54.877 44.2829 55.1943 44.2236 55.8291L44.2173 55.937C44.2173 56.1655 44.2977 56.3538 44.4585 56.502C44.6193 56.6501 44.8394 56.7241 45.1187 56.7241ZM51.3457 51.1318L51.4028 51.8999C51.8895 51.3032 52.5475 51.0049 53.377 51.0049C54.2614 51.0049 54.8687 51.354 55.1987 52.0522C55.6812 51.354 56.3688 51.0049 57.2617 51.0049C58.0065 51.0049 58.5609 51.2228 58.9248 51.6587C59.2887 52.0903 59.4707 52.742 59.4707 53.6138V58H57.6299V53.6201C57.6299 53.2308 57.5537 52.9473 57.4014 52.7695C57.249 52.5876 56.9803 52.4966 56.5952 52.4966C56.0451 52.4966 55.6642 52.759 55.4526 53.2837L55.459 58H53.6245V53.6265C53.6245 53.2287 53.5462 52.9409 53.3896 52.7632C53.2331 52.5854 52.9665 52.4966 52.5898 52.4966C52.0693 52.4966 51.6927 52.7124 51.46 53.144V58H49.6255V51.1318H51.3457ZM64.0474 58.127C63.0402 58.127 62.2192 57.818 61.5845 57.2002C60.9539 56.5824 60.6387 55.7593 60.6387 54.731V54.5532C60.6387 53.8634 60.772 53.2477 61.0386 52.7061C61.3052 52.1602 61.6818 51.7412 62.1685 51.4492C62.6593 51.153 63.2179 51.0049 63.8442 51.0049C64.7837 51.0049 65.5221 51.3011 66.0596 51.8936C66.6012 52.486 66.8721 53.326 66.8721 54.4136V55.1626H62.4985C62.5578 55.6112 62.7355 55.9709 63.0317 56.2417C63.3322 56.5125 63.7109 56.6479 64.168 56.6479C64.8747 56.6479 65.4269 56.3919 65.8247 55.8799L66.7261 56.8892C66.451 57.2785 66.0786 57.5832 65.6089 57.8032C65.1392 58.019 64.6187 58.127 64.0474 58.127ZM63.8379 52.4902C63.474 52.4902 63.1777 52.613 62.9492 52.8584C62.7249 53.1038 62.5811 53.4551 62.5176 53.9121H65.0693V53.7661C65.0609 53.3599 64.9508 53.0467 64.7393 52.8267C64.5277 52.6024 64.2272 52.4902 63.8379 52.4902ZM77.8535 50.3003H75.0225V58H73.1182V50.3003H70.3252V48.7578H77.8535V50.3003ZM80.8687 55.4038L82.1382 51.1318H84.106L81.3447 59.0664L81.1924 59.4282C80.7819 60.3254 80.1048 60.7739 79.1611 60.7739C78.8945 60.7739 78.6237 60.7337 78.3486 60.6533V59.2632L78.6279 59.2695C78.9749 59.2695 79.2331 59.2166 79.4023 59.1108C79.5758 59.005 79.7113 58.8294 79.8086 58.584L80.0244 58.019L77.6187 51.1318H79.5928L80.8687 55.4038ZM91.0122 54.6294C91.0122 55.6873 90.771 56.5358 90.2886 57.1748C89.8104 57.8096 89.1629 58.127 88.3462 58.127C87.6522 58.127 87.0915 57.8857 86.6641 57.4033V60.6406H84.8296V51.1318H86.5308L86.5942 51.8047C87.0386 51.2715 87.6183 51.0049 88.3335 51.0049C89.1799 51.0049 89.8379 51.318 90.3076 51.9443C90.7773 52.5706 91.0122 53.4339 91.0122 54.5342V54.6294ZM89.1777 54.4961C89.1777 53.8571 89.0635 53.3641 88.835 53.0171C88.6107 52.6701 88.2827 52.4966 87.8511 52.4966C87.2756 52.4966 86.8799 52.7166 86.6641 53.1567V55.9688C86.8883 56.4215 87.2882 56.6479 87.8638 56.6479C88.7397 56.6479 89.1777 55.9307 89.1777 54.4961ZM95.3159 58.127C94.3088 58.127 93.4878 57.818 92.853 57.2002C92.2225 56.5824 91.9072 55.7593 91.9072 54.731V54.5532C91.9072 53.8634 92.0405 53.2477 92.3071 52.7061C92.5737 52.1602 92.9504 51.7412 93.437 51.4492C93.9279 51.153 94.4865 51.0049 95.1128 51.0049C96.0522 51.0049 96.7907 51.3011 97.3281 51.8936C97.8698 52.486 98.1406 53.326 98.1406 54.4136V55.1626H93.7671C93.8263 55.6112 94.0041 55.9709 94.3003 56.2417C94.6007 56.5125 94.9795 56.6479 95.4365 56.6479C96.1432 56.6479 96.6955 56.3919 97.0933 55.8799L97.9946 56.8892C97.7196 57.2785 97.3472 57.5832 96.8774 57.8032C96.4077 58.019 95.8872 58.127 95.3159 58.127ZM95.1064 52.4902C94.7425 52.4902 94.4463 52.613 94.2178 52.8584C93.9935 53.1038 93.8496 53.4551 93.7861 53.9121H96.3379V53.7661C96.3294 53.3599 96.2194 53.0467 96.0078 52.8267C95.7962 52.6024 95.4958 52.4902 95.1064 52.4902Z" fill="#9B51E0"/>
<line x1="16.5" y1="34" x2="16.5" y2="61" stroke="#9B51E0" stroke-width="3"/>
<path d="M120.67 144H118.977V137.473L116.955 138.1V136.723L120.488 135.457H120.67V144ZM168.143 144H162.295V142.84L165.055 139.898C165.434 139.484 165.713 139.123 165.893 138.814C166.076 138.506 166.168 138.213 166.168 137.936C166.168 137.557 166.072 137.26 165.881 137.045C165.689 136.826 165.416 136.717 165.061 136.717C164.678 136.717 164.375 136.85 164.152 137.115C163.934 137.377 163.824 137.723 163.824 138.152H162.125C162.125 137.633 162.248 137.158 162.494 136.729C162.744 136.299 163.096 135.963 163.549 135.721C164.002 135.475 164.516 135.352 165.09 135.352C165.969 135.352 166.65 135.562 167.135 135.984C167.623 136.406 167.867 137.002 167.867 137.771C167.867 138.193 167.758 138.623 167.539 139.061C167.32 139.498 166.945 140.008 166.414 140.59L164.475 142.635H168.143V144ZM209.756 138.984H210.658C211.088 138.984 211.406 138.877 211.613 138.662C211.82 138.447 211.924 138.162 211.924 137.807C211.924 137.463 211.82 137.195 211.613 137.004C211.41 136.812 211.129 136.717 210.77 136.717C210.445 136.717 210.174 136.807 209.955 136.986C209.736 137.162 209.627 137.393 209.627 137.678H207.934C207.934 137.232 208.053 136.834 208.291 136.482C208.533 136.127 208.869 135.85 209.299 135.65C209.732 135.451 210.209 135.352 210.729 135.352C211.631 135.352 212.338 135.568 212.85 136.002C213.361 136.432 213.617 137.025 213.617 137.783C213.617 138.174 213.498 138.533 213.26 138.861C213.021 139.189 212.709 139.441 212.322 139.617C212.803 139.789 213.16 140.047 213.395 140.391C213.633 140.734 213.752 141.141 213.752 141.609C213.752 142.367 213.475 142.975 212.92 143.432C212.369 143.889 211.639 144.117 210.729 144.117C209.877 144.117 209.18 143.893 208.637 143.443C208.098 142.994 207.828 142.4 207.828 141.662H209.521C209.521 141.982 209.641 142.244 209.879 142.447C210.121 142.65 210.418 142.752 210.77 142.752C211.172 142.752 211.486 142.646 211.713 142.436C211.943 142.221 212.059 141.938 212.059 141.586C212.059 140.734 211.59 140.309 210.652 140.309H209.756V138.984Z" fill="#BB6BD9"/>
<path d="M336.67 100H334.977V93.4727L332.955 94.0996V92.7227L336.488 91.457H336.67V100ZM384.143 100H378.295V98.8398L381.055 95.8984C381.434 95.4844 381.713 95.123 381.893 94.8145C382.076 94.5059 382.168 94.2129 382.168 93.9355C382.168 93.5566 382.072 93.2598 381.881 93.0449C381.689 92.8262 381.416 92.7168 381.061 92.7168C380.678 92.7168 380.375 92.8496 380.152 93.1152C379.934 93.377 379.824 93.7227 379.824 94.1523H378.125C378.125 93.6328 378.248 93.1582 378.494 92.7285C378.744 92.2988 379.096 91.9629 379.549 91.7207C380.002 91.4746 380.516 91.3516 381.09 91.3516C381.969 91.3516 382.65 91.5625 383.135 91.9844C383.623 92.4062 383.867 93.002 383.867 93.7715C383.867 94.1934 383.758 94.623 383.539 95.0605C383.32 95.498 382.945 96.0078 382.414 96.5898L380.475 98.6348H384.143V100Z" fill="#BB6BD9"/>
<path d="M306.693 120H305V113.473L302.979 114.1V112.723L306.512 111.457H306.693V120Z" fill="#BB6BD9"/>
<path d="M308.428 154H302.58V152.84L305.34 149.898C305.719 149.484 305.998 149.123 306.178 148.814C306.361 148.506 306.453 148.213 306.453 147.936C306.453 147.557 306.357 147.26 306.166 147.045C305.975 146.826 305.701 146.717 305.346 146.717C304.963 146.717 304.66 146.85 304.438 147.115C304.219 147.377 304.109 147.723 304.109 148.152H302.41C302.41 147.633 302.533 147.158 302.779 146.729C303.029 146.299 303.381 145.963 303.834 145.721C304.287 145.475 304.801 145.352 305.375 145.352C306.254 145.352 306.936 145.562 307.42 145.984C307.908 146.406 308.152 147.002 308.152 147.771C308.152 148.193 308.043 148.623 307.824 149.061C307.605 149.498 307.23 150.008 306.699 150.59L304.76 152.635H308.428V154Z" fill="#BB6BD9"/>
<path d="M304.303 180.984H305.205C305.635 180.984 305.953 180.877 306.16 180.662C306.367 180.447 306.471 180.162 306.471 179.807C306.471 179.463 306.367 179.195 306.16 179.004C305.957 178.812 305.676 178.717 305.316 178.717C304.992 178.717 304.721 178.807 304.502 178.986C304.283 179.162 304.174 179.393 304.174 179.678H302.48C302.48 179.232 302.6 178.834 302.838 178.482C303.08 178.127 303.416 177.85 303.846 177.65C304.279 177.451 304.756 177.352 305.275 177.352C306.178 177.352 306.885 177.568 307.396 178.002C307.908 178.432 308.164 179.025 308.164 179.783C308.164 180.174 308.045 180.533 307.807 180.861C307.568 181.189 307.256 181.441 306.869 181.617C307.35 181.789 307.707 182.047 307.941 182.391C308.18 182.734 308.299 183.141 308.299 183.609C308.299 184.367 308.021 184.975 307.467 185.432C306.916 185.889 306.186 186.117 305.275 186.117C304.424 186.117 303.727 185.893 303.184 185.443C302.645 184.994 302.375 184.4 302.375 183.662H304.068C304.068 183.982 304.188 184.244 304.426 184.447C304.668 184.65 304.965 184.752 305.316 184.752C305.719 184.752 306.033 184.646 306.26 184.436C306.49 184.221 306.605 183.938 306.605 183.586C306.605 182.734 306.137 182.309 305.199 182.309H304.303V180.984Z" fill="#BB6BD9"/>
<rect x="30" y="89" width="37" height="24" fill="#56CCF2" stroke="black" stroke-width="2"/>
<rect x="30" y="154" width="37" height="24" fill="#56CCF2" stroke="black" stroke-width="2"/>
<rect x="30" y="123" width="37" height="24" fill="#56CCF2" stroke="black" stroke-width="2"/>
<path d="M19.6934 104H18V97.4727L15.9785 98.0996V96.7227L19.5117 95.457H19.6934V104Z" fill="#BB6BD9"/>
<path d="M21.4277 138H15.5801V136.84L18.3398 133.898C18.7188 133.484 18.998 133.123 19.1777 132.814C19.3613 132.506 19.4531 132.213 19.4531 131.936C19.4531 131.557 19.3574 131.26 19.166 131.045C18.9746 130.826 18.7012 130.717 18.3457 130.717C17.9629 130.717 17.6602 130.85 17.4375 131.115C17.2188 131.377 17.1094 131.723 17.1094 132.152H15.4102C15.4102 131.633 15.5332 131.158 15.7793 130.729C16.0293 130.299 16.3809 129.963 16.834 129.721C17.2871 129.475 17.8008 129.352 18.375 129.352C19.2539 129.352 19.9355 129.562 20.4199 129.984C20.9082 130.406 21.1523 131.002 21.1523 131.771C21.1523 132.193 21.043 132.623 20.8242 133.061C20.6055 133.498 20.2305 134.008 19.6992 134.59L17.7598 136.635H21.4277V138Z" fill="#BB6BD9"/>
<path d="M17.3027 162.984H18.2051C18.6348 162.984 18.9531 162.877 19.1602 162.662C19.3672 162.447 19.4707 162.162 19.4707 161.807C19.4707 161.463 19.3672 161.195 19.1602 161.004C18.957 160.812 18.6758 160.717 18.3164 160.717C17.9922 160.717 17.7207 160.807 17.502 160.986C17.2832 161.162 17.1738 161.393 17.1738 161.678H15.4805C15.4805 161.232 15.5996 160.834 15.8379 160.482C16.0801 160.127 16.416 159.85 16.8457 159.65C17.2793 159.451 17.7559 159.352 18.2754 159.352C19.1777 159.352 19.8848 159.568 20.3965 160.002C20.9082 160.432 21.1641 161.025 21.1641 161.783C21.1641 162.174 21.0449 162.533 20.8066 162.861C20.5684 163.189 20.2559 163.441 19.8691 163.617C20.3496 163.789 20.707 164.047 20.9414 164.391C21.1797 164.734 21.2988 165.141 21.2988 165.609C21.2988 166.367 21.0215 166.975 20.4668 167.432C19.916 167.889 19.1855 168.117 18.2754 168.117C17.4238 168.117 16.7266 167.893 16.1836 167.443C15.6445 166.994 15.375 166.4 15.375 165.662H17.0684C17.0684 165.982 17.1875 166.244 17.4258 166.447C17.668 166.65 17.9648 166.752 18.3164 166.752C18.7188 166.752 19.0332 166.646 19.2598 166.436C19.4902 166.221 19.6055 165.938 19.6055 165.586C19.6055 164.734 19.1367 164.309 18.1992 164.309H17.3027V162.984Z" fill="#BB6BD9"/>
</svg>
